<svg xmlns="http://www.w3.org/2000/svg" width="1000" height="684" viewBox="0 0 1000 684" role="img" aria-label="Geometry and persistence checks"><rect width="1000" height="684" fill="#f5f7fb"/><style>text{font-family:Arial,sans-serif;fill:#17233c}.title{font-size:30px;font-weight:700}.subtitle{font-size:15px;fill:#53647c}.task{font-size:16px;font-weight:700}.value{font-size:14px}</style><text x="30" y="27" class="subtitle">LOCAL SDK STRATEGY BENCHMARK · NO MODEL CALLS</text><text x="30" y="67" class="title">Geometry and persistence checks</text><text x="30" y="92" class="subtitle">Passing repetitions · both strategies draw the same requested geometry</text><rect x="690" y="20" width="14" height="14" fill="#758397"/><text x="712" y="32" class="value">Per-entity proposals</text><rect x="690" y="45" width="14" height="14" fill="#2863f0"/><text x="712" y="57" class="value">Batched proposals (≤64)</text><text x="30" y="136" class="task">mounting-plate</text><rect x="30" y="148" width="640.00" height="19" rx="3" fill="#758397"/><text x="680.00" y="163" class="value">100%</text><rect x="30" y="176" width="640.00" height="19" rx="3" fill="#2863f0"/><text x="680.00" y="191" class="value">100%</text><text x="30" y="250" class="task">bolt-flange</text><rect x="30" y="262" width="640.00" height="19" rx="3" fill="#758397"/><text x="680.00" y="277" class="value">100%</text><rect x="30" y="290" width="640.00" height="19" rx="3" fill="#2863f0"/><text x="680.00" y="305" class="value">100%</text><text x="30" y="364" class="task">stepped-profile</text><rect x="30" y="376" width="640.00" height="19" rx="3" fill="#758397"/><text x="680.00" y="391" class="value">100%</text><rect x="30" y="404" width="640.00" height="19" rx="3" fill="#2863f0"/><text x="680.00" y="419" class="value">100%</text><text x="30" y="478" class="task">perforated-panel-209</text><rect x="30" y="490" width="640.00" height="19" rx="3" fill="#758397"/><text x="680.00" y="505" class="value">100%</text><rect x="30" y="518" width="640.00" height="19" rx="3" fill="#2863f0"/><text x="680.00" y="533" class="value">100%</text><text x="30" y="630" class="subtitle">Same KJDraw core in both arms · 5 repetitions · v24.19.0</text><text x="30" y="656" class="subtitle">Real model tokens, model latency and cost: NOT MEASURED. See report.json for raw runs and scope.</text></svg>