0
SECTION
2
HEADER
9
$ACADVER
1
AC1032
9
$INSUNITS
70
4
9
$MEASUREMENT
70
1
0
ENDSEC
0
SECTION
2
TABLES
0
TABLE
2
LTYPE
5
13
330
0
100
AcDbSymbolTable
70
1
0
LTYPE
5
2
330
13
100
AcDbSymbolTableRecord
100
AcDbLinetypeTableRecord
2
CONTINUOUS
70
0
3
Solid line
72
65
73
0
40
0
0
ENDTAB
0
TABLE
2
STYLE
5
14
330
0
100
AcDbSymbolTable
70
1
0
STYLE
5
3
330
14
100
AcDbSymbolTableRecord
100
AcDbTextStyleTableRecord
2
STANDARD
70
0
40
0
41
1
50
0
71
0
42
2.5
3
sans-serif
4

0
ENDTAB
0
TABLE
2
DIMSTYLE
5
15
330
0
100
AcDbSymbolTable
70
1
100
AcDbDimStyleTable
0
DIMSTYLE
105
4
330
15
100
AcDbSymbolTableRecord
100
AcDbDimStyleTableRecord
2
STANDARD
70
0
40
1
41
2.5
42
0.625
43
3.75
44
1.25
45
0
140
2.5
141
2.5
147
0.625
0
ENDTAB
0
TABLE
2
UCS
5
16
330
0
100
AcDbSymbolTable
70
0
0
ENDTAB
0
TABLE
2
VIEW
5
17
330
0
100
AcDbSymbolTable
70
0
0
ENDTAB
0
TABLE
2
LAYER
5
18
330
0
100
AcDbSymbolTable
70
1
0
LAYER
5
5
330
18
100
AcDbSymbolTableRecord
100
AcDbLayerTableRecord
2
0
70
0
62
7
6
CONTINUOUS
290
1
370
-1
0
ENDTAB
0
TABLE
2
BLOCK_RECORD
5
19
330
0
100
AcDbSymbolTable
70
2
0
BLOCK_RECORD
5
6
330
19
100
AcDbSymbolTableRecord
100
AcDbBlockTableRecord
2
*MODEL_SPACE
70
0
280
1
281
0
340
8
0
BLOCK_RECORD
5
7
330
19
100
AcDbSymbolTableRecord
100
AcDbBlockTableRecord
2
*PAPER_SPACE
70
0
280
1
281
0
340
9
0
ENDTAB
0
ENDSEC
0
SECTION
2
BLOCKS
0
BLOCK
5
1A
330
6
100
AcDbEntity
8
0
100
AcDbBlockBegin
2
*MODEL_SPACE
70
0
10
0
20
0
30
0
3
*MODEL_SPACE
1

0
ENDBLK
5
1B
330
6
100
AcDbEntity
8
0
100
AcDbBlockEnd
0
BLOCK
5
1C
330
7
100
AcDbEntity
8
0
100
AcDbBlockBegin
2
*PAPER_SPACE
70
0
10
0
20
0
30
0
3
*PAPER_SPACE
1

0
ENDBLK
5
1D
330
7
100
AcDbEntity
8
0
100
AcDbBlockEnd
0
ENDSEC
0
SECTION
2
ENTITIES
0
LINE
5
A
330
6
100
AcDbEntity
8
0
100
AcDbLine
10
50
20
25
30
0
11
70
21
25
31
0
0
LINE
5
B
330
6
100
AcDbEntity
8
0
100
AcDbLine
10
70
20
35
30
0
11
50
21
35
31
0
0
CIRCLE
5
C
330
6
100
AcDbEntity
8
0
100
AcDbCircle
10
10
20
10
30
0
40
3
210
0
220
0
230
1
0
CIRCLE
5
D
330
6
100
AcDbEntity
8
0
100
AcDbCircle
10
110
20
10
30
0
40
3
210
0
220
0
230
1
0
CIRCLE
5
E
330
6
100
AcDbEntity
8
0
100
AcDbCircle
10
110
20
50
30
0
40
3
210
0
220
0
230
1
0
CIRCLE
5
F
330
6
100
AcDbEntity
8
0
100
AcDbCircle
10
10
20
50
30
0
40
3
210
0
220
0
230
1
0
ARC
5
10
330
6
100
AcDbEntity
8
0
100
AcDbCircle
10
70
20
30
30
0
40
5
100
AcDbArc
50
270
51
90
210
0
220
0
230
1
0
ARC
5
11
330
6
100
AcDbEntity
8
0
100
AcDbCircle
10
50
20
30
30
0
40
5
100
AcDbArc
50
90
51
270
210
0
220
0
230
1
0
LWPOLYLINE
5
12
330
6
100
AcDbEntity
8
0
100
AcDbPolyline
90
4
70
1
38
0
10
0
20
0
10
120
20
0
10
120
20
60
10
0
20
60
0
ENDSEC
0
SECTION
2
OBJECTS
0
DICTIONARY
5
1E
330
0
100
AcDbDictionary
281
1
3
ACAD_LAYOUT
350
1F
0
DICTIONARY
5
1F
330
1E
100
AcDbDictionary
280
1
281
1
3
Model
350
8
3
Layout1
350
9
0
LAYOUT
5
8
102
{ACAD_REACTORS
330
1F
102
}
330
1F
100
AcDbPlotSettings
100
AcDbLayout
1
Model
70
1
71
0
10
0
20
0
11
420
21
297
12
0
22
0
32
0
14
0
24
0
34
0
15
0
25
0
35
0
13
0
23
0
33
0
16
1
26
0
36
0
17
0
27
1
37
0
330
6
0
LAYOUT
5
9
102
{ACAD_REACTORS
330
1F
102
}
330
1F
100
AcDbPlotSettings
100
AcDbLayout
1
Layout1
70
1
71
1
10
0
20
0
11
420
21
297
12
0
22
0
32
0
14
0
24
0
34
0
15
0
25
0
35
0
13
0
23
0
33
0
16
1
26
0
36
0
17
0
27
1
37
0
330
7
0
ENDSEC
0
EOF
