0
SECTION
2
HEADER
9
$ACADVER
1
AC1032
9
$INSUNITS
70
4
9
$MEASUREMENT
70
1
0
ENDSEC
0
SECTION
2
TABLES
0
TABLE
2
LTYPE
5
DB
330
0
100
AcDbSymbolTable
70
1
0
LTYPE
5
2
330
DB
100
AcDbSymbolTableRecord
100
AcDbLinetypeTableRecord
2
CONTINUOUS
70
0
3
Solid line
72
65
73
0
40
0
0
ENDTAB
0
TABLE
2
STYLE
5
DC
330
0
100
AcDbSymbolTable
70
1
0
STYLE
5
3
330
DC
100
AcDbSymbolTableRecord
100
AcDbTextStyleTableRecord
2
STANDARD
70
0
40
0
41
1
50
0
71
0
42
2.5
3
sans-serif
4

0
ENDTAB
0
TABLE
2
DIMSTYLE
5
DD
330
0
100
AcDbSymbolTable
70
1
100
AcDbDimStyleTable
0
DIMSTYLE
105
4
330
DD
100
AcDbSymbolTableRecord
100
AcDbDimStyleTableRecord
2
STANDARD
70
0
40
1
41
2.5
42
0.625
43
3.75
44
1.25
45
0
140
2.5
141
2.5
147
0.625
0
ENDTAB
0
TABLE
2
UCS
5
DE
330
0
100
AcDbSymbolTable
70
0
0
ENDTAB
0
TABLE
2
VIEW
5
DF
330
0
100
AcDbSymbolTable
70
0
0
ENDTAB
0
TABLE
2
LAYER
5
E0
330
0
100
AcDbSymbolTable
70
1
0
LAYER
5
5
330
E0
100
AcDbSymbolTableRecord
100
AcDbLayerTableRecord
2
0
70
0
62
7
6
CONTINUOUS
290
1
370
-1
0
ENDTAB
0
TABLE
2
BLOCK_RECORD
5
E1
330
0
100
AcDbSymbolTable
70
2
0
BLOCK_RECORD
5
6
330
E1
100
AcDbSymbolTableRecord
100
AcDbBlockTableRecord
2
*MODEL_SPACE
70
0
280
1
281
0
340
8
0
BLOCK_RECORD
5
7
330
E1
100
AcDbSymbolTableRecord
100
AcDbBlockTableRecord
2
*PAPER_SPACE
70
0
280
1
281
0
340
9
0
ENDTAB
0
ENDSEC
0
SECTION
2
BLOCKS
0
BLOCK
5
E2
330
6
100
AcDbEntity
8
0
100
AcDbBlockBegin
2
*MODEL_SPACE
70
0
10
0
20
0
30
0
3
*MODEL_SPACE
1

0
ENDBLK
5
E3
330
6
100
AcDbEntity
8
0
100
AcDbBlockEnd
0
BLOCK
5
E4
330
7
100
AcDbEntity
8
0
100
AcDbBlockBegin
2
*PAPER_SPACE
70
0
10
0
20
0
30
0
3
*PAPER_SPACE
1

0
ENDBLK
5
E5
330
7
100
AcDbEntity
8
0
100
AcDbBlockEnd
0
ENDSEC
0
SECTION
2
ENTITIES
0
LINE
5
A
330
6
100
AcDbEntity
8
0
100
AcDbLine
10
160
20
1210
30
0
11
260
21
1210
31
0
0
LINE
5
B
330
6
100
AcDbEntity
8
0
100
AcDbLine
10
260
20
1230
30
0
11
160
21
1230
31
0
0
LINE
5
C
330
6
100
AcDbEntity
8
0
100
AcDbLine
10
560
20
1210
30
0
11
660
21
1210
31
0
0
LINE
5
D
330
6
100
AcDbEntity
8
0
100
AcDbLine
10
660
20
1230
30
0
11
560
21
1230
31
0
0
LINE
5
E
330
6
100
AcDbEntity
8
0
100
AcDbLine
10
960
20
1210
30
0
11
1060
21
1210
31
0
0
LINE
5
F
330
6
100
AcDbEntity
8
0
100
AcDbLine
10
1060
20
1230
30
0
11
960
21
1230
31
0
0
LINE
5
10
330
6
100
AcDbEntity
8
0
100
AcDbLine
10
1360
20
1210
30
0
11
1460
21
1210
31
0
0
LINE
5
11
330
6
100
AcDbEntity
8
0
100
AcDbLine
10
1460
20
1230
30
0
11
1360
21
1230
31
0
0
CIRCLE
5
12
330
6
100
AcDbEntity
8
0
100
AcDbCircle
10
40
20
50
30
0
40
8
210
0
220
0
230
1
0
CIRCLE
5
13
330
6
100
AcDbEntity
8
0
100
AcDbCircle
10
140
20
50
30
0
40
8
210
0
220
0
230
1
0
CIRCLE
5
14
330
6
100
AcDbEntity
8
0
100
AcDbCircle
10
240
20
50
30
0
40
8
210
0
220
0
230
1
0
CIRCLE
5
15
330
6
100
AcDbEntity
8
0
100
AcDbCircle
10
340
20
50
30
0
40
8
210
0
220
0
230
1
0
CIRCLE
5
16
330
6
100
AcDbEntity
8
0
100
AcDbCircle
10
440
20
50
30
0
40
8
210
0
220
0
230
1
0
CIRCLE
5
17
330
6
100
AcDbEntity
8
0
100
AcDbCircle
10
540
20
50
30
0
40
8
210
0
220
0
230
1
0
CIRCLE
5
18
330
6
100
AcDbEntity
8
0
100
AcDbCircle
10
640
20
50
30
0
40
8
210
0
220
0
230
1
0
CIRCLE
5
19
330
6
100
AcDbEntity
8
0
100
AcDbCircle
10
740
20
50
30
0
40
8
210
0
220
0
230
1
0
CIRCLE
5
1A
330
6
100
AcDbEntity
8
0
100
AcDbCircle
10
840
20
50
30
0
40
8
210
0
220
0
230
1
0
CIRCLE
5
1B
330
6
100
AcDbEntity
8
0
100
AcDbCircle
10
940
20
50
30
0
40
8
210
0
220
0
230
1
0
CIRCLE
5
1C
330
6
100
AcDbEntity
8
0
100
AcDbCircle
10
1040
20
50
30
0
40
8
210
0
220
0
230
1
0
CIRCLE
5
1D
330
6
100
AcDbEntity
8
0
100
AcDbCircle
10
1140
20
50
30
0
40
8
210
0
220
0
230
1
0
CIRCLE
5
1E
330
6
100
AcDbEntity
8
0
100
AcDbCircle
10
1240
20
50
30
0
40
8
210
0
220
0
230
1
0
CIRCLE
5
1F
330
6
100
AcDbEntity
8
0
100
AcDbCircle
10
1340
20
50
30
0
40
8
210
0
220
0
230
1
0
CIRCLE
5
20
330
6
100
AcDbEntity
8
0
100
AcDbCircle
10
1440
20
50
30
0
40
8
210
0
220
0
230
1
0
CIRCLE
5
21
330
6
100
AcDbEntity
8
0
100
AcDbCircle
10
1540
20
50
30
0
40
8
210
0
220
0
230
1
0
CIRCLE
5
22
330
6
100
AcDbEntity
8
0
100
AcDbCircle
10
40
20
150
30
0
40
8
210
0
220
0
230
1
0
CIRCLE
5
23
330
6
100
AcDbEntity
8
0
100
AcDbCircle
10
140
20
150
30
0
40
8
210
0
220
0
230
1
0
CIRCLE
5
24
330
6
100
AcDbEntity
8
0
100
AcDbCircle
10
240
20
150
30
0
40
8
210
0
220
0
230
1
0
CIRCLE
5
25
330
6
100
AcDbEntity
8
0
100
AcDbCircle
10
340
20
150
30
0
40
8
210
0
220
0
230
1
0
CIRCLE
5
26
330
6
100
AcDbEntity
8
0
100
AcDbCircle
10
440
20
150
30
0
40
8
210
0
220
0
230
1
0
CIRCLE
5
27
330
6
100
AcDbEntity
8
0
100
AcDbCircle
10
540
20
150
30
0
40
8
210
0
220
0
230
1
0
CIRCLE
5
28
330
6
100
AcDbEntity
8
0
100
AcDbCircle
10
640
20
150
30
0
40
8
210
0
220
0
230
1
0
CIRCLE
5
29
330
6
100
AcDbEntity
8
0
100
AcDbCircle
10
740
20
150
30
0
40
8
210
0
220
0
230
1
0
CIRCLE
5
2A
330
6
100
AcDbEntity
8
0
100
AcDbCircle
10
840
20
150
30
0
40
8
210
0
220
0
230
1
0
CIRCLE
5
2B
330
6
100
AcDbEntity
8
0
100
AcDbCircle
10
940
20
150
30
0
40
8
210
0
220
0
230
1
0
CIRCLE
5
2C
330
6
100
AcDbEntity
8
0
100
AcDbCircle
10
1040
20
150
30
0
40
8
210
0
220
0
230
1
0
CIRCLE
5
2D
330
6
100
AcDbEntity
8
0
100
AcDbCircle
10
1140
20
150
30
0
40
8
210
0
220
0
230
1
0
CIRCLE
5
2E
330
6
100
AcDbEntity
8
0
100
AcDbCircle
10
1240
20
150
30
0
40
8
210
0
220
0
230
1
0
CIRCLE
5
2F
330
6
100
AcDbEntity
8
0
100
AcDbCircle
10
1340
20
150
30
0
40
8
210
0
220
0
230
1
0
CIRCLE
5
30
330
6
100
AcDbEntity
8
0
100
AcDbCircle
10
1440
20
150
30
0
40
8
210
0
220
0
230
1
0
CIRCLE
5
31
330
6
100
AcDbEntity
8
0
100
AcDbCircle
10
1540
20
150
30
0
40
8
210
0
220
0
230
1
0
CIRCLE
5
32
330
6
100
AcDbEntity
8
0
100
AcDbCircle
10
40
20
250
30
0
40
8
210
0
220
0
230
1
0
CIRCLE
5
33
330
6
100
AcDbEntity
8
0
100
AcDbCircle
10
140
20
250
30
0
40
8
210
0
220
0
230
1
0
CIRCLE
5
34
330
6
100
AcDbEntity
8
0
100
AcDbCircle
10
240
20
250
30
0
40
8
210
0
220
0
230
1
0
CIRCLE
5
35
330
6
100
AcDbEntity
8
0
100
AcDbCircle
10
340
20
250
30
0
40
8
210
0
220
0
230
1
0
CIRCLE
5
36
330
6
100
AcDbEntity
8
0
100
AcDbCircle
10
440
20
250
30
0
40
8
210
0
220
0
230
1
0
CIRCLE
5
37
330
6
100
AcDbEntity
8
0
100
AcDbCircle
10
540
20
250
30
0
40
8
210
0
220
0
230
1
0
CIRCLE
5
38
330
6
100
AcDbEntity
8
0
100
AcDbCircle
10
640
20
250
30
0
40
8
210
0
220
0
230
1
0
CIRCLE
5
39
330
6
100
AcDbEntity
8
0
100
AcDbCircle
10
740
20
250
30
0
40
8
210
0
220
0
230
1
0
CIRCLE
5
3A
330
6
100
AcDbEntity
8
0
100
AcDbCircle
10
840
20
250
30
0
40
8
210
0
220
0
230
1
0
CIRCLE
5
3B
330
6
100
AcDbEntity
8
0
100
AcDbCircle
10
940
20
250
30
0
40
8
210
0
220
0
230
1
0
CIRCLE
5
3C
330
6
100
AcDbEntity
8
0
100
AcDbCircle
10
1040
20
250
30
0
40
8
210
0
220
0
230
1
0
CIRCLE
5
3D
330
6
100
AcDbEntity
8
0
100
AcDbCircle
10
1140
20
250
30
0
40
8
210
0
220
0
230
1
0
CIRCLE
5
3E
330
6
100
AcDbEntity
8
0
100
AcDbCircle
10
1240
20
250
30
0
40
8
210
0
220
0
230
1
0
CIRCLE
5
3F
330
6
100
AcDbEntity
8
0
100
AcDbCircle
10
1340
20
250
30
0
40
8
210
0
220
0
230
1
0
CIRCLE
5
40
330
6
100
AcDbEntity
8
0
100
AcDbCircle
10
1440
20
250
30
0
40
8
210
0
220
0
230
1
0
CIRCLE
5
41
330
6
100
AcDbEntity
8
0
100
AcDbCircle
10
1540
20
250
30
0
40
8
210
0
220
0
230
1
0
CIRCLE
5
42
330
6
100
AcDbEntity
8
0
100
AcDbCircle
10
40
20
350
30
0
40
8
210
0
220
0
230
1
0
CIRCLE
5
43
330
6
100
AcDbEntity
8
0
100
AcDbCircle
10
140
20
350
30
0
40
8
210
0
220
0
230
1
0
CIRCLE
5
44
330
6
100
AcDbEntity
8
0
100
AcDbCircle
10
240
20
350
30
0
40
8
210
0
220
0
230
1
0
CIRCLE
5
45
330
6
100
AcDbEntity
8
0
100
AcDbCircle
10
340
20
350
30
0
40
8
210
0
220
0
230
1
0
CIRCLE
5
46
330
6
100
AcDbEntity
8
0
100
AcDbCircle
10
440
20
350
30
0
40
8
210
0
220
0
230
1
0
CIRCLE
5
47
330
6
100
AcDbEntity
8
0
100
AcDbCircle
10
540
20
350
30
0
40
8
210
0
220
0
230
1
0
CIRCLE
5
48
330
6
100
AcDbEntity
8
0
100
AcDbCircle
10
640
20
350
30
0
40
8
210
0
220
0
230
1
0
CIRCLE
5
49
330
6
100
AcDbEntity
8
0
100
AcDbCircle
10
740
20
350
30
0
40
8
210
0
220
0
230
1
0
CIRCLE
5
4A
330
6
100
AcDbEntity
8
0
100
AcDbCircle
10
840
20
350
30
0
40
8
210
0
220
0
230
1
0
CIRCLE
5
4B
330
6
100
AcDbEntity
8
0
100
AcDbCircle
10
940
20
350
30
0
40
8
210
0
220
0
230
1
0
CIRCLE
5
4C
330
6
100
AcDbEntity
8
0
100
AcDbCircle
10
1040
20
350
30
0
40
8
210
0
220
0
230
1
0
CIRCLE
5
4D
330
6
100
AcDbEntity
8
0
100
AcDbCircle
10
1140
20
350
30
0
40
8
210
0
220
0
230
1
0
CIRCLE
5
4E
330
6
100
AcDbEntity
8
0
100
AcDbCircle
10
1240
20
350
30
0
40
8
210
0
220
0
230
1
0
CIRCLE
5
4F
330
6
100
AcDbEntity
8
0
100
AcDbCircle
10
1340
20
350
30
0
40
8
210
0
220
0
230
1
0
CIRCLE
5
50
330
6
100
AcDbEntity
8
0
100
AcDbCircle
10
1440
20
350
30
0
40
8
210
0
220
0
230
1
0
CIRCLE
5
51
330
6
100
AcDbEntity
8
0
100
AcDbCircle
10
1540
20
350
30
0
40
8
210
0
220
0
230
1
0
CIRCLE
5
52
330
6
100
AcDbEntity
8
0
100
AcDbCircle
10
40
20
450
30
0
40
8
210
0
220
0
230
1
0
CIRCLE
5
53
330
6
100
AcDbEntity
8
0
100
AcDbCircle
10
140
20
450
30
0
40
8
210
0
220
0
230
1
0
CIRCLE
5
54
330
6
100
AcDbEntity
8
0
100
AcDbCircle
10
240
20
450
30
0
40
8
210
0
220
0
230
1
0
CIRCLE
5
55
330
6
100
AcDbEntity
8
0
100
AcDbCircle
10
340
20
450
30
0
40
8
210
0
220
0
230
1
0
CIRCLE
5
56
330
6
100
AcDbEntity
8
0
100
AcDbCircle
10
440
20
450
30
0
40
8
210
0
220
0
230
1
0
CIRCLE
5
57
330
6
100
AcDbEntity
8
0
100
AcDbCircle
10
540
20
450
30
0
40
8
210
0
220
0
230
1
0
CIRCLE
5
58
330
6
100
AcDbEntity
8
0
100
AcDbCircle
10
640
20
450
30
0
40
8
210
0
220
0
230
1
0
CIRCLE
5
59
330
6
100
AcDbEntity
8
0
100
AcDbCircle
10
740
20
450
30
0
40
8
210
0
220
0
230
1
0
CIRCLE
5
5A
330
6
100
AcDbEntity
8
0
100
AcDbCircle
10
840
20
450
30
0
40
8
210
0
220
0
230
1
0
CIRCLE
5
5B
330
6
100
AcDbEntity
8
0
100
AcDbCircle
10
940
20
450
30
0
40
8
210
0
220
0
230
1
0
CIRCLE
5
5C
330
6
100
AcDbEntity
8
0
100
AcDbCircle
10
1040
20
450
30
0
40
8
210
0
220
0
230
1
0
CIRCLE
5
5D
330
6
100
AcDbEntity
8
0
100
AcDbCircle
10
1140
20
450
30
0
40
8
210
0
220
0
230
1
0
CIRCLE
5
5E
330
6
100
AcDbEntity
8
0
100
AcDbCircle
10
1240
20
450
30
0
40
8
210
0
220
0
230
1
0
CIRCLE
5
5F
330
6
100
AcDbEntity
8
0
100
AcDbCircle
10
1340
20
450
30
0
40
8
210
0
220
0
230
1
0
CIRCLE
5
60
330
6
100
AcDbEntity
8
0
100
AcDbCircle
10
1440
20
450
30
0
40
8
210
0
220
0
230
1
0
CIRCLE
5
61
330
6
100
AcDbEntity
8
0
100
AcDbCircle
10
1540
20
450
30
0
40
8
210
0
220
0
230
1
0
CIRCLE
5
62
330
6
100
AcDbEntity
8
0
100
AcDbCircle
10
40
20
550
30
0
40
8
210
0
220
0
230
1
0
CIRCLE
5
63
330
6
100
AcDbEntity
8
0
100
AcDbCircle
10
140
20
550
30
0
40
8
210
0
220
0
230
1
0
CIRCLE
5
64
330
6
100
AcDbEntity
8
0
100
AcDbCircle
10
240
20
550
30
0
40
8
210
0
220
0
230
1
0
CIRCLE
5
65
330
6
100
AcDbEntity
8
0
100
AcDbCircle
10
340
20
550
30
0
40
8
210
0
220
0
230
1
0
CIRCLE
5
66
330
6
100
AcDbEntity
8
0
100
AcDbCircle
10
440
20
550
30
0
40
8
210
0
220
0
230
1
0
CIRCLE
5
67
330
6
100
AcDbEntity
8
0
100
AcDbCircle
10
540
20
550
30
0
40
8
210
0
220
0
230
1
0
CIRCLE
5
68
330
6
100
AcDbEntity
8
0
100
AcDbCircle
10
640
20
550
30
0
40
8
210
0
220
0
230
1
0
CIRCLE
5
69
330
6
100
AcDbEntity
8
0
100
AcDbCircle
10
740
20
550
30
0
40
8
210
0
220
0
230
1
0
CIRCLE
5
6A
330
6
100
AcDbEntity
8
0
100
AcDbCircle
10
840
20
550
30
0
40
8
210
0
220
0
230
1
0
CIRCLE
5
6B
330
6
100
AcDbEntity
8
0
100
AcDbCircle
10
940
20
550
30
0
40
8
210
0
220
0
230
1
0
CIRCLE
5
6C
330
6
100
AcDbEntity
8
0
100
AcDbCircle
10
1040
20
550
30
0
40
8
210
0
220
0
230
1
0
CIRCLE
5
6D
330
6
100
AcDbEntity
8
0
100
AcDbCircle
10
1140
20
550
30
0
40
8
210
0
220
0
230
1
0
CIRCLE
5
6E
330
6
100
AcDbEntity
8
0
100
AcDbCircle
10
1240
20
550
30
0
40
8
210
0
220
0
230
1
0
CIRCLE
5
6F
330
6
100
AcDbEntity
8
0
100
AcDbCircle
10
1340
20
550
30
0
40
8
210
0
220
0
230
1
0
CIRCLE
5
70
330
6
100
AcDbEntity
8
0
100
AcDbCircle
10
1440
20
550
30
0
40
8
210
0
220
0
230
1
0
CIRCLE
5
71
330
6
100
AcDbEntity
8
0
100
AcDbCircle
10
1540
20
550
30
0
40
8
210
0
220
0
230
1
0
CIRCLE
5
72
330
6
100
AcDbEntity
8
0
100
AcDbCircle
10
40
20
650
30
0
40
8
210
0
220
0
230
1
0
CIRCLE
5
73
330
6
100
AcDbEntity
8
0
100
AcDbCircle
10
140
20
650
30
0
40
8
210
0
220
0
230
1
0
CIRCLE
5
74
330
6
100
AcDbEntity
8
0
100
AcDbCircle
10
240
20
650
30
0
40
8
210
0
220
0
230
1
0
CIRCLE
5
75
330
6
100
AcDbEntity
8
0
100
AcDbCircle
10
340
20
650
30
0
40
8
210
0
220
0
230
1
0
CIRCLE
5
76
330
6
100
AcDbEntity
8
0
100
AcDbCircle
10
440
20
650
30
0
40
8
210
0
220
0
230
1
0
CIRCLE
5
77
330
6
100
AcDbEntity
8
0
100
AcDbCircle
10
540
20
650
30
0
40
8
210
0
220
0
230
1
0
CIRCLE
5
78
330
6
100
AcDbEntity
8
0
100
AcDbCircle
10
640
20
650
30
0
40
8
210
0
220
0
230
1
0
CIRCLE
5
79
330
6
100
AcDbEntity
8
0
100
AcDbCircle
10
740
20
650
30
0
40
8
210
0
220
0
230
1
0
CIRCLE
5
7A
330
6
100
AcDbEntity
8
0
100
AcDbCircle
10
840
20
650
30
0
40
8
210
0
220
0
230
1
0
CIRCLE
5
7B
330
6
100
AcDbEntity
8
0
100
AcDbCircle
10
940
20
650
30
0
40
8
210
0
220
0
230
1
0
CIRCLE
5
7C
330
6
100
AcDbEntity
8
0
100
AcDbCircle
10
1040
20
650
30
0
40
8
210
0
220
0
230
1
0
CIRCLE
5
7D
330
6
100
AcDbEntity
8
0
100
AcDbCircle
10
1140
20
650
30
0
40
8
210
0
220
0
230
1
0
CIRCLE
5
7E
330
6
100
AcDbEntity
8
0
100
AcDbCircle
10
1240
20
650
30
0
40
8
210
0
220
0
230
1
0
CIRCLE
5
7F
330
6
100
AcDbEntity
8
0
100
AcDbCircle
10
1340
20
650
30
0
40
8
210
0
220
0
230
1
0
CIRCLE
5
80
330
6
100
AcDbEntity
8
0
100
AcDbCircle
10
1440
20
650
30
0
40
8
210
0
220
0
230
1
0
CIRCLE
5
81
330
6
100
AcDbEntity
8
0
100
AcDbCircle
10
1540
20
650
30
0
40
8
210
0
220
0
230
1
0
CIRCLE
5
82
330
6
100
AcDbEntity
8
0
100
AcDbCircle
10
40
20
750
30
0
40
8
210
0
220
0
230
1
0
CIRCLE
5
83
330
6
100
AcDbEntity
8
0
100
AcDbCircle
10
140
20
750
30
0
40
8
210
0
220
0
230
1
0
CIRCLE
5
84
330
6
100
AcDbEntity
8
0
100
AcDbCircle
10
240
20
750
30
0
40
8
210
0
220
0
230
1
0
CIRCLE
5
85
330
6
100
AcDbEntity
8
0
100
AcDbCircle
10
340
20
750
30
0
40
8
210
0
220
0
230
1
0
CIRCLE
5
86
330
6
100
AcDbEntity
8
0
100
AcDbCircle
10
440
20
750
30
0
40
8
210
0
220
0
230
1
0
CIRCLE
5
87
330
6
100
AcDbEntity
8
0
100
AcDbCircle
10
540
20
750
30
0
40
8
210
0
220
0
230
1
0
CIRCLE
5
88
330
6
100
AcDbEntity
8
0
100
AcDbCircle
10
640
20
750
30
0
40
8
210
0
220
0
230
1
0
CIRCLE
5
89
330
6
100
AcDbEntity
8
0
100
AcDbCircle
10
740
20
750
30
0
40
8
210
0
220
0
230
1
0
CIRCLE
5
8A
330
6
100
AcDbEntity
8
0
100
AcDbCircle
10
840
20
750
30
0
40
8
210
0
220
0
230
1
0
CIRCLE
5
8B
330
6
100
AcDbEntity
8
0
100
AcDbCircle
10
940
20
750
30
0
40
8
210
0
220
0
230
1
0
CIRCLE
5
8C
330
6
100
AcDbEntity
8
0
100
AcDbCircle
10
1040
20
750
30
0
40
8
210
0
220
0
230
1
0
CIRCLE
5
8D
330
6
100
AcDbEntity
8
0
100
AcDbCircle
10
1140
20
750
30
0
40
8
210
0
220
0
230
1
0
CIRCLE
5
8E
330
6
100
AcDbEntity
8
0
100
AcDbCircle
10
1240
20
750
30
0
40
8
210
0
220
0
230
1
0
CIRCLE
5
8F
330
6
100
AcDbEntity
8
0
100
AcDbCircle
10
1340
20
750
30
0
40
8
210
0
220
0
230
1
0
CIRCLE
5
90
330
6
100
AcDbEntity
8
0
100
AcDbCircle
10
1440
20
750
30
0
40
8
210
0
220
0
230
1
0
CIRCLE
5
91
330
6
100
AcDbEntity
8
0
100
AcDbCircle
10
1540
20
750
30
0
40
8
210
0
220
0
230
1
0
CIRCLE
5
92
330
6
100
AcDbEntity
8
0
100
AcDbCircle
10
40
20
850
30
0
40
8
210
0
220
0
230
1
0
CIRCLE
5
93
330
6
100
AcDbEntity
8
0
100
AcDbCircle
10
140
20
850
30
0
40
8
210
0
220
0
230
1
0
CIRCLE
5
94
330
6
100
AcDbEntity
8
0
100
AcDbCircle
10
240
20
850
30
0
40
8
210
0
220
0
230
1
0
CIRCLE
5
95
330
6
100
AcDbEntity
8
0
100
AcDbCircle
10
340
20
850
30
0
40
8
210
0
220
0
230
1
0
CIRCLE
5
96
330
6
100
AcDbEntity
8
0
100
AcDbCircle
10
440
20
850
30
0
40
8
210
0
220
0
230
1
0
CIRCLE
5
97
330
6
100
AcDbEntity
8
0
100
AcDbCircle
10
540
20
850
30
0
40
8
210
0
220
0
230
1
0
CIRCLE
5
98
330
6
100
AcDbEntity
8
0
100
AcDbCircle
10
640
20
850
30
0
40
8
210
0
220
0
230
1
0
CIRCLE
5
99
330
6
100
AcDbEntity
8
0
100
AcDbCircle
10
740
20
850
30
0
40
8
210
0
220
0
230
1
0
CIRCLE
5
9A
330
6
100
AcDbEntity
8
0
100
AcDbCircle
10
840
20
850
30
0
40
8
210
0
220
0
230
1
0
CIRCLE
5
9B
330
6
100
AcDbEntity
8
0
100
AcDbCircle
10
940
20
850
30
0
40
8
210
0
220
0
230
1
0
CIRCLE
5
9C
330
6
100
AcDbEntity
8
0
100
AcDbCircle
10
1040
20
850
30
0
40
8
210
0
220
0
230
1
0
CIRCLE
5
9D
330
6
100
AcDbEntity
8
0
100
AcDbCircle
10
1140
20
850
30
0
40
8
210
0
220
0
230
1
0
CIRCLE
5
9E
330
6
100
AcDbEntity
8
0
100
AcDbCircle
10
1240
20
850
30
0
40
8
210
0
220
0
230
1
0
CIRCLE
5
9F
330
6
100
AcDbEntity
8
0
100
AcDbCircle
10
1340
20
850
30
0
40
8
210
0
220
0
230
1
0
CIRCLE
5
A0
330
6
100
AcDbEntity
8
0
100
AcDbCircle
10
1440
20
850
30
0
40
8
210
0
220
0
230
1
0
CIRCLE
5
A1
330
6
100
AcDbEntity
8
0
100
AcDbCircle
10
1540
20
850
30
0
40
8
210
0
220
0
230
1
0
CIRCLE
5
A2
330
6
100
AcDbEntity
8
0
100
AcDbCircle
10
40
20
950
30
0
40
8
210
0
220
0
230
1
0
CIRCLE
5
A3
330
6
100
AcDbEntity
8
0
100
AcDbCircle
10
140
20
950
30
0
40
8
210
0
220
0
230
1
0
CIRCLE
5
A4
330
6
100
AcDbEntity
8
0
100
AcDbCircle
10
240
20
950
30
0
40
8
210
0
220
0
230
1
0
CIRCLE
5
A5
330
6
100
AcDbEntity
8
0
100
AcDbCircle
10
340
20
950
30
0
40
8
210
0
220
0
230
1
0
CIRCLE
5
A6
330
6
100
AcDbEntity
8
0
100
AcDbCircle
10
440
20
950
30
0
40
8
210
0
220
0
230
1
0
CIRCLE
5
A7
330
6
100
AcDbEntity
8
0
100
AcDbCircle
10
540
20
950
30
0
40
8
210
0
220
0
230
1
0
CIRCLE
5
A8
330
6
100
AcDbEntity
8
0
100
AcDbCircle
10
640
20
950
30
0
40
8
210
0
220
0
230
1
0
CIRCLE
5
A9
330
6
100
AcDbEntity
8
0
100
AcDbCircle
10
740
20
950
30
0
40
8
210
0
220
0
230
1
0
CIRCLE
5
AA
330
6
100
AcDbEntity
8
0
100
AcDbCircle
10
840
20
950
30
0
40
8
210
0
220
0
230
1
0
CIRCLE
5
AB
330
6
100
AcDbEntity
8
0
100
AcDbCircle
10
940
20
950
30
0
40
8
210
0
220
0
230
1
0
CIRCLE
5
AC
330
6
100
AcDbEntity
8
0
100
AcDbCircle
10
1040
20
950
30
0
40
8
210
0
220
0
230
1
0
CIRCLE
5
AD
330
6
100
AcDbEntity
8
0
100
AcDbCircle
10
1140
20
950
30
0
40
8
210
0
220
0
230
1
0
CIRCLE
5
AE
330
6
100
AcDbEntity
8
0
100
AcDbCircle
10
1240
20
950
30
0
40
8
210
0
220
0
230
1
0
CIRCLE
5
AF
330
6
100
AcDbEntity
8
0
100
AcDbCircle
10
1340
20
950
30
0
40
8
210
0
220
0
230
1
0
CIRCLE
5
B0
330
6
100
AcDbEntity
8
0
100
AcDbCircle
10
1440
20
950
30
0
40
8
210
0
220
0
230
1
0
CIRCLE
5
B1
330
6
100
AcDbEntity
8
0
100
AcDbCircle
10
1540
20
950
30
0
40
8
210
0
220
0
230
1
0
CIRCLE
5
B2
330
6
100
AcDbEntity
8
0
100
AcDbCircle
10
40
20
1050
30
0
40
8
210
0
220
0
230
1
0
CIRCLE
5
B3
330
6
100
AcDbEntity
8
0
100
AcDbCircle
10
140
20
1050
30
0
40
8
210
0
220
0
230
1
0
CIRCLE
5
B4
330
6
100
AcDbEntity
8
0
100
AcDbCircle
10
240
20
1050
30
0
40
8
210
0
220
0
230
1
0
CIRCLE
5
B5
330
6
100
AcDbEntity
8
0
100
AcDbCircle
10
340
20
1050
30
0
40
8
210
0
220
0
230
1
0
CIRCLE
5
B6
330
6
100
AcDbEntity
8
0
100
AcDbCircle
10
440
20
1050
30
0
40
8
210
0
220
0
230
1
0
CIRCLE
5
B7
330
6
100
AcDbEntity
8
0
100
AcDbCircle
10
540
20
1050
30
0
40
8
210
0
220
0
230
1
0
CIRCLE
5
B8
330
6
100
AcDbEntity
8
0
100
AcDbCircle
10
640
20
1050
30
0
40
8
210
0
220
0
230
1
0
CIRCLE
5
B9
330
6
100
AcDbEntity
8
0
100
AcDbCircle
10
740
20
1050
30
0
40
8
210
0
220
0
230
1
0
CIRCLE
5
BA
330
6
100
AcDbEntity
8
0
100
AcDbCircle
10
840
20
1050
30
0
40
8
210
0
220
0
230
1
0
CIRCLE
5
BB
330
6
100
AcDbEntity
8
0
100
AcDbCircle
10
940
20
1050
30
0
40
8
210
0
220
0
230
1
0
CIRCLE
5
BC
330
6
100
AcDbEntity
8
0
100
AcDbCircle
10
1040
20
1050
30
0
40
8
210
0
220
0
230
1
0
CIRCLE
5
BD
330
6
100
AcDbEntity
8
0
100
AcDbCircle
10
1140
20
1050
30
0
40
8
210
0
220
0
230
1
0
CIRCLE
5
BE
330
6
100
AcDbEntity
8
0
100
AcDbCircle
10
1240
20
1050
30
0
40
8
210
0
220
0
230
1
0
CIRCLE
5
BF
330
6
100
AcDbEntity
8
0
100
AcDbCircle
10
1340
20
1050
30
0
40
8
210
0
220
0
230
1
0
CIRCLE
5
C0
330
6
100
AcDbEntity
8
0
100
AcDbCircle
10
1440
20
1050
30
0
40
8
210
0
220
0
230
1
0
CIRCLE
5
C1
330
6
100
AcDbEntity
8
0
100
AcDbCircle
10
1540
20
1050
30
0
40
8
210
0
220
0
230
1
0
CIRCLE
5
C2
330
6
100
AcDbEntity
8
0
100
AcDbCircle
10
40
20
1150
30
0
40
8
210
0
220
0
230
1
0
CIRCLE
5
C3
330
6
100
AcDbEntity
8
0
100
AcDbCircle
10
140
20
1150
30
0
40
8
210
0
220
0
230
1
0
CIRCLE
5
C4
330
6
100
AcDbEntity
8
0
100
AcDbCircle
10
240
20
1150
30
0
40
8
210
0
220
0
230
1
0
CIRCLE
5
C5
330
6
100
AcDbEntity
8
0
100
AcDbCircle
10
340
20
1150
30
0
40
8
210
0
220
0
230
1
0
CIRCLE
5
C6
330
6
100
AcDbEntity
8
0
100
AcDbCircle
10
440
20
1150
30
0
40
8
210
0
220
0
230
1
0
CIRCLE
5
C7
330
6
100
AcDbEntity
8
0
100
AcDbCircle
10
540
20
1150
30
0
40
8
210
0
220
0
230
1
0
CIRCLE
5
C8
330
6
100
AcDbEntity
8
0
100
AcDbCircle
10
640
20
1150
30
0
40
8
210
0
220
0
230
1
0
CIRCLE
5
C9
330
6
100
AcDbEntity
8
0
100
AcDbCircle
10
740
20
1150
30
0
40
8
210
0
220
0
230
1
0
CIRCLE
5
CA
330
6
100
AcDbEntity
8
0
100
AcDbCircle
10
840
20
1150
30
0
40
8
210
0
220
0
230
1
0
CIRCLE
5
CB
330
6
100
AcDbEntity
8
0
100
AcDbCircle
10
940
20
1150
30
0
40
8
210
0
220
0
230
1
0
CIRCLE
5
CC
330
6
100
AcDbEntity
8
0
100
AcDbCircle
10
1040
20
1150
30
0
40
8
210
0
220
0
230
1
0
CIRCLE
5
CD
330
6
100
AcDbEntity
8
0
100
AcDbCircle
10
1140
20
1150
30
0
40
8
210
0
220
0
230
1
0
CIRCLE
5
CE
330
6
100
AcDbEntity
8
0
100
AcDbCircle
10
1240
20
1150
30
0
40
8
210
0
220
0
230
1
0
CIRCLE
5
CF
330
6
100
AcDbEntity
8
0
100
AcDbCircle
10
1340
20
1150
30
0
40
8
210
0
220
0
230
1
0
CIRCLE
5
D0
330
6
100
AcDbEntity
8
0
100
AcDbCircle
10
1440
20
1150
30
0
40
8
210
0
220
0
230
1
0
CIRCLE
5
D1
330
6
100
AcDbEntity
8
0
100
AcDbCircle
10
1540
20
1150
30
0
40
8
210
0
220
0
230
1
0
ARC
5
D2
330
6
100
AcDbEntity
8
0
100
AcDbCircle
10
260
20
1220
30
0
40
10
100
AcDbArc
50
270
51
90
210
0
220
0
230
1
0
ARC
5
D3
330
6
100
AcDbEntity
8
0
100
AcDbCircle
10
160
20
1220
30
0
40
10
100
AcDbArc
50
90
51
270
210
0
220
0
230
1
0
ARC
5
D4
330
6
100
AcDbEntity
8
0
100
AcDbCircle
10
660
20
1220
30
0
40
10
100
AcDbArc
50
270
51
90
210
0
220
0
230
1
0
ARC
5
D5
330
6
100
AcDbEntity
8
0
100
AcDbCircle
10
560
20
1220
30
0
40
10
100
AcDbArc
50
90
51
270
210
0
220
0
230
1
0
ARC
5
D6
330
6
100
AcDbEntity
8
0
100
AcDbCircle
10
1060
20
1220
30
0
40
10
100
AcDbArc
50
270
51
90
210
0
220
0
230
1
0
ARC
5
D7
330
6
100
AcDbEntity
8
0
100
AcDbCircle
10
960
20
1220
30
0
40
10
100
AcDbArc
50
90
51
270
210
0
220
0
230
1
0
ARC
5
D8
330
6
100
AcDbEntity
8
0
100
AcDbCircle
10
1460
20
1220
30
0
40
10
100
AcDbArc
50
270
51
90
210
0
220
0
230
1
0
ARC
5
D9
330
6
100
AcDbEntity
8
0
100
AcDbCircle
10
1360
20
1220
30
0
40
10
100
AcDbArc
50
90
51
270
210
0
220
0
230
1
0
LWPOLYLINE
5
DA
330
6
100
AcDbEntity
8
0
100
AcDbPolyline
90
4
70
1
38
0
10
0
20
0
10
1680
20
0
10
1680
20
1280
10
0
20
1280
0
ENDSEC
0
SECTION
2
OBJECTS
0
DICTIONARY
5
E6
330
0
100
AcDbDictionary
281
1
3
ACAD_LAYOUT
350
E7
0
DICTIONARY
5
E7
330
E6
100
AcDbDictionary
280
1
281
1
3
Model
350
8
3
Layout1
350
9
0
LAYOUT
5
8
102
{ACAD_REACTORS
330
E7
102
}
330
E7
100
AcDbPlotSettings
100
AcDbLayout
1
Model
70
1
71
0
10
0
20
0
11
420
21
297
12
0
22
0
32
0
14
0
24
0
34
0
15
0
25
0
35
0
13
0
23
0
33
0
16
1
26
0
36
0
17
0
27
1
37
0
330
6
0
LAYOUT
5
9
102
{ACAD_REACTORS
330
E7
102
}
330
E7
100
AcDbPlotSettings
100
AcDbLayout
1
Layout1
70
1
71
1
10
0
20
0
11
420
21
297
12
0
22
0
32
0
14
0
24
0
34
0
15
0
25
0
35
0
13
0
23
0
33
0
16
1
26
0
36
0
17
0
27
1
37
0
330
7
0
ENDSEC
0
EOF
