0
SECTION
2
HEADER
9
$ACADVER
1
AC1032
9
$DWGCODEPAGE
3
UTF-8
9
$HANDSEED
5
1B
9
$LTSCALE
40
1
9
$PDMODE
70
0
9
$PDSIZE
40
0
9
$TEXTSTYLE
7
STANDARD
9
$INSUNITS
70
4
9
$MEASUREMENT
70
1
0
ENDSEC
0
SECTION
2
TABLES
0
TABLE
2
LTYPE
5
D
330
0
100
AcDbSymbolTable
70
1
0
LTYPE
5
2
330
D
100
AcDbSymbolTableRecord
100
AcDbLinetypeTableRecord
2
CONTINUOUS
70
0
3
Solid line
72
65
73
0
40
0
0
ENDTAB
0
TABLE
2
STYLE
5
E
330
0
100
AcDbSymbolTable
70
1
0
STYLE
5
3
330
E
100
AcDbSymbolTableRecord
100
AcDbTextStyleTableRecord
2
STANDARD
70
0
40
0
41
1
50
0
71
0
42
2.5
3
sans-serif
4

0
ENDTAB
0
TABLE
2
DIMSTYLE
5
F
330
0
100
AcDbSymbolTable
70
1
100
AcDbDimStyleTable
0
DIMSTYLE
105
4
330
F
100
AcDbSymbolTableRecord
100
AcDbDimStyleTableRecord
2
STANDARD
70
0
40
1
41
2.5
42
0.625
43
3.75
44
1.25
140
2.5
141
2.5
147
0.625
0
ENDTAB
0
TABLE
2
UCS
5
10
330
0
100
AcDbSymbolTable
70
0
0
ENDTAB
0
TABLE
2
VIEW
5
11
330
0
100
AcDbSymbolTable
70
0
0
ENDTAB
0
TABLE
2
LAYER
5
12
330
0
100
AcDbSymbolTable
70
1
0
LAYER
5
5
330
12
100
AcDbSymbolTableRecord
100
AcDbLayerTableRecord
2
0
70
0
62
7
6
CONTINUOUS
290
1
370
-1
0
ENDTAB
0
TABLE
2
BLOCK_RECORD
5
13
330
0
100
AcDbSymbolTable
70
2
0
BLOCK_RECORD
5
6
330
13
100
AcDbSymbolTableRecord
100
AcDbBlockTableRecord
2
*MODEL_SPACE
70
0
280
1
281
0
340
8
0
BLOCK_RECORD
5
7
330
13
100
AcDbSymbolTableRecord
100
AcDbBlockTableRecord
2
*PAPER_SPACE
70
0
280
1
281
0
340
9
0
ENDTAB
0
ENDSEC
0
SECTION
2
BLOCKS
0
BLOCK
5
15
330
6
100
AcDbEntity
8
0
100
AcDbBlockBegin
2
*MODEL_SPACE
70
0
10
0
20
0
30
0
3
*MODEL_SPACE
1

0
ENDBLK
5
16
330
6
100
AcDbEntity
8
0
100
AcDbBlockEnd
0
BLOCK
5
17
330
7
100
AcDbEntity
8
0
100
AcDbBlockBegin
2
*PAPER_SPACE
70
0
10
0
20
0
30
0
3
*PAPER_SPACE
1

0
ENDBLK
5
18
330
7
100
AcDbEntity
8
0
100
AcDbBlockEnd
0
ENDSEC
0
SECTION
2
ENTITIES
0
LWPOLYLINE
5
A
330
7
100
AcDbEntity
8
0
67
1
410
Layout1
100
AcDbPolyline
90
4
70
1
38
0
10
10
20
10
10
287
20
10
10
287
20
200
10
10
20
200
0
TEXT
5
B
330
7
100
AcDbEntity
8
0
67
1
410
Layout1
100
AcDbText
10
20
20
185
30
0
40
6
1
A4 LANDSCAPE · PAPER SPACE 1:1
100
AcDbText
0
LINE
5
C
330
7
100
AcDbEntity
8
0
67
1
410
Layout1
100
AcDbLine
10
20
20
170
30
0
11
277
21
170
31
0
0
ENDSEC
0
SECTION
2
OBJECTS
0
DICTIONARY
5
19
330
0
100
AcDbDictionary
281
1
3
ACAD_LAYOUT
350
1A
0
DICTIONARY
5
1A
330
19
100
AcDbDictionary
280
1
281
1
3
Model
350
8
3
Layout1
350
9
0
LAYOUT
5
8
102
{ACAD_REACTORS
330
1A
102
}
330
1A
100
AcDbPlotSettings
100
AcDbLayout
1
Model
70
1
71
0
12
0
22
0
32
0
14
100000000000000000000
24
100000000000000000000
34
100000000000000000000
15
-100000000000000000000
25
-100000000000000000000
35
-100000000000000000000
13
0
23
0
33
0
16
1
26
0
36
0
17
0
27
1
37
0
330
6
0
LAYOUT
5
9
102
{ACAD_REACTORS
330
1A
102
}
330
1A
100
AcDbPlotSettings
40
10
41
10
42
10
43
10
44
297
45
210
142
1
143
1
70
0
72
1
74
5
100
AcDbLayout
1
Layout1
70
1
71
1
10
-10
20
-10
11
287
21
200
12
0
22
0
32
0
14
100000000000000000000
24
100000000000000000000
34
100000000000000000000
15
-100000000000000000000
25
-100000000000000000000
35
-100000000000000000000
13
0
23
0
33
0
16
1
26
0
36
0
17
0
27
1
37
0
330
7
0
ENDSEC
0
EOF
