0
SECTION
2
HEADER
9
$ACADVER
1
AC1032
9
$DWGCODEPAGE
3
UTF-8
9
$HANDSEED
5
6B
9
$LTSCALE
40
1
9
$PDMODE
70
0
9
$PDSIZE
40
0
9
$TEXTSTYLE
7
STANDARD
9
$INSUNITS
70
4
9
$MEASUREMENT
70
1
0
ENDSEC
0
SECTION
2
TABLES
0
TABLE
2
LTYPE
5
38
330
0
100
AcDbSymbolTable
70
2
0
LTYPE
5
2
330
38
100
AcDbSymbolTableRecord
100
AcDbLinetypeTableRecord
2
CONTINUOUS
70
0
3
Solid line
72
65
73
0
40
0
0
LTYPE
5
A
330
38
100
AcDbSymbolTableRecord
100
AcDbLinetypeTableRecord
2
CENTER
70
0
3
Long-short center line
72
65
73
4
40
11
49
8
74
0
49
-1
74
0
49
1
74
0
49
-1
74
0
0
ENDTAB
0
TABLE
2
STYLE
5
39
330
0
100
AcDbSymbolTable
70
1
0
STYLE
5
3
330
39
100
AcDbSymbolTableRecord
100
AcDbTextStyleTableRecord
2
STANDARD
70
0
40
0
41
1
50
0
71
0
42
2.5
3
sans-serif
4

0
ENDTAB
0
TABLE
2
DIMSTYLE
5
3A
330
0
100
AcDbSymbolTable
70
2
100
AcDbDimStyleTable
0
DIMSTYLE
105
4
330
3A
100
AcDbSymbolTableRecord
100
AcDbDimStyleTableRecord
2
STANDARD
70
0
40
1
41
2.5
42
0.625
43
3.75
44
1.25
140
2.5
141
2.5
147
0.625
0
DIMSTYLE
105
11
330
3A
100
AcDbSymbolTableRecord
100
AcDbDimStyleTableRecord
271
0
2
KJDRAW-SHOWCASE
70
0
40
1
41
2.4
42
0.8
43
3.75
44
1.2
140
3
141
2.5
147
0.625
0
ENDTAB
0
TABLE
2
APPID
5
3F
330
0
100
AcDbSymbolTable
70
1
0
APPID
5
5C
330
3F
100
AcDbSymbolTableRecord
100
AcDbRegAppTableRecord
2
ACAD
70
0
0
ENDTAB
0
TABLE
2
UCS
5
3B
330
0
100
AcDbSymbolTable
70
0
0
ENDTAB
0
TABLE
2
VIEW
5
3C
330
0
100
AcDbSymbolTable
70
0
0
ENDTAB
0
TABLE
2
LAYER
5
3D
330
0
100
AcDbSymbolTable
70
7
0
LAYER
5
5
330
3D
100
AcDbSymbolTableRecord
100
AcDbLayerTableRecord
2
0
70
0
62
7
6
CONTINUOUS
290
1
370
-1
0
LAYER
5
B
330
3D
100
AcDbSymbolTableRecord
100
AcDbLayerTableRecord
2
SHEET_FRAME
70
0
62
8
6
CONTINUOUS
290
1
370
18
0
LAYER
5
C
330
3D
100
AcDbSymbolTableRecord
100
AcDbLayerTableRecord
2
PART_OUTLINE
70
0
62
7
6
CONTINUOUS
290
1
370
35
0
LAYER
5
D
330
3D
100
AcDbSymbolTableRecord
100
AcDbLayerTableRecord
2
SECTION_HATCH
70
0
62
8
6
CONTINUOUS
290
1
370
13
0
LAYER
5
E
330
3D
100
AcDbSymbolTableRecord
100
AcDbLayerTableRecord
2
CENTER_LINES
70
0
62
3
6
CENTER
290
1
370
13
0
LAYER
5
F
330
3D
100
AcDbSymbolTableRecord
100
AcDbLayerTableRecord
2
DIMENSIONS
70
0
62
2
6
CONTINUOUS
290
1
370
18
0
LAYER
5
10
330
3D
100
AcDbSymbolTableRecord
100
AcDbLayerTableRecord
2
NOTES
70
0
62
7
6
CONTINUOUS
290
1
370
18
0
ENDTAB
0
TABLE
2
BLOCK_RECORD
5
3E
330
0
100
AcDbSymbolTable
70
6
0
BLOCK_RECORD
5
6
330
3E
100
AcDbSymbolTableRecord
100
AcDbBlockTableRecord
2
*MODEL_SPACE
70
0
280
1
281
0
340
8
0
BLOCK_RECORD
5
7
330
3E
100
AcDbSymbolTableRecord
100
AcDbBlockTableRecord
2
*PAPER_SPACE
70
0
280
1
281
0
340
9
0
BLOCK_RECORD
5
40
330
3E
100
AcDbSymbolTableRecord
100
AcDbBlockTableRecord
2
*D1
70
1
280
1
281
0
0
BLOCK_RECORD
5
47
330
3E
100
AcDbSymbolTableRecord
100
AcDbBlockTableRecord
2
*D2
70
1
280
1
281
0
0
BLOCK_RECORD
5
4E
330
3E
100
AcDbSymbolTableRecord
100
AcDbBlockTableRecord
2
*D3
70
1
280
1
281
0
0
BLOCK_RECORD
5
55
330
3E
100
AcDbSymbolTableRecord
100
AcDbBlockTableRecord
2
*D4
70
1
280
1
281
0
0
ENDTAB
0
ENDSEC
0
SECTION
2
BLOCKS
0
BLOCK
5
5D
330
6
100
AcDbEntity
8
0
100
AcDbBlockBegin
2
*MODEL_SPACE
70
0
10
0
20
0
30
0
3
*MODEL_SPACE
1

0
ENDBLK
5
5E
330
6
100
AcDbEntity
8
0
100
AcDbBlockEnd
0
BLOCK
5
5F
330
7
100
AcDbEntity
8
0
100
AcDbBlockBegin
2
*PAPER_SPACE
70
0
10
0
20
0
30
0
3
*PAPER_SPACE
1

0
ENDBLK
5
60
330
7
100
AcDbEntity
8
0
100
AcDbBlockEnd
0
BLOCK
5
61
330
40
100
AcDbEntity
8
0
100
AcDbBlockBegin
2
*D1
70
1
10
0
20
0
30
0
3
*D1
1

0
LINE
5
41
330
40
100
AcDbEntity
8
0
100
AcDbLine
10
53
20
67.2
30
0
11
53
21
54.8
31
0
0
LINE
5
42
330
40
100
AcDbEntity
8
0
100
AcDbLine
10
143
20
67.2
30
0
11
143
21
54.8
31
0
0
LINE
5
43
330
40
100
AcDbEntity
8
0
100
AcDbLine
10
53
20
56
30
0
11
143
21
56
31
0
0
SOLID
5
44
330
40
100
AcDbEntity
8
0
100
AcDbTrace
10
53
20
56
30
0
11
55.4
21
56.72
31
0
12
55.4
22
55.28
32
0
13
55.4
23
55.28
33
0
0
SOLID
5
45
330
40
100
AcDbEntity
8
0
100
AcDbTrace
10
143
20
56
30
0
11
140.6
21
55.28
31
0
12
140.6
22
56.72
32
0
13
140.6
23
56.72
33
0
0
TEXT
5
46
330
40
100
AcDbEntity
8
0
100
AcDbText
10
98
20
57.95
30
0
40
3
1
90
72
1
11
98
21
57.95
31
0
100
AcDbText
73
1
0
ENDBLK
5
62
330
40
100
AcDbEntity
8
0
100
AcDbBlockEnd
0
BLOCK
5
63
330
47
100
AcDbEntity
8
0
100
AcDbBlockBegin
2
*D2
70
1
10
0
20
0
30
0
3
*D2
1

0
LINE
5
48
330
47
100
AcDbEntity
8
0
100
AcDbLine
10
52.2
20
68
30
0
11
38.8
21
68
31
0
0
LINE
5
49
330
47
100
AcDbEntity
8
0
100
AcDbLine
10
52.2
20
158
30
0
11
38.8
21
158
31
0
0
LINE
5
4A
330
47
100
AcDbEntity
8
0
100
AcDbLine
10
40
20
68
30
0
11
40
21
158
31
0
0
SOLID
5
4B
330
47
100
AcDbEntity
8
0
100
AcDbTrace
10
40
20
68
30
0
11
39.28
21
70.4
31
0
12
40.72
22
70.4
32
0
13
40.72
23
70.4
33
0
0
SOLID
5
4C
330
47
100
AcDbEntity
8
0
100
AcDbTrace
10
40
20
158
30
0
11
40.72
21
155.6
31
0
12
39.28
22
155.6
32
0
13
39.28
23
155.6
33
0
0
TEXT
5
4D
330
47
100
AcDbEntity
8
0
100
AcDbText
10
38.05
20
113
30
0
40
3
1
90
50
90
72
1
11
38.05
21
113
31
0
100
AcDbText
73
1
0
ENDBLK
5
64
330
47
100
AcDbEntity
8
0
100
AcDbBlockEnd
0
BLOCK
5
65
330
4E
100
AcDbEntity
8
0
100
AcDbBlockBegin
2
*D3
70
1
10
0
20
0
30
0
3
*D3
1

0
LINE
5
4F
330
4E
100
AcDbEntity
8
0
100
AcDbLine
10
179
20
130.8
30
0
11
179
21
145.2
31
0
0
LINE
5
50
330
4E
100
AcDbEntity
8
0
100
AcDbLine
10
269
20
130.8
30
0
11
269
21
145.2
31
0
0
LINE
5
51
330
4E
100
AcDbEntity
8
0
100
AcDbLine
10
179
20
144
30
0
11
269
21
144
31
0
0
SOLID
5
52
330
4E
100
AcDbEntity
8
0
100
AcDbTrace
10
179
20
144
30
0
11
181.4
21
144.72
31
0
12
181.4
22
143.28
32
0
13
181.4
23
143.28
33
0
0
SOLID
5
53
330
4E
100
AcDbEntity
8
0
100
AcDbTrace
10
269
20
144
30
0
11
266.6
21
143.28
31
0
12
266.6
22
144.72
32
0
13
266.6
23
144.72
33
0
0
TEXT
5
54
330
4E
100
AcDbEntity
8
0
100
AcDbText
10
224
20
145.95
30
0
40
3
1
90
72
1
11
224
21
145.95
31
0
100
AcDbText
73
1
0
ENDBLK
5
66
330
4E
100
AcDbEntity
8
0
100
AcDbBlockEnd
0
BLOCK
5
67
330
55
100
AcDbEntity
8
0
100
AcDbBlockBegin
2
*D4
70
1
10
0
20
0
30
0
3
*D4
1

0
LINE
5
56
330
55
100
AcDbEntity
8
0
100
AcDbLine
10
178.2
20
85
30
0
11
165.8
21
85
31
0
0
LINE
5
57
330
55
100
AcDbEntity
8
0
100
AcDbLine
10
178.2
20
130
30
0
11
165.8
21
130
31
0
0
LINE
5
58
330
55
100
AcDbEntity
8
0
100
AcDbLine
10
167
20
85
30
0
11
167
21
130
31
0
0
SOLID
5
59
330
55
100
AcDbEntity
8
0
100
AcDbTrace
10
167
20
85
30
0
11
166.28
21
87.4
31
0
12
167.72
22
87.4
32
0
13
167.72
23
87.4
33
0
0
SOLID
5
5A
330
55
100
AcDbEntity
8
0
100
AcDbTrace
10
167
20
130
30
0
11
167.72
21
127.6
31
0
12
166.28
22
127.6
32
0
13
166.28
23
127.6
33
0
0
TEXT
5
5B
330
55
100
AcDbEntity
8
0
100
AcDbText
10
165.05
20
107.5
30
0
40
3
1
45
50
90
72
1
11
165.05
21
107.5
31
0
100
AcDbText
73
1
0
ENDBLK
5
68
330
55
100
AcDbEntity
8
0
100
AcDbBlockEnd
0
ENDSEC
0
SECTION
2
ENTITIES
0
LWPOLYLINE
5
12
330
6
100
AcDbEntity
8
SHEET_FRAME
100
AcDbPolyline
90
4
70
1
38
0
10
8
20
8
10
289
20
8
10
289
20
202
10
8
20
202
0
LWPOLYLINE
5
13
330
6
100
AcDbEntity
8
SHEET_FRAME
100
AcDbPolyline
90
4
70
1
38
0
10
12
20
12
10
285
20
12
10
285
20
198
10
12
20
198
0
LINE
5
14
330
6
100
AcDbEntity
8
SHEET_FRAME
100
AcDbLine
10
12
20
183
30
0
11
285
21
183
31
0
0
LINE
5
15
330
6
100
AcDbEntity
8
SHEET_FRAME
100
AcDbLine
10
12
20
39
30
0
11
285
21
39
31
0
0
LINE
5
16
330
6
100
AcDbEntity
8
SHEET_FRAME
100
AcDbLine
10
183
20
12
30
0
11
183
21
39
31
0
0
LINE
5
17
330
6
100
AcDbEntity
8
SHEET_FRAME
100
AcDbLine
10
237
20
12
30
0
11
237
21
39
31
0
0
LINE
5
18
330
6
100
AcDbEntity
8
SHEET_FRAME
100
AcDbLine
10
12
20
26
30
0
11
285
21
26
31
0
0
TEXT
5
19
330
6
100
AcDbEntity
8
NOTES
100
AcDbText
10
17
20
190
30
0
40
4.1
1
KJDRAW  /  EDITABLE CAD COLLECTION
100
AcDbText
0
TEXT
5
1A
330
6
100
AcDbEntity
8
NOTES
100
AcDbText
10
209
20
190
30
0
40
3.5
1
ME-103  |  REV A
100
AcDbText
0
TEXT
5
1B
330
6
100
AcDbEntity
8
NOTES
100
AcDbText
10
16
20
30.5
30
0
40
2.5
1
DRAWING
100
AcDbText
0
TEXT
5
1C
330
6
100
AcDbEntity
8
NOTES
100
AcDbText
10
50
20
30
30
0
40
4.1
1
RIBBED ANGLE SUPPORT
100
AcDbText
0
TEXT
5
1D
330
6
100
AcDbEntity
8
NOTES
100
AcDbText
10
16
20
17
30
0
40
2.5
1
DESIGN
100
AcDbText
0
TEXT
5
1E
330
6
100
AcDbEntity
8
NOTES
100
AcDbText
10
50
20
17
30
0
40
4.1
1
ME-103
100
AcDbText
0
TEXT
5
1F
330
6
100
AcDbEntity
8
NOTES
100
AcDbText
10
187
20
30.5
30
0
40
2.5
1
MATERIAL
100
AcDbText
0
TEXT
5
20
330
6
100
AcDbEntity
8
NOTES
100
AcDbText
10
187
20
17
30
0
40
2.9
1
STEEL / CONCEPT
100
AcDbText
0
TEXT
5
21
330
6
100
AcDbEntity
8
NOTES
100
AcDbText
10
241
20
30.5
30
0
40
2.5
1
UNITS  mm
100
AcDbText
0
TEXT
5
22
330
6
100
AcDbEntity
8
NOTES
100
AcDbText
10
241
20
17
30
0
40
2.9
1
SCALE  1:1
100
AcDbText
0
TEXT
5
23
330
6
100
AcDbEntity
8
NOTES
100
AcDbText
10
16
20
43
30
0
40
2.55
1
ILLUSTRATIVE DESIGN  /  VERIFY DIMENSIONS BEFORE MANUFACTURE
100
AcDbText
0
LWPOLYLINE
5
24
330
6
100
AcDbEntity
8
PART_OUTLINE
100
AcDbPolyline
90
6
70
1
38
0
10
53
20
68
10
143
20
68
10
143
20
80
10
65
20
80
10
65
20
158
10
53
20
158
0
LWPOLYLINE
5
25
330
6
100
AcDbEntity
8
PART_OUTLINE
100
AcDbPolyline
90
3
70
1
38
0
10
65
20
80
10
98
20
80
10
65
20
113
0
HATCH
5
26
330
6
100
AcDbEntity
8
SECTION_HATCH
100
AcDbHatch
10
0
20
0
30
0
2
ANSI31
70
0
71
0
91
1
92
3
72
0
73
1
93
3
10
65
20
80
10
98
20
80
10
65
20
113
97
0
75
0
76
1
52
0
41
2
77
0
78
1
53
45
43
0
44
0
45
-4.490128060534576
46
4.490128060534577
79
0
0
LWPOLYLINE
5
27
330
6
100
AcDbEntity
8
PART_OUTLINE
100
AcDbPolyline
90
4
70
1
38
0
10
179
20
85
10
269
20
85
10
269
20
130
10
179
20
130
0
LINE
5
28
330
6
100
AcDbEntity
8
PART_OUTLINE
100
AcDbLine
10
191
20
85
30
0
11
191
21
130
31
0
0
CIRCLE
5
29
330
6
100
AcDbEntity
8
PART_OUTLINE
100
AcDbCircle
10
215
20
107.5
30
0
40
5
210
0
220
0
230
1
0
LINE
5
2A
330
6
100
AcDbEntity
8
CENTER_LINES
100
AcDbLine
10
207
20
107.5
30
0
11
223
21
107.5
31
0
0
LINE
5
2B
330
6
100
AcDbEntity
8
CENTER_LINES
100
AcDbLine
10
215
20
99.5
30
0
11
215
21
115.5
31
0
0
CIRCLE
5
2C
330
6
100
AcDbEntity
8
PART_OUTLINE
100
AcDbCircle
10
255
20
107.5
30
0
40
5
210
0
220
0
230
1
0
LINE
5
2D
330
6
100
AcDbEntity
8
CENTER_LINES
100
AcDbLine
10
247
20
107.5
30
0
11
263
21
107.5
31
0
0
LINE
5
2E
330
6
100
AcDbEntity
8
CENTER_LINES
100
AcDbLine
10
255
20
99.5
30
0
11
255
21
115.5
31
0
0
DIMENSION
5
2F
330
6
100
AcDbEntity
8
DIMENSIONS
100
AcDbDimension
280
0
2
*D1
10
98
20
56
30
0
11
98
21
57.95
31
0
3
KJDRAW-SHOWCASE
70
33
71
5
42
90
100
AcDbAlignedDimension
13
53
23
68
33
0
14
143
24
68
34
0
1001
ACAD
1000
DSTYLE
1002
{
1070
140
1040
3
1070
40
1040
1
1070
41
1040
2.4
1070
42
1040
0.8
1070
44
1040
1.2
1070
144
1040
1
1070
78
1070
8
1070
271
1070
0
1070
277
1070
2
1070
278
1070
46
1002
}
0
DIMENSION
5
30
330
6
100
AcDbEntity
8
DIMENSIONS
100
AcDbDimension
280
0
2
*D2
10
40
20
113
30
0
11
38.05
21
113
31
0
3
KJDRAW-SHOWCASE
70
33
71
5
42
90
100
AcDbAlignedDimension
13
53
23
68
33
0
14
53
24
158
34
0
50
90
1001
ACAD
1000
DSTYLE
1002
{
1070
140
1040
3
1070
40
1040
1
1070
41
1040
2.4
1070
42
1040
0.8
1070
44
1040
1.2
1070
144
1040
1
1070
78
1070
8
1070
271
1070
0
1070
277
1070
2
1070
278
1070
46
1002
}
0
DIMENSION
5
31
330
6
100
AcDbEntity
8
DIMENSIONS
100
AcDbDimension
280
0
2
*D3
10
224
20
144
30
0
11
224
21
145.95
31
0
3
KJDRAW-SHOWCASE
70
33
71
5
42
90
100
AcDbAlignedDimension
13
179
23
130
33
0
14
269
24
130
34
0
1001
ACAD
1000
DSTYLE
1002
{
1070
140
1040
3
1070
40
1040
1
1070
41
1040
2.4
1070
42
1040
0.8
1070
44
1040
1.2
1070
144
1040
1
1070
78
1070
8
1070
271
1070
0
1070
277
1070
2
1070
278
1070
46
1002
}
0
DIMENSION
5
32
330
6
100
AcDbEntity
8
DIMENSIONS
100
AcDbDimension
280
0
2
*D4
10
167
20
107.5
30
0
11
165.05
21
107.5
31
0
3
KJDRAW-SHOWCASE
70
33
71
5
42
45
100
AcDbAlignedDimension
13
179
23
85
33
0
14
179
24
130
34
0
50
90
1001
ACAD
1000
DSTYLE
1002
{
1070
140
1040
3
1070
40
1040
1
1070
41
1040
2.4
1070
42
1040
0.8
1070
44
1040
1.2
1070
144
1040
1
1070
78
1070
8
1070
271
1070
0
1070
277
1070
2
1070
278
1070
46
1002
}
0
TEXT
5
33
330
6
100
AcDbEntity
8
NOTES
100
AcDbText
10
72
20
161
30
0
40
3.2
1
PROFILE
100
AcDbText
0
TEXT
5
34
330
6
100
AcDbEntity
8
NOTES
100
AcDbText
10
210
20
161
30
0
40
3.2
1
TOP VIEW
100
AcDbText
0
TEXT
5
35
330
6
100
AcDbEntity
8
NOTES
100
AcDbText
10
188
20
68
30
0
40
3
1
2X DIA 10 THRU
100
AcDbText
0
TEXT
5
36
330
6
100
AcDbEntity
8
NOTES
100
AcDbText
10
188
20
58
30
0
40
3
1
HOLE PITCH 40
100
AcDbText
0
TEXT
5
37
330
6
100
AcDbEntity
8
NOTES
100
AcDbText
10
71
20
49
30
0
40
2.75
1
WALL 12 / RIB SCHEMATIC
100
AcDbText
0
ENDSEC
0
SECTION
2
OBJECTS
0
DICTIONARY
5
69
330
0
100
AcDbDictionary
281
1
3
ACAD_LAYOUT
350
6A
0
DICTIONARY
5
6A
330
69
100
AcDbDictionary
280
1
281
1
3
Model
350
8
3
Layout1
350
9
0
LAYOUT
5
8
102
{ACAD_REACTORS
330
6A
102
}
330
6A
100
AcDbPlotSettings
44
297
45
210
48
0
49
0
140
297
141
210
142
1
143
1
70
0
72
1
74
4
100
AcDbLayout
1
Model
70
1
71
0
12
0
22
0
32
0
14
100000000000000000000
24
100000000000000000000
34
100000000000000000000
15
-100000000000000000000
25
-100000000000000000000
35
-100000000000000000000
13
0
23
0
33
0
16
1
26
0
36
0
17
0
27
1
37
0
330
6
0
LAYOUT
5
9
102
{ACAD_REACTORS
330
6A
102
}
330
6A
100
AcDbPlotSettings
100
AcDbLayout
1
Layout1
70
1
71
1
10
0
20
0
11
420
21
297
12
0
22
0
32
0
14
100000000000000000000
24
100000000000000000000
34
100000000000000000000
15
-100000000000000000000
25
-100000000000000000000
35
-100000000000000000000
13
0
23
0
33
0
16
1
26
0
36
0
17
0
27
1
37
0
330
7
0
ENDSEC
0
EOF
