0
SECTION
2
HEADER
9
$ACADVER
1
AC1032
9
$DWGCODEPAGE
3
UTF-8
9
$HANDSEED
5
164
9
$LTSCALE
40
1
9
$PDMODE
70
0
9
$PDSIZE
40
0
9
$TEXTSTYLE
7
STANDARD
9
$INSUNITS
70
4
9
$MEASUREMENT
70
1
0
ENDSEC
0
SECTION
2
TABLES
0
TABLE
2
LTYPE
5
156
330
0
100
AcDbSymbolTable
70
1
0
LTYPE
5
2
330
156
100
AcDbSymbolTableRecord
100
AcDbLinetypeTableRecord
2
CONTINUOUS
70
0
3
Solid line
72
65
73
0
40
0
0
ENDTAB
0
TABLE
2
STYLE
5
157
330
0
100
AcDbSymbolTable
70
1
0
STYLE
5
3
330
157
100
AcDbSymbolTableRecord
100
AcDbTextStyleTableRecord
2
STANDARD
70
0
40
0
41
1
50
0
71
0
42
2.5
3
sans-serif
4

0
ENDTAB
0
TABLE
2
DIMSTYLE
5
158
330
0
100
AcDbSymbolTable
70
1
100
AcDbDimStyleTable
0
DIMSTYLE
105
4
330
158
100
AcDbSymbolTableRecord
100
AcDbDimStyleTableRecord
2
STANDARD
70
0
40
1
41
2.5
42
0.625
43
3.75
44
1.25
140
2.5
141
2.5
147
0.625
0
ENDTAB
0
TABLE
2
UCS
5
159
330
0
100
AcDbSymbolTable
70
0
0
ENDTAB
0
TABLE
2
VIEW
5
15A
330
0
100
AcDbSymbolTable
70
0
0
ENDTAB
0
TABLE
2
LAYER
5
15B
330
0
100
AcDbSymbolTable
70
11
0
LAYER
5
5
330
15B
100
AcDbSymbolTableRecord
100
AcDbLayerTableRecord
2
0
70
0
62
7
6
CONTINUOUS
290
1
370
-1
0
LAYER
5
A
330
15B
100
AcDbSymbolTableRecord
100
AcDbLayerTableRecord
2
FRAME
70
0
62
7
6
CONTINUOUS
290
1
370
-1
0
LAYER
5
B
330
15B
100
AcDbSymbolTableRecord
100
AcDbLayerTableRecord
2
A-GRID
70
0
62
8
6
CONTINUOUS
290
1
370
-1
0
LAYER
5
C
330
15B
100
AcDbSymbolTableRecord
100
AcDbLayerTableRecord
2
A-WALL
70
0
62
7
6
CONTINUOUS
290
1
370
-1
0
LAYER
5
D
330
15B
100
AcDbSymbolTableRecord
100
AcDbLayerTableRecord
2
A-COLUMN
70
0
62
3
6
CONTINUOUS
290
1
370
-1
0
LAYER
5
E
330
15B
100
AcDbSymbolTableRecord
100
AcDbLayerTableRecord
2
A-DOOR
70
0
62
2
6
CONTINUOUS
290
1
370
-1
0
LAYER
5
F
330
15B
100
AcDbSymbolTableRecord
100
AcDbLayerTableRecord
2
A-WINDOW
70
0
62
4
6
CONTINUOUS
290
1
370
-1
0
LAYER
5
10
330
15B
100
AcDbSymbolTableRecord
100
AcDbLayerTableRecord
2
A-FURN
70
0
62
5
6
CONTINUOUS
290
1
370
-1
0
LAYER
5
11
330
15B
100
AcDbSymbolTableRecord
100
AcDbLayerTableRecord
2
DIMS
70
0
62
2
6
CONTINUOUS
290
1
370
-1
0
LAYER
5
12
330
15B
100
AcDbSymbolTableRecord
100
AcDbLayerTableRecord
2
ANNO
70
0
62
7
6
CONTINUOUS
290
1
370
-1
0
LAYER
5
13
330
15B
100
AcDbSymbolTableRecord
100
AcDbLayerTableRecord
2
TITLE
70
0
62
7
6
CONTINUOUS
290
1
370
-1
0
ENDTAB
0
TABLE
2
BLOCK_RECORD
5
15C
330
0
100
AcDbSymbolTable
70
2
0
BLOCK_RECORD
5
6
330
15C
100
AcDbSymbolTableRecord
100
AcDbBlockTableRecord
2
*MODEL_SPACE
70
0
280
1
281
0
340
8
0
BLOCK_RECORD
5
7
330
15C
100
AcDbSymbolTableRecord
100
AcDbBlockTableRecord
2
*PAPER_SPACE
70
0
280
1
281
0
340
9
0
ENDTAB
0
ENDSEC
0
SECTION
2
BLOCKS
0
BLOCK
5
15E
330
6
100
AcDbEntity
8
0
100
AcDbBlockBegin
2
*MODEL_SPACE
70
0
10
0
20
0
30
0
3
*MODEL_SPACE
1

0
ENDBLK
5
15F
330
6
100
AcDbEntity
8
0
100
AcDbBlockEnd
0
BLOCK
5
160
330
7
100
AcDbEntity
8
0
100
AcDbBlockBegin
2
*PAPER_SPACE
70
0
10
0
20
0
30
0
3
*PAPER_SPACE
1

0
ENDBLK
5
161
330
7
100
AcDbEntity
8
0
100
AcDbBlockEnd
0
ENDSEC
0
SECTION
2
ENTITIES
0
LWPOLYLINE
5
14
330
6
100
AcDbEntity
8
FRAME
100
AcDbPolyline
90
4
70
1
38
0
10
-800
20
-1200
10
24800
20
-1200
10
24800
20
15200
10
-800
20
15200
0
LWPOLYLINE
5
15
330
6
100
AcDbEntity
8
FRAME
100
AcDbPolyline
90
4
70
1
38
0
10
-500
20
-900
10
24500
20
-900
10
24500
20
14900
10
-500
20
14900
0
LWPOLYLINE
5
16
330
6
100
AcDbEntity
8
FRAME
100
AcDbPolyline
90
4
70
1
38
0
10
13600
20
-900
10
24500
20
-900
10
24500
20
900
10
13600
20
900
0
LINE
5
17
330
6
100
AcDbEntity
8
FRAME
100
AcDbLine
10
19400
20
-900
30
0
11
19400
21
900
31
0
0
LINE
5
18
330
6
100
AcDbEntity
8
FRAME
100
AcDbLine
10
21800
20
-900
30
0
11
21800
21
900
31
0
0
LINE
5
19
330
6
100
AcDbEntity
8
FRAME
100
AcDbLine
10
19400
20
0
30
0
11
24500
21
0
31
0
0
TEXT
5
1A
330
6
100
AcDbEntity
8
TITLE
100
AcDbText
10
13900
20
200
30
0
40
225
1
INNOVATION HUB · LEVEL 01
7
STANDARD
100
AcDbText
0
TEXT
5
1B
330
6
100
AcDbEntity
8
TITLE
100
AcDbText
10
13900
20
-400
30
0
40
135
1
ARCHITECTURAL FLOOR PLAN
7
STANDARD
100
AcDbText
0
TEXT
5
1C
330
6
100
AcDbEntity
8
TITLE
100
AcDbText
10
19700
20
350
30
0
40
114.99999999999999
1
SCALE  1:100
7
STANDARD
100
AcDbText
0
TEXT
5
1D
330
6
100
AcDbEntity
8
TITLE
100
AcDbText
10
19700
20
-450
30
0
40
114.99999999999999
1
REV  A
7
STANDARD
100
AcDbText
0
TEXT
5
1E
330
6
100
AcDbEntity
8
TITLE
100
AcDbText
10
22100
20
350
30
0
40
120
1
A-101
7
STANDARD
100
AcDbText
0
TEXT
5
1F
330
6
100
AcDbEntity
8
TITLE
100
AcDbText
10
22100
20
-450
30
0
40
95
1
SYNTHETIC
7
STANDARD
100
AcDbText
0
LINE
5
20
330
6
100
AcDbEntity
8
A-GRID
100
AcDbLine
10
2200
20
2800
30
0
11
2200
21
13800
31
0
0
CIRCLE
5
21
330
6
100
AcDbEntity
8
A-GRID
100
AcDbCircle
10
2200
20
14100
30
0
40
250
210
0
220
0
230
1
0
TEXT
5
22
330
6
100
AcDbEntity
8
A-GRID
100
AcDbText
10
2120
20
14000
30
0
40
150
1
1
7
STANDARD
100
AcDbText
0
LINE
5
23
330
6
100
AcDbEntity
8
A-GRID
100
AcDbLine
10
5500
20
2800
30
0
11
5500
21
13800
31
0
0
CIRCLE
5
24
330
6
100
AcDbEntity
8
A-GRID
100
AcDbCircle
10
5500
20
14100
30
0
40
250
210
0
220
0
230
1
0
TEXT
5
25
330
6
100
AcDbEntity
8
A-GRID
100
AcDbText
10
5420
20
14000
30
0
40
150
1
2
7
STANDARD
100
AcDbText
0
LINE
5
26
330
6
100
AcDbEntity
8
A-GRID
100
AcDbLine
10
8800
20
2800
30
0
11
8800
21
13800
31
0
0
CIRCLE
5
27
330
6
100
AcDbEntity
8
A-GRID
100
AcDbCircle
10
8800
20
14100
30
0
40
250
210
0
220
0
230
1
0
TEXT
5
28
330
6
100
AcDbEntity
8
A-GRID
100
AcDbText
10
8720
20
14000
30
0
40
150
1
3
7
STANDARD
100
AcDbText
0
LINE
5
29
330
6
100
AcDbEntity
8
A-GRID
100
AcDbLine
10
12100
20
2800
30
0
11
12100
21
13800
31
0
0
CIRCLE
5
2A
330
6
100
AcDbEntity
8
A-GRID
100
AcDbCircle
10
12100
20
14100
30
0
40
250
210
0
220
0
230
1
0
TEXT
5
2B
330
6
100
AcDbEntity
8
A-GRID
100
AcDbText
10
12020
20
14000
30
0
40
150
1
4
7
STANDARD
100
AcDbText
0
LINE
5
2C
330
6
100
AcDbEntity
8
A-GRID
100
AcDbLine
10
15400
20
2800
30
0
11
15400
21
13800
31
0
0
CIRCLE
5
2D
330
6
100
AcDbEntity
8
A-GRID
100
AcDbCircle
10
15400
20
14100
30
0
40
250
210
0
220
0
230
1
0
TEXT
5
2E
330
6
100
AcDbEntity
8
A-GRID
100
AcDbText
10
15319.999999999998
20
14000
30
0
40
150
1
5
7
STANDARD
100
AcDbText
0
LINE
5
2F
330
6
100
AcDbEntity
8
A-GRID
100
AcDbLine
10
18700
20
2800
30
0
11
18700
21
13800
31
0
0
CIRCLE
5
30
330
6
100
AcDbEntity
8
A-GRID
100
AcDbCircle
10
18700
20
14100
30
0
40
250
210
0
220
0
230
1
0
TEXT
5
31
330
6
100
AcDbEntity
8
A-GRID
100
AcDbText
10
18620
20
14000
30
0
40
150
1
6
7
STANDARD
100
AcDbText
0
LINE
5
32
330
6
100
AcDbEntity
8
A-GRID
100
AcDbLine
10
22000
20
2800
30
0
11
22000
21
13800
31
0
0
CIRCLE
5
33
330
6
100
AcDbEntity
8
A-GRID
100
AcDbCircle
10
22000
20
14100
30
0
40
250
210
0
220
0
230
1
0
TEXT
5
34
330
6
100
AcDbEntity
8
A-GRID
100
AcDbText
10
21920
20
14000
30
0
40
150
1
7
7
STANDARD
100
AcDbText
0
LINE
5
35
330
6
100
AcDbEntity
8
A-GRID
100
AcDbLine
10
1400
20
3600
30
0
11
22800
21
3600
31
0
0
CIRCLE
5
36
330
6
100
AcDbEntity
8
A-GRID
100
AcDbCircle
10
1100
20
3600
30
0
40
250
210
0
220
0
230
1
0
TEXT
5
37
330
6
100
AcDbEntity
8
A-GRID
100
AcDbText
10
1030
20
3529.9999999999995
30
0
40
150
1
A
7
STANDARD
100
AcDbText
0
LINE
5
38
330
6
100
AcDbEntity
8
A-GRID
100
AcDbLine
10
1400
20
6730
30
0
11
22800
21
6730
31
0
0
CIRCLE
5
39
330
6
100
AcDbEntity
8
A-GRID
100
AcDbCircle
10
1100
20
6730
30
0
40
250
210
0
220
0
230
1
0
TEXT
5
3A
330
6
100
AcDbEntity
8
A-GRID
100
AcDbText
10
1030
20
6659.999999999999
30
0
40
150
1
B
7
STANDARD
100
AcDbText
0
LINE
5
3B
330
6
100
AcDbEntity
8
A-GRID
100
AcDbLine
10
1400
20
9860
30
0
11
22800
21
9860
31
0
0
CIRCLE
5
3C
330
6
100
AcDbEntity
8
A-GRID
100
AcDbCircle
10
1100
20
9860
30
0
40
250
210
0
220
0
230
1
0
TEXT
5
3D
330
6
100
AcDbEntity
8
A-GRID
100
AcDbText
10
1030
20
9790
30
0
40
150
1
C
7
STANDARD
100
AcDbText
0
LINE
5
3E
330
6
100
AcDbEntity
8
A-GRID
100
AcDbLine
10
1400
20
12990
30
0
11
22800
21
12990
31
0
0
CIRCLE
5
3F
330
6
100
AcDbEntity
8
A-GRID
100
AcDbCircle
10
1100
20
12990
30
0
40
250
210
0
220
0
230
1
0
TEXT
5
40
330
6
100
AcDbEntity
8
A-GRID
100
AcDbText
10
1030
20
12920.000000000002
30
0
40
150
1
D
7
STANDARD
100
AcDbText
0
LWPOLYLINE
5
41
330
6
100
AcDbEntity
8
A-WALL
100
AcDbPolyline
90
4
70
1
38
0
10
2200
20
3600
10
22000
20
3600
10
22000
20
13000
10
2200
20
13000
0
LWPOLYLINE
5
42
330
6
100
AcDbEntity
8
A-WALL
100
AcDbPolyline
90
4
70
1
38
0
10
2380
20
3779.9999999999995
10
21820
20
3779.9999999999995
10
21820
20
12819.999999999998
10
2380
20
12819.999999999998
0
LINE
5
43
330
6
100
AcDbEntity
8
A-WALL
100
AcDbLine
10
5500
20
3800
30
0
11
5500
21
12800
31
0
0
LINE
5
44
330
6
100
AcDbEntity
8
A-WALL
100
AcDbLine
10
5630
20
3800
30
0
11
5630
21
12800
31
0
0
LINE
5
45
330
6
100
AcDbEntity
8
A-WALL
100
AcDbLine
10
8800
20
3800
30
0
11
8800
21
12800
31
0
0
LINE
5
46
330
6
100
AcDbEntity
8
A-WALL
100
AcDbLine
10
8930
20
3800
30
0
11
8930
21
12800
31
0
0
LINE
5
47
330
6
100
AcDbEntity
8
A-WALL
100
AcDbLine
10
12100
20
3800
30
0
11
12100
21
12800
31
0
0
LINE
5
48
330
6
100
AcDbEntity
8
A-WALL
100
AcDbLine
10
12230
20
3800
30
0
11
12230
21
12800
31
0
0
LINE
5
49
330
6
100
AcDbEntity
8
A-WALL
100
AcDbLine
10
15400
20
3800
30
0
11
15400
21
12800
31
0
0
LINE
5
4A
330
6
100
AcDbEntity
8
A-WALL
100
AcDbLine
10
15530.000000000002
20
3800
30
0
11
15530.000000000002
21
12800
31
0
0
LINE
5
4B
330
6
100
AcDbEntity
8
A-WALL
100
AcDbLine
10
18700
20
3800
30
0
11
18700
21
12800
31
0
0
LINE
5
4C
330
6
100
AcDbEntity
8
A-WALL
100
AcDbLine
10
18830
20
3800
30
0
11
18830
21
12800
31
0
0
LINE
5
4D
330
6
100
AcDbEntity
8
A-WALL
100
AcDbLine
10
2400
20
6700
30
0
11
2800
21
6700
31
0
0
LINE
5
4E
330
6
100
AcDbEntity
8
A-WALL
100
AcDbLine
10
2400
20
6830
30
0
11
2800
21
6830
31
0
0
LINE
5
4F
330
6
100
AcDbEntity
8
A-WALL
100
AcDbLine
10
2800
20
6700
30
0
11
2800
21
6830
31
0
0
LINE
5
50
330
6
100
AcDbEntity
8
A-WALL
100
AcDbLine
10
3600
20
6700
30
0
11
3600
21
6830
31
0
0
LINE
5
51
330
6
100
AcDbEntity
8
A-WALL
100
AcDbLine
10
3600
20
6700
30
0
11
6100
21
6700
31
0
0
LINE
5
52
330
6
100
AcDbEntity
8
A-WALL
100
AcDbLine
10
3600
20
6830
30
0
11
6100
21
6830
31
0
0
LINE
5
53
330
6
100
AcDbEntity
8
A-WALL
100
AcDbLine
10
6100
20
6700
30
0
11
6100
21
6830
31
0
0
LINE
5
54
330
6
100
AcDbEntity
8
A-WALL
100
AcDbLine
10
6900
20
6700
30
0
11
6900
21
6830
31
0
0
LINE
5
55
330
6
100
AcDbEntity
8
A-WALL
100
AcDbLine
10
6900
20
6700
30
0
11
9400
21
6700
31
0
0
LINE
5
56
330
6
100
AcDbEntity
8
A-WALL
100
AcDbLine
10
6900
20
6830
30
0
11
9400
21
6830
31
0
0
LINE
5
57
330
6
100
AcDbEntity
8
A-WALL
100
AcDbLine
10
9400
20
6700
30
0
11
9400
21
6830
31
0
0
LINE
5
58
330
6
100
AcDbEntity
8
A-WALL
100
AcDbLine
10
10200
20
6700
30
0
11
10200
21
6830
31
0
0
LINE
5
59
330
6
100
AcDbEntity
8
A-WALL
100
AcDbLine
10
10200
20
6700
30
0
11
12700
21
6700
31
0
0
LINE
5
5A
330
6
100
AcDbEntity
8
A-WALL
100
AcDbLine
10
10200
20
6830
30
0
11
12700
21
6830
31
0
0
LINE
5
5B
330
6
100
AcDbEntity
8
A-WALL
100
AcDbLine
10
12700
20
6700
30
0
11
12700
21
6830
31
0
0
LINE
5
5C
330
6
100
AcDbEntity
8
A-WALL
100
AcDbLine
10
13500
20
6700
30
0
11
13500
21
6830
31
0
0
LINE
5
5D
330
6
100
AcDbEntity
8
A-WALL
100
AcDbLine
10
13500
20
6700
30
0
11
16000
21
6700
31
0
0
LINE
5
5E
330
6
100
AcDbEntity
8
A-WALL
100
AcDbLine
10
13500
20
6830
30
0
11
16000
21
6830
31
0
0
LINE
5
5F
330
6
100
AcDbEntity
8
A-WALL
100
AcDbLine
10
16000
20
6700
30
0
11
16000
21
6830
31
0
0
LINE
5
60
330
6
100
AcDbEntity
8
A-WALL
100
AcDbLine
10
16800
20
6700
30
0
11
16800
21
6830
31
0
0
LINE
5
61
330
6
100
AcDbEntity
8
A-WALL
100
AcDbLine
10
16800
20
6700
30
0
11
19300
21
6700
31
0
0
LINE
5
62
330
6
100
AcDbEntity
8
A-WALL
100
AcDbLine
10
16800
20
6830
30
0
11
19300
21
6830
31
0
0
LINE
5
63
330
6
100
AcDbEntity
8
A-WALL
100
AcDbLine
10
19300
20
6700
30
0
11
19300
21
6830
31
0
0
LINE
5
64
330
6
100
AcDbEntity
8
A-WALL
100
AcDbLine
10
20100
20
6700
30
0
11
20100
21
6830
31
0
0
LINE
5
65
330
6
100
AcDbEntity
8
A-WALL
100
AcDbLine
10
20100
20
6700
30
0
11
21800
21
6700
31
0
0
LINE
5
66
330
6
100
AcDbEntity
8
A-WALL
100
AcDbLine
10
20100
20
6830
30
0
11
21800
21
6830
31
0
0
LINE
5
67
330
6
100
AcDbEntity
8
A-WALL
100
AcDbLine
10
2400
20
9800
30
0
11
2800
21
9800
31
0
0
LINE
5
68
330
6
100
AcDbEntity
8
A-WALL
100
AcDbLine
10
2400
20
9930
30
0
11
2800
21
9930
31
0
0
LINE
5
69
330
6
100
AcDbEntity
8
A-WALL
100
AcDbLine
10
2800
20
9800
30
0
11
2800
21
9930
31
0
0
LINE
5
6A
330
6
100
AcDbEntity
8
A-WALL
100
AcDbLine
10
3600
20
9800
30
0
11
3600
21
9930
31
0
0
LINE
5
6B
330
6
100
AcDbEntity
8
A-WALL
100
AcDbLine
10
3600
20
9800
30
0
11
6100
21
9800
31
0
0
LINE
5
6C
330
6
100
AcDbEntity
8
A-WALL
100
AcDbLine
10
3600
20
9930
30
0
11
6100
21
9930
31
0
0
LINE
5
6D
330
6
100
AcDbEntity
8
A-WALL
100
AcDbLine
10
6100
20
9800
30
0
11
6100
21
9930
31
0
0
LINE
5
6E
330
6
100
AcDbEntity
8
A-WALL
100
AcDbLine
10
6900
20
9800
30
0
11
6900
21
9930
31
0
0
LINE
5
6F
330
6
100
AcDbEntity
8
A-WALL
100
AcDbLine
10
6900
20
9800
30
0
11
9400
21
9800
31
0
0
LINE
5
70
330
6
100
AcDbEntity
8
A-WALL
100
AcDbLine
10
6900
20
9930
30
0
11
9400
21
9930
31
0
0
LINE
5
71
330
6
100
AcDbEntity
8
A-WALL
100
AcDbLine
10
9400
20
9800
30
0
11
9400
21
9930
31
0
0
LINE
5
72
330
6
100
AcDbEntity
8
A-WALL
100
AcDbLine
10
10200
20
9800
30
0
11
10200
21
9930
31
0
0
LINE
5
73
330
6
100
AcDbEntity
8
A-WALL
100
AcDbLine
10
10200
20
9800
30
0
11
12700
21
9800
31
0
0
LINE
5
74
330
6
100
AcDbEntity
8
A-WALL
100
AcDbLine
10
10200
20
9930
30
0
11
12700
21
9930
31
0
0
LINE
5
75
330
6
100
AcDbEntity
8
A-WALL
100
AcDbLine
10
12700
20
9800
30
0
11
12700
21
9930
31
0
0
LINE
5
76
330
6
100
AcDbEntity
8
A-WALL
100
AcDbLine
10
13500
20
9800
30
0
11
13500
21
9930
31
0
0
LINE
5
77
330
6
100
AcDbEntity
8
A-WALL
100
AcDbLine
10
13500
20
9800
30
0
11
16000
21
9800
31
0
0
LINE
5
78
330
6
100
AcDbEntity
8
A-WALL
100
AcDbLine
10
13500
20
9930
30
0
11
16000
21
9930
31
0
0
LINE
5
79
330
6
100
AcDbEntity
8
A-WALL
100
AcDbLine
10
16000
20
9800
30
0
11
16000
21
9930
31
0
0
LINE
5
7A
330
6
100
AcDbEntity
8
A-WALL
100
AcDbLine
10
16800
20
9800
30
0
11
16800
21
9930
31
0
0
LINE
5
7B
330
6
100
AcDbEntity
8
A-WALL
100
AcDbLine
10
16800
20
9800
30
0
11
19300
21
9800
31
0
0
LINE
5
7C
330
6
100
AcDbEntity
8
A-WALL
100
AcDbLine
10
16800
20
9930
30
0
11
19300
21
9930
31
0
0
LINE
5
7D
330
6
100
AcDbEntity
8
A-WALL
100
AcDbLine
10
19300
20
9800
30
0
11
19300
21
9930
31
0
0
LINE
5
7E
330
6
100
AcDbEntity
8
A-WALL
100
AcDbLine
10
20100
20
9800
30
0
11
20100
21
9930
31
0
0
LINE
5
7F
330
6
100
AcDbEntity
8
A-WALL
100
AcDbLine
10
20100
20
9800
30
0
11
21800
21
9800
31
0
0
LINE
5
80
330
6
100
AcDbEntity
8
A-WALL
100
AcDbLine
10
20100
20
9930
30
0
11
21800
21
9930
31
0
0
LWPOLYLINE
5
81
330
6
100
AcDbEntity
8
A-COLUMN
100
AcDbPolyline
90
4
70
1
38
0
10
2050
20
3450
10
2350
20
3450
10
2350
20
3750
10
2050
20
3750
0
LWPOLYLINE
5
82
330
6
100
AcDbEntity
8
A-COLUMN
100
AcDbPolyline
90
4
70
1
38
0
10
2050
20
6550
10
2350
20
6550
10
2350
20
6850
10
2050
20
6850
0
LWPOLYLINE
5
83
330
6
100
AcDbEntity
8
A-COLUMN
100
AcDbPolyline
90
4
70
1
38
0
10
2050
20
9650
10
2350
20
9650
10
2350
20
9950
10
2050
20
9950
0
LWPOLYLINE
5
84
330
6
100
AcDbEntity
8
A-COLUMN
100
AcDbPolyline
90
4
70
1
38
0
10
2050
20
12850
10
2350
20
12850
10
2350
20
13150
10
2050
20
13150
0
LWPOLYLINE
5
85
330
6
100
AcDbEntity
8
A-COLUMN
100
AcDbPolyline
90
4
70
1
38
0
10
5350
20
3450
10
5650
20
3450
10
5650
20
3750
10
5350
20
3750
0
LWPOLYLINE
5
86
330
6
100
AcDbEntity
8
A-COLUMN
100
AcDbPolyline
90
4
70
1
38
0
10
5350
20
6550
10
5650
20
6550
10
5650
20
6850
10
5350
20
6850
0
LWPOLYLINE
5
87
330
6
100
AcDbEntity
8
A-COLUMN
100
AcDbPolyline
90
4
70
1
38
0
10
5350
20
9650
10
5650
20
9650
10
5650
20
9950
10
5350
20
9950
0
LWPOLYLINE
5
88
330
6
100
AcDbEntity
8
A-COLUMN
100
AcDbPolyline
90
4
70
1
38
0
10
5350
20
12850
10
5650
20
12850
10
5650
20
13150
10
5350
20
13150
0
LWPOLYLINE
5
89
330
6
100
AcDbEntity
8
A-COLUMN
100
AcDbPolyline
90
4
70
1
38
0
10
8650
20
3450
10
8950
20
3450
10
8950
20
3750
10
8650
20
3750
0
LWPOLYLINE
5
8A
330
6
100
AcDbEntity
8
A-COLUMN
100
AcDbPolyline
90
4
70
1
38
0
10
8650
20
6550
10
8950
20
6550
10
8950
20
6850
10
8650
20
6850
0
LWPOLYLINE
5
8B
330
6
100
AcDbEntity
8
A-COLUMN
100
AcDbPolyline
90
4
70
1
38
0
10
8650
20
9650
10
8950
20
9650
10
8950
20
9950
10
8650
20
9950
0
LWPOLYLINE
5
8C
330
6
100
AcDbEntity
8
A-COLUMN
100
AcDbPolyline
90
4
70
1
38
0
10
8650
20
12850
10
8950
20
12850
10
8950
20
13150
10
8650
20
13150
0
LWPOLYLINE
5
8D
330
6
100
AcDbEntity
8
A-COLUMN
100
AcDbPolyline
90
4
70
1
38
0
10
11950
20
3450
10
12250
20
3450
10
12250
20
3750
10
11950
20
3750
0
LWPOLYLINE
5
8E
330
6
100
AcDbEntity
8
A-COLUMN
100
AcDbPolyline
90
4
70
1
38
0
10
11950
20
6550
10
12250
20
6550
10
12250
20
6850
10
11950
20
6850
0
LWPOLYLINE
5
8F
330
6
100
AcDbEntity
8
A-COLUMN
100
AcDbPolyline
90
4
70
1
38
0
10
11950
20
9650
10
12250
20
9650
10
12250
20
9950
10
11950
20
9950
0
LWPOLYLINE
5
90
330
6
100
AcDbEntity
8
A-COLUMN
100
AcDbPolyline
90
4
70
1
38
0
10
11950
20
12850
10
12250
20
12850
10
12250
20
13150
10
11950
20
13150
0
LWPOLYLINE
5
91
330
6
100
AcDbEntity
8
A-COLUMN
100
AcDbPolyline
90
4
70
1
38
0
10
15250
20
3450
10
15550
20
3450
10
15550
20
3750
10
15250
20
3750
0
LWPOLYLINE
5
92
330
6
100
AcDbEntity
8
A-COLUMN
100
AcDbPolyline
90
4
70
1
38
0
10
15250
20
6550
10
15550
20
6550
10
15550
20
6850
10
15250
20
6850
0
LWPOLYLINE
5
93
330
6
100
AcDbEntity
8
A-COLUMN
100
AcDbPolyline
90
4
70
1
38
0
10
15250
20
9650
10
15550
20
9650
10
15550
20
9950
10
15250
20
9950
0
LWPOLYLINE
5
94
330
6
100
AcDbEntity
8
A-COLUMN
100
AcDbPolyline
90
4
70
1
38
0
10
15250
20
12850
10
15550
20
12850
10
15550
20
13150
10
15250
20
13150
0
LWPOLYLINE
5
95
330
6
100
AcDbEntity
8
A-COLUMN
100
AcDbPolyline
90
4
70
1
38
0
10
18550
20
3450
10
18850
20
3450
10
18850
20
3750
10
18550
20
3750
0
LWPOLYLINE
5
96
330
6
100
AcDbEntity
8
A-COLUMN
100
AcDbPolyline
90
4
70
1
38
0
10
18550
20
6550
10
18850
20
6550
10
18850
20
6850
10
18550
20
6850
0
LWPOLYLINE
5
97
330
6
100
AcDbEntity
8
A-COLUMN
100
AcDbPolyline
90
4
70
1
38
0
10
18550
20
9650
10
18850
20
9650
10
18850
20
9950
10
18550
20
9950
0
LWPOLYLINE
5
98
330
6
100
AcDbEntity
8
A-COLUMN
100
AcDbPolyline
90
4
70
1
38
0
10
18550
20
12850
10
18850
20
12850
10
18850
20
13150
10
18550
20
13150
0
LWPOLYLINE
5
99
330
6
100
AcDbEntity
8
A-COLUMN
100
AcDbPolyline
90
4
70
1
38
0
10
21850
20
3450
10
22150
20
3450
10
22150
20
3750
10
21850
20
3750
0
LWPOLYLINE
5
9A
330
6
100
AcDbEntity
8
A-COLUMN
100
AcDbPolyline
90
4
70
1
38
0
10
21850
20
6550
10
22150
20
6550
10
22150
20
6850
10
21850
20
6850
0
LWPOLYLINE
5
9B
330
6
100
AcDbEntity
8
A-COLUMN
100
AcDbPolyline
90
4
70
1
38
0
10
21850
20
9650
10
22150
20
9650
10
22150
20
9950
10
21850
20
9950
0
LWPOLYLINE
5
9C
330
6
100
AcDbEntity
8
A-COLUMN
100
AcDbPolyline
90
4
70
1
38
0
10
21850
20
12850
10
22150
20
12850
10
22150
20
13150
10
21850
20
13150
0
LINE
5
9D
330
6
100
AcDbEntity
8
A-WINDOW
100
AcDbLine
10
4700
20
3600
30
0
11
5400
21
3600
31
0
0
LINE
5
9E
330
6
100
AcDbEntity
8
A-WINDOW
100
AcDbLine
10
4700
20
3779.9999999999995
30
0
11
5400
21
3779.9999999999995
31
0
0
LINE
5
9F
330
6
100
AcDbEntity
8
A-WINDOW
100
AcDbLine
10
8000
20
3600
30
0
11
8700
21
3600
31
0
0
LINE
5
A0
330
6
100
AcDbEntity
8
A-WINDOW
100
AcDbLine
10
8000
20
3779.9999999999995
30
0
11
8700
21
3779.9999999999995
31
0
0
LINE
5
A1
330
6
100
AcDbEntity
8
A-WINDOW
100
AcDbLine
10
11300
20
3600
30
0
11
12000
21
3600
31
0
0
LINE
5
A2
330
6
100
AcDbEntity
8
A-WINDOW
100
AcDbLine
10
11300
20
3779.9999999999995
30
0
11
12000
21
3779.9999999999995
31
0
0
LINE
5
A3
330
6
100
AcDbEntity
8
A-WINDOW
100
AcDbLine
10
14600
20
3600
30
0
11
15300
21
3600
31
0
0
LINE
5
A4
330
6
100
AcDbEntity
8
A-WINDOW
100
AcDbLine
10
14600
20
3779.9999999999995
30
0
11
15300
21
3779.9999999999995
31
0
0
LINE
5
A5
330
6
100
AcDbEntity
8
A-WINDOW
100
AcDbLine
10
17900
20
3600
30
0
11
18600
21
3600
31
0
0
LINE
5
A6
330
6
100
AcDbEntity
8
A-WINDOW
100
AcDbLine
10
17900
20
3779.9999999999995
30
0
11
18600
21
3779.9999999999995
31
0
0
LINE
5
A7
330
6
100
AcDbEntity
8
A-WINDOW
100
AcDbLine
10
21200
20
3600
30
0
11
21900
21
3600
31
0
0
LINE
5
A8
330
6
100
AcDbEntity
8
A-WINDOW
100
AcDbLine
10
21200
20
3779.9999999999995
30
0
11
21900
21
3779.9999999999995
31
0
0
LINE
5
A9
330
6
100
AcDbEntity
8
A-DOOR
100
AcDbLine
10
2800
20
6700
30
0
11
2800
21
5900
31
0
0
ARC
5
AA
330
6
100
AcDbEntity
8
A-DOOR
100
AcDbCircle
10
2800
20
6700
30
0
40
800
100
AcDbArc
50
-90
51
0
210
0
220
0
230
1
0
LINE
5
AB
330
6
100
AcDbEntity
8
A-DOOR
100
AcDbLine
10
2800
20
9930
30
0
11
2800
21
10730
31
0
0
ARC
5
AC
330
6
100
AcDbEntity
8
A-DOOR
100
AcDbCircle
10
2800
20
9930
30
0
40
800
100
AcDbArc
50
0
51
90
210
0
220
0
230
1
0
LINE
5
AD
330
6
100
AcDbEntity
8
A-DOOR
100
AcDbLine
10
6100
20
6700
30
0
11
6100
21
5900
31
0
0
ARC
5
AE
330
6
100
AcDbEntity
8
A-DOOR
100
AcDbCircle
10
6100
20
6700
30
0
40
800
100
AcDbArc
50
-90
51
0
210
0
220
0
230
1
0
LINE
5
AF
330
6
100
AcDbEntity
8
A-DOOR
100
AcDbLine
10
6100
20
9930
30
0
11
6100
21
10730
31
0
0
ARC
5
B0
330
6
100
AcDbEntity
8
A-DOOR
100
AcDbCircle
10
6100
20
9930
30
0
40
800
100
AcDbArc
50
0
51
90
210
0
220
0
230
1
0
LINE
5
B1
330
6
100
AcDbEntity
8
A-DOOR
100
AcDbLine
10
9400
20
6700
30
0
11
9400
21
5900
31
0
0
ARC
5
B2
330
6
100
AcDbEntity
8
A-DOOR
100
AcDbCircle
10
9400
20
6700
30
0
40
800
100
AcDbArc
50
-90
51
0
210
0
220
0
230
1
0
LINE
5
B3
330
6
100
AcDbEntity
8
A-DOOR
100
AcDbLine
10
9400
20
9930
30
0
11
9400
21
10730
31
0
0
ARC
5
B4
330
6
100
AcDbEntity
8
A-DOOR
100
AcDbCircle
10
9400
20
9930
30
0
40
800
100
AcDbArc
50
0
51
90
210
0
220
0
230
1
0
LINE
5
B5
330
6
100
AcDbEntity
8
A-DOOR
100
AcDbLine
10
12700
20
6700
30
0
11
12700
21
5900
31
0
0
ARC
5
B6
330
6
100
AcDbEntity
8
A-DOOR
100
AcDbCircle
10
12700
20
6700
30
0
40
800
100
AcDbArc
50
-90
51
0
210
0
220
0
230
1
0
LINE
5
B7
330
6
100
AcDbEntity
8
A-DOOR
100
AcDbLine
10
12700
20
9930
30
0
11
12700
21
10730
31
0
0
ARC
5
B8
330
6
100
AcDbEntity
8
A-DOOR
100
AcDbCircle
10
12700
20
9930
30
0
40
800
100
AcDbArc
50
0
51
90
210
0
220
0
230
1
0
LINE
5
B9
330
6
100
AcDbEntity
8
A-DOOR
100
AcDbLine
10
16000
20
6700
30
0
11
16000
21
5900
31
0
0
ARC
5
BA
330
6
100
AcDbEntity
8
A-DOOR
100
AcDbCircle
10
16000
20
6700
30
0
40
800
100
AcDbArc
50
-90
51
0
210
0
220
0
230
1
0
LINE
5
BB
330
6
100
AcDbEntity
8
A-DOOR
100
AcDbLine
10
16000
20
9930
30
0
11
16000
21
10730
31
0
0
ARC
5
BC
330
6
100
AcDbEntity
8
A-DOOR
100
AcDbCircle
10
16000
20
9930
30
0
40
800
100
AcDbArc
50
0
51
90
210
0
220
0
230
1
0
LINE
5
BD
330
6
100
AcDbEntity
8
A-DOOR
100
AcDbLine
10
19300
20
6700
30
0
11
19300
21
5900
31
0
0
ARC
5
BE
330
6
100
AcDbEntity
8
A-DOOR
100
AcDbCircle
10
19300
20
6700
30
0
40
800
100
AcDbArc
50
-90
51
0
210
0
220
0
230
1
0
LINE
5
BF
330
6
100
AcDbEntity
8
A-DOOR
100
AcDbLine
10
19300
20
9930
30
0
11
19300
21
10730
31
0
0
ARC
5
C0
330
6
100
AcDbEntity
8
A-DOOR
100
AcDbCircle
10
19300
20
9930
30
0
40
800
100
AcDbArc
50
0
51
90
210
0
220
0
230
1
0
TEXT
5
C1
330
6
100
AcDbEntity
8
ANNO
100
AcDbText
10
3700
20
6050
30
0
40
135
1
RECEPTION
7
STANDARD
100
AcDbText
0
TEXT
5
C2
330
6
100
AcDbEntity
8
ANNO
100
AcDbText
10
3200
20
9350
30
0
40
125
1
PROJECT 01
7
STANDARD
100
AcDbText
0
TEXT
5
C3
330
6
100
AcDbEntity
8
ANNO
100
AcDbText
10
3400
20
12400
30
0
40
125
1
LAB 01
7
STANDARD
100
AcDbText
0
LWPOLYLINE
5
C4
330
6
100
AcDbEntity
8
A-FURN
100
AcDbPolyline
90
4
70
1
38
0
10
2700
20
7550
10
3500
20
7550
10
3500
20
7970
10
2700
20
7970
0
CIRCLE
5
C5
330
6
100
AcDbEntity
8
A-FURN
100
AcDbCircle
10
3100
20
7400
30
0
40
80
210
0
220
0
230
1
0
LWPOLYLINE
5
C6
330
6
100
AcDbEntity
8
A-FURN
100
AcDbPolyline
90
4
70
1
38
0
10
2700
20
8400
10
3500
20
8400
10
3500
20
8820
10
2700
20
8820
0
CIRCLE
5
C7
330
6
100
AcDbEntity
8
A-FURN
100
AcDbCircle
10
3100
20
8250
30
0
40
80
210
0
220
0
230
1
0
LWPOLYLINE
5
C8
330
6
100
AcDbEntity
8
A-FURN
100
AcDbPolyline
90
4
70
1
38
0
10
4000
20
7550
10
4800
20
7550
10
4800
20
7970
10
4000
20
7970
0
CIRCLE
5
C9
330
6
100
AcDbEntity
8
A-FURN
100
AcDbCircle
10
4400
20
7400
30
0
40
80
210
0
220
0
230
1
0
LWPOLYLINE
5
CA
330
6
100
AcDbEntity
8
A-FURN
100
AcDbPolyline
90
4
70
1
38
0
10
4000
20
8400
10
4800
20
8400
10
4800
20
8820
10
4000
20
8820
0
CIRCLE
5
CB
330
6
100
AcDbEntity
8
A-FURN
100
AcDbCircle
10
4400
20
8250
30
0
40
80
210
0
220
0
230
1
0
LWPOLYLINE
5
CC
330
6
100
AcDbEntity
8
A-FURN
100
AcDbPolyline
90
4
70
1
38
0
10
3100
20
11100
10
4700
20
11100
10
4700
20
11600
10
3100
20
11600
0
CIRCLE
5
CD
330
6
100
AcDbEntity
8
A-FURN
100
AcDbCircle
10
3900
20
10940
30
0
40
90
210
0
220
0
230
1
0
CIRCLE
5
CE
330
6
100
AcDbEntity
8
A-FURN
100
AcDbCircle
10
3900
20
11760
30
0
40
90
210
0
220
0
230
1
0
TEXT
5
CF
330
6
100
AcDbEntity
8
ANNO
100
AcDbText
10
7000
20
6050
30
0
40
135
1
MEETING 01
7
STANDARD
100
AcDbText
0
TEXT
5
D0
330
6
100
AcDbEntity
8
ANNO
100
AcDbText
10
6500
20
9350
30
0
40
125
1
PROJECT 02
7
STANDARD
100
AcDbText
0
TEXT
5
D1
330
6
100
AcDbEntity
8
ANNO
100
AcDbText
10
6700
20
12400
30
0
40
125
1
LAB 02
7
STANDARD
100
AcDbText
0
LWPOLYLINE
5
D2
330
6
100
AcDbEntity
8
A-FURN
100
AcDbPolyline
90
4
70
1
38
0
10
6000
20
7550
10
6800
20
7550
10
6800
20
7970
10
6000
20
7970
0
CIRCLE
5
D3
330
6
100
AcDbEntity
8
A-FURN
100
AcDbCircle
10
6400
20
7400
30
0
40
80
210
0
220
0
230
1
0
LWPOLYLINE
5
D4
330
6
100
AcDbEntity
8
A-FURN
100
AcDbPolyline
90
4
70
1
38
0
10
6000
20
8400
10
6800
20
8400
10
6800
20
8820
10
6000
20
8820
0
CIRCLE
5
D5
330
6
100
AcDbEntity
8
A-FURN
100
AcDbCircle
10
6400
20
8250
30
0
40
80
210
0
220
0
230
1
0
LWPOLYLINE
5
D6
330
6
100
AcDbEntity
8
A-FURN
100
AcDbPolyline
90
4
70
1
38
0
10
7300
20
7550
10
8100
20
7550
10
8100
20
7970
10
7300
20
7970
0
CIRCLE
5
D7
330
6
100
AcDbEntity
8
A-FURN
100
AcDbCircle
10
7700
20
7400
30
0
40
80
210
0
220
0
230
1
0
LWPOLYLINE
5
D8
330
6
100
AcDbEntity
8
A-FURN
100
AcDbPolyline
90
4
70
1
38
0
10
7300
20
8400
10
8100
20
8400
10
8100
20
8820
10
7300
20
8820
0
CIRCLE
5
D9
330
6
100
AcDbEntity
8
A-FURN
100
AcDbCircle
10
7700
20
8250
30
0
40
80
210
0
220
0
230
1
0
LWPOLYLINE
5
DA
330
6
100
AcDbEntity
8
A-FURN
100
AcDbPolyline
90
4
70
1
38
0
10
6400
20
11100
10
8000
20
11100
10
8000
20
11600
10
6400
20
11600
0
CIRCLE
5
DB
330
6
100
AcDbEntity
8
A-FURN
100
AcDbCircle
10
7200
20
10940
30
0
40
90
210
0
220
0
230
1
0
CIRCLE
5
DC
330
6
100
AcDbEntity
8
A-FURN
100
AcDbCircle
10
7200
20
11760
30
0
40
90
210
0
220
0
230
1
0
TEXT
5
DD
330
6
100
AcDbEntity
8
ANNO
100
AcDbText
10
10300
20
6050
30
0
40
135
1
STUDIO
7
STANDARD
100
AcDbText
0
TEXT
5
DE
330
6
100
AcDbEntity
8
ANNO
100
AcDbText
10
9800
20
9350
30
0
40
125
1
OPEN OFFICE
7
STANDARD
100
AcDbText
0
TEXT
5
DF
330
6
100
AcDbEntity
8
ANNO
100
AcDbText
10
10000
20
12400
30
0
40
125
1
FOCUS 01
7
STANDARD
100
AcDbText
0
LWPOLYLINE
5
E0
330
6
100
AcDbEntity
8
A-FURN
100
AcDbPolyline
90
4
70
1
38
0
10
9300
20
7550
10
10100
20
7550
10
10100
20
7970
10
9300
20
7970
0
CIRCLE
5
E1
330
6
100
AcDbEntity
8
A-FURN
100
AcDbCircle
10
9700
20
7400
30
0
40
80
210
0
220
0
230
1
0
LWPOLYLINE
5
E2
330
6
100
AcDbEntity
8
A-FURN
100
AcDbPolyline
90
4
70
1
38
0
10
9300
20
8400
10
10100
20
8400
10
10100
20
8820
10
9300
20
8820
0
CIRCLE
5
E3
330
6
100
AcDbEntity
8
A-FURN
100
AcDbCircle
10
9700
20
8250
30
0
40
80
210
0
220
0
230
1
0
LWPOLYLINE
5
E4
330
6
100
AcDbEntity
8
A-FURN
100
AcDbPolyline
90
4
70
1
38
0
10
10600
20
7550
10
11400
20
7550
10
11400
20
7970
10
10600
20
7970
0
CIRCLE
5
E5
330
6
100
AcDbEntity
8
A-FURN
100
AcDbCircle
10
11000
20
7400
30
0
40
80
210
0
220
0
230
1
0
LWPOLYLINE
5
E6
330
6
100
AcDbEntity
8
A-FURN
100
AcDbPolyline
90
4
70
1
38
0
10
10600
20
8400
10
11400
20
8400
10
11400
20
8820
10
10600
20
8820
0
CIRCLE
5
E7
330
6
100
AcDbEntity
8
A-FURN
100
AcDbCircle
10
11000
20
8250
30
0
40
80
210
0
220
0
230
1
0
LWPOLYLINE
5
E8
330
6
100
AcDbEntity
8
A-FURN
100
AcDbPolyline
90
4
70
1
38
0
10
9700
20
11100
10
11300
20
11100
10
11300
20
11600
10
9700
20
11600
0
CIRCLE
5
E9
330
6
100
AcDbEntity
8
A-FURN
100
AcDbCircle
10
10500
20
10940
30
0
40
90
210
0
220
0
230
1
0
CIRCLE
5
EA
330
6
100
AcDbEntity
8
A-FURN
100
AcDbCircle
10
10500
20
11760
30
0
40
90
210
0
220
0
230
1
0
TEXT
5
EB
330
6
100
AcDbEntity
8
ANNO
100
AcDbText
10
13600
20
6050
30
0
40
135
1
MAKER LAB
7
STANDARD
100
AcDbText
0
TEXT
5
EC
330
6
100
AcDbEntity
8
ANNO
100
AcDbText
10
13100
20
9350
30
0
40
125
1
OPEN OFFICE
7
STANDARD
100
AcDbText
0
TEXT
5
ED
330
6
100
AcDbEntity
8
ANNO
100
AcDbText
10
13300
20
12400
30
0
40
125
1
FOCUS 02
7
STANDARD
100
AcDbText
0
LWPOLYLINE
5
EE
330
6
100
AcDbEntity
8
A-FURN
100
AcDbPolyline
90
4
70
1
38
0
10
12600
20
7550
10
13400
20
7550
10
13400
20
7970
10
12600
20
7970
0
CIRCLE
5
EF
330
6
100
AcDbEntity
8
A-FURN
100
AcDbCircle
10
13000
20
7400
30
0
40
80
210
0
220
0
230
1
0
LWPOLYLINE
5
F0
330
6
100
AcDbEntity
8
A-FURN
100
AcDbPolyline
90
4
70
1
38
0
10
12600
20
8400
10
13400
20
8400
10
13400
20
8820
10
12600
20
8820
0
CIRCLE
5
F1
330
6
100
AcDbEntity
8
A-FURN
100
AcDbCircle
10
13000
20
8250
30
0
40
80
210
0
220
0
230
1
0
LWPOLYLINE
5
F2
330
6
100
AcDbEntity
8
A-FURN
100
AcDbPolyline
90
4
70
1
38
0
10
13900
20
7550
10
14700
20
7550
10
14700
20
7970
10
13900
20
7970
0
CIRCLE
5
F3
330
6
100
AcDbEntity
8
A-FURN
100
AcDbCircle
10
14300
20
7400
30
0
40
80
210
0
220
0
230
1
0
LWPOLYLINE
5
F4
330
6
100
AcDbEntity
8
A-FURN
100
AcDbPolyline
90
4
70
1
38
0
10
13900
20
8400
10
14700
20
8400
10
14700
20
8820
10
13900
20
8820
0
CIRCLE
5
F5
330
6
100
AcDbEntity
8
A-FURN
100
AcDbCircle
10
14300
20
8250
30
0
40
80
210
0
220
0
230
1
0
LWPOLYLINE
5
F6
330
6
100
AcDbEntity
8
A-FURN
100
AcDbPolyline
90
4
70
1
38
0
10
13000
20
11100
10
14600
20
11100
10
14600
20
11600
10
13000
20
11600
0
CIRCLE
5
F7
330
6
100
AcDbEntity
8
A-FURN
100
AcDbCircle
10
13800
20
10940
30
0
40
90
210
0
220
0
230
1
0
CIRCLE
5
F8
330
6
100
AcDbEntity
8
A-FURN
100
AcDbCircle
10
13800
20
11760
30
0
40
90
210
0
220
0
230
1
0
TEXT
5
F9
330
6
100
AcDbEntity
8
ANNO
100
AcDbText
10
16900
20
6050
30
0
40
135
1
CAFE
7
STANDARD
100
AcDbText
0
TEXT
5
FA
330
6
100
AcDbEntity
8
ANNO
100
AcDbText
10
16400
20
9350
30
0
40
125
1
PROJECT 03
7
STANDARD
100
AcDbText
0
TEXT
5
FB
330
6
100
AcDbEntity
8
ANNO
100
AcDbText
10
16600
20
12400
30
0
40
125
1
CORE
7
STANDARD
100
AcDbText
0
LWPOLYLINE
5
FC
330
6
100
AcDbEntity
8
A-FURN
100
AcDbPolyline
90
4
70
1
38
0
10
15900
20
7550
10
16700
20
7550
10
16700
20
7970
10
15900
20
7970
0
CIRCLE
5
FD
330
6
100
AcDbEntity
8
A-FURN
100
AcDbCircle
10
16300
20
7400
30
0
40
80
210
0
220
0
230
1
0
LWPOLYLINE
5
FE
330
6
100
AcDbEntity
8
A-FURN
100
AcDbPolyline
90
4
70
1
38
0
10
15900
20
8400
10
16700
20
8400
10
16700
20
8820
10
15900
20
8820
0
CIRCLE
5
FF
330
6
100
AcDbEntity
8
A-FURN
100
AcDbCircle
10
16300
20
8250
30
0
40
80
210
0
220
0
230
1
0
LWPOLYLINE
5
100
330
6
100
AcDbEntity
8
A-FURN
100
AcDbPolyline
90
4
70
1
38
0
10
17200
20
7550
10
18000
20
7550
10
18000
20
7970
10
17200
20
7970
0
CIRCLE
5
101
330
6
100
AcDbEntity
8
A-FURN
100
AcDbCircle
10
17600
20
7400
30
0
40
80
210
0
220
0
230
1
0
LWPOLYLINE
5
102
330
6
100
AcDbEntity
8
A-FURN
100
AcDbPolyline
90
4
70
1
38
0
10
17200
20
8400
10
18000
20
8400
10
18000
20
8820
10
17200
20
8820
0
CIRCLE
5
103
330
6
100
AcDbEntity
8
A-FURN
100
AcDbCircle
10
17600
20
8250
30
0
40
80
210
0
220
0
230
1
0
LWPOLYLINE
5
104
330
6
100
AcDbEntity
8
A-FURN
100
AcDbPolyline
90
4
70
1
38
0
10
16300
20
11100
10
17900
20
11100
10
17900
20
11600
10
16300
20
11600
0
CIRCLE
5
105
330
6
100
AcDbEntity
8
A-FURN
100
AcDbCircle
10
17100
20
10940
30
0
40
90
210
0
220
0
230
1
0
CIRCLE
5
106
330
6
100
AcDbEntity
8
A-FURN
100
AcDbCircle
10
17100
20
11760
30
0
40
90
210
0
220
0
230
1
0
TEXT
5
107
330
6
100
AcDbEntity
8
ANNO
100
AcDbText
10
20200
20
6050
30
0
40
135
1
SERVICE
7
STANDARD
100
AcDbText
0
TEXT
5
108
330
6
100
AcDbEntity
8
ANNO
100
AcDbText
10
19700
20
9350
30
0
40
125
1
PROJECT 04
7
STANDARD
100
AcDbText
0
TEXT
5
109
330
6
100
AcDbEntity
8
ANNO
100
AcDbText
10
19900
20
12400
30
0
40
125
1
SUPPORT
7
STANDARD
100
AcDbText
0
LWPOLYLINE
5
10A
330
6
100
AcDbEntity
8
A-FURN
100
AcDbPolyline
90
4
70
1
38
0
10
19200
20
7550
10
20000
20
7550
10
20000
20
7970
10
19200
20
7970
0
CIRCLE
5
10B
330
6
100
AcDbEntity
8
A-FURN
100
AcDbCircle
10
19600
20
7400
30
0
40
80
210
0
220
0
230
1
0
LWPOLYLINE
5
10C
330
6
100
AcDbEntity
8
A-FURN
100
AcDbPolyline
90
4
70
1
38
0
10
19200
20
8400
10
20000
20
8400
10
20000
20
8820
10
19200
20
8820
0
CIRCLE
5
10D
330
6
100
AcDbEntity
8
A-FURN
100
AcDbCircle
10
19600
20
8250
30
0
40
80
210
0
220
0
230
1
0
LWPOLYLINE
5
10E
330
6
100
AcDbEntity
8
A-FURN
100
AcDbPolyline
90
4
70
1
38
0
10
20500
20
7550
10
21300
20
7550
10
21300
20
7970
10
20500
20
7970
0
CIRCLE
5
10F
330
6
100
AcDbEntity
8
A-FURN
100
AcDbCircle
10
20900
20
7400
30
0
40
80
210
0
220
0
230
1
0
LWPOLYLINE
5
110
330
6
100
AcDbEntity
8
A-FURN
100
AcDbPolyline
90
4
70
1
38
0
10
20500
20
8400
10
21300
20
8400
10
21300
20
8820
10
20500
20
8820
0
CIRCLE
5
111
330
6
100
AcDbEntity
8
A-FURN
100
AcDbCircle
10
20900
20
8250
30
0
40
80
210
0
220
0
230
1
0
LWPOLYLINE
5
112
330
6
100
AcDbEntity
8
A-FURN
100
AcDbPolyline
90
4
70
1
38
0
10
19600
20
11100
10
21200
20
11100
10
21200
20
11600
10
19600
20
11600
0
CIRCLE
5
113
330
6
100
AcDbEntity
8
A-FURN
100
AcDbCircle
10
20400
20
10940
30
0
40
90
210
0
220
0
230
1
0
CIRCLE
5
114
330
6
100
AcDbEntity
8
A-FURN
100
AcDbCircle
10
20400
20
11760
30
0
40
90
210
0
220
0
230
1
0
LINE
5
115
330
6
100
AcDbEntity
8
DIMS
100
AcDbLine
10
2200
20
3600
30
0
11
2200
21
2450
31
0
0
LINE
5
116
330
6
100
AcDbEntity
8
DIMS
100
AcDbLine
10
22000
20
3600
30
0
11
22000
21
2450
31
0
0
LINE
5
117
330
6
100
AcDbEntity
8
DIMS
100
AcDbLine
10
2200
20
2600
30
0
11
22000
21
2600
31
0
0
LINE
5
118
330
6
100
AcDbEntity
8
DIMS
100
AcDbLine
10
2200
20
2600
30
0
11
2031.1344148995972
21
2707.165358995799
31
0
0
LINE
5
119
330
6
100
AcDbEntity
8
DIMS
100
AcDbLine
10
2200
20
2600
30
0
11
2031.1344148995972
21
2492.834641004201
31
0
0
LINE
5
11A
330
6
100
AcDbEntity
8
DIMS
100
AcDbLine
10
22000
20
2600
30
0
11
22168.865585100404
21
2492.834641004201
31
0
0
LINE
5
11B
330
6
100
AcDbEntity
8
DIMS
100
AcDbLine
10
22000
20
2600
30
0
11
22168.865585100404
21
2707.165358995799
31
0
0
TEXT
5
11C
330
6
100
AcDbEntity
8
DIMS
100
AcDbText
10
11775
20
2490
30
0
40
150
1
19800
7
STANDARD
100
AcDbText
0
LINE
5
11D
330
6
100
AcDbEntity
8
DIMS
100
AcDbLine
10
2200
20
13000
30
0
11
2200
21
14050
31
0
0
LINE
5
11E
330
6
100
AcDbEntity
8
DIMS
100
AcDbLine
10
5500
20
13000
30
0
11
5500
21
14050
31
0
0
LINE
5
11F
330
6
100
AcDbEntity
8
DIMS
100
AcDbLine
10
2200
20
13900
30
0
11
5500
21
13900
31
0
0
LINE
5
120
330
6
100
AcDbEntity
8
DIMS
100
AcDbLine
10
2200
20
13900
30
0
11
2031.1344148995972
21
14007.1653589958
31
0
0
LINE
5
121
330
6
100
AcDbEntity
8
DIMS
100
AcDbLine
10
2200
20
13900
30
0
11
2031.1344148995972
21
13792.8346410042
31
0
0
LINE
5
122
330
6
100
AcDbEntity
8
DIMS
100
AcDbLine
10
5500
20
13900
30
0
11
5668.865585100403
21
13792.8346410042
31
0
0
LINE
5
123
330
6
100
AcDbEntity
8
DIMS
100
AcDbLine
10
5500
20
13900
30
0
11
5668.865585100403
21
14007.1653589958
31
0
0
TEXT
5
124
330
6
100
AcDbEntity
8
DIMS
100
AcDbText
10
3590
20
14010
30
0
40
150
1
3300
7
STANDARD
100
AcDbText
0
LINE
5
125
330
6
100
AcDbEntity
8
DIMS
100
AcDbLine
10
5500
20
13000
30
0
11
5500
21
14050
31
0
0
LINE
5
126
330
6
100
AcDbEntity
8
DIMS
100
AcDbLine
10
8800
20
13000
30
0
11
8800
21
14050
31
0
0
LINE
5
127
330
6
100
AcDbEntity
8
DIMS
100
AcDbLine
10
5500
20
13900
30
0
11
8800
21
13900
31
0
0
LINE
5
128
330
6
100
AcDbEntity
8
DIMS
100
AcDbLine
10
5500
20
13900
30
0
11
5331.134414899597
21
14007.1653589958
31
0
0
LINE
5
129
330
6
100
AcDbEntity
8
DIMS
100
AcDbLine
10
5500
20
13900
30
0
11
5331.134414899597
21
13792.8346410042
31
0
0
LINE
5
12A
330
6
100
AcDbEntity
8
DIMS
100
AcDbLine
10
8800
20
13900
30
0
11
8968.865585100402
21
13792.8346410042
31
0
0
LINE
5
12B
330
6
100
AcDbEntity
8
DIMS
100
AcDbLine
10
8800
20
13900
30
0
11
8968.865585100402
21
14007.1653589958
31
0
0
TEXT
5
12C
330
6
100
AcDbEntity
8
DIMS
100
AcDbText
10
6890.000000000001
20
14010
30
0
40
150
1
3300
7
STANDARD
100
AcDbText
0
LINE
5
12D
330
6
100
AcDbEntity
8
DIMS
100
AcDbLine
10
8800
20
13000
30
0
11
8800
21
14050
31
0
0
LINE
5
12E
330
6
100
AcDbEntity
8
DIMS
100
AcDbLine
10
12100
20
13000
30
0
11
12100
21
14050
31
0
0
LINE
5
12F
330
6
100
AcDbEntity
8
DIMS
100
AcDbLine
10
8800
20
13900
30
0
11
12100
21
13900
31
0
0
LINE
5
130
330
6
100
AcDbEntity
8
DIMS
100
AcDbLine
10
8800
20
13900
30
0
11
8631.134414899598
21
14007.1653589958
31
0
0
LINE
5
131
330
6
100
AcDbEntity
8
DIMS
100
AcDbLine
10
8800
20
13900
30
0
11
8631.134414899598
21
13792.8346410042
31
0
0
LINE
5
132
330
6
100
AcDbEntity
8
DIMS
100
AcDbLine
10
12100
20
13900
30
0
11
12268.865585100402
21
13792.8346410042
31
0
0
LINE
5
133
330
6
100
AcDbEntity
8
DIMS
100
AcDbLine
10
12100
20
13900
30
0
11
12268.865585100402
21
14007.1653589958
31
0
0
TEXT
5
134
330
6
100
AcDbEntity
8
DIMS
100
AcDbText
10
10190
20
14010
30
0
40
150
1
3300
7
STANDARD
100
AcDbText
0
LINE
5
135
330
6
100
AcDbEntity
8
DIMS
100
AcDbLine
10
12100
20
13000
30
0
11
12100
21
14050
31
0
0
LINE
5
136
330
6
100
AcDbEntity
8
DIMS
100
AcDbLine
10
15400
20
13000
30
0
11
15400
21
14050
31
0
0
LINE
5
137
330
6
100
AcDbEntity
8
DIMS
100
AcDbLine
10
12100
20
13900
30
0
11
15400
21
13900
31
0
0
LINE
5
138
330
6
100
AcDbEntity
8
DIMS
100
AcDbLine
10
12100
20
13900
30
0
11
11931.134414899598
21
14007.1653589958
31
0
0
LINE
5
139
330
6
100
AcDbEntity
8
DIMS
100
AcDbLine
10
12100
20
13900
30
0
11
11931.134414899598
21
13792.8346410042
31
0
0
LINE
5
13A
330
6
100
AcDbEntity
8
DIMS
100
AcDbLine
10
15400
20
13900
30
0
11
15568.865585100402
21
13792.8346410042
31
0
0
LINE
5
13B
330
6
100
AcDbEntity
8
DIMS
100
AcDbLine
10
15400
20
13900
30
0
11
15568.865585100402
21
14007.1653589958
31
0
0
TEXT
5
13C
330
6
100
AcDbEntity
8
DIMS
100
AcDbText
10
13490
20
14010
30
0
40
150
1
3300
7
STANDARD
100
AcDbText
0
LINE
5
13D
330
6
100
AcDbEntity
8
DIMS
100
AcDbLine
10
15400
20
13000
30
0
11
15400
21
14050
31
0
0
LINE
5
13E
330
6
100
AcDbEntity
8
DIMS
100
AcDbLine
10
18700
20
13000
30
0
11
18700
21
14050
31
0
0
LINE
5
13F
330
6
100
AcDbEntity
8
DIMS
100
AcDbLine
10
15400
20
13900
30
0
11
18700
21
13900
31
0
0
LINE
5
140
330
6
100
AcDbEntity
8
DIMS
100
AcDbLine
10
15400
20
13900
30
0
11
15231.134414899598
21
14007.1653589958
31
0
0
LINE
5
141
330
6
100
AcDbEntity
8
DIMS
100
AcDbLine
10
15400
20
13900
30
0
11
15231.134414899598
21
13792.8346410042
31
0
0
LINE
5
142
330
6
100
AcDbEntity
8
DIMS
100
AcDbLine
10
18700
20
13900
30
0
11
18868.865585100404
21
13792.8346410042
31
0
0
LINE
5
143
330
6
100
AcDbEntity
8
DIMS
100
AcDbLine
10
18700
20
13900
30
0
11
18868.865585100404
21
14007.1653589958
31
0
0
TEXT
5
144
330
6
100
AcDbEntity
8
DIMS
100
AcDbText
10
16790
20
14010
30
0
40
150
1
3300
7
STANDARD
100
AcDbText
0
LINE
5
145
330
6
100
AcDbEntity
8
DIMS
100
AcDbLine
10
18700
20
13000
30
0
11
18700
21
14050
31
0
0
LINE
5
146
330
6
100
AcDbEntity
8
DIMS
100
AcDbLine
10
22000
20
13000
30
0
11
22000
21
14050
31
0
0
LINE
5
147
330
6
100
AcDbEntity
8
DIMS
100
AcDbLine
10
18700
20
13900
30
0
11
22000
21
13900
31
0
0
LINE
5
148
330
6
100
AcDbEntity
8
DIMS
100
AcDbLine
10
18700
20
13900
30
0
11
18531.134414899596
21
14007.1653589958
31
0
0
LINE
5
149
330
6
100
AcDbEntity
8
DIMS
100
AcDbLine
10
18700
20
13900
30
0
11
18531.134414899596
21
13792.8346410042
31
0
0
LINE
5
14A
330
6
100
AcDbEntity
8
DIMS
100
AcDbLine
10
22000
20
13900
30
0
11
22168.865585100404
21
13792.8346410042
31
0
0
LINE
5
14B
330
6
100
AcDbEntity
8
DIMS
100
AcDbLine
10
22000
20
13900
30
0
11
22168.865585100404
21
14007.1653589958
31
0
0
TEXT
5
14C
330
6
100
AcDbEntity
8
DIMS
100
AcDbText
10
20090
20
14010
30
0
40
150
1
3300
7
STANDARD
100
AcDbText
0
LINE
5
14D
330
6
100
AcDbEntity
8
DIMS
100
AcDbLine
10
2200
20
3600
30
0
11
1050
21
3600
31
0
0
LINE
5
14E
330
6
100
AcDbEntity
8
DIMS
100
AcDbLine
10
2200
20
13000
30
0
11
1050
21
13000
31
0
0
LINE
5
14F
330
6
100
AcDbEntity
8
DIMS
100
AcDbLine
10
1200
20
3600
30
0
11
1200
21
13000
31
0
0
LINE
5
150
330
6
100
AcDbEntity
8
DIMS
100
AcDbLine
10
1200
20
3600
30
0
11
1092.8346410042004
21
3431.1344148995972
31
0
0
LINE
5
151
330
6
100
AcDbEntity
8
DIMS
100
AcDbLine
10
1200
20
3600
30
0
11
1307.1653589957994
21
3431.1344148995972
31
0
0
LINE
5
152
330
6
100
AcDbEntity
8
DIMS
100
AcDbLine
10
1200
20
13000
30
0
11
1307.1653589957994
21
13168.865585100402
31
0
0
LINE
5
153
330
6
100
AcDbEntity
8
DIMS
100
AcDbLine
10
1200
20
13000
30
0
11
1092.8346410042004
21
13168.865585100402
31
0
0
TEXT
5
154
330
6
100
AcDbEntity
8
DIMS
100
AcDbText
10
1090
20
8040.000000000001
30
0
40
150
1
9400
7
STANDARD
50
90
100
AcDbText
0
TEXT
5
155
330
6
100
AcDbEntity
8
TITLE
100
AcDbText
10
900
20
14600
30
0
40
114.99999999999999
1
GROUND FLOOR · MODEL UNITS: MILLIMETERS · ORIGINAL SAMPLE DRAWING
7
STANDARD
100
AcDbText
0
ENDSEC
0
SECTION
2
OBJECTS
0
DICTIONARY
5
162
330
0
100
AcDbDictionary
281
1
3
ACAD_LAYOUT
350
163
0
DICTIONARY
5
163
330
162
100
AcDbDictionary
280
1
281
1
3
Model
350
8
3
Layout1
350
9
0
LAYOUT
5
8
102
{ACAD_REACTORS
330
163
102
}
330
163
100
AcDbPlotSettings
100
AcDbLayout
1
Model
70
1
71
0
12
0
22
0
32
0
14
100000000000000000000
24
100000000000000000000
34
100000000000000000000
15
-100000000000000000000
25
-100000000000000000000
35
-100000000000000000000
13
0
23
0
33
0
16
1
26
0
36
0
17
0
27
1
37
0
330
6
0
LAYOUT
5
9
102
{ACAD_REACTORS
330
163
102
}
330
163
100
AcDbPlotSettings
100
AcDbLayout
1
Layout1
70
1
71
1
10
0
20
0
11
420
21
297
12
0
22
0
32
0
14
100000000000000000000
24
100000000000000000000
34
100000000000000000000
15
-100000000000000000000
25
-100000000000000000000
35
-100000000000000000000
13
0
23
0
33
0
16
1
26
0
36
0
17
0
27
1
37
0
330
7
0
ENDSEC
0
EOF
