0
SECTION
2
HEADER
9
$ACADVER
1
AC1032
9
$DWGCODEPAGE
3
UTF-8
9
$HANDSEED
5
B9
9
$LTSCALE
40
1
9
$PDMODE
70
0
9
$PDSIZE
40
0
9
$TEXTSTYLE
7
STANDARD
9
$INSUNITS
70
6
9
$MEASUREMENT
70
1
0
ENDSEC
0
SECTION
2
TABLES
0
TABLE
2
LTYPE
5
AB
330
0
100
AcDbSymbolTable
70
1
0
LTYPE
5
2
330
AB
100
AcDbSymbolTableRecord
100
AcDbLinetypeTableRecord
2
CONTINUOUS
70
0
3
Solid line
72
65
73
0
40
0
0
ENDTAB
0
TABLE
2
STYLE
5
AC
330
0
100
AcDbSymbolTable
70
1
0
STYLE
5
3
330
AC
100
AcDbSymbolTableRecord
100
AcDbTextStyleTableRecord
2
STANDARD
70
0
40
0
41
1
50
0
71
0
42
2.5
3
sans-serif
4

0
ENDTAB
0
TABLE
2
DIMSTYLE
5
AD
330
0
100
AcDbSymbolTable
70
1
100
AcDbDimStyleTable
0
DIMSTYLE
105
4
330
AD
100
AcDbSymbolTableRecord
100
AcDbDimStyleTableRecord
2
STANDARD
70
0
40
1
41
2.5
42
0.625
43
3.75
44
1.25
140
2.5
141
2.5
147
0.625
0
ENDTAB
0
TABLE
2
UCS
5
AE
330
0
100
AcDbSymbolTable
70
0
0
ENDTAB
0
TABLE
2
VIEW
5
AF
330
0
100
AcDbSymbolTable
70
0
0
ENDTAB
0
TABLE
2
LAYER
5
B0
330
0
100
AcDbSymbolTable
70
13
0
LAYER
5
5
330
B0
100
AcDbSymbolTableRecord
100
AcDbLayerTableRecord
2
0
70
0
62
7
6
CONTINUOUS
290
1
370
-1
0
LAYER
5
A
330
B0
100
AcDbSymbolTableRecord
100
AcDbLayerTableRecord
2
FRAME
70
0
62
7
6
CONTINUOUS
290
1
370
-1
0
LAYER
5
B
330
B0
100
AcDbSymbolTableRecord
100
AcDbLayerTableRecord
2
GEO-GRID
70
0
62
8
6
CONTINUOUS
290
1
370
-1
0
LAYER
5
C
330
B0
100
AcDbSymbolTableRecord
100
AcDbLayerTableRecord
2
GEO-STRATA
70
0
62
6
6
CONTINUOUS
290
1
370
-1
0
LAYER
5
D
330
B0
100
AcDbSymbolTableRecord
100
AcDbLayerTableRecord
2
GEO-WATER
70
0
62
4
6
CONTINUOUS
290
1
370
-1
0
LAYER
5
E
330
B0
100
AcDbSymbolTableRecord
100
AcDbLayerTableRecord
2
GEO-POINTS
70
0
62
3
6
CONTINUOUS
290
1
370
-1
0
LAYER
5
F
330
B0
100
AcDbSymbolTableRecord
100
AcDbLayerTableRecord
2
DIMS
70
0
62
2
6
CONTINUOUS
290
1
370
-1
0
LAYER
5
10
330
B0
100
AcDbSymbolTableRecord
100
AcDbLayerTableRecord
2
ANNO
70
0
62
7
6
CONTINUOUS
290
1
370
-1
0
LAYER
5
11
330
B0
100
AcDbSymbolTableRecord
100
AcDbLayerTableRecord
2
TITLE
70
0
62
7
6
CONTINUOUS
290
1
370
-1
0
LAYER
5
1E
330
B0
100
AcDbSymbolTableRecord
100
AcDbLayerTableRecord
2
GEO-BOUNDARY
70
0
62
7
6
CONTINUOUS
290
1
370
-1
0
LAYER
5
24
330
B0
100
AcDbSymbolTableRecord
100
AcDbLayerTableRecord
2
GEO-HATCH
70
0
62
7
6
CONTINUOUS
290
1
370
-1
0
LAYER
5
70
330
B0
100
AcDbSymbolTableRecord
100
AcDbLayerTableRecord
2
GEO-DEPTH
70
0
62
7
6
CONTINUOUS
290
1
370
-1
0
LAYER
5
73
330
B0
100
AcDbSymbolTableRecord
100
AcDbLayerTableRecord
2
GEO-ELEV
70
0
62
7
6
CONTINUOUS
290
1
370
-1
0
ENDTAB
0
TABLE
2
BLOCK_RECORD
5
B1
330
0
100
AcDbSymbolTable
70
2
0
BLOCK_RECORD
5
6
330
B1
100
AcDbSymbolTableRecord
100
AcDbBlockTableRecord
2
*MODEL_SPACE
70
0
280
1
281
0
340
8
0
BLOCK_RECORD
5
7
330
B1
100
AcDbSymbolTableRecord
100
AcDbBlockTableRecord
2
*PAPER_SPACE
70
0
280
1
281
0
340
9
0
ENDTAB
0
ENDSEC
0
SECTION
2
BLOCKS
0
BLOCK
5
B3
330
6
100
AcDbEntity
8
0
100
AcDbBlockBegin
2
*MODEL_SPACE
70
0
10
0
20
0
30
0
3
*MODEL_SPACE
1

0
ENDBLK
5
B4
330
6
100
AcDbEntity
8
0
100
AcDbBlockEnd
0
BLOCK
5
B5
330
7
100
AcDbEntity
8
0
100
AcDbBlockBegin
2
*PAPER_SPACE
70
0
10
0
20
0
30
0
3
*PAPER_SPACE
1

0
ENDBLK
5
B6
330
7
100
AcDbEntity
8
0
100
AcDbBlockEnd
0
ENDSEC
0
SECTION
2
ENTITIES
0
LWPOLYLINE
5
12
330
6
100
AcDbEntity
8
FRAME
100
AcDbPolyline
90
4
70
1
38
0
10
-8
20
-12
10
248
20
-12
10
248
20
152
10
-8
20
152
0
LWPOLYLINE
5
13
330
6
100
AcDbEntity
8
FRAME
100
AcDbPolyline
90
4
70
1
38
0
10
-5
20
-9
10
245
20
-9
10
245
20
149
10
-5
20
149
0
LWPOLYLINE
5
14
330
6
100
AcDbEntity
8
FRAME
100
AcDbPolyline
90
4
70
1
38
0
10
136
20
-9
10
245
20
-9
10
245
20
9
10
136
20
9
0
LINE
5
15
330
6
100
AcDbEntity
8
FRAME
100
AcDbLine
10
194
20
-9
30
0
11
194
21
9
31
0
0
LINE
5
16
330
6
100
AcDbEntity
8
FRAME
100
AcDbLine
10
218
20
-9
30
0
11
218
21
9
31
0
0
LINE
5
17
330
6
100
AcDbEntity
8
FRAME
100
AcDbLine
10
194
20
0
30
0
11
245
21
0
31
0
0
TEXT
5
18
330
6
100
AcDbEntity
8
TITLE
100
AcDbText
10
139
20
2
30
0
40
2.25
1
LOESS BOREHOLE LOG · ZK01
7
STANDARD
100
AcDbText
0
TEXT
5
19
330
6
100
AcDbEntity
8
TITLE
100
AcDbText
10
139
20
-4
30
0
40
1.35
1
ENGINEERING GEOLOGY
7
STANDARD
100
AcDbText
0
TEXT
5
1A
330
6
100
AcDbEntity
8
TITLE
100
AcDbText
10
197
20
3.5
30
0
40
1.15
1
SCALE  V 1:200
7
STANDARD
100
AcDbText
0
TEXT
5
1B
330
6
100
AcDbEntity
8
TITLE
100
AcDbText
10
197
20
-4.5
30
0
40
1.15
1
REV  A
7
STANDARD
100
AcDbText
0
TEXT
5
1C
330
6
100
AcDbEntity
8
TITLE
100
AcDbText
10
221
20
3.5
30
0
40
1.2
1
G-101
7
STANDARD
100
AcDbText
0
TEXT
5
1D
330
6
100
AcDbEntity
8
TITLE
100
AcDbText
10
221
20
-4.5
30
0
40
0.95
1
SYNTHETIC
7
STANDARD
100
AcDbText
0
LWPOLYLINE
5
1F
330
6
100
AcDbEntity
8
GEO-BOUNDARY
100
AcDbPolyline
90
4
70
1
38
0
10
28
20
30
10
92
20
30
10
92
20
126
10
28
20
126
0
LINE
5
20
330
6
100
AcDbEntity
8
GEO-BOUNDARY
100
AcDbLine
10
42
20
30
30
0
11
42
21
126
31
0
0
LINE
5
21
330
6
100
AcDbEntity
8
GEO-BOUNDARY
100
AcDbLine
10
56
20
30
30
0
11
56
21
126
31
0
0
LINE
5
22
330
6
100
AcDbEntity
8
GEO-BOUNDARY
100
AcDbLine
10
71
20
30
30
0
11
71
21
126
31
0
0
LWPOLYLINE
5
23
330
6
100
AcDbEntity
8
GEO-BOUNDARY
100
AcDbPolyline
90
4
70
1
38
0
10
71
20
119.6
10
92
20
119.6
10
92
20
126
10
71
20
126
0
LINE
5
25
330
6
100
AcDbEntity
8
GEO-HATCH
100
AcDbLine
10
73
20
123
30
0
11
76
21
120
31
0
0
LINE
5
26
330
6
100
AcDbEntity
8
GEO-HATCH
100
AcDbLine
10
78
20
123
30
0
11
81
21
120
31
0
0
LINE
5
27
330
6
100
AcDbEntity
8
GEO-HATCH
100
AcDbLine
10
83
20
123
30
0
11
86
21
120
31
0
0
LINE
5
28
330
6
100
AcDbEntity
8
GEO-HATCH
100
AcDbLine
10
88
20
123
30
0
11
91
21
120
31
0
0
TEXT
5
29
330
6
100
AcDbEntity
8
ANNO
100
AcDbText
10
73
20
122.8
30
0
40
1.35
1
FILL
7
STANDARD
100
AcDbText
0
LWPOLYLINE
5
2A
330
6
100
AcDbEntity
8
GEO-BOUNDARY
100
AcDbPolyline
90
4
70
1
38
0
10
71
20
97.19999999999999
10
92
20
97.19999999999999
10
92
20
119.6
10
71
20
119.6
0
LINE
5
2B
330
6
100
AcDbEntity
8
GEO-HATCH
100
AcDbLine
10
73
20
116.6
30
0
11
76
21
113.6
31
0
0
LINE
5
2C
330
6
100
AcDbEntity
8
GEO-HATCH
100
AcDbLine
10
73
20
111.6
30
0
11
76
21
108.6
31
0
0
LINE
5
2D
330
6
100
AcDbEntity
8
GEO-HATCH
100
AcDbLine
10
73
20
106.6
30
0
11
76
21
103.6
31
0
0
LINE
5
2E
330
6
100
AcDbEntity
8
GEO-HATCH
100
AcDbLine
10
73
20
101.6
30
0
11
76
21
98.6
31
0
0
LINE
5
2F
330
6
100
AcDbEntity
8
GEO-HATCH
100
AcDbLine
10
78
20
116.6
30
0
11
81
21
113.6
31
0
0
LINE
5
30
330
6
100
AcDbEntity
8
GEO-HATCH
100
AcDbLine
10
78
20
111.6
30
0
11
81
21
108.6
31
0
0
LINE
5
31
330
6
100
AcDbEntity
8
GEO-HATCH
100
AcDbLine
10
78
20
106.6
30
0
11
81
21
103.6
31
0
0
LINE
5
32
330
6
100
AcDbEntity
8
GEO-HATCH
100
AcDbLine
10
78
20
101.6
30
0
11
81
21
98.6
31
0
0
LINE
5
33
330
6
100
AcDbEntity
8
GEO-HATCH
100
AcDbLine
10
83
20
116.6
30
0
11
86
21
113.6
31
0
0
LINE
5
34
330
6
100
AcDbEntity
8
GEO-HATCH
100
AcDbLine
10
83
20
111.6
30
0
11
86
21
108.6
31
0
0
LINE
5
35
330
6
100
AcDbEntity
8
GEO-HATCH
100
AcDbLine
10
83
20
106.6
30
0
11
86
21
103.6
31
0
0
LINE
5
36
330
6
100
AcDbEntity
8
GEO-HATCH
100
AcDbLine
10
83
20
101.6
30
0
11
86
21
98.6
31
0
0
LINE
5
37
330
6
100
AcDbEntity
8
GEO-HATCH
100
AcDbLine
10
88
20
116.6
30
0
11
91
21
113.6
31
0
0
LINE
5
38
330
6
100
AcDbEntity
8
GEO-HATCH
100
AcDbLine
10
88
20
111.6
30
0
11
91
21
108.6
31
0
0
LINE
5
39
330
6
100
AcDbEntity
8
GEO-HATCH
100
AcDbLine
10
88
20
106.6
30
0
11
91
21
103.6
31
0
0
LINE
5
3A
330
6
100
AcDbEntity
8
GEO-HATCH
100
AcDbLine
10
88
20
101.6
30
0
11
91
21
98.6
31
0
0
TEXT
5
3B
330
6
100
AcDbEntity
8
ANNO
100
AcDbText
10
73
20
108.39999999999999
30
0
40
1.35
1
MALAN LOESS
7
STANDARD
100
AcDbText
0
LWPOLYLINE
5
3C
330
6
100
AcDbEntity
8
GEO-BOUNDARY
100
AcDbPolyline
90
4
70
1
38
0
10
71
20
87.6
10
92
20
87.6
10
92
20
97.19999999999999
10
71
20
97.19999999999999
0
LINE
5
3D
330
6
100
AcDbEntity
8
GEO-HATCH
100
AcDbLine
10
73
20
94.19999999999999
30
0
11
76
21
91.19999999999999
31
0
0
LINE
5
3E
330
6
100
AcDbEntity
8
GEO-HATCH
100
AcDbLine
10
78
20
94.19999999999999
30
0
11
81
21
91.19999999999999
31
0
0
LINE
5
3F
330
6
100
AcDbEntity
8
GEO-HATCH
100
AcDbLine
10
83
20
94.19999999999999
30
0
11
86
21
91.19999999999999
31
0
0
LINE
5
40
330
6
100
AcDbEntity
8
GEO-HATCH
100
AcDbLine
10
88
20
94.19999999999999
30
0
11
91
21
91.19999999999999
31
0
0
TEXT
5
41
330
6
100
AcDbEntity
8
ANNO
100
AcDbText
10
73
20
92.39999999999999
30
0
40
1.35
1
PALEOSOL
7
STANDARD
100
AcDbText
0
LWPOLYLINE
5
42
330
6
100
AcDbEntity
8
GEO-BOUNDARY
100
AcDbPolyline
90
4
70
1
38
0
10
71
20
68.39999999999999
10
92
20
68.39999999999999
10
92
20
87.6
10
71
20
87.6
0
LINE
5
43
330
6
100
AcDbEntity
8
GEO-HATCH
100
AcDbLine
10
73
20
84.6
30
0
11
76
21
81.6
31
0
0
LINE
5
44
330
6
100
AcDbEntity
8
GEO-HATCH
100
AcDbLine
10
73
20
79.6
30
0
11
76
21
76.6
31
0
0
LINE
5
45
330
6
100
AcDbEntity
8
GEO-HATCH
100
AcDbLine
10
73
20
74.6
30
0
11
76
21
71.6
31
0
0
LINE
5
46
330
6
100
AcDbEntity
8
GEO-HATCH
100
AcDbLine
10
78
20
84.6
30
0
11
81
21
81.6
31
0
0
LINE
5
47
330
6
100
AcDbEntity
8
GEO-HATCH
100
AcDbLine
10
78
20
79.6
30
0
11
81
21
76.6
31
0
0
LINE
5
48
330
6
100
AcDbEntity
8
GEO-HATCH
100
AcDbLine
10
78
20
74.6
30
0
11
81
21
71.6
31
0
0
LINE
5
49
330
6
100
AcDbEntity
8
GEO-HATCH
100
AcDbLine
10
83
20
84.6
30
0
11
86
21
81.6
31
0
0
LINE
5
4A
330
6
100
AcDbEntity
8
GEO-HATCH
100
AcDbLine
10
83
20
79.6
30
0
11
86
21
76.6
31
0
0
LINE
5
4B
330
6
100
AcDbEntity
8
GEO-HATCH
100
AcDbLine
10
83
20
74.6
30
0
11
86
21
71.6
31
0
0
LINE
5
4C
330
6
100
AcDbEntity
8
GEO-HATCH
100
AcDbLine
10
88
20
84.6
30
0
11
91
21
81.6
31
0
0
LINE
5
4D
330
6
100
AcDbEntity
8
GEO-HATCH
100
AcDbLine
10
88
20
79.6
30
0
11
91
21
76.6
31
0
0
LINE
5
4E
330
6
100
AcDbEntity
8
GEO-HATCH
100
AcDbLine
10
88
20
74.6
30
0
11
91
21
71.6
31
0
0
TEXT
5
4F
330
6
100
AcDbEntity
8
ANNO
100
AcDbText
10
73
20
78
30
0
40
1.35
1
LISHI LOESS
7
STANDARD
100
AcDbText
0
LWPOLYLINE
5
50
330
6
100
AcDbEntity
8
GEO-BOUNDARY
100
AcDbPolyline
90
4
70
1
38
0
10
71
20
61.99999999999999
10
92
20
61.99999999999999
10
92
20
68.39999999999999
10
71
20
68.39999999999999
0
LINE
5
51
330
6
100
AcDbEntity
8
GEO-HATCH
100
AcDbLine
10
73
20
65.39999999999999
30
0
11
76
21
62.39999999999999
31
0
0
LINE
5
52
330
6
100
AcDbEntity
8
GEO-HATCH
100
AcDbLine
10
78
20
65.39999999999999
30
0
11
81
21
62.39999999999999
31
0
0
LINE
5
53
330
6
100
AcDbEntity
8
GEO-HATCH
100
AcDbLine
10
83
20
65.39999999999999
30
0
11
86
21
62.39999999999999
31
0
0
LINE
5
54
330
6
100
AcDbEntity
8
GEO-HATCH
100
AcDbLine
10
88
20
65.39999999999999
30
0
11
91
21
62.39999999999999
31
0
0
TEXT
5
55
330
6
100
AcDbEntity
8
ANNO
100
AcDbText
10
73
20
65.19999999999999
30
0
40
1.35
1
PALEOSOL
7
STANDARD
100
AcDbText
0
LWPOLYLINE
5
56
330
6
100
AcDbEntity
8
GEO-BOUNDARY
100
AcDbPolyline
90
4
70
1
38
0
10
71
20
29.999999999999993
10
92
20
29.999999999999993
10
92
20
61.99999999999999
10
71
20
61.99999999999999
0
LINE
5
57
330
6
100
AcDbEntity
8
GEO-HATCH
100
AcDbLine
10
73
20
58.99999999999999
30
0
11
76
21
55.99999999999999
31
0
0
LINE
5
58
330
6
100
AcDbEntity
8
GEO-HATCH
100
AcDbLine
10
73
20
53.99999999999999
30
0
11
76
21
50.99999999999999
31
0
0
LINE
5
59
330
6
100
AcDbEntity
8
GEO-HATCH
100
AcDbLine
10
73
20
48.99999999999999
30
0
11
76
21
45.99999999999999
31
0
0
LINE
5
5A
330
6
100
AcDbEntity
8
GEO-HATCH
100
AcDbLine
10
73
20
43.99999999999999
30
0
11
76
21
40.99999999999999
31
0
0
LINE
5
5B
330
6
100
AcDbEntity
8
GEO-HATCH
100
AcDbLine
10
73
20
38.99999999999999
30
0
11
76
21
35.99999999999999
31
0
0
LINE
5
5C
330
6
100
AcDbEntity
8
GEO-HATCH
100
AcDbLine
10
73
20
33.99999999999999
30
0
11
76
21
30.999999999999993
31
0
0
LINE
5
5D
330
6
100
AcDbEntity
8
GEO-HATCH
100
AcDbLine
10
78
20
58.99999999999999
30
0
11
81
21
55.99999999999999
31
0
0
LINE
5
5E
330
6
100
AcDbEntity
8
GEO-HATCH
100
AcDbLine
10
78
20
53.99999999999999
30
0
11
81
21
50.99999999999999
31
0
0
LINE
5
5F
330
6
100
AcDbEntity
8
GEO-HATCH
100
AcDbLine
10
78
20
48.99999999999999
30
0
11
81
21
45.99999999999999
31
0
0
LINE
5
60
330
6
100
AcDbEntity
8
GEO-HATCH
100
AcDbLine
10
78
20
43.99999999999999
30
0
11
81
21
40.99999999999999
31
0
0
LINE
5
61
330
6
100
AcDbEntity
8
GEO-HATCH
100
AcDbLine
10
78
20
38.99999999999999
30
0
11
81
21
35.99999999999999
31
0
0
LINE
5
62
330
6
100
AcDbEntity
8
GEO-HATCH
100
AcDbLine
10
78
20
33.99999999999999
30
0
11
81
21
30.999999999999993
31
0
0
LINE
5
63
330
6
100
AcDbEntity
8
GEO-HATCH
100
AcDbLine
10
83
20
58.99999999999999
30
0
11
86
21
55.99999999999999
31
0
0
LINE
5
64
330
6
100
AcDbEntity
8
GEO-HATCH
100
AcDbLine
10
83
20
53.99999999999999
30
0
11
86
21
50.99999999999999
31
0
0
LINE
5
65
330
6
100
AcDbEntity
8
GEO-HATCH
100
AcDbLine
10
83
20
48.99999999999999
30
0
11
86
21
45.99999999999999
31
0
0
LINE
5
66
330
6
100
AcDbEntity
8
GEO-HATCH
100
AcDbLine
10
83
20
43.99999999999999
30
0
11
86
21
40.99999999999999
31
0
0
LINE
5
67
330
6
100
AcDbEntity
8
GEO-HATCH
100
AcDbLine
10
83
20
38.99999999999999
30
0
11
86
21
35.99999999999999
31
0
0
LINE
5
68
330
6
100
AcDbEntity
8
GEO-HATCH
100
AcDbLine
10
83
20
33.99999999999999
30
0
11
86
21
30.999999999999993
31
0
0
LINE
5
69
330
6
100
AcDbEntity
8
GEO-HATCH
100
AcDbLine
10
88
20
58.99999999999999
30
0
11
91
21
55.99999999999999
31
0
0
LINE
5
6A
330
6
100
AcDbEntity
8
GEO-HATCH
100
AcDbLine
10
88
20
53.99999999999999
30
0
11
91
21
50.99999999999999
31
0
0
LINE
5
6B
330
6
100
AcDbEntity
8
GEO-HATCH
100
AcDbLine
10
88
20
48.99999999999999
30
0
11
91
21
45.99999999999999
31
0
0
LINE
5
6C
330
6
100
AcDbEntity
8
GEO-HATCH
100
AcDbLine
10
88
20
43.99999999999999
30
0
11
91
21
40.99999999999999
31
0
0
LINE
5
6D
330
6
100
AcDbEntity
8
GEO-HATCH
100
AcDbLine
10
88
20
38.99999999999999
30
0
11
91
21
35.99999999999999
31
0
0
LINE
5
6E
330
6
100
AcDbEntity
8
GEO-HATCH
100
AcDbLine
10
88
20
33.99999999999999
30
0
11
91
21
30.999999999999993
31
0
0
TEXT
5
6F
330
6
100
AcDbEntity
8
ANNO
100
AcDbText
10
73
20
45.99999999999999
30
0
40
1.35
1
SILTY CLAY
7
STANDARD
100
AcDbText
0
LINE
5
71
330
6
100
AcDbEntity
8
GEO-DEPTH
100
AcDbLine
10
25
20
126
30
0
11
96
21
126
31
0
0
TEXT
5
72
330
6
100
AcDbEntity
8
GEO-DEPTH
100
AcDbText
10
16
20
125.5
30
0
40
1.15
1
0
7
STANDARD
100
AcDbText
0
TEXT
5
74
330
6
100
AcDbEntity
8
GEO-ELEV
100
AcDbText
10
99
20
125.5
30
0
40
1.1
1
300.00
7
STANDARD
100
AcDbText
0
LINE
5
75
330
6
100
AcDbEntity
8
GEO-DEPTH
100
AcDbLine
10
25
20
116.4
30
0
11
96
21
116.4
31
0
0
TEXT
5
76
330
6
100
AcDbEntity
8
GEO-DEPTH
100
AcDbText
10
16
20
115.9
30
0
40
1.15
1
3
7
STANDARD
100
AcDbText
0
TEXT
5
77
330
6
100
AcDbEntity
8
GEO-ELEV
100
AcDbText
10
99
20
115.9
30
0
40
1.1
1
297.00
7
STANDARD
100
AcDbText
0
LINE
5
78
330
6
100
AcDbEntity
8
GEO-DEPTH
100
AcDbLine
10
25
20
106.8
30
0
11
96
21
106.8
31
0
0
TEXT
5
79
330
6
100
AcDbEntity
8
GEO-DEPTH
100
AcDbText
10
16
20
106.3
30
0
40
1.15
1
6
7
STANDARD
100
AcDbText
0
TEXT
5
7A
330
6
100
AcDbEntity
8
GEO-ELEV
100
AcDbText
10
99
20
106.3
30
0
40
1.1
1
294.00
7
STANDARD
100
AcDbText
0
LINE
5
7B
330
6
100
AcDbEntity
8
GEO-DEPTH
100
AcDbLine
10
25
20
97.2
30
0
11
96
21
97.2
31
0
0
TEXT
5
7C
330
6
100
AcDbEntity
8
GEO-DEPTH
100
AcDbText
10
16
20
96.7
30
0
40
1.15
1
9
7
STANDARD
100
AcDbText
0
TEXT
5
7D
330
6
100
AcDbEntity
8
GEO-ELEV
100
AcDbText
10
99
20
96.7
30
0
40
1.1
1
291.00
7
STANDARD
100
AcDbText
0
LINE
5
7E
330
6
100
AcDbEntity
8
GEO-DEPTH
100
AcDbLine
10
25
20
87.6
30
0
11
96
21
87.6
31
0
0
TEXT
5
7F
330
6
100
AcDbEntity
8
GEO-DEPTH
100
AcDbText
10
16
20
87.1
30
0
40
1.15
1
12
7
STANDARD
100
AcDbText
0
TEXT
5
80
330
6
100
AcDbEntity
8
GEO-ELEV
100
AcDbText
10
99
20
87.1
30
0
40
1.1
1
288.00
7
STANDARD
100
AcDbText
0
LINE
5
81
330
6
100
AcDbEntity
8
GEO-DEPTH
100
AcDbLine
10
25
20
78
30
0
11
96
21
78
31
0
0
TEXT
5
82
330
6
100
AcDbEntity
8
GEO-DEPTH
100
AcDbText
10
16
20
77.5
30
0
40
1.15
1
15
7
STANDARD
100
AcDbText
0
TEXT
5
83
330
6
100
AcDbEntity
8
GEO-ELEV
100
AcDbText
10
99
20
77.5
30
0
40
1.1
1
285.00
7
STANDARD
100
AcDbText
0
LINE
5
84
330
6
100
AcDbEntity
8
GEO-DEPTH
100
AcDbLine
10
25
20
68.4
30
0
11
96
21
68.4
31
0
0
TEXT
5
85
330
6
100
AcDbEntity
8
GEO-DEPTH
100
AcDbText
10
16
20
67.9
30
0
40
1.15
1
18
7
STANDARD
100
AcDbText
0
TEXT
5
86
330
6
100
AcDbEntity
8
GEO-ELEV
100
AcDbText
10
99
20
67.9
30
0
40
1.1
1
282.00
7
STANDARD
100
AcDbText
0
LINE
5
87
330
6
100
AcDbEntity
8
GEO-DEPTH
100
AcDbLine
10
25
20
58.8
30
0
11
96
21
58.8
31
0
0
TEXT
5
88
330
6
100
AcDbEntity
8
GEO-DEPTH
100
AcDbText
10
16
20
58.3
30
0
40
1.15
1
21
7
STANDARD
100
AcDbText
0
TEXT
5
89
330
6
100
AcDbEntity
8
GEO-ELEV
100
AcDbText
10
99
20
58.3
30
0
40
1.1
1
279.00
7
STANDARD
100
AcDbText
0
LINE
5
8A
330
6
100
AcDbEntity
8
GEO-DEPTH
100
AcDbLine
10
25
20
49.19999999999999
30
0
11
96
21
49.19999999999999
31
0
0
TEXT
5
8B
330
6
100
AcDbEntity
8
GEO-DEPTH
100
AcDbText
10
16
20
48.69999999999999
30
0
40
1.15
1
24
7
STANDARD
100
AcDbText
0
TEXT
5
8C
330
6
100
AcDbEntity
8
GEO-ELEV
100
AcDbText
10
99
20
48.69999999999999
30
0
40
1.1
1
276.00
7
STANDARD
100
AcDbText
0
LINE
5
8D
330
6
100
AcDbEntity
8
GEO-DEPTH
100
AcDbLine
10
25
20
39.599999999999994
30
0
11
96
21
39.599999999999994
31
0
0
TEXT
5
8E
330
6
100
AcDbEntity
8
GEO-DEPTH
100
AcDbText
10
16
20
39.099999999999994
30
0
40
1.15
1
27
7
STANDARD
100
AcDbText
0
TEXT
5
8F
330
6
100
AcDbEntity
8
GEO-ELEV
100
AcDbText
10
99
20
39.099999999999994
30
0
40
1.1
1
273.00
7
STANDARD
100
AcDbText
0
LINE
5
90
330
6
100
AcDbEntity
8
GEO-DEPTH
100
AcDbLine
10
25
20
30
30
0
11
96
21
30
31
0
0
TEXT
5
91
330
6
100
AcDbEntity
8
GEO-DEPTH
100
AcDbText
10
16
20
29.5
30
0
40
1.15
1
30
7
STANDARD
100
AcDbText
0
TEXT
5
92
330
6
100
AcDbEntity
8
GEO-ELEV
100
AcDbText
10
99
20
29.5
30
0
40
1.1
1
270.00
7
STANDARD
100
AcDbText
0
TEXT
5
93
330
6
100
AcDbEntity
8
TITLE
100
AcDbText
10
30
20
133
30
0
40
1.25
1
DEPTH m
7
STANDARD
100
AcDbText
0
TEXT
5
94
330
6
100
AcDbEntity
8
TITLE
100
AcDbText
10
44
20
133
30
0
40
1.25
1
ELEV. m
7
STANDARD
100
AcDbText
0
TEXT
5
95
330
6
100
AcDbEntity
8
TITLE
100
AcDbText
10
59
20
133
30
0
40
1.25
1
CODE
7
STANDARD
100
AcDbText
0
TEXT
5
96
330
6
100
AcDbEntity
8
TITLE
100
AcDbText
10
74
20
133
30
0
40
1.25
1
LITHOLOGY
7
STANDARD
100
AcDbText
0
TEXT
5
97
330
6
100
AcDbEntity
8
ANNO
100
AcDbText
10
30
20
121.67
30
0
40
1
1
1
7
STANDARD
100
AcDbText
0
TEXT
5
98
330
6
100
AcDbEntity
8
ANNO
100
AcDbText
10
30
20
118.34
30
0
40
1
1
2
7
STANDARD
100
AcDbText
0
TEXT
5
99
330
6
100
AcDbEntity
8
ANNO
100
AcDbText
10
30
20
115.01
30
0
40
1
1
3
7
STANDARD
100
AcDbText
0
TEXT
5
9A
330
6
100
AcDbEntity
8
ANNO
100
AcDbText
10
30
20
111.68
30
0
40
1
1
4
7
STANDARD
100
AcDbText
0
TEXT
5
9B
330
6
100
AcDbEntity
8
ANNO
100
AcDbText
10
30
20
108.35
30
0
40
1
1
5
7
STANDARD
100
AcDbText
0
TEXT
5
9C
330
6
100
AcDbEntity
8
ANNO
100
AcDbText
10
30
20
105.02
30
0
40
1
1
6
7
STANDARD
100
AcDbText
0
TEXT
5
9D
330
6
100
AcDbEntity
8
ANNO
100
AcDbText
10
30
20
101.69
30
0
40
1
1
7
7
STANDARD
100
AcDbText
0
TEXT
5
9E
330
6
100
AcDbEntity
8
ANNO
100
AcDbText
10
30
20
98.36
30
0
40
1
1
8
7
STANDARD
100
AcDbText
0
TEXT
5
9F
330
6
100
AcDbEntity
8
ANNO
100
AcDbText
10
30
20
95.03
30
0
40
1
1
9
7
STANDARD
100
AcDbText
0
LINE
5
A0
330
6
100
AcDbEntity
8
GEO-WATER
100
AcDbLine
10
71
20
33
30
0
11
92
21
33
31
0
0
TEXT
5
A1
330
6
100
AcDbEntity
8
GEO-WATER
100
AcDbText
10
94
20
33
30
0
40
1.2
1
GWL 18.40 m
7
STANDARD
100
AcDbText
0
LINE
5
A2
330
6
100
AcDbEntity
8
DIMS
100
AcDbLine
10
101
20
126
30
0
11
108.5
21
126
31
0
0
LINE
5
A3
330
6
100
AcDbEntity
8
DIMS
100
AcDbLine
10
101
20
30
30
0
11
108.5
21
30
31
0
0
LINE
5
A4
330
6
100
AcDbEntity
8
DIMS
100
AcDbLine
10
107
20
126
30
0
11
107
21
30
31
0
0
LINE
5
A5
330
6
100
AcDbEntity
8
DIMS
100
AcDbLine
10
107
20
126
30
0
11
105.92834641004201
21
124.31134414899597
31
0
0
LINE
5
A6
330
6
100
AcDbEntity
8
DIMS
100
AcDbLine
10
107
20
126
30
0
11
108.07165358995799
21
124.31134414899597
31
0
0
LINE
5
A7
330
6
100
AcDbEntity
8
DIMS
100
AcDbLine
10
107
20
30
30
0
11
108.07165358995799
21
31.68865585100403
31
0
0
LINE
5
A8
330
6
100
AcDbEntity
8
DIMS
100
AcDbLine
10
107
20
30
30
0
11
105.92834641004201
21
31.68865585100403
31
0
0
TEXT
5
A9
330
6
100
AcDbEntity
8
DIMS
100
AcDbText
10
108.1
20
73.45
30
0
40
1.5
1
30.00 m
7
STANDARD
50
90
100
AcDbText
0
TEXT
5
AA
330
6
100
AcDbEntity
8
TITLE
100
AcDbText
10
28
20
21
30
0
40
1.15
1
COLLAR 300.00 m  ·  DEPTH POSITIVE DOWNWARD  ·  SYNTHETIC SAMPLE
7
STANDARD
100
AcDbText
0
ENDSEC
0
SECTION
2
OBJECTS
0
DICTIONARY
5
B7
330
0
100
AcDbDictionary
281
1
3
ACAD_LAYOUT
350
B8
0
DICTIONARY
5
B8
330
B7
100
AcDbDictionary
280
1
281
1
3
Model
350
8
3
Layout1
350
9
0
LAYOUT
5
8
102
{ACAD_REACTORS
330
B8
102
}
330
B8
100
AcDbPlotSettings
100
AcDbLayout
1
Model
70
1
71
0
12
0
22
0
32
0
14
100000000000000000000
24
100000000000000000000
34
100000000000000000000
15
-100000000000000000000
25
-100000000000000000000
35
-100000000000000000000
13
0
23
0
33
0
16
1
26
0
36
0
17
0
27
1
37
0
330
6
0
LAYOUT
5
9
102
{ACAD_REACTORS
330
B8
102
}
330
B8
100
AcDbPlotSettings
100
AcDbLayout
1
Layout1
70
1
71
1
10
0
20
0
11
420
21
297
12
0
22
0
32
0
14
100000000000000000000
24
100000000000000000000
34
100000000000000000000
15
-100000000000000000000
25
-100000000000000000000
35
-100000000000000000000
13
0
23
0
33
0
16
1
26
0
36
0
17
0
27
1
37
0
330
7
0
ENDSEC
0
EOF
