0
SECTION
2
HEADER
9
$ACADVER
1
AC1032
9
$DWGCODEPAGE
3
UTF-8
9
$HANDSEED
5
6D
9
$LTSCALE
40
1
9
$PDMODE
70
0
9
$PDSIZE
40
0
9
$TEXTSTYLE
7
STANDARD
9
$INSUNITS
70
4
9
$MEASUREMENT
70
1
0
ENDSEC
0
SECTION
2
TABLES
0
TABLE
2
LTYPE
5
5F
330
0
100
AcDbSymbolTable
70
3
0
LTYPE
5
2
330
5F
100
AcDbSymbolTableRecord
100
AcDbLinetypeTableRecord
2
CONTINUOUS
70
0
3
Solid line
72
65
73
0
40
0
0
LTYPE
5
A
330
5F
100
AcDbSymbolTableRecord
100
AcDbLinetypeTableRecord
2
GEO_AC45DC1DCBD3F661_CONT
70
0
3

72
65
73
0
40
0
0
LTYPE
5
59
330
5F
100
AcDbSymbolTableRecord
100
AcDbLinetypeTableRecord
2
GEO_WATER_CONTINUOUS
70
0
3

72
65
73
0
40
0
0
ENDTAB
0
TABLE
2
STYLE
5
60
330
0
100
AcDbSymbolTable
70
1
0
STYLE
5
3
330
60
100
AcDbSymbolTableRecord
100
AcDbTextStyleTableRecord
2
STANDARD
70
0
40
0
41
1
50
0
71
0
42
2.5
3
sans-serif
4

0
ENDTAB
0
TABLE
2
DIMSTYLE
5
61
330
0
100
AcDbSymbolTable
70
1
100
AcDbDimStyleTable
0
DIMSTYLE
105
4
330
61
100
AcDbSymbolTableRecord
100
AcDbDimStyleTableRecord
2
STANDARD
70
0
40
1
41
2.5
42
0.625
43
3.75
44
1.25
140
2.5
141
2.5
147
0.625
0
ENDTAB
0
TABLE
2
UCS
5
62
330
0
100
AcDbSymbolTable
70
0
0
ENDTAB
0
TABLE
2
VIEW
5
63
330
0
100
AcDbSymbolTable
70
0
0
ENDTAB
0
TABLE
2
LAYER
5
64
330
0
100
AcDbSymbolTable
70
7
0
LAYER
5
5
330
64
100
AcDbSymbolTableRecord
100
AcDbLayerTableRecord
2
0
70
0
62
7
6
CONTINUOUS
290
1
370
-1
0
LAYER
5
B
330
64
100
AcDbSymbolTableRecord
100
AcDbLayerTableRecord
2
GEO_FRAME
70
0
62
7
6
GEO_AC45DC1DCBD3F661_CONT
290
1
370
35
0
LAYER
5
C
330
64
100
AcDbSymbolTableRecord
100
AcDbLayerTableRecord
2
GEO_BOUNDARY
70
0
62
7
6
GEO_AC45DC1DCBD3F661_CONT
290
1
370
35
0
LAYER
5
D
330
64
100
AcDbSymbolTableRecord
100
AcDbLayerTableRecord
2
GEO_HATCH
70
0
62
8
6
GEO_AC45DC1DCBD3F661_CONT
290
1
370
18
0
LAYER
5
E
330
64
100
AcDbSymbolTableRecord
100
AcDbLayerTableRecord
2
GEO_TEXT
70
0
62
7
6
GEO_AC45DC1DCBD3F661_CONT
290
1
370
18
0
LAYER
5
F
330
64
100
AcDbSymbolTableRecord
100
AcDbLayerTableRecord
2
GEO_GUIDE
70
0
62
9
6
GEO_AC45DC1DCBD3F661_CONT
290
1
370
9
0
LAYER
5
5A
330
64
100
AcDbSymbolTableRecord
100
AcDbLayerTableRecord
2
GEO_WATER
70
0
62
4
6
GEO_WATER_CONTINUOUS
290
1
370
-1
0
ENDTAB
0
TABLE
2
BLOCK_RECORD
5
65
330
0
100
AcDbSymbolTable
70
2
0
BLOCK_RECORD
5
6
330
65
100
AcDbSymbolTableRecord
100
AcDbBlockTableRecord
2
*MODEL_SPACE
70
0
280
1
281
0
340
8
0
BLOCK_RECORD
5
7
330
65
100
AcDbSymbolTableRecord
100
AcDbBlockTableRecord
2
*PAPER_SPACE
70
0
280
1
281
0
340
9
0
ENDTAB
0
ENDSEC
0
SECTION
2
BLOCKS
0
BLOCK
5
67
330
6
100
AcDbEntity
8
0
100
AcDbBlockBegin
2
*MODEL_SPACE
70
0
10
0
20
0
30
0
3
*MODEL_SPACE
1

0
ENDBLK
5
68
330
6
100
AcDbEntity
8
0
100
AcDbBlockEnd
0
BLOCK
5
69
330
7
100
AcDbEntity
8
0
100
AcDbBlockBegin
2
*PAPER_SPACE
70
0
10
0
20
0
30
0
3
*PAPER_SPACE
1

0
ENDBLK
5
6A
330
7
100
AcDbEntity
8
0
100
AcDbBlockEnd
0
ENDSEC
0
SECTION
2
ENTITIES
0
LWPOLYLINE
5
10
330
6
100
AcDbEntity
8
GEO_FRAME
100
AcDbPolyline
90
4
70
1
38
0
10
5
20
5
10
205
20
5
10
205
20
292
10
5
20
292
0
TEXT
5
11
330
6
100
AcDbEntity
8
GEO_TEXT
100
AcDbText
10
105
20
279
30
0
40
5
1
BOREHOLE LOG / SYNTHETIC, NOT MEASURED
7
STANDARD
72
1
11
105
21
279
31
0
100
AcDbText
0
TEXT
5
12
330
6
100
AcDbEntity
8
GEO_TEXT
100
AcDbText
10
17
20
261
30
0
40
3
1
HOLE ZK03   COLLAR 299.85 m   DEPTH 30.00 m
7
STANDARD
100
AcDbText
0
TEXT
5
13
330
6
100
AcDbEntity
8
GEO_TEXT
100
AcDbText
10
17
20
247
30
0
40
2.6
1
VERTICAL SCALE 1:200   DATUM: collar elevation
7
STANDARD
100
AcDbText
0
LWPOLYLINE
5
14
330
6
100
AcDbEntity
8
GEO_FRAME
100
AcDbPolyline
90
4
70
1
38
0
10
15
20
81
10
195
20
81
10
195
20
241
10
15
20
241
0
LINE
5
15
330
6
100
AcDbEntity
8
GEO_FRAME
100
AcDbLine
10
32
20
81
30
0
11
32
21
241
31
0
0
LINE
5
16
330
6
100
AcDbEntity
8
GEO_FRAME
100
AcDbLine
10
51
20
81
30
0
11
51
21
241
31
0
0
LINE
5
17
330
6
100
AcDbEntity
8
GEO_FRAME
100
AcDbLine
10
67
20
81
30
0
11
67
21
241
31
0
0
LINE
5
18
330
6
100
AcDbEntity
8
GEO_FRAME
100
AcDbLine
10
92
20
81
30
0
11
92
21
241
31
0
0
LINE
5
19
330
6
100
AcDbEntity
8
GEO_FRAME
100
AcDbLine
10
147
20
81
30
0
11
147
21
241
31
0
0
TEXT
5
1A
330
6
100
AcDbEntity
8
GEO_TEXT
100
AcDbText
10
17
20
235
30
0
40
2.3
1
DEPTH m
7
STANDARD
100
AcDbText
0
TEXT
5
1B
330
6
100
AcDbEntity
8
GEO_TEXT
100
AcDbText
10
34
20
235
30
0
40
2.3
1
ELEV. m
7
STANDARD
100
AcDbText
0
TEXT
5
1C
330
6
100
AcDbEntity
8
GEO_TEXT
100
AcDbText
10
53
20
235
30
0
40
2.3
1
CODE
7
STANDARD
100
AcDbText
0
TEXT
5
1D
330
6
100
AcDbEntity
8
GEO_TEXT
100
AcDbText
10
69
20
235
30
0
40
2.3
1
LITHOLOGY
7
STANDARD
100
AcDbText
0
TEXT
5
1E
330
6
100
AcDbEntity
8
GEO_TEXT
100
AcDbText
10
94
20
235
30
0
40
2.3
1
STRATUM
7
STANDARD
100
AcDbText
0
TEXT
5
1F
330
6
100
AcDbEntity
8
GEO_TEXT
100
AcDbText
10
149
20
235
30
0
40
2.3
1
DESCRIPTION
7
STANDARD
100
AcDbText
0
LINE
5
20
330
6
100
AcDbEntity
8
GEO_FRAME
100
AcDbLine
10
15
20
231
30
0
11
195
21
231
31
0
0
LINE
5
21
330
6
100
AcDbEntity
8
GEO_BOUNDARY
100
AcDbLine
10
15
20
226.5
30
0
11
195
21
226.5
31
0
0
HATCH
5
22
330
6
100
AcDbEntity
8
GEO_HATCH
100
AcDbHatch
10
0
20
0
30
0
2
GEO_TOPSOIL
70
0
71
0
91
1
92
3
72
0
73
1
93
4
10
67
20
226.5
10
92
20
226.5
10
92
20
231
10
67
20
231
97
0
75
0
76
1
52
0
41
1
77
0
78
2
53
0
43
0
44
0
45
0
46
4
79
4
49
0
49
-2
49
0
49
-7
53
90
43
1
44
0
45
7
46
0
79
2
49
1
49
-8
0
TEXT
5
23
330
6
100
AcDbEntity
8
GEO_TEXT
100
AcDbText
10
17
20
226.9
30
0
40
2.3
1
0.90
7
STANDARD
100
AcDbText
0
TEXT
5
24
330
6
100
AcDbEntity
8
GEO_TEXT
100
AcDbText
10
34
20
226.9
30
0
40
2.3
1
298.95
7
STANDARD
100
AcDbText
0
TEXT
5
25
330
6
100
AcDbEntity
8
GEO_TEXT
100
AcDbText
10
53
20
228.75
30
0
40
2.3
1
1
7
STANDARD
100
AcDbText
0
TEXT
5
26
330
6
100
AcDbEntity
8
GEO_TEXT
100
AcDbText
10
94
20
228.75
30
0
40
2.3
1
Topsoil
7
STANDARD
100
AcDbText
0
LINE
5
27
330
6
100
AcDbEntity
8
GEO_BOUNDARY
100
AcDbLine
10
15
20
209
30
0
11
195
21
209
31
0
0
HATCH
5
28
330
6
100
AcDbEntity
8
GEO_HATCH
100
AcDbHatch
10
0
20
0
30
0
2
GEO_COLLAPSIBLE_LOESS
70
0
71
0
91
1
92
3
72
0
73
1
93
4
10
67
20
209
10
92
20
209
10
92
20
226.5
10
67
20
226.5
97
0
75
0
76
1
52
0
41
1
77
0
78
2
53
90
43
0
44
0
45
3
46
0
79
2
49
2
49
-2
53
0
43
1.5
44
0
45
0
46
6
79
4
49
0
49
-3
49
0
49
-9
0
TEXT
5
29
330
6
100
AcDbEntity
8
GEO_TEXT
100
AcDbText
10
17
20
209.4
30
0
40
2.3
1
4.40
7
STANDARD
100
AcDbText
0
TEXT
5
2A
330
6
100
AcDbEntity
8
GEO_TEXT
100
AcDbText
10
34
20
209.4
30
0
40
2.3
1
295.45
7
STANDARD
100
AcDbText
0
TEXT
5
2B
330
6
100
AcDbEntity
8
GEO_TEXT
100
AcDbText
10
53
20
217.75
30
0
40
2.3
1
2
7
STANDARD
100
AcDbText
0
TEXT
5
2C
330
6
100
AcDbEntity
8
GEO_TEXT
100
AcDbText
10
94
20
217.75
30
0
40
2.3
1
Collapsible loess
7
STANDARD
100
AcDbText
0
LINE
5
2D
330
6
100
AcDbEntity
8
GEO_BOUNDARY
100
AcDbLine
10
15
20
173.5
30
0
11
195
21
173.5
31
0
0
HATCH
5
2E
330
6
100
AcDbEntity
8
GEO_HATCH
100
AcDbHatch
10
0
20
0
30
0
2
GEO_LOESS
70
0
71
0
91
1
92
3
72
0
73
1
93
4
10
67
20
173.5
10
92
20
173.5
10
92
20
209
10
67
20
209
97
0
75
0
76
1
52
0
41
1
77
0
78
2
53
90
43
0
44
0
45
3
46
0
79
2
49
1
49
-3
53
0
43
0
44
0
45
0
46
5
79
2
49
0
49
-5
0
TEXT
5
2F
330
6
100
AcDbEntity
8
GEO_TEXT
100
AcDbText
10
17
20
173.9
30
0
40
2.3
1
11.50
7
STANDARD
100
AcDbText
0
TEXT
5
30
330
6
100
AcDbEntity
8
GEO_TEXT
100
AcDbText
10
34
20
173.9
30
0
40
2.3
1
288.35
7
STANDARD
100
AcDbText
0
TEXT
5
31
330
6
100
AcDbEntity
8
GEO_TEXT
100
AcDbText
10
53
20
191.25
30
0
40
2.3
1
3
7
STANDARD
100
AcDbText
0
TEXT
5
32
330
6
100
AcDbEntity
8
GEO_TEXT
100
AcDbText
10
94
20
191.25
30
0
40
2.3
1
Loess
7
STANDARD
100
AcDbText
0
LINE
5
33
330
6
100
AcDbEntity
8
GEO_BOUNDARY
100
AcDbLine
10
15
20
157
30
0
11
195
21
157
31
0
0
HATCH
5
34
330
6
100
AcDbEntity
8
GEO_HATCH
100
AcDbHatch
10
0
20
0
30
0
2
GEO_PALEOSOL
70
0
71
0
91
1
92
3
72
0
73
1
93
4
10
67
20
157
10
92
20
157
10
92
20
173.5
10
67
20
173.5
97
0
75
0
76
1
52
0
41
1
77
0
78
1
53
0
43
0
44
0
45
0
46
3.5
79
4
49
4
49
-2
49
0
49
-2
0
TEXT
5
35
330
6
100
AcDbEntity
8
GEO_TEXT
100
AcDbText
10
17
20
157.4
30
0
40
2.3
1
14.80
7
STANDARD
100
AcDbText
0
TEXT
5
36
330
6
100
AcDbEntity
8
GEO_TEXT
100
AcDbText
10
34
20
157.4
30
0
40
2.3
1
285.05
7
STANDARD
100
AcDbText
0
TEXT
5
37
330
6
100
AcDbEntity
8
GEO_TEXT
100
AcDbText
10
53
20
165.25
30
0
40
2.3
1
4
7
STANDARD
100
AcDbText
0
TEXT
5
38
330
6
100
AcDbEntity
8
GEO_TEXT
100
AcDbText
10
94
20
165.25
30
0
40
2.3
1
Paleosol
7
STANDARD
100
AcDbText
0
LINE
5
39
330
6
100
AcDbEntity
8
GEO_BOUNDARY
100
AcDbLine
10
15
20
120
30
0
11
195
21
120
31
0
0
HATCH
5
3A
330
6
100
AcDbEntity
8
GEO_HATCH
100
AcDbHatch
10
0
20
0
30
0
2
GEO_LOESS_LIKE
70
0
71
0
91
1
92
3
72
0
73
1
93
4
10
67
20
120
10
92
20
120
10
92
20
157
10
67
20
157
97
0
75
0
76
1
52
0
41
1
77
0
78
2
53
90
43
0
44
0
45
4
46
0
79
2
49
1
49
-5
53
0
43
2
44
0
45
0
46
7
79
2
49
0
49
-7
0
TEXT
5
3B
330
6
100
AcDbEntity
8
GEO_TEXT
100
AcDbText
10
17
20
120.4
30
0
40
2.3
1
22.20
7
STANDARD
100
AcDbText
0
TEXT
5
3C
330
6
100
AcDbEntity
8
GEO_TEXT
100
AcDbText
10
34
20
120.4
30
0
40
2.3
1
277.65
7
STANDARD
100
AcDbText
0
TEXT
5
3D
330
6
100
AcDbEntity
8
GEO_TEXT
100
AcDbText
10
53
20
138.5
30
0
40
2.3
1
5
7
STANDARD
100
AcDbText
0
TEXT
5
3E
330
6
100
AcDbEntity
8
GEO_TEXT
100
AcDbText
10
94
20
138.5
30
0
40
2.3
1
Loess-like soil
7
STANDARD
100
AcDbText
0
LINE
5
3F
330
6
100
AcDbEntity
8
GEO_BOUNDARY
100
AcDbLine
10
15
20
81
30
0
11
195
21
81
31
0
0
HATCH
5
40
330
6
100
AcDbEntity
8
GEO_HATCH
100
AcDbHatch
10
0
20
0
30
0
2
GEO_SILTY_CLAY
70
0
71
0
91
1
92
3
72
0
73
1
93
4
10
67
20
81
10
92
20
81
10
92
20
120
10
67
20
120
97
0
75
0
76
1
52
0
41
1
77
0
78
2
53
0
43
0
44
0
45
0
46
3
79
2
49
2
49
-3
53
90
43
0
44
0
45
6
46
0
79
2
49
0
49
-6
0
TEXT
5
41
330
6
100
AcDbEntity
8
GEO_TEXT
100
AcDbText
10
17
20
81.4
30
0
40
2.3
1
30.00
7
STANDARD
100
AcDbText
0
TEXT
5
42
330
6
100
AcDbEntity
8
GEO_TEXT
100
AcDbText
10
34
20
81.4
30
0
40
2.3
1
269.85
7
STANDARD
100
AcDbText
0
TEXT
5
43
330
6
100
AcDbEntity
8
GEO_TEXT
100
AcDbText
10
53
20
100.5
30
0
40
2.3
1
6
7
STANDARD
100
AcDbText
0
TEXT
5
44
330
6
100
AcDbEntity
8
GEO_TEXT
100
AcDbText
10
94
20
100.5
30
0
40
2.3
1
Silty clay
7
STANDARD
100
AcDbText
0
TEXT
5
45
330
6
100
AcDbEntity
8
GEO_TEXT
100
AcDbText
10
15
20
54
30
0
40
2.8
1
LITHOLOGY LEGEND
7
STANDARD
100
AcDbText
0
LWPOLYLINE
5
46
330
6
100
AcDbEntity
8
GEO_FRAME
100
AcDbPolyline
90
4
70
1
38
0
10
15
20
42
10
23
20
42
10
23
20
48
10
15
20
48
0
HATCH
5
47
330
6
100
AcDbEntity
8
GEO_HATCH
100
AcDbHatch
10
0
20
0
30
0
2
GEO_TOPSOIL
70
0
71
0
91
1
92
3
72
0
73
1
93
4
10
15
20
42
10
23
20
42
10
23
20
48
10
15
20
48
97
0
75
0
76
1
52
0
41
1
77
0
78
2
53
0
43
0
44
0
45
0
46
4
79
4
49
0
49
-2
49
0
49
-7
53
90
43
1
44
0
45
7
46
0
79
2
49
1
49
-8
0
TEXT
5
48
330
6
100
AcDbEntity
8
GEO_TEXT
100
AcDbText
10
24
20
43.3
30
0
40
1.8
1
cultivated soil
7
STANDARD
100
AcDbText
0
LWPOLYLINE
5
49
330
6
100
AcDbEntity
8
GEO_FRAME
100
AcDbPolyline
90
4
70
1
38
0
10
60
20
42
10
68
20
42
10
68
20
48
10
60
20
48
0
HATCH
5
4A
330
6
100
AcDbEntity
8
GEO_HATCH
100
AcDbHatch
10
0
20
0
30
0
2
GEO_COLLAPSIBLE_LOESS
70
0
71
0
91
1
92
3
72
0
73
1
93
4
10
60
20
42
10
68
20
42
10
68
20
48
10
60
20
48
97
0
75
0
76
1
52
0
41
1
77
0
78
2
53
90
43
0
44
0
45
3
46
0
79
2
49
2
49
-2
53
0
43
1.5
44
0
45
0
46
6
79
4
49
0
49
-3
49
0
49
-9
0
TEXT
5
4B
330
6
100
AcDbEntity
8
GEO_TEXT
100
AcDbText
10
69
20
43.3
30
0
40
1.8
1
collapsible loess
7
STANDARD
100
AcDbText
0
LWPOLYLINE
5
4C
330
6
100
AcDbEntity
8
GEO_FRAME
100
AcDbPolyline
90
4
70
1
38
0
10
105
20
42
10
113
20
42
10
113
20
48
10
105
20
48
0
HATCH
5
4D
330
6
100
AcDbEntity
8
GEO_HATCH
100
AcDbHatch
10
0
20
0
30
0
2
GEO_LOESS
70
0
71
0
91
1
92
3
72
0
73
1
93
4
10
105
20
42
10
113
20
42
10
113
20
48
10
105
20
48
97
0
75
0
76
1
52
0
41
1
77
0
78
2
53
90
43
0
44
0
45
3
46
0
79
2
49
1
49
-3
53
0
43
0
44
0
45
0
46
5
79
2
49
0
49
-5
0
TEXT
5
4E
330
6
100
AcDbEntity
8
GEO_TEXT
100
AcDbText
10
114
20
43.3
30
0
40
1.8
1
loess
7
STANDARD
100
AcDbText
0
LWPOLYLINE
5
4F
330
6
100
AcDbEntity
8
GEO_FRAME
100
AcDbPolyline
90
4
70
1
38
0
10
150
20
42
10
158
20
42
10
158
20
48
10
150
20
48
0
HATCH
5
50
330
6
100
AcDbEntity
8
GEO_HATCH
100
AcDbHatch
10
0
20
0
30
0
2
GEO_PALEOSOL
70
0
71
0
91
1
92
3
72
0
73
1
93
4
10
150
20
42
10
158
20
42
10
158
20
48
10
150
20
48
97
0
75
0
76
1
52
0
41
1
77
0
78
1
53
0
43
0
44
0
45
0
46
3.5
79
4
49
4
49
-2
49
0
49
-2
0
TEXT
5
51
330
6
100
AcDbEntity
8
GEO_TEXT
100
AcDbText
10
159
20
43.3
30
0
40
1.8
1
paleosol
7
STANDARD
100
AcDbText
0
LWPOLYLINE
5
52
330
6
100
AcDbEntity
8
GEO_FRAME
100
AcDbPolyline
90
4
70
1
38
0
10
15
20
32
10
23
20
32
10
23
20
38
10
15
20
38
0
HATCH
5
53
330
6
100
AcDbEntity
8
GEO_HATCH
100
AcDbHatch
10
0
20
0
30
0
2
GEO_LOESS_LIKE
70
0
71
0
91
1
92
3
72
0
73
1
93
4
10
15
20
32
10
23
20
32
10
23
20
38
10
15
20
38
97
0
75
0
76
1
52
0
41
1
77
0
78
2
53
90
43
0
44
0
45
4
46
0
79
2
49
1
49
-5
53
0
43
2
44
0
45
0
46
7
79
2
49
0
49
-7
0
TEXT
5
54
330
6
100
AcDbEntity
8
GEO_TEXT
100
AcDbText
10
24
20
33.3
30
0
40
1.8
1
loess-like soil
7
STANDARD
100
AcDbText
0
LWPOLYLINE
5
55
330
6
100
AcDbEntity
8
GEO_FRAME
100
AcDbPolyline
90
4
70
1
38
0
10
60
20
32
10
68
20
32
10
68
20
38
10
60
20
38
0
HATCH
5
56
330
6
100
AcDbEntity
8
GEO_HATCH
100
AcDbHatch
10
0
20
0
30
0
2
GEO_SILTY_CLAY
70
0
71
0
91
1
92
3
72
0
73
1
93
4
10
60
20
32
10
68
20
32
10
68
20
38
10
60
20
38
97
0
75
0
76
1
52
0
41
1
77
0
78
2
53
0
43
0
44
0
45
0
46
3
79
2
49
2
49
-3
53
90
43
0
44
0
45
6
46
0
79
2
49
0
49
-6
0
TEXT
5
57
330
6
100
AcDbEntity
8
GEO_TEXT
100
AcDbText
10
69
20
33.3
30
0
40
1.8
1
silty clay
7
STANDARD
100
AcDbText
0
TEXT
5
58
330
6
100
AcDbEntity
8
GEO_TEXT
100
AcDbText
10
15
20
27
30
0
40
2.2
1
Depth positive downward; elevations from supplied collar. Verify against drilling log.
7
STANDARD
100
AcDbText
0
LINE
5
5B
330
6
100
AcDbEntity
8
GEO_WATER
100
AcDbLine
10
67
20
139
30
0
11
92
21
139
31
0
0
LINE
5
5C
330
6
100
AcDbEntity
8
GEO_WATER
100
AcDbLine
10
64
20
141
30
0
11
67
21
139
31
0
0
LINE
5
5D
330
6
100
AcDbEntity
8
GEO_WATER
100
AcDbLine
10
70
20
141
30
0
11
67
21
139
31
0
0
TEXT
5
5E
330
6
100
AcDbEntity
8
GEO_WATER
100
AcDbText
10
132
20
139
30
0
40
1.7
1
SWL 18.40 m / EL 281.45 m
100
AcDbText
0
ENDSEC
0
SECTION
2
OBJECTS
0
DICTIONARY
5
6B
330
0
100
AcDbDictionary
281
1
3
ACAD_LAYOUT
350
6C
0
DICTIONARY
5
6C
330
6B
100
AcDbDictionary
280
1
281
1
3
Model
350
8
3
Layout1
350
9
0
LAYOUT
5
8
102
{ACAD_REACTORS
330
6C
102
}
330
6C
100
AcDbPlotSettings
40
0
41
0
42
0
43
0
44
210
45
297
48
0
49
0
140
210
141
297
142
1
143
1
70
0
72
1
74
4
100
AcDbLayout
1
Model
70
1
71
0
12
0
22
0
32
0
14
100000000000000000000
24
100000000000000000000
34
100000000000000000000
15
-100000000000000000000
25
-100000000000000000000
35
-100000000000000000000
13
0
23
0
33
0
16
1
26
0
36
0
17
0
27
1
37
0
330
6
0
LAYOUT
5
9
102
{ACAD_REACTORS
330
6C
102
}
330
6C
100
AcDbPlotSettings
100
AcDbLayout
1
Layout1
70
1
71
1
10
0
20
0
11
420
21
297
12
0
22
0
32
0
14
100000000000000000000
24
100000000000000000000
34
100000000000000000000
15
-100000000000000000000
25
-100000000000000000000
35
-100000000000000000000
13
0
23
0
33
0
16
1
26
0
36
0
17
0
27
1
37
0
330
7
0
ENDSEC
0
EOF
