0
SECTION
2
HEADER
9
$ACADVER
1
AC1032
9
$DWGCODEPAGE
3
UTF-8
9
$HANDSEED
5
73
9
$LTSCALE
40
1
9
$PDMODE
70
0
9
$PDSIZE
40
0
9
$TEXTSTYLE
7
STANDARD
9
$INSUNITS
70
4
9
$MEASUREMENT
70
1
0
ENDSEC
0
SECTION
2
TABLES
0
TABLE
2
LTYPE
5
65
330
0
100
AcDbSymbolTable
70
2
0
LTYPE
5
2
330
65
100
AcDbSymbolTableRecord
100
AcDbLinetypeTableRecord
2
CONTINUOUS
70
0
3
Solid line
72
65
73
0
40
0
0
LTYPE
5
A
330
65
100
AcDbSymbolTableRecord
100
AcDbLinetypeTableRecord
2
KJD-CONTINUOUS
70
0
3

72
65
73
0
40
0
0
ENDTAB
0
TABLE
2
STYLE
5
66
330
0
100
AcDbSymbolTable
70
1
0
STYLE
5
3
330
66
100
AcDbSymbolTableRecord
100
AcDbTextStyleTableRecord
2
STANDARD
70
0
40
0
41
1
50
0
71
0
42
2.5
3
sans-serif
4

0
ENDTAB
0
TABLE
2
DIMSTYLE
5
67
330
0
100
AcDbSymbolTable
70
2
100
AcDbDimStyleTable
0
DIMSTYLE
105
4
330
67
100
AcDbSymbolTableRecord
100
AcDbDimStyleTableRecord
2
STANDARD
70
0
40
1
41
2.5
42
0.625
43
3.75
44
1.25
140
2.5
141
2.5
147
0.625
0
DIMSTYLE
105
12
330
67
100
AcDbSymbolTableRecord
100
AcDbDimStyleTableRecord
271
0
2
KJD-CURATED
70
0
40
1
41
2.2
42
0.6
43
3.75
44
1
140
2.6
141
2.5
147
0.625
0
ENDTAB
0
TABLE
2
UCS
5
68
330
0
100
AcDbSymbolTable
70
0
0
ENDTAB
0
TABLE
2
VIEW
5
69
330
0
100
AcDbSymbolTable
70
0
0
ENDTAB
0
TABLE
2
LAYER
5
6A
330
0
100
AcDbSymbolTable
70
8
0
LAYER
5
5
330
6A
100
AcDbSymbolTableRecord
100
AcDbLayerTableRecord
2
0
70
0
62
7
6
CONTINUOUS
290
1
370
-1
0
LAYER
5
B
330
6A
100
AcDbSymbolTableRecord
100
AcDbLayerTableRecord
2
KJD_FRAME
70
0
62
8
6
KJD-CONTINUOUS
290
1
370
-1
0
LAYER
5
C
330
6A
100
AcDbSymbolTableRecord
100
AcDbLayerTableRecord
2
KJD_OUTLINE
70
0
62
7
6
KJD-CONTINUOUS
290
1
370
-1
0
LAYER
5
D
330
6A
100
AcDbSymbolTableRecord
100
AcDbLayerTableRecord
2
KJD_DETAIL
70
0
62
8
6
KJD-CONTINUOUS
290
1
370
-1
0
LAYER
5
E
330
6A
100
AcDbSymbolTableRecord
100
AcDbLayerTableRecord
2
KJD_ACCENT
70
0
62
4
6
KJD-CONTINUOUS
290
1
370
-1
0
LAYER
5
F
330
6A
100
AcDbSymbolTableRecord
100
AcDbLayerTableRecord
2
KJD_PLANTING
70
0
62
3
6
KJD-CONTINUOUS
290
1
370
-1
0
LAYER
5
10
330
6A
100
AcDbSymbolTableRecord
100
AcDbLayerTableRecord
2
KJD_ANNOTATION
70
0
62
7
6
KJD-CONTINUOUS
290
1
370
-1
0
LAYER
5
11
330
6A
100
AcDbSymbolTableRecord
100
AcDbLayerTableRecord
2
KJD_HIGHLIGHT
70
0
62
2
6
KJD-CONTINUOUS
290
1
370
-1
0
ENDTAB
0
TABLE
2
BLOCK_RECORD
5
6B
330
0
100
AcDbSymbolTable
70
2
0
BLOCK_RECORD
5
6
330
6B
100
AcDbSymbolTableRecord
100
AcDbBlockTableRecord
2
*MODEL_SPACE
70
0
280
1
281
0
340
8
0
BLOCK_RECORD
5
7
330
6B
100
AcDbSymbolTableRecord
100
AcDbBlockTableRecord
2
*PAPER_SPACE
70
0
280
1
281
0
340
9
0
ENDTAB
0
ENDSEC
0
SECTION
2
BLOCKS
0
BLOCK
5
6D
330
6
100
AcDbEntity
8
0
100
AcDbBlockBegin
2
*MODEL_SPACE
70
0
10
0
20
0
30
0
3
*MODEL_SPACE
1

0
ENDBLK
5
6E
330
6
100
AcDbEntity
8
0
100
AcDbBlockEnd
0
BLOCK
5
6F
330
7
100
AcDbEntity
8
0
100
AcDbBlockBegin
2
*PAPER_SPACE
70
0
10
0
20
0
30
0
3
*PAPER_SPACE
1

0
ENDBLK
5
70
330
7
100
AcDbEntity
8
0
100
AcDbBlockEnd
0
ENDSEC
0
SECTION
2
ENTITIES
0
LWPOLYLINE
5
13
330
6
100
AcDbEntity
8
KJD_FRAME
100
AcDbPolyline
90
4
70
1
38
0
10
5
20
5
10
292
20
5
10
292
20
205
10
5
20
205
0
LWPOLYLINE
5
14
330
6
100
AcDbEntity
8
KJD_FRAME
100
AcDbPolyline
90
4
70
1
38
0
10
9
20
9
10
288
20
9
10
288
20
201
10
9
20
201
0
LINE
5
15
330
6
100
AcDbEntity
8
KJD_FRAME
100
AcDbLine
10
9
20
36
30
0
11
288
21
36
31
0
0
LINE
5
16
330
6
100
AcDbEntity
8
KJD_FRAME
100
AcDbLine
10
183
20
9
30
0
11
183
21
36
31
0
0
LINE
5
17
330
6
100
AcDbEntity
8
KJD_FRAME
100
AcDbLine
10
249
20
9
30
0
11
249
21
36
31
0
0
LINE
5
18
330
6
100
AcDbEntity
8
KJD_FRAME
100
AcDbLine
10
183
20
21
30
0
11
288
21
21
31
0
0
TEXT
5
19
330
6
100
AcDbEntity
8
KJD_ACCENT
100
AcDbText
10
15
20
24
30
0
40
3.1
1
KJDRAW / EDITABLE ENGINEERING EXAMPLES
100
AcDbText
0
TEXT
5
1A
330
6
100
AcDbEntity
8
KJD_ANNOTATION
100
AcDbText
10
15
20
14
30
0
40
5
1
COMPACT OFFICE FLOOR PLAN
100
AcDbText
0
TEXT
5
1B
330
6
100
AcDbEntity
8
KJD_DETAIL
100
AcDbText
10
187
20
26
30
0
40
2
1
DISCIPLINE
100
AcDbText
0
TEXT
5
1C
330
6
100
AcDbEntity
8
KJD_ANNOTATION
100
AcDbText
10
187
20
15
30
0
40
3.2
1
ARCHITECTURE
100
AcDbText
0
TEXT
5
1D
330
6
100
AcDbEntity
8
KJD_DETAIL
100
AcDbText
10
253
20
26
30
0
40
2
1
SHEET
100
AcDbText
0
TEXT
5
1E
330
6
100
AcDbEntity
8
KJD_ANNOTATION
100
AcDbText
10
253
20
15
30
0
40
3.2
1
01 / 01
100
AcDbText
0
TEXT
5
1F
330
6
100
AcDbEntity
8
KJD_DETAIL
100
AcDbText
10
187
20
12
30
0
40
1.9
1
CONCEPT EXAMPLE / EDITABLE GEOMETRY
100
AcDbText
0
TEXT
5
20
330
6
100
AcDbEntity
8
KJD_ACCENT
100
AcDbText
10
15
20
190
30
0
40
4
1
FLOOR PLAN / FOUR FUNCTIONAL ZONES
100
AcDbText
0
TEXT
5
21
330
6
100
AcDbEntity
8
KJD_DETAIL
100
AcDbText
10
15
20
183
30
0
40
2.6
1
CONCEPT PLAN / NTS / NOT FOR CONSTRUCTION
100
AcDbText
0
LINE
5
22
330
6
100
AcDbEntity
8
KJD_OUTLINE
100
AcDbLine
10
52
20
51
30
0
11
108
21
51
31
0
0
LINE
5
23
330
6
100
AcDbEntity
8
KJD_OUTLINE
100
AcDbLine
10
128
20
51
30
0
11
234
21
51
31
0
0
LINE
5
24
330
6
100
AcDbEntity
8
KJD_OUTLINE
100
AcDbLine
10
52
20
51
30
0
11
52
21
175
31
0
0
LINE
5
25
330
6
100
AcDbEntity
8
KJD_OUTLINE
100
AcDbLine
10
52
20
175
30
0
11
234
21
175
31
0
0
LINE
5
26
330
6
100
AcDbEntity
8
KJD_OUTLINE
100
AcDbLine
10
234
20
175
30
0
11
234
21
51
31
0
0
LINE
5
27
330
6
100
AcDbEntity
8
KJD_DETAIL
100
AcDbLine
10
55
20
54
30
0
11
108
21
54
31
0
0
LINE
5
28
330
6
100
AcDbEntity
8
KJD_DETAIL
100
AcDbLine
10
128
20
54
30
0
11
231
21
54
31
0
0
LINE
5
29
330
6
100
AcDbEntity
8
KJD_DETAIL
100
AcDbLine
10
55
20
54
30
0
11
55
21
172
31
0
0
LINE
5
2A
330
6
100
AcDbEntity
8
KJD_DETAIL
100
AcDbLine
10
55
20
172
30
0
11
231
21
172
31
0
0
LINE
5
2B
330
6
100
AcDbEntity
8
KJD_DETAIL
100
AcDbLine
10
231
20
172
30
0
11
231
21
54
31
0
0
LINE
5
2C
330
6
100
AcDbEntity
8
KJD_ACCENT
100
AcDbLine
10
75
20
172
30
0
11
111
21
172
31
0
0
LINE
5
2D
330
6
100
AcDbEntity
8
KJD_ACCENT
100
AcDbLine
10
75
20
175
30
0
11
111
21
175
31
0
0
LINE
5
2E
330
6
100
AcDbEntity
8
KJD_ACCENT
100
AcDbLine
10
93
20
172
30
0
11
93
21
175
31
0
0
LINE
5
2F
330
6
100
AcDbEntity
8
KJD_ACCENT
100
AcDbLine
10
163
20
172
30
0
11
211
21
172
31
0
0
LINE
5
30
330
6
100
AcDbEntity
8
KJD_ACCENT
100
AcDbLine
10
163
20
175
30
0
11
211
21
175
31
0
0
LINE
5
31
330
6
100
AcDbEntity
8
KJD_ACCENT
100
AcDbLine
10
187
20
172
30
0
11
187
21
175
31
0
0
LINE
5
32
330
6
100
AcDbEntity
8
KJD_OUTLINE
100
AcDbLine
10
55
20
116
30
0
11
129
21
116
31
0
0
LINE
5
33
330
6
100
AcDbEntity
8
KJD_OUTLINE
100
AcDbLine
10
145
20
116
30
0
11
184
21
116
31
0
0
LINE
5
34
330
6
100
AcDbEntity
8
KJD_OUTLINE
100
AcDbLine
10
200
20
116
30
0
11
231
21
116
31
0
0
LINE
5
35
330
6
100
AcDbEntity
8
KJD_DETAIL
100
AcDbLine
10
55
20
119
30
0
11
129
21
119
31
0
0
LINE
5
36
330
6
100
AcDbEntity
8
KJD_DETAIL
100
AcDbLine
10
145
20
119
30
0
11
184
21
119
31
0
0
LINE
5
37
330
6
100
AcDbEntity
8
KJD_DETAIL
100
AcDbLine
10
200
20
119
30
0
11
231
21
119
31
0
0
LINE
5
38
330
6
100
AcDbEntity
8
KJD_OUTLINE
100
AcDbLine
10
139
20
54
30
0
11
139
21
99
31
0
0
LINE
5
39
330
6
100
AcDbEntity
8
KJD_OUTLINE
100
AcDbLine
10
139
20
116
30
0
11
139
21
172
31
0
0
LINE
5
3A
330
6
100
AcDbEntity
8
KJD_DETAIL
100
AcDbLine
10
142
20
54
30
0
11
142
21
99
31
0
0
LINE
5
3B
330
6
100
AcDbEntity
8
KJD_DETAIL
100
AcDbLine
10
142
20
116
30
0
11
142
21
172
31
0
0
LINE
5
3C
330
6
100
AcDbEntity
8
KJD_OUTLINE
100
AcDbLine
10
99
20
54
30
0
11
99
21
116
31
0
0
LINE
5
3D
330
6
100
AcDbEntity
8
KJD_DETAIL
100
AcDbLine
10
102
20
54
30
0
11
102
21
116
31
0
0
LINE
5
3E
330
6
100
AcDbEntity
8
KJD_ACCENT
100
AcDbLine
10
108
20
54
30
0
11
108
21
74
31
0
0
ARC
5
3F
330
6
100
AcDbEntity
8
KJD_DETAIL
100
AcDbCircle
10
108
20
54
30
0
40
20
100
AcDbArc
50
0
51
90
210
0
220
0
230
1
0
LINE
5
40
330
6
100
AcDbEntity
8
KJD_ACCENT
100
AcDbLine
10
184
20
116
30
0
11
184
21
100
31
0
0
ARC
5
41
330
6
100
AcDbEntity
8
KJD_DETAIL
100
AcDbCircle
10
184
20
116
30
0
40
16
100
AcDbArc
50
270
51
360
210
0
220
0
230
1
0
LINE
5
42
330
6
100
AcDbEntity
8
KJD_ACCENT
100
AcDbLine
10
129
20
116
30
0
11
129
21
100
31
0
0
ARC
5
43
330
6
100
AcDbEntity
8
KJD_DETAIL
100
AcDbCircle
10
129
20
116
30
0
40
16
100
AcDbArc
50
270
51
360
210
0
220
0
230
1
0
LINE
5
44
330
6
100
AcDbEntity
8
KJD_ACCENT
100
AcDbLine
10
139
20
99
30
0
11
122
21
99
31
0
0
ARC
5
45
330
6
100
AcDbEntity
8
KJD_DETAIL
100
AcDbCircle
10
139
20
99
30
0
40
17
100
AcDbArc
50
180
51
270
210
0
220
0
230
1
0
LINE
5
46
330
6
100
AcDbEntity
8
KJD_ACCENT
100
AcDbLine
10
99
20
76
30
0
11
84
21
76
31
0
0
ARC
5
47
330
6
100
AcDbEntity
8
KJD_DETAIL
100
AcDbCircle
10
99
20
76
30
0
40
15
100
AcDbArc
50
180
51
270
210
0
220
0
230
1
0
LWPOLYLINE
5
48
330
6
100
AcDbEntity
8
KJD_ACCENT
100
AcDbPolyline
90
4
70
1
38
0
10
72
20
137
10
119
20
137
10
119
20
153
10
72
20
153
0
CIRCLE
5
49
330
6
100
AcDbEntity
8
KJD_DETAIL
100
AcDbCircle
10
79
20
132
30
0
40
3
210
0
220
0
230
1
0
CIRCLE
5
4A
330
6
100
AcDbEntity
8
KJD_DETAIL
100
AcDbCircle
10
79
20
158
30
0
40
3
210
0
220
0
230
1
0
CIRCLE
5
4B
330
6
100
AcDbEntity
8
KJD_DETAIL
100
AcDbCircle
10
94
20
132
30
0
40
3
210
0
220
0
230
1
0
CIRCLE
5
4C
330
6
100
AcDbEntity
8
KJD_DETAIL
100
AcDbCircle
10
94
20
158
30
0
40
3
210
0
220
0
230
1
0
CIRCLE
5
4D
330
6
100
AcDbEntity
8
KJD_DETAIL
100
AcDbCircle
10
109
20
132
30
0
40
3
210
0
220
0
230
1
0
CIRCLE
5
4E
330
6
100
AcDbEntity
8
KJD_DETAIL
100
AcDbCircle
10
109
20
158
30
0
40
3
210
0
220
0
230
1
0
LINE
5
4F
330
6
100
AcDbEntity
8
KJD_HIGHLIGHT
100
AcDbLine
10
58
20
155
30
0
11
58
21
169
31
0
0
TEXT
5
50
330
6
100
AcDbEntity
8
KJD_ANNOTATION
100
AcDbText
10
69
20
164
30
0
40
2.4
1
01  MEETING
100
AcDbText
0
LWPOLYLINE
5
51
330
6
100
AcDbEntity
8
KJD_ACCENT
100
AcDbPolyline
90
4
70
1
38
0
10
157
20
139
10
182
20
139
10
182
20
149
10
157
20
149
0
LWPOLYLINE
5
52
330
6
100
AcDbEntity
8
KJD_DETAIL
100
AcDbPolyline
90
4
70
1
38
0
10
165
20
144
10
174
20
144
10
174
20
148
10
165
20
148
0
CIRCLE
5
53
330
6
100
AcDbEntity
8
KJD_DETAIL
100
AcDbCircle
10
169.5
20
134
30
0
40
3
210
0
220
0
230
1
0
LWPOLYLINE
5
54
330
6
100
AcDbEntity
8
KJD_ACCENT
100
AcDbPolyline
90
4
70
1
38
0
10
194
20
139
10
219
20
139
10
219
20
149
10
194
20
149
0
LWPOLYLINE
5
55
330
6
100
AcDbEntity
8
KJD_DETAIL
100
AcDbPolyline
90
4
70
1
38
0
10
202
20
144
10
211
20
144
10
211
20
148
10
202
20
148
0
CIRCLE
5
56
330
6
100
AcDbEntity
8
KJD_DETAIL
100
AcDbCircle
10
206.5
20
134
30
0
40
3
210
0
220
0
230
1
0
LWPOLYLINE
5
57
330
6
100
AcDbEntity
8
KJD_ACCENT
100
AcDbPolyline
90
4
70
1
38
0
10
157
20
81
10
182
20
81
10
182
20
91
10
157
20
91
0
LWPOLYLINE
5
58
330
6
100
AcDbEntity
8
KJD_DETAIL
100
AcDbPolyline
90
4
70
1
38
0
10
165
20
86
10
174
20
86
10
174
20
90
10
165
20
90
0
CIRCLE
5
59
330
6
100
AcDbEntity
8
KJD_DETAIL
100
AcDbCircle
10
169.5
20
76
30
0
40
3
210
0
220
0
230
1
0
LWPOLYLINE
5
5A
330
6
100
AcDbEntity
8
KJD_ACCENT
100
AcDbPolyline
90
4
70
1
38
0
10
194
20
81
10
219
20
81
10
219
20
91
10
194
20
91
0
LWPOLYLINE
5
5B
330
6
100
AcDbEntity
8
KJD_DETAIL
100
AcDbPolyline
90
4
70
1
38
0
10
202
20
86
10
211
20
86
10
211
20
90
10
202
20
90
0
CIRCLE
5
5C
330
6
100
AcDbEntity
8
KJD_DETAIL
100
AcDbCircle
10
206.5
20
76
30
0
40
3
210
0
220
0
230
1
0
TEXT
5
5D
330
6
100
AcDbEntity
8
KJD_ANNOTATION
100
AcDbText
10
157
20
162
30
0
40
2.4
1
02  OPEN WORKSPACE
100
AcDbText
0
LWPOLYLINE
5
5E
330
6
100
AcDbEntity
8
KJD_ACCENT
100
AcDbPolyline
90
4
70
1
38
0
10
61
20
59
10
92
20
59
10
92
20
67
10
61
20
67
0
LWPOLYLINE
5
5F
330
6
100
AcDbEntity
8
KJD_DETAIL
100
AcDbPolyline
90
4
70
1
38
0
10
61
20
82
10
92
20
82
10
92
20
87
10
61
20
87
0
CIRCLE
5
60
330
6
100
AcDbEntity
8
KJD_DETAIL
100
AcDbCircle
10
82
20
63
30
0
40
2.8
210
0
220
0
230
1
0
LWPOLYLINE
5
61
330
6
100
AcDbEntity
8
KJD_ACCENT
100
AcDbPolyline
90
4
70
1
38
0
10
112
20
84
10
132
20
84
10
132
20
94
10
112
20
94
0
TEXT
5
62
330
6
100
AcDbEntity
8
KJD_ANNOTATION
100
AcDbText
10
60
20
101
30
0
40
2.4
1
03  PANTRY
100
AcDbText
0
TEXT
5
63
330
6
100
AcDbEntity
8
KJD_ANNOTATION
100
AcDbText
10
108
20
101
30
0
40
2.4
1
04  ENTRY
100
AcDbText
0
TEXT
5
64
330
6
100
AcDbEntity
8
KJD_DETAIL
100
AcDbText
10
15
20
48
30
0
40
2.2
1
Furniture and partitions are editable CAD objects.
100
AcDbText
0
ENDSEC
0
SECTION
2
OBJECTS
0
DICTIONARY
5
71
330
0
100
AcDbDictionary
281
1
3
ACAD_LAYOUT
350
72
0
DICTIONARY
5
72
330
71
100
AcDbDictionary
280
1
281
1
3
Model
350
8
3
Layout1
350
9
0
LAYOUT
5
8
102
{ACAD_REACTORS
330
72
102
}
330
72
100
AcDbPlotSettings
44
297
45
210
48
0
49
0
140
297
141
210
142
1
143
1
70
0
72
1
74
4
100
AcDbLayout
1
Model
70
1
71
0
12
0
22
0
32
0
14
100000000000000000000
24
100000000000000000000
34
100000000000000000000
15
-100000000000000000000
25
-100000000000000000000
35
-100000000000000000000
13
0
23
0
33
0
16
1
26
0
36
0
17
0
27
1
37
0
330
6
0
LAYOUT
5
9
102
{ACAD_REACTORS
330
72
102
}
330
72
100
AcDbPlotSettings
100
AcDbLayout
1
Layout1
70
1
71
1
10
0
20
0
11
420
21
297
12
0
22
0
32
0
14
100000000000000000000
24
100000000000000000000
34
100000000000000000000
15
-100000000000000000000
25
-100000000000000000000
35
-100000000000000000000
13
0
23
0
33
0
16
1
26
0
36
0
17
0
27
1
37
0
330
7
0
ENDSEC
0
EOF
