0
SECTION
2
HEADER
9
$ACADVER
1
AC1032
9
$DWGCODEPAGE
3
UTF-8
9
$HANDSEED
5
6D
9
$LTSCALE
40
1
9
$PDMODE
70
0
9
$PDSIZE
40
0
9
$TEXTSTYLE
7
STANDARD
9
$INSUNITS
70
4
9
$MEASUREMENT
70
1
0
ENDSEC
0
SECTION
2
TABLES
0
TABLE
2
LTYPE
5
5F
330
0
100
AcDbSymbolTable
70
2
0
LTYPE
5
2
330
5F
100
AcDbSymbolTableRecord
100
AcDbLinetypeTableRecord
2
CONTINUOUS
70
0
3
Solid line
72
65
73
0
40
0
0
LTYPE
5
A
330
5F
100
AcDbSymbolTableRecord
100
AcDbLinetypeTableRecord
2
KJD-CONTINUOUS
70
0
3

72
65
73
0
40
0
0
ENDTAB
0
TABLE
2
STYLE
5
60
330
0
100
AcDbSymbolTable
70
1
0
STYLE
5
3
330
60
100
AcDbSymbolTableRecord
100
AcDbTextStyleTableRecord
2
STANDARD
70
0
40
0
41
1
50
0
71
0
42
2.5
3
sans-serif
4

0
ENDTAB
0
TABLE
2
DIMSTYLE
5
61
330
0
100
AcDbSymbolTable
70
2
100
AcDbDimStyleTable
0
DIMSTYLE
105
4
330
61
100
AcDbSymbolTableRecord
100
AcDbDimStyleTableRecord
2
STANDARD
70
0
40
1
41
2.5
42
0.625
43
3.75
44
1.25
140
2.5
141
2.5
147
0.625
0
DIMSTYLE
105
12
330
61
100
AcDbSymbolTableRecord
100
AcDbDimStyleTableRecord
271
0
2
KJD-CURATED
70
0
40
1
41
2.2
42
0.6
43
3.75
44
1
140
2.6
141
2.5
147
0.625
0
ENDTAB
0
TABLE
2
UCS
5
62
330
0
100
AcDbSymbolTable
70
0
0
ENDTAB
0
TABLE
2
VIEW
5
63
330
0
100
AcDbSymbolTable
70
0
0
ENDTAB
0
TABLE
2
LAYER
5
64
330
0
100
AcDbSymbolTable
70
8
0
LAYER
5
5
330
64
100
AcDbSymbolTableRecord
100
AcDbLayerTableRecord
2
0
70
0
62
7
6
CONTINUOUS
290
1
370
-1
0
LAYER
5
B
330
64
100
AcDbSymbolTableRecord
100
AcDbLayerTableRecord
2
KJD_FRAME
70
0
62
8
6
KJD-CONTINUOUS
290
1
370
-1
0
LAYER
5
C
330
64
100
AcDbSymbolTableRecord
100
AcDbLayerTableRecord
2
KJD_OUTLINE
70
0
62
7
6
KJD-CONTINUOUS
290
1
370
-1
0
LAYER
5
D
330
64
100
AcDbSymbolTableRecord
100
AcDbLayerTableRecord
2
KJD_DETAIL
70
0
62
8
6
KJD-CONTINUOUS
290
1
370
-1
0
LAYER
5
E
330
64
100
AcDbSymbolTableRecord
100
AcDbLayerTableRecord
2
KJD_ACCENT
70
0
62
4
6
KJD-CONTINUOUS
290
1
370
-1
0
LAYER
5
F
330
64
100
AcDbSymbolTableRecord
100
AcDbLayerTableRecord
2
KJD_PLANTING
70
0
62
3
6
KJD-CONTINUOUS
290
1
370
-1
0
LAYER
5
10
330
64
100
AcDbSymbolTableRecord
100
AcDbLayerTableRecord
2
KJD_ANNOTATION
70
0
62
7
6
KJD-CONTINUOUS
290
1
370
-1
0
LAYER
5
11
330
64
100
AcDbSymbolTableRecord
100
AcDbLayerTableRecord
2
KJD_HIGHLIGHT
70
0
62
2
6
KJD-CONTINUOUS
290
1
370
-1
0
ENDTAB
0
TABLE
2
BLOCK_RECORD
5
65
330
0
100
AcDbSymbolTable
70
2
0
BLOCK_RECORD
5
6
330
65
100
AcDbSymbolTableRecord
100
AcDbBlockTableRecord
2
*MODEL_SPACE
70
0
280
1
281
0
340
8
0
BLOCK_RECORD
5
7
330
65
100
AcDbSymbolTableRecord
100
AcDbBlockTableRecord
2
*PAPER_SPACE
70
0
280
1
281
0
340
9
0
ENDTAB
0
ENDSEC
0
SECTION
2
BLOCKS
0
BLOCK
5
67
330
6
100
AcDbEntity
8
0
100
AcDbBlockBegin
2
*MODEL_SPACE
70
0
10
0
20
0
30
0
3
*MODEL_SPACE
1

0
ENDBLK
5
68
330
6
100
AcDbEntity
8
0
100
AcDbBlockEnd
0
BLOCK
5
69
330
7
100
AcDbEntity
8
0
100
AcDbBlockBegin
2
*PAPER_SPACE
70
0
10
0
20
0
30
0
3
*PAPER_SPACE
1

0
ENDBLK
5
6A
330
7
100
AcDbEntity
8
0
100
AcDbBlockEnd
0
ENDSEC
0
SECTION
2
ENTITIES
0
LWPOLYLINE
5
13
330
6
100
AcDbEntity
8
KJD_FRAME
100
AcDbPolyline
90
4
70
1
38
0
10
5
20
5
10
292
20
5
10
292
20
205
10
5
20
205
0
LWPOLYLINE
5
14
330
6
100
AcDbEntity
8
KJD_FRAME
100
AcDbPolyline
90
4
70
1
38
0
10
9
20
9
10
288
20
9
10
288
20
201
10
9
20
201
0
LINE
5
15
330
6
100
AcDbEntity
8
KJD_FRAME
100
AcDbLine
10
9
20
36
30
0
11
288
21
36
31
0
0
LINE
5
16
330
6
100
AcDbEntity
8
KJD_FRAME
100
AcDbLine
10
183
20
9
30
0
11
183
21
36
31
0
0
LINE
5
17
330
6
100
AcDbEntity
8
KJD_FRAME
100
AcDbLine
10
249
20
9
30
0
11
249
21
36
31
0
0
LINE
5
18
330
6
100
AcDbEntity
8
KJD_FRAME
100
AcDbLine
10
183
20
21
30
0
11
288
21
21
31
0
0
TEXT
5
19
330
6
100
AcDbEntity
8
KJD_ACCENT
100
AcDbText
10
15
20
24
30
0
40
3.1
1
KJDRAW / EDITABLE ENGINEERING EXAMPLES
100
AcDbText
0
TEXT
5
1A
330
6
100
AcDbEntity
8
KJD_ANNOTATION
100
AcDbText
10
15
20
14
30
0
40
5
1
COURTYARD CIRCULATION PLAN
100
AcDbText
0
TEXT
5
1B
330
6
100
AcDbEntity
8
KJD_DETAIL
100
AcDbText
10
187
20
26
30
0
40
2
1
DISCIPLINE
100
AcDbText
0
TEXT
5
1C
330
6
100
AcDbEntity
8
KJD_ANNOTATION
100
AcDbText
10
187
20
15
30
0
40
3.2
1
SITE
100
AcDbText
0
TEXT
5
1D
330
6
100
AcDbEntity
8
KJD_DETAIL
100
AcDbText
10
253
20
26
30
0
40
2
1
SHEET
100
AcDbText
0
TEXT
5
1E
330
6
100
AcDbEntity
8
KJD_ANNOTATION
100
AcDbText
10
253
20
15
30
0
40
3.2
1
01 / 01
100
AcDbText
0
TEXT
5
1F
330
6
100
AcDbEntity
8
KJD_DETAIL
100
AcDbText
10
187
20
12
30
0
40
1.9
1
CONCEPT EXAMPLE / EDITABLE GEOMETRY
100
AcDbText
0
TEXT
5
20
330
6
100
AcDbEntity
8
KJD_ACCENT
100
AcDbText
10
15
20
190
30
0
40
4
1
SITE DIAGRAM / WALKWAY + LANDSCAPE
100
AcDbText
0
TEXT
5
21
330
6
100
AcDbEntity
8
KJD_DETAIL
100
AcDbText
10
15
20
183
30
0
40
2.2
1
CONCEPT SITE PLAN / NTS / NOT FOR CONSTRUCTION
100
AcDbText
0
LWPOLYLINE
5
22
330
6
100
AcDbEntity
8
KJD_DETAIL
100
AcDbPolyline
90
4
70
1
38
0
10
28
20
47
10
267
20
47
10
267
20
180
10
28
20
180
0
LINE
5
23
330
6
100
AcDbEntity
8
KJD_DETAIL
100
AcDbLine
10
28
20
165
30
0
11
267
21
165
31
0
0
TEXT
5
24
330
6
100
AcDbEntity
8
KJD_DETAIL
100
AcDbText
10
33
20
169
30
0
40
2.1
1
NORTH PROPERTY EDGE
100
AcDbText
0
LWPOLYLINE
5
25
330
6
100
AcDbEntity
8
KJD_OUTLINE
100
AcDbPolyline
90
4
70
1
38
0
10
44
20
103
10
96
20
103
10
96
20
151
10
44
20
151
0
LWPOLYLINE
5
26
330
6
100
AcDbEntity
8
KJD_DETAIL
100
AcDbPolyline
90
4
70
1
38
0
10
48
20
107
10
92
20
107
10
92
20
147
10
48
20
147
0
LINE
5
27
330
6
100
AcDbEntity
8
KJD_ACCENT
100
AcDbLine
10
60
20
103
30
0
11
76
21
103
31
0
0
TEXT
5
28
330
6
100
AcDbEntity
8
KJD_ANNOTATION
100
AcDbText
10
55
20
126
30
0
40
3.2
1
BUILDING
100
AcDbText
0
LWPOLYLINE
5
29
330
6
100
AcDbEntity
8
KJD_ACCENT
100
AcDbPolyline
90
4
70
1
38
0
10
54
20
88
10
88
20
88
10
88
20
103
10
54
20
103
0
LWPOLYLINE
5
2A
330
6
100
AcDbEntity
8
KJD_ACCENT
100
AcDbPolyline
90
8
70
0
38
0
10
70
20
88
10
89
20
83
10
121
20
84
10
145
20
105
10
170
20
105
10
196
20
78
10
225
20
78
10
245
20
91
0
LWPOLYLINE
5
2B
330
6
100
AcDbEntity
8
KJD_ACCENT
100
AcDbPolyline
90
8
70
0
38
0
10
70
20
81
10
89
20
76
10
121
20
77
10
145
20
98
10
170
20
98
10
196
20
71
10
225
20
71
10
245
20
84
0
HATCH
5
2C
330
6
100
AcDbEntity
8
KJD_DETAIL
100
AcDbHatch
10
0
20
0
30
0
2
ANSI31
70
0
71
0
91
1
92
3
72
0
73
1
93
16
10
70
20
88
10
89
20
83
10
121
20
84
10
145
20
105
10
170
20
105
10
196
20
78
10
225
20
78
10
245
20
91
10
245
20
84
10
225
20
71
10
196
20
71
10
170
20
98
10
145
20
98
10
121
20
77
10
89
20
76
10
70
20
81
97
0
75
0
76
1
52
0
41
4.5
77
0
78
1
53
45
43
0
44
0
45
-10.102788136202795
46
10.102788136202797
79
0
0
LINE
5
2D
330
6
100
AcDbEntity
8
KJD_ACCENT
100
AcDbLine
10
145
20
105
30
0
11
145
21
134
31
0
0
LINE
5
2E
330
6
100
AcDbEntity
8
KJD_ACCENT
100
AcDbLine
10
152
20
105
30
0
11
152
21
134
31
0
0
LWPOLYLINE
5
2F
330
6
100
AcDbEntity
8
KJD_ACCENT
100
AcDbPolyline
90
4
70
1
38
0
10
137
20
134
10
160
20
134
10
160
20
151
10
137
20
151
0
TEXT
5
30
330
6
100
AcDbEntity
8
KJD_ANNOTATION
100
AcDbText
10
140
20
141
30
0
40
2.5
1
PLAZA
100
AcDbText
0
LWPOLYLINE
5
31
330
6
100
AcDbEntity
8
KJD_PLANTING
100
AcDbPolyline
90
4
70
1
38
0
10
105
20
125
10
130
20
124
10
128
20
151
10
110
20
155
0
HATCH
5
32
330
6
100
AcDbEntity
8
KJD_PLANTING
100
AcDbHatch
10
0
20
0
30
0
2
ANSI31
70
0
71
0
91
1
92
3
72
0
73
1
93
4
10
105
20
125
10
130
20
124
10
128
20
151
10
110
20
155
97
0
75
0
76
1
52
0
41
3.4
77
0
78
1
53
45
43
0
44
0
45
-7.633217702908778
46
7.63321770290878
79
0
0
LWPOLYLINE
5
33
330
6
100
AcDbEntity
8
KJD_PLANTING
100
AcDbPolyline
90
4
70
1
38
0
10
171
20
118
10
199
20
110
10
215
20
140
10
190
20
151
0
HATCH
5
34
330
6
100
AcDbEntity
8
KJD_PLANTING
100
AcDbHatch
10
0
20
0
30
0
2
ANSI31
70
0
71
0
91
1
92
3
72
0
73
1
93
4
10
171
20
118
10
199
20
110
10
215
20
140
10
190
20
151
97
0
75
0
76
1
52
0
41
3.4
77
0
78
1
53
45
43
0
44
0
45
-7.633217702908778
46
7.63321770290878
79
0
0
LWPOLYLINE
5
35
330
6
100
AcDbEntity
8
KJD_PLANTING
100
AcDbPolyline
90
4
70
1
38
0
10
209
20
52
10
252
20
52
10
252
20
68
10
214
20
68
0
HATCH
5
36
330
6
100
AcDbEntity
8
KJD_PLANTING
100
AcDbHatch
10
0
20
0
30
0
2
ANSI31
70
0
71
0
91
1
92
3
72
0
73
1
93
4
10
209
20
52
10
252
20
52
10
252
20
68
10
214
20
68
97
0
75
0
76
1
52
0
41
3.4
77
0
78
1
53
45
43
0
44
0
45
-7.633217702908778
46
7.63321770290878
79
0
0
CIRCLE
5
37
330
6
100
AcDbEntity
8
KJD_PLANTING
100
AcDbCircle
10
116
20
138
30
0
40
6
210
0
220
0
230
1
0
CIRCLE
5
38
330
6
100
AcDbEntity
8
KJD_PLANTING
100
AcDbCircle
10
116
20
138
30
0
40
1
210
0
220
0
230
1
0
LINE
5
39
330
6
100
AcDbEntity
8
KJD_DETAIL
100
AcDbLine
10
111.8
20
138
30
0
11
120.2
21
138
31
0
0
CIRCLE
5
3A
330
6
100
AcDbEntity
8
KJD_PLANTING
100
AcDbCircle
10
187
20
133
30
0
40
7
210
0
220
0
230
1
0
CIRCLE
5
3B
330
6
100
AcDbEntity
8
KJD_PLANTING
100
AcDbCircle
10
187
20
133
30
0
40
1
210
0
220
0
230
1
0
LINE
5
3C
330
6
100
AcDbEntity
8
KJD_DETAIL
100
AcDbLine
10
182.1
20
133
30
0
11
191.9
21
133
31
0
0
CIRCLE
5
3D
330
6
100
AcDbEntity
8
KJD_PLANTING
100
AcDbCircle
10
202
20
127
30
0
40
5
210
0
220
0
230
1
0
CIRCLE
5
3E
330
6
100
AcDbEntity
8
KJD_PLANTING
100
AcDbCircle
10
202
20
127
30
0
40
1
210
0
220
0
230
1
0
LINE
5
3F
330
6
100
AcDbEntity
8
KJD_DETAIL
100
AcDbLine
10
198.5
20
127
30
0
11
205.5
21
127
31
0
0
CIRCLE
5
40
330
6
100
AcDbEntity
8
KJD_PLANTING
100
AcDbCircle
10
229
20
59
30
0
40
5
210
0
220
0
230
1
0
CIRCLE
5
41
330
6
100
AcDbEntity
8
KJD_PLANTING
100
AcDbCircle
10
229
20
59
30
0
40
1
210
0
220
0
230
1
0
LINE
5
42
330
6
100
AcDbEntity
8
KJD_DETAIL
100
AcDbLine
10
225.5
20
59
30
0
11
232.5
21
59
31
0
0
CIRCLE
5
43
330
6
100
AcDbEntity
8
KJD_PLANTING
100
AcDbCircle
10
243
20
59
30
0
40
5
210
0
220
0
230
1
0
CIRCLE
5
44
330
6
100
AcDbEntity
8
KJD_PLANTING
100
AcDbCircle
10
243
20
59
30
0
40
1
210
0
220
0
230
1
0
LINE
5
45
330
6
100
AcDbEntity
8
KJD_DETAIL
100
AcDbLine
10
239.5
20
59
30
0
11
246.5
21
59
31
0
0
CIRCLE
5
46
330
6
100
AcDbEntity
8
KJD_PLANTING
100
AcDbCircle
10
110
20
62
30
0
40
7
210
0
220
0
230
1
0
CIRCLE
5
47
330
6
100
AcDbEntity
8
KJD_PLANTING
100
AcDbCircle
10
110
20
62
30
0
40
1
210
0
220
0
230
1
0
LINE
5
48
330
6
100
AcDbEntity
8
KJD_DETAIL
100
AcDbLine
10
105.1
20
62
30
0
11
114.9
21
62
31
0
0
CIRCLE
5
49
330
6
100
AcDbEntity
8
KJD_PLANTING
100
AcDbCircle
10
127
20
61
30
0
40
6
210
0
220
0
230
1
0
CIRCLE
5
4A
330
6
100
AcDbEntity
8
KJD_PLANTING
100
AcDbCircle
10
127
20
61
30
0
40
1
210
0
220
0
230
1
0
LINE
5
4B
330
6
100
AcDbEntity
8
KJD_DETAIL
100
AcDbLine
10
122.8
20
61
30
0
11
131.2
21
61
31
0
0
CIRCLE
5
4C
330
6
100
AcDbEntity
8
KJD_PLANTING
100
AcDbCircle
10
167
20
59
30
0
40
7
210
0
220
0
230
1
0
CIRCLE
5
4D
330
6
100
AcDbEntity
8
KJD_PLANTING
100
AcDbCircle
10
167
20
59
30
0
40
1
210
0
220
0
230
1
0
LINE
5
4E
330
6
100
AcDbEntity
8
KJD_DETAIL
100
AcDbLine
10
162.1
20
59
30
0
11
171.9
21
59
31
0
0
CIRCLE
5
4F
330
6
100
AcDbEntity
8
KJD_PLANTING
100
AcDbCircle
10
178
20
64
30
0
40
5
210
0
220
0
230
1
0
CIRCLE
5
50
330
6
100
AcDbEntity
8
KJD_PLANTING
100
AcDbCircle
10
178
20
64
30
0
40
1
210
0
220
0
230
1
0
LINE
5
51
330
6
100
AcDbEntity
8
KJD_DETAIL
100
AcDbLine
10
174.5
20
64
30
0
11
181.5
21
64
31
0
0
CIRCLE
5
52
330
6
100
AcDbEntity
8
KJD_PLANTING
100
AcDbCircle
10
242
20
143
30
0
40
7
210
0
220
0
230
1
0
CIRCLE
5
53
330
6
100
AcDbEntity
8
KJD_PLANTING
100
AcDbCircle
10
242
20
143
30
0
40
1
210
0
220
0
230
1
0
LINE
5
54
330
6
100
AcDbEntity
8
KJD_DETAIL
100
AcDbLine
10
237.1
20
143
30
0
11
246.9
21
143
31
0
0
LWPOLYLINE
5
55
330
6
100
AcDbEntity
8
KJD_HIGHLIGHT
100
AcDbPolyline
90
4
70
1
38
0
10
175
20
99
10
190
20
99
10
190
20
102
10
175
20
102
0
LINE
5
56
330
6
100
AcDbEntity
8
KJD_DETAIL
100
AcDbLine
10
177
20
97
30
0
11
177
21
99
31
0
0
LINE
5
57
330
6
100
AcDbEntity
8
KJD_DETAIL
100
AcDbLine
10
188
20
97
30
0
11
188
21
99
31
0
0
LWPOLYLINE
5
58
330
6
100
AcDbEntity
8
KJD_HIGHLIGHT
100
AcDbPolyline
90
4
70
1
38
0
10
211
20
97
10
226
20
97
10
226
20
100
10
211
20
100
0
LINE
5
59
330
6
100
AcDbEntity
8
KJD_DETAIL
100
AcDbLine
10
213
20
95
30
0
11
213
21
97
31
0
0
LINE
5
5A
330
6
100
AcDbEntity
8
KJD_DETAIL
100
AcDbLine
10
224
20
95
30
0
11
224
21
97
31
0
0
LINE
5
5B
330
6
100
AcDbEntity
8
KJD_HIGHLIGHT
100
AcDbLine
10
256
20
150
30
0
11
256
21
164
31
0
0
LWPOLYLINE
5
5C
330
6
100
AcDbEntity
8
KJD_HIGHLIGHT
100
AcDbPolyline
90
3
70
1
38
0
10
252
20
157
10
256
20
165
10
260
20
157
0
TEXT
5
5D
330
6
100
AcDbEntity
8
KJD_HIGHLIGHT
100
AcDbText
10
251
20
148
30
0
40
3
1
N
100
AcDbText
0
TEXT
5
5E
330
6
100
AcDbEntity
8
KJD_ACCENT
100
AcDbText
10
33
20
56
30
0
40
2.3
1
PEDESTRIAN ROUTE
100
AcDbText
0
ENDSEC
0
SECTION
2
OBJECTS
0
DICTIONARY
5
6B
330
0
100
AcDbDictionary
281
1
3
ACAD_LAYOUT
350
6C
0
DICTIONARY
5
6C
330
6B
100
AcDbDictionary
280
1
281
1
3
Model
350
8
3
Layout1
350
9
0
LAYOUT
5
8
102
{ACAD_REACTORS
330
6C
102
}
330
6C
100
AcDbPlotSettings
44
297
45
210
48
0
49
0
140
297
141
210
142
1
143
1
70
0
72
1
74
4
100
AcDbLayout
1
Model
70
1
71
0
12
0
22
0
32
0
14
100000000000000000000
24
100000000000000000000
34
100000000000000000000
15
-100000000000000000000
25
-100000000000000000000
35
-100000000000000000000
13
0
23
0
33
0
16
1
26
0
36
0
17
0
27
1
37
0
330
6
0
LAYOUT
5
9
102
{ACAD_REACTORS
330
6C
102
}
330
6C
100
AcDbPlotSettings
100
AcDbLayout
1
Layout1
70
1
71
1
10
0
20
0
11
420
21
297
12
0
22
0
32
0
14
100000000000000000000
24
100000000000000000000
34
100000000000000000000
15
-100000000000000000000
25
-100000000000000000000
35
-100000000000000000000
13
0
23
0
33
0
16
1
26
0
36
0
17
0
27
1
37
0
330
7
0
ENDSEC
0
EOF
