0
SECTION
2
HEADER
9
$ACADVER
1
AC1032
9
$DWGCODEPAGE
3
UTF-8
9
$HANDSEED
5
6A
9
$LTSCALE
40
1
9
$PDMODE
70
0
9
$PDSIZE
40
0
9
$TEXTSTYLE
7
STANDARD
9
$INSUNITS
70
4
9
$MEASUREMENT
70
1
0
ENDSEC
0
SECTION
2
TABLES
0
TABLE
2
LTYPE
5
5C
330
0
100
AcDbSymbolTable
70
2
0
LTYPE
5
2
330
5C
100
AcDbSymbolTableRecord
100
AcDbLinetypeTableRecord
2
CONTINUOUS
70
0
3
Solid line
72
65
73
0
40
0
0
LTYPE
5
A
330
5C
100
AcDbSymbolTableRecord
100
AcDbLinetypeTableRecord
2
KJD-CONTINUOUS
70
0
3

72
65
73
0
40
0
0
ENDTAB
0
TABLE
2
STYLE
5
5D
330
0
100
AcDbSymbolTable
70
1
0
STYLE
5
3
330
5D
100
AcDbSymbolTableRecord
100
AcDbTextStyleTableRecord
2
STANDARD
70
0
40
0
41
1
50
0
71
0
42
2.5
3
sans-serif
4

0
ENDTAB
0
TABLE
2
DIMSTYLE
5
5E
330
0
100
AcDbSymbolTable
70
2
100
AcDbDimStyleTable
0
DIMSTYLE
105
4
330
5E
100
AcDbSymbolTableRecord
100
AcDbDimStyleTableRecord
2
STANDARD
70
0
40
1
41
2.5
42
0.625
43
3.75
44
1.25
140
2.5
141
2.5
147
0.625
0
DIMSTYLE
105
12
330
5E
100
AcDbSymbolTableRecord
100
AcDbDimStyleTableRecord
271
0
2
KJD-CURATED
70
0
40
1
41
2.2
42
0.6
43
3.75
44
1
140
2.6
141
2.5
147
0.625
0
ENDTAB
0
TABLE
2
UCS
5
5F
330
0
100
AcDbSymbolTable
70
0
0
ENDTAB
0
TABLE
2
VIEW
5
60
330
0
100
AcDbSymbolTable
70
0
0
ENDTAB
0
TABLE
2
LAYER
5
61
330
0
100
AcDbSymbolTable
70
8
0
LAYER
5
5
330
61
100
AcDbSymbolTableRecord
100
AcDbLayerTableRecord
2
0
70
0
62
7
6
CONTINUOUS
290
1
370
-1
0
LAYER
5
B
330
61
100
AcDbSymbolTableRecord
100
AcDbLayerTableRecord
2
KJD_FRAME
70
0
62
8
6
KJD-CONTINUOUS
290
1
370
-1
0
LAYER
5
C
330
61
100
AcDbSymbolTableRecord
100
AcDbLayerTableRecord
2
KJD_OUTLINE
70
0
62
7
6
KJD-CONTINUOUS
290
1
370
-1
0
LAYER
5
D
330
61
100
AcDbSymbolTableRecord
100
AcDbLayerTableRecord
2
KJD_DETAIL
70
0
62
8
6
KJD-CONTINUOUS
290
1
370
-1
0
LAYER
5
E
330
61
100
AcDbSymbolTableRecord
100
AcDbLayerTableRecord
2
KJD_ACCENT
70
0
62
4
6
KJD-CONTINUOUS
290
1
370
-1
0
LAYER
5
F
330
61
100
AcDbSymbolTableRecord
100
AcDbLayerTableRecord
2
KJD_PLANTING
70
0
62
3
6
KJD-CONTINUOUS
290
1
370
-1
0
LAYER
5
10
330
61
100
AcDbSymbolTableRecord
100
AcDbLayerTableRecord
2
KJD_ANNOTATION
70
0
62
7
6
KJD-CONTINUOUS
290
1
370
-1
0
LAYER
5
11
330
61
100
AcDbSymbolTableRecord
100
AcDbLayerTableRecord
2
KJD_HIGHLIGHT
70
0
62
2
6
KJD-CONTINUOUS
290
1
370
-1
0
ENDTAB
0
TABLE
2
BLOCK_RECORD
5
62
330
0
100
AcDbSymbolTable
70
2
0
BLOCK_RECORD
5
6
330
62
100
AcDbSymbolTableRecord
100
AcDbBlockTableRecord
2
*MODEL_SPACE
70
0
280
1
281
0
340
8
0
BLOCK_RECORD
5
7
330
62
100
AcDbSymbolTableRecord
100
AcDbBlockTableRecord
2
*PAPER_SPACE
70
0
280
1
281
0
340
9
0
ENDTAB
0
ENDSEC
0
SECTION
2
BLOCKS
0
BLOCK
5
64
330
6
100
AcDbEntity
8
0
100
AcDbBlockBegin
2
*MODEL_SPACE
70
0
10
0
20
0
30
0
3
*MODEL_SPACE
1

0
ENDBLK
5
65
330
6
100
AcDbEntity
8
0
100
AcDbBlockEnd
0
BLOCK
5
66
330
7
100
AcDbEntity
8
0
100
AcDbBlockBegin
2
*PAPER_SPACE
70
0
10
0
20
0
30
0
3
*PAPER_SPACE
1

0
ENDBLK
5
67
330
7
100
AcDbEntity
8
0
100
AcDbBlockEnd
0
ENDSEC
0
SECTION
2
ENTITIES
0
LWPOLYLINE
5
13
330
6
100
AcDbEntity
8
KJD_FRAME
100
AcDbPolyline
90
4
70
1
38
0
10
5
20
5
10
292
20
5
10
292
20
205
10
5
20
205
0
LWPOLYLINE
5
14
330
6
100
AcDbEntity
8
KJD_FRAME
100
AcDbPolyline
90
4
70
1
38
0
10
9
20
9
10
288
20
9
10
288
20
201
10
9
20
201
0
LINE
5
15
330
6
100
AcDbEntity
8
KJD_FRAME
100
AcDbLine
10
9
20
36
30
0
11
288
21
36
31
0
0
LINE
5
16
330
6
100
AcDbEntity
8
KJD_FRAME
100
AcDbLine
10
183
20
9
30
0
11
183
21
36
31
0
0
LINE
5
17
330
6
100
AcDbEntity
8
KJD_FRAME
100
AcDbLine
10
249
20
9
30
0
11
249
21
36
31
0
0
LINE
5
18
330
6
100
AcDbEntity
8
KJD_FRAME
100
AcDbLine
10
183
20
21
30
0
11
288
21
21
31
0
0
TEXT
5
19
330
6
100
AcDbEntity
8
KJD_ACCENT
100
AcDbText
10
15
20
24
30
0
40
3.1
1
KJDRAW / EDITABLE ENGINEERING EXAMPLES
100
AcDbText
0
TEXT
5
1A
330
6
100
AcDbEntity
8
KJD_ANNOTATION
100
AcDbText
10
15
20
14
30
0
40
5
1
DOOR AND WINDOW ELEVATIONS
100
AcDbText
0
TEXT
5
1B
330
6
100
AcDbEntity
8
KJD_DETAIL
100
AcDbText
10
187
20
26
30
0
40
2
1
DISCIPLINE
100
AcDbText
0
TEXT
5
1C
330
6
100
AcDbEntity
8
KJD_ANNOTATION
100
AcDbText
10
187
20
15
30
0
40
3.2
1
ARCHITECTURE
100
AcDbText
0
TEXT
5
1D
330
6
100
AcDbEntity
8
KJD_DETAIL
100
AcDbText
10
253
20
26
30
0
40
2
1
SHEET
100
AcDbText
0
TEXT
5
1E
330
6
100
AcDbEntity
8
KJD_ANNOTATION
100
AcDbText
10
253
20
15
30
0
40
3.2
1
01 / 01
100
AcDbText
0
TEXT
5
1F
330
6
100
AcDbEntity
8
KJD_DETAIL
100
AcDbText
10
187
20
12
30
0
40
1.9
1
CONCEPT EXAMPLE / EDITABLE GEOMETRY
100
AcDbText
0
TEXT
5
20
330
6
100
AcDbEntity
8
KJD_ACCENT
100
AcDbText
10
15
20
190
30
0
40
4
1
OPENING TYPES / ELEVATION + SCHEDULE
100
AcDbText
0
TEXT
5
21
330
6
100
AcDbEntity
8
KJD_DETAIL
100
AcDbText
10
15
20
184
30
0
40
2.2
1
SYMBOLIC ELEVATIONS / NTS. NOMINAL SIZES ARE LISTED BELOW.
100
AcDbText
0
LWPOLYLINE
5
22
330
6
100
AcDbEntity
8
KJD_DETAIL
100
AcDbPolyline
90
4
70
1
38
0
10
13
20
92
10
67
20
92
10
67
20
177
10
13
20
177
0
TEXT
5
23
330
6
100
AcDbEntity
8
KJD_ANNOTATION
100
AcDbText
10
16
20
165
30
0
40
2.1
1
D01 / SINGLE LEAF
100
AcDbText
0
LWPOLYLINE
5
24
330
6
100
AcDbEntity
8
KJD_OUTLINE
100
AcDbPolyline
90
4
70
1
38
0
10
20
20
112
10
60
20
112
10
60
20
152
10
20
20
152
0
LWPOLYLINE
5
25
330
6
100
AcDbEntity
8
KJD_ACCENT
100
AcDbPolyline
90
4
70
1
38
0
10
22
20
114
10
58
20
114
10
58
20
150
10
22
20
150
0
LINE
5
26
330
6
100
AcDbEntity
8
KJD_HIGHLIGHT
100
AcDbLine
10
55
20
132
30
0
11
55
21
135
31
0
0
CIRCLE
5
27
330
6
100
AcDbEntity
8
KJD_HIGHLIGHT
100
AcDbCircle
10
55
20
133
30
0
40
0.8
210
0
220
0
230
1
0
LINE
5
28
330
6
100
AcDbEntity
8
KJD_DETAIL
100
AcDbLine
10
24
20
116
30
0
11
56
21
148
31
0
0
TEXT
5
29
330
6
100
AcDbEntity
8
KJD_DETAIL
100
AcDbText
10
22
20
102
30
0
40
1.9
1
SCHEMATIC / NTS
100
AcDbText
0
LINE
5
2A
330
6
100
AcDbEntity
8
KJD_DETAIL
100
AcDbLine
10
12
20
88
30
0
11
68
21
88
31
0
0
LWPOLYLINE
5
2B
330
6
100
AcDbEntity
8
KJD_DETAIL
100
AcDbPolyline
90
4
70
1
38
0
10
83
20
92
10
145
20
92
10
145
20
177
10
83
20
177
0
TEXT
5
2C
330
6
100
AcDbEntity
8
KJD_ANNOTATION
100
AcDbText
10
86
20
165
30
0
40
2.1
1
D02 / DOUBLE LEAF
100
AcDbText
0
LWPOLYLINE
5
2D
330
6
100
AcDbEntity
8
KJD_OUTLINE
100
AcDbPolyline
90
4
70
1
38
0
10
90
20
112
10
138
20
112
10
138
20
152
10
90
20
152
0
LWPOLYLINE
5
2E
330
6
100
AcDbEntity
8
KJD_ACCENT
100
AcDbPolyline
90
4
70
1
38
0
10
92
20
114
10
136
20
114
10
136
20
150
10
92
20
150
0
LINE
5
2F
330
6
100
AcDbEntity
8
KJD_ACCENT
100
AcDbLine
10
114
20
114
30
0
11
114
21
150
31
0
0
LINE
5
30
330
6
100
AcDbEntity
8
KJD_HIGHLIGHT
100
AcDbLine
10
110
20
130
30
0
11
110
21
135
31
0
0
LINE
5
31
330
6
100
AcDbEntity
8
KJD_HIGHLIGHT
100
AcDbLine
10
118
20
130
30
0
11
118
21
135
31
0
0
TEXT
5
32
330
6
100
AcDbEntity
8
KJD_DETAIL
100
AcDbText
10
92
20
102
30
0
40
1.9
1
SCHEMATIC / NTS
100
AcDbText
0
LINE
5
33
330
6
100
AcDbEntity
8
KJD_DETAIL
100
AcDbLine
10
82
20
88
30
0
11
146
21
88
31
0
0
LWPOLYLINE
5
34
330
6
100
AcDbEntity
8
KJD_DETAIL
100
AcDbPolyline
90
4
70
1
38
0
10
157
20
92
10
215
20
92
10
215
20
177
10
157
20
177
0
TEXT
5
35
330
6
100
AcDbEntity
8
KJD_ANNOTATION
100
AcDbText
10
160
20
165
30
0
40
2.1
1
W01 / FIXED
100
AcDbText
0
LWPOLYLINE
5
36
330
6
100
AcDbEntity
8
KJD_OUTLINE
100
AcDbPolyline
90
4
70
1
38
0
10
164
20
112
10
208
20
112
10
208
20
152
10
164
20
152
0
LWPOLYLINE
5
37
330
6
100
AcDbEntity
8
KJD_ACCENT
100
AcDbPolyline
90
4
70
1
38
0
10
166
20
114
10
206
20
114
10
206
20
150
10
166
20
150
0
LINE
5
38
330
6
100
AcDbEntity
8
KJD_DETAIL
100
AcDbLine
10
168
20
116
30
0
11
204
21
148
31
0
0
LINE
5
39
330
6
100
AcDbEntity
8
KJD_DETAIL
100
AcDbLine
10
168
20
148
30
0
11
204
21
116
31
0
0
TEXT
5
3A
330
6
100
AcDbEntity
8
KJD_DETAIL
100
AcDbText
10
166
20
102
30
0
40
1.9
1
SCHEMATIC / NTS
100
AcDbText
0
LINE
5
3B
330
6
100
AcDbEntity
8
KJD_DETAIL
100
AcDbLine
10
156
20
88
30
0
11
216
21
88
31
0
0
LWPOLYLINE
5
3C
330
6
100
AcDbEntity
8
KJD_DETAIL
100
AcDbPolyline
90
4
70
1
38
0
10
226
20
92
10
282
20
92
10
282
20
177
10
226
20
177
0
TEXT
5
3D
330
6
100
AcDbEntity
8
KJD_ANNOTATION
100
AcDbText
10
229
20
165
30
0
40
2.1
1
W02 / CASEMENT
100
AcDbText
0
LWPOLYLINE
5
3E
330
6
100
AcDbEntity
8
KJD_OUTLINE
100
AcDbPolyline
90
4
70
1
38
0
10
233
20
112
10
275
20
112
10
275
20
152
10
233
20
152
0
LWPOLYLINE
5
3F
330
6
100
AcDbEntity
8
KJD_ACCENT
100
AcDbPolyline
90
4
70
1
38
0
10
235
20
114
10
273
20
114
10
273
20
150
10
235
20
150
0
LINE
5
40
330
6
100
AcDbEntity
8
KJD_ACCENT
100
AcDbLine
10
254
20
114
30
0
11
254
21
150
31
0
0
LINE
5
41
330
6
100
AcDbEntity
8
KJD_DETAIL
100
AcDbLine
10
236
20
116
30
0
11
252
21
148
31
0
0
LINE
5
42
330
6
100
AcDbEntity
8
KJD_DETAIL
100
AcDbLine
10
256
20
148
30
0
11
272
21
116
31
0
0
TEXT
5
43
330
6
100
AcDbEntity
8
KJD_DETAIL
100
AcDbText
10
235
20
102
30
0
40
1.9
1
SCHEMATIC / NTS
100
AcDbText
0
LINE
5
44
330
6
100
AcDbEntity
8
KJD_DETAIL
100
AcDbLine
10
225
20
88
30
0
11
283
21
88
31
0
0
TEXT
5
45
330
6
100
AcDbEntity
8
KJD_ACCENT
100
AcDbText
10
18
20
78
30
0
40
2.3
1
TAG
100
AcDbText
0
TEXT
5
46
330
6
100
AcDbEntity
8
KJD_ACCENT
100
AcDbText
10
70
20
78
30
0
40
2.3
1
DESCRIPTION
100
AcDbText
0
TEXT
5
47
330
6
100
AcDbEntity
8
KJD_ACCENT
100
AcDbText
10
202
20
78
30
0
40
2.3
1
NOMINAL SIZE
100
AcDbText
0
LINE
5
48
330
6
100
AcDbEntity
8
KJD_DETAIL
100
AcDbLine
10
15
20
73
30
0
11
281
21
73
31
0
0
TEXT
5
49
330
6
100
AcDbEntity
8
KJD_ANNOTATION
100
AcDbText
10
18
20
66
30
0
40
2.6
1
D01
100
AcDbText
0
TEXT
5
4A
330
6
100
AcDbEntity
8
KJD_ANNOTATION
100
AcDbText
10
70
20
66
30
0
40
2.6
1
Single leaf flush door
100
AcDbText
0
TEXT
5
4B
330
6
100
AcDbEntity
8
KJD_ANNOTATION
100
AcDbText
10
202
20
66
30
0
40
2.6
1
900 x 2100
100
AcDbText
0
LINE
5
4C
330
6
100
AcDbEntity
8
KJD_DETAIL
100
AcDbLine
10
15
20
64
30
0
11
281
21
64
31
0
0
TEXT
5
4D
330
6
100
AcDbEntity
8
KJD_ANNOTATION
100
AcDbText
10
18
20
59
30
0
40
2.6
1
D02
100
AcDbText
0
TEXT
5
4E
330
6
100
AcDbEntity
8
KJD_ANNOTATION
100
AcDbText
10
70
20
59
30
0
40
2.6
1
Double leaf entry door
100
AcDbText
0
TEXT
5
4F
330
6
100
AcDbEntity
8
KJD_ANNOTATION
100
AcDbText
10
202
20
59
30
0
40
2.6
1
1500 x 2100
100
AcDbText
0
LINE
5
50
330
6
100
AcDbEntity
8
KJD_DETAIL
100
AcDbLine
10
15
20
57
30
0
11
281
21
57
31
0
0
TEXT
5
51
330
6
100
AcDbEntity
8
KJD_ANNOTATION
100
AcDbText
10
18
20
52
30
0
40
2.6
1
W01
100
AcDbText
0
TEXT
5
52
330
6
100
AcDbEntity
8
KJD_ANNOTATION
100
AcDbText
10
70
20
52
30
0
40
2.6
1
Fixed glazing
100
AcDbText
0
TEXT
5
53
330
6
100
AcDbEntity
8
KJD_ANNOTATION
100
AcDbText
10
202
20
52
30
0
40
2.6
1
1200 x 1200
100
AcDbText
0
LINE
5
54
330
6
100
AcDbEntity
8
KJD_DETAIL
100
AcDbLine
10
15
20
50
30
0
11
281
21
50
31
0
0
TEXT
5
55
330
6
100
AcDbEntity
8
KJD_ANNOTATION
100
AcDbText
10
18
20
45
30
0
40
2.6
1
W02
100
AcDbText
0
TEXT
5
56
330
6
100
AcDbEntity
8
KJD_ANNOTATION
100
AcDbText
10
70
20
45
30
0
40
2.6
1
Operable casement
100
AcDbText
0
TEXT
5
57
330
6
100
AcDbEntity
8
KJD_ANNOTATION
100
AcDbText
10
202
20
45
30
0
40
2.6
1
1200 x 1200
100
AcDbText
0
LINE
5
58
330
6
100
AcDbEntity
8
KJD_DETAIL
100
AcDbLine
10
15
20
43
30
0
11
281
21
43
31
0
0
HATCH
5
59
330
6
100
AcDbEntity
8
KJD_DETAIL
100
AcDbHatch
10
0
20
0
30
0
2
ANSI31
70
0
71
0
91
1
92
3
72
0
73
1
93
4
10
17
20
92
10
22
20
92
10
22
20
96
10
17
20
96
97
0
75
0
76
1
52
0
41
1.5
77
0
78
1
53
45
43
0
44
0
45
-3.3675960454009317
46
3.3675960454009326
79
0
0
CIRCLE
5
5A
330
6
100
AcDbEntity
8
KJD_HIGHLIGHT
100
AcDbCircle
10
279
20
190
30
0
40
3
210
0
220
0
230
1
0
ARC
5
5B
330
6
100
AcDbEntity
8
KJD_DETAIL
100
AcDbCircle
10
279
20
190
30
0
40
4.5
100
AcDbArc
50
0
51
180
210
0
220
0
230
1
0
ENDSEC
0
SECTION
2
OBJECTS
0
DICTIONARY
5
68
330
0
100
AcDbDictionary
281
1
3
ACAD_LAYOUT
350
69
0
DICTIONARY
5
69
330
68
100
AcDbDictionary
280
1
281
1
3
Model
350
8
3
Layout1
350
9
0
LAYOUT
5
8
102
{ACAD_REACTORS
330
69
102
}
330
69
100
AcDbPlotSettings
44
297
45
210
48
0
49
0
140
297
141
210
142
1
143
1
70
0
72
1
74
4
100
AcDbLayout
1
Model
70
1
71
0
12
0
22
0
32
0
14
100000000000000000000
24
100000000000000000000
34
100000000000000000000
15
-100000000000000000000
25
-100000000000000000000
35
-100000000000000000000
13
0
23
0
33
0
16
1
26
0
36
0
17
0
27
1
37
0
330
6
0
LAYOUT
5
9
102
{ACAD_REACTORS
330
69
102
}
330
69
100
AcDbPlotSettings
100
AcDbLayout
1
Layout1
70
1
71
1
10
0
20
0
11
420
21
297
12
0
22
0
32
0
14
100000000000000000000
24
100000000000000000000
34
100000000000000000000
15
-100000000000000000000
25
-100000000000000000000
35
-100000000000000000000
13
0
23
0
33
0
16
1
26
0
36
0
17
0
27
1
37
0
330
7
0
ENDSEC
0
EOF
