0
SECTION
2
HEADER
9
$ACADVER
1
AC1032
9
$DWGCODEPAGE
3
UTF-8
9
$HANDSEED
5
61
9
$LTSCALE
40
1
9
$PDMODE
70
0
9
$PDSIZE
40
0
9
$TEXTSTYLE
7
STANDARD
9
$INSUNITS
70
4
9
$MEASUREMENT
70
1
0
ENDSEC
0
SECTION
2
TABLES
0
TABLE
2
LTYPE
5
53
330
0
100
AcDbSymbolTable
70
2
0
LTYPE
5
2
330
53
100
AcDbSymbolTableRecord
100
AcDbLinetypeTableRecord
2
CONTINUOUS
70
0
3
Solid line
72
65
73
0
40
0
0
LTYPE
5
A
330
53
100
AcDbSymbolTableRecord
100
AcDbLinetypeTableRecord
2
DRAIN-CONTINUOUS
70
0
3

72
65
73
0
40
0
0
ENDTAB
0
TABLE
2
STYLE
5
54
330
0
100
AcDbSymbolTable
70
1
0
STYLE
5
3
330
54
100
AcDbSymbolTableRecord
100
AcDbTextStyleTableRecord
2
STANDARD
70
0
40
0
41
1
50
0
71
0
42
2.5
3
sans-serif
4

0
ENDTAB
0
TABLE
2
DIMSTYLE
5
55
330
0
100
AcDbSymbolTable
70
1
100
AcDbDimStyleTable
0
DIMSTYLE
105
4
330
55
100
AcDbSymbolTableRecord
100
AcDbDimStyleTableRecord
2
STANDARD
70
0
40
1
41
2.5
42
0.625
43
3.75
44
1.25
140
2.5
141
2.5
147
0.625
0
ENDTAB
0
TABLE
2
UCS
5
56
330
0
100
AcDbSymbolTable
70
0
0
ENDTAB
0
TABLE
2
VIEW
5
57
330
0
100
AcDbSymbolTable
70
0
0
ENDTAB
0
TABLE
2
LAYER
5
58
330
0
100
AcDbSymbolTable
70
6
0
LAYER
5
5
330
58
100
AcDbSymbolTableRecord
100
AcDbLayerTableRecord
2
0
70
0
62
7
6
CONTINUOUS
290
1
370
-1
0
LAYER
5
B
330
58
100
AcDbSymbolTableRecord
100
AcDbLayerTableRecord
2
DRAIN-FRAME
70
0
62
8
6
DRAIN-CONTINUOUS
290
1
370
-1
0
LAYER
5
C
330
58
100
AcDbSymbolTableRecord
100
AcDbLayerTableRecord
2
DRAIN-OUTLINE
70
0
62
9
6
DRAIN-CONTINUOUS
290
1
370
-1
0
LAYER
5
D
330
58
100
AcDbSymbolTableRecord
100
AcDbLayerTableRecord
2
DRAIN-DETAIL
70
0
62
3
6
DRAIN-CONTINUOUS
290
1
370
-1
0
LAYER
5
E
330
58
100
AcDbSymbolTableRecord
100
AcDbLayerTableRecord
2
DRAIN-ANNOTATION
70
0
62
9
6
DRAIN-CONTINUOUS
290
1
370
-1
0
LAYER
5
F
330
58
100
AcDbSymbolTableRecord
100
AcDbLayerTableRecord
2
DRAIN-HATCH
70
0
62
9
6
DRAIN-CONTINUOUS
290
1
370
-1
0
ENDTAB
0
TABLE
2
BLOCK_RECORD
5
59
330
0
100
AcDbSymbolTable
70
2
0
BLOCK_RECORD
5
6
330
59
100
AcDbSymbolTableRecord
100
AcDbBlockTableRecord
2
*MODEL_SPACE
70
0
280
1
281
0
340
8
0
BLOCK_RECORD
5
7
330
59
100
AcDbSymbolTableRecord
100
AcDbBlockTableRecord
2
*PAPER_SPACE
70
0
280
1
281
0
340
9
0
ENDTAB
0
ENDSEC
0
SECTION
2
BLOCKS
0
BLOCK
5
5B
330
6
100
AcDbEntity
8
0
100
AcDbBlockBegin
2
*MODEL_SPACE
70
0
10
0
20
0
30
0
3
*MODEL_SPACE
1

0
ENDBLK
5
5C
330
6
100
AcDbEntity
8
0
100
AcDbBlockEnd
0
BLOCK
5
5D
330
7
100
AcDbEntity
8
0
100
AcDbBlockBegin
2
*PAPER_SPACE
70
0
10
0
20
0
30
0
3
*PAPER_SPACE
1

0
ENDBLK
5
5E
330
7
100
AcDbEntity
8
0
100
AcDbBlockEnd
0
ENDSEC
0
SECTION
2
ENTITIES
0
LWPOLYLINE
5
10
330
6
100
AcDbEntity
8
DRAIN-FRAME
100
AcDbPolyline
90
4
70
1
38
0
10
0
20
0
10
277
20
0
10
277
20
190
10
0
20
190
0
LWPOLYLINE
5
11
330
6
100
AcDbEntity
8
DRAIN-FRAME
100
AcDbPolyline
90
4
70
1
38
0
10
5
20
5
10
272
20
5
10
272
20
185
10
5
20
185
0
LINE
5
12
330
6
100
AcDbEntity
8
DRAIN-FRAME
100
AcDbLine
10
5
20
25
30
0
11
272
21
25
31
0
0
LINE
5
13
330
6
100
AcDbEntity
8
DRAIN-FRAME
100
AcDbLine
10
176
20
5
30
0
11
176
21
25
31
0
0
LINE
5
14
330
6
100
AcDbEntity
8
DRAIN-FRAME
100
AcDbLine
10
240
20
5
30
0
11
240
21
25
31
0
0
TEXT
5
15
330
6
100
AcDbEntity
8
DRAIN-ANNOTATION
100
AcDbText
10
10
20
13
30
0
40
6
1
SITE DRAINAGE NETWORK
100
AcDbText
0
TEXT
5
16
330
6
100
AcDbEntity
8
DRAIN-ANNOTATION
100
AcDbText
10
10
20
7
30
0
40
2.6
1
Inspection chambers / flow direction / pipe schedule
100
AcDbText
0
TEXT
5
17
330
6
100
AcDbEntity
8
DRAIN-ANNOTATION
100
AcDbText
10
181
20
16
30
0
40
2.6
1
KJDRAW / ENGINEERING EXAMPLES
100
AcDbText
0
TEXT
5
18
330
6
100
AcDbEntity
8
DRAIN-ANNOTATION
100
AcDbText
10
181
20
9
30
0
40
2.4
1
Editable CAD - illustrative
100
AcDbText
0
TEXT
5
19
330
6
100
AcDbEntity
8
DRAIN-ANNOTATION
100
AcDbText
10
245
20
16
30
0
40
2.5
1
A4 / 1:1
100
AcDbText
0
TEXT
5
1A
330
6
100
AcDbEntity
8
DRAIN-ANNOTATION
100
AcDbText
10
245
20
9
30
0
40
2.5
1
REV 01
100
AcDbText
0
TEXT
5
1B
330
6
100
AcDbEntity
8
DRAIN-ANNOTATION
100
AcDbText
10
16
20
173
30
0
40
4.2
1
PLAN  /  DIAGRAMMATIC
100
AcDbText
0
LWPOLYLINE
5
1C
330
6
100
AcDbEntity
8
DRAIN-DETAIL
100
AcDbPolyline
90
4
70
1
38
0
10
16
20
48
10
192
20
48
10
192
20
160
10
16
20
160
0
LWPOLYLINE
5
1D
330
6
100
AcDbEntity
8
DRAIN-OUTLINE
100
AcDbPolyline
90
4
70
1
38
0
10
26
20
58
10
104
20
58
10
104
20
103
10
26
20
103
0
LWPOLYLINE
5
1E
330
6
100
AcDbEntity
8
DRAIN-OUTLINE
100
AcDbPolyline
90
4
70
1
38
0
10
116
20
108
10
177
20
108
10
177
20
148
10
116
20
148
0
TEXT
5
1F
330
6
100
AcDbEntity
8
DRAIN-ANNOTATION
100
AcDbText
10
49
20
79
30
0
40
3.8
1
BUILDING A
100
AcDbText
0
TEXT
5
20
330
6
100
AcDbEntity
8
DRAIN-ANNOTATION
100
AcDbText
10
132
20
126
30
0
40
3.8
1
BUILDING B
100
AcDbText
0
CIRCLE
5
21
330
6
100
AcDbEntity
8
DRAIN-DETAIL
100
AcDbCircle
10
34
20
120
30
0
40
4
210
0
220
0
230
1
0
CIRCLE
5
22
330
6
100
AcDbEntity
8
DRAIN-DETAIL
100
AcDbCircle
10
34
20
120
30
0
40
1
210
0
220
0
230
1
0
TEXT
5
23
330
6
100
AcDbEntity
8
DRAIN-ANNOTATION
100
AcDbText
10
29
20
127
30
0
40
2.6
1
IC-01
100
AcDbText
0
CIRCLE
5
24
330
6
100
AcDbEntity
8
DRAIN-DETAIL
100
AcDbCircle
10
80
20
120
30
0
40
4
210
0
220
0
230
1
0
CIRCLE
5
25
330
6
100
AcDbEntity
8
DRAIN-DETAIL
100
AcDbCircle
10
80
20
120
30
0
40
1
210
0
220
0
230
1
0
TEXT
5
26
330
6
100
AcDbEntity
8
DRAIN-ANNOTATION
100
AcDbText
10
75
20
127
30
0
40
2.6
1
IC-02
100
AcDbText
0
CIRCLE
5
27
330
6
100
AcDbEntity
8
DRAIN-DETAIL
100
AcDbCircle
10
110
20
120
30
0
40
4
210
0
220
0
230
1
0
CIRCLE
5
28
330
6
100
AcDbEntity
8
DRAIN-DETAIL
100
AcDbCircle
10
110
20
120
30
0
40
1
210
0
220
0
230
1
0
TEXT
5
29
330
6
100
AcDbEntity
8
DRAIN-ANNOTATION
100
AcDbText
10
105
20
127
30
0
40
2.6
1
IC-03
100
AcDbText
0
CIRCLE
5
2A
330
6
100
AcDbEntity
8
DRAIN-DETAIL
100
AcDbCircle
10
110
20
76
30
0
40
4
210
0
220
0
230
1
0
CIRCLE
5
2B
330
6
100
AcDbEntity
8
DRAIN-DETAIL
100
AcDbCircle
10
110
20
76
30
0
40
1
210
0
220
0
230
1
0
TEXT
5
2C
330
6
100
AcDbEntity
8
DRAIN-ANNOTATION
100
AcDbText
10
105
20
83
30
0
40
2.6
1
IC-04
100
AcDbText
0
CIRCLE
5
2D
330
6
100
AcDbEntity
8
DRAIN-DETAIL
100
AcDbCircle
10
154
20
76
30
0
40
4
210
0
220
0
230
1
0
CIRCLE
5
2E
330
6
100
AcDbEntity
8
DRAIN-DETAIL
100
AcDbCircle
10
154
20
76
30
0
40
1
210
0
220
0
230
1
0
TEXT
5
2F
330
6
100
AcDbEntity
8
DRAIN-ANNOTATION
100
AcDbText
10
149
20
83
30
0
40
2.6
1
IC-05
100
AcDbText
0
CIRCLE
5
30
330
6
100
AcDbEntity
8
DRAIN-DETAIL
100
AcDbCircle
10
181
20
76
30
0
40
4
210
0
220
0
230
1
0
CIRCLE
5
31
330
6
100
AcDbEntity
8
DRAIN-DETAIL
100
AcDbCircle
10
181
20
76
30
0
40
1
210
0
220
0
230
1
0
TEXT
5
32
330
6
100
AcDbEntity
8
DRAIN-ANNOTATION
100
AcDbText
10
176
20
83
30
0
40
2.6
1
IC-06
100
AcDbText
0
LINE
5
33
330
6
100
AcDbEntity
8
DRAIN-DETAIL
100
AcDbLine
10
34
20
120
30
0
11
80
21
120
31
0
0
LINE
5
34
330
6
100
AcDbEntity
8
DRAIN-ANNOTATION
100
AcDbLine
10
54
20
121.5
30
0
11
57
21
120
31
0
0
LINE
5
35
330
6
100
AcDbEntity
8
DRAIN-ANNOTATION
100
AcDbLine
10
54
20
118.5
30
0
11
57
21
120
31
0
0
LINE
5
36
330
6
100
AcDbEntity
8
DRAIN-DETAIL
100
AcDbLine
10
80
20
120
30
0
11
110
21
120
31
0
0
LINE
5
37
330
6
100
AcDbEntity
8
DRAIN-ANNOTATION
100
AcDbLine
10
92
20
121.5
30
0
11
95
21
120
31
0
0
LINE
5
38
330
6
100
AcDbEntity
8
DRAIN-ANNOTATION
100
AcDbLine
10
92
20
118.5
30
0
11
95
21
120
31
0
0
LINE
5
39
330
6
100
AcDbEntity
8
DRAIN-DETAIL
100
AcDbLine
10
110
20
120
30
0
11
110
21
76
31
0
0
LINE
5
3A
330
6
100
AcDbEntity
8
DRAIN-ANNOTATION
100
AcDbLine
10
108.5
20
96
30
0
11
110
21
93
31
0
0
LINE
5
3B
330
6
100
AcDbEntity
8
DRAIN-ANNOTATION
100
AcDbLine
10
111.5
20
96
30
0
11
110
21
93
31
0
0
LINE
5
3C
330
6
100
AcDbEntity
8
DRAIN-DETAIL
100
AcDbLine
10
110
20
76
30
0
11
154
21
76
31
0
0
LINE
5
3D
330
6
100
AcDbEntity
8
DRAIN-ANNOTATION
100
AcDbLine
10
129
20
77.5
30
0
11
132
21
76
31
0
0
LINE
5
3E
330
6
100
AcDbEntity
8
DRAIN-ANNOTATION
100
AcDbLine
10
129
20
74.5
30
0
11
132
21
76
31
0
0
LINE
5
3F
330
6
100
AcDbEntity
8
DRAIN-DETAIL
100
AcDbLine
10
154
20
76
30
0
11
181
21
76
31
0
0
LINE
5
40
330
6
100
AcDbEntity
8
DRAIN-ANNOTATION
100
AcDbLine
10
164.5
20
77.5
30
0
11
167.5
21
76
31
0
0
LINE
5
41
330
6
100
AcDbEntity
8
DRAIN-ANNOTATION
100
AcDbLine
10
164.5
20
74.5
30
0
11
167.5
21
76
31
0
0
LINE
5
42
330
6
100
AcDbEntity
8
DRAIN-DETAIL
100
AcDbLine
10
34
20
120
30
0
11
34
21
150
31
0
0
LINE
5
43
330
6
100
AcDbEntity
8
DRAIN-DETAIL
100
AcDbLine
10
181
20
76
30
0
11
205
21
76
31
0
0
CIRCLE
5
44
330
6
100
AcDbEntity
8
DRAIN-DETAIL
100
AcDbCircle
10
208
20
76
30
0
40
3
210
0
220
0
230
1
0
TEXT
5
45
330
6
100
AcDbEntity
8
DRAIN-ANNOTATION
100
AcDbText
10
202
20
67
30
0
40
2.5
1
OUTFALL
100
AcDbText
0
TEXT
5
46
330
6
100
AcDbEntity
8
DRAIN-ANNOTATION
100
AcDbText
10
35
20
111
30
0
40
2.4
1
DN300 / 1:180
100
AcDbText
0
TEXT
5
47
330
6
100
AcDbEntity
8
DRAIN-ANNOTATION
100
AcDbText
10
119
20
67
30
0
40
2.4
1
DN375 / 1:220
100
AcDbText
0
LWPOLYLINE
5
48
330
6
100
AcDbEntity
8
DRAIN-FRAME
100
AcDbPolyline
90
4
70
1
38
0
10
199
20
112
10
257
20
112
10
257
20
160
10
199
20
160
0
TEXT
5
49
330
6
100
AcDbEntity
8
DRAIN-ANNOTATION
100
AcDbText
10
204
20
149
30
0
40
3.8
1
LEGEND
100
AcDbText
0
CIRCLE
5
4A
330
6
100
AcDbEntity
8
DRAIN-DETAIL
100
AcDbCircle
10
208
20
137
30
0
40
3
210
0
220
0
230
1
0
TEXT
5
4B
330
6
100
AcDbEntity
8
DRAIN-ANNOTATION
100
AcDbText
10
216
20
135
30
0
40
2.5
1
INSPECTION CHAMBER
100
AcDbText
0
LINE
5
4C
330
6
100
AcDbEntity
8
DRAIN-DETAIL
100
AcDbLine
10
204
20
124
30
0
11
214
21
124
31
0
0
TEXT
5
4D
330
6
100
AcDbEntity
8
DRAIN-ANNOTATION
100
AcDbText
10
216
20
122
30
0
40
2.5
1
GRAVITY PIPE
100
AcDbText
0
TEXT
5
4E
330
6
100
AcDbEntity
8
DRAIN-ANNOTATION
100
AcDbText
10
199
20
99
30
0
40
3.3
1
NOTES
100
AcDbText
0
TEXT
5
4F
330
6
100
AcDbEntity
8
DRAIN-ANNOTATION
100
AcDbText
10
199
20
92
30
0
40
2.4
1
01  Flow arrows follow pipe fall.
100
AcDbText
0
TEXT
5
50
330
6
100
AcDbEntity
8
DRAIN-ANNOTATION
100
AcDbText
10
199
20
86
30
0
40
2.4
1
02  Coordinates are illustrative.
100
AcDbText
0
TEXT
5
51
330
6
100
AcDbEntity
8
DRAIN-ANNOTATION
100
AcDbText
10
199
20
80
30
0
40
2.4
1
03  Verify levels on site.
100
AcDbText
0
TEXT
5
52
330
6
100
AcDbEntity
8
DRAIN-ANNOTATION
100
AcDbText
10
20
20
39
30
0
40
2.5
1
FLOW SCHEMATIC - CHAMBER LOCATIONS ILLUSTRATIVE
100
AcDbText
0
ENDSEC
0
SECTION
2
OBJECTS
0
DICTIONARY
5
5F
330
0
100
AcDbDictionary
281
1
3
ACAD_LAYOUT
350
60
0
DICTIONARY
5
60
330
5F
100
AcDbDictionary
280
1
281
1
3
Model
350
8
3
Layout1
350
9
0
LAYOUT
5
8
102
{ACAD_REACTORS
330
60
102
}
330
60
100
AcDbPlotSettings
44
297
45
210
48
-10
49
-10
140
287
141
200
142
1
143
1
70
0
72
1
74
4
100
AcDbLayout
1
Model
70
1
71
0
12
0
22
0
32
0
14
100000000000000000000
24
100000000000000000000
34
100000000000000000000
15
-100000000000000000000
25
-100000000000000000000
35
-100000000000000000000
13
0
23
0
33
0
16
1
26
0
36
0
17
0
27
1
37
0
330
6
0
LAYOUT
5
9
102
{ACAD_REACTORS
330
60
102
}
330
60
100
AcDbPlotSettings
100
AcDbLayout
1
Layout1
70
1
71
1
10
0
20
0
11
420
21
297
12
0
22
0
32
0
14
100000000000000000000
24
100000000000000000000
34
100000000000000000000
15
-100000000000000000000
25
-100000000000000000000
35
-100000000000000000000
13
0
23
0
33
0
16
1
26
0
36
0
17
0
27
1
37
0
330
7
0
ENDSEC
0
EOF
