<?xml version="1.0" encoding="UTF-8"?>
<svg xmlns="http://www.w3.org/2000/svg" width="210mm" height="148mm" viewBox="0 0 210 148" data-kjdraw-status="approximate"><style>svg{background:#101820;color:#c7d5d9}g[data-entity-id]{color:#c7d5d9!important;stroke-width:.8!important}text{font-weight:500}</style><title>Model</title><desc>KJDraw vector drawing. approximate; 0 omitted objects; 1 font or marker approximations.</desc><metadata>{&quot;status&quot;:&quot;approximate&quot;,&quot;rendered&quot;:6,&quot;hidden&quot;:0,&quot;diagnostics&quot;:[],&quot;approximations&quot;:[{&quot;entityId&quot;:&quot;geometry-hatch&quot;,&quot;type&quot;:&quot;HATCH&quot;,&quot;reason&quot;:&quot;SVG previews ANSI31 as a bounded visual proxy; DXF retains its named CAD hatch&quot;}],&quot;viewports&quot;:[]}</metadata><defs><clipPath id="kj-paper" clipPathUnits="userSpaceOnUse"><rect x="0" y="0" width="210" height="148"/></clipPath><clipPath id="kj-plot-range" clipPathUnits="userSpaceOnUse"><rect x="-15" y="-15" width="150" height="110"/></clipPath><pattern id="kj-hatch-1" patternUnits="userSpaceOnUse" width="8" height="8" patternTransform="rotate(0)"><path d="M 0 0 L 8 8" stroke="currentColor" stroke-width="0.28" fill="none"/></pattern></defs><g clip-path="url(#kj-paper)"><g data-space-id="block-generated-1" transform="matrix(1 0 0 -1 15 133)" clip-path="url(#kj-plot-range)"><g data-entity-id="geometry-line" data-entity-type="LINE" data-layer-id="layer-generated-2" data-layer-name="0" color="#000000" stroke="currentColor" stroke-width="0.25" opacity="1" fill="none"><line x1="0" y1="0" x2="30" y2="0"/></g><g data-entity-id="geometry-circle" data-entity-type="CIRCLE" data-layer-id="layer-generated-2" data-layer-name="0" color="#000000" stroke="currentColor" stroke-width="0.25" opacity="1" fill="none"><circle cx="15" cy="20" r="10"/></g><g data-entity-id="geometry-arc" data-entity-type="ARC" data-layer-id="layer-generated-2" data-layer-name="0" color="#000000" stroke="currentColor" stroke-width="0.25" opacity="1" fill="none"><path d="M 55 20 A 10 10 0 1 1 45 10"/></g><g data-entity-id="geometry-ellipse" data-entity-type="ELLIPSE" data-layer-id="layer-generated-2" data-layer-name="0" color="#000000" stroke="currentColor" stroke-width="0.25" opacity="1" fill="none"><path d="M 89 20 A 14 7 0 0 1 61 20 A 14 7 0 0 1 89 20"/></g><g data-entity-id="geometry-polyline" data-entity-type="LWPOLYLINE" data-layer-id="layer-generated-2" data-layer-name="0" color="#000000" stroke="currentColor" stroke-width="0.25" opacity="1" fill="none"><path d="M 0 45 L 25 45 L 30 60 L 5 65 L 0 45 Z"/></g><g data-entity-id="geometry-hatch" data-entity-type="HATCH" data-layer-id="layer-generated-2" data-layer-name="0" color="#000000" stroke="currentColor" stroke-width="0.25" opacity="1" fill="none"><path d="M 45 45 L 80 45 L 80 65 L 45 65 L 45 45 Z" fill="url(#kj-hatch-1)" fill-rule="evenodd" stroke="none"/></g></g></g></svg>