0
SECTION
2
HEADER
9
$ACADVER
1
AC1032
9
$DWGCODEPAGE
3
UTF-8
9
$HANDSEED
5
61
9
$LTSCALE
40
1
9
$PDMODE
70
0
9
$PDSIZE
40
0
9
$TEXTSTYLE
7
STANDARD
9
$INSUNITS
70
6
9
$MEASUREMENT
70
1
0
ENDSEC
0
SECTION
2
TABLES
0
TABLE
2
LTYPE
5
51
330
0
100
AcDbSymbolTable
70
4
0
LTYPE
5
2
330
51
100
AcDbSymbolTableRecord
100
AcDbLinetypeTableRecord
2
CONTINUOUS
70
0
3
Solid line
72
65
73
0
40
0
0
LTYPE
5
A
330
51
100
AcDbSymbolTableRecord
100
AcDbLinetypeTableRecord
2
KJ_8e1dacc70671_CONT
70
0
3

72
65
73
0
40
0
0
LTYPE
5
B
330
51
100
AcDbSymbolTableRecord
100
AcDbLinetypeTableRecord
2
KJ_8e1dacc70671_GRID
70
0
3

72
65
73
2
40
3
49
1.5
74
0
49
-1.5
74
0
0
LTYPE
5
C
330
51
100
AcDbSymbolTableRecord
100
AcDbLinetypeTableRecord
2
KJ_8e1dacc70671_SECTION
70
0
3

72
65
73
4
40
11
49
6
74
0
49
-2
74
0
49
1
74
0
49
-2
74
0
0
ENDTAB
0
TABLE
2
STYLE
5
52
330
0
100
AcDbSymbolTable
70
1
0
STYLE
5
3
330
52
100
AcDbSymbolTableRecord
100
AcDbTextStyleTableRecord
2
STANDARD
70
0
40
0
41
1
50
0
71
0
42
2.5
3
sans-serif
4

0
ENDTAB
0
TABLE
2
DIMSTYLE
5
53
330
0
100
AcDbSymbolTable
70
1
100
AcDbDimStyleTable
0
DIMSTYLE
105
4
330
53
100
AcDbSymbolTableRecord
100
AcDbDimStyleTableRecord
2
STANDARD
70
0
40
1
41
2.5
42
0.625
43
3.75
44
1.25
140
2.5
141
2.5
147
0.625
0
ENDTAB
0
TABLE
2
UCS
5
54
330
0
100
AcDbSymbolTable
70
0
0
ENDTAB
0
TABLE
2
VIEW
5
55
330
0
100
AcDbSymbolTable
70
0
0
ENDTAB
0
TABLE
2
LAYER
5
56
330
0
100
AcDbSymbolTable
70
10
0
LAYER
5
5
330
56
100
AcDbSymbolTableRecord
100
AcDbLayerTableRecord
2
0
70
0
62
7
6
CONTINUOUS
290
1
370
-1
0
LAYER
5
D
330
56
100
AcDbSymbolTableRecord
100
AcDbLayerTableRecord
2
BOUNDARY
70
0
62
7
6
KJ_8e1dacc70671_CONT
290
1
370
50
0
LAYER
5
E
330
56
100
AcDbSymbolTableRecord
100
AcDbLayerTableRecord
2
BUILDINGS
70
0
62
8
6
KJ_8e1dacc70671_CONT
290
1
370
25
0
LAYER
5
F
330
56
100
AcDbSymbolTableRecord
100
AcDbLayerTableRecord
2
ROADS
70
0
62
3
6
KJ_8e1dacc70671_CONT
290
1
370
25
0
LAYER
5
10
330
56
100
AcDbSymbolTableRecord
100
AcDbLayerTableRecord
2
GRID
70
0
62
8
6
KJ_8e1dacc70671_GRID
290
1
370
13
0
LAYER
5
11
330
56
100
AcDbSymbolTableRecord
100
AcDbLayerTableRecord
2
COORDINATES
70
0
62
2
6
KJ_8e1dacc70671_CONT
290
1
370
18
0
LAYER
5
12
330
56
100
AcDbSymbolTableRecord
100
AcDbLayerTableRecord
2
DIMENSIONS
70
0
62
3
6
KJ_8e1dacc70671_CONT
290
1
370
18
0
LAYER
5
13
330
56
100
AcDbSymbolTableRecord
100
AcDbLayerTableRecord
2
POINTS
70
0
62
1
6
KJ_8e1dacc70671_CONT
290
1
370
35
0
LAYER
5
14
330
56
100
AcDbSymbolTableRecord
100
AcDbLayerTableRecord
2
SECTIONS
70
0
62
2
6
KJ_8e1dacc70671_SECTION
290
1
370
35
0
LAYER
5
15
330
56
100
AcDbSymbolTableRecord
100
AcDbLayerTableRecord
2
ANNOTATION
70
0
62
7
6
KJ_8e1dacc70671_CONT
290
1
370
18
0
ENDTAB
0
TABLE
2
BLOCK_RECORD
5
57
330
0
100
AcDbSymbolTable
70
3
0
BLOCK_RECORD
5
6
330
57
100
AcDbSymbolTableRecord
100
AcDbBlockTableRecord
2
*MODEL_SPACE
70
0
280
1
281
0
340
8
0
BLOCK_RECORD
5
7
330
57
100
AcDbSymbolTableRecord
100
AcDbBlockTableRecord
2
*PAPER_SPACE
70
0
280
1
281
0
340
9
0
BLOCK_RECORD
5
4E
330
57
100
AcDbSymbolTableRecord
100
AcDbBlockTableRecord
2
*PAPER_SPACE_2
70
0
280
1
281
0
340
4F
0
ENDTAB
0
ENDSEC
0
SECTION
2
BLOCKS
0
BLOCK
5
59
330
6
100
AcDbEntity
8
0
100
AcDbBlockBegin
2
*MODEL_SPACE
70
0
10
0
20
0
30
0
3
*MODEL_SPACE
1

0
ENDBLK
5
5A
330
6
100
AcDbEntity
8
0
100
AcDbBlockEnd
0
BLOCK
5
5B
330
7
100
AcDbEntity
8
0
100
AcDbBlockBegin
2
*PAPER_SPACE
70
0
10
0
20
0
30
0
3
*PAPER_SPACE
1

0
ENDBLK
5
5C
330
7
100
AcDbEntity
8
0
100
AcDbBlockEnd
0
BLOCK
5
5D
330
4E
100
AcDbEntity
8
0
100
AcDbBlockBegin
2
*PAPER_SPACE_2
70
0
10
0
20
0
30
0
3
*PAPER_SPACE_2
1

0
VIEWPORT
5
50
330
4E
100
AcDbEntity
8
0
67
1
410
KJ_GEO_PLAN_8E1DACC70671_A3
100
AcDbViewport
10
210
20
155
30
0
40
390
41
250
68
1
69
2
12
1050
22
1000
16
0
26
0
36
1
17
0
27
0
37
0
42
50
43
0
44
0
45
125
51
0
90
0
0
ENDBLK
5
5E
330
4E
100
AcDbEntity
8
0
100
AcDbBlockEnd
0
ENDSEC
0
SECTION
2
ENTITIES
0
LWPOLYLINE
5
16
330
6
100
AcDbEntity
8
BOUNDARY
100
AcDbPolyline
90
4
70
1
38
0
10
980
20
980
10
1120
20
980
10
1120
20
1020
10
980
20
1020
0
LINE
5
17
330
6
100
AcDbEntity
8
GRID
100
AcDbLine
10
980
20
980
30
0
11
980
21
1020
31
0
0
TEXT
5
18
330
6
100
AcDbEntity
8
ANNOTATION
100
AcDbText
10
980
20
978.25
30
0
40
0.8999999999999999
1
E 980
7
STANDARD
100
AcDbText
0
LINE
5
19
330
6
100
AcDbEntity
8
GRID
100
AcDbLine
10
1000
20
980
30
0
11
1000
21
1020
31
0
0
TEXT
5
1A
330
6
100
AcDbEntity
8
ANNOTATION
100
AcDbText
10
1000
20
978.25
30
0
40
0.8999999999999999
1
E 1000
7
STANDARD
100
AcDbText
0
LINE
5
1B
330
6
100
AcDbEntity
8
GRID
100
AcDbLine
10
1020
20
980
30
0
11
1020
21
1020
31
0
0
TEXT
5
1C
330
6
100
AcDbEntity
8
ANNOTATION
100
AcDbText
10
1020
20
978.25
30
0
40
0.8999999999999999
1
E 1020
7
STANDARD
100
AcDbText
0
LINE
5
1D
330
6
100
AcDbEntity
8
GRID
100
AcDbLine
10
1040
20
980
30
0
11
1040
21
1020
31
0
0
TEXT
5
1E
330
6
100
AcDbEntity
8
ANNOTATION
100
AcDbText
10
1040
20
978.25
30
0
40
0.8999999999999999
1
E 1040
7
STANDARD
100
AcDbText
0
LINE
5
1F
330
6
100
AcDbEntity
8
GRID
100
AcDbLine
10
1060
20
980
30
0
11
1060
21
1020
31
0
0
TEXT
5
20
330
6
100
AcDbEntity
8
ANNOTATION
100
AcDbText
10
1060
20
978.25
30
0
40
0.8999999999999999
1
E 1060
7
STANDARD
100
AcDbText
0
LINE
5
21
330
6
100
AcDbEntity
8
GRID
100
AcDbLine
10
1080
20
980
30
0
11
1080
21
1020
31
0
0
TEXT
5
22
330
6
100
AcDbEntity
8
ANNOTATION
100
AcDbText
10
1080
20
978.25
30
0
40
0.8999999999999999
1
E 1080
7
STANDARD
100
AcDbText
0
LINE
5
23
330
6
100
AcDbEntity
8
GRID
100
AcDbLine
10
1100
20
980
30
0
11
1100
21
1020
31
0
0
TEXT
5
24
330
6
100
AcDbEntity
8
ANNOTATION
100
AcDbText
10
1100
20
978.25
30
0
40
0.8999999999999999
1
E 1100
7
STANDARD
100
AcDbText
0
LINE
5
25
330
6
100
AcDbEntity
8
GRID
100
AcDbLine
10
1120
20
980
30
0
11
1120
21
1020
31
0
0
TEXT
5
26
330
6
100
AcDbEntity
8
ANNOTATION
100
AcDbText
10
1120
20
978.25
30
0
40
0.8999999999999999
1
E 1120
7
STANDARD
100
AcDbText
0
LINE
5
27
330
6
100
AcDbEntity
8
GRID
100
AcDbLine
10
980
20
980
30
0
11
1120
21
980
31
0
0
TEXT
5
28
330
6
100
AcDbEntity
8
ANNOTATION
100
AcDbText
10
974.75
20
980
30
0
40
0.8999999999999999
1
N 980
7
STANDARD
100
AcDbText
0
LINE
5
29
330
6
100
AcDbEntity
8
GRID
100
AcDbLine
10
980
20
1000
30
0
11
1120
21
1000
31
0
0
TEXT
5
2A
330
6
100
AcDbEntity
8
ANNOTATION
100
AcDbText
10
974.75
20
1000
30
0
40
0.8999999999999999
1
N 1000
7
STANDARD
100
AcDbText
0
LINE
5
2B
330
6
100
AcDbEntity
8
GRID
100
AcDbLine
10
980
20
1020
30
0
11
1120
21
1020
31
0
0
TEXT
5
2C
330
6
100
AcDbEntity
8
ANNOTATION
100
AcDbText
10
974.75
20
1020
30
0
40
0.8999999999999999
1
N 1020
7
STANDARD
100
AcDbText
0
CIRCLE
5
2D
330
6
100
AcDbEntity
8
POINTS
100
AcDbCircle
10
1000
20
1000
30
0
40
1.1
210
0
220
0
230
1
0
LINE
5
2E
330
6
100
AcDbEntity
8
POINTS
100
AcDbLine
10
998.9
20
1000
30
0
11
1001.1
21
1000
31
0
0
LINE
5
2F
330
6
100
AcDbEntity
8
POINTS
100
AcDbLine
10
1000
20
998.9
30
0
11
1000
21
1001.1
31
0
0
TEXT
5
30
330
6
100
AcDbEntity
8
ANNOTATION
100
AcDbText
10
1001.375
20
1000.3125
30
0
40
1.25
1
ZK01
7
STANDARD
100
AcDbText
0
TEXT
5
31
330
6
100
AcDbEntity
8
ANNOTATION
100
AcDbText
10
1001.375
20
998.75
30
0
40
0.95
1
H=300  D=30
7
STANDARD
100
AcDbText
0
CIRCLE
5
32
330
6
100
AcDbEntity
8
POINTS
100
AcDbCircle
10
1025
20
1000
30
0
40
1.1
210
0
220
0
230
1
0
LINE
5
33
330
6
100
AcDbEntity
8
POINTS
100
AcDbLine
10
1023.9
20
1000
30
0
11
1026.1
21
1000
31
0
0
LINE
5
34
330
6
100
AcDbEntity
8
POINTS
100
AcDbLine
10
1025
20
998.9
30
0
11
1025
21
1001.1
31
0
0
TEXT
5
35
330
6
100
AcDbEntity
8
ANNOTATION
100
AcDbText
10
1026.375
20
1000.3125
30
0
40
1.25
1
ZK02
7
STANDARD
100
AcDbText
0
TEXT
5
36
330
6
100
AcDbEntity
8
ANNOTATION
100
AcDbText
10
1026.375
20
998.75
30
0
40
0.95
1
H=300.35  D=30
7
STANDARD
100
AcDbText
0
CIRCLE
5
37
330
6
100
AcDbEntity
8
POINTS
100
AcDbCircle
10
1050
20
1000
30
0
40
1.1
210
0
220
0
230
1
0
LINE
5
38
330
6
100
AcDbEntity
8
POINTS
100
AcDbLine
10
1048.9
20
1000
30
0
11
1051.1
21
1000
31
0
0
LINE
5
39
330
6
100
AcDbEntity
8
POINTS
100
AcDbLine
10
1050
20
998.9
30
0
11
1050
21
1001.1
31
0
0
TEXT
5
3A
330
6
100
AcDbEntity
8
ANNOTATION
100
AcDbText
10
1051.375
20
1000.3125
30
0
40
1.25
1
ZK03
7
STANDARD
100
AcDbText
0
TEXT
5
3B
330
6
100
AcDbEntity
8
ANNOTATION
100
AcDbText
10
1051.375
20
998.75
30
0
40
0.95
1
H=299.85  D=30
7
STANDARD
100
AcDbText
0
CIRCLE
5
3C
330
6
100
AcDbEntity
8
POINTS
100
AcDbCircle
10
1075
20
1000
30
0
40
1.1
210
0
220
0
230
1
0
LINE
5
3D
330
6
100
AcDbEntity
8
POINTS
100
AcDbLine
10
1073.9
20
1000
30
0
11
1076.1
21
1000
31
0
0
LINE
5
3E
330
6
100
AcDbEntity
8
POINTS
100
AcDbLine
10
1075
20
998.9
30
0
11
1075
21
1001.1
31
0
0
TEXT
5
3F
330
6
100
AcDbEntity
8
ANNOTATION
100
AcDbText
10
1076.375
20
1000.3125
30
0
40
1.25
1
ZK04
7
STANDARD
100
AcDbText
0
TEXT
5
40
330
6
100
AcDbEntity
8
ANNOTATION
100
AcDbText
10
1076.375
20
998.75
30
0
40
0.95
1
H=300.25  D=30
7
STANDARD
100
AcDbText
0
CIRCLE
5
41
330
6
100
AcDbEntity
8
POINTS
100
AcDbCircle
10
1100
20
1000
30
0
40
1.1
210
0
220
0
230
1
0
LINE
5
42
330
6
100
AcDbEntity
8
POINTS
100
AcDbLine
10
1098.9
20
1000
30
0
11
1101.1
21
1000
31
0
0
LINE
5
43
330
6
100
AcDbEntity
8
POINTS
100
AcDbLine
10
1100
20
998.9
30
0
11
1100
21
1001.1
31
0
0
TEXT
5
44
330
6
100
AcDbEntity
8
ANNOTATION
100
AcDbText
10
1101.375
20
1000.3125
30
0
40
1.25
1
ZK05
7
STANDARD
100
AcDbText
0
TEXT
5
45
330
6
100
AcDbEntity
8
ANNOTATION
100
AcDbText
10
1101.375
20
998.75
30
0
40
0.95
1
H=299.7  D=30
7
STANDARD
100
AcDbText
0
LWPOLYLINE
5
46
330
6
100
AcDbEntity
8
SECTIONS
100
AcDbPolyline
90
5
70
0
38
0
10
1000
20
1000
10
1025
20
1000
10
1050
20
1000
10
1075
20
1000
10
1100
20
1000
0
TEXT
5
47
330
6
100
AcDbEntity
8
SECTIONS
100
AcDbText
10
1000
20
1001.6875
30
0
40
1.25
1
A
7
STANDARD
100
AcDbText
0
TEXT
5
48
330
6
100
AcDbEntity
8
SECTIONS
100
AcDbText
10
1100
20
1001.6875
30
0
40
1.25
1
A′
7
STANDARD
100
AcDbText
0
LINE
5
49
330
6
100
AcDbEntity
8
ANNOTATION
100
AcDbLine
10
1116.64
20
1016.64
30
0
11
1116.64
21
1022.64
31
0
0
LWPOLYLINE
5
4A
330
6
100
AcDbEntity
8
ANNOTATION
100
AcDbPolyline
90
3
70
1
38
0
10
1116.64
20
1022.64
10
1115.9092579026933
20
1021.1272488680474
10
1117.370742097307
20
1021.1272488680474
0
TEXT
5
4B
330
6
100
AcDbEntity
8
ANNOTATION
100
AcDbText
10
1116.64
20
1023.89
30
0
40
1.4375
1
N
7
STANDARD
100
AcDbText
0
TEXT
5
4C
330
6
100
AcDbEntity
8
ANNOTATION
100
AcDbText
10
980
20
1023
30
0
40
1.5625
1
INVESTIGATION POINT PLAN · ILLUSTRATIVE, NOT MEASURED
7
STANDARD
100
AcDbText
0
TEXT
5
4D
330
6
100
AcDbEntity
8
ANNOTATION
100
AcDbText
10
980
20
1021
30
0
40
1.025
1
DRAWING SYNTHETIC-INVESTIGATION-PLAN  SCALE 1:500
7
STANDARD
100
AcDbText
0
ENDSEC
0
SECTION
2
OBJECTS
0
DICTIONARY
5
5F
330
0
100
AcDbDictionary
281
1
3
ACAD_LAYOUT
350
60
0
DICTIONARY
5
60
330
5F
100
AcDbDictionary
280
1
281
1
3
Model
350
8
3
Layout1
350
9
3
KJ_GEO_PLAN_8E1DACC70671_A3
350
4F
0
LAYOUT
5
8
102
{ACAD_REACTORS
330
60
102
}
330
60
100
AcDbPlotSettings
100
AcDbLayout
1
Model
70
1
71
0
12
0
22
0
32
0
14
100000000000000000000
24
100000000000000000000
34
100000000000000000000
15
-100000000000000000000
25
-100000000000000000000
35
-100000000000000000000
13
0
23
0
33
0
16
1
26
0
36
0
17
0
27
1
37
0
330
6
0
LAYOUT
5
9
102
{ACAD_REACTORS
330
60
102
}
330
60
100
AcDbPlotSettings
100
AcDbLayout
1
Layout1
70
1
71
1
10
0
20
0
11
420
21
297
12
0
22
0
32
0
14
100000000000000000000
24
100000000000000000000
34
100000000000000000000
15
-100000000000000000000
25
-100000000000000000000
35
-100000000000000000000
13
0
23
0
33
0
16
1
26
0
36
0
17
0
27
1
37
0
330
7
0
LAYOUT
5
4F
102
{ACAD_REACTORS
330
60
102
}
330
60
100
AcDbPlotSettings
40
15
41
25
42
15
43
12
44
420
45
297
46
0
47
0
142
1
143
1
70
0
72
1
73
0
74
5
100
AcDbLayout
1
KJ_GEO_PLAN_8E1DACC70671_A3
70
1
71
2
10
-15
20
-25
11
405
21
272
12
0
22
0
32
0
14
100000000000000000000
24
100000000000000000000
34
100000000000000000000
15
-100000000000000000000
25
-100000000000000000000
35
-100000000000000000000
13
0
23
0
33
0
16
1
26
0
36
0
17
0
27
1
37
0
330
4E
0
ENDSEC
0
EOF
