0
SECTION
2
HEADER
9
$ACADVER
1
AC1032
9
$DWGCODEPAGE
3
UTF-8
9
$HANDSEED
5
91
9
$LTSCALE
40
1
9
$PDMODE
70
0
9
$PDSIZE
40
0
9
$TEXTSTYLE
7
STANDARD
9
$INSUNITS
70
6
9
$MEASUREMENT
70
1
0
ENDSEC
0
SECTION
2
TABLES
0
TABLE
2
LTYPE
5
83
330
0
100
AcDbSymbolTable
70
1
0
LTYPE
5
2
330
83
100
AcDbSymbolTableRecord
100
AcDbLinetypeTableRecord
2
CONTINUOUS
70
0
3
Solid line
72
65
73
0
40
0
0
ENDTAB
0
TABLE
2
STYLE
5
84
330
0
100
AcDbSymbolTable
70
1
0
STYLE
5
3
330
84
100
AcDbSymbolTableRecord
100
AcDbTextStyleTableRecord
2
STANDARD
70
0
40
0
41
1
50
0
71
0
42
2.5
3
sans-serif
4

0
ENDTAB
0
TABLE
2
DIMSTYLE
5
85
330
0
100
AcDbSymbolTable
70
1
100
AcDbDimStyleTable
0
DIMSTYLE
105
4
330
85
100
AcDbSymbolTableRecord
100
AcDbDimStyleTableRecord
2
STANDARD
70
0
40
1
41
2.5
42
0.625
43
3.75
44
1.25
140
2.5
141
2.5
147
0.625
0
ENDTAB
0
TABLE
2
UCS
5
86
330
0
100
AcDbSymbolTable
70
0
0
ENDTAB
0
TABLE
2
VIEW
5
87
330
0
100
AcDbSymbolTable
70
0
0
ENDTAB
0
TABLE
2
LAYER
5
88
330
0
100
AcDbSymbolTable
70
9
0
LAYER
5
5
330
88
100
AcDbSymbolTableRecord
100
AcDbLayerTableRecord
2
0
70
0
62
7
6
CONTINUOUS
290
1
370
-1
0
LAYER
5
A
330
88
100
AcDbSymbolTableRecord
100
AcDbLayerTableRecord
2
FRAME
70
0
62
7
6
CONTINUOUS
290
1
370
-1
0
LAYER
5
B
330
88
100
AcDbSymbolTableRecord
100
AcDbLayerTableRecord
2
GEO-GRID
70
0
62
8
6
CONTINUOUS
290
1
370
-1
0
LAYER
5
C
330
88
100
AcDbSymbolTableRecord
100
AcDbLayerTableRecord
2
GEO-STRATA
70
0
62
6
6
CONTINUOUS
290
1
370
-1
0
LAYER
5
D
330
88
100
AcDbSymbolTableRecord
100
AcDbLayerTableRecord
2
GEO-WATER
70
0
62
4
6
CONTINUOUS
290
1
370
-1
0
LAYER
5
E
330
88
100
AcDbSymbolTableRecord
100
AcDbLayerTableRecord
2
GEO-POINTS
70
0
62
3
6
CONTINUOUS
290
1
370
-1
0
LAYER
5
F
330
88
100
AcDbSymbolTableRecord
100
AcDbLayerTableRecord
2
DIMS
70
0
62
2
6
CONTINUOUS
290
1
370
-1
0
LAYER
5
10
330
88
100
AcDbSymbolTableRecord
100
AcDbLayerTableRecord
2
ANNO
70
0
62
7
6
CONTINUOUS
290
1
370
-1
0
LAYER
5
11
330
88
100
AcDbSymbolTableRecord
100
AcDbLayerTableRecord
2
TITLE
70
0
62
7
6
CONTINUOUS
290
1
370
-1
0
ENDTAB
0
TABLE
2
BLOCK_RECORD
5
89
330
0
100
AcDbSymbolTable
70
2
0
BLOCK_RECORD
5
6
330
89
100
AcDbSymbolTableRecord
100
AcDbBlockTableRecord
2
*MODEL_SPACE
70
0
280
1
281
0
340
8
0
BLOCK_RECORD
5
7
330
89
100
AcDbSymbolTableRecord
100
AcDbBlockTableRecord
2
*PAPER_SPACE
70
0
280
1
281
0
340
9
0
ENDTAB
0
ENDSEC
0
SECTION
2
BLOCKS
0
BLOCK
5
8B
330
6
100
AcDbEntity
8
0
100
AcDbBlockBegin
2
*MODEL_SPACE
70
0
10
0
20
0
30
0
3
*MODEL_SPACE
1

0
ENDBLK
5
8C
330
6
100
AcDbEntity
8
0
100
AcDbBlockEnd
0
BLOCK
5
8D
330
7
100
AcDbEntity
8
0
100
AcDbBlockBegin
2
*PAPER_SPACE
70
0
10
0
20
0
30
0
3
*PAPER_SPACE
1

0
ENDBLK
5
8E
330
7
100
AcDbEntity
8
0
100
AcDbBlockEnd
0
ENDSEC
0
SECTION
2
ENTITIES
0
LWPOLYLINE
5
12
330
6
100
AcDbEntity
8
FRAME
100
AcDbPolyline
90
4
70
1
38
0
10
-8
20
-12
10
248
20
-12
10
248
20
152
10
-8
20
152
0
LWPOLYLINE
5
13
330
6
100
AcDbEntity
8
FRAME
100
AcDbPolyline
90
4
70
1
38
0
10
-5
20
-9
10
245
20
-9
10
245
20
149
10
-5
20
149
0
LWPOLYLINE
5
14
330
6
100
AcDbEntity
8
FRAME
100
AcDbPolyline
90
4
70
1
38
0
10
136
20
-9
10
245
20
-9
10
245
20
9
10
136
20
9
0
LINE
5
15
330
6
100
AcDbEntity
8
FRAME
100
AcDbLine
10
194
20
-9
30
0
11
194
21
9
31
0
0
LINE
5
16
330
6
100
AcDbEntity
8
FRAME
100
AcDbLine
10
218
20
-9
30
0
11
218
21
9
31
0
0
LINE
5
17
330
6
100
AcDbEntity
8
FRAME
100
AcDbLine
10
194
20
0
30
0
11
245
21
0
31
0
0
TEXT
5
18
330
6
100
AcDbEntity
8
TITLE
100
AcDbText
10
139
20
2
30
0
40
2.25
1
LOESS SITE · GEOLOGICAL SECTION A—A
7
STANDARD
100
AcDbText
0
TEXT
5
19
330
6
100
AcDbEntity
8
TITLE
100
AcDbText
10
139
20
-4
30
0
40
1.35
1
ENGINEERING GEOLOGY
7
STANDARD
100
AcDbText
0
TEXT
5
1A
330
6
100
AcDbEntity
8
TITLE
100
AcDbText
10
197
20
3.5
30
0
40
1.15
1
SCALE  H 1:500 / V 1:200
7
STANDARD
100
AcDbText
0
TEXT
5
1B
330
6
100
AcDbEntity
8
TITLE
100
AcDbText
10
197
20
-4.5
30
0
40
1.15
1
REV  A
7
STANDARD
100
AcDbText
0
TEXT
5
1C
330
6
100
AcDbEntity
8
TITLE
100
AcDbText
10
221
20
3.5
30
0
40
1.2
1
G-201
7
STANDARD
100
AcDbText
0
TEXT
5
1D
330
6
100
AcDbEntity
8
TITLE
100
AcDbText
10
221
20
-4.5
30
0
40
0.95
1
SYNTHETIC
7
STANDARD
100
AcDbText
0
LWPOLYLINE
5
1E
330
6
100
AcDbEntity
8
GEO-GRID
100
AcDbPolyline
90
4
70
1
38
0
10
18
20
35
10
232
20
35
10
232
20
130
10
18
20
130
0
LINE
5
1F
330
6
100
AcDbEntity
8
GEO-GRID
100
AcDbLine
10
18
20
35
30
0
11
18
21
130
31
0
0
TEXT
5
20
330
6
100
AcDbEntity
8
ANNO
100
AcDbText
10
15.5
20
30
30
0
40
1.05
1
0
7
STANDARD
100
AcDbText
0
LINE
5
21
330
6
100
AcDbEntity
8
GEO-GRID
100
AcDbLine
10
39.4
20
35
30
0
11
39.4
21
130
31
0
0
TEXT
5
22
330
6
100
AcDbEntity
8
ANNO
100
AcDbText
10
36.9
20
30
30
0
40
1.05
1
20
7
STANDARD
100
AcDbText
0
LINE
5
23
330
6
100
AcDbEntity
8
GEO-GRID
100
AcDbLine
10
60.8
20
35
30
0
11
60.8
21
130
31
0
0
TEXT
5
24
330
6
100
AcDbEntity
8
ANNO
100
AcDbText
10
58.3
20
30
30
0
40
1.05
1
40
7
STANDARD
100
AcDbText
0
LINE
5
25
330
6
100
AcDbEntity
8
GEO-GRID
100
AcDbLine
10
82.2
20
35
30
0
11
82.2
21
130
31
0
0
TEXT
5
26
330
6
100
AcDbEntity
8
ANNO
100
AcDbText
10
79.7
20
30
30
0
40
1.05
1
60
7
STANDARD
100
AcDbText
0
LINE
5
27
330
6
100
AcDbEntity
8
GEO-GRID
100
AcDbLine
10
103.6
20
35
30
0
11
103.6
21
130
31
0
0
TEXT
5
28
330
6
100
AcDbEntity
8
ANNO
100
AcDbText
10
101.1
20
30
30
0
40
1.05
1
80
7
STANDARD
100
AcDbText
0
LINE
5
29
330
6
100
AcDbEntity
8
GEO-GRID
100
AcDbLine
10
125
20
35
30
0
11
125
21
130
31
0
0
TEXT
5
2A
330
6
100
AcDbEntity
8
ANNO
100
AcDbText
10
122.5
20
30
30
0
40
1.05
1
100
7
STANDARD
100
AcDbText
0
LINE
5
2B
330
6
100
AcDbEntity
8
GEO-GRID
100
AcDbLine
10
146.4
20
35
30
0
11
146.4
21
130
31
0
0
TEXT
5
2C
330
6
100
AcDbEntity
8
ANNO
100
AcDbText
10
143.9
20
30
30
0
40
1.05
1
120
7
STANDARD
100
AcDbText
0
LINE
5
2D
330
6
100
AcDbEntity
8
GEO-GRID
100
AcDbLine
10
167.8
20
35
30
0
11
167.8
21
130
31
0
0
TEXT
5
2E
330
6
100
AcDbEntity
8
ANNO
100
AcDbText
10
165.3
20
30
30
0
40
1.05
1
140
7
STANDARD
100
AcDbText
0
LINE
5
2F
330
6
100
AcDbEntity
8
GEO-GRID
100
AcDbLine
10
189.2
20
35
30
0
11
189.2
21
130
31
0
0
TEXT
5
30
330
6
100
AcDbEntity
8
ANNO
100
AcDbText
10
186.7
20
30
30
0
40
1.05
1
160
7
STANDARD
100
AcDbText
0
LINE
5
31
330
6
100
AcDbEntity
8
GEO-GRID
100
AcDbLine
10
210.6
20
35
30
0
11
210.6
21
130
31
0
0
TEXT
5
32
330
6
100
AcDbEntity
8
ANNO
100
AcDbText
10
208.1
20
30
30
0
40
1.05
1
180
7
STANDARD
100
AcDbText
0
LINE
5
33
330
6
100
AcDbEntity
8
GEO-GRID
100
AcDbLine
10
232
20
35
30
0
11
232
21
130
31
0
0
TEXT
5
34
330
6
100
AcDbEntity
8
ANNO
100
AcDbText
10
229.5
20
30
30
0
40
1.05
1
200
7
STANDARD
100
AcDbText
0
LINE
5
35
330
6
100
AcDbEntity
8
GEO-GRID
100
AcDbLine
10
18
20
35
30
0
11
232
21
35
31
0
0
TEXT
5
36
330
6
100
AcDbEntity
8
ANNO
100
AcDbText
10
9
20
34.5
30
0
40
1.05
1
250
7
STANDARD
100
AcDbText
0
LINE
5
37
330
6
100
AcDbEntity
8
GEO-GRID
100
AcDbLine
10
18
20
46.5
30
0
11
232
21
46.5
31
0
0
TEXT
5
38
330
6
100
AcDbEntity
8
ANNO
100
AcDbText
10
9
20
46
30
0
40
1.05
1
255
7
STANDARD
100
AcDbText
0
LINE
5
39
330
6
100
AcDbEntity
8
GEO-GRID
100
AcDbLine
10
18
20
58
30
0
11
232
21
58
31
0
0
TEXT
5
3A
330
6
100
AcDbEntity
8
ANNO
100
AcDbText
10
9
20
57.5
30
0
40
1.05
1
260
7
STANDARD
100
AcDbText
0
LINE
5
3B
330
6
100
AcDbEntity
8
GEO-GRID
100
AcDbLine
10
18
20
69.5
30
0
11
232
21
69.5
31
0
0
TEXT
5
3C
330
6
100
AcDbEntity
8
ANNO
100
AcDbText
10
9
20
69
30
0
40
1.05
1
265
7
STANDARD
100
AcDbText
0
LINE
5
3D
330
6
100
AcDbEntity
8
GEO-GRID
100
AcDbLine
10
18
20
81
30
0
11
232
21
81
31
0
0
TEXT
5
3E
330
6
100
AcDbEntity
8
ANNO
100
AcDbText
10
9
20
80.5
30
0
40
1.05
1
270
7
STANDARD
100
AcDbText
0
LINE
5
3F
330
6
100
AcDbEntity
8
GEO-GRID
100
AcDbLine
10
18
20
92.5
30
0
11
232
21
92.5
31
0
0
TEXT
5
40
330
6
100
AcDbEntity
8
ANNO
100
AcDbText
10
9
20
92
30
0
40
1.05
1
275
7
STANDARD
100
AcDbText
0
LINE
5
41
330
6
100
AcDbEntity
8
GEO-GRID
100
AcDbLine
10
18
20
104
30
0
11
232
21
104
31
0
0
TEXT
5
42
330
6
100
AcDbEntity
8
ANNO
100
AcDbText
10
9
20
103.5
30
0
40
1.05
1
280
7
STANDARD
100
AcDbText
0
LINE
5
43
330
6
100
AcDbEntity
8
GEO-GRID
100
AcDbLine
10
18
20
115.5
30
0
11
232
21
115.5
31
0
0
TEXT
5
44
330
6
100
AcDbEntity
8
ANNO
100
AcDbText
10
9
20
115
30
0
40
1.05
1
285
7
STANDARD
100
AcDbText
0
LINE
5
45
330
6
100
AcDbEntity
8
GEO-GRID
100
AcDbLine
10
18
20
127
30
0
11
232
21
127
31
0
0
TEXT
5
46
330
6
100
AcDbEntity
8
ANNO
100
AcDbText
10
9
20
126.5
30
0
40
1.05
1
290
7
STANDARD
100
AcDbText
0
LINE
5
47
330
6
100
AcDbEntity
8
GEO-POINTS
100
AcDbLine
10
30
20
116
30
0
11
30
21
37
31
0
0
CIRCLE
5
48
330
6
100
AcDbEntity
8
GEO-POINTS
100
AcDbCircle
10
30
20
116
30
0
40
1.8
210
0
220
0
230
1
0
LINE
5
49
330
6
100
AcDbEntity
8
GEO-POINTS
100
AcDbLine
10
27
20
116
30
0
11
33
21
116
31
0
0
LINE
5
4A
330
6
100
AcDbEntity
8
GEO-POINTS
100
AcDbLine
10
30
20
113
30
0
11
30
21
119
31
0
0
TEXT
5
4B
330
6
100
AcDbEntity
8
ANNO
100
AcDbText
10
25
20
121
30
0
40
1.3
1
ZK01
7
STANDARD
100
AcDbText
0
TEXT
5
4C
330
6
100
AcDbEntity
8
ANNO
100
AcDbText
10
25
20
111
30
0
40
1.05
1
H=300.00
7
STANDARD
100
AcDbText
0
LINE
5
4D
330
6
100
AcDbEntity
8
GEO-POINTS
100
AcDbLine
10
72
20
119
30
0
11
72
21
37
31
0
0
CIRCLE
5
4E
330
6
100
AcDbEntity
8
GEO-POINTS
100
AcDbCircle
10
72
20
119
30
0
40
1.8
210
0
220
0
230
1
0
LINE
5
4F
330
6
100
AcDbEntity
8
GEO-POINTS
100
AcDbLine
10
69
20
119
30
0
11
75
21
119
31
0
0
LINE
5
50
330
6
100
AcDbEntity
8
GEO-POINTS
100
AcDbLine
10
72
20
116
30
0
11
72
21
122
31
0
0
TEXT
5
51
330
6
100
AcDbEntity
8
ANNO
100
AcDbText
10
67
20
124
30
0
40
1.3
1
ZK02
7
STANDARD
100
AcDbText
0
TEXT
5
52
330
6
100
AcDbEntity
8
ANNO
100
AcDbText
10
67
20
114
30
0
40
1.05
1
H=300.80
7
STANDARD
100
AcDbText
0
LINE
5
53
330
6
100
AcDbEntity
8
GEO-POINTS
100
AcDbLine
10
114
20
113
30
0
11
114
21
37
31
0
0
CIRCLE
5
54
330
6
100
AcDbEntity
8
GEO-POINTS
100
AcDbCircle
10
114
20
113
30
0
40
1.8
210
0
220
0
230
1
0
LINE
5
55
330
6
100
AcDbEntity
8
GEO-POINTS
100
AcDbLine
10
111
20
113
30
0
11
117
21
113
31
0
0
LINE
5
56
330
6
100
AcDbEntity
8
GEO-POINTS
100
AcDbLine
10
114
20
110
30
0
11
114
21
116
31
0
0
TEXT
5
57
330
6
100
AcDbEntity
8
ANNO
100
AcDbText
10
109
20
118
30
0
40
1.3
1
ZK03
7
STANDARD
100
AcDbText
0
TEXT
5
58
330
6
100
AcDbEntity
8
ANNO
100
AcDbText
10
109
20
108
30
0
40
1.05
1
H=301.60
7
STANDARD
100
AcDbText
0
LINE
5
59
330
6
100
AcDbEntity
8
GEO-POINTS
100
AcDbLine
10
156
20
121
30
0
11
156
21
37
31
0
0
CIRCLE
5
5A
330
6
100
AcDbEntity
8
GEO-POINTS
100
AcDbCircle
10
156
20
121
30
0
40
1.8
210
0
220
0
230
1
0
LINE
5
5B
330
6
100
AcDbEntity
8
GEO-POINTS
100
AcDbLine
10
153
20
121
30
0
11
159
21
121
31
0
0
LINE
5
5C
330
6
100
AcDbEntity
8
GEO-POINTS
100
AcDbLine
10
156
20
118
30
0
11
156
21
124
31
0
0
TEXT
5
5D
330
6
100
AcDbEntity
8
ANNO
100
AcDbText
10
151
20
126
30
0
40
1.3
1
ZK04
7
STANDARD
100
AcDbText
0
TEXT
5
5E
330
6
100
AcDbEntity
8
ANNO
100
AcDbText
10
151
20
116
30
0
40
1.05
1
H=302.40
7
STANDARD
100
AcDbText
0
LINE
5
5F
330
6
100
AcDbEntity
8
GEO-POINTS
100
AcDbLine
10
198
20
117
30
0
11
198
21
37
31
0
0
CIRCLE
5
60
330
6
100
AcDbEntity
8
GEO-POINTS
100
AcDbCircle
10
198
20
117
30
0
40
1.8
210
0
220
0
230
1
0
LINE
5
61
330
6
100
AcDbEntity
8
GEO-POINTS
100
AcDbLine
10
195
20
117
30
0
11
201
21
117
31
0
0
LINE
5
62
330
6
100
AcDbEntity
8
GEO-POINTS
100
AcDbLine
10
198
20
114
30
0
11
198
21
120
31
0
0
TEXT
5
63
330
6
100
AcDbEntity
8
ANNO
100
AcDbText
10
193
20
122
30
0
40
1.3
1
ZK05
7
STANDARD
100
AcDbText
0
TEXT
5
64
330
6
100
AcDbEntity
8
ANNO
100
AcDbText
10
193
20
112
30
0
40
1.05
1
H=303.20
7
STANDARD
100
AcDbText
0
LWPOLYLINE
5
65
330
6
100
AcDbEntity
8
GEO-STRATA
100
AcDbPolyline
90
41
70
0
38
0
10
18
20
108
10
23.35
20
108.51434671118318
10
28.7
20
108.96632653085653
10
34.05
20
109.30113483839102
10
39.4
20
109.47817459498269
10
44.75
20
109.47597892031091
10
50.1
20
109.29481404997331
10
55.45
20
108.95664705320175
10
60.8
20
108.50248222523386
10
66.15
20
107.98738912894927
10
71.5
20
107.47382515846557
10
76.85
20
107.02406229440226
10
82.2
20
106.69263634137963
10
87.55
20
106.51973421224514
10
92.9
20
106.5263210810635
10
98.25
20
106.71159825986011
10
103.6
20
107.05310004319152
10
108.95
20
107.50941777769539
10
114.3
20
108.02522085072653
10
119.65
20
108.5379657802392
10
125
20
108.98547989807818
10
130.35
20
109.31350007038932
10
135.7
20
109.4822523508155
10
141.05
20
109.4712747534306
10
146.4
20
109.28189836213242
10
151.75
20
108.93708593063128
10
157.1
20
108.47864754352403
10
162.45
20
107.96217095228451
10
167.8
20
107.45028130612211
10
173.15
20
107.0050475661735
10
178.5
20
106.6804563600425
10
183.85
20
106.51586585625172
10
189.2
20
106.53123340627302
10
194.55
20
106.72469562437045
10
199.9
20
107.07279433164445
10
205.25
20
107.53332096752831
10
210.6
20
108.05043457083171
10
215.95
20
108.56143275171864
10
221.3
20
109.0043546432949
10
226.65
20
109.32549394014696
10
232
20
109.48591103354231
0
LWPOLYLINE
5
66
330
6
100
AcDbEntity
8
GEO-STRATA
100
AcDbPolyline
90
41
70
0
38
0
10
18
20
98.38842712493303
10
23.35
20
98.609943540414
10
28.7
20
98.63624693724657
10
34.05
20
98.46414790824507
10
39.4
20
98.1145142479094
10
44.75
20
97.62974063688635
10
50.1
20
97.06860809301493
10
55.45
20
96.49915650403109
10
60.8
20
95.99043447994451
10
66.15
20
95.60412689322551
10
71.5
20
95.38707530585259
10
76.85
20
95.36559821565493
10
82.2
20
95.54229981806175
10
87.55
20
95.89575423549417
10
92.9
20
96.38310350303011
10
98.25
20
96.94525429269653
10
103.6
20
97.51404324979707
10
108.95
20
98.02050211146899
10
114.3
20
98.40322042403713
10
119.65
20
98.61579184143223
10
125
20
98.63244110692858
10
130.35
20
98.45114942092593
10
135.7
20
98.0938992296356
10
141.05
20
97.60400875292298
10
146.4
20
97.04087945199804
10
151.75
20
96.47279333052325
10
157.1
20
95.96863342932674
10
162.45
20
95.58953144260988
10
167.8
20
95.3814552203903
10
173.15
20
95.36963495641625
10
178.5
20
95.55550391176409
10
183.85
20
95.91652462537658
10
189.2
20
96.40892168430923
10
194.55
20
96.97298969279204
10
199.9
20
97.54033282457719
10
205.25
20
98.0421581297351
10
210.6
20
98.41761699451322
10
215.95
20
98.62118331409377
10
221.3
20
98.62817374105312
10
226.65
20
98.4377406541461
10
232
20
98.07297493625924
0
LWPOLYLINE
5
67
330
6
100
AcDbEntity
8
GEO-STRATA
100
AcDbPolyline
90
41
70
0
38
0
10
18
20
87.63673536828622
10
23.35
20
87.28065203502352
10
28.7
20
86.76928378442089
10
34.05
20
86.16463635601839
10
39.4
20
85.5400260163517
10
44.75
20
84.97118962626378
10
50.1
20
84.52710120008406
10
55.45
20
84.26160849088285
10
60.8
20
84.20690370409548
10
66.15
20
84.36962004535633
10
71.5
20
84.73002741397329
10
76.85
20
85.24442476788825
10
82.2
20
85.8504390749285
10
87.55
20
86.474588328271
10
92.9
20
87.04119157589876
10
98.25
20
87.4815455822207
10
103.6
20
87.74225540965668
10
108.95
20
87.79170879906371
10
114.3
20
87.62390930076133
10
119.65
20
87.2592033714848
10
125
20
86.74181327343516
10
130.35
20
86.13447492270116
10
135.7
20
85.5108308724603
10
141.05
20
84.94650081654254
10
146.4
20
84.50991235564582
10
151.75
20
84.25400383774277
10
157.1
20
84.20980534123282
10
162.45
20
84.3826761359952
10
167.8
20
84.75165484740118
10
173.15
20
85.27200111887154
10
178.5
20
85.88062058476784
10
183.85
20
86.50371535083892
10
189.2
20
87.065732326473
10
194.55
20
87.49852438253727
10
199.9
20
87.74961350251095
10
205.25
20
87.78855398203898
10
210.6
20
87.6106241098529
10
215.95
20
87.23739869686086
10
221.3
20
86.7141330316351
10
226.65
20
86.10427546966112
10
232
20
85.48177403000288
0
LWPOLYLINE
5
68
330
6
100
AcDbEntity
8
GEO-STRATA
100
AcDbPolyline
90
41
70
0
38
0
10
18
20
75.27518401571675
10
23.35
20
74.59654115523686
10
28.7
20
73.96681952522844
10
34.05
20
73.46237575386893
10
39.4
20
73.14437595591545
10
44.75
20
73.05137906149801
10
50.1
20
73.19466136946092
10
55.45
20
73.55684924454665
10
60.8
20
74.09402575014317
10
66.15
20
74.74105577773759
10
71.5
20
75.41948397677125
10
76.85
20
76.04704782477363
10
82.2
20
76.54765233450584
10
87.55
20
76.86059691924505
10
92.9
20
76.94793561658756
10
98.25
20
76.79907820996671
10
103.6
20
76.43207434085453
10
108.95
20
75.89142490716856
10
114.3
20
75.24268612583877
10
119.65
20
74.56452054163063
10
125
20
73.93915883376573
10
130.35
20
73.44242896991805
10
135.7
20
73.13456171827313
10
141.05
20
73.05288739137171
10
146.4
20
73.20730937495388
10
151.75
20
73.57910329713702
10
157.1
20
74.12318744415752
10
162.45
20
74.77358912438221
10
167.8
20
75.451444158948
10
173.15
20
76.07455952419797
10
178.5
20
76.56737963177567
10
183.85
20
76.87014778932769
10
189.2
20
76.94615197279691
10
194.55
20
76.78617632727132
10
199.9
20
76.40961863154835
10
205.25
20
75.86213822872425
10
210.6
20
75.21011962198392
10
215.95
20
74.53262304992674
10
221.3
20
73.91179807099078
10
226.65
20
73.42292255371498
10
232
20
73.12527489083486
0
LWPOLYLINE
5
69
330
6
100
AcDbEntity
8
GEO-STRATA
100
AcDbPolyline
90
41
70
0
38
0
10
18
20
62.41071475985335
10
23.35
20
62.03638958712726
10
28.7
20
61.900161159115385
10
34.05
20
62.0185477958646
10
39.4
20
62.377194576132425
10
44.75
20
62.93261393725156
10
50.1
20
63.6174587410286
10
55.45
20
64.34868842231641
10
60.8
20
65.03763803739108
10
66.15
20
65.60076929395896
10
71.5
20
65.96979995122695
10
76.85
20
66.09998335394243
10
82.2
20
65.97553416902753
10
87.55
20
65.61154242942172
10
92.9
20
65.05214379856156
10
98.25
20
64.36516791929891
10
103.6
20
63.63391375943174
10
108.95
20
62.94704923082369
10
114.3
20
62.387859799496475
10
119.65
20
62.024149741901695
10
125
20
61.900020566243526
10
130.35
20
62.030523502875255
10
135.7
20
62.39983447377003
10
141.05
20
62.96317283436574
10
146.4
20
63.652231231558545
10
151.75
20
64.38345818272538
10
157.1
20
65.06818907518199
10
162.45
20
65.62339715604989
10
167.8
20
65.98176090583262
10
173.15
20
66.09982708060384
10
178.5
20
65.96327961660184
10
183.85
20
65.5886755184466
10
189.2
20
65.02143724659298
10
194.55
20
64.3303450362242
10
199.9
20
63.599196979114204
10
205.25
20
62.91664812168197
10
210.6
20
62.36546063507797
10
215.95
20
62.01246852335276
10
221.3
20
61.90047369474668
10
226.65
20
62.04305603452674
10
232
20
62.42292678177948
0
LWPOLYLINE
5
6A
330
6
100
AcDbEntity
8
GEO-STRATA
100
AcDbPolyline
90
41
70
0
38
0
10
18
20
50.84242038200794
10
23.35
20
51.19207964933265
10
28.7
20
51.76095752915531
10
34.05
20
52.480074976326364
10
39.4
20
53.26223571091361
10
44.75
20
54.01259916600639
10
50.1
20
54.64018034028322
10
55.45
20
55.068882145615184
10
60.8
20
55.246722527092864
10
66.15
20
55.152137524965894
10
71.5
20
54.796596003402854
10
76.85
20
54.2232089982487
10
82.2
20
53.501502306725556
10
87.55
20
52.718986166487305
10
92.9
20
51.970544239005534
10
98.25
20
51.346928531589214
10
103.6
20
50.92375530137119
10
108.95
20
50.75233623823891
10
114.3
20
50.853456687720296
10
119.65
20
51.214855332759925
10
125
20
51.79271093449902
10
130.35
20
52.51695585793881
10
135.7
20
53.29977209319487
10
141.05
20
54.046239590902
10
146.4
20
54.665845752393004
10
151.75
20
55.08346049631941
10
157.1
20
55.248446124682815
10
162.45
20
55.140797375349536
10
167.8
20
54.77356715159446
10
173.15
20
54.19128379787105
10
178.5
20
53.464551834360044
10
183.85
20
52.681490835930994
10
189.2
20
51.93705053060345
10
194.55
20
51.321497710695574
10
199.9
20
50.90947097134767
10
205.25
20
50.75093043944176
10
210.6
20
50.86509987968422
10
215.95
20
51.238135725199776
10
221.3
20
51.824805673339846
10
226.65
20
52.553973309285034
10
232
20
53.337223721741644
0
TEXT
5
6B
330
6
100
AcDbEntity
8
ANNO
100
AcDbText
10
179
20
104
30
0
40
1.25
1
MALAN LOESS
7
STANDARD
100
AcDbText
0
TEXT
5
6C
330
6
100
AcDbEntity
8
ANNO
100
AcDbText
10
179
20
93
30
0
40
1.25
1
PALEOSOL
7
STANDARD
100
AcDbText
0
TEXT
5
6D
330
6
100
AcDbEntity
8
ANNO
100
AcDbText
10
179
20
82
30
0
40
1.25
1
LISHI LOESS
7
STANDARD
100
AcDbText
0
TEXT
5
6E
330
6
100
AcDbEntity
8
ANNO
100
AcDbText
10
179
20
71
30
0
40
1.25
1
PALEOSOL
7
STANDARD
100
AcDbText
0
TEXT
5
6F
330
6
100
AcDbEntity
8
ANNO
100
AcDbText
10
179
20
60
30
0
40
1.25
1
SILTY CLAY
7
STANDARD
100
AcDbText
0
LWPOLYLINE
5
70
330
6
100
AcDbEntity
8
GEO-WATER
100
AcDbPolyline
90
2
70
0
38
0
10
18
20
101
10
232
20
104
0
TEXT
5
71
330
6
100
AcDbEntity
8
GEO-WATER
100
AcDbText
10
195
20
98
30
0
40
1.2
1
GROUNDWATER
7
STANDARD
100
AcDbText
0
LINE
5
72
330
6
100
AcDbEntity
8
DIMS
100
AcDbLine
10
18
20
35
30
0
11
18
21
23.5
31
0
0
LINE
5
73
330
6
100
AcDbEntity
8
DIMS
100
AcDbLine
10
232
20
35
30
0
11
232
21
23.5
31
0
0
LINE
5
74
330
6
100
AcDbEntity
8
DIMS
100
AcDbLine
10
18
20
25
30
0
11
232
21
25
31
0
0
LINE
5
75
330
6
100
AcDbEntity
8
DIMS
100
AcDbLine
10
18
20
25
30
0
11
16.31134414899597
21
26.071653589957993
31
0
0
LINE
5
76
330
6
100
AcDbEntity
8
DIMS
100
AcDbLine
10
18
20
25
30
0
11
16.31134414899597
21
23.928346410042007
31
0
0
LINE
5
77
330
6
100
AcDbEntity
8
DIMS
100
AcDbLine
10
232
20
25
30
0
11
233.68865585100403
21
23.928346410042007
31
0
0
LINE
5
78
330
6
100
AcDbEntity
8
DIMS
100
AcDbLine
10
232
20
25
30
0
11
233.68865585100403
21
26.071653589957993
31
0
0
TEXT
5
79
330
6
100
AcDbEntity
8
DIMS
100
AcDbText
10
112
20
23.9
30
0
40
1.5
1
SECTION LENGTH 100 m
7
STANDARD
100
AcDbText
0
LINE
5
7A
330
6
100
AcDbEntity
8
DIMS
100
AcDbLine
10
18
20
35
30
0
11
8.5
21
35
31
0
0
LINE
5
7B
330
6
100
AcDbEntity
8
DIMS
100
AcDbLine
10
18
20
130
30
0
11
8.5
21
130
31
0
0
LINE
5
7C
330
6
100
AcDbEntity
8
DIMS
100
AcDbLine
10
10
20
35
30
0
11
10
21
130
31
0
0
LINE
5
7D
330
6
100
AcDbEntity
8
DIMS
100
AcDbLine
10
10
20
35
30
0
11
8.928346410042005
21
33.31134414899597
31
0
0
LINE
5
7E
330
6
100
AcDbEntity
8
DIMS
100
AcDbLine
10
10
20
35
30
0
11
11.071653589957993
21
33.31134414899597
31
0
0
LINE
5
7F
330
6
100
AcDbEntity
8
DIMS
100
AcDbLine
10
10
20
130
30
0
11
11.071653589957993
21
131.68865585100403
31
0
0
LINE
5
80
330
6
100
AcDbEntity
8
DIMS
100
AcDbLine
10
10
20
130
30
0
11
8.928346410042005
21
131.68865585100403
31
0
0
TEXT
5
81
330
6
100
AcDbEntity
8
DIMS
100
AcDbText
10
8.9
20
76.65
30
0
40
1.5
1
ELEVATION
7
STANDARD
50
90
100
AcDbText
0
TEXT
5
82
330
6
100
AcDbEntity
8
TITLE
100
AcDbText
10
20
20
21
30
0
40
1.15
1
A—A′  ·  FIVE BOREHOLES  ·  INTERPRETED STRATA  ·  SYNTHETIC SAMPLE
7
STANDARD
100
AcDbText
0
ENDSEC
0
SECTION
2
OBJECTS
0
DICTIONARY
5
8F
330
0
100
AcDbDictionary
281
1
3
ACAD_LAYOUT
350
90
0
DICTIONARY
5
90
330
8F
100
AcDbDictionary
280
1
281
1
3
Model
350
8
3
Layout1
350
9
0
LAYOUT
5
8
102
{ACAD_REACTORS
330
90
102
}
330
90
100
AcDbPlotSettings
100
AcDbLayout
1
Model
70
1
71
0
12
0
22
0
32
0
14
100000000000000000000
24
100000000000000000000
34
100000000000000000000
15
-100000000000000000000
25
-100000000000000000000
35
-100000000000000000000
13
0
23
0
33
0
16
1
26
0
36
0
17
0
27
1
37
0
330
6
0
LAYOUT
5
9
102
{ACAD_REACTORS
330
90
102
}
330
90
100
AcDbPlotSettings
100
AcDbLayout
1
Layout1
70
1
71
1
10
0
20
0
11
420
21
297
12
0
22
0
32
0
14
100000000000000000000
24
100000000000000000000
34
100000000000000000000
15
-100000000000000000000
25
-100000000000000000000
35
-100000000000000000000
13
0
23
0
33
0
16
1
26
0
36
0
17
0
27
1
37
0
330
7
0
ENDSEC
0
EOF
