0
SECTION
2
HEADER
9
$ACADVER
1
AC1032
9
$DWGCODEPAGE
3
UTF-8
9
$HANDSEED
5
122
9
$LTSCALE
40
1
9
$PDMODE
70
0
9
$PDSIZE
40
0
9
$TEXTSTYLE
7
STANDARD
9
$INSUNITS
70
4
9
$MEASUREMENT
70
1
0
ENDSEC
0
SECTION
2
TABLES
0
TABLE
2
LTYPE
5
114
330
0
100
AcDbSymbolTable
70
2
0
LTYPE
5
2
330
114
100
AcDbSymbolTableRecord
100
AcDbLinetypeTableRecord
2
CONTINUOUS
70
0
3
Solid line
72
65
73
0
40
0
0
LTYPE
5
12
330
114
100
AcDbSymbolTableRecord
100
AcDbLinetypeTableRecord
2
GEO_9C34C649AA1C26DE_CONT
70
0
3

72
65
73
0
40
0
0
ENDTAB
0
TABLE
2
STYLE
5
115
330
0
100
AcDbSymbolTable
70
1
0
STYLE
5
3
330
115
100
AcDbSymbolTableRecord
100
AcDbTextStyleTableRecord
2
STANDARD
70
0
40
0
41
1
50
0
71
0
42
2.5
3
sans-serif
4

0
ENDTAB
0
TABLE
2
DIMSTYLE
5
116
330
0
100
AcDbSymbolTable
70
1
100
AcDbDimStyleTable
0
DIMSTYLE
105
4
330
116
100
AcDbSymbolTableRecord
100
AcDbDimStyleTableRecord
2
STANDARD
70
0
40
1
41
2.5
42
0.625
43
3.75
44
1.25
140
2.5
141
2.5
147
0.625
0
ENDTAB
0
TABLE
2
UCS
5
117
330
0
100
AcDbSymbolTable
70
0
0
ENDTAB
0
TABLE
2
VIEW
5
118
330
0
100
AcDbSymbolTable
70
0
0
ENDTAB
0
TABLE
2
LAYER
5
119
330
0
100
AcDbSymbolTable
70
14
0
LAYER
5
5
330
119
100
AcDbSymbolTableRecord
100
AcDbLayerTableRecord
2
0
70
0
62
7
6
CONTINUOUS
290
1
370
-1
0
LAYER
5
A
330
119
100
AcDbSymbolTableRecord
100
AcDbLayerTableRecord
2
FRAME
70
0
62
7
6
CONTINUOUS
290
1
370
-1
0
LAYER
5
B
330
119
100
AcDbSymbolTableRecord
100
AcDbLayerTableRecord
2
GEO-GRID
70
0
62
8
6
CONTINUOUS
290
1
370
-1
0
LAYER
5
C
330
119
100
AcDbSymbolTableRecord
100
AcDbLayerTableRecord
2
GEO-STRATA
70
0
62
6
6
CONTINUOUS
290
1
370
-1
0
LAYER
5
D
330
119
100
AcDbSymbolTableRecord
100
AcDbLayerTableRecord
2
GEO-WATER
70
0
62
4
6
CONTINUOUS
290
1
370
-1
0
LAYER
5
E
330
119
100
AcDbSymbolTableRecord
100
AcDbLayerTableRecord
2
GEO-POINTS
70
0
62
3
6
CONTINUOUS
290
1
370
-1
0
LAYER
5
F
330
119
100
AcDbSymbolTableRecord
100
AcDbLayerTableRecord
2
DIMS
70
0
62
2
6
CONTINUOUS
290
1
370
-1
0
LAYER
5
10
330
119
100
AcDbSymbolTableRecord
100
AcDbLayerTableRecord
2
ANNO
70
0
62
7
6
CONTINUOUS
290
1
370
-1
0
LAYER
5
11
330
119
100
AcDbSymbolTableRecord
100
AcDbLayerTableRecord
2
TITLE
70
0
62
7
6
CONTINUOUS
290
1
370
-1
0
LAYER
5
13
330
119
100
AcDbSymbolTableRecord
100
AcDbLayerTableRecord
2
GEO_FRAME
70
0
62
7
6
GEO_9C34C649AA1C26DE_CONT
290
1
370
35
0
LAYER
5
14
330
119
100
AcDbSymbolTableRecord
100
AcDbLayerTableRecord
2
GEO_BOUNDARY
70
0
62
7
6
GEO_9C34C649AA1C26DE_CONT
290
1
370
35
0
LAYER
5
15
330
119
100
AcDbSymbolTableRecord
100
AcDbLayerTableRecord
2
GEO_HATCH
70
0
62
8
6
GEO_9C34C649AA1C26DE_CONT
290
1
370
18
0
LAYER
5
16
330
119
100
AcDbSymbolTableRecord
100
AcDbLayerTableRecord
2
GEO_TEXT
70
0
62
7
6
GEO_9C34C649AA1C26DE_CONT
290
1
370
18
0
LAYER
5
17
330
119
100
AcDbSymbolTableRecord
100
AcDbLayerTableRecord
2
GEO_GUIDE
70
0
62
9
6
GEO_9C34C649AA1C26DE_CONT
290
1
370
9
0
ENDTAB
0
TABLE
2
BLOCK_RECORD
5
11A
330
0
100
AcDbSymbolTable
70
2
0
BLOCK_RECORD
5
6
330
11A
100
AcDbSymbolTableRecord
100
AcDbBlockTableRecord
2
*MODEL_SPACE
70
0
280
1
281
0
340
8
0
BLOCK_RECORD
5
7
330
11A
100
AcDbSymbolTableRecord
100
AcDbBlockTableRecord
2
*PAPER_SPACE
70
0
280
1
281
0
340
9
0
ENDTAB
0
ENDSEC
0
SECTION
2
BLOCKS
0
BLOCK
5
11C
330
6
100
AcDbEntity
8
0
100
AcDbBlockBegin
2
*MODEL_SPACE
70
0
10
0
20
0
30
0
3
*MODEL_SPACE
1

0
ENDBLK
5
11D
330
6
100
AcDbEntity
8
0
100
AcDbBlockEnd
0
BLOCK
5
11E
330
7
100
AcDbEntity
8
0
100
AcDbBlockBegin
2
*PAPER_SPACE
70
0
10
0
20
0
30
0
3
*PAPER_SPACE
1

0
ENDBLK
5
11F
330
7
100
AcDbEntity
8
0
100
AcDbBlockEnd
0
ENDSEC
0
SECTION
2
ENTITIES
0
LWPOLYLINE
5
18
330
6
100
AcDbEntity
8
GEO_FRAME
100
AcDbPolyline
90
4
70
1
38
0
10
5
20
5
10
415
20
5
10
415
20
292
10
5
20
292
0
LWPOLYLINE
5
19
330
6
100
AcDbEntity
8
GEO_FRAME
100
AcDbPolyline
90
4
70
1
38
0
10
12
20
12
10
408
20
12
10
408
20
285
10
12
20
285
0
TEXT
5
1A
330
6
100
AcDbEntity
8
GEO_TEXT
100
AcDbText
10
210
20
277
30
0
40
5
1
GEOLOGICAL SECTION A—A′ · ILLUSTRATIVE, NOT MEASURED
7
STANDARD
72
1
11
210
21
277
31
0
100
AcDbText
0
TEXT
5
1B
330
6
100
AcDbEntity
8
GEO_TEXT
100
AcDbText
10
210
20
268
30
0
40
2.5
1
HORIZONTAL 1:500   VERTICAL 1:200
7
STANDARD
72
1
11
210
21
268
31
0
100
AcDbText
0
LINE
5
1C
330
6
100
AcDbEntity
8
GEO_BOUNDARY
100
AcDbLine
10
34
20
43
30
0
11
34
21
246
31
0
0
LINE
5
1D
330
6
100
AcDbEntity
8
GEO_BOUNDARY
100
AcDbLine
10
34
20
43
30
0
11
400
21
43
31
0
0
LINE
5
1E
330
6
100
AcDbEntity
8
GEO_BOUNDARY
100
AcDbLine
10
32.2
20
48
30
0
11
36.2
21
48
31
0
0
TEXT
5
1F
330
6
100
AcDbEntity
8
GEO_TEXT
100
AcDbText
10
21
20
47.3
30
0
40
1.6
1
266
7
STANDARD
100
AcDbText
0
LINE
5
20
330
6
100
AcDbEntity
8
GEO_BOUNDARY
100
AcDbLine
10
32.2
20
58
30
0
11
36.2
21
58
31
0
0
TEXT
5
21
330
6
100
AcDbEntity
8
GEO_TEXT
100
AcDbText
10
21
20
57.3
30
0
40
1.6
1
268
7
STANDARD
100
AcDbText
0
LINE
5
22
330
6
100
AcDbEntity
8
GEO_BOUNDARY
100
AcDbLine
10
32.2
20
68
30
0
11
36.2
21
68
31
0
0
TEXT
5
23
330
6
100
AcDbEntity
8
GEO_TEXT
100
AcDbText
10
21
20
67.3
30
0
40
1.6
1
270
7
STANDARD
100
AcDbText
0
LINE
5
24
330
6
100
AcDbEntity
8
GEO_BOUNDARY
100
AcDbLine
10
32.2
20
78
30
0
11
36.2
21
78
31
0
0
TEXT
5
25
330
6
100
AcDbEntity
8
GEO_TEXT
100
AcDbText
10
21
20
77.3
30
0
40
1.6
1
272
7
STANDARD
100
AcDbText
0
LINE
5
26
330
6
100
AcDbEntity
8
GEO_BOUNDARY
100
AcDbLine
10
32.2
20
88
30
0
11
36.2
21
88
31
0
0
TEXT
5
27
330
6
100
AcDbEntity
8
GEO_TEXT
100
AcDbText
10
21
20
87.3
30
0
40
1.6
1
274
7
STANDARD
100
AcDbText
0
LINE
5
28
330
6
100
AcDbEntity
8
GEO_BOUNDARY
100
AcDbLine
10
32.2
20
98
30
0
11
36.2
21
98
31
0
0
TEXT
5
29
330
6
100
AcDbEntity
8
GEO_TEXT
100
AcDbText
10
21
20
97.3
30
0
40
1.6
1
276
7
STANDARD
100
AcDbText
0
LINE
5
2A
330
6
100
AcDbEntity
8
GEO_BOUNDARY
100
AcDbLine
10
32.2
20
108
30
0
11
36.2
21
108
31
0
0
TEXT
5
2B
330
6
100
AcDbEntity
8
GEO_TEXT
100
AcDbText
10
21
20
107.3
30
0
40
1.6
1
278
7
STANDARD
100
AcDbText
0
LINE
5
2C
330
6
100
AcDbEntity
8
GEO_BOUNDARY
100
AcDbLine
10
32.2
20
118
30
0
11
36.2
21
118
31
0
0
TEXT
5
2D
330
6
100
AcDbEntity
8
GEO_TEXT
100
AcDbText
10
21
20
117.3
30
0
40
1.6
1
280
7
STANDARD
100
AcDbText
0
LINE
5
2E
330
6
100
AcDbEntity
8
GEO_BOUNDARY
100
AcDbLine
10
32.2
20
128
30
0
11
36.2
21
128
31
0
0
TEXT
5
2F
330
6
100
AcDbEntity
8
GEO_TEXT
100
AcDbText
10
21
20
127.3
30
0
40
1.6
1
282
7
STANDARD
100
AcDbText
0
LINE
5
30
330
6
100
AcDbEntity
8
GEO_BOUNDARY
100
AcDbLine
10
32.2
20
138
30
0
11
36.2
21
138
31
0
0
TEXT
5
31
330
6
100
AcDbEntity
8
GEO_TEXT
100
AcDbText
10
21
20
137.3
30
0
40
1.6
1
284
7
STANDARD
100
AcDbText
0
LINE
5
32
330
6
100
AcDbEntity
8
GEO_BOUNDARY
100
AcDbLine
10
32.2
20
148
30
0
11
36.2
21
148
31
0
0
TEXT
5
33
330
6
100
AcDbEntity
8
GEO_TEXT
100
AcDbText
10
21
20
147.3
30
0
40
1.6
1
286
7
STANDARD
100
AcDbText
0
LINE
5
34
330
6
100
AcDbEntity
8
GEO_BOUNDARY
100
AcDbLine
10
32.2
20
158
30
0
11
36.2
21
158
31
0
0
TEXT
5
35
330
6
100
AcDbEntity
8
GEO_TEXT
100
AcDbText
10
21
20
157.3
30
0
40
1.6
1
288
7
STANDARD
100
AcDbText
0
LINE
5
36
330
6
100
AcDbEntity
8
GEO_BOUNDARY
100
AcDbLine
10
32.2
20
168
30
0
11
36.2
21
168
31
0
0
TEXT
5
37
330
6
100
AcDbEntity
8
GEO_TEXT
100
AcDbText
10
21
20
167.3
30
0
40
1.6
1
290
7
STANDARD
100
AcDbText
0
LINE
5
38
330
6
100
AcDbEntity
8
GEO_BOUNDARY
100
AcDbLine
10
32.2
20
178
30
0
11
36.2
21
178
31
0
0
TEXT
5
39
330
6
100
AcDbEntity
8
GEO_TEXT
100
AcDbText
10
21
20
177.3
30
0
40
1.6
1
292
7
STANDARD
100
AcDbText
0
LINE
5
3A
330
6
100
AcDbEntity
8
GEO_BOUNDARY
100
AcDbLine
10
32.2
20
188
30
0
11
36.2
21
188
31
0
0
TEXT
5
3B
330
6
100
AcDbEntity
8
GEO_TEXT
100
AcDbText
10
21
20
187.3
30
0
40
1.6
1
294
7
STANDARD
100
AcDbText
0
LINE
5
3C
330
6
100
AcDbEntity
8
GEO_BOUNDARY
100
AcDbLine
10
32.2
20
198
30
0
11
36.2
21
198
31
0
0
TEXT
5
3D
330
6
100
AcDbEntity
8
GEO_TEXT
100
AcDbText
10
21
20
197.3
30
0
40
1.6
1
296
7
STANDARD
100
AcDbText
0
LINE
5
3E
330
6
100
AcDbEntity
8
GEO_BOUNDARY
100
AcDbLine
10
32.2
20
208
30
0
11
36.2
21
208
31
0
0
TEXT
5
3F
330
6
100
AcDbEntity
8
GEO_TEXT
100
AcDbText
10
21
20
207.3
30
0
40
1.6
1
298
7
STANDARD
100
AcDbText
0
LINE
5
40
330
6
100
AcDbEntity
8
GEO_BOUNDARY
100
AcDbLine
10
32.2
20
218
30
0
11
36.2
21
218
31
0
0
TEXT
5
41
330
6
100
AcDbEntity
8
GEO_TEXT
100
AcDbText
10
21
20
217.3
30
0
40
1.6
1
300
7
STANDARD
100
AcDbText
0
LWPOLYLINE
5
42
330
6
100
AcDbEntity
8
GEO_FRAME
100
AcDbPolyline
90
4
70
1
38
0
10
12
20
12
10
408
20
12
10
408
20
22
10
12
20
22
0
LINE
5
43
330
6
100
AcDbEntity
8
GEO_BOUNDARY
100
AcDbLine
10
22
20
12
30
0
11
22
21
22
31
0
0
TEXT
5
44
330
6
100
AcDbEntity
8
GEO_TEXT
100
AcDbText
10
13.2
20
14.8
30
0
40
1.6
1
工程名称
7
STANDARD
100
AcDbText
0
LINE
5
45
330
6
100
AcDbEntity
8
GEO_FRAME
100
AcDbLine
10
180
20
12
30
0
11
180
21
22
31
0
0
LINE
5
46
330
6
100
AcDbEntity
8
GEO_BOUNDARY
100
AcDbLine
10
190
20
12
30
0
11
190
21
22
31
0
0
TEXT
5
47
330
6
100
AcDbEntity
8
GEO_TEXT
100
AcDbText
10
181.2
20
14.8
30
0
40
1.6
1
勘察单位
7
STANDARD
100
AcDbText
0
LINE
5
48
330
6
100
AcDbEntity
8
GEO_FRAME
100
AcDbLine
10
254
20
12
30
0
11
254
21
22
31
0
0
LINE
5
49
330
6
100
AcDbEntity
8
GEO_BOUNDARY
100
AcDbLine
10
260.5
20
12
30
0
11
260.5
21
22
31
0
0
TEXT
5
4A
330
6
100
AcDbEntity
8
GEO_TEXT
100
AcDbText
10
255.2
20
14.8
30
0
40
1.6
1
编制
7
STANDARD
100
AcDbText
0
LINE
5
4B
330
6
100
AcDbEntity
8
GEO_FRAME
100
AcDbLine
10
288
20
12
30
0
11
288
21
22
31
0
0
LINE
5
4C
330
6
100
AcDbEntity
8
GEO_BOUNDARY
100
AcDbLine
10
294.5
20
12
30
0
11
294.5
21
22
31
0
0
TEXT
5
4D
330
6
100
AcDbEntity
8
GEO_TEXT
100
AcDbText
10
289.2
20
14.8
30
0
40
1.6
1
校核
7
STANDARD
100
AcDbText
0
LINE
5
4E
330
6
100
AcDbEntity
8
GEO_FRAME
100
AcDbLine
10
322
20
12
30
0
11
322
21
22
31
0
0
LINE
5
4F
330
6
100
AcDbEntity
8
GEO_BOUNDARY
100
AcDbLine
10
328.5
20
12
30
0
11
328.5
21
22
31
0
0
TEXT
5
50
330
6
100
AcDbEntity
8
GEO_TEXT
100
AcDbText
10
323.2
20
14.8
30
0
40
1.6
1
审核
7
STANDARD
100
AcDbText
0
LINE
5
51
330
6
100
AcDbEntity
8
GEO_FRAME
100
AcDbLine
10
356
20
12
30
0
11
356
21
22
31
0
0
LINE
5
52
330
6
100
AcDbEntity
8
GEO_BOUNDARY
100
AcDbLine
10
362.5
20
12
30
0
11
362.5
21
22
31
0
0
TEXT
5
53
330
6
100
AcDbEntity
8
GEO_TEXT
100
AcDbText
10
357.2
20
14.8
30
0
40
1.6
1
图号
7
STANDARD
100
AcDbText
0
LWPOLYLINE
5
54
330
6
100
AcDbEntity
8
GEO_BOUNDARY
100
AcDbPolyline
90
5
70
0
38
0
10
52
20
218
10
102
20
219.7500000000001
10
152
20
217.2500000000001
10
202
20
219.25
10
252
20
216.49999999999994
0
LINE
5
55
330
6
100
AcDbEntity
8
GEO_GUIDE
100
AcDbLine
10
52
20
22
30
0
11
52
21
218
31
0
0
LWPOLYLINE
5
56
330
6
100
AcDbEntity
8
GEO_BOUNDARY
100
AcDbPolyline
90
4
70
1
38
0
10
50.4
20
68
10
53.6
20
68
10
53.6
20
218
10
50.4
20
218
0
LINE
5
57
330
6
100
AcDbEntity
8
GEO_BOUNDARY
100
AcDbLine
10
47
20
222.7
30
0
11
57
21
222.7
31
0
0
TEXT
5
58
330
6
100
AcDbEntity
8
GEO_TEXT
100
AcDbText
10
52
20
224.2
30
0
40
2.1
1
ZK01
7
STANDARD
72
1
11
52
21
224.2
31
0
100
AcDbText
0
TEXT
5
59
330
6
100
AcDbEntity
8
GEO_TEXT
100
AcDbText
10
52
20
221.2
30
0
40
1.5
1
300.00
7
STANDARD
72
1
11
52
21
221.2
31
0
100
AcDbText
0
TEXT
5
5A
330
6
100
AcDbEntity
8
GEO_TEXT
100
AcDbText
10
43
20
35
30
0
40
1.7
1
STA 0.00
7
STANDARD
100
AcDbText
0
TEXT
5
5B
330
6
100
AcDbEntity
8
GEO_TEXT
100
AcDbText
10
43
20
30
30
0
40
1.7
1
DEPTH 30.00
7
STANDARD
100
AcDbText
0
LINE
5
5C
330
6
100
AcDbEntity
8
GEO_BOUNDARY
100
AcDbLine
10
49.4
20
203
30
0
11
58.6
21
203
31
0
0
HATCH
5
5D
330
6
100
AcDbEntity
8
GEO_HATCH
100
AcDbHatch
10
0
20
0
30
0
2
GEO_TOPSOIL
70
0
71
0
91
1
92
3
72
0
73
1
93
4
10
50.4
20
203
10
53.6
20
203
10
53.6
20
218
10
50.4
20
218
97
0
75
0
76
1
52
0
41
1
77
0
78
2
53
0
43
0
44
0
45
0
46
4
79
4
49
0
49
-2
49
0
49
-7
53
90
43
1
44
0
45
7
46
0
79
2
49
1
49
-8
0
TEXT
5
5E
330
6
100
AcDbEntity
8
GEO_TEXT
100
AcDbText
10
55.1
20
203.5
30
0
40
1.35
1
3.00
7
STANDARD
100
AcDbText
0
LINE
5
5F
330
6
100
AcDbEntity
8
GEO_BOUNDARY
100
AcDbLine
10
49.4
20
178
30
0
11
58.6
21
178
31
0
0
HATCH
5
60
330
6
100
AcDbEntity
8
GEO_HATCH
100
AcDbHatch
10
0
20
0
30
0
2
GEO_LOESS
70
0
71
0
91
1
92
3
72
0
73
1
93
4
10
50.4
20
178
10
53.6
20
178
10
53.6
20
203
10
50.4
20
203
97
0
75
0
76
1
52
0
41
1
77
0
78
2
53
90
43
0
44
0
45
3
46
0
79
2
49
1
49
-3
53
0
43
0
44
0
45
0
46
5
79
2
49
0
49
-5
0
TEXT
5
61
330
6
100
AcDbEntity
8
GEO_TEXT
100
AcDbText
10
55.1
20
178.5
30
0
40
1.35
1
8.00
7
STANDARD
100
AcDbText
0
LINE
5
62
330
6
100
AcDbEntity
8
GEO_BOUNDARY
100
AcDbLine
10
49.4
20
158
30
0
11
58.6
21
158
31
0
0
HATCH
5
63
330
6
100
AcDbEntity
8
GEO_HATCH
100
AcDbHatch
10
0
20
0
30
0
2
GEO_PALEOSOL
70
0
71
0
91
1
92
3
72
0
73
1
93
4
10
50.4
20
158
10
53.6
20
158
10
53.6
20
178
10
50.4
20
178
97
0
75
0
76
1
52
0
41
1
77
0
78
1
53
0
43
0
44
0
45
0
46
3.5
79
4
49
4
49
-2
49
0
49
-2
0
TEXT
5
64
330
6
100
AcDbEntity
8
GEO_TEXT
100
AcDbText
10
55.1
20
158.5
30
0
40
1.35
1
12.00
7
STANDARD
100
AcDbText
0
LINE
5
65
330
6
100
AcDbEntity
8
GEO_BOUNDARY
100
AcDbLine
10
49.4
20
118
30
0
11
58.6
21
118
31
0
0
HATCH
5
66
330
6
100
AcDbEntity
8
GEO_HATCH
100
AcDbHatch
10
0
20
0
30
0
2
GEO_LOESS
70
0
71
0
91
1
92
3
72
0
73
1
93
4
10
50.4
20
118
10
53.6
20
118
10
53.6
20
158
10
50.4
20
158
97
0
75
0
76
1
52
0
41
1
77
0
78
2
53
90
43
0
44
0
45
3
46
0
79
2
49
1
49
-3
53
0
43
0
44
0
45
0
46
5
79
2
49
0
49
-5
0
TEXT
5
67
330
6
100
AcDbEntity
8
GEO_TEXT
100
AcDbText
10
55.1
20
118.5
30
0
40
1.35
1
20.00
7
STANDARD
100
AcDbText
0
LINE
5
68
330
6
100
AcDbEntity
8
GEO_BOUNDARY
100
AcDbLine
10
49.4
20
68
30
0
11
58.6
21
68
31
0
0
HATCH
5
69
330
6
100
AcDbEntity
8
GEO_HATCH
100
AcDbHatch
10
0
20
0
30
0
2
GEO_SILTY_CLAY
70
0
71
0
91
1
92
3
72
0
73
1
93
4
10
50.4
20
68
10
53.6
20
68
10
53.6
20
118
10
50.4
20
118
97
0
75
0
76
1
52
0
41
1
77
0
78
2
53
0
43
0
44
0
45
0
46
3
79
2
49
2
49
-3
53
90
43
0
44
0
45
6
46
0
79
2
49
0
49
-6
0
TEXT
5
6A
330
6
100
AcDbEntity
8
GEO_TEXT
100
AcDbText
10
55.1
20
68.5
30
0
40
1.35
1
30.00
7
STANDARD
100
AcDbText
0
LINE
5
6B
330
6
100
AcDbEntity
8
GEO_GUIDE
100
AcDbLine
10
102
20
22
30
0
11
102
21
219.7500000000001
31
0
0
LWPOLYLINE
5
6C
330
6
100
AcDbEntity
8
GEO_BOUNDARY
100
AcDbPolyline
90
4
70
1
38
0
10
100.4
20
69.75000000000011
10
103.6
20
69.75000000000011
10
103.6
20
219.7500000000001
10
100.4
20
219.7500000000001
0
LINE
5
6D
330
6
100
AcDbEntity
8
GEO_BOUNDARY
100
AcDbLine
10
97
20
224.4500000000001
30
0
11
107
21
224.4500000000001
31
0
0
TEXT
5
6E
330
6
100
AcDbEntity
8
GEO_TEXT
100
AcDbText
10
102
20
225.9500000000001
30
0
40
2.1
1
ZK02
7
STANDARD
72
1
11
102
21
225.9500000000001
31
0
100
AcDbText
0
TEXT
5
6F
330
6
100
AcDbEntity
8
GEO_TEXT
100
AcDbText
10
102
20
222.9500000000001
30
0
40
1.5
1
300.35
7
STANDARD
72
1
11
102
21
222.9500000000001
31
0
100
AcDbText
0
TEXT
5
70
330
6
100
AcDbEntity
8
GEO_TEXT
100
AcDbText
10
93
20
35
30
0
40
1.7
1
STA 25.00
7
STANDARD
100
AcDbText
0
TEXT
5
71
330
6
100
AcDbEntity
8
GEO_TEXT
100
AcDbText
10
93
20
30
30
0
40
1.7
1
DEPTH 30.00
7
STANDARD
100
AcDbText
0
LINE
5
72
330
6
100
AcDbEntity
8
GEO_BOUNDARY
100
AcDbLine
10
99.4
20
204.7500000000001
30
0
11
108.6
21
204.7500000000001
31
0
0
HATCH
5
73
330
6
100
AcDbEntity
8
GEO_HATCH
100
AcDbHatch
10
0
20
0
30
0
2
GEO_TOPSOIL
70
0
71
0
91
1
92
3
72
0
73
1
93
4
10
100.4
20
204.7500000000001
10
103.6
20
204.7500000000001
10
103.6
20
219.7500000000001
10
100.4
20
219.7500000000001
97
0
75
0
76
1
52
0
41
1
77
0
78
2
53
0
43
0
44
0
45
0
46
4
79
4
49
0
49
-2
49
0
49
-7
53
90
43
1
44
0
45
7
46
0
79
2
49
1
49
-8
0
TEXT
5
74
330
6
100
AcDbEntity
8
GEO_TEXT
100
AcDbText
10
105.1
20
205.2500000000001
30
0
40
1.35
1
3.00
7
STANDARD
100
AcDbText
0
LINE
5
75
330
6
100
AcDbEntity
8
GEO_BOUNDARY
100
AcDbLine
10
99.4
20
179.7500000000001
30
0
11
108.6
21
179.7500000000001
31
0
0
HATCH
5
76
330
6
100
AcDbEntity
8
GEO_HATCH
100
AcDbHatch
10
0
20
0
30
0
2
GEO_LOESS
70
0
71
0
91
1
92
3
72
0
73
1
93
4
10
100.4
20
179.7500000000001
10
103.6
20
179.7500000000001
10
103.6
20
204.7500000000001
10
100.4
20
204.7500000000001
97
0
75
0
76
1
52
0
41
1
77
0
78
2
53
90
43
0
44
0
45
3
46
0
79
2
49
1
49
-3
53
0
43
0
44
0
45
0
46
5
79
2
49
0
49
-5
0
TEXT
5
77
330
6
100
AcDbEntity
8
GEO_TEXT
100
AcDbText
10
105.1
20
180.2500000000001
30
0
40
1.35
1
8.00
7
STANDARD
100
AcDbText
0
LINE
5
78
330
6
100
AcDbEntity
8
GEO_BOUNDARY
100
AcDbLine
10
99.4
20
159.7500000000001
30
0
11
108.6
21
159.7500000000001
31
0
0
HATCH
5
79
330
6
100
AcDbEntity
8
GEO_HATCH
100
AcDbHatch
10
0
20
0
30
0
2
GEO_PALEOSOL
70
0
71
0
91
1
92
3
72
0
73
1
93
4
10
100.4
20
159.7500000000001
10
103.6
20
159.7500000000001
10
103.6
20
179.7500000000001
10
100.4
20
179.7500000000001
97
0
75
0
76
1
52
0
41
1
77
0
78
1
53
0
43
0
44
0
45
0
46
3.5
79
4
49
4
49
-2
49
0
49
-2
0
TEXT
5
7A
330
6
100
AcDbEntity
8
GEO_TEXT
100
AcDbText
10
105.1
20
160.2500000000001
30
0
40
1.35
1
12.00
7
STANDARD
100
AcDbText
0
LINE
5
7B
330
6
100
AcDbEntity
8
GEO_BOUNDARY
100
AcDbLine
10
99.4
20
119.75000000000011
30
0
11
108.6
21
119.75000000000011
31
0
0
HATCH
5
7C
330
6
100
AcDbEntity
8
GEO_HATCH
100
AcDbHatch
10
0
20
0
30
0
2
GEO_LOESS
70
0
71
0
91
1
92
3
72
0
73
1
93
4
10
100.4
20
119.75000000000011
10
103.6
20
119.75000000000011
10
103.6
20
159.7500000000001
10
100.4
20
159.7500000000001
97
0
75
0
76
1
52
0
41
1
77
0
78
2
53
90
43
0
44
0
45
3
46
0
79
2
49
1
49
-3
53
0
43
0
44
0
45
0
46
5
79
2
49
0
49
-5
0
TEXT
5
7D
330
6
100
AcDbEntity
8
GEO_TEXT
100
AcDbText
10
105.1
20
120.25000000000011
30
0
40
1.35
1
20.00
7
STANDARD
100
AcDbText
0
LINE
5
7E
330
6
100
AcDbEntity
8
GEO_BOUNDARY
100
AcDbLine
10
99.4
20
69.75000000000011
30
0
11
108.6
21
69.75000000000011
31
0
0
HATCH
5
7F
330
6
100
AcDbEntity
8
GEO_HATCH
100
AcDbHatch
10
0
20
0
30
0
2
GEO_SILTY_CLAY
70
0
71
0
91
1
92
3
72
0
73
1
93
4
10
100.4
20
69.75000000000011
10
103.6
20
69.75000000000011
10
103.6
20
119.75000000000011
10
100.4
20
119.75000000000011
97
0
75
0
76
1
52
0
41
1
77
0
78
2
53
0
43
0
44
0
45
0
46
3
79
2
49
2
49
-3
53
90
43
0
44
0
45
6
46
0
79
2
49
0
49
-6
0
TEXT
5
80
330
6
100
AcDbEntity
8
GEO_TEXT
100
AcDbText
10
105.1
20
70.25000000000011
30
0
40
1.35
1
30.00
7
STANDARD
100
AcDbText
0
LINE
5
81
330
6
100
AcDbEntity
8
GEO_GUIDE
100
AcDbLine
10
152
20
22
30
0
11
152
21
217.2500000000001
31
0
0
LWPOLYLINE
5
82
330
6
100
AcDbEntity
8
GEO_BOUNDARY
100
AcDbPolyline
90
4
70
1
38
0
10
150.4
20
67.25000000000011
10
153.6
20
67.25000000000011
10
153.6
20
217.2500000000001
10
150.4
20
217.2500000000001
0
LINE
5
83
330
6
100
AcDbEntity
8
GEO_BOUNDARY
100
AcDbLine
10
147
20
221.9500000000001
30
0
11
157
21
221.9500000000001
31
0
0
TEXT
5
84
330
6
100
AcDbEntity
8
GEO_TEXT
100
AcDbText
10
152
20
223.4500000000001
30
0
40
2.1
1
ZK03
7
STANDARD
72
1
11
152
21
223.4500000000001
31
0
100
AcDbText
0
TEXT
5
85
330
6
100
AcDbEntity
8
GEO_TEXT
100
AcDbText
10
152
20
220.4500000000001
30
0
40
1.5
1
299.85
7
STANDARD
72
1
11
152
21
220.4500000000001
31
0
100
AcDbText
0
TEXT
5
86
330
6
100
AcDbEntity
8
GEO_TEXT
100
AcDbText
10
143
20
35
30
0
40
1.7
1
STA 50.00
7
STANDARD
100
AcDbText
0
TEXT
5
87
330
6
100
AcDbEntity
8
GEO_TEXT
100
AcDbText
10
143
20
30
30
0
40
1.7
1
DEPTH 30.00
7
STANDARD
100
AcDbText
0
LINE
5
88
330
6
100
AcDbEntity
8
GEO_BOUNDARY
100
AcDbLine
10
149.4
20
202.2500000000001
30
0
11
158.6
21
202.2500000000001
31
0
0
HATCH
5
89
330
6
100
AcDbEntity
8
GEO_HATCH
100
AcDbHatch
10
0
20
0
30
0
2
GEO_TOPSOIL
70
0
71
0
91
1
92
3
72
0
73
1
93
4
10
150.4
20
202.2500000000001
10
153.6
20
202.2500000000001
10
153.6
20
217.2500000000001
10
150.4
20
217.2500000000001
97
0
75
0
76
1
52
0
41
1
77
0
78
2
53
0
43
0
44
0
45
0
46
4
79
4
49
0
49
-2
49
0
49
-7
53
90
43
1
44
0
45
7
46
0
79
2
49
1
49
-8
0
TEXT
5
8A
330
6
100
AcDbEntity
8
GEO_TEXT
100
AcDbText
10
155.1
20
202.7500000000001
30
0
40
1.35
1
3.00
7
STANDARD
100
AcDbText
0
LINE
5
8B
330
6
100
AcDbEntity
8
GEO_BOUNDARY
100
AcDbLine
10
149.4
20
177.2500000000001
30
0
11
158.6
21
177.2500000000001
31
0
0
HATCH
5
8C
330
6
100
AcDbEntity
8
GEO_HATCH
100
AcDbHatch
10
0
20
0
30
0
2
GEO_LOESS
70
0
71
0
91
1
92
3
72
0
73
1
93
4
10
150.4
20
177.2500000000001
10
153.6
20
177.2500000000001
10
153.6
20
202.2500000000001
10
150.4
20
202.2500000000001
97
0
75
0
76
1
52
0
41
1
77
0
78
2
53
90
43
0
44
0
45
3
46
0
79
2
49
1
49
-3
53
0
43
0
44
0
45
0
46
5
79
2
49
0
49
-5
0
TEXT
5
8D
330
6
100
AcDbEntity
8
GEO_TEXT
100
AcDbText
10
155.1
20
177.7500000000001
30
0
40
1.35
1
8.00
7
STANDARD
100
AcDbText
0
LINE
5
8E
330
6
100
AcDbEntity
8
GEO_BOUNDARY
100
AcDbLine
10
149.4
20
157.2500000000001
30
0
11
158.6
21
157.2500000000001
31
0
0
HATCH
5
8F
330
6
100
AcDbEntity
8
GEO_HATCH
100
AcDbHatch
10
0
20
0
30
0
2
GEO_PALEOSOL
70
0
71
0
91
1
92
3
72
0
73
1
93
4
10
150.4
20
157.2500000000001
10
153.6
20
157.2500000000001
10
153.6
20
177.2500000000001
10
150.4
20
177.2500000000001
97
0
75
0
76
1
52
0
41
1
77
0
78
1
53
0
43
0
44
0
45
0
46
3.5
79
4
49
4
49
-2
49
0
49
-2
0
TEXT
5
90
330
6
100
AcDbEntity
8
GEO_TEXT
100
AcDbText
10
155.1
20
157.7500000000001
30
0
40
1.35
1
12.00
7
STANDARD
100
AcDbText
0
LINE
5
91
330
6
100
AcDbEntity
8
GEO_BOUNDARY
100
AcDbLine
10
149.4
20
117.25000000000011
30
0
11
158.6
21
117.25000000000011
31
0
0
HATCH
5
92
330
6
100
AcDbEntity
8
GEO_HATCH
100
AcDbHatch
10
0
20
0
30
0
2
GEO_LOESS
70
0
71
0
91
1
92
3
72
0
73
1
93
4
10
150.4
20
117.25000000000011
10
153.6
20
117.25000000000011
10
153.6
20
157.2500000000001
10
150.4
20
157.2500000000001
97
0
75
0
76
1
52
0
41
1
77
0
78
2
53
90
43
0
44
0
45
3
46
0
79
2
49
1
49
-3
53
0
43
0
44
0
45
0
46
5
79
2
49
0
49
-5
0
TEXT
5
93
330
6
100
AcDbEntity
8
GEO_TEXT
100
AcDbText
10
155.1
20
117.75000000000011
30
0
40
1.35
1
20.00
7
STANDARD
100
AcDbText
0
LINE
5
94
330
6
100
AcDbEntity
8
GEO_BOUNDARY
100
AcDbLine
10
149.4
20
67.25000000000011
30
0
11
158.6
21
67.25000000000011
31
0
0
HATCH
5
95
330
6
100
AcDbEntity
8
GEO_HATCH
100
AcDbHatch
10
0
20
0
30
0
2
GEO_SILTY_CLAY
70
0
71
0
91
1
92
3
72
0
73
1
93
4
10
150.4
20
67.25000000000011
10
153.6
20
67.25000000000011
10
153.6
20
117.25000000000011
10
150.4
20
117.25000000000011
97
0
75
0
76
1
52
0
41
1
77
0
78
2
53
0
43
0
44
0
45
0
46
3
79
2
49
2
49
-3
53
90
43
0
44
0
45
6
46
0
79
2
49
0
49
-6
0
TEXT
5
96
330
6
100
AcDbEntity
8
GEO_TEXT
100
AcDbText
10
155.1
20
67.75000000000011
30
0
40
1.35
1
30.00
7
STANDARD
100
AcDbText
0
LINE
5
97
330
6
100
AcDbEntity
8
GEO_GUIDE
100
AcDbLine
10
202
20
22
30
0
11
202
21
219.25
31
0
0
LWPOLYLINE
5
98
330
6
100
AcDbEntity
8
GEO_BOUNDARY
100
AcDbPolyline
90
4
70
1
38
0
10
200.4
20
69.25
10
203.6
20
69.25
10
203.6
20
219.25
10
200.4
20
219.25
0
LINE
5
99
330
6
100
AcDbEntity
8
GEO_BOUNDARY
100
AcDbLine
10
197
20
223.95
30
0
11
207
21
223.95
31
0
0
TEXT
5
9A
330
6
100
AcDbEntity
8
GEO_TEXT
100
AcDbText
10
202
20
225.45
30
0
40
2.1
1
ZK04
7
STANDARD
72
1
11
202
21
225.45
31
0
100
AcDbText
0
TEXT
5
9B
330
6
100
AcDbEntity
8
GEO_TEXT
100
AcDbText
10
202
20
222.45
30
0
40
1.5
1
300.25
7
STANDARD
72
1
11
202
21
222.45
31
0
100
AcDbText
0
TEXT
5
9C
330
6
100
AcDbEntity
8
GEO_TEXT
100
AcDbText
10
193
20
35
30
0
40
1.7
1
STA 75.00
7
STANDARD
100
AcDbText
0
TEXT
5
9D
330
6
100
AcDbEntity
8
GEO_TEXT
100
AcDbText
10
193
20
30
30
0
40
1.7
1
DEPTH 30.00
7
STANDARD
100
AcDbText
0
LINE
5
9E
330
6
100
AcDbEntity
8
GEO_BOUNDARY
100
AcDbLine
10
199.4
20
204.25
30
0
11
208.6
21
204.25
31
0
0
HATCH
5
9F
330
6
100
AcDbEntity
8
GEO_HATCH
100
AcDbHatch
10
0
20
0
30
0
2
GEO_TOPSOIL
70
0
71
0
91
1
92
3
72
0
73
1
93
4
10
200.4
20
204.25
10
203.6
20
204.25
10
203.6
20
219.25
10
200.4
20
219.25
97
0
75
0
76
1
52
0
41
1
77
0
78
2
53
0
43
0
44
0
45
0
46
4
79
4
49
0
49
-2
49
0
49
-7
53
90
43
1
44
0
45
7
46
0
79
2
49
1
49
-8
0
TEXT
5
A0
330
6
100
AcDbEntity
8
GEO_TEXT
100
AcDbText
10
205.1
20
204.75
30
0
40
1.35
1
3.00
7
STANDARD
100
AcDbText
0
LINE
5
A1
330
6
100
AcDbEntity
8
GEO_BOUNDARY
100
AcDbLine
10
199.4
20
179.25
30
0
11
208.6
21
179.25
31
0
0
HATCH
5
A2
330
6
100
AcDbEntity
8
GEO_HATCH
100
AcDbHatch
10
0
20
0
30
0
2
GEO_LOESS
70
0
71
0
91
1
92
3
72
0
73
1
93
4
10
200.4
20
179.25
10
203.6
20
179.25
10
203.6
20
204.25
10
200.4
20
204.25
97
0
75
0
76
1
52
0
41
1
77
0
78
2
53
90
43
0
44
0
45
3
46
0
79
2
49
1
49
-3
53
0
43
0
44
0
45
0
46
5
79
2
49
0
49
-5
0
TEXT
5
A3
330
6
100
AcDbEntity
8
GEO_TEXT
100
AcDbText
10
205.1
20
179.75
30
0
40
1.35
1
8.00
7
STANDARD
100
AcDbText
0
LINE
5
A4
330
6
100
AcDbEntity
8
GEO_BOUNDARY
100
AcDbLine
10
199.4
20
159.25
30
0
11
208.6
21
159.25
31
0
0
HATCH
5
A5
330
6
100
AcDbEntity
8
GEO_HATCH
100
AcDbHatch
10
0
20
0
30
0
2
GEO_PALEOSOL
70
0
71
0
91
1
92
3
72
0
73
1
93
4
10
200.4
20
159.25
10
203.6
20
159.25
10
203.6
20
179.25
10
200.4
20
179.25
97
0
75
0
76
1
52
0
41
1
77
0
78
1
53
0
43
0
44
0
45
0
46
3.5
79
4
49
4
49
-2
49
0
49
-2
0
TEXT
5
A6
330
6
100
AcDbEntity
8
GEO_TEXT
100
AcDbText
10
205.1
20
159.75
30
0
40
1.35
1
12.00
7
STANDARD
100
AcDbText
0
LINE
5
A7
330
6
100
AcDbEntity
8
GEO_BOUNDARY
100
AcDbLine
10
199.4
20
119.25
30
0
11
208.6
21
119.25
31
0
0
HATCH
5
A8
330
6
100
AcDbEntity
8
GEO_HATCH
100
AcDbHatch
10
0
20
0
30
0
2
GEO_LOESS
70
0
71
0
91
1
92
3
72
0
73
1
93
4
10
200.4
20
119.25
10
203.6
20
119.25
10
203.6
20
159.25
10
200.4
20
159.25
97
0
75
0
76
1
52
0
41
1
77
0
78
2
53
90
43
0
44
0
45
3
46
0
79
2
49
1
49
-3
53
0
43
0
44
0
45
0
46
5
79
2
49
0
49
-5
0
TEXT
5
A9
330
6
100
AcDbEntity
8
GEO_TEXT
100
AcDbText
10
205.1
20
119.75
30
0
40
1.35
1
20.00
7
STANDARD
100
AcDbText
0
LINE
5
AA
330
6
100
AcDbEntity
8
GEO_BOUNDARY
100
AcDbLine
10
199.4
20
69.25
30
0
11
208.6
21
69.25
31
0
0
HATCH
5
AB
330
6
100
AcDbEntity
8
GEO_HATCH
100
AcDbHatch
10
0
20
0
30
0
2
GEO_SILTY_CLAY
70
0
71
0
91
1
92
3
72
0
73
1
93
4
10
200.4
20
69.25
10
203.6
20
69.25
10
203.6
20
119.25
10
200.4
20
119.25
97
0
75
0
76
1
52
0
41
1
77
0
78
2
53
0
43
0
44
0
45
0
46
3
79
2
49
2
49
-3
53
90
43
0
44
0
45
6
46
0
79
2
49
0
49
-6
0
TEXT
5
AC
330
6
100
AcDbEntity
8
GEO_TEXT
100
AcDbText
10
205.1
20
69.75
30
0
40
1.35
1
30.00
7
STANDARD
100
AcDbText
0
LINE
5
AD
330
6
100
AcDbEntity
8
GEO_GUIDE
100
AcDbLine
10
252
20
22
30
0
11
252
21
216.49999999999994
31
0
0
LWPOLYLINE
5
AE
330
6
100
AcDbEntity
8
GEO_BOUNDARY
100
AcDbPolyline
90
4
70
1
38
0
10
250.4
20
66.49999999999994
10
253.6
20
66.49999999999994
10
253.6
20
216.49999999999994
10
250.4
20
216.49999999999994
0
LINE
5
AF
330
6
100
AcDbEntity
8
GEO_BOUNDARY
100
AcDbLine
10
247
20
221.19999999999993
30
0
11
257
21
221.19999999999993
31
0
0
TEXT
5
B0
330
6
100
AcDbEntity
8
GEO_TEXT
100
AcDbText
10
252
20
222.69999999999993
30
0
40
2.1
1
ZK05
7
STANDARD
72
1
11
252
21
222.69999999999993
31
0
100
AcDbText
0
TEXT
5
B1
330
6
100
AcDbEntity
8
GEO_TEXT
100
AcDbText
10
252
20
219.69999999999993
30
0
40
1.5
1
299.70
7
STANDARD
72
1
11
252
21
219.69999999999993
31
0
100
AcDbText
0
TEXT
5
B2
330
6
100
AcDbEntity
8
GEO_TEXT
100
AcDbText
10
243
20
35
30
0
40
1.7
1
STA 100.00
7
STANDARD
100
AcDbText
0
TEXT
5
B3
330
6
100
AcDbEntity
8
GEO_TEXT
100
AcDbText
10
243
20
30
30
0
40
1.7
1
DEPTH 30.00
7
STANDARD
100
AcDbText
0
LINE
5
B4
330
6
100
AcDbEntity
8
GEO_BOUNDARY
100
AcDbLine
10
249.4
20
201.49999999999994
30
0
11
258.6
21
201.49999999999994
31
0
0
HATCH
5
B5
330
6
100
AcDbEntity
8
GEO_HATCH
100
AcDbHatch
10
0
20
0
30
0
2
GEO_TOPSOIL
70
0
71
0
91
1
92
3
72
0
73
1
93
4
10
250.4
20
201.49999999999994
10
253.6
20
201.49999999999994
10
253.6
20
216.49999999999994
10
250.4
20
216.49999999999994
97
0
75
0
76
1
52
0
41
1
77
0
78
2
53
0
43
0
44
0
45
0
46
4
79
4
49
0
49
-2
49
0
49
-7
53
90
43
1
44
0
45
7
46
0
79
2
49
1
49
-8
0
TEXT
5
B6
330
6
100
AcDbEntity
8
GEO_TEXT
100
AcDbText
10
255.1
20
201.99999999999994
30
0
40
1.35
1
3.00
7
STANDARD
100
AcDbText
0
LINE
5
B7
330
6
100
AcDbEntity
8
GEO_BOUNDARY
100
AcDbLine
10
249.4
20
176.49999999999994
30
0
11
258.6
21
176.49999999999994
31
0
0
HATCH
5
B8
330
6
100
AcDbEntity
8
GEO_HATCH
100
AcDbHatch
10
0
20
0
30
0
2
GEO_LOESS
70
0
71
0
91
1
92
3
72
0
73
1
93
4
10
250.4
20
176.49999999999994
10
253.6
20
176.49999999999994
10
253.6
20
201.49999999999994
10
250.4
20
201.49999999999994
97
0
75
0
76
1
52
0
41
1
77
0
78
2
53
90
43
0
44
0
45
3
46
0
79
2
49
1
49
-3
53
0
43
0
44
0
45
0
46
5
79
2
49
0
49
-5
0
TEXT
5
B9
330
6
100
AcDbEntity
8
GEO_TEXT
100
AcDbText
10
255.1
20
176.99999999999994
30
0
40
1.35
1
8.00
7
STANDARD
100
AcDbText
0
LINE
5
BA
330
6
100
AcDbEntity
8
GEO_BOUNDARY
100
AcDbLine
10
249.4
20
156.49999999999994
30
0
11
258.6
21
156.49999999999994
31
0
0
HATCH
5
BB
330
6
100
AcDbEntity
8
GEO_HATCH
100
AcDbHatch
10
0
20
0
30
0
2
GEO_PALEOSOL
70
0
71
0
91
1
92
3
72
0
73
1
93
4
10
250.4
20
156.49999999999994
10
253.6
20
156.49999999999994
10
253.6
20
176.49999999999994
10
250.4
20
176.49999999999994
97
0
75
0
76
1
52
0
41
1
77
0
78
1
53
0
43
0
44
0
45
0
46
3.5
79
4
49
4
49
-2
49
0
49
-2
0
TEXT
5
BC
330
6
100
AcDbEntity
8
GEO_TEXT
100
AcDbText
10
255.1
20
156.99999999999994
30
0
40
1.35
1
12.00
7
STANDARD
100
AcDbText
0
LINE
5
BD
330
6
100
AcDbEntity
8
GEO_BOUNDARY
100
AcDbLine
10
249.4
20
116.49999999999994
30
0
11
258.6
21
116.49999999999994
31
0
0
HATCH
5
BE
330
6
100
AcDbEntity
8
GEO_HATCH
100
AcDbHatch
10
0
20
0
30
0
2
GEO_LOESS
70
0
71
0
91
1
92
3
72
0
73
1
93
4
10
250.4
20
116.49999999999994
10
253.6
20
116.49999999999994
10
253.6
20
156.49999999999994
10
250.4
20
156.49999999999994
97
0
75
0
76
1
52
0
41
1
77
0
78
2
53
90
43
0
44
0
45
3
46
0
79
2
49
1
49
-3
53
0
43
0
44
0
45
0
46
5
79
2
49
0
49
-5
0
TEXT
5
BF
330
6
100
AcDbEntity
8
GEO_TEXT
100
AcDbText
10
255.1
20
116.99999999999994
30
0
40
1.35
1
20.00
7
STANDARD
100
AcDbText
0
LINE
5
C0
330
6
100
AcDbEntity
8
GEO_BOUNDARY
100
AcDbLine
10
249.4
20
66.49999999999994
30
0
11
258.6
21
66.49999999999994
31
0
0
HATCH
5
C1
330
6
100
AcDbEntity
8
GEO_HATCH
100
AcDbHatch
10
0
20
0
30
0
2
GEO_SILTY_CLAY
70
0
71
0
91
1
92
3
72
0
73
1
93
4
10
250.4
20
66.49999999999994
10
253.6
20
66.49999999999994
10
253.6
20
116.49999999999994
10
250.4
20
116.49999999999994
97
0
75
0
76
1
52
0
41
1
77
0
78
2
53
0
43
0
44
0
45
0
46
3
79
2
49
2
49
-3
53
90
43
0
44
0
45
6
46
0
79
2
49
0
49
-6
0
TEXT
5
C2
330
6
100
AcDbEntity
8
GEO_TEXT
100
AcDbText
10
255.1
20
66.99999999999994
30
0
40
1.35
1
30.00
7
STANDARD
100
AcDbText
0
HATCH
5
C3
330
6
100
AcDbEntity
8
GEO_HATCH
100
AcDbHatch
10
0
20
0
30
0
2
GEO_TOPSOIL
70
0
71
0
91
1
92
3
72
0
73
1
93
4
10
52
20
203
10
102
20
204.7500000000001
10
102
20
219.7500000000001
10
52
20
218
97
0
75
0
76
1
52
0
41
1
77
0
78
2
53
0
43
0
44
0
45
0
46
4
79
4
49
0
49
-2
49
0
49
-7
53
90
43
1
44
0
45
7
46
0
79
2
49
1
49
-8
0
LINE
5
C4
330
6
100
AcDbEntity
8
GEO_BOUNDARY
100
AcDbLine
10
52
20
203
30
0
11
102
21
204.7500000000001
31
0
0
LINE
5
C5
330
6
100
AcDbEntity
8
GEO_BOUNDARY
100
AcDbLine
10
52
20
218
30
0
11
102
21
219.7500000000001
31
0
0
TEXT
5
C6
330
6
100
AcDbEntity
8
GEO_TEXT
100
AcDbText
10
77
20
211.37500000000006
30
0
40
1.8
1
1
7
STANDARD
72
1
11
77
21
211.37500000000006
31
0
100
AcDbText
0
HATCH
5
C7
330
6
100
AcDbEntity
8
GEO_HATCH
100
AcDbHatch
10
0
20
0
30
0
2
GEO_LOESS
70
0
71
0
91
1
92
3
72
0
73
1
93
4
10
52
20
178
10
102
20
179.7500000000001
10
102
20
204.7500000000001
10
52
20
203
97
0
75
0
76
1
52
0
41
1
77
0
78
2
53
90
43
0
44
0
45
3
46
0
79
2
49
1
49
-3
53
0
43
0
44
0
45
0
46
5
79
2
49
0
49
-5
0
LINE
5
C8
330
6
100
AcDbEntity
8
GEO_BOUNDARY
100
AcDbLine
10
52
20
178
30
0
11
102
21
179.7500000000001
31
0
0
LINE
5
C9
330
6
100
AcDbEntity
8
GEO_BOUNDARY
100
AcDbLine
10
52
20
203
30
0
11
102
21
204.7500000000001
31
0
0
TEXT
5
CA
330
6
100
AcDbEntity
8
GEO_TEXT
100
AcDbText
10
77
20
191.37500000000006
30
0
40
1.8
1
2
7
STANDARD
72
1
11
77
21
191.37500000000006
31
0
100
AcDbText
0
HATCH
5
CB
330
6
100
AcDbEntity
8
GEO_HATCH
100
AcDbHatch
10
0
20
0
30
0
2
GEO_PALEOSOL
70
0
71
0
91
1
92
3
72
0
73
1
93
4
10
52
20
158
10
102
20
159.7500000000001
10
102
20
179.7500000000001
10
52
20
178
97
0
75
0
76
1
52
0
41
1
77
0
78
1
53
0
43
0
44
0
45
0
46
3.5
79
4
49
4
49
-2
49
0
49
-2
0
LINE
5
CC
330
6
100
AcDbEntity
8
GEO_BOUNDARY
100
AcDbLine
10
52
20
158
30
0
11
102
21
159.7500000000001
31
0
0
LINE
5
CD
330
6
100
AcDbEntity
8
GEO_BOUNDARY
100
AcDbLine
10
52
20
178
30
0
11
102
21
179.7500000000001
31
0
0
TEXT
5
CE
330
6
100
AcDbEntity
8
GEO_TEXT
100
AcDbText
10
77
20
168.87500000000006
30
0
40
1.8
1
3
7
STANDARD
72
1
11
77
21
168.87500000000006
31
0
100
AcDbText
0
HATCH
5
CF
330
6
100
AcDbEntity
8
GEO_HATCH
100
AcDbHatch
10
0
20
0
30
0
2
GEO_LOESS
70
0
71
0
91
1
92
3
72
0
73
1
93
4
10
52
20
118
10
102
20
119.75000000000011
10
102
20
159.7500000000001
10
52
20
158
97
0
75
0
76
1
52
0
41
1
77
0
78
2
53
90
43
0
44
0
45
3
46
0
79
2
49
1
49
-3
53
0
43
0
44
0
45
0
46
5
79
2
49
0
49
-5
0
LINE
5
D0
330
6
100
AcDbEntity
8
GEO_BOUNDARY
100
AcDbLine
10
52
20
118
30
0
11
102
21
119.75000000000011
31
0
0
LINE
5
D1
330
6
100
AcDbEntity
8
GEO_BOUNDARY
100
AcDbLine
10
52
20
158
30
0
11
102
21
159.7500000000001
31
0
0
TEXT
5
D2
330
6
100
AcDbEntity
8
GEO_TEXT
100
AcDbText
10
77
20
138.87500000000006
30
0
40
1.8
1
4
7
STANDARD
72
1
11
77
21
138.87500000000006
31
0
100
AcDbText
0
HATCH
5
D3
330
6
100
AcDbEntity
8
GEO_HATCH
100
AcDbHatch
10
0
20
0
30
0
2
GEO_SILTY_CLAY
70
0
71
0
91
1
92
3
72
0
73
1
93
4
10
52
20
68
10
102
20
69.75000000000011
10
102
20
119.75000000000011
10
52
20
118
97
0
75
0
76
1
52
0
41
1
77
0
78
2
53
0
43
0
44
0
45
0
46
3
79
2
49
2
49
-3
53
90
43
0
44
0
45
6
46
0
79
2
49
0
49
-6
0
LINE
5
D4
330
6
100
AcDbEntity
8
GEO_BOUNDARY
100
AcDbLine
10
52
20
68
30
0
11
102
21
69.75000000000011
31
0
0
LINE
5
D5
330
6
100
AcDbEntity
8
GEO_BOUNDARY
100
AcDbLine
10
52
20
118
30
0
11
102
21
119.75000000000011
31
0
0
TEXT
5
D6
330
6
100
AcDbEntity
8
GEO_TEXT
100
AcDbText
10
77
20
93.87500000000006
30
0
40
1.8
1
5
7
STANDARD
72
1
11
77
21
93.87500000000006
31
0
100
AcDbText
0
HATCH
5
D7
330
6
100
AcDbEntity
8
GEO_HATCH
100
AcDbHatch
10
0
20
0
30
0
2
GEO_TOPSOIL
70
0
71
0
91
1
92
3
72
0
73
1
93
4
10
102
20
204.7500000000001
10
152
20
202.2500000000001
10
152
20
217.2500000000001
10
102
20
219.7500000000001
97
0
75
0
76
1
52
0
41
1
77
0
78
2
53
0
43
0
44
0
45
0
46
4
79
4
49
0
49
-2
49
0
49
-7
53
90
43
1
44
0
45
7
46
0
79
2
49
1
49
-8
0
LINE
5
D8
330
6
100
AcDbEntity
8
GEO_BOUNDARY
100
AcDbLine
10
102
20
204.7500000000001
30
0
11
152
21
202.2500000000001
31
0
0
LINE
5
D9
330
6
100
AcDbEntity
8
GEO_BOUNDARY
100
AcDbLine
10
102
20
219.7500000000001
30
0
11
152
21
217.2500000000001
31
0
0
TEXT
5
DA
330
6
100
AcDbEntity
8
GEO_TEXT
100
AcDbText
10
127
20
211.0000000000001
30
0
40
1.8
1
1
7
STANDARD
72
1
11
127
21
211.0000000000001
31
0
100
AcDbText
0
HATCH
5
DB
330
6
100
AcDbEntity
8
GEO_HATCH
100
AcDbHatch
10
0
20
0
30
0
2
GEO_LOESS
70
0
71
0
91
1
92
3
72
0
73
1
93
4
10
102
20
179.7500000000001
10
152
20
177.2500000000001
10
152
20
202.2500000000001
10
102
20
204.7500000000001
97
0
75
0
76
1
52
0
41
1
77
0
78
2
53
90
43
0
44
0
45
3
46
0
79
2
49
1
49
-3
53
0
43
0
44
0
45
0
46
5
79
2
49
0
49
-5
0
LINE
5
DC
330
6
100
AcDbEntity
8
GEO_BOUNDARY
100
AcDbLine
10
102
20
179.7500000000001
30
0
11
152
21
177.2500000000001
31
0
0
LINE
5
DD
330
6
100
AcDbEntity
8
GEO_BOUNDARY
100
AcDbLine
10
102
20
204.7500000000001
30
0
11
152
21
202.2500000000001
31
0
0
TEXT
5
DE
330
6
100
AcDbEntity
8
GEO_TEXT
100
AcDbText
10
127
20
191.0000000000001
30
0
40
1.8
1
2
7
STANDARD
72
1
11
127
21
191.0000000000001
31
0
100
AcDbText
0
HATCH
5
DF
330
6
100
AcDbEntity
8
GEO_HATCH
100
AcDbHatch
10
0
20
0
30
0
2
GEO_PALEOSOL
70
0
71
0
91
1
92
3
72
0
73
1
93
4
10
102
20
159.7500000000001
10
152
20
157.2500000000001
10
152
20
177.2500000000001
10
102
20
179.7500000000001
97
0
75
0
76
1
52
0
41
1
77
0
78
1
53
0
43
0
44
0
45
0
46
3.5
79
4
49
4
49
-2
49
0
49
-2
0
LINE
5
E0
330
6
100
AcDbEntity
8
GEO_BOUNDARY
100
AcDbLine
10
102
20
159.7500000000001
30
0
11
152
21
157.2500000000001
31
0
0
LINE
5
E1
330
6
100
AcDbEntity
8
GEO_BOUNDARY
100
AcDbLine
10
102
20
179.7500000000001
30
0
11
152
21
177.2500000000001
31
0
0
TEXT
5
E2
330
6
100
AcDbEntity
8
GEO_TEXT
100
AcDbText
10
127
20
168.5000000000001
30
0
40
1.8
1
3
7
STANDARD
72
1
11
127
21
168.5000000000001
31
0
100
AcDbText
0
HATCH
5
E3
330
6
100
AcDbEntity
8
GEO_HATCH
100
AcDbHatch
10
0
20
0
30
0
2
GEO_LOESS
70
0
71
0
91
1
92
3
72
0
73
1
93
4
10
102
20
119.75000000000011
10
152
20
117.25000000000011
10
152
20
157.2500000000001
10
102
20
159.7500000000001
97
0
75
0
76
1
52
0
41
1
77
0
78
2
53
90
43
0
44
0
45
3
46
0
79
2
49
1
49
-3
53
0
43
0
44
0
45
0
46
5
79
2
49
0
49
-5
0
LINE
5
E4
330
6
100
AcDbEntity
8
GEO_BOUNDARY
100
AcDbLine
10
102
20
119.75000000000011
30
0
11
152
21
117.25000000000011
31
0
0
LINE
5
E5
330
6
100
AcDbEntity
8
GEO_BOUNDARY
100
AcDbLine
10
102
20
159.7500000000001
30
0
11
152
21
157.2500000000001
31
0
0
TEXT
5
E6
330
6
100
AcDbEntity
8
GEO_TEXT
100
AcDbText
10
127
20
138.5000000000001
30
0
40
1.8
1
4
7
STANDARD
72
1
11
127
21
138.5000000000001
31
0
100
AcDbText
0
HATCH
5
E7
330
6
100
AcDbEntity
8
GEO_HATCH
100
AcDbHatch
10
0
20
0
30
0
2
GEO_SILTY_CLAY
70
0
71
0
91
1
92
3
72
0
73
1
93
4
10
102
20
69.75000000000011
10
152
20
67.25000000000011
10
152
20
117.25000000000011
10
102
20
119.75000000000011
97
0
75
0
76
1
52
0
41
1
77
0
78
2
53
0
43
0
44
0
45
0
46
3
79
2
49
2
49
-3
53
90
43
0
44
0
45
6
46
0
79
2
49
0
49
-6
0
LINE
5
E8
330
6
100
AcDbEntity
8
GEO_BOUNDARY
100
AcDbLine
10
102
20
69.75000000000011
30
0
11
152
21
67.25000000000011
31
0
0
LINE
5
E9
330
6
100
AcDbEntity
8
GEO_BOUNDARY
100
AcDbLine
10
102
20
119.75000000000011
30
0
11
152
21
117.25000000000011
31
0
0
TEXT
5
EA
330
6
100
AcDbEntity
8
GEO_TEXT
100
AcDbText
10
127
20
93.50000000000011
30
0
40
1.8
1
5
7
STANDARD
72
1
11
127
21
93.50000000000011
31
0
100
AcDbText
0
HATCH
5
EB
330
6
100
AcDbEntity
8
GEO_HATCH
100
AcDbHatch
10
0
20
0
30
0
2
GEO_TOPSOIL
70
0
71
0
91
1
92
3
72
0
73
1
93
4
10
152
20
202.2500000000001
10
202
20
204.25
10
202
20
219.25
10
152
20
217.2500000000001
97
0
75
0
76
1
52
0
41
1
77
0
78
2
53
0
43
0
44
0
45
0
46
4
79
4
49
0
49
-2
49
0
49
-7
53
90
43
1
44
0
45
7
46
0
79
2
49
1
49
-8
0
LINE
5
EC
330
6
100
AcDbEntity
8
GEO_BOUNDARY
100
AcDbLine
10
152
20
202.2500000000001
30
0
11
202
21
204.25
31
0
0
LINE
5
ED
330
6
100
AcDbEntity
8
GEO_BOUNDARY
100
AcDbLine
10
152
20
217.2500000000001
30
0
11
202
21
219.25
31
0
0
TEXT
5
EE
330
6
100
AcDbEntity
8
GEO_TEXT
100
AcDbText
10
177
20
210.75000000000006
30
0
40
1.8
1
1
7
STANDARD
72
1
11
177
21
210.75000000000006
31
0
100
AcDbText
0
HATCH
5
EF
330
6
100
AcDbEntity
8
GEO_HATCH
100
AcDbHatch
10
0
20
0
30
0
2
GEO_LOESS
70
0
71
0
91
1
92
3
72
0
73
1
93
4
10
152
20
177.2500000000001
10
202
20
179.25
10
202
20
204.25
10
152
20
202.2500000000001
97
0
75
0
76
1
52
0
41
1
77
0
78
2
53
90
43
0
44
0
45
3
46
0
79
2
49
1
49
-3
53
0
43
0
44
0
45
0
46
5
79
2
49
0
49
-5
0
LINE
5
F0
330
6
100
AcDbEntity
8
GEO_BOUNDARY
100
AcDbLine
10
152
20
177.2500000000001
30
0
11
202
21
179.25
31
0
0
LINE
5
F1
330
6
100
AcDbEntity
8
GEO_BOUNDARY
100
AcDbLine
10
152
20
202.2500000000001
30
0
11
202
21
204.25
31
0
0
TEXT
5
F2
330
6
100
AcDbEntity
8
GEO_TEXT
100
AcDbText
10
177
20
190.75000000000006
30
0
40
1.8
1
2
7
STANDARD
72
1
11
177
21
190.75000000000006
31
0
100
AcDbText
0
HATCH
5
F3
330
6
100
AcDbEntity
8
GEO_HATCH
100
AcDbHatch
10
0
20
0
30
0
2
GEO_PALEOSOL
70
0
71
0
91
1
92
3
72
0
73
1
93
4
10
152
20
157.2500000000001
10
202
20
159.25
10
202
20
179.25
10
152
20
177.2500000000001
97
0
75
0
76
1
52
0
41
1
77
0
78
1
53
0
43
0
44
0
45
0
46
3.5
79
4
49
4
49
-2
49
0
49
-2
0
LINE
5
F4
330
6
100
AcDbEntity
8
GEO_BOUNDARY
100
AcDbLine
10
152
20
157.2500000000001
30
0
11
202
21
159.25
31
0
0
LINE
5
F5
330
6
100
AcDbEntity
8
GEO_BOUNDARY
100
AcDbLine
10
152
20
177.2500000000001
30
0
11
202
21
179.25
31
0
0
TEXT
5
F6
330
6
100
AcDbEntity
8
GEO_TEXT
100
AcDbText
10
177
20
168.25000000000006
30
0
40
1.8
1
3
7
STANDARD
72
1
11
177
21
168.25000000000006
31
0
100
AcDbText
0
HATCH
5
F7
330
6
100
AcDbEntity
8
GEO_HATCH
100
AcDbHatch
10
0
20
0
30
0
2
GEO_LOESS
70
0
71
0
91
1
92
3
72
0
73
1
93
4
10
152
20
117.25000000000011
10
202
20
119.25
10
202
20
159.25
10
152
20
157.2500000000001
97
0
75
0
76
1
52
0
41
1
77
0
78
2
53
90
43
0
44
0
45
3
46
0
79
2
49
1
49
-3
53
0
43
0
44
0
45
0
46
5
79
2
49
0
49
-5
0
LINE
5
F8
330
6
100
AcDbEntity
8
GEO_BOUNDARY
100
AcDbLine
10
152
20
117.25000000000011
30
0
11
202
21
119.25
31
0
0
LINE
5
F9
330
6
100
AcDbEntity
8
GEO_BOUNDARY
100
AcDbLine
10
152
20
157.2500000000001
30
0
11
202
21
159.25
31
0
0
TEXT
5
FA
330
6
100
AcDbEntity
8
GEO_TEXT
100
AcDbText
10
177
20
138.25000000000006
30
0
40
1.8
1
4
7
STANDARD
72
1
11
177
21
138.25000000000006
31
0
100
AcDbText
0
HATCH
5
FB
330
6
100
AcDbEntity
8
GEO_HATCH
100
AcDbHatch
10
0
20
0
30
0
2
GEO_SILTY_CLAY
70
0
71
0
91
1
92
3
72
0
73
1
93
4
10
152
20
67.25000000000011
10
202
20
69.25
10
202
20
119.25
10
152
20
117.25000000000011
97
0
75
0
76
1
52
0
41
1
77
0
78
2
53
0
43
0
44
0
45
0
46
3
79
2
49
2
49
-3
53
90
43
0
44
0
45
6
46
0
79
2
49
0
49
-6
0
LINE
5
FC
330
6
100
AcDbEntity
8
GEO_BOUNDARY
100
AcDbLine
10
152
20
67.25000000000011
30
0
11
202
21
69.25
31
0
0
LINE
5
FD
330
6
100
AcDbEntity
8
GEO_BOUNDARY
100
AcDbLine
10
152
20
117.25000000000011
30
0
11
202
21
119.25
31
0
0
TEXT
5
FE
330
6
100
AcDbEntity
8
GEO_TEXT
100
AcDbText
10
177
20
93.25000000000006
30
0
40
1.8
1
5
7
STANDARD
72
1
11
177
21
93.25000000000006
31
0
100
AcDbText
0
HATCH
5
FF
330
6
100
AcDbEntity
8
GEO_HATCH
100
AcDbHatch
10
0
20
0
30
0
2
GEO_TOPSOIL
70
0
71
0
91
1
92
3
72
0
73
1
93
4
10
202
20
204.25
10
252
20
201.49999999999994
10
252
20
216.49999999999994
10
202
20
219.25
97
0
75
0
76
1
52
0
41
1
77
0
78
2
53
0
43
0
44
0
45
0
46
4
79
4
49
0
49
-2
49
0
49
-7
53
90
43
1
44
0
45
7
46
0
79
2
49
1
49
-8
0
LINE
5
100
330
6
100
AcDbEntity
8
GEO_BOUNDARY
100
AcDbLine
10
202
20
204.25
30
0
11
252
21
201.49999999999994
31
0
0
LINE
5
101
330
6
100
AcDbEntity
8
GEO_BOUNDARY
100
AcDbLine
10
202
20
219.25
30
0
11
252
21
216.49999999999994
31
0
0
TEXT
5
102
330
6
100
AcDbEntity
8
GEO_TEXT
100
AcDbText
10
227
20
210.375
30
0
40
1.8
1
1
7
STANDARD
72
1
11
227
21
210.375
31
0
100
AcDbText
0
HATCH
5
103
330
6
100
AcDbEntity
8
GEO_HATCH
100
AcDbHatch
10
0
20
0
30
0
2
GEO_LOESS
70
0
71
0
91
1
92
3
72
0
73
1
93
4
10
202
20
179.25
10
252
20
176.49999999999994
10
252
20
201.49999999999994
10
202
20
204.25
97
0
75
0
76
1
52
0
41
1
77
0
78
2
53
90
43
0
44
0
45
3
46
0
79
2
49
1
49
-3
53
0
43
0
44
0
45
0
46
5
79
2
49
0
49
-5
0
LINE
5
104
330
6
100
AcDbEntity
8
GEO_BOUNDARY
100
AcDbLine
10
202
20
179.25
30
0
11
252
21
176.49999999999994
31
0
0
LINE
5
105
330
6
100
AcDbEntity
8
GEO_BOUNDARY
100
AcDbLine
10
202
20
204.25
30
0
11
252
21
201.49999999999994
31
0
0
TEXT
5
106
330
6
100
AcDbEntity
8
GEO_TEXT
100
AcDbText
10
227
20
190.375
30
0
40
1.8
1
2
7
STANDARD
72
1
11
227
21
190.375
31
0
100
AcDbText
0
HATCH
5
107
330
6
100
AcDbEntity
8
GEO_HATCH
100
AcDbHatch
10
0
20
0
30
0
2
GEO_PALEOSOL
70
0
71
0
91
1
92
3
72
0
73
1
93
4
10
202
20
159.25
10
252
20
156.49999999999994
10
252
20
176.49999999999994
10
202
20
179.25
97
0
75
0
76
1
52
0
41
1
77
0
78
1
53
0
43
0
44
0
45
0
46
3.5
79
4
49
4
49
-2
49
0
49
-2
0
LINE
5
108
330
6
100
AcDbEntity
8
GEO_BOUNDARY
100
AcDbLine
10
202
20
159.25
30
0
11
252
21
156.49999999999994
31
0
0
LINE
5
109
330
6
100
AcDbEntity
8
GEO_BOUNDARY
100
AcDbLine
10
202
20
179.25
30
0
11
252
21
176.49999999999994
31
0
0
TEXT
5
10A
330
6
100
AcDbEntity
8
GEO_TEXT
100
AcDbText
10
227
20
167.875
30
0
40
1.8
1
3
7
STANDARD
72
1
11
227
21
167.875
31
0
100
AcDbText
0
HATCH
5
10B
330
6
100
AcDbEntity
8
GEO_HATCH
100
AcDbHatch
10
0
20
0
30
0
2
GEO_LOESS
70
0
71
0
91
1
92
3
72
0
73
1
93
4
10
202
20
119.25
10
252
20
116.49999999999994
10
252
20
156.49999999999994
10
202
20
159.25
97
0
75
0
76
1
52
0
41
1
77
0
78
2
53
90
43
0
44
0
45
3
46
0
79
2
49
1
49
-3
53
0
43
0
44
0
45
0
46
5
79
2
49
0
49
-5
0
LINE
5
10C
330
6
100
AcDbEntity
8
GEO_BOUNDARY
100
AcDbLine
10
202
20
119.25
30
0
11
252
21
116.49999999999994
31
0
0
LINE
5
10D
330
6
100
AcDbEntity
8
GEO_BOUNDARY
100
AcDbLine
10
202
20
159.25
30
0
11
252
21
156.49999999999994
31
0
0
TEXT
5
10E
330
6
100
AcDbEntity
8
GEO_TEXT
100
AcDbText
10
227
20
137.87499999999997
30
0
40
1.8
1
4
7
STANDARD
72
1
11
227
21
137.87499999999997
31
0
100
AcDbText
0
HATCH
5
10F
330
6
100
AcDbEntity
8
GEO_HATCH
100
AcDbHatch
10
0
20
0
30
0
2
GEO_SILTY_CLAY
70
0
71
0
91
1
92
3
72
0
73
1
93
4
10
202
20
69.25
10
252
20
66.49999999999994
10
252
20
116.49999999999994
10
202
20
119.25
97
0
75
0
76
1
52
0
41
1
77
0
78
2
53
0
43
0
44
0
45
0
46
3
79
2
49
2
49
-3
53
90
43
0
44
0
45
6
46
0
79
2
49
0
49
-6
0
LINE
5
110
330
6
100
AcDbEntity
8
GEO_BOUNDARY
100
AcDbLine
10
202
20
69.25
30
0
11
252
21
66.49999999999994
31
0
0
LINE
5
111
330
6
100
AcDbEntity
8
GEO_BOUNDARY
100
AcDbLine
10
202
20
119.25
30
0
11
252
21
116.49999999999994
31
0
0
TEXT
5
112
330
6
100
AcDbEntity
8
GEO_TEXT
100
AcDbText
10
227
20
92.87499999999997
30
0
40
1.8
1
5
7
STANDARD
72
1
11
227
21
92.87499999999997
31
0
100
AcDbText
0
TEXT
5
113
330
6
100
AcDbEntity
8
GEO_TEXT
100
AcDbText
10
14
20
24.2
30
0
40
1.5
1
Only supplied strata/correlations are shown. Uncorrelated regions are intentionally blank.
7
STANDARD
100
AcDbText
0
ENDSEC
0
SECTION
2
OBJECTS
0
DICTIONARY
5
120
330
0
100
AcDbDictionary
281
1
3
ACAD_LAYOUT
350
121
0
DICTIONARY
5
121
330
120
100
AcDbDictionary
280
1
281
1
3
Model
350
8
3
Layout1
350
9
0
LAYOUT
5
8
102
{ACAD_REACTORS
330
121
102
}
330
121
100
AcDbPlotSettings
100
AcDbLayout
1
Model
70
1
71
0
12
0
22
0
32
0
14
100000000000000000000
24
100000000000000000000
34
100000000000000000000
15
-100000000000000000000
25
-100000000000000000000
35
-100000000000000000000
13
0
23
0
33
0
16
1
26
0
36
0
17
0
27
1
37
0
330
6
0
LAYOUT
5
9
102
{ACAD_REACTORS
330
121
102
}
330
121
100
AcDbPlotSettings
100
AcDbLayout
1
Layout1
70
1
71
1
10
0
20
0
11
420
21
297
12
0
22
0
32
0
14
100000000000000000000
24
100000000000000000000
34
100000000000000000000
15
-100000000000000000000
25
-100000000000000000000
35
-100000000000000000000
13
0
23
0
33
0
16
1
26
0
36
0
17
0
27
1
37
0
330
7
0
ENDSEC
0
EOF
