0
SECTION
2
HEADER
9
$ACADVER
1
AC1032
9
$DWGCODEPAGE
3
UTF-8
9
$HANDSEED
5
7C
9
$LTSCALE
40
1
9
$PDMODE
70
0
9
$PDSIZE
40
0
9
$TEXTSTYLE
7
STANDARD
9
$INSUNITS
70
4
9
$MEASUREMENT
70
1
0
ENDSEC
0
SECTION
2
TABLES
0
TABLE
2
LTYPE
5
49
330
0
100
AcDbSymbolTable
70
2
0
LTYPE
5
2
330
49
100
AcDbSymbolTableRecord
100
AcDbLinetypeTableRecord
2
CONTINUOUS
70
0
3
Solid line
72
65
73
0
40
0
0
LTYPE
5
A
330
49
100
AcDbSymbolTableRecord
100
AcDbLinetypeTableRecord
2
CENTER
70
0
3
Long-short center line
72
65
73
4
40
11
49
8
74
0
49
-1
74
0
49
1
74
0
49
-1
74
0
0
ENDTAB
0
TABLE
2
STYLE
5
4A
330
0
100
AcDbSymbolTable
70
1
0
STYLE
5
3
330
4A
100
AcDbSymbolTableRecord
100
AcDbTextStyleTableRecord
2
STANDARD
70
0
40
0
41
1
50
0
71
0
42
2.5
3
sans-serif
4

0
ENDTAB
0
TABLE
2
DIMSTYLE
5
4B
330
0
100
AcDbSymbolTable
70
2
100
AcDbDimStyleTable
0
DIMSTYLE
105
4
330
4B
100
AcDbSymbolTableRecord
100
AcDbDimStyleTableRecord
2
STANDARD
70
0
40
1
41
2.5
42
0.625
43
3.75
44
1.25
140
2.5
141
2.5
147
0.625
0
DIMSTYLE
105
11
330
4B
100
AcDbSymbolTableRecord
100
AcDbDimStyleTableRecord
271
0
2
KJDRAW-SHOWCASE
70
0
40
1
41
2.4
42
0.8
43
3.75
44
1.2
140
3
141
2.5
147
0.625
0
ENDTAB
0
TABLE
2
APPID
5
50
330
0
100
AcDbSymbolTable
70
1
0
APPID
5
6D
330
50
100
AcDbSymbolTableRecord
100
AcDbRegAppTableRecord
2
ACAD
70
0
0
ENDTAB
0
TABLE
2
UCS
5
4C
330
0
100
AcDbSymbolTable
70
0
0
ENDTAB
0
TABLE
2
VIEW
5
4D
330
0
100
AcDbSymbolTable
70
0
0
ENDTAB
0
TABLE
2
LAYER
5
4E
330
0
100
AcDbSymbolTable
70
7
0
LAYER
5
5
330
4E
100
AcDbSymbolTableRecord
100
AcDbLayerTableRecord
2
0
70
0
62
7
6
CONTINUOUS
290
1
370
-1
0
LAYER
5
B
330
4E
100
AcDbSymbolTableRecord
100
AcDbLayerTableRecord
2
SHEET_FRAME
70
0
62
8
6
CONTINUOUS
290
1
370
18
0
LAYER
5
C
330
4E
100
AcDbSymbolTableRecord
100
AcDbLayerTableRecord
2
PART_OUTLINE
70
0
62
7
6
CONTINUOUS
290
1
370
35
0
LAYER
5
D
330
4E
100
AcDbSymbolTableRecord
100
AcDbLayerTableRecord
2
SECTION_HATCH
70
0
62
8
6
CONTINUOUS
290
1
370
13
0
LAYER
5
E
330
4E
100
AcDbSymbolTableRecord
100
AcDbLayerTableRecord
2
CENTER_LINES
70
0
62
3
6
CENTER
290
1
370
13
0
LAYER
5
F
330
4E
100
AcDbSymbolTableRecord
100
AcDbLayerTableRecord
2
DIMENSIONS
70
0
62
2
6
CONTINUOUS
290
1
370
18
0
LAYER
5
10
330
4E
100
AcDbSymbolTableRecord
100
AcDbLayerTableRecord
2
NOTES
70
0
62
7
6
CONTINUOUS
290
1
370
18
0
ENDTAB
0
TABLE
2
BLOCK_RECORD
5
4F
330
0
100
AcDbSymbolTable
70
6
0
BLOCK_RECORD
5
6
330
4F
100
AcDbSymbolTableRecord
100
AcDbBlockTableRecord
2
*MODEL_SPACE
70
0
280
1
281
0
340
8
0
BLOCK_RECORD
5
7
330
4F
100
AcDbSymbolTableRecord
100
AcDbBlockTableRecord
2
*PAPER_SPACE
70
0
280
1
281
0
340
9
0
BLOCK_RECORD
5
51
330
4F
100
AcDbSymbolTableRecord
100
AcDbBlockTableRecord
2
*D1
70
1
280
1
281
0
0
BLOCK_RECORD
5
58
330
4F
100
AcDbSymbolTableRecord
100
AcDbBlockTableRecord
2
*D2
70
1
280
1
281
0
0
BLOCK_RECORD
5
5F
330
4F
100
AcDbSymbolTableRecord
100
AcDbBlockTableRecord
2
*D3
70
1
280
1
281
0
0
BLOCK_RECORD
5
66
330
4F
100
AcDbSymbolTableRecord
100
AcDbBlockTableRecord
2
*D4
70
1
280
1
281
0
0
ENDTAB
0
ENDSEC
0
SECTION
2
BLOCKS
0
BLOCK
5
6E
330
6
100
AcDbEntity
8
0
100
AcDbBlockBegin
2
*MODEL_SPACE
70
0
10
0
20
0
30
0
3
*MODEL_SPACE
1

0
ENDBLK
5
6F
330
6
100
AcDbEntity
8
0
100
AcDbBlockEnd
0
BLOCK
5
70
330
7
100
AcDbEntity
8
0
100
AcDbBlockBegin
2
*PAPER_SPACE
70
0
10
0
20
0
30
0
3
*PAPER_SPACE
1

0
ENDBLK
5
71
330
7
100
AcDbEntity
8
0
100
AcDbBlockEnd
0
BLOCK
5
72
330
51
100
AcDbEntity
8
0
100
AcDbBlockBegin
2
*D1
70
1
10
0
20
0
30
0
3
*D1
1

0
LINE
5
52
330
51
100
AcDbEntity
8
0
100
AcDbLine
10
55
20
157.8
30
0
11
55
21
170.2
31
0
0
LINE
5
53
330
51
100
AcDbEntity
8
0
100
AcDbLine
10
205
20
157.8
30
0
11
205
21
170.2
31
0
0
LINE
5
54
330
51
100
AcDbEntity
8
0
100
AcDbLine
10
55
20
169
30
0
11
205
21
169
31
0
0
SOLID
5
55
330
51
100
AcDbEntity
8
0
100
AcDbTrace
10
55
20
169
30
0
11
57.4
21
169.72
31
0
12
57.4
22
168.28
32
0
13
57.4
23
168.28
33
0
0
SOLID
5
56
330
51
100
AcDbEntity
8
0
100
AcDbTrace
10
205
20
169
30
0
11
202.6
21
168.28
31
0
12
202.6
22
169.72
32
0
13
202.6
23
169.72
33
0
0
TEXT
5
57
330
51
100
AcDbEntity
8
0
100
AcDbText
10
130
20
170.95
30
0
40
3
1
150
72
1
11
130
21
170.95
31
0
100
AcDbText
73
1
0
ENDBLK
5
73
330
51
100
AcDbEntity
8
0
100
AcDbBlockEnd
0
BLOCK
5
74
330
58
100
AcDbEntity
8
0
100
AcDbBlockBegin
2
*D2
70
1
10
0
20
0
30
0
3
*D2
1

0
LINE
5
59
330
58
100
AcDbEntity
8
0
100
AcDbLine
10
54.2
20
67
30
0
11
36.8
21
67
31
0
0
LINE
5
5A
330
58
100
AcDbEntity
8
0
100
AcDbLine
10
54.2
20
157
30
0
11
36.8
21
157
31
0
0
LINE
5
5B
330
58
100
AcDbEntity
8
0
100
AcDbLine
10
38
20
67
30
0
11
38
21
157
31
0
0
SOLID
5
5C
330
58
100
AcDbEntity
8
0
100
AcDbTrace
10
38
20
67
30
0
11
37.28
21
69.4
31
0
12
38.72
22
69.4
32
0
13
38.72
23
69.4
33
0
0
SOLID
5
5D
330
58
100
AcDbEntity
8
0
100
AcDbTrace
10
38
20
157
30
0
11
38.72
21
154.6
31
0
12
37.28
22
154.6
32
0
13
37.28
23
154.6
33
0
0
TEXT
5
5E
330
58
100
AcDbEntity
8
0
100
AcDbText
10
36.05
20
112
30
0
40
3
1
90
50
90
72
1
11
36.05
21
112
31
0
100
AcDbText
73
1
0
ENDBLK
5
75
330
58
100
AcDbEntity
8
0
100
AcDbBlockEnd
0
BLOCK
5
76
330
5F
100
AcDbEntity
8
0
100
AcDbBlockBegin
2
*D3
70
1
10
0
20
0
30
0
3
*D3
1

0
LINE
5
60
330
5F
100
AcDbEntity
8
0
100
AcDbLine
10
81
20
92.2
30
0
11
81
21
80.8
31
0
0
LINE
5
61
330
5F
100
AcDbEntity
8
0
100
AcDbLine
10
130
20
92.2
30
0
11
130
21
80.8
31
0
0
LINE
5
62
330
5F
100
AcDbEntity
8
0
100
AcDbLine
10
81
20
82
30
0
11
130
21
82
31
0
0
SOLID
5
63
330
5F
100
AcDbEntity
8
0
100
AcDbTrace
10
81
20
82
30
0
11
83.4
21
82.72
31
0
12
83.4
22
81.28
32
0
13
83.4
23
81.28
33
0
0
SOLID
5
64
330
5F
100
AcDbEntity
8
0
100
AcDbTrace
10
130
20
82
30
0
11
127.6
21
81.28
31
0
12
127.6
22
82.72
32
0
13
127.6
23
82.72
33
0
0
TEXT
5
65
330
5F
100
AcDbEntity
8
0
100
AcDbText
10
105.5
20
83.95
30
0
40
3
1
49
72
1
11
105.5
21
83.95
31
0
100
AcDbText
73
1
0
ENDBLK
5
77
330
5F
100
AcDbEntity
8
0
100
AcDbBlockEnd
0
BLOCK
5
78
330
66
100
AcDbEntity
8
0
100
AcDbBlockBegin
2
*D4
70
1
10
0
20
0
30
0
3
*D4
1

0
LINE
5
67
330
66
100
AcDbEntity
8
0
100
AcDbLine
10
179.8
20
93
30
0
11
192.2
21
93
31
0
0
LINE
5
68
330
66
100
AcDbEntity
8
0
100
AcDbLine
10
179.8
20
131
30
0
11
192.2
21
131
31
0
0
LINE
5
69
330
66
100
AcDbEntity
8
0
100
AcDbLine
10
191
20
93
30
0
11
191
21
131
31
0
0
SOLID
5
6A
330
66
100
AcDbEntity
8
0
100
AcDbTrace
10
191
20
93
30
0
11
190.28
21
95.4
31
0
12
191.72
22
95.4
32
0
13
191.72
23
95.4
33
0
0
SOLID
5
6B
330
66
100
AcDbEntity
8
0
100
AcDbTrace
10
191
20
131
30
0
11
191.72
21
128.6
31
0
12
190.28
22
128.6
32
0
13
190.28
23
128.6
33
0
0
TEXT
5
6C
330
66
100
AcDbEntity
8
0
100
AcDbText
10
189.05
20
112
30
0
40
3
1
38
50
90
72
1
11
189.05
21
112
31
0
100
AcDbText
73
1
0
ENDBLK
5
79
330
66
100
AcDbEntity
8
0
100
AcDbBlockEnd
0
ENDSEC
0
SECTION
2
ENTITIES
0
LWPOLYLINE
5
12
330
6
100
AcDbEntity
8
SHEET_FRAME
100
AcDbPolyline
90
4
70
1
38
0
10
8
20
8
10
289
20
8
10
289
20
202
10
8
20
202
0
LWPOLYLINE
5
13
330
6
100
AcDbEntity
8
SHEET_FRAME
100
AcDbPolyline
90
4
70
1
38
0
10
12
20
12
10
285
20
12
10
285
20
198
10
12
20
198
0
LINE
5
14
330
6
100
AcDbEntity
8
SHEET_FRAME
100
AcDbLine
10
12
20
183
30
0
11
285
21
183
31
0
0
LINE
5
15
330
6
100
AcDbEntity
8
SHEET_FRAME
100
AcDbLine
10
12
20
39
30
0
11
285
21
39
31
0
0
LINE
5
16
330
6
100
AcDbEntity
8
SHEET_FRAME
100
AcDbLine
10
183
20
12
30
0
11
183
21
39
31
0
0
LINE
5
17
330
6
100
AcDbEntity
8
SHEET_FRAME
100
AcDbLine
10
237
20
12
30
0
11
237
21
39
31
0
0
LINE
5
18
330
6
100
AcDbEntity
8
SHEET_FRAME
100
AcDbLine
10
12
20
26
30
0
11
285
21
26
31
0
0
TEXT
5
19
330
6
100
AcDbEntity
8
NOTES
100
AcDbText
10
17
20
190
30
0
40
4.1
1
KJDRAW  /  EDITABLE CAD COLLECTION
100
AcDbText
0
TEXT
5
1A
330
6
100
AcDbEntity
8
NOTES
100
AcDbText
10
209
20
190
30
0
40
3.5
1
ME-104  |  REV A
100
AcDbText
0
TEXT
5
1B
330
6
100
AcDbEntity
8
NOTES
100
AcDbText
10
16
20
30.5
30
0
40
2.5
1
DRAWING
100
AcDbText
0
TEXT
5
1C
330
6
100
AcDbEntity
8
NOTES
100
AcDbText
10
50
20
30
30
0
40
4.1
1
SIX-POINT HOLE GAUGE
100
AcDbText
0
TEXT
5
1D
330
6
100
AcDbEntity
8
NOTES
100
AcDbText
10
16
20
17
30
0
40
2.5
1
DESIGN
100
AcDbText
0
TEXT
5
1E
330
6
100
AcDbEntity
8
NOTES
100
AcDbText
10
50
20
17
30
0
40
4.1
1
ME-104
100
AcDbText
0
TEXT
5
1F
330
6
100
AcDbEntity
8
NOTES
100
AcDbText
10
187
20
30.5
30
0
40
2.5
1
MATERIAL
100
AcDbText
0
TEXT
5
20
330
6
100
AcDbEntity
8
NOTES
100
AcDbText
10
187
20
17
30
0
40
2.9
1
ALUMINUM / CONCEPT
100
AcDbText
0
TEXT
5
21
330
6
100
AcDbEntity
8
NOTES
100
AcDbText
10
241
20
30.5
30
0
40
2.5
1
UNITS  mm
100
AcDbText
0
TEXT
5
22
330
6
100
AcDbEntity
8
NOTES
100
AcDbText
10
241
20
17
30
0
40
2.9
1
SCALE  1:1
100
AcDbText
0
TEXT
5
23
330
6
100
AcDbEntity
8
NOTES
100
AcDbText
10
16
20
43
30
0
40
2.55
1
ILLUSTRATIVE DESIGN  /  VERIFY DIMENSIONS BEFORE MANUFACTURE
100
AcDbText
0
LWPOLYLINE
5
24
330
6
100
AcDbEntity
8
PART_OUTLINE
100
AcDbPolyline
90
4
70
1
38
0
10
55
20
67
10
205
20
67
10
205
20
157
10
55
20
157
0
LINE
5
25
330
6
100
AcDbEntity
8
CENTER_LINES
100
AcDbLine
10
55
20
60
30
0
11
205
21
60
31
0
0
LINE
5
26
330
6
100
AcDbEntity
8
CENTER_LINES
100
AcDbLine
10
49
20
67
30
0
11
49
21
157
31
0
0
CIRCLE
5
27
330
6
100
AcDbEntity
8
PART_OUTLINE
100
AcDbCircle
10
81
20
93
30
0
40
4
210
0
220
0
230
1
0
LINE
5
28
330
6
100
AcDbEntity
8
CENTER_LINES
100
AcDbLine
10
74
20
93
30
0
11
88
21
93
31
0
0
LINE
5
29
330
6
100
AcDbEntity
8
CENTER_LINES
100
AcDbLine
10
81
20
86
30
0
11
81
21
100
31
0
0
TEXT
5
2A
330
6
100
AcDbEntity
8
NOTES
100
AcDbText
10
76
20
103
30
0
40
2.9
1
A1
100
AcDbText
0
CIRCLE
5
2B
330
6
100
AcDbEntity
8
PART_OUTLINE
100
AcDbCircle
10
130
20
93
30
0
40
4
210
0
220
0
230
1
0
LINE
5
2C
330
6
100
AcDbEntity
8
CENTER_LINES
100
AcDbLine
10
123
20
93
30
0
11
137
21
93
31
0
0
LINE
5
2D
330
6
100
AcDbEntity
8
CENTER_LINES
100
AcDbLine
10
130
20
86
30
0
11
130
21
100
31
0
0
TEXT
5
2E
330
6
100
AcDbEntity
8
NOTES
100
AcDbText
10
125
20
103
30
0
40
2.9
1
B1
100
AcDbText
0
CIRCLE
5
2F
330
6
100
AcDbEntity
8
PART_OUTLINE
100
AcDbCircle
10
179
20
93
30
0
40
4
210
0
220
0
230
1
0
LINE
5
30
330
6
100
AcDbEntity
8
CENTER_LINES
100
AcDbLine
10
172
20
93
30
0
11
186
21
93
31
0
0
LINE
5
31
330
6
100
AcDbEntity
8
CENTER_LINES
100
AcDbLine
10
179
20
86
30
0
11
179
21
100
31
0
0
TEXT
5
32
330
6
100
AcDbEntity
8
NOTES
100
AcDbText
10
174
20
103
30
0
40
2.9
1
C1
100
AcDbText
0
CIRCLE
5
33
330
6
100
AcDbEntity
8
PART_OUTLINE
100
AcDbCircle
10
81
20
131
30
0
40
4
210
0
220
0
230
1
0
LINE
5
34
330
6
100
AcDbEntity
8
CENTER_LINES
100
AcDbLine
10
74
20
131
30
0
11
88
21
131
31
0
0
LINE
5
35
330
6
100
AcDbEntity
8
CENTER_LINES
100
AcDbLine
10
81
20
124
30
0
11
81
21
138
31
0
0
TEXT
5
36
330
6
100
AcDbEntity
8
NOTES
100
AcDbText
10
76
20
141
30
0
40
2.9
1
A2
100
AcDbText
0
CIRCLE
5
37
330
6
100
AcDbEntity
8
PART_OUTLINE
100
AcDbCircle
10
130
20
131
30
0
40
4
210
0
220
0
230
1
0
LINE
5
38
330
6
100
AcDbEntity
8
CENTER_LINES
100
AcDbLine
10
123
20
131
30
0
11
137
21
131
31
0
0
LINE
5
39
330
6
100
AcDbEntity
8
CENTER_LINES
100
AcDbLine
10
130
20
124
30
0
11
130
21
138
31
0
0
TEXT
5
3A
330
6
100
AcDbEntity
8
NOTES
100
AcDbText
10
125
20
141
30
0
40
2.9
1
B2
100
AcDbText
0
CIRCLE
5
3B
330
6
100
AcDbEntity
8
PART_OUTLINE
100
AcDbCircle
10
179
20
131
30
0
40
4
210
0
220
0
230
1
0
LINE
5
3C
330
6
100
AcDbEntity
8
CENTER_LINES
100
AcDbLine
10
172
20
131
30
0
11
186
21
131
31
0
0
LINE
5
3D
330
6
100
AcDbEntity
8
CENTER_LINES
100
AcDbLine
10
179
20
124
30
0
11
179
21
138
31
0
0
TEXT
5
3E
330
6
100
AcDbEntity
8
NOTES
100
AcDbText
10
174
20
141
30
0
40
2.9
1
C2
100
AcDbText
0
DIMENSION
5
3F
330
6
100
AcDbEntity
8
DIMENSIONS
100
AcDbDimension
280
0
2
*D1
10
130
20
169
30
0
11
130
21
170.95
31
0
3
KJDRAW-SHOWCASE
70
33
71
5
42
150
100
AcDbAlignedDimension
13
55
23
157
33
0
14
205
24
157
34
0
1001
ACAD
1000
DSTYLE
1002
{
1070
140
1040
3
1070
40
1040
1
1070
41
1040
2.4
1070
42
1040
0.8
1070
44
1040
1.2
1070
144
1040
1
1070
78
1070
8
1070
271
1070
0
1070
277
1070
2
1070
278
1070
46
1002
}
0
DIMENSION
5
40
330
6
100
AcDbEntity
8
DIMENSIONS
100
AcDbDimension
280
0
2
*D2
10
38
20
112
30
0
11
36.05
21
112
31
0
3
KJDRAW-SHOWCASE
70
33
71
5
42
90
100
AcDbAlignedDimension
13
55
23
67
33
0
14
55
24
157
34
0
50
90
1001
ACAD
1000
DSTYLE
1002
{
1070
140
1040
3
1070
40
1040
1
1070
41
1040
2.4
1070
42
1040
0.8
1070
44
1040
1.2
1070
144
1040
1
1070
78
1070
8
1070
271
1070
0
1070
277
1070
2
1070
278
1070
46
1002
}
0
DIMENSION
5
41
330
6
100
AcDbEntity
8
DIMENSIONS
100
AcDbDimension
280
0
2
*D3
10
105.5
20
82
30
0
11
105.5
21
83.95
31
0
3
KJDRAW-SHOWCASE
70
33
71
5
42
49
100
AcDbAlignedDimension
13
81
23
93
33
0
14
130
24
93
34
0
1001
ACAD
1000
DSTYLE
1002
{
1070
140
1040
3
1070
40
1040
1
1070
41
1040
2.4
1070
42
1040
0.8
1070
44
1040
1.2
1070
144
1040
1
1070
78
1070
8
1070
271
1070
0
1070
277
1070
2
1070
278
1070
46
1002
}
0
DIMENSION
5
42
330
6
100
AcDbEntity
8
DIMENSIONS
100
AcDbDimension
280
0
2
*D4
10
191
20
112
30
0
11
189.05
21
112
31
0
3
KJDRAW-SHOWCASE
70
33
71
5
42
38
100
AcDbAlignedDimension
13
179
23
93
33
0
14
179
24
131
34
0
50
90
1001
ACAD
1000
DSTYLE
1002
{
1070
140
1040
3
1070
40
1040
1
1070
41
1040
2.4
1070
42
1040
0.8
1070
44
1040
1.2
1070
144
1040
1
1070
78
1070
8
1070
271
1070
0
1070
277
1070
2
1070
278
1070
46
1002
}
0
TEXT
5
43
330
6
100
AcDbEntity
8
NOTES
100
AcDbText
10
215
20
148
30
0
40
3
1
6X DIA 8 THRU
100
AcDbText
0
TEXT
5
44
330
6
100
AcDbEntity
8
NOTES
100
AcDbText
10
215
20
135
30
0
40
3
1
COLUMN PITCH 49
100
AcDbText
0
TEXT
5
45
330
6
100
AcDbEntity
8
NOTES
100
AcDbText
10
215
20
122
30
0
40
3
1
ROW PITCH 38
100
AcDbText
0
TEXT
5
46
330
6
100
AcDbEntity
8
NOTES
100
AcDbText
10
215
20
109
30
0
40
3
1
DATUM A: BOTTOM
100
AcDbText
0
TEXT
5
47
330
6
100
AcDbEntity
8
NOTES
100
AcDbText
10
215
20
96
30
0
40
3
1
DATUM B: LEFT
100
AcDbText
0
TEXT
5
48
330
6
100
AcDbEntity
8
NOTES
100
AcDbText
10
68
20
49
30
0
40
3
1
PATTERN CHECK / POSITION DEMONSTRATION
100
AcDbText
0
ENDSEC
0
SECTION
2
OBJECTS
0
DICTIONARY
5
7A
330
0
100
AcDbDictionary
281
1
3
ACAD_LAYOUT
350
7B
0
DICTIONARY
5
7B
330
7A
100
AcDbDictionary
280
1
281
1
3
Model
350
8
3
Layout1
350
9
0
LAYOUT
5
8
102
{ACAD_REACTORS
330
7B
102
}
330
7B
100
AcDbPlotSettings
44
297
45
210
48
0
49
0
140
297
141
210
142
1
143
1
70
0
72
1
74
4
100
AcDbLayout
1
Model
70
1
71
0
12
0
22
0
32
0
14
100000000000000000000
24
100000000000000000000
34
100000000000000000000
15
-100000000000000000000
25
-100000000000000000000
35
-100000000000000000000
13
0
23
0
33
0
16
1
26
0
36
0
17
0
27
1
37
0
330
6
0
LAYOUT
5
9
102
{ACAD_REACTORS
330
7B
102
}
330
7B
100
AcDbPlotSettings
100
AcDbLayout
1
Layout1
70
1
71
1
10
0
20
0
11
420
21
297
12
0
22
0
32
0
14
100000000000000000000
24
100000000000000000000
34
100000000000000000000
15
-100000000000000000000
25
-100000000000000000000
35
-100000000000000000000
13
0
23
0
33
0
16
1
26
0
36
0
17
0
27
1
37
0
330
7
0
ENDSEC
0
EOF
