0
SECTION
2
HEADER
9
$ACADVER
1
AC1032
9
$DWGCODEPAGE
3
UTF-8
9
$HANDSEED
5
4F
9
$LTSCALE
40
1
9
$PDMODE
70
0
9
$PDSIZE
40
0
9
$TEXTSTYLE
7
STANDARD
9
$INSUNITS
70
4
9
$MEASUREMENT
70
1
0
ENDSEC
0
SECTION
2
TABLES
0
TABLE
2
LTYPE
5
41
330
0
100
AcDbSymbolTable
70
2
0
LTYPE
5
2
330
41
100
AcDbSymbolTableRecord
100
AcDbLinetypeTableRecord
2
CONTINUOUS
70
0
3
Solid line
72
65
73
0
40
0
0
LTYPE
5
A
330
41
100
AcDbSymbolTableRecord
100
AcDbLinetypeTableRecord
2
CHAMBER-SOLID
70
0
3

72
65
73
0
40
0
0
ENDTAB
0
TABLE
2
STYLE
5
42
330
0
100
AcDbSymbolTable
70
1
0
STYLE
5
3
330
42
100
AcDbSymbolTableRecord
100
AcDbTextStyleTableRecord
2
STANDARD
70
0
40
0
41
1
50
0
71
0
42
2.5
3
sans-serif
4

0
ENDTAB
0
TABLE
2
DIMSTYLE
5
43
330
0
100
AcDbSymbolTable
70
1
100
AcDbDimStyleTable
0
DIMSTYLE
105
4
330
43
100
AcDbSymbolTableRecord
100
AcDbDimStyleTableRecord
2
STANDARD
70
0
40
1
41
2.5
42
0.625
43
3.75
44
1.25
140
2.5
141
2.5
147
0.625
0
ENDTAB
0
TABLE
2
UCS
5
44
330
0
100
AcDbSymbolTable
70
0
0
ENDTAB
0
TABLE
2
VIEW
5
45
330
0
100
AcDbSymbolTable
70
0
0
ENDTAB
0
TABLE
2
LAYER
5
46
330
0
100
AcDbSymbolTable
70
6
0
LAYER
5
5
330
46
100
AcDbSymbolTableRecord
100
AcDbLayerTableRecord
2
0
70
0
62
7
6
CONTINUOUS
290
1
370
-1
0
LAYER
5
B
330
46
100
AcDbSymbolTableRecord
100
AcDbLayerTableRecord
2
CHAMBER-FRAME
70
0
62
8
6
CHAMBER-SOLID
290
1
370
-1
0
LAYER
5
C
330
46
100
AcDbSymbolTableRecord
100
AcDbLayerTableRecord
2
CHAMBER-STRUCTURE
70
0
62
9
6
CHAMBER-SOLID
290
1
370
-1
0
LAYER
5
D
330
46
100
AcDbSymbolTableRecord
100
AcDbLayerTableRecord
2
CHAMBER-CONTEXT
70
0
62
3
6
CHAMBER-SOLID
290
1
370
-1
0
LAYER
5
E
330
46
100
AcDbSymbolTableRecord
100
AcDbLayerTableRecord
2
CHAMBER-ANNO
70
0
62
9
6
CHAMBER-SOLID
290
1
370
-1
0
LAYER
5
F
330
46
100
AcDbSymbolTableRecord
100
AcDbLayerTableRecord
2
CHAMBER-MATERIAL
70
0
62
9
6
CHAMBER-SOLID
290
1
370
-1
0
ENDTAB
0
TABLE
2
BLOCK_RECORD
5
47
330
0
100
AcDbSymbolTable
70
2
0
BLOCK_RECORD
5
6
330
47
100
AcDbSymbolTableRecord
100
AcDbBlockTableRecord
2
*MODEL_SPACE
70
0
280
1
281
0
340
8
0
BLOCK_RECORD
5
7
330
47
100
AcDbSymbolTableRecord
100
AcDbBlockTableRecord
2
*PAPER_SPACE
70
0
280
1
281
0
340
9
0
ENDTAB
0
ENDSEC
0
SECTION
2
BLOCKS
0
BLOCK
5
49
330
6
100
AcDbEntity
8
0
100
AcDbBlockBegin
2
*MODEL_SPACE
70
0
10
0
20
0
30
0
3
*MODEL_SPACE
1

0
ENDBLK
5
4A
330
6
100
AcDbEntity
8
0
100
AcDbBlockEnd
0
BLOCK
5
4B
330
7
100
AcDbEntity
8
0
100
AcDbBlockBegin
2
*PAPER_SPACE
70
0
10
0
20
0
30
0
3
*PAPER_SPACE
1

0
ENDBLK
5
4C
330
7
100
AcDbEntity
8
0
100
AcDbBlockEnd
0
ENDSEC
0
SECTION
2
ENTITIES
0
LWPOLYLINE
5
10
330
6
100
AcDbEntity
8
CHAMBER-FRAME
100
AcDbPolyline
90
4
70
1
38
0
10
0
20
0
10
277
20
0
10
277
20
190
10
0
20
190
0
LWPOLYLINE
5
11
330
6
100
AcDbEntity
8
CHAMBER-FRAME
100
AcDbPolyline
90
4
70
1
38
0
10
5
20
5
10
272
20
5
10
272
20
185
10
5
20
185
0
LINE
5
12
330
6
100
AcDbEntity
8
CHAMBER-FRAME
100
AcDbLine
10
5
20
25
30
0
11
272
21
25
31
0
0
LINE
5
13
330
6
100
AcDbEntity
8
CHAMBER-FRAME
100
AcDbLine
10
181
20
5
30
0
11
181
21
25
31
0
0
LINE
5
14
330
6
100
AcDbEntity
8
CHAMBER-FRAME
100
AcDbLine
10
241
20
5
30
0
11
241
21
25
31
0
0
TEXT
5
15
330
6
100
AcDbEntity
8
CHAMBER-ANNO
100
AcDbText
10
10
20
15
30
0
40
5.3
1
INSPECTION CHAMBER
100
AcDbText
0
TEXT
5
16
330
6
100
AcDbEntity
8
CHAMBER-ANNO
100
AcDbText
10
10
20
8
30
0
40
2.5
1
Plan / section / pipe connections
100
AcDbText
0
TEXT
5
17
330
6
100
AcDbEntity
8
CHAMBER-ANNO
100
AcDbText
10
185
20
16
30
0
40
2.5
1
KJDRAW / INFRASTRUCTURE
100
AcDbText
0
TEXT
5
18
330
6
100
AcDbEntity
8
CHAMBER-ANNO
100
AcDbText
10
185
20
9
30
0
40
2.4
1
Editable vector example
100
AcDbText
0
TEXT
5
19
330
6
100
AcDbEntity
8
CHAMBER-ANNO
100
AcDbText
10
245
20
16
30
0
40
2.6
1
A4 / NTS
100
AcDbText
0
TEXT
5
1A
330
6
100
AcDbEntity
8
CHAMBER-ANNO
100
AcDbText
10
245
20
9
30
0
40
2.5
1
REV A
100
AcDbText
0
TEXT
5
1B
330
6
100
AcDbEntity
8
CHAMBER-ANNO
100
AcDbText
10
18
20
169
30
0
40
4
1
01  PLAN
100
AcDbText
0
CIRCLE
5
1C
330
6
100
AcDbEntity
8
CHAMBER-STRUCTURE
100
AcDbCircle
10
75
20
108
30
0
40
42
210
0
220
0
230
1
0
CIRCLE
5
1D
330
6
100
AcDbEntity
8
CHAMBER-STRUCTURE
100
AcDbCircle
10
75
20
108
30
0
40
36
210
0
220
0
230
1
0
CIRCLE
5
1E
330
6
100
AcDbEntity
8
CHAMBER-CONTEXT
100
AcDbCircle
10
75
20
108
30
0
40
17
210
0
220
0
230
1
0
LINE
5
1F
330
6
100
AcDbEntity
8
CHAMBER-STRUCTURE
100
AcDbLine
10
21
20
108
30
0
11
33
21
108
31
0
0
LINE
5
20
330
6
100
AcDbEntity
8
CHAMBER-STRUCTURE
100
AcDbLine
10
33
20
100
30
0
11
40
21
100
31
0
0
LINE
5
21
330
6
100
AcDbEntity
8
CHAMBER-STRUCTURE
100
AcDbLine
10
33
20
116
30
0
11
40
21
116
31
0
0
LINE
5
22
330
6
100
AcDbEntity
8
CHAMBER-STRUCTURE
100
AcDbLine
10
117
20
108
30
0
11
132
21
108
31
0
0
LINE
5
23
330
6
100
AcDbEntity
8
CHAMBER-STRUCTURE
100
AcDbLine
10
111
20
100
30
0
11
132
21
100
31
0
0
LINE
5
24
330
6
100
AcDbEntity
8
CHAMBER-STRUCTURE
100
AcDbLine
10
111
20
116
30
0
11
132
21
116
31
0
0
LINE
5
25
330
6
100
AcDbEntity
8
CHAMBER-CONTEXT
100
AcDbLine
10
75
20
58
30
0
11
75
21
157
31
0
0
LINE
5
26
330
6
100
AcDbEntity
8
CHAMBER-CONTEXT
100
AcDbLine
10
17
20
108
30
0
11
134
21
108
31
0
0
TEXT
5
27
330
6
100
AcDbEntity
8
CHAMBER-ANNO
100
AcDbText
10
35
20
91
30
0
40
2.8
1
INLET
100
AcDbText
0
TEXT
5
28
330
6
100
AcDbEntity
8
CHAMBER-ANNO
100
AcDbText
10
107
20
91
30
0
40
2.8
1
OUTLET
100
AcDbText
0
TEXT
5
29
330
6
100
AcDbEntity
8
CHAMBER-ANNO
100
AcDbText
10
54
20
137
30
0
40
2.8
1
ACCESS
100
AcDbText
0
TEXT
5
2A
330
6
100
AcDbEntity
8
CHAMBER-ANNO
100
AcDbText
10
154
20
169
30
0
40
4
1
02  SECTION A-A
100
AcDbText
0
LINE
5
2B
330
6
100
AcDbEntity
8
CHAMBER-CONTEXT
100
AcDbLine
10
151
20
141
30
0
11
253
21
141
31
0
0
LWPOLYLINE
5
2C
330
6
100
AcDbEntity
8
CHAMBER-STRUCTURE
100
AcDbPolyline
90
4
70
1
38
0
10
162
20
137
10
239
20
137
10
239
20
143
10
162
20
143
0
LWPOLYLINE
5
2D
330
6
100
AcDbEntity
8
CHAMBER-STRUCTURE
100
AcDbPolyline
90
4
70
1
38
0
10
170
20
61
10
232
20
61
10
232
20
137
10
170
20
137
0
LWPOLYLINE
5
2E
330
6
100
AcDbEntity
8
CHAMBER-STRUCTURE
100
AcDbPolyline
90
4
70
1
38
0
10
179
20
70
10
223
20
70
10
223
20
132
10
179
20
132
0
LWPOLYLINE
5
2F
330
6
100
AcDbEntity
8
CHAMBER-STRUCTURE
100
AcDbPolyline
90
4
70
1
38
0
10
166
20
55
10
236
20
55
10
236
20
63
10
166
20
63
0
HATCH
5
30
330
6
100
AcDbEntity
8
CHAMBER-MATERIAL
100
AcDbHatch
10
0
20
0
30
0
2
ANSI31
70
0
71
0
91
1
92
3
72
0
73
1
93
4
10
167
20
56
10
235
20
56
10
235
20
62
10
167
20
62
97
0
75
0
76
1
52
0
41
3
77
0
78
1
53
45
43
0
44
0
45
-6.735192090801863
46
6.735192090801865
79
0
0
HATCH
5
31
330
6
100
AcDbEntity
8
CHAMBER-MATERIAL
100
AcDbHatch
10
0
20
0
30
0
2
ANSI31
70
0
71
0
91
1
92
3
72
0
73
1
93
4
10
171
20
64
10
178
20
64
10
178
20
130
10
171
20
130
97
0
75
0
76
1
52
0
41
3
77
0
78
1
53
45
43
0
44
0
45
-6.735192090801863
46
6.735192090801865
79
0
0
HATCH
5
32
330
6
100
AcDbEntity
8
CHAMBER-MATERIAL
100
AcDbHatch
10
0
20
0
30
0
2
ANSI31
70
0
71
0
91
1
92
3
72
0
73
1
93
4
10
224
20
64
10
231
20
64
10
231
20
130
10
224
20
130
97
0
75
0
76
1
52
0
41
3
77
0
78
1
53
45
43
0
44
0
45
-6.735192090801863
46
6.735192090801865
79
0
0
LINE
5
33
330
6
100
AcDbEntity
8
CHAMBER-STRUCTURE
100
AcDbLine
10
151
20
88
30
0
11
179
21
88
31
0
0
LINE
5
34
330
6
100
AcDbEntity
8
CHAMBER-STRUCTURE
100
AcDbLine
10
151
20
78
30
0
11
179
21
78
31
0
0
LINE
5
35
330
6
100
AcDbEntity
8
CHAMBER-STRUCTURE
100
AcDbLine
10
223
20
83
30
0
11
251
21
83
31
0
0
LINE
5
36
330
6
100
AcDbEntity
8
CHAMBER-STRUCTURE
100
AcDbLine
10
223
20
73
30
0
11
251
21
73
31
0
0
LWPOLYLINE
5
37
330
6
100
AcDbEntity
8
CHAMBER-STRUCTURE
100
AcDbPolyline
90
4
70
1
38
0
10
179
20
70
10
194
20
64
10
207
20
64
10
223
20
70
0
LINE
5
38
330
6
100
AcDbEntity
8
CHAMBER-CONTEXT
100
AcDbLine
10
173
20
78
30
0
11
181
21
78
31
0
0
LINE
5
39
330
6
100
AcDbEntity
8
CHAMBER-CONTEXT
100
AcDbLine
10
173
20
89
30
0
11
181
21
89
31
0
0
LINE
5
3A
330
6
100
AcDbEntity
8
CHAMBER-CONTEXT
100
AcDbLine
10
173
20
100
30
0
11
181
21
100
31
0
0
LINE
5
3B
330
6
100
AcDbEntity
8
CHAMBER-CONTEXT
100
AcDbLine
10
173
20
111
30
0
11
181
21
111
31
0
0
LINE
5
3C
330
6
100
AcDbEntity
8
CHAMBER-ANNO
100
AcDbLine
10
235
20
121
30
0
11
253
21
127
31
0
0
TEXT
5
3D
330
6
100
AcDbEntity
8
CHAMBER-ANNO
100
AcDbText
10
239
20
130
30
0
40
2.7
1
COVER
100
AcDbText
0
LINE
5
3E
330
6
100
AcDbEntity
8
CHAMBER-ANNO
100
AcDbLine
10
226
20
58
30
0
11
253
21
48
31
0
0
TEXT
5
3F
330
6
100
AcDbEntity
8
CHAMBER-ANNO
100
AcDbText
10
225
20
43
30
0
40
2.7
1
BASE SLAB
100
AcDbText
0
TEXT
5
40
330
6
100
AcDbEntity
8
CHAMBER-ANNO
100
AcDbText
10
18
20
38
30
0
40
2.6
1
Concept detail only. Set sizes, levels and materials from project design.
100
AcDbText
0
ENDSEC
0
SECTION
2
OBJECTS
0
DICTIONARY
5
4D
330
0
100
AcDbDictionary
281
1
3
ACAD_LAYOUT
350
4E
0
DICTIONARY
5
4E
330
4D
100
AcDbDictionary
280
1
281
1
3
Model
350
8
3
Layout1
350
9
0
LAYOUT
5
8
102
{ACAD_REACTORS
330
4E
102
}
330
4E
100
AcDbPlotSettings
44
297
45
210
48
-10
49
-10
140
287
141
200
142
1
143
1
70
0
72
1
74
4
100
AcDbLayout
1
Model
70
1
71
0
12
0
22
0
32
0
14
100000000000000000000
24
100000000000000000000
34
100000000000000000000
15
-100000000000000000000
25
-100000000000000000000
35
-100000000000000000000
13
0
23
0
33
0
16
1
26
0
36
0
17
0
27
1
37
0
330
6
0
LAYOUT
5
9
102
{ACAD_REACTORS
330
4E
102
}
330
4E
100
AcDbPlotSettings
100
AcDbLayout
1
Layout1
70
1
71
1
10
0
20
0
11
420
21
297
12
0
22
0
32
0
14
100000000000000000000
24
100000000000000000000
34
100000000000000000000
15
-100000000000000000000
25
-100000000000000000000
35
-100000000000000000000
13
0
23
0
33
0
16
1
26
0
36
0
17
0
27
1
37
0
330
7
0
ENDSEC
0
EOF
