0
SECTION
2
HEADER
9
$ACADVER
1
AC1032
9
$DWGCODEPAGE
3
UTF-8
9
$HANDSEED
5
59
9
$LTSCALE
40
1
9
$PDMODE
70
0
9
$PDSIZE
40
0
9
$TEXTSTYLE
7
STANDARD
9
$INSUNITS
70
4
9
$MEASUREMENT
70
1
0
ENDSEC
0
SECTION
2
TABLES
0
TABLE
2
LTYPE
5
38
330
0
100
AcDbSymbolTable
70
2
0
LTYPE
5
2
330
38
100
AcDbSymbolTableRecord
100
AcDbLinetypeTableRecord
2
CONTINUOUS
70
0
3
Solid line
72
65
73
0
40
0
0
LTYPE
5
A
330
38
100
AcDbSymbolTableRecord
100
AcDbLinetypeTableRecord
2
CENTER
70
0
3
Long-short center line
72
65
73
4
40
11
49
8
74
0
49
-1
74
0
49
1
74
0
49
-1
74
0
0
ENDTAB
0
TABLE
2
STYLE
5
39
330
0
100
AcDbSymbolTable
70
1
0
STYLE
5
3
330
39
100
AcDbSymbolTableRecord
100
AcDbTextStyleTableRecord
2
STANDARD
70
0
40
0
41
1
50
0
71
0
42
2.5
3
sans-serif
4

0
ENDTAB
0
TABLE
2
DIMSTYLE
5
3A
330
0
100
AcDbSymbolTable
70
2
100
AcDbDimStyleTable
0
DIMSTYLE
105
4
330
3A
100
AcDbSymbolTableRecord
100
AcDbDimStyleTableRecord
2
STANDARD
70
0
40
1
41
2.5
42
0.625
43
3.75
44
1.25
140
2.5
141
2.5
147
0.625
0
DIMSTYLE
105
11
330
3A
100
AcDbSymbolTableRecord
100
AcDbDimStyleTableRecord
271
0
2
KJDRAW-SHOWCASE
70
0
40
1
41
2.4
42
0.8
43
3.75
44
1.2
140
3
141
2.5
147
0.625
0
ENDTAB
0
TABLE
2
APPID
5
3F
330
0
100
AcDbSymbolTable
70
1
0
APPID
5
4E
330
3F
100
AcDbSymbolTableRecord
100
AcDbRegAppTableRecord
2
ACAD
70
0
0
ENDTAB
0
TABLE
2
UCS
5
3B
330
0
100
AcDbSymbolTable
70
0
0
ENDTAB
0
TABLE
2
VIEW
5
3C
330
0
100
AcDbSymbolTable
70
0
0
ENDTAB
0
TABLE
2
LAYER
5
3D
330
0
100
AcDbSymbolTable
70
7
0
LAYER
5
5
330
3D
100
AcDbSymbolTableRecord
100
AcDbLayerTableRecord
2
0
70
0
62
7
6
CONTINUOUS
290
1
370
-1
0
LAYER
5
B
330
3D
100
AcDbSymbolTableRecord
100
AcDbLayerTableRecord
2
SHEET_FRAME
70
0
62
8
6
CONTINUOUS
290
1
370
18
0
LAYER
5
C
330
3D
100
AcDbSymbolTableRecord
100
AcDbLayerTableRecord
2
PART_OUTLINE
70
0
62
7
6
CONTINUOUS
290
1
370
35
0
LAYER
5
D
330
3D
100
AcDbSymbolTableRecord
100
AcDbLayerTableRecord
2
SECTION_HATCH
70
0
62
8
6
CONTINUOUS
290
1
370
13
0
LAYER
5
E
330
3D
100
AcDbSymbolTableRecord
100
AcDbLayerTableRecord
2
CENTER_LINES
70
0
62
3
6
CENTER
290
1
370
13
0
LAYER
5
F
330
3D
100
AcDbSymbolTableRecord
100
AcDbLayerTableRecord
2
DIMENSIONS
70
0
62
2
6
CONTINUOUS
290
1
370
18
0
LAYER
5
10
330
3D
100
AcDbSymbolTableRecord
100
AcDbLayerTableRecord
2
NOTES
70
0
62
7
6
CONTINUOUS
290
1
370
18
0
ENDTAB
0
TABLE
2
BLOCK_RECORD
5
3E
330
0
100
AcDbSymbolTable
70
4
0
BLOCK_RECORD
5
6
330
3E
100
AcDbSymbolTableRecord
100
AcDbBlockTableRecord
2
*MODEL_SPACE
70
0
280
1
281
0
340
8
0
BLOCK_RECORD
5
7
330
3E
100
AcDbSymbolTableRecord
100
AcDbBlockTableRecord
2
*PAPER_SPACE
70
0
280
1
281
0
340
9
0
BLOCK_RECORD
5
40
330
3E
100
AcDbSymbolTableRecord
100
AcDbBlockTableRecord
2
*D1
70
1
280
1
281
0
0
BLOCK_RECORD
5
47
330
3E
100
AcDbSymbolTableRecord
100
AcDbBlockTableRecord
2
*D2
70
1
280
1
281
0
0
ENDTAB
0
ENDSEC
0
SECTION
2
BLOCKS
0
BLOCK
5
4F
330
6
100
AcDbEntity
8
0
100
AcDbBlockBegin
2
*MODEL_SPACE
70
0
10
0
20
0
30
0
3
*MODEL_SPACE
1

0
ENDBLK
5
50
330
6
100
AcDbEntity
8
0
100
AcDbBlockEnd
0
BLOCK
5
51
330
7
100
AcDbEntity
8
0
100
AcDbBlockBegin
2
*PAPER_SPACE
70
0
10
0
20
0
30
0
3
*PAPER_SPACE
1

0
ENDBLK
5
52
330
7
100
AcDbEntity
8
0
100
AcDbBlockEnd
0
BLOCK
5
53
330
40
100
AcDbEntity
8
0
100
AcDbBlockBegin
2
*D1
70
1
10
0
20
0
30
0
3
*D1
1

0
LINE
5
41
330
40
100
AcDbEntity
8
0
100
AcDbLine
10
168
20
140.8
30
0
11
168
21
154.2
31
0
0
LINE
5
42
330
40
100
AcDbEntity
8
0
100
AcDbLine
10
210
20
140.8
30
0
11
210
21
154.2
31
0
0
LINE
5
43
330
40
100
AcDbEntity
8
0
100
AcDbLine
10
168
20
153
30
0
11
210
21
153
31
0
0
SOLID
5
44
330
40
100
AcDbEntity
8
0
100
AcDbTrace
10
168
20
153
30
0
11
170.4
21
153.72
31
0
12
170.4
22
152.28
32
0
13
170.4
23
152.28
33
0
0
SOLID
5
45
330
40
100
AcDbEntity
8
0
100
AcDbTrace
10
210
20
153
30
0
11
207.6
21
152.28
31
0
12
207.6
22
153.72
32
0
13
207.6
23
153.72
33
0
0
TEXT
5
46
330
40
100
AcDbEntity
8
0
100
AcDbText
10
189
20
154.95
30
0
40
3
1
42
72
1
11
189
21
154.95
31
0
100
AcDbText
73
1
0
ENDBLK
5
54
330
40
100
AcDbEntity
8
0
100
AcDbBlockEnd
0
BLOCK
5
55
330
47
100
AcDbEntity
8
0
100
AcDbBlockBegin
2
*D2
70
1
10
0
20
0
30
0
3
*D2
1

0
LINE
5
48
330
47
100
AcDbEntity
8
0
100
AcDbLine
10
53.2
20
84
30
0
11
37.8
21
84
31
0
0
LINE
5
49
330
47
100
AcDbEntity
8
0
100
AcDbLine
10
53.2
20
140
30
0
11
37.8
21
140
31
0
0
LINE
5
4A
330
47
100
AcDbEntity
8
0
100
AcDbLine
10
39
20
84
30
0
11
39
21
140
31
0
0
SOLID
5
4B
330
47
100
AcDbEntity
8
0
100
AcDbTrace
10
39
20
84
30
0
11
38.28
21
86.4
31
0
12
39.72
22
86.4
32
0
13
39.72
23
86.4
33
0
0
SOLID
5
4C
330
47
100
AcDbEntity
8
0
100
AcDbTrace
10
39
20
140
30
0
11
39.72
21
137.6
31
0
12
38.28
22
137.6
32
0
13
38.28
23
137.6
33
0
0
TEXT
5
4D
330
47
100
AcDbEntity
8
0
100
AcDbText
10
37.05
20
112
30
0
40
3
1
56
50
90
72
1
11
37.05
21
112
31
0
100
AcDbText
73
1
0
ENDBLK
5
56
330
47
100
AcDbEntity
8
0
100
AcDbBlockEnd
0
ENDSEC
0
SECTION
2
ENTITIES
0
LWPOLYLINE
5
12
330
6
100
AcDbEntity
8
SHEET_FRAME
100
AcDbPolyline
90
4
70
1
38
0
10
8
20
8
10
289
20
8
10
289
20
202
10
8
20
202
0
LWPOLYLINE
5
13
330
6
100
AcDbEntity
8
SHEET_FRAME
100
AcDbPolyline
90
4
70
1
38
0
10
12
20
12
10
285
20
12
10
285
20
198
10
12
20
198
0
LINE
5
14
330
6
100
AcDbEntity
8
SHEET_FRAME
100
AcDbLine
10
12
20
183
30
0
11
285
21
183
31
0
0
LINE
5
15
330
6
100
AcDbEntity
8
SHEET_FRAME
100
AcDbLine
10
12
20
39
30
0
11
285
21
39
31
0
0
LINE
5
16
330
6
100
AcDbEntity
8
SHEET_FRAME
100
AcDbLine
10
12
20
26
30
0
11
285
21
26
31
0
0
LINE
5
17
330
6
100
AcDbEntity
8
SHEET_FRAME
100
AcDbLine
10
175
20
12
30
0
11
175
21
39
31
0
0
LINE
5
18
330
6
100
AcDbEntity
8
SHEET_FRAME
100
AcDbLine
10
238
20
12
30
0
11
238
21
39
31
0
0
TEXT
5
19
330
6
100
AcDbEntity
8
NOTES
100
AcDbText
10
17
20
190
30
0
40
4
1
KJDRAW  /  EDITABLE MACHINE COMPONENTS
100
AcDbText
0
TEXT
5
1A
330
6
100
AcDbEntity
8
NOTES
100
AcDbText
10
244
20
190
30
0
40
3.2
1
MC-202 / A
100
AcDbText
0
TEXT
5
1B
330
6
100
AcDbEntity
8
NOTES
100
AcDbText
10
16
20
30
30
0
40
2.4
1
PART
100
AcDbText
0
TEXT
5
1C
330
6
100
AcDbEntity
8
NOTES
100
AcDbText
10
47
20
29
30
0
40
4
1
KEYED TRANSMISSION HUB
100
AcDbText
0
TEXT
5
1D
330
6
100
AcDbEntity
8
NOTES
100
AcDbText
10
16
20
17
30
0
40
2.4
1
DRAWING
100
AcDbText
0
TEXT
5
1E
330
6
100
AcDbEntity
8
NOTES
100
AcDbText
10
47
20
17
30
0
40
3.8
1
MC-202
100
AcDbText
0
TEXT
5
1F
330
6
100
AcDbEntity
8
NOTES
100
AcDbText
10
179
20
30
30
0
40
2.4
1
MATERIAL
100
AcDbText
0
TEXT
5
20
330
6
100
AcDbEntity
8
NOTES
100
AcDbText
10
179
20
17
30
0
40
2.7
1
STEEL / CONCEPT
100
AcDbText
0
TEXT
5
21
330
6
100
AcDbEntity
8
NOTES
100
AcDbText
10
241
20
30
30
0
40
2.4
1
UNITS  mm
100
AcDbText
0
TEXT
5
22
330
6
100
AcDbEntity
8
NOTES
100
AcDbText
10
241
20
17
30
0
40
2.7
1
SCALE  1:1
100
AcDbText
0
TEXT
5
23
330
6
100
AcDbEntity
8
NOTES
100
AcDbText
10
16
20
43
30
0
40
2.65
1
ILLUSTRATIVE COMPONENT / DIMENSIONS REQUIRE DESIGN REVIEW
100
AcDbText
0
CIRCLE
5
24
330
6
100
AcDbEntity
8
PART_OUTLINE
100
AcDbCircle
10
82
20
112
30
0
40
28
210
0
220
0
230
1
0
CIRCLE
5
25
330
6
100
AcDbEntity
8
PART_OUTLINE
100
AcDbCircle
10
82
20
112
30
0
40
12
210
0
220
0
230
1
0
LWPOLYLINE
5
26
330
6
100
AcDbEntity
8
PART_OUTLINE
100
AcDbPolyline
90
4
70
1
38
0
10
78
20
124
10
86
20
124
10
86
20
129
10
78
20
129
0
LINE
5
27
330
6
100
AcDbEntity
8
CENTER_LINES
100
AcDbLine
10
48
20
112
30
0
11
116
21
112
31
0
0
LINE
5
28
330
6
100
AcDbEntity
8
CENTER_LINES
100
AcDbLine
10
82
20
78
30
0
11
82
21
146
31
0
0
HATCH
5
29
330
6
100
AcDbEntity
8
SECTION_HATCH
100
AcDbHatch
10
0
20
0
30
0
2
ANSI31
70
0
71
0
91
1
92
3
72
0
73
1
93
4
10
168
20
84
10
210
20
84
10
210
20
100
10
168
20
100
97
0
75
0
76
1
52
0
41
1.6
77
0
78
1
53
45
43
0
44
0
45
-3.592102448427661
46
3.592102448427662
79
0
0
HATCH
5
2A
330
6
100
AcDbEntity
8
SECTION_HATCH
100
AcDbHatch
10
0
20
0
30
0
2
ANSI31
70
0
71
0
91
1
92
3
72
0
73
1
93
4
10
168
20
124
10
210
20
124
10
210
20
140
10
168
20
140
97
0
75
0
76
1
52
0
41
1.6
77
0
78
1
53
45
43
0
44
0
45
-3.592102448427661
46
3.592102448427662
79
0
0
LWPOLYLINE
5
2B
330
6
100
AcDbEntity
8
PART_OUTLINE
100
AcDbPolyline
90
4
70
1
38
0
10
168
20
84
10
210
20
84
10
210
20
140
10
168
20
140
0
LINE
5
2C
330
6
100
AcDbEntity
8
PART_OUTLINE
100
AcDbLine
10
168
20
100
30
0
11
210
21
100
31
0
0
LINE
5
2D
330
6
100
AcDbEntity
8
PART_OUTLINE
100
AcDbLine
10
168
20
124
30
0
11
210
21
124
31
0
0
LINE
5
2E
330
6
100
AcDbEntity
8
CENTER_LINES
100
AcDbLine
10
163
20
112
30
0
11
215
21
112
31
0
0
DIMENSION
5
2F
330
6
100
AcDbEntity
8
DIMENSIONS
100
AcDbDimension
280
0
2
*D1
10
189
20
153
30
0
11
189
21
154.95
31
0
3
KJDRAW-SHOWCASE
70
33
71
5
42
42
100
AcDbAlignedDimension
13
168
23
140
33
0
14
210
24
140
34
0
1001
ACAD
1000
DSTYLE
1002
{
1070
140
1040
3
1070
40
1040
1
1070
41
1040
2.4
1070
42
1040
0.8
1070
44
1040
1.2
1070
144
1040
1
1070
78
1070
8
1070
271
1070
0
1070
277
1070
2
1070
278
1070
46
1002
}
0
DIMENSION
5
30
330
6
100
AcDbEntity
8
DIMENSIONS
100
AcDbDimension
280
0
2
*D2
10
39
20
112
30
0
11
37.05
21
112
31
0
3
KJDRAW-SHOWCASE
70
33
71
5
42
56
100
AcDbAlignedDimension
13
54
23
84
33
0
14
54
24
140
34
0
50
90
1001
ACAD
1000
DSTYLE
1002
{
1070
140
1040
3
1070
40
1040
1
1070
41
1040
2.4
1070
42
1040
0.8
1070
44
1040
1.2
1070
144
1040
1
1070
78
1070
8
1070
271
1070
0
1070
277
1070
2
1070
278
1070
46
1002
}
0
TEXT
5
31
330
6
100
AcDbEntity
8
NOTES
100
AcDbText
10
55
20
68
30
0
40
3.2
1
END VIEW
100
AcDbText
0
TEXT
5
32
330
6
100
AcDbEntity
8
NOTES
100
AcDbText
10
166
20
68
30
0
40
3.2
1
AXIAL SECTION
100
AcDbText
0
TEXT
5
33
330
6
100
AcDbEntity
8
NOTES
100
AcDbText
10
223
20
135
30
0
40
3
1
OD 56
100
AcDbText
0
TEXT
5
34
330
6
100
AcDbEntity
8
NOTES
100
AcDbText
10
223
20
123
30
0
40
3
1
BORE DIA 24
100
AcDbText
0
TEXT
5
35
330
6
100
AcDbEntity
8
NOTES
100
AcDbText
10
223
20
111
30
0
40
3
1
KEYWAY 8 WIDE
100
AcDbText
0
TEXT
5
36
330
6
100
AcDbEntity
8
NOTES
100
AcDbText
10
223
20
99
30
0
40
3
1
LENGTH 42
100
AcDbText
0
TEXT
5
37
330
6
100
AcDbEntity
8
NOTES
100
AcDbText
10
54
20
54
30
0
40
2.8
1
KEY DEPTH, TOLERANCE AND FIT TO BE DEFINED
100
AcDbText
0
ENDSEC
0
SECTION
2
OBJECTS
0
DICTIONARY
5
57
330
0
100
AcDbDictionary
281
1
3
ACAD_LAYOUT
350
58
0
DICTIONARY
5
58
330
57
100
AcDbDictionary
280
1
281
1
3
Model
350
8
3
Layout1
350
9
0
LAYOUT
5
8
102
{ACAD_REACTORS
330
58
102
}
330
58
100
AcDbPlotSettings
44
297
45
210
48
0
49
0
140
297
141
210
142
1
143
1
70
0
72
1
74
4
100
AcDbLayout
1
Model
70
1
71
0
12
0
22
0
32
0
14
100000000000000000000
24
100000000000000000000
34
100000000000000000000
15
-100000000000000000000
25
-100000000000000000000
35
-100000000000000000000
13
0
23
0
33
0
16
1
26
0
36
0
17
0
27
1
37
0
330
6
0
LAYOUT
5
9
102
{ACAD_REACTORS
330
58
102
}
330
58
100
AcDbPlotSettings
100
AcDbLayout
1
Layout1
70
1
71
1
10
0
20
0
11
420
21
297
12
0
22
0
32
0
14
100000000000000000000
24
100000000000000000000
34
100000000000000000000
15
-100000000000000000000
25
-100000000000000000000
35
-100000000000000000000
13
0
23
0
33
0
16
1
26
0
36
0
17
0
27
1
37
0
330
7
0
ENDSEC
0
EOF
