0
SECTION
2
HEADER
9
$ACADVER
1
AC1032
9
$DWGCODEPAGE
3
UTF-8
9
$HANDSEED
5
89
9
$LTSCALE
40
1
9
$PDMODE
70
0
9
$PDSIZE
40
0
9
$TEXTSTYLE
7
STANDARD
9
$INSUNITS
70
4
9
$MEASUREMENT
70
1
0
ENDSEC
0
SECTION
2
TABLES
0
TABLE
2
LTYPE
5
7B
330
0
100
AcDbSymbolTable
70
1
0
LTYPE
5
2
330
7B
100
AcDbSymbolTableRecord
100
AcDbLinetypeTableRecord
2
CONTINUOUS
70
0
3
Solid line
72
65
73
0
40
0
0
ENDTAB
0
TABLE
2
STYLE
5
7C
330
0
100
AcDbSymbolTable
70
1
0
STYLE
5
3
330
7C
100
AcDbSymbolTableRecord
100
AcDbTextStyleTableRecord
2
STANDARD
70
0
40
0
41
1
50
0
71
0
42
2.5
3
sans-serif
4

0
ENDTAB
0
TABLE
2
DIMSTYLE
5
7D
330
0
100
AcDbSymbolTable
70
1
100
AcDbDimStyleTable
0
DIMSTYLE
105
4
330
7D
100
AcDbSymbolTableRecord
100
AcDbDimStyleTableRecord
2
STANDARD
70
0
40
1
41
2.5
42
0.625
43
3.75
44
1.25
140
2.5
141
2.5
147
0.625
0
ENDTAB
0
TABLE
2
UCS
5
7E
330
0
100
AcDbSymbolTable
70
0
0
ENDTAB
0
TABLE
2
VIEW
5
7F
330
0
100
AcDbSymbolTable
70
0
0
ENDTAB
0
TABLE
2
LAYER
5
80
330
0
100
AcDbSymbolTable
70
9
0
LAYER
5
5
330
80
100
AcDbSymbolTableRecord
100
AcDbLayerTableRecord
2
0
70
0
62
7
6
CONTINUOUS
290
1
370
-1
0
LAYER
5
A
330
80
100
AcDbSymbolTableRecord
100
AcDbLayerTableRecord
2
FRAME
70
0
62
7
6
CONTINUOUS
290
1
370
-1
0
LAYER
5
B
330
80
100
AcDbSymbolTableRecord
100
AcDbLayerTableRecord
2
M-OBJECT
70
0
62
7
6
CONTINUOUS
290
1
370
-1
0
LAYER
5
C
330
80
100
AcDbSymbolTableRecord
100
AcDbLayerTableRecord
2
M-HIDDEN
70
0
62
8
6
CONTINUOUS
290
1
370
-1
0
LAYER
5
D
330
80
100
AcDbSymbolTableRecord
100
AcDbLayerTableRecord
2
M-CENTER
70
0
62
3
6
CONTINUOUS
290
1
370
-1
0
LAYER
5
E
330
80
100
AcDbSymbolTableRecord
100
AcDbLayerTableRecord
2
M-HATCH
70
0
62
6
6
CONTINUOUS
290
1
370
-1
0
LAYER
5
F
330
80
100
AcDbSymbolTableRecord
100
AcDbLayerTableRecord
2
DIMS
70
0
62
2
6
CONTINUOUS
290
1
370
-1
0
LAYER
5
10
330
80
100
AcDbSymbolTableRecord
100
AcDbLayerTableRecord
2
ANNO
70
0
62
7
6
CONTINUOUS
290
1
370
-1
0
LAYER
5
11
330
80
100
AcDbSymbolTableRecord
100
AcDbLayerTableRecord
2
TITLE
70
0
62
7
6
CONTINUOUS
290
1
370
-1
0
ENDTAB
0
TABLE
2
BLOCK_RECORD
5
81
330
0
100
AcDbSymbolTable
70
2
0
BLOCK_RECORD
5
6
330
81
100
AcDbSymbolTableRecord
100
AcDbBlockTableRecord
2
*MODEL_SPACE
70
0
280
1
281
0
340
8
0
BLOCK_RECORD
5
7
330
81
100
AcDbSymbolTableRecord
100
AcDbBlockTableRecord
2
*PAPER_SPACE
70
0
280
1
281
0
340
9
0
ENDTAB
0
ENDSEC
0
SECTION
2
BLOCKS
0
BLOCK
5
83
330
6
100
AcDbEntity
8
0
100
AcDbBlockBegin
2
*MODEL_SPACE
70
0
10
0
20
0
30
0
3
*MODEL_SPACE
1

0
ENDBLK
5
84
330
6
100
AcDbEntity
8
0
100
AcDbBlockEnd
0
BLOCK
5
85
330
7
100
AcDbEntity
8
0
100
AcDbBlockBegin
2
*PAPER_SPACE
70
0
10
0
20
0
30
0
3
*PAPER_SPACE
1

0
ENDBLK
5
86
330
7
100
AcDbEntity
8
0
100
AcDbBlockEnd
0
ENDSEC
0
SECTION
2
ENTITIES
0
LWPOLYLINE
5
12
330
6
100
AcDbEntity
8
FRAME
100
AcDbPolyline
90
4
70
1
38
0
10
-8
20
-12
10
248
20
-12
10
248
20
152
10
-8
20
152
0
LWPOLYLINE
5
13
330
6
100
AcDbEntity
8
FRAME
100
AcDbPolyline
90
4
70
1
38
0
10
-5
20
-9
10
245
20
-9
10
245
20
149
10
-5
20
149
0
LWPOLYLINE
5
14
330
6
100
AcDbEntity
8
FRAME
100
AcDbPolyline
90
4
70
1
38
0
10
136
20
-9
10
245
20
-9
10
245
20
9
10
136
20
9
0
LINE
5
15
330
6
100
AcDbEntity
8
FRAME
100
AcDbLine
10
194
20
-9
30
0
11
194
21
9
31
0
0
LINE
5
16
330
6
100
AcDbEntity
8
FRAME
100
AcDbLine
10
218
20
-9
30
0
11
218
21
9
31
0
0
LINE
5
17
330
6
100
AcDbEntity
8
FRAME
100
AcDbLine
10
194
20
0
30
0
11
245
21
0
31
0
0
TEXT
5
18
330
6
100
AcDbEntity
8
TITLE
100
AcDbText
10
139
20
2
30
0
40
2.25
1
BEARING BRACKET · MACHINING
7
STANDARD
100
AcDbText
0
TEXT
5
19
330
6
100
AcDbEntity
8
TITLE
100
AcDbText
10
139
20
-4
30
0
40
1.35
1
MECHANICAL DETAIL
7
STANDARD
100
AcDbText
0
TEXT
5
1A
330
6
100
AcDbEntity
8
TITLE
100
AcDbText
10
197
20
3.5
30
0
40
1.15
1
SCALE  1:1
7
STANDARD
100
AcDbText
0
TEXT
5
1B
330
6
100
AcDbEntity
8
TITLE
100
AcDbText
10
197
20
-4.5
30
0
40
1.15
1
REV  A
7
STANDARD
100
AcDbText
0
TEXT
5
1C
330
6
100
AcDbEntity
8
TITLE
100
AcDbText
10
221
20
3.5
30
0
40
1.2
1
M-2047
7
STANDARD
100
AcDbText
0
TEXT
5
1D
330
6
100
AcDbEntity
8
TITLE
100
AcDbText
10
221
20
-4.5
30
0
40
0.95
1
SYNTHETIC
7
STANDARD
100
AcDbText
0
LWPOLYLINE
5
1E
330
6
100
AcDbEntity
8
M-OBJECT
100
AcDbPolyline
90
10
70
1
38
0
10
22
20
47
10
22
20
63
10
39
20
63
10
47
20
78
10
47
20
111
10
91
20
111
10
91
20
78
10
99
20
63
10
116
20
63
10
116
20
47
0
LINE
5
1F
330
6
100
AcDbEntity
8
M-OBJECT
100
AcDbLine
10
22
20
47
30
0
11
116
21
47
31
0
0
CIRCLE
5
20
330
6
100
AcDbEntity
8
M-OBJECT
100
AcDbCircle
10
69
20
88
30
0
40
18
210
0
220
0
230
1
0
CIRCLE
5
21
330
6
100
AcDbEntity
8
M-OBJECT
100
AcDbCircle
10
69
20
88
30
0
40
10
210
0
220
0
230
1
0
CIRCLE
5
22
330
6
100
AcDbEntity
8
M-OBJECT
100
AcDbCircle
10
34
20
55
30
0
40
4
210
0
220
0
230
1
0
LINE
5
23
330
6
100
AcDbEntity
8
M-CENTER
100
AcDbLine
10
27
20
55
30
0
11
41
21
55
31
0
0
LINE
5
24
330
6
100
AcDbEntity
8
M-CENTER
100
AcDbLine
10
34
20
48
30
0
11
34
21
62
31
0
0
CIRCLE
5
25
330
6
100
AcDbEntity
8
M-OBJECT
100
AcDbCircle
10
104
20
55
30
0
40
4
210
0
220
0
230
1
0
LINE
5
26
330
6
100
AcDbEntity
8
M-CENTER
100
AcDbLine
10
97
20
55
30
0
11
111
21
55
31
0
0
LINE
5
27
330
6
100
AcDbEntity
8
M-CENTER
100
AcDbLine
10
104
20
48
30
0
11
104
21
62
31
0
0
LINE
5
28
330
6
100
AcDbEntity
8
M-CENTER
100
AcDbLine
10
44
20
88
30
0
11
94
21
88
31
0
0
LINE
5
29
330
6
100
AcDbEntity
8
M-CENTER
100
AcDbLine
10
69
20
63
30
0
11
69
21
113
31
0
0
LINE
5
2A
330
6
100
AcDbEntity
8
M-HIDDEN
100
AcDbLine
10
51
20
88
30
0
11
87
21
88
31
0
0
LINE
5
2B
330
6
100
AcDbEntity
8
M-HIDDEN
100
AcDbLine
10
69
20
70
30
0
11
69
21
106
31
0
0
LWPOLYLINE
5
2C
330
6
100
AcDbEntity
8
M-OBJECT
100
AcDbPolyline
90
4
70
1
38
0
10
139
20
47
10
209
20
47
10
209
20
109
10
139
20
109
0
LWPOLYLINE
5
2D
330
6
100
AcDbEntity
8
M-OBJECT
100
AcDbPolyline
90
4
70
1
38
0
10
154
20
62
10
194
20
62
10
194
20
93
10
154
20
93
0
CIRCLE
5
2E
330
6
100
AcDbEntity
8
M-OBJECT
100
AcDbCircle
10
174
20
77.5
30
0
40
10
210
0
220
0
230
1
0
LINE
5
2F
330
6
100
AcDbEntity
8
M-CENTER
100
AcDbLine
10
140
20
77.5
30
0
11
208
21
77.5
31
0
0
LINE
5
30
330
6
100
AcDbEntity
8
M-CENTER
100
AcDbLine
10
174
20
43.5
30
0
11
174
21
111.5
31
0
0
LINE
5
31
330
6
100
AcDbEntity
8
M-HATCH
100
AcDbLine
10
141
20
49
30
0
11
160
21
68
31
0
0
LINE
5
32
330
6
100
AcDbEntity
8
M-HATCH
100
AcDbLine
10
141
20
95
30
0
11
153
21
107
31
0
0
LINE
5
33
330
6
100
AcDbEntity
8
M-HATCH
100
AcDbLine
10
146
20
49
30
0
11
165
21
68
31
0
0
LINE
5
34
330
6
100
AcDbEntity
8
M-HATCH
100
AcDbLine
10
146
20
95
30
0
11
158
21
107
31
0
0
LINE
5
35
330
6
100
AcDbEntity
8
M-HATCH
100
AcDbLine
10
151
20
49
30
0
11
170
21
68
31
0
0
LINE
5
36
330
6
100
AcDbEntity
8
M-HATCH
100
AcDbLine
10
151
20
95
30
0
11
163
21
107
31
0
0
LINE
5
37
330
6
100
AcDbEntity
8
M-HATCH
100
AcDbLine
10
156
20
49
30
0
11
175
21
68
31
0
0
LINE
5
38
330
6
100
AcDbEntity
8
M-HATCH
100
AcDbLine
10
156
20
95
30
0
11
168
21
107
31
0
0
LINE
5
39
330
6
100
AcDbEntity
8
M-HATCH
100
AcDbLine
10
161
20
49
30
0
11
180
21
68
31
0
0
LINE
5
3A
330
6
100
AcDbEntity
8
M-HATCH
100
AcDbLine
10
161
20
95
30
0
11
173
21
107
31
0
0
LINE
5
3B
330
6
100
AcDbEntity
8
M-HATCH
100
AcDbLine
10
166
20
49
30
0
11
185
21
68
31
0
0
LINE
5
3C
330
6
100
AcDbEntity
8
M-HATCH
100
AcDbLine
10
166
20
95
30
0
11
178
21
107
31
0
0
LINE
5
3D
330
6
100
AcDbEntity
8
M-HATCH
100
AcDbLine
10
171
20
49
30
0
11
190
21
68
31
0
0
LINE
5
3E
330
6
100
AcDbEntity
8
M-HATCH
100
AcDbLine
10
171
20
95
30
0
11
183
21
107
31
0
0
LINE
5
3F
330
6
100
AcDbEntity
8
M-HATCH
100
AcDbLine
10
176
20
49
30
0
11
195
21
68
31
0
0
LINE
5
40
330
6
100
AcDbEntity
8
M-HATCH
100
AcDbLine
10
176
20
95
30
0
11
188
21
107
31
0
0
LINE
5
41
330
6
100
AcDbEntity
8
M-HATCH
100
AcDbLine
10
181
20
49
30
0
11
200
21
68
31
0
0
LINE
5
42
330
6
100
AcDbEntity
8
M-HATCH
100
AcDbLine
10
181
20
95
30
0
11
193
21
107
31
0
0
LINE
5
43
330
6
100
AcDbEntity
8
M-HATCH
100
AcDbLine
10
186
20
49
30
0
11
205
21
68
31
0
0
LINE
5
44
330
6
100
AcDbEntity
8
M-HATCH
100
AcDbLine
10
186
20
95
30
0
11
198
21
107
31
0
0
LINE
5
45
330
6
100
AcDbEntity
8
M-HATCH
100
AcDbLine
10
191
20
49
30
0
11
208
21
68
31
0
0
LINE
5
46
330
6
100
AcDbEntity
8
M-HATCH
100
AcDbLine
10
191
20
95
30
0
11
203
21
107
31
0
0
LINE
5
47
330
6
100
AcDbEntity
8
M-HATCH
100
AcDbLine
10
196
20
49
30
0
11
208
21
68
31
0
0
LINE
5
48
330
6
100
AcDbEntity
8
M-HATCH
100
AcDbLine
10
196
20
95
30
0
11
208
21
107
31
0
0
LINE
5
49
330
6
100
AcDbEntity
8
M-HATCH
100
AcDbLine
10
201
20
49
30
0
11
208
21
68
31
0
0
LINE
5
4A
330
6
100
AcDbEntity
8
M-HATCH
100
AcDbLine
10
201
20
95
30
0
11
208
21
107
31
0
0
LINE
5
4B
330
6
100
AcDbEntity
8
M-HATCH
100
AcDbLine
10
206
20
49
30
0
11
208
21
68
31
0
0
LINE
5
4C
330
6
100
AcDbEntity
8
M-HATCH
100
AcDbLine
10
206
20
95
30
0
11
208
21
107
31
0
0
LINE
5
4D
330
6
100
AcDbEntity
8
M-CENTER
100
AcDbLine
10
130
20
117
30
0
11
217
21
117
31
0
0
TEXT
5
4E
330
6
100
AcDbEntity
8
ANNO
100
AcDbText
10
163
20
112
30
0
40
1.8
1
SECTION A—A
7
STANDARD
100
AcDbText
0
CIRCLE
5
4F
330
6
100
AcDbEntity
8
M-OBJECT
100
AcDbCircle
10
190
20
128
30
0
40
10
210
0
220
0
230
1
0
ARC
5
50
330
6
100
AcDbEntity
8
M-OBJECT
100
AcDbCircle
10
190
20
128
30
0
40
6
100
AcDbArc
50
0
51
270
210
0
220
0
230
1
0
LINE
5
51
330
6
100
AcDbEntity
8
M-CENTER
100
AcDbLine
10
177
20
128
30
0
11
203
21
128
31
0
0
LINE
5
52
330
6
100
AcDbEntity
8
M-CENTER
100
AcDbLine
10
190
20
115
30
0
11
190
21
141
31
0
0
TEXT
5
53
330
6
100
AcDbEntity
8
ANNO
100
AcDbText
10
204
20
132
30
0
40
1.5
1
DETAIL B
7
STANDARD
100
AcDbText
0
LINE
5
54
330
6
100
AcDbEntity
8
DIMS
100
AcDbLine
10
22
20
47
30
0
11
22
21
36.5
31
0
0
LINE
5
55
330
6
100
AcDbEntity
8
DIMS
100
AcDbLine
10
116
20
47
30
0
11
116
21
36.5
31
0
0
LINE
5
56
330
6
100
AcDbEntity
8
DIMS
100
AcDbLine
10
22
20
38
30
0
11
116
21
38
31
0
0
LINE
5
57
330
6
100
AcDbEntity
8
DIMS
100
AcDbLine
10
22
20
38
30
0
11
20.31134414899597
21
39.071653589958
31
0
0
LINE
5
58
330
6
100
AcDbEntity
8
DIMS
100
AcDbLine
10
22
20
38
30
0
11
20.31134414899597
21
36.928346410042
31
0
0
LINE
5
59
330
6
100
AcDbEntity
8
DIMS
100
AcDbLine
10
116
20
38
30
0
11
117.68865585100403
21
36.928346410042
31
0
0
LINE
5
5A
330
6
100
AcDbEntity
8
DIMS
100
AcDbLine
10
116
20
38
30
0
11
117.68865585100403
21
39.071653589958
31
0
0
TEXT
5
5B
330
6
100
AcDbEntity
8
DIMS
100
AcDbText
10
67.7
20
36.9
30
0
40
1.5
1
94
7
STANDARD
100
AcDbText
0
LINE
5
5C
330
6
100
AcDbEntity
8
DIMS
100
AcDbLine
10
47
20
111
30
0
11
47
21
121.5
31
0
0
LINE
5
5D
330
6
100
AcDbEntity
8
DIMS
100
AcDbLine
10
91
20
111
30
0
11
91
21
121.5
31
0
0
LINE
5
5E
330
6
100
AcDbEntity
8
DIMS
100
AcDbLine
10
47
20
120
30
0
11
91
21
120
31
0
0
LINE
5
5F
330
6
100
AcDbEntity
8
DIMS
100
AcDbLine
10
47
20
120
30
0
11
45.31134414899597
21
121.07165358995799
31
0
0
LINE
5
60
330
6
100
AcDbEntity
8
DIMS
100
AcDbLine
10
47
20
120
30
0
11
45.31134414899597
21
118.92834641004201
31
0
0
LINE
5
61
330
6
100
AcDbEntity
8
DIMS
100
AcDbLine
10
91
20
120
30
0
11
92.68865585100403
21
118.92834641004201
31
0
0
LINE
5
62
330
6
100
AcDbEntity
8
DIMS
100
AcDbLine
10
91
20
120
30
0
11
92.68865585100403
21
121.07165358995799
31
0
0
TEXT
5
63
330
6
100
AcDbEntity
8
DIMS
100
AcDbText
10
67.7
20
121.1
30
0
40
1.5
1
44
7
STANDARD
100
AcDbText
0
LINE
5
64
330
6
100
AcDbEntity
8
DIMS
100
AcDbLine
10
116
20
47
30
0
11
127.5
21
47
31
0
0
LINE
5
65
330
6
100
AcDbEntity
8
DIMS
100
AcDbLine
10
116
20
111
30
0
11
127.5
21
111
31
0
0
LINE
5
66
330
6
100
AcDbEntity
8
DIMS
100
AcDbLine
10
126
20
47
30
0
11
126
21
111
31
0
0
LINE
5
67
330
6
100
AcDbEntity
8
DIMS
100
AcDbLine
10
126
20
47
30
0
11
124.92834641004201
21
45.31134414899597
31
0
0
LINE
5
68
330
6
100
AcDbEntity
8
DIMS
100
AcDbLine
10
126
20
47
30
0
11
127.07165358995799
21
45.31134414899597
31
0
0
LINE
5
69
330
6
100
AcDbEntity
8
DIMS
100
AcDbLine
10
126
20
111
30
0
11
127.07165358995799
21
112.68865585100403
31
0
0
LINE
5
6A
330
6
100
AcDbEntity
8
DIMS
100
AcDbLine
10
126
20
111
30
0
11
124.92834641004201
21
112.68865585100403
31
0
0
TEXT
5
6B
330
6
100
AcDbEntity
8
DIMS
100
AcDbText
10
127.1
20
77.7
30
0
40
1.5
1
64
7
STANDARD
50
90
100
AcDbText
0
LINE
5
6C
330
6
100
AcDbEntity
8
DIMS
100
AcDbLine
10
83
20
103
30
0
11
105
21
119
31
0
0
TEXT
5
6D
330
6
100
AcDbEntity
8
DIMS
100
AcDbText
10
106
20
119
30
0
40
1.55
1
Ø36 H7
7
STANDARD
100
AcDbText
0
LINE
5
6E
330
6
100
AcDbEntity
8
DIMS
100
AcDbLine
10
73
20
88
30
0
11
107
21
94
31
0
0
TEXT
5
6F
330
6
100
AcDbEntity
8
DIMS
100
AcDbText
10
108
20
94
30
0
40
1.35
1
Ø20 THRU
7
STANDARD
100
AcDbText
0
LWPOLYLINE
5
70
330
6
100
AcDbEntity
8
FRAME
100
AcDbPolyline
90
4
70
1
38
0
10
9
20
20
10
110
20
20
10
110
20
40
10
9
20
40
0
LINE
5
71
330
6
100
AcDbEntity
8
FRAME
100
AcDbLine
10
9
20
30
30
0
11
110
21
30
31
0
0
LINE
5
72
330
6
100
AcDbEntity
8
FRAME
100
AcDbLine
10
34
20
20
30
0
11
34
21
40
31
0
0
LINE
5
73
330
6
100
AcDbEntity
8
FRAME
100
AcDbLine
10
76
20
20
30
0
11
76
21
40
31
0
0
TEXT
5
74
330
6
100
AcDbEntity
8
TITLE
100
AcDbText
10
12
20
34
30
0
40
1
1
MATERIAL
7
STANDARD
100
AcDbText
0
TEXT
5
75
330
6
100
AcDbEntity
8
TITLE
100
AcDbText
10
12
20
25
30
0
40
1.25
1
EN-GJS-500-7
7
STANDARD
100
AcDbText
0
TEXT
5
76
330
6
100
AcDbEntity
8
TITLE
100
AcDbText
10
38
20
34
30
0
40
1
1
FINISH
7
STANDARD
100
AcDbText
0
TEXT
5
77
330
6
100
AcDbEntity
8
TITLE
100
AcDbText
10
38
20
25
30
0
40
1.15
1
Ra 3.2 UNLESS NOTED
7
STANDARD
100
AcDbText
0
TEXT
5
78
330
6
100
AcDbEntity
8
TITLE
100
AcDbText
10
80
20
34
30
0
40
1
1
TOLERANCE
7
STANDARD
100
AcDbText
0
TEXT
5
79
330
6
100
AcDbEntity
8
TITLE
100
AcDbText
10
80
20
25
30
0
40
1.15
1
ISO 2768-mK
7
STANDARD
100
AcDbText
0
TEXT
5
7A
330
6
100
AcDbEntity
8
TITLE
100
AcDbText
10
9
20
146
30
0
40
1.15
1
REMOVE BURRS · BREAK SHARP EDGES 0.5 · DIMENSIONS IN MILLIMETERS
7
STANDARD
100
AcDbText
0
ENDSEC
0
SECTION
2
OBJECTS
0
DICTIONARY
5
87
330
0
100
AcDbDictionary
281
1
3
ACAD_LAYOUT
350
88
0
DICTIONARY
5
88
330
87
100
AcDbDictionary
280
1
281
1
3
Model
350
8
3
Layout1
350
9
0
LAYOUT
5
8
102
{ACAD_REACTORS
330
88
102
}
330
88
100
AcDbPlotSettings
100
AcDbLayout
1
Model
70
1
71
0
12
0
22
0
32
0
14
100000000000000000000
24
100000000000000000000
34
100000000000000000000
15
-100000000000000000000
25
-100000000000000000000
35
-100000000000000000000
13
0
23
0
33
0
16
1
26
0
36
0
17
0
27
1
37
0
330
6
0
LAYOUT
5
9
102
{ACAD_REACTORS
330
88
102
}
330
88
100
AcDbPlotSettings
100
AcDbLayout
1
Layout1
70
1
71
1
10
0
20
0
11
420
21
297
12
0
22
0
32
0
14
100000000000000000000
24
100000000000000000000
34
100000000000000000000
15
-100000000000000000000
25
-100000000000000000000
35
-100000000000000000000
13
0
23
0
33
0
16
1
26
0
36
0
17
0
27
1
37
0
330
7
0
ENDSEC
0
EOF
