0
SECTION
2
HEADER
9
$ACADVER
1
AC1032
9
$DWGCODEPAGE
3
UTF-8
9
$HANDSEED
5
74
9
$LTSCALE
40
1
9
$PDMODE
70
0
9
$PDSIZE
40
0
9
$TEXTSTYLE
7
STANDARD
9
$INSUNITS
70
6
9
$MEASUREMENT
70
1
0
ENDSEC
0
SECTION
2
TABLES
0
TABLE
2
LTYPE
5
66
330
0
100
AcDbSymbolTable
70
1
0
LTYPE
5
2
330
66
100
AcDbSymbolTableRecord
100
AcDbLinetypeTableRecord
2
CONTINUOUS
70
0
3
Solid line
72
65
73
0
40
0
0
ENDTAB
0
TABLE
2
STYLE
5
67
330
0
100
AcDbSymbolTable
70
1
0
STYLE
5
3
330
67
100
AcDbSymbolTableRecord
100
AcDbTextStyleTableRecord
2
STANDARD
70
0
40
0
41
1
50
0
71
0
42
2.5
3
sans-serif
4

0
ENDTAB
0
TABLE
2
DIMSTYLE
5
68
330
0
100
AcDbSymbolTable
70
1
100
AcDbDimStyleTable
0
DIMSTYLE
105
4
330
68
100
AcDbSymbolTableRecord
100
AcDbDimStyleTableRecord
2
STANDARD
70
0
40
1
41
2.5
42
0.625
43
3.75
44
1.25
140
2.5
141
2.5
147
0.625
0
ENDTAB
0
TABLE
2
UCS
5
69
330
0
100
AcDbSymbolTable
70
0
0
ENDTAB
0
TABLE
2
VIEW
5
6A
330
0
100
AcDbSymbolTable
70
0
0
ENDTAB
0
TABLE
2
LAYER
5
6B
330
0
100
AcDbSymbolTable
70
8
0
LAYER
5
5
330
6B
100
AcDbSymbolTableRecord
100
AcDbLayerTableRecord
2
0
70
0
62
7
6
CONTINUOUS
290
1
370
-1
0
LAYER
5
A
330
6B
100
AcDbSymbolTableRecord
100
AcDbLayerTableRecord
2
FRAME
70
0
62
7
6
CONTINUOUS
290
1
370
-1
0
LAYER
5
B
330
6B
100
AcDbSymbolTableRecord
100
AcDbLayerTableRecord
2
M-OBJECT
70
0
62
7
6
CONTINUOUS
290
1
370
-1
0
LAYER
5
C
330
6B
100
AcDbSymbolTableRecord
100
AcDbLayerTableRecord
2
M-CENTER
70
0
62
3
6
CONTINUOUS
290
1
370
-1
0
LAYER
5
D
330
6B
100
AcDbSymbolTableRecord
100
AcDbLayerTableRecord
2
M-HIDDEN
70
0
62
8
6
CONTINUOUS
290
1
370
-1
0
LAYER
5
E
330
6B
100
AcDbSymbolTableRecord
100
AcDbLayerTableRecord
2
DIMS
70
0
62
2
6
CONTINUOUS
290
1
370
-1
0
LAYER
5
F
330
6B
100
AcDbSymbolTableRecord
100
AcDbLayerTableRecord
2
ANNO
70
0
62
7
6
CONTINUOUS
290
1
370
-1
0
LAYER
5
10
330
6B
100
AcDbSymbolTableRecord
100
AcDbLayerTableRecord
2
TITLE
70
0
62
7
6
CONTINUOUS
290
1
370
-1
0
ENDTAB
0
TABLE
2
BLOCK_RECORD
5
6C
330
0
100
AcDbSymbolTable
70
2
0
BLOCK_RECORD
5
6
330
6C
100
AcDbSymbolTableRecord
100
AcDbBlockTableRecord
2
*MODEL_SPACE
70
0
280
1
281
0
340
8
0
BLOCK_RECORD
5
7
330
6C
100
AcDbSymbolTableRecord
100
AcDbBlockTableRecord
2
*PAPER_SPACE
70
0
280
1
281
0
340
9
0
ENDTAB
0
ENDSEC
0
SECTION
2
BLOCKS
0
BLOCK
5
6E
330
6
100
AcDbEntity
8
0
100
AcDbBlockBegin
2
*MODEL_SPACE
70
0
10
0
20
0
30
0
3
*MODEL_SPACE
1

0
ENDBLK
5
6F
330
6
100
AcDbEntity
8
0
100
AcDbBlockEnd
0
BLOCK
5
70
330
7
100
AcDbEntity
8
0
100
AcDbBlockBegin
2
*PAPER_SPACE
70
0
10
0
20
0
30
0
3
*PAPER_SPACE
1

0
ENDBLK
5
71
330
7
100
AcDbEntity
8
0
100
AcDbBlockEnd
0
ENDSEC
0
SECTION
2
ENTITIES
0
LWPOLYLINE
5
11
330
6
100
AcDbEntity
8
FRAME
100
AcDbPolyline
90
4
70
1
38
0
10
-8
20
-12
10
342
20
-12
10
342
20
218
10
-8
20
218
0
LWPOLYLINE
5
12
330
6
100
AcDbEntity
8
FRAME
100
AcDbPolyline
90
4
70
1
38
0
10
-5
20
-9
10
339
20
-9
10
339
20
215
10
-5
20
215
0
LWPOLYLINE
5
13
330
6
100
AcDbEntity
8
FRAME
100
AcDbPolyline
90
4
70
1
38
0
10
230
20
-9
10
339
20
-9
10
339
20
9
10
230
20
9
0
LINE
5
14
330
6
100
AcDbEntity
8
FRAME
100
AcDbLine
10
288
20
-9
30
0
11
288
21
9
31
0
0
LINE
5
15
330
6
100
AcDbEntity
8
FRAME
100
AcDbLine
10
312
20
-9
30
0
11
312
21
9
31
0
0
LINE
5
16
330
6
100
AcDbEntity
8
FRAME
100
AcDbLine
10
288
20
0
30
0
11
339
21
0
31
0
0
TEXT
5
17
330
6
100
AcDbEntity
8
TITLE
100
AcDbText
10
233
20
2
30
0
40
2.25
1
SIX-HOLE MOUNTING FLANGE
7
STANDARD
100
AcDbText
0
TEXT
5
18
330
6
100
AcDbEntity
8
TITLE
100
AcDbText
10
233
20
-4
30
0
40
1.35
1
MECHANICAL DETAIL
7
STANDARD
100
AcDbText
0
TEXT
5
19
330
6
100
AcDbEntity
8
TITLE
100
AcDbText
10
291
20
3.5
30
0
40
1.15
1
SCALE  1:1
7
STANDARD
100
AcDbText
0
TEXT
5
1A
330
6
100
AcDbEntity
8
TITLE
100
AcDbText
10
291
20
-4.5
30
0
40
1.15
1
REV  A
7
STANDARD
100
AcDbText
0
TEXT
5
1B
330
6
100
AcDbEntity
8
TITLE
100
AcDbText
10
315
20
3.5
30
0
40
1.2
1
M-2050
7
STANDARD
100
AcDbText
0
TEXT
5
1C
330
6
100
AcDbEntity
8
TITLE
100
AcDbText
10
315
20
-4.5
30
0
40
0.95
1
SYNTHETIC
7
STANDARD
100
AcDbText
0
CIRCLE
5
1D
330
6
100
AcDbEntity
8
M-OBJECT
100
AcDbCircle
10
92
20
109
30
0
40
60
210
0
220
0
230
1
0
CIRCLE
5
1E
330
6
100
AcDbEntity
8
M-OBJECT
100
AcDbCircle
10
92
20
109
30
0
40
20
210
0
220
0
230
1
0
CIRCLE
5
1F
330
6
100
AcDbEntity
8
M-CENTER
100
AcDbCircle
10
92
20
109
30
0
40
45
210
0
220
0
230
1
0
LINE
5
20
330
6
100
AcDbEntity
8
M-CENTER
100
AcDbLine
10
29
20
109
30
0
11
155
21
109
31
0
0
LINE
5
21
330
6
100
AcDbEntity
8
M-CENTER
100
AcDbLine
10
92
20
46
30
0
11
92
21
172
31
0
0
CIRCLE
5
22
330
6
100
AcDbEntity
8
M-OBJECT
100
AcDbCircle
10
137
20
109
30
0
40
5
210
0
220
0
230
1
0
LINE
5
23
330
6
100
AcDbEntity
8
M-CENTER
100
AcDbLine
10
130
20
109
30
0
11
144
21
109
31
0
0
LINE
5
24
330
6
100
AcDbEntity
8
M-CENTER
100
AcDbLine
10
137
20
102
30
0
11
137
21
116
31
0
0
CIRCLE
5
25
330
6
100
AcDbEntity
8
M-OBJECT
100
AcDbCircle
10
114.5
20
147.97114317029974
30
0
40
5
210
0
220
0
230
1
0
LINE
5
26
330
6
100
AcDbEntity
8
M-CENTER
100
AcDbLine
10
107.5
20
147.97114317029974
30
0
11
121.5
21
147.97114317029974
31
0
0
LINE
5
27
330
6
100
AcDbEntity
8
M-CENTER
100
AcDbLine
10
114.5
20
140.97114317029974
30
0
11
114.5
21
154.97114317029974
31
0
0
CIRCLE
5
28
330
6
100
AcDbEntity
8
M-OBJECT
100
AcDbCircle
10
69.50000000000001
20
147.97114317029974
30
0
40
5
210
0
220
0
230
1
0
LINE
5
29
330
6
100
AcDbEntity
8
M-CENTER
100
AcDbLine
10
62.500000000000014
20
147.97114317029974
30
0
11
76.50000000000001
21
147.97114317029974
31
0
0
LINE
5
2A
330
6
100
AcDbEntity
8
M-CENTER
100
AcDbLine
10
69.50000000000001
20
140.97114317029974
30
0
11
69.50000000000001
21
154.97114317029974
31
0
0
CIRCLE
5
2B
330
6
100
AcDbEntity
8
M-OBJECT
100
AcDbCircle
10
47
20
109
30
0
40
5
210
0
220
0
230
1
0
LINE
5
2C
330
6
100
AcDbEntity
8
M-CENTER
100
AcDbLine
10
40
20
109
30
0
11
54
21
109
31
0
0
LINE
5
2D
330
6
100
AcDbEntity
8
M-CENTER
100
AcDbLine
10
47
20
102
30
0
11
47
21
116
31
0
0
CIRCLE
5
2E
330
6
100
AcDbEntity
8
M-OBJECT
100
AcDbCircle
10
69.49999999999997
20
70.02885682970026
30
0
40
5
210
0
220
0
230
1
0
LINE
5
2F
330
6
100
AcDbEntity
8
M-CENTER
100
AcDbLine
10
62.49999999999997
20
70.02885682970026
30
0
11
76.49999999999997
21
70.02885682970026
31
0
0
LINE
5
30
330
6
100
AcDbEntity
8
M-CENTER
100
AcDbLine
10
69.49999999999997
20
63.02885682970026
30
0
11
69.49999999999997
21
77.02885682970026
31
0
0
CIRCLE
5
31
330
6
100
AcDbEntity
8
M-OBJECT
100
AcDbCircle
10
114.5
20
70.02885682970026
30
0
40
5
210
0
220
0
230
1
0
LINE
5
32
330
6
100
AcDbEntity
8
M-CENTER
100
AcDbLine
10
107.5
20
70.02885682970026
30
0
11
121.5
21
70.02885682970026
31
0
0
LINE
5
33
330
6
100
AcDbEntity
8
M-CENTER
100
AcDbLine
10
114.5
20
63.02885682970026
30
0
11
114.5
21
77.02885682970026
31
0
0
TEXT
5
34
330
6
100
AcDbEntity
8
ANNO
100
AcDbText
10
70
20
40
30
0
40
1.6
1
FRONT / FACE VIEW
7
STANDARD
100
AcDbText
0
LINE
5
35
330
6
100
AcDbEntity
8
DIMS
100
AcDbLine
10
32
20
109
30
0
11
32
21
29.5
31
0
0
LINE
5
36
330
6
100
AcDbEntity
8
DIMS
100
AcDbLine
10
152
20
109
30
0
11
152
21
29.5
31
0
0
LINE
5
37
330
6
100
AcDbEntity
8
DIMS
100
AcDbLine
10
32
20
31
30
0
11
152
21
31
31
0
0
LINE
5
38
330
6
100
AcDbEntity
8
DIMS
100
AcDbLine
10
32
20
31
30
0
11
30.31134414899597
21
32.071653589958
31
0
0
LINE
5
39
330
6
100
AcDbEntity
8
DIMS
100
AcDbLine
10
32
20
31
30
0
11
30.31134414899597
21
29.928346410042007
31
0
0
LINE
5
3A
330
6
100
AcDbEntity
8
DIMS
100
AcDbLine
10
152
20
31
30
0
11
153.68865585100403
21
29.928346410042007
31
0
0
LINE
5
3B
330
6
100
AcDbEntity
8
DIMS
100
AcDbLine
10
152
20
31
30
0
11
153.68865585100403
21
32.071653589958
31
0
0
TEXT
5
3C
330
6
100
AcDbEntity
8
DIMS
100
AcDbText
10
89.4
20
29.9
30
0
40
1.5
1
Ø120
7
STANDARD
100
AcDbText
0
TEXT
5
3D
330
6
100
AcDbEntity
8
DIMS
100
AcDbText
10
72
20
179
30
0
40
1.55
1
6 × Ø10 THRU  ·  PCD Ø90
7
STANDARD
100
AcDbText
0
LINE
5
3E
330
6
100
AcDbEntity
8
DIMS
100
AcDbLine
10
106
20
123
30
0
11
123
21
141
31
0
0
TEXT
5
3F
330
6
100
AcDbEntity
8
DIMS
100
AcDbText
10
124
20
141
30
0
40
1.4
1
Ø40 BORE
7
STANDARD
100
AcDbText
0
LWPOLYLINE
5
40
330
6
100
AcDbEntity
8
M-OBJECT
100
AcDbPolyline
90
4
70
1
38
0
10
222
20
49
10
242
20
49
10
242
20
169
10
222
20
169
0
LINE
5
41
330
6
100
AcDbEntity
8
M-OBJECT
100
AcDbLine
10
222
20
89
30
0
11
242
21
89
31
0
0
LINE
5
42
330
6
100
AcDbEntity
8
M-OBJECT
100
AcDbLine
10
222
20
129
30
0
11
242
21
129
31
0
0
LINE
5
43
330
6
100
AcDbEntity
8
M-CENTER
100
AcDbLine
10
212
20
109
30
0
11
252
21
109
31
0
0
LINE
5
44
330
6
100
AcDbEntity
8
M-HIDDEN
100
AcDbLine
10
224
20
52
30
0
11
229
21
57
31
0
0
LINE
5
45
330
6
100
AcDbEntity
8
M-HIDDEN
100
AcDbLine
10
224
20
132
30
0
11
229
21
137
31
0
0
LINE
5
46
330
6
100
AcDbEntity
8
M-HIDDEN
100
AcDbLine
10
224
20
56
30
0
11
229
21
61
31
0
0
LINE
5
47
330
6
100
AcDbEntity
8
M-HIDDEN
100
AcDbLine
10
224
20
136
30
0
11
229
21
141
31
0
0
LINE
5
48
330
6
100
AcDbEntity
8
M-HIDDEN
100
AcDbLine
10
224
20
60
30
0
11
229
21
65
31
0
0
LINE
5
49
330
6
100
AcDbEntity
8
M-HIDDEN
100
AcDbLine
10
224
20
140
30
0
11
229
21
145
31
0
0
LINE
5
4A
330
6
100
AcDbEntity
8
M-HIDDEN
100
AcDbLine
10
224
20
64
30
0
11
229
21
69
31
0
0
LINE
5
4B
330
6
100
AcDbEntity
8
M-HIDDEN
100
AcDbLine
10
224
20
144
30
0
11
229
21
149
31
0
0
LINE
5
4C
330
6
100
AcDbEntity
8
M-HIDDEN
100
AcDbLine
10
224
20
68
30
0
11
229
21
73
31
0
0
LINE
5
4D
330
6
100
AcDbEntity
8
M-HIDDEN
100
AcDbLine
10
224
20
148
30
0
11
229
21
153
31
0
0
LINE
5
4E
330
6
100
AcDbEntity
8
M-HIDDEN
100
AcDbLine
10
224
20
72
30
0
11
229
21
77
31
0
0
LINE
5
4F
330
6
100
AcDbEntity
8
M-HIDDEN
100
AcDbLine
10
224
20
152
30
0
11
229
21
157
31
0
0
LINE
5
50
330
6
100
AcDbEntity
8
M-HIDDEN
100
AcDbLine
10
224
20
76
30
0
11
229
21
81
31
0
0
LINE
5
51
330
6
100
AcDbEntity
8
M-HIDDEN
100
AcDbLine
10
224
20
156
30
0
11
229
21
161
31
0
0
LINE
5
52
330
6
100
AcDbEntity
8
M-HIDDEN
100
AcDbLine
10
224
20
80
30
0
11
229
21
85
31
0
0
LINE
5
53
330
6
100
AcDbEntity
8
M-HIDDEN
100
AcDbLine
10
224
20
160
30
0
11
229
21
165
31
0
0
LINE
5
54
330
6
100
AcDbEntity
8
DIMS
100
AcDbLine
10
222
20
49
30
0
11
222
21
34.5
31
0
0
LINE
5
55
330
6
100
AcDbEntity
8
DIMS
100
AcDbLine
10
242
20
49
30
0
11
242
21
34.5
31
0
0
LINE
5
56
330
6
100
AcDbEntity
8
DIMS
100
AcDbLine
10
222
20
36
30
0
11
242
21
36
31
0
0
LINE
5
57
330
6
100
AcDbEntity
8
DIMS
100
AcDbLine
10
222
20
36
30
0
11
220.31134414899597
21
37.071653589958
31
0
0
LINE
5
58
330
6
100
AcDbEntity
8
DIMS
100
AcDbLine
10
222
20
36
30
0
11
220.31134414899597
21
34.928346410042
31
0
0
LINE
5
59
330
6
100
AcDbEntity
8
DIMS
100
AcDbLine
10
242
20
36
30
0
11
243.68865585100403
21
34.928346410042
31
0
0
LINE
5
5A
330
6
100
AcDbEntity
8
DIMS
100
AcDbLine
10
242
20
36
30
0
11
243.68865585100403
21
37.071653589958
31
0
0
TEXT
5
5B
330
6
100
AcDbEntity
8
DIMS
100
AcDbText
10
230.7
20
34.9
30
0
40
1.5
1
20
7
STANDARD
100
AcDbText
0
LINE
5
5C
330
6
100
AcDbEntity
8
DIMS
100
AcDbLine
10
242
20
49
30
0
11
260.5
21
49
31
0
0
LINE
5
5D
330
6
100
AcDbEntity
8
DIMS
100
AcDbLine
10
242
20
169
30
0
11
260.5
21
169
31
0
0
LINE
5
5E
330
6
100
AcDbEntity
8
DIMS
100
AcDbLine
10
259
20
49
30
0
11
259
21
169
31
0
0
LINE
5
5F
330
6
100
AcDbEntity
8
DIMS
100
AcDbLine
10
259
20
49
30
0
11
257.928346410042
21
47.31134414899597
31
0
0
LINE
5
60
330
6
100
AcDbEntity
8
DIMS
100
AcDbLine
10
259
20
49
30
0
11
260.071653589958
21
47.31134414899597
31
0
0
LINE
5
61
330
6
100
AcDbEntity
8
DIMS
100
AcDbLine
10
259
20
169
30
0
11
260.071653589958
21
170.68865585100403
31
0
0
LINE
5
62
330
6
100
AcDbEntity
8
DIMS
100
AcDbLine
10
259
20
169
30
0
11
257.928346410042
21
170.68865585100403
31
0
0
TEXT
5
63
330
6
100
AcDbEntity
8
DIMS
100
AcDbText
10
260.1
20
106.4
30
0
40
1.5
1
Ø120
7
STANDARD
50
90
100
AcDbText
0
TEXT
5
64
330
6
100
AcDbEntity
8
ANNO
100
AcDbText
10
214
20
32
30
0
40
1.55
1
SECTION B—B  ·  1:1
7
STANDARD
100
AcDbText
0
TEXT
5
65
330
6
100
AcDbEntity
8
TITLE
100
AcDbText
10
11
20
195
30
0
40
1.2
1
C45 STEEL  ·  SIX Ø10 THRU HOLES ON Ø90 PCD  ·  BREAK SHARP EDGES
7
STANDARD
100
AcDbText
0
ENDSEC
0
SECTION
2
OBJECTS
0
DICTIONARY
5
72
330
0
100
AcDbDictionary
281
1
3
ACAD_LAYOUT
350
73
0
DICTIONARY
5
73
330
72
100
AcDbDictionary
280
1
281
1
3
Model
350
8
3
Layout1
350
9
0
LAYOUT
5
8
102
{ACAD_REACTORS
330
73
102
}
330
73
100
AcDbPlotSettings
100
AcDbLayout
1
Model
70
1
71
0
12
0
22
0
32
0
14
100000000000000000000
24
100000000000000000000
34
100000000000000000000
15
-100000000000000000000
25
-100000000000000000000
35
-100000000000000000000
13
0
23
0
33
0
16
1
26
0
36
0
17
0
27
1
37
0
330
6
0
LAYOUT
5
9
102
{ACAD_REACTORS
330
73
102
}
330
73
100
AcDbPlotSettings
100
AcDbLayout
1
Layout1
70
1
71
1
10
0
20
0
11
420
21
297
12
0
22
0
32
0
14
100000000000000000000
24
100000000000000000000
34
100000000000000000000
15
-100000000000000000000
25
-100000000000000000000
35
-100000000000000000000
13
0
23
0
33
0
16
1
26
0
36
0
17
0
27
1
37
0
330
7
0
ENDSEC
0
EOF
