0
SECTION
2
HEADER
9
$ACADVER
1
AC1032
9
$DWGCODEPAGE
3
UTF-8
9
$HANDSEED
5
3D
9
$LTSCALE
40
1
9
$PDMODE
70
0
9
$PDSIZE
40
0
9
$TEXTSTYLE
7
STANDARD
9
$INSUNITS
70
4
9
$MEASUREMENT
70
1
0
ENDSEC
0
SECTION
2
TABLES
0
TABLE
2
LTYPE
5
F
330
0
100
AcDbSymbolTable
70
1
0
LTYPE
5
2
330
F
100
AcDbSymbolTableRecord
100
AcDbLinetypeTableRecord
2
CONTINUOUS
70
0
3
Solid line
72
65
73
0
40
0
0
ENDTAB
0
TABLE
2
STYLE
5
10
330
0
100
AcDbSymbolTable
70
1
0
STYLE
5
3
330
10
100
AcDbSymbolTableRecord
100
AcDbTextStyleTableRecord
2
STANDARD
70
0
40
0
41
1
50
0
71
0
42
2.5
3
sans-serif
4

0
ENDTAB
0
TABLE
2
DIMSTYLE
5
11
330
0
100
AcDbSymbolTable
70
2
100
AcDbDimStyleTable
0
DIMSTYLE
105
4
330
11
100
AcDbSymbolTableRecord
100
AcDbDimStyleTableRecord
2
STANDARD
70
0
40
1
41
2.5
42
0.625
43
3.75
44
1.25
140
2.5
141
2.5
147
0.625
0
DIMSTYLE
105
A
330
11
100
AcDbSymbolTableRecord
100
AcDbDimStyleTableRecord
271
2
2
PUBLIC-DIM
70
0
40
1
41
2.5
42
0.7
43
3.75
44
1.2
140
3
141
2.5
147
0.625
0
ENDTAB
0
TABLE
2
APPID
5
16
330
0
100
AcDbSymbolTable
70
1
0
APPID
5
2E
330
16
100
AcDbSymbolTableRecord
100
AcDbRegAppTableRecord
2
ACAD
70
0
0
ENDTAB
0
TABLE
2
UCS
5
12
330
0
100
AcDbSymbolTable
70
0
0
ENDTAB
0
TABLE
2
VIEW
5
13
330
0
100
AcDbSymbolTable
70
0
0
ENDTAB
0
TABLE
2
LAYER
5
14
330
0
100
AcDbSymbolTable
70
1
0
LAYER
5
5
330
14
100
AcDbSymbolTableRecord
100
AcDbLayerTableRecord
2
0
70
0
62
7
6
CONTINUOUS
290
1
370
-1
0
ENDTAB
0
TABLE
2
BLOCK_RECORD
5
15
330
0
100
AcDbSymbolTable
70
6
0
BLOCK_RECORD
5
6
330
15
100
AcDbSymbolTableRecord
100
AcDbBlockTableRecord
2
*MODEL_SPACE
70
0
280
1
281
0
340
8
0
BLOCK_RECORD
5
7
330
15
100
AcDbSymbolTableRecord
100
AcDbBlockTableRecord
2
*PAPER_SPACE
70
0
280
1
281
0
340
9
0
BLOCK_RECORD
5
17
330
15
100
AcDbSymbolTableRecord
100
AcDbBlockTableRecord
2
*D1
70
1
280
1
281
0
0
BLOCK_RECORD
5
1E
330
15
100
AcDbSymbolTableRecord
100
AcDbBlockTableRecord
2
*D2
70
1
280
1
281
0
0
BLOCK_RECORD
5
22
330
15
100
AcDbSymbolTableRecord
100
AcDbBlockTableRecord
2
*D3
70
1
280
1
281
0
0
BLOCK_RECORD
5
27
330
15
100
AcDbSymbolTableRecord
100
AcDbBlockTableRecord
2
*D4
70
1
280
1
281
0
0
ENDTAB
0
ENDSEC
0
SECTION
2
BLOCKS
0
BLOCK
5
2F
330
6
100
AcDbEntity
8
0
100
AcDbBlockBegin
2
*MODEL_SPACE
70
0
10
0
20
0
30
0
3
*MODEL_SPACE
1

0
ENDBLK
5
30
330
6
100
AcDbEntity
8
0
100
AcDbBlockEnd
0
BLOCK
5
31
330
7
100
AcDbEntity
8
0
100
AcDbBlockBegin
2
*PAPER_SPACE
70
0
10
0
20
0
30
0
3
*PAPER_SPACE
1

0
ENDBLK
5
32
330
7
100
AcDbEntity
8
0
100
AcDbBlockEnd
0
BLOCK
5
33
330
17
100
AcDbEntity
8
0
100
AcDbBlockBegin
2
*D1
70
1
10
0
20
0
30
0
3
*D1
1

0
LINE
5
18
330
17
100
AcDbEntity
8
0
100
AcDbLine
10
0
20
0.7
30
0
11
0
21
16.2
31
0
0
LINE
5
19
330
17
100
AcDbEntity
8
0
100
AcDbLine
10
40
20
0.7
30
0
11
40
21
16.2
31
0
0
LINE
5
1A
330
17
100
AcDbEntity
8
0
100
AcDbLine
10
0
20
15
30
0
11
40
21
15
31
0
0
SOLID
5
1B
330
17
100
AcDbEntity
8
0
100
AcDbTrace
10
0
20
15
30
0
11
2.5
21
15.75
31
0
12
2.5
22
14.25
32
0
13
2.5
23
14.25
33
0
0
SOLID
5
1C
330
17
100
AcDbEntity
8
0
100
AcDbTrace
10
40
20
15
30
0
11
37.5
21
14.25
31
0
12
37.5
22
15.75
32
0
13
37.5
23
15.75
33
0
0
TEXT
5
1D
330
17
100
AcDbEntity
8
0
100
AcDbText
10
20
20
16.95
30
0
40
3
1
40
72
1
11
20
21
16.95
31
0
100
AcDbText
73
1
0
ENDBLK
5
34
330
17
100
AcDbEntity
8
0
100
AcDbBlockEnd
0
BLOCK
5
35
330
1E
100
AcDbEntity
8
0
100
AcDbBlockBegin
2
*D2
70
1
10
0
20
0
30
0
3
*D2
1

0
LINE
5
1F
330
1E
100
AcDbEntity
8
0
100
AcDbLine
10
65
20
20
30
0
11
80
21
20
31
0
0
SOLID
5
20
330
1E
100
AcDbEntity
8
0
100
AcDbTrace
10
80
20
20
30
0
11
77.5
21
19.25
31
0
12
77.5
22
20.75
32
0
13
77.5
23
20.75
33
0
0
TEXT
5
21
330
1E
100
AcDbEntity
8
0
100
AcDbText
10
83.3
20
20
30
0
40
3
1
R15
72
1
11
83.3
21
20
31
0
100
AcDbText
73
1
0
ENDBLK
5
36
330
1E
100
AcDbEntity
8
0
100
AcDbBlockEnd
0
BLOCK
5
37
330
22
100
AcDbEntity
8
0
100
AcDbBlockBegin
2
*D3
70
1
10
0
20
0
30
0
3
*D3
1

0
LINE
5
23
330
22
100
AcDbEntity
8
0
100
AcDbLine
10
45
20
55
30
0
11
75
21
55
31
0
0
SOLID
5
24
330
22
100
AcDbEntity
8
0
100
AcDbTrace
10
75
20
55
30
0
11
72.5
21
54.25
31
0
12
72.5
22
55.75
32
0
13
72.5
23
55.75
33
0
0
SOLID
5
25
330
22
100
AcDbEntity
8
0
100
AcDbTrace
10
45
20
55
30
0
11
47.5
21
55.75
31
0
12
47.5
22
54.25
32
0
13
47.5
23
54.25
33
0
0
TEXT
5
26
330
22
100
AcDbEntity
8
0
100
AcDbText
10
78.3
20
55
30
0
40
3
1
%%c30
72
1
11
78.3
21
55
31
0
100
AcDbText
73
1
0
ENDBLK
5
38
330
22
100
AcDbEntity
8
0
100
AcDbBlockEnd
0
BLOCK
5
39
330
27
100
AcDbEntity
8
0
100
AcDbBlockBegin
2
*D4
70
1
10
0
20
0
30
0
3
*D4
1

0
LINE
5
28
330
27
100
AcDbEntity
8
0
100
AcDbLine
10
124.37390096630006
20
54.68695048315003
30
0
11
122.36577628538586
21
53.68288814269293
31
0
0
LINE
5
29
330
27
100
AcDbEntity
8
0
100
AcDbLine
10
115.7
20
45
30
0
11
126.8155281280883
21
45
31
0
0
ARC
5
2A
330
27
100
AcDbEntity
8
0
100
AcDbCircle
10
105
20
45
30
0
40
20.615528128088304
100
AcDbArc
50
26.56505117707799
51
360
0
SOLID
5
2B
330
27
100
AcDbEntity
8
0
100
AcDbTrace
10
123.43908891458577
20
54.21954445729288
30
0
11
121.65023453258593
21
56.1202022381677
31
0
12
122.9918753190858
22
56.79102263141764
32
0
13
122.9918753190858
23
56.79102263141764
33
0
0
SOLID
5
2C
330
27
100
AcDbEntity
8
0
100
AcDbTrace
10
125.6155281280883
20
45
30
0
11
126.3655281280883
21
42.5
31
0
12
124.8655281280883
22
42.5
32
0
13
124.8655281280883
23
42.5
33
0
0
TEXT
5
2D
330
27
100
AcDbEntity
8
0
100
AcDbText
10
83.03812255253241
20
39.81550400887809
30
0
40
3
1
333.43°
50
283.282525588539
72
1
11
83.03812255253241
21
39.81550400887809
31
0
100
AcDbText
73
1
0
ENDBLK
5
3A
330
27
100
AcDbEntity
8
0
100
AcDbBlockEnd
0
ENDSEC
0
SECTION
2
ENTITIES
0
DIMENSION
5
B
330
6
100
AcDbEntity
8
0
62
7
100
AcDbDimension
280
0
2
*D1
10
20
20
15
30
0
11
20
21
16.95
31
0
3
PUBLIC-DIM
70
33
71
5
42
40
100
AcDbAlignedDimension
13
0
23
0
33
0
14
40
24
0
34
0
1001
ACAD
1000
DSTYLE
1002
{
1070
140
1040
3
1070
40
1040
1
1070
41
1040
2.5
1070
42
1040
0.7
1070
44
1040
1.2
1070
144
1040
1
1070
78
1070
8
1070
271
1070
2
1070
277
1070
2
1070
278
1070
46
1002
}
0
DIMENSION
5
C
330
6
100
AcDbEntity
8
0
62
7
100
AcDbDimension
280
0
2
*D2
10
65
20
20
30
0
11
83.3
21
20
31
0
3
PUBLIC-DIM
70
36
71
5
42
15
100
AcDbRadialDimension
15
80
25
20
35
0
1001
ACAD
1000
DSTYLE
1002
{
1070
140
1040
3
1070
40
1040
1
1070
41
1040
2.5
1070
42
1040
0.7
1070
44
1040
1.2
1070
144
1040
1
1070
78
1070
8
1070
271
1070
2
1070
277
1070
2
1070
278
1070
46
1002
}
0
DIMENSION
5
D
330
6
100
AcDbEntity
8
0
62
7
100
AcDbDimension
280
0
2
*D3
10
45
20
55
30
0
11
78.3
21
55
31
0
3
PUBLIC-DIM
70
35
71
5
42
30
100
AcDbDiametricDimension
15
75
25
55
35
0
1001
ACAD
1000
DSTYLE
1002
{
1070
140
1040
3
1070
40
1040
1
1070
41
1040
2.5
1070
42
1040
0.7
1070
44
1040
1.2
1070
144
1040
1
1070
78
1070
8
1070
271
1070
2
1070
277
1070
2
1070
278
1070
46
1002
}
0
DIMENSION
5
E
330
6
100
AcDbEntity
8
0
62
7
100
AcDbDimension
280
0
2
*D4
10
110
20
65
30
0
11
83.03812255253241
21
39.81550400887809
31
0
3
PUBLIC-DIM
70
37
71
5
100
AcDb3PointAngularDimension
13
125
23
55
33
0
14
115
24
45
34
0
15
105
25
45
35
0
1001
ACAD
1000
DSTYLE
1002
{
1070
140
1040
3
1070
40
1040
1
1070
41
1040
2.5
1070
42
1040
0.7
1070
44
1040
1.2
1070
144
1040
1
1070
78
1070
8
1070
179
1070
2
1070
275
1070
0
1070
79
1070
2
1070
277
1070
2
1070
278
1070
46
1002
}
0
ENDSEC
0
SECTION
2
OBJECTS
0
DICTIONARY
5
3B
330
0
100
AcDbDictionary
281
1
3
ACAD_LAYOUT
350
3C
0
DICTIONARY
5
3C
330
3B
100
AcDbDictionary
280
1
281
1
3
Model
350
8
3
Layout1
350
9
0
LAYOUT
5
8
102
{ACAD_REACTORS
330
3C
102
}
330
3C
100
AcDbPlotSettings
44
210
45
148
48
-10
49
-10
140
135
141
80
142
1
143
1
70
0
72
1
74
4
100
AcDbLayout
1
Model
70
1
71
0
12
0
22
0
32
0
14
100000000000000000000
24
100000000000000000000
34
100000000000000000000
15
-100000000000000000000
25
-100000000000000000000
35
-100000000000000000000
13
0
23
0
33
0
16
1
26
0
36
0
17
0
27
1
37
0
330
6
0
LAYOUT
5
9
102
{ACAD_REACTORS
330
3C
102
}
330
3C
100
AcDbPlotSettings
100
AcDbLayout
1
Layout1
70
1
71
1
10
0
20
0
11
420
21
297
12
0
22
0
32
0
14
100000000000000000000
24
100000000000000000000
34
100000000000000000000
15
-100000000000000000000
25
-100000000000000000000
35
-100000000000000000000
13
0
23
0
33
0
16
1
26
0
36
0
17
0
27
1
37
0
330
7
0
ENDSEC
0
EOF
