0
SECTION
2
HEADER
9
$ACADVER
1
AC1032
9
$DWGCODEPAGE
3
UTF-8
9
$HANDSEED
5
69
9
$LTSCALE
40
1
9
$PDMODE
70
0
9
$PDSIZE
40
0
9
$TEXTSTYLE
7
STANDARD
9
$INSUNITS
70
4
9
$MEASUREMENT
70
1
0
ENDSEC
0
SECTION
2
TABLES
0
TABLE
2
LTYPE
5
5B
330
0
100
AcDbSymbolTable
70
2
0
LTYPE
5
2
330
5B
100
AcDbSymbolTableRecord
100
AcDbLinetypeTableRecord
2
CONTINUOUS
70
0
3
Solid line
72
65
73
0
40
0
0
LTYPE
5
A
330
5B
100
AcDbSymbolTableRecord
100
AcDbLinetypeTableRecord
2
KJD-CONTINUOUS
70
0
3

72
65
73
0
40
0
0
ENDTAB
0
TABLE
2
STYLE
5
5C
330
0
100
AcDbSymbolTable
70
1
0
STYLE
5
3
330
5C
100
AcDbSymbolTableRecord
100
AcDbTextStyleTableRecord
2
STANDARD
70
0
40
0
41
1
50
0
71
0
42
2.5
3
sans-serif
4

0
ENDTAB
0
TABLE
2
DIMSTYLE
5
5D
330
0
100
AcDbSymbolTable
70
2
100
AcDbDimStyleTable
0
DIMSTYLE
105
4
330
5D
100
AcDbSymbolTableRecord
100
AcDbDimStyleTableRecord
2
STANDARD
70
0
40
1
41
2.5
42
0.625
43
3.75
44
1.25
140
2.5
141
2.5
147
0.625
0
DIMSTYLE
105
12
330
5D
100
AcDbSymbolTableRecord
100
AcDbDimStyleTableRecord
271
0
2
KJD-CURATED
70
0
40
1
41
2.2
42
0.6
43
3.75
44
1
140
2.6
141
2.5
147
0.625
0
ENDTAB
0
TABLE
2
UCS
5
5E
330
0
100
AcDbSymbolTable
70
0
0
ENDTAB
0
TABLE
2
VIEW
5
5F
330
0
100
AcDbSymbolTable
70
0
0
ENDTAB
0
TABLE
2
LAYER
5
60
330
0
100
AcDbSymbolTable
70
8
0
LAYER
5
5
330
60
100
AcDbSymbolTableRecord
100
AcDbLayerTableRecord
2
0
70
0
62
7
6
CONTINUOUS
290
1
370
-1
0
LAYER
5
B
330
60
100
AcDbSymbolTableRecord
100
AcDbLayerTableRecord
2
KJD_FRAME
70
0
62
8
6
KJD-CONTINUOUS
290
1
370
-1
0
LAYER
5
C
330
60
100
AcDbSymbolTableRecord
100
AcDbLayerTableRecord
2
KJD_OUTLINE
70
0
62
7
6
KJD-CONTINUOUS
290
1
370
-1
0
LAYER
5
D
330
60
100
AcDbSymbolTableRecord
100
AcDbLayerTableRecord
2
KJD_DETAIL
70
0
62
8
6
KJD-CONTINUOUS
290
1
370
-1
0
LAYER
5
E
330
60
100
AcDbSymbolTableRecord
100
AcDbLayerTableRecord
2
KJD_ACCENT
70
0
62
4
6
KJD-CONTINUOUS
290
1
370
-1
0
LAYER
5
F
330
60
100
AcDbSymbolTableRecord
100
AcDbLayerTableRecord
2
KJD_PLANTING
70
0
62
3
6
KJD-CONTINUOUS
290
1
370
-1
0
LAYER
5
10
330
60
100
AcDbSymbolTableRecord
100
AcDbLayerTableRecord
2
KJD_ANNOTATION
70
0
62
7
6
KJD-CONTINUOUS
290
1
370
-1
0
LAYER
5
11
330
60
100
AcDbSymbolTableRecord
100
AcDbLayerTableRecord
2
KJD_HIGHLIGHT
70
0
62
2
6
KJD-CONTINUOUS
290
1
370
-1
0
ENDTAB
0
TABLE
2
BLOCK_RECORD
5
61
330
0
100
AcDbSymbolTable
70
2
0
BLOCK_RECORD
5
6
330
61
100
AcDbSymbolTableRecord
100
AcDbBlockTableRecord
2
*MODEL_SPACE
70
0
280
1
281
0
340
8
0
BLOCK_RECORD
5
7
330
61
100
AcDbSymbolTableRecord
100
AcDbBlockTableRecord
2
*PAPER_SPACE
70
0
280
1
281
0
340
9
0
ENDTAB
0
ENDSEC
0
SECTION
2
BLOCKS
0
BLOCK
5
63
330
6
100
AcDbEntity
8
0
100
AcDbBlockBegin
2
*MODEL_SPACE
70
0
10
0
20
0
30
0
3
*MODEL_SPACE
1

0
ENDBLK
5
64
330
6
100
AcDbEntity
8
0
100
AcDbBlockEnd
0
BLOCK
5
65
330
7
100
AcDbEntity
8
0
100
AcDbBlockBegin
2
*PAPER_SPACE
70
0
10
0
20
0
30
0
3
*PAPER_SPACE
1

0
ENDBLK
5
66
330
7
100
AcDbEntity
8
0
100
AcDbBlockEnd
0
ENDSEC
0
SECTION
2
ENTITIES
0
LWPOLYLINE
5
13
330
6
100
AcDbEntity
8
KJD_FRAME
100
AcDbPolyline
90
4
70
1
38
0
10
5
20
5
10
292
20
5
10
292
20
205
10
5
20
205
0
LWPOLYLINE
5
14
330
6
100
AcDbEntity
8
KJD_FRAME
100
AcDbPolyline
90
4
70
1
38
0
10
9
20
9
10
288
20
9
10
288
20
201
10
9
20
201
0
LINE
5
15
330
6
100
AcDbEntity
8
KJD_FRAME
100
AcDbLine
10
9
20
36
30
0
11
288
21
36
31
0
0
LINE
5
16
330
6
100
AcDbEntity
8
KJD_FRAME
100
AcDbLine
10
183
20
9
30
0
11
183
21
36
31
0
0
LINE
5
17
330
6
100
AcDbEntity
8
KJD_FRAME
100
AcDbLine
10
249
20
9
30
0
11
249
21
36
31
0
0
LINE
5
18
330
6
100
AcDbEntity
8
KJD_FRAME
100
AcDbLine
10
183
20
21
30
0
11
288
21
21
31
0
0
TEXT
5
19
330
6
100
AcDbEntity
8
KJD_ACCENT
100
AcDbText
10
15
20
24
30
0
40
3.1
1
KJDRAW / EDITABLE ENGINEERING EXAMPLES
100
AcDbText
0
TEXT
5
1A
330
6
100
AcDbEntity
8
KJD_ANNOTATION
100
AcDbText
10
15
20
14
30
0
40
5
1
SMALL RETAIL POWER ONE-LINE
100
AcDbText
0
TEXT
5
1B
330
6
100
AcDbEntity
8
KJD_DETAIL
100
AcDbText
10
187
20
26
30
0
40
2
1
DISCIPLINE
100
AcDbText
0
TEXT
5
1C
330
6
100
AcDbEntity
8
KJD_ANNOTATION
100
AcDbText
10
187
20
15
30
0
40
3.2
1
ELECTRICAL
100
AcDbText
0
TEXT
5
1D
330
6
100
AcDbEntity
8
KJD_DETAIL
100
AcDbText
10
253
20
26
30
0
40
2
1
SHEET
100
AcDbText
0
TEXT
5
1E
330
6
100
AcDbEntity
8
KJD_ANNOTATION
100
AcDbText
10
253
20
15
30
0
40
3.2
1
01 / 01
100
AcDbText
0
TEXT
5
1F
330
6
100
AcDbEntity
8
KJD_DETAIL
100
AcDbText
10
187
20
12
30
0
40
1.9
1
CONCEPT EXAMPLE / EDITABLE GEOMETRY
100
AcDbText
0
TEXT
5
20
330
6
100
AcDbEntity
8
KJD_ACCENT
100
AcDbText
10
15
20
190
30
0
40
4
1
ELECTRICAL SINGLE-LINE / LOAD GROUPS
100
AcDbText
0
TEXT
5
21
330
6
100
AcDbEntity
8
KJD_DETAIL
100
AcDbText
10
15
20
182
30
0
40
2.4
1
Concept topology, not a wiring or protection design.
100
AcDbText
0
TEXT
5
22
330
6
100
AcDbEntity
8
KJD_ANNOTATION
100
AcDbText
10
25
20
166
30
0
40
2.3
1
UTILITY SUPPLY
100
AcDbText
0
CIRCLE
5
23
330
6
100
AcDbEntity
8
KJD_ACCENT
100
AcDbCircle
10
37
20
147
30
0
40
9
210
0
220
0
230
1
0
TEXT
5
24
330
6
100
AcDbEntity
8
KJD_ACCENT
100
AcDbText
10
32
20
146
30
0
40
3.4
1
AC
100
AcDbText
0
LINE
5
25
330
6
100
AcDbEntity
8
KJD_OUTLINE
100
AcDbLine
10
46
20
147
30
0
11
66
21
147
31
0
0
LWPOLYLINE
5
26
330
6
100
AcDbEntity
8
KJD_HIGHLIGHT
100
AcDbPolyline
90
4
70
1
38
0
10
66
20
141
10
79
20
141
10
79
20
153
10
66
20
153
0
LINE
5
27
330
6
100
AcDbEntity
8
KJD_HIGHLIGHT
100
AcDbLine
10
68
20
143
30
0
11
77
21
151
31
0
0
TEXT
5
28
330
6
100
AcDbEntity
8
KJD_ANNOTATION
100
AcDbText
10
64
20
157
30
0
40
2.2
1
MAIN
100
AcDbText
0
LINE
5
29
330
6
100
AcDbEntity
8
KJD_OUTLINE
100
AcDbLine
10
79
20
147
30
0
11
101
21
147
31
0
0
LWPOLYLINE
5
2A
330
6
100
AcDbEntity
8
KJD_ACCENT
100
AcDbPolyline
90
4
70
1
38
0
10
101
20
134
10
135
20
134
10
135
20
160
10
101
20
160
0
TEXT
5
2B
330
6
100
AcDbEntity
8
KJD_ACCENT
100
AcDbText
10
108
20
148
30
0
40
3.5
1
DB-01
100
AcDbText
0
TEXT
5
2C
330
6
100
AcDbEntity
8
KJD_ANNOTATION
100
AcDbText
10
105
20
139
30
0
40
2.2
1
PANEL
100
AcDbText
0
LINE
5
2D
330
6
100
AcDbEntity
8
KJD_OUTLINE
100
AcDbLine
10
135
20
147
30
0
11
145
21
147
31
0
0
LINE
5
2E
330
6
100
AcDbEntity
8
KJD_OUTLINE
100
AcDbLine
10
145
20
147
30
0
11
145
21
67
31
0
0
LINE
5
2F
330
6
100
AcDbEntity
8
KJD_OUTLINE
100
AcDbLine
10
145
20
130
30
0
11
164
21
130
31
0
0
CIRCLE
5
30
330
6
100
AcDbEntity
8
KJD_HIGHLIGHT
100
AcDbCircle
10
145
20
130
30
0
40
1.8
210
0
220
0
230
1
0
LWPOLYLINE
5
31
330
6
100
AcDbEntity
8
KJD_HIGHLIGHT
100
AcDbPolyline
90
4
70
1
38
0
10
164
20
126
10
173
20
126
10
173
20
134
10
164
20
134
0
LINE
5
32
330
6
100
AcDbEntity
8
KJD_HIGHLIGHT
100
AcDbLine
10
166
20
128
30
0
11
171
21
132
31
0
0
LINE
5
33
330
6
100
AcDbEntity
8
KJD_OUTLINE
100
AcDbLine
10
173
20
130
30
0
11
204
21
130
31
0
0
CIRCLE
5
34
330
6
100
AcDbEntity
8
KJD_ACCENT
100
AcDbCircle
10
210
20
130
30
0
40
5
210
0
220
0
230
1
0
LINE
5
35
330
6
100
AcDbEntity
8
KJD_ACCENT
100
AcDbLine
10
206
20
126
30
0
11
214
21
134
31
0
0
LINE
5
36
330
6
100
AcDbEntity
8
KJD_ACCENT
100
AcDbLine
10
206
20
134
30
0
11
214
21
126
31
0
0
TEXT
5
37
330
6
100
AcDbEntity
8
KJD_HIGHLIGHT
100
AcDbText
10
24
20
131
30
0
40
3
1
C01
100
AcDbText
0
TEXT
5
38
330
6
100
AcDbEntity
8
KJD_ANNOTATION
100
AcDbText
10
49
20
131
30
0
40
3
1
LIGHTING
100
AcDbText
0
TEXT
5
39
330
6
100
AcDbEntity
8
KJD_DETAIL
100
AcDbText
10
119
20
131
30
0
40
2.5
1
LED x 12
100
AcDbText
0
LINE
5
3A
330
6
100
AcDbEntity
8
KJD_OUTLINE
100
AcDbLine
10
145
20
109
30
0
11
164
21
109
31
0
0
CIRCLE
5
3B
330
6
100
AcDbEntity
8
KJD_HIGHLIGHT
100
AcDbCircle
10
145
20
109
30
0
40
1.8
210
0
220
0
230
1
0
LWPOLYLINE
5
3C
330
6
100
AcDbEntity
8
KJD_HIGHLIGHT
100
AcDbPolyline
90
4
70
1
38
0
10
164
20
105
10
173
20
105
10
173
20
113
10
164
20
113
0
LINE
5
3D
330
6
100
AcDbEntity
8
KJD_HIGHLIGHT
100
AcDbLine
10
166
20
107
30
0
11
171
21
111
31
0
0
LINE
5
3E
330
6
100
AcDbEntity
8
KJD_OUTLINE
100
AcDbLine
10
173
20
109
30
0
11
204
21
109
31
0
0
CIRCLE
5
3F
330
6
100
AcDbEntity
8
KJD_ACCENT
100
AcDbCircle
10
210
20
109
30
0
40
5
210
0
220
0
230
1
0
LINE
5
40
330
6
100
AcDbEntity
8
KJD_ACCENT
100
AcDbLine
10
208
20
108
30
0
11
208
21
111
31
0
0
LINE
5
41
330
6
100
AcDbEntity
8
KJD_ACCENT
100
AcDbLine
10
212
20
108
30
0
11
212
21
111
31
0
0
TEXT
5
42
330
6
100
AcDbEntity
8
KJD_HIGHLIGHT
100
AcDbText
10
24
20
110
30
0
40
3
1
C02
100
AcDbText
0
TEXT
5
43
330
6
100
AcDbEntity
8
KJD_ANNOTATION
100
AcDbText
10
49
20
110
30
0
40
3
1
SOCKETS
100
AcDbText
0
TEXT
5
44
330
6
100
AcDbEntity
8
KJD_DETAIL
100
AcDbText
10
119
20
110
30
0
40
2.5
1
GENERAL
100
AcDbText
0
LINE
5
45
330
6
100
AcDbEntity
8
KJD_OUTLINE
100
AcDbLine
10
145
20
88
30
0
11
164
21
88
31
0
0
CIRCLE
5
46
330
6
100
AcDbEntity
8
KJD_HIGHLIGHT
100
AcDbCircle
10
145
20
88
30
0
40
1.8
210
0
220
0
230
1
0
LWPOLYLINE
5
47
330
6
100
AcDbEntity
8
KJD_HIGHLIGHT
100
AcDbPolyline
90
4
70
1
38
0
10
164
20
84
10
173
20
84
10
173
20
92
10
164
20
92
0
LINE
5
48
330
6
100
AcDbEntity
8
KJD_HIGHLIGHT
100
AcDbLine
10
166
20
86
30
0
11
171
21
90
31
0
0
LINE
5
49
330
6
100
AcDbEntity
8
KJD_OUTLINE
100
AcDbLine
10
173
20
88
30
0
11
204
21
88
31
0
0
LWPOLYLINE
5
4A
330
6
100
AcDbEntity
8
KJD_ACCENT
100
AcDbPolyline
90
4
70
1
38
0
10
204
20
84
10
216
20
84
10
216
20
92
10
204
20
92
0
TEXT
5
4B
330
6
100
AcDbEntity
8
KJD_ACCENT
100
AcDbText
10
206
20
87
30
0
40
3
1
S
100
AcDbText
0
TEXT
5
4C
330
6
100
AcDbEntity
8
KJD_HIGHLIGHT
100
AcDbText
10
24
20
89
30
0
40
3
1
C03
100
AcDbText
0
TEXT
5
4D
330
6
100
AcDbEntity
8
KJD_ANNOTATION
100
AcDbText
10
49
20
89
30
0
40
3
1
SIGNAGE
100
AcDbText
0
TEXT
5
4E
330
6
100
AcDbEntity
8
KJD_DETAIL
100
AcDbText
10
119
20
89
30
0
40
2.5
1
SIGN x 1
100
AcDbText
0
LINE
5
4F
330
6
100
AcDbEntity
8
KJD_OUTLINE
100
AcDbLine
10
145
20
67
30
0
11
164
21
67
31
0
0
CIRCLE
5
50
330
6
100
AcDbEntity
8
KJD_HIGHLIGHT
100
AcDbCircle
10
145
20
67
30
0
40
1.8
210
0
220
0
230
1
0
LWPOLYLINE
5
51
330
6
100
AcDbEntity
8
KJD_HIGHLIGHT
100
AcDbPolyline
90
4
70
1
38
0
10
164
20
63
10
173
20
63
10
173
20
71
10
164
20
71
0
LINE
5
52
330
6
100
AcDbEntity
8
KJD_HIGHLIGHT
100
AcDbLine
10
166
20
65
30
0
11
171
21
69
31
0
0
LINE
5
53
330
6
100
AcDbEntity
8
KJD_OUTLINE
100
AcDbLine
10
173
20
67
30
0
11
204
21
67
31
0
0
CIRCLE
5
54
330
6
100
AcDbEntity
8
KJD_ACCENT
100
AcDbCircle
10
210
20
67
30
0
40
6
210
0
220
0
230
1
0
TEXT
5
55
330
6
100
AcDbEntity
8
KJD_ACCENT
100
AcDbText
10
207
20
66
30
0
40
3
1
M
100
AcDbText
0
TEXT
5
56
330
6
100
AcDbEntity
8
KJD_HIGHLIGHT
100
AcDbText
10
24
20
68
30
0
40
3
1
C04
100
AcDbText
0
TEXT
5
57
330
6
100
AcDbEntity
8
KJD_ANNOTATION
100
AcDbText
10
49
20
68
30
0
40
3
1
HVAC
100
AcDbText
0
TEXT
5
58
330
6
100
AcDbEntity
8
KJD_DETAIL
100
AcDbText
10
119
20
68
30
0
40
2.5
1
FCU x 2
100
AcDbText
0
LWPOLYLINE
5
59
330
6
100
AcDbEntity
8
KJD_DETAIL
100
AcDbPolyline
90
3
70
0
38
0
10
19
20
45
10
278
20
45
10
278
20
175
0
TEXT
5
5A
330
6
100
AcDbEntity
8
KJD_DETAIL
100
AcDbText
10
20
20
40
30
0
40
2.1
1
Editable lines, symbols, labels and layer-separated circuit groups.
100
AcDbText
0
ENDSEC
0
SECTION
2
OBJECTS
0
DICTIONARY
5
67
330
0
100
AcDbDictionary
281
1
3
ACAD_LAYOUT
350
68
0
DICTIONARY
5
68
330
67
100
AcDbDictionary
280
1
281
1
3
Model
350
8
3
Layout1
350
9
0
LAYOUT
5
8
102
{ACAD_REACTORS
330
68
102
}
330
68
100
AcDbPlotSettings
44
297
45
210
48
0
49
0
140
297
141
210
142
1
143
1
70
0
72
1
74
4
100
AcDbLayout
1
Model
70
1
71
0
12
0
22
0
32
0
14
100000000000000000000
24
100000000000000000000
34
100000000000000000000
15
-100000000000000000000
25
-100000000000000000000
35
-100000000000000000000
13
0
23
0
33
0
16
1
26
0
36
0
17
0
27
1
37
0
330
6
0
LAYOUT
5
9
102
{ACAD_REACTORS
330
68
102
}
330
68
100
AcDbPlotSettings
100
AcDbLayout
1
Layout1
70
1
71
1
10
0
20
0
11
420
21
297
12
0
22
0
32
0
14
100000000000000000000
24
100000000000000000000
34
100000000000000000000
15
-100000000000000000000
25
-100000000000000000000
35
-100000000000000000000
13
0
23
0
33
0
16
1
26
0
36
0
17
0
27
1
37
0
330
7
0
ENDSEC
0
EOF
