0
SECTION
2
HEADER
9
$ACADVER
1
AC1032
9
$DWGCODEPAGE
3
UTF-8
9
$HANDSEED
5
53
9
$LTSCALE
40
1
9
$PDMODE
70
0
9
$PDSIZE
40
0
9
$TEXTSTYLE
7
STANDARD
9
$INSUNITS
70
4
9
$MEASUREMENT
70
1
0
ENDSEC
0
SECTION
2
TABLES
0
TABLE
2
LTYPE
5
45
330
0
100
AcDbSymbolTable
70
2
0
LTYPE
5
2
330
45
100
AcDbSymbolTableRecord
100
AcDbLinetypeTableRecord
2
CONTINUOUS
70
0
3
Solid line
72
65
73
0
40
0
0
LTYPE
5
A
330
45
100
AcDbSymbolTableRecord
100
AcDbLinetypeTableRecord
2
WALL-CONTINUOUS
70
0
3

72
65
73
0
40
0
0
ENDTAB
0
TABLE
2
STYLE
5
46
330
0
100
AcDbSymbolTable
70
1
0
STYLE
5
3
330
46
100
AcDbSymbolTableRecord
100
AcDbTextStyleTableRecord
2
STANDARD
70
0
40
0
41
1
50
0
71
0
42
2.5
3
sans-serif
4

0
ENDTAB
0
TABLE
2
DIMSTYLE
5
47
330
0
100
AcDbSymbolTable
70
1
100
AcDbDimStyleTable
0
DIMSTYLE
105
4
330
47
100
AcDbSymbolTableRecord
100
AcDbDimStyleTableRecord
2
STANDARD
70
0
40
1
41
2.5
42
0.625
43
3.75
44
1.25
140
2.5
141
2.5
147
0.625
0
ENDTAB
0
TABLE
2
UCS
5
48
330
0
100
AcDbSymbolTable
70
0
0
ENDTAB
0
TABLE
2
VIEW
5
49
330
0
100
AcDbSymbolTable
70
0
0
ENDTAB
0
TABLE
2
LAYER
5
4A
330
0
100
AcDbSymbolTable
70
6
0
LAYER
5
5
330
4A
100
AcDbSymbolTableRecord
100
AcDbLayerTableRecord
2
0
70
0
62
7
6
CONTINUOUS
290
1
370
-1
0
LAYER
5
B
330
4A
100
AcDbSymbolTableRecord
100
AcDbLayerTableRecord
2
WALL-FRAME
70
0
62
8
6
WALL-CONTINUOUS
290
1
370
-1
0
LAYER
5
C
330
4A
100
AcDbSymbolTableRecord
100
AcDbLayerTableRecord
2
WALL-OUTLINE
70
0
62
9
6
WALL-CONTINUOUS
290
1
370
-1
0
LAYER
5
D
330
4A
100
AcDbSymbolTableRecord
100
AcDbLayerTableRecord
2
WALL-DETAIL
70
0
62
3
6
WALL-CONTINUOUS
290
1
370
-1
0
LAYER
5
E
330
4A
100
AcDbSymbolTableRecord
100
AcDbLayerTableRecord
2
WALL-ANNOTATION
70
0
62
9
6
WALL-CONTINUOUS
290
1
370
-1
0
LAYER
5
F
330
4A
100
AcDbSymbolTableRecord
100
AcDbLayerTableRecord
2
WALL-HATCH
70
0
62
9
6
WALL-CONTINUOUS
290
1
370
-1
0
ENDTAB
0
TABLE
2
BLOCK_RECORD
5
4B
330
0
100
AcDbSymbolTable
70
2
0
BLOCK_RECORD
5
6
330
4B
100
AcDbSymbolTableRecord
100
AcDbBlockTableRecord
2
*MODEL_SPACE
70
0
280
1
281
0
340
8
0
BLOCK_RECORD
5
7
330
4B
100
AcDbSymbolTableRecord
100
AcDbBlockTableRecord
2
*PAPER_SPACE
70
0
280
1
281
0
340
9
0
ENDTAB
0
ENDSEC
0
SECTION
2
BLOCKS
0
BLOCK
5
4D
330
6
100
AcDbEntity
8
0
100
AcDbBlockBegin
2
*MODEL_SPACE
70
0
10
0
20
0
30
0
3
*MODEL_SPACE
1

0
ENDBLK
5
4E
330
6
100
AcDbEntity
8
0
100
AcDbBlockEnd
0
BLOCK
5
4F
330
7
100
AcDbEntity
8
0
100
AcDbBlockBegin
2
*PAPER_SPACE
70
0
10
0
20
0
30
0
3
*PAPER_SPACE
1

0
ENDBLK
5
50
330
7
100
AcDbEntity
8
0
100
AcDbBlockEnd
0
ENDSEC
0
SECTION
2
ENTITIES
0
LWPOLYLINE
5
10
330
6
100
AcDbEntity
8
WALL-FRAME
100
AcDbPolyline
90
4
70
1
38
0
10
0
20
0
10
277
20
0
10
277
20
190
10
0
20
190
0
LWPOLYLINE
5
11
330
6
100
AcDbEntity
8
WALL-FRAME
100
AcDbPolyline
90
4
70
1
38
0
10
5
20
5
10
272
20
5
10
272
20
185
10
5
20
185
0
LINE
5
12
330
6
100
AcDbEntity
8
WALL-FRAME
100
AcDbLine
10
5
20
25
30
0
11
272
21
25
31
0
0
LINE
5
13
330
6
100
AcDbEntity
8
WALL-FRAME
100
AcDbLine
10
176
20
5
30
0
11
176
21
25
31
0
0
LINE
5
14
330
6
100
AcDbEntity
8
WALL-FRAME
100
AcDbLine
10
240
20
5
30
0
11
240
21
25
31
0
0
TEXT
5
15
330
6
100
AcDbEntity
8
WALL-ANNOTATION
100
AcDbText
10
10
20
13
30
0
40
6
1
RETAINING WALL SECTION
100
AcDbText
0
TEXT
5
16
330
6
100
AcDbEntity
8
WALL-ANNOTATION
100
AcDbText
10
10
20
7
30
0
40
2.6
1
Footing / drainage / backfill / construction notes
100
AcDbText
0
TEXT
5
17
330
6
100
AcDbEntity
8
WALL-ANNOTATION
100
AcDbText
10
181
20
16
30
0
40
2.6
1
KJDRAW / ENGINEERING EXAMPLES
100
AcDbText
0
TEXT
5
18
330
6
100
AcDbEntity
8
WALL-ANNOTATION
100
AcDbText
10
181
20
9
30
0
40
2.4
1
Editable CAD - illustrative
100
AcDbText
0
TEXT
5
19
330
6
100
AcDbEntity
8
WALL-ANNOTATION
100
AcDbText
10
245
20
16
30
0
40
2.5
1
A4 / 1:1
100
AcDbText
0
TEXT
5
1A
330
6
100
AcDbEntity
8
WALL-ANNOTATION
100
AcDbText
10
245
20
9
30
0
40
2.5
1
REV 01
100
AcDbText
0
TEXT
5
1B
330
6
100
AcDbEntity
8
WALL-ANNOTATION
100
AcDbText
10
17
20
173
30
0
40
4.2
1
SECTION A-A  /  1:50
100
AcDbText
0
LINE
5
1C
330
6
100
AcDbEntity
8
WALL-DETAIL
100
AcDbLine
10
18
20
52
30
0
11
130
21
52
31
0
0
LINE
5
1D
330
6
100
AcDbEntity
8
WALL-DETAIL
100
AcDbLine
10
129
20
52
30
0
11
129
21
151
31
0
0
LINE
5
1E
330
6
100
AcDbEntity
8
WALL-DETAIL
100
AcDbLine
10
129
20
151
30
0
11
184
21
151
31
0
0
LWPOLYLINE
5
1F
330
6
100
AcDbEntity
8
WALL-OUTLINE
100
AcDbPolyline
90
4
70
1
38
0
10
47
20
42
10
154
20
42
10
154
20
55
10
47
20
55
0
LWPOLYLINE
5
20
330
6
100
AcDbEntity
8
WALL-OUTLINE
100
AcDbPolyline
90
4
70
1
38
0
10
101
20
55
10
119
20
55
10
119
20
151
10
101
20
151
0
LWPOLYLINE
5
21
330
6
100
AcDbEntity
8
WALL-OUTLINE
100
AcDbPolyline
90
4
70
1
38
0
10
91
20
151
10
129
20
151
10
129
20
156
10
91
20
156
0
HATCH
5
22
330
6
100
AcDbEntity
8
WALL-HATCH
100
AcDbHatch
10
0
20
0
30
0
2
ANSI31
70
0
71
0
91
1
92
3
72
0
73
1
93
4
10
49
20
44
10
152
20
44
10
152
20
53
10
49
20
53
97
0
75
0
76
1
52
0
41
3
77
0
78
1
53
45
43
0
44
0
45
-6.735192090801863
46
6.735192090801865
79
0
0
HATCH
5
23
330
6
100
AcDbEntity
8
WALL-HATCH
100
AcDbHatch
10
0
20
0
30
0
2
ANSI31
70
0
71
0
91
1
92
3
72
0
73
1
93
4
10
103
20
57
10
117
20
57
10
117
20
149
10
103
20
149
97
0
75
0
76
1
52
0
41
3
77
0
78
1
53
45
43
0
44
0
45
-6.735192090801863
46
6.735192090801865
79
0
0
LINE
5
24
330
6
100
AcDbEntity
8
WALL-DETAIL
100
AcDbLine
10
133
20
62
30
0
11
176
21
71
31
0
0
LINE
5
25
330
6
100
AcDbEntity
8
WALL-DETAIL
100
AcDbLine
10
147
20
61
30
0
11
155
21
69
31
0
0
LINE
5
26
330
6
100
AcDbEntity
8
WALL-DETAIL
100
AcDbLine
10
133
20
75
30
0
11
176
21
84
31
0
0
LINE
5
27
330
6
100
AcDbEntity
8
WALL-DETAIL
100
AcDbLine
10
147
20
74
30
0
11
155
21
82
31
0
0
LINE
5
28
330
6
100
AcDbEntity
8
WALL-DETAIL
100
AcDbLine
10
133
20
88
30
0
11
176
21
97
31
0
0
LINE
5
29
330
6
100
AcDbEntity
8
WALL-DETAIL
100
AcDbLine
10
147
20
87
30
0
11
155
21
95
31
0
0
LINE
5
2A
330
6
100
AcDbEntity
8
WALL-DETAIL
100
AcDbLine
10
133
20
101
30
0
11
176
21
110
31
0
0
LINE
5
2B
330
6
100
AcDbEntity
8
WALL-DETAIL
100
AcDbLine
10
147
20
100
30
0
11
155
21
108
31
0
0
LINE
5
2C
330
6
100
AcDbEntity
8
WALL-DETAIL
100
AcDbLine
10
133
20
114
30
0
11
176
21
123
31
0
0
LINE
5
2D
330
6
100
AcDbEntity
8
WALL-DETAIL
100
AcDbLine
10
147
20
113
30
0
11
155
21
121
31
0
0
LINE
5
2E
330
6
100
AcDbEntity
8
WALL-DETAIL
100
AcDbLine
10
133
20
127
30
0
11
176
21
136
31
0
0
LINE
5
2F
330
6
100
AcDbEntity
8
WALL-DETAIL
100
AcDbLine
10
147
20
126
30
0
11
155
21
134
31
0
0
LINE
5
30
330
6
100
AcDbEntity
8
WALL-DETAIL
100
AcDbLine
10
133
20
140
30
0
11
176
21
149
31
0
0
LINE
5
31
330
6
100
AcDbEntity
8
WALL-DETAIL
100
AcDbLine
10
147
20
139
30
0
11
155
21
147
31
0
0
CIRCLE
5
32
330
6
100
AcDbEntity
8
WALL-DETAIL
100
AcDbCircle
10
126
20
66
30
0
40
4
210
0
220
0
230
1
0
LINE
5
33
330
6
100
AcDbEntity
8
WALL-DETAIL
100
AcDbLine
10
119
20
66
30
0
11
122
21
66
31
0
0
LWPOLYLINE
5
34
330
6
100
AcDbEntity
8
WALL-DETAIL
100
AcDbPolyline
90
4
70
1
38
0
10
122
20
57
10
149
20
57
10
149
20
64
10
122
20
64
0
HATCH
5
35
330
6
100
AcDbEntity
8
WALL-HATCH
100
AcDbHatch
10
0
20
0
30
0
2
CROSS
70
0
71
0
91
1
92
3
72
0
73
1
93
4
10
123
20
58
10
148
20
58
10
148
20
63
10
123
20
63
97
0
75
0
76
1
52
0
41
2.5
77
0
78
2
53
45
43
0
44
0
45
-5.61266007566822
46
5.612660075668221
79
0
53
135
43
0
44
0
45
-5.612660075668221
46
-5.61266007566822
79
0
0
LINE
5
36
330
6
100
AcDbEntity
8
WALL-ANNOTATION
100
AcDbLine
10
27
20
55
30
0
11
27
21
151
31
0
0
LINE
5
37
330
6
100
AcDbEntity
8
WALL-ANNOTATION
100
AcDbLine
10
24
20
55
30
0
11
35
21
55
31
0
0
LINE
5
38
330
6
100
AcDbEntity
8
WALL-ANNOTATION
100
AcDbLine
10
24
20
151
30
0
11
35
21
151
31
0
0
TEXT
5
39
330
6
100
AcDbEntity
8
WALL-ANNOTATION
100
AcDbText
10
17
20
105
30
0
40
3.2
1
4.8 m
100
AcDbText
0
LINE
5
3A
330
6
100
AcDbEntity
8
WALL-ANNOTATION
100
AcDbLine
10
47
20
33
30
0
11
154
21
33
31
0
0
LINE
5
3B
330
6
100
AcDbEntity
8
WALL-ANNOTATION
100
AcDbLine
10
47
20
30
30
0
11
47
21
38
31
0
0
LINE
5
3C
330
6
100
AcDbEntity
8
WALL-ANNOTATION
100
AcDbLine
10
154
20
30
30
0
11
154
21
38
31
0
0
TEXT
5
3D
330
6
100
AcDbEntity
8
WALL-ANNOTATION
100
AcDbText
10
93
20
28
30
0
40
3.1
1
5.4 m
100
AcDbText
0
LINE
5
3E
330
6
100
AcDbEntity
8
WALL-ANNOTATION
100
AcDbLine
10
119
20
113
30
0
11
193
21
128
31
0
0
TEXT
5
3F
330
6
100
AcDbEntity
8
WALL-ANNOTATION
100
AcDbText
10
194
20
128
30
0
40
2.9
1
COMPACTED BACKFILL
100
AcDbText
0
LINE
5
40
330
6
100
AcDbEntity
8
WALL-ANNOTATION
100
AcDbLine
10
126
20
66
30
0
11
193
21
76
31
0
0
TEXT
5
41
330
6
100
AcDbEntity
8
WALL-ANNOTATION
100
AcDbText
10
194
20
75
30
0
40
2.9
1
WEEP HOLE + FILTER
100
AcDbText
0
LWPOLYLINE
5
42
330
6
100
AcDbEntity
8
WALL-FRAME
100
AcDbPolyline
90
4
70
1
38
0
10
186
20
43
10
259
20
43
10
259
20
60
10
186
20
60
0
TEXT
5
43
330
6
100
AcDbEntity
8
WALL-ANNOTATION
100
AcDbText
10
191
20
52
30
0
40
3.1
1
CONCRETE C30
100
AcDbText
0
TEXT
5
44
330
6
100
AcDbEntity
8
WALL-ANNOTATION
100
AcDbText
10
191
20
46
30
0
40
2.2
1
Example detail - design check required
100
AcDbText
0
ENDSEC
0
SECTION
2
OBJECTS
0
DICTIONARY
5
51
330
0
100
AcDbDictionary
281
1
3
ACAD_LAYOUT
350
52
0
DICTIONARY
5
52
330
51
100
AcDbDictionary
280
1
281
1
3
Model
350
8
3
Layout1
350
9
0
LAYOUT
5
8
102
{ACAD_REACTORS
330
52
102
}
330
52
100
AcDbPlotSettings
44
297
45
210
48
-10
49
-10
140
287
141
200
142
1
143
1
70
0
72
1
74
4
100
AcDbLayout
1
Model
70
1
71
0
12
0
22
0
32
0
14
100000000000000000000
24
100000000000000000000
34
100000000000000000000
15
-100000000000000000000
25
-100000000000000000000
35
-100000000000000000000
13
0
23
0
33
0
16
1
26
0
36
0
17
0
27
1
37
0
330
6
0
LAYOUT
5
9
102
{ACAD_REACTORS
330
52
102
}
330
52
100
AcDbPlotSettings
100
AcDbLayout
1
Layout1
70
1
71
1
10
0
20
0
11
420
21
297
12
0
22
0
32
0
14
100000000000000000000
24
100000000000000000000
34
100000000000000000000
15
-100000000000000000000
25
-100000000000000000000
35
-100000000000000000000
13
0
23
0
33
0
16
1
26
0
36
0
17
0
27
1
37
0
330
7
0
ENDSEC
0
EOF
