0
SECTION
2
HEADER
9
$ACADVER
1
AC1032
9
$DWGCODEPAGE
3
UTF-8
9
$HANDSEED
5
91
9
$LTSCALE
40
1
9
$PDMODE
70
0
9
$PDSIZE
40
0
9
$TEXTSTYLE
7
STANDARD
9
$INSUNITS
70
6
9
$MEASUREMENT
70
1
0
ENDSEC
0
SECTION
2
TABLES
0
TABLE
2
LTYPE
5
83
330
0
100
AcDbSymbolTable
70
1
0
LTYPE
5
2
330
83
100
AcDbSymbolTableRecord
100
AcDbLinetypeTableRecord
2
CONTINUOUS
70
0
3
Solid line
72
65
73
0
40
0
0
ENDTAB
0
TABLE
2
STYLE
5
84
330
0
100
AcDbSymbolTable
70
1
0
STYLE
5
3
330
84
100
AcDbSymbolTableRecord
100
AcDbTextStyleTableRecord
2
STANDARD
70
0
40
0
41
1
50
0
71
0
42
2.5
3
sans-serif
4

0
ENDTAB
0
TABLE
2
DIMSTYLE
5
85
330
0
100
AcDbSymbolTable
70
1
100
AcDbDimStyleTable
0
DIMSTYLE
105
4
330
85
100
AcDbSymbolTableRecord
100
AcDbDimStyleTableRecord
2
STANDARD
70
0
40
1
41
2.5
42
0.625
43
3.75
44
1.25
140
2.5
141
2.5
147
0.625
0
ENDTAB
0
TABLE
2
UCS
5
86
330
0
100
AcDbSymbolTable
70
0
0
ENDTAB
0
TABLE
2
VIEW
5
87
330
0
100
AcDbSymbolTable
70
0
0
ENDTAB
0
TABLE
2
LAYER
5
88
330
0
100
AcDbSymbolTable
70
10
0
LAYER
5
5
330
88
100
AcDbSymbolTableRecord
100
AcDbLayerTableRecord
2
0
70
0
62
7
6
CONTINUOUS
290
1
370
-1
0
LAYER
5
A
330
88
100
AcDbSymbolTableRecord
100
AcDbLayerTableRecord
2
FRAME
70
0
62
7
6
CONTINUOUS
290
1
370
-1
0
LAYER
5
B
330
88
100
AcDbSymbolTableRecord
100
AcDbLayerTableRecord
2
C-GRID
70
0
62
8
6
CONTINUOUS
290
1
370
-1
0
LAYER
5
C
330
88
100
AcDbSymbolTableRecord
100
AcDbLayerTableRecord
2
C-GROUND
70
0
62
6
6
CONTINUOUS
290
1
370
-1
0
LAYER
5
D
330
88
100
AcDbSymbolTableRecord
100
AcDbLayerTableRecord
2
C-GRADE
70
0
62
3
6
CONTINUOUS
290
1
370
-1
0
LAYER
5
E
330
88
100
AcDbSymbolTableRecord
100
AcDbLayerTableRecord
2
C-DRAIN
70
0
62
4
6
CONTINUOUS
290
1
370
-1
0
LAYER
5
F
330
88
100
AcDbSymbolTableRecord
100
AcDbLayerTableRecord
2
C-STRUCT
70
0
62
2
6
CONTINUOUS
290
1
370
-1
0
LAYER
5
10
330
88
100
AcDbSymbolTableRecord
100
AcDbLayerTableRecord
2
DIMS
70
0
62
2
6
CONTINUOUS
290
1
370
-1
0
LAYER
5
11
330
88
100
AcDbSymbolTableRecord
100
AcDbLayerTableRecord
2
ANNO
70
0
62
7
6
CONTINUOUS
290
1
370
-1
0
LAYER
5
12
330
88
100
AcDbSymbolTableRecord
100
AcDbLayerTableRecord
2
TITLE
70
0
62
7
6
CONTINUOUS
290
1
370
-1
0
ENDTAB
0
TABLE
2
BLOCK_RECORD
5
89
330
0
100
AcDbSymbolTable
70
2
0
BLOCK_RECORD
5
6
330
89
100
AcDbSymbolTableRecord
100
AcDbBlockTableRecord
2
*MODEL_SPACE
70
0
280
1
281
0
340
8
0
BLOCK_RECORD
5
7
330
89
100
AcDbSymbolTableRecord
100
AcDbBlockTableRecord
2
*PAPER_SPACE
70
0
280
1
281
0
340
9
0
ENDTAB
0
ENDSEC
0
SECTION
2
BLOCKS
0
BLOCK
5
8B
330
6
100
AcDbEntity
8
0
100
AcDbBlockBegin
2
*MODEL_SPACE
70
0
10
0
20
0
30
0
3
*MODEL_SPACE
1

0
ENDBLK
5
8C
330
6
100
AcDbEntity
8
0
100
AcDbBlockEnd
0
BLOCK
5
8D
330
7
100
AcDbEntity
8
0
100
AcDbBlockBegin
2
*PAPER_SPACE
70
0
10
0
20
0
30
0
3
*PAPER_SPACE
1

0
ENDBLK
5
8E
330
7
100
AcDbEntity
8
0
100
AcDbBlockEnd
0
ENDSEC
0
SECTION
2
ENTITIES
0
LWPOLYLINE
5
13
330
6
100
AcDbEntity
8
FRAME
100
AcDbPolyline
90
4
70
1
38
0
10
-8
20
-12
10
248
20
-12
10
248
20
152
10
-8
20
152
0
LWPOLYLINE
5
14
330
6
100
AcDbEntity
8
FRAME
100
AcDbPolyline
90
4
70
1
38
0
10
-5
20
-9
10
245
20
-9
10
245
20
149
10
-5
20
149
0
LWPOLYLINE
5
15
330
6
100
AcDbEntity
8
FRAME
100
AcDbPolyline
90
4
70
1
38
0
10
136
20
-9
10
245
20
-9
10
245
20
9
10
136
20
9
0
LINE
5
16
330
6
100
AcDbEntity
8
FRAME
100
AcDbLine
10
194
20
-9
30
0
11
194
21
9
31
0
0
LINE
5
17
330
6
100
AcDbEntity
8
FRAME
100
AcDbLine
10
218
20
-9
30
0
11
218
21
9
31
0
0
LINE
5
18
330
6
100
AcDbEntity
8
FRAME
100
AcDbLine
10
194
20
0
30
0
11
245
21
0
31
0
0
TEXT
5
19
330
6
100
AcDbEntity
8
TITLE
100
AcDbText
10
139
20
2
30
0
40
2.25
1
HILL ROUTE C2 · LONGITUDINAL PROFILE
7
STANDARD
100
AcDbText
0
TEXT
5
1A
330
6
100
AcDbEntity
8
TITLE
100
AcDbText
10
139
20
-4
30
0
40
1.35
1
ROAD ENGINEERING
7
STANDARD
100
AcDbText
0
TEXT
5
1B
330
6
100
AcDbEntity
8
TITLE
100
AcDbText
10
197
20
3.5
30
0
40
1.15
1
SCALE  H 1:1000 / V 1:100
7
STANDARD
100
AcDbText
0
TEXT
5
1C
330
6
100
AcDbEntity
8
TITLE
100
AcDbText
10
197
20
-4.5
30
0
40
1.15
1
REV  A
7
STANDARD
100
AcDbText
0
TEXT
5
1D
330
6
100
AcDbEntity
8
TITLE
100
AcDbText
10
221
20
3.5
30
0
40
1.2
1
C-301
7
STANDARD
100
AcDbText
0
TEXT
5
1E
330
6
100
AcDbEntity
8
TITLE
100
AcDbText
10
221
20
-4.5
30
0
40
0.95
1
SYNTHETIC
7
STANDARD
100
AcDbText
0
LWPOLYLINE
5
1F
330
6
100
AcDbEntity
8
C-GRID
100
AcDbPolyline
90
4
70
1
38
0
10
18
20
35
10
232
20
35
10
232
20
132
10
18
20
132
0
LINE
5
20
330
6
100
AcDbEntity
8
C-GRID
100
AcDbLine
10
18
20
35
30
0
11
18
21
132
31
0
0
TEXT
5
21
330
6
100
AcDbEntity
8
ANNO
100
AcDbText
10
15.5
20
30
30
0
40
1.2
1
0
7
STANDARD
100
AcDbText
0
LINE
5
22
330
6
100
AcDbEntity
8
C-GRID
100
AcDbLine
10
39.4
20
35
30
0
11
39.4
21
132
31
0
0
TEXT
5
23
330
6
100
AcDbEntity
8
ANNO
100
AcDbText
10
36.9
20
30
30
0
40
1.2
1
100
7
STANDARD
100
AcDbText
0
LINE
5
24
330
6
100
AcDbEntity
8
C-GRID
100
AcDbLine
10
60.8
20
35
30
0
11
60.8
21
132
31
0
0
TEXT
5
25
330
6
100
AcDbEntity
8
ANNO
100
AcDbText
10
58.3
20
30
30
0
40
1.2
1
200
7
STANDARD
100
AcDbText
0
LINE
5
26
330
6
100
AcDbEntity
8
C-GRID
100
AcDbLine
10
82.2
20
35
30
0
11
82.2
21
132
31
0
0
TEXT
5
27
330
6
100
AcDbEntity
8
ANNO
100
AcDbText
10
79.7
20
30
30
0
40
1.2
1
300
7
STANDARD
100
AcDbText
0
LINE
5
28
330
6
100
AcDbEntity
8
C-GRID
100
AcDbLine
10
103.6
20
35
30
0
11
103.6
21
132
31
0
0
TEXT
5
29
330
6
100
AcDbEntity
8
ANNO
100
AcDbText
10
101.1
20
30
30
0
40
1.2
1
400
7
STANDARD
100
AcDbText
0
LINE
5
2A
330
6
100
AcDbEntity
8
C-GRID
100
AcDbLine
10
125
20
35
30
0
11
125
21
132
31
0
0
TEXT
5
2B
330
6
100
AcDbEntity
8
ANNO
100
AcDbText
10
122.5
20
30
30
0
40
1.2
1
500
7
STANDARD
100
AcDbText
0
LINE
5
2C
330
6
100
AcDbEntity
8
C-GRID
100
AcDbLine
10
146.4
20
35
30
0
11
146.4
21
132
31
0
0
TEXT
5
2D
330
6
100
AcDbEntity
8
ANNO
100
AcDbText
10
143.9
20
30
30
0
40
1.2
1
600
7
STANDARD
100
AcDbText
0
LINE
5
2E
330
6
100
AcDbEntity
8
C-GRID
100
AcDbLine
10
167.8
20
35
30
0
11
167.8
21
132
31
0
0
TEXT
5
2F
330
6
100
AcDbEntity
8
ANNO
100
AcDbText
10
165.3
20
30
30
0
40
1.2
1
700
7
STANDARD
100
AcDbText
0
LINE
5
30
330
6
100
AcDbEntity
8
C-GRID
100
AcDbLine
10
189.2
20
35
30
0
11
189.2
21
132
31
0
0
TEXT
5
31
330
6
100
AcDbEntity
8
ANNO
100
AcDbText
10
186.7
20
30
30
0
40
1.2
1
800
7
STANDARD
100
AcDbText
0
LINE
5
32
330
6
100
AcDbEntity
8
C-GRID
100
AcDbLine
10
210.6
20
35
30
0
11
210.6
21
132
31
0
0
TEXT
5
33
330
6
100
AcDbEntity
8
ANNO
100
AcDbText
10
208.1
20
30
30
0
40
1.2
1
900
7
STANDARD
100
AcDbText
0
LINE
5
34
330
6
100
AcDbEntity
8
C-GRID
100
AcDbLine
10
232
20
35
30
0
11
232
21
132
31
0
0
TEXT
5
35
330
6
100
AcDbEntity
8
ANNO
100
AcDbText
10
229.5
20
30
30
0
40
1.2
1
1000
7
STANDARD
100
AcDbText
0
LINE
5
36
330
6
100
AcDbEntity
8
C-GRID
100
AcDbLine
10
18
20
35
30
0
11
232
21
35
31
0
0
TEXT
5
37
330
6
100
AcDbEntity
8
ANNO
100
AcDbText
10
8
20
34.4
30
0
40
1.15
1
92
7
STANDARD
100
AcDbText
0
LINE
5
38
330
6
100
AcDbEntity
8
C-GRID
100
AcDbLine
10
18
20
45.5
30
0
11
232
21
45.5
31
0
0
TEXT
5
39
330
6
100
AcDbEntity
8
ANNO
100
AcDbText
10
8
20
44.9
30
0
40
1.15
1
94
7
STANDARD
100
AcDbText
0
LINE
5
3A
330
6
100
AcDbEntity
8
C-GRID
100
AcDbLine
10
18
20
56
30
0
11
232
21
56
31
0
0
TEXT
5
3B
330
6
100
AcDbEntity
8
ANNO
100
AcDbText
10
8
20
55.4
30
0
40
1.15
1
96
7
STANDARD
100
AcDbText
0
LINE
5
3C
330
6
100
AcDbEntity
8
C-GRID
100
AcDbLine
10
18
20
66.5
30
0
11
232
21
66.5
31
0
0
TEXT
5
3D
330
6
100
AcDbEntity
8
ANNO
100
AcDbText
10
8
20
65.9
30
0
40
1.15
1
98
7
STANDARD
100
AcDbText
0
LINE
5
3E
330
6
100
AcDbEntity
8
C-GRID
100
AcDbLine
10
18
20
77
30
0
11
232
21
77
31
0
0
TEXT
5
3F
330
6
100
AcDbEntity
8
ANNO
100
AcDbText
10
8
20
76.4
30
0
40
1.15
1
100
7
STANDARD
100
AcDbText
0
LINE
5
40
330
6
100
AcDbEntity
8
C-GRID
100
AcDbLine
10
18
20
87.5
30
0
11
232
21
87.5
31
0
0
TEXT
5
41
330
6
100
AcDbEntity
8
ANNO
100
AcDbText
10
8
20
86.9
30
0
40
1.15
1
102
7
STANDARD
100
AcDbText
0
LINE
5
42
330
6
100
AcDbEntity
8
C-GRID
100
AcDbLine
10
18
20
98
30
0
11
232
21
98
31
0
0
TEXT
5
43
330
6
100
AcDbEntity
8
ANNO
100
AcDbText
10
8
20
97.4
30
0
40
1.15
1
104
7
STANDARD
100
AcDbText
0
LINE
5
44
330
6
100
AcDbEntity
8
C-GRID
100
AcDbLine
10
18
20
108.5
30
0
11
232
21
108.5
31
0
0
TEXT
5
45
330
6
100
AcDbEntity
8
ANNO
100
AcDbText
10
8
20
107.9
30
0
40
1.15
1
106
7
STANDARD
100
AcDbText
0
LINE
5
46
330
6
100
AcDbEntity
8
C-GRID
100
AcDbLine
10
18
20
119
30
0
11
232
21
119
31
0
0
TEXT
5
47
330
6
100
AcDbEntity
8
ANNO
100
AcDbText
10
8
20
118.4
30
0
40
1.15
1
108
7
STANDARD
100
AcDbText
0
LWPOLYLINE
5
48
330
6
100
AcDbEntity
8
C-GROUND
100
AcDbPolyline
90
51
70
0
38
0
10
18
20
64
10
22.28
20
68.66572322305471
10
26.560000000000002
20
72.83985686924005
10
30.84
20
76.09902037090508
10
35.120000000000005
20
78.1465522606864
10
39.4
20
78.853005629339
10
43.68
20
78.27288230803116
10
47.96
20
76.63524756220275
10
52.24
20
74.30959146755278
10
56.52
20
71.75183215124483
10
60.8
20
69.43818627943588
10
65.08
20
67.79635981956358
10
69.36
20
67.1438907741576
10
73.64
20
67.64245130898354
10
77.92
20
69.27463568176196
10
82.2
20
71.84654812164835
10
86.48
20
75.01581967974745
10
90.76
20
78.34105089875759
10
95.04
20
81.34561621097026
10
99.32
20
83.58671304388805
10
103.6
20
84.71978665103363
10
107.88
20
84.54911803739424
10
112.16
20
83.05733342950279
10
116.44
20
80.40959838521749
10
120.72
20
76.93186921736843
10
125
20
73.06627397413295
10
129.28
20
69.30995698569296
10
133.56
20
66.14607961263468
10
137.84
20
63.976788820584964
10
142.12
20
63.067684912298
10
146.4
20
63.51168015473011
10
150.68
20
65.2173750497277
10
154.96
20
67.92358307006279
10
159.24
20
71.23790654997524
10
163.52
20
74.69383793452718
10
167.8
20
77.81822085024676
10
172.08
20
80.19943101919738
10
176.36
20
81.54653819842886
10
180.64
20
81.73100112319862
10
184.92
20
80.80494363813277
10
189.2
20
78.99340560964312
10
193.48
20
76.66167946207642
10
197.76
20
74.2624018555132
10
202.04
20
72.2699623364516
10
206.32
20
71.1116040284507
10
210.6
20
71.1050668293862
10
214.88
20
72.41169326145332
10
219.16
20
75.01171375656564
10
223.44
20
78.70526606317884
10
227.72
20
83.13903373130859
10
232
20
87.85473480358128
0
LWPOLYLINE
5
49
330
6
100
AcDbEntity
8
C-GRADE
100
AcDbPolyline
90
51
70
0
38
0
10
18
20
68
10
22.28
20
68.6115122618418
10
26.560000000000002
20
69.22010517077791
10
30.84
20
69.82289466246871
10
35.120000000000005
20
70.4170668231452
10
39.4
20
70.99991190364744
10
43.68
20
71.56885707434155
10
47.96
20
72.12149752498019
10
52.24
20
72.65562553357772
10
56.52
20
73.16925715292115
10
60.8
20
73.66065619213516
10
65.08
20
74.12835520341744
10
69.36
20
74.57117322026018
10
73.64
20
74.9882300327418
10
77.92
20
75.37895682733206
10
82.2
20
75.74310306259862
10
86.48
20
76.08073949770277
10
90.76
20
76.39225733707649
10
95.04
20
76.67836350161998
10
99.32
20
76.94007208358035
10
103.6
20
77.17869208840311
10
107.88
20
77.39581161173084
10
112.16
20
77.59327864281424
10
116.44
20
77.77317872638007
10
120.72
20
77.93780975297503
10
125
20
78.08965418251513
10
129.28
20
78.2313490367965
10
133.56
20
78.36565402369251
10
137.84
20
78.49541817834582
10
142.12
20
78.6235454245895
10
146.4
20
78.75295947288485
10
150.68
20
78.8865684790821
10
154.96
20
79.02722989120215
10
159.24
20
79.17771590916479
10
163.52
20
79.34067997497918
10
167.8
20
79.51862469845663
10
172.08
20
79.71387160615353
10
176.36
20
79.9285330792132
10
180.64
20
80.16448681931637
10
184.92
20
80.42335315139123
10
189.2
20
80.70647543744306
10
193.48
20
81.0149038382576
10
197.76
20
81.34938261926305
10
202.04
20
81.71034115399559
10
206.32
20
82.097888733916
10
210.6
20
82.511813247316
10
214.88
20
82.95158374328301
10
219.16
20
83.41635684973079
10
223.44
20
83.90498696791587
10
227.72
20
84.41604012021091
10
232
20
84.94781128374514
0
LINE
5
4A
330
6
100
AcDbEntity
8
C-GRADE
100
AcDbLine
10
18
20
35
30
0
11
18
21
68
31
0
0
CIRCLE
5
4B
330
6
100
AcDbEntity
8
C-GRADE
100
AcDbCircle
10
18
20
68
30
0
40
1.1
210
0
220
0
230
1
0
TEXT
5
4C
330
6
100
AcDbEntity
8
ANNO
100
AcDbText
10
15.5
20
71
30
0
40
1.05
1
PVI 0
7
STANDARD
100
AcDbText
0
LINE
5
4D
330
6
100
AcDbEntity
8
C-GRADE
100
AcDbLine
10
39.4
20
35
30
0
11
39.4
21
70.99991190364744
31
0
0
CIRCLE
5
4E
330
6
100
AcDbEntity
8
C-GRADE
100
AcDbCircle
10
39.4
20
70.99991190364744
30
0
40
1.1
210
0
220
0
230
1
0
TEXT
5
4F
330
6
100
AcDbEntity
8
ANNO
100
AcDbText
10
36.9
20
73.99991190364744
30
0
40
1.05
1
PVI 100
7
STANDARD
100
AcDbText
0
LINE
5
50
330
6
100
AcDbEntity
8
C-GRADE
100
AcDbLine
10
60.8
20
35
30
0
11
60.8
21
73.66065619213516
31
0
0
CIRCLE
5
51
330
6
100
AcDbEntity
8
C-GRADE
100
AcDbCircle
10
60.8
20
73.66065619213516
30
0
40
1.1
210
0
220
0
230
1
0
TEXT
5
52
330
6
100
AcDbEntity
8
ANNO
100
AcDbText
10
58.3
20
76.66065619213516
30
0
40
1.05
1
PVI 200
7
STANDARD
100
AcDbText
0
LINE
5
53
330
6
100
AcDbEntity
8
C-GRADE
100
AcDbLine
10
82.2
20
35
30
0
11
82.2
21
75.74310306259862
31
0
0
CIRCLE
5
54
330
6
100
AcDbEntity
8
C-GRADE
100
AcDbCircle
10
82.2
20
75.74310306259862
30
0
40
1.1
210
0
220
0
230
1
0
TEXT
5
55
330
6
100
AcDbEntity
8
ANNO
100
AcDbText
10
79.7
20
78.74310306259862
30
0
40
1.05
1
PVI 300
7
STANDARD
100
AcDbText
0
LINE
5
56
330
6
100
AcDbEntity
8
C-GRADE
100
AcDbLine
10
103.6
20
35
30
0
11
103.6
21
77.17869208840311
31
0
0
CIRCLE
5
57
330
6
100
AcDbEntity
8
C-GRADE
100
AcDbCircle
10
103.6
20
77.17869208840311
30
0
40
1.1
210
0
220
0
230
1
0
TEXT
5
58
330
6
100
AcDbEntity
8
ANNO
100
AcDbText
10
101.1
20
80.17869208840311
30
0
40
1.05
1
PVI 400
7
STANDARD
100
AcDbText
0
LINE
5
59
330
6
100
AcDbEntity
8
C-GRADE
100
AcDbLine
10
125
20
35
30
0
11
125
21
78.08965418251513
31
0
0
CIRCLE
5
5A
330
6
100
AcDbEntity
8
C-GRADE
100
AcDbCircle
10
125
20
78.08965418251513
30
0
40
1.1
210
0
220
0
230
1
0
TEXT
5
5B
330
6
100
AcDbEntity
8
ANNO
100
AcDbText
10
122.5
20
81.08965418251513
30
0
40
1.05
1
PVI 500
7
STANDARD
100
AcDbText
0
LINE
5
5C
330
6
100
AcDbEntity
8
C-GRADE
100
AcDbLine
10
146.4
20
35
30
0
11
146.4
21
78.75295947288485
31
0
0
CIRCLE
5
5D
330
6
100
AcDbEntity
8
C-GRADE
100
AcDbCircle
10
146.4
20
78.75295947288485
30
0
40
1.1
210
0
220
0
230
1
0
TEXT
5
5E
330
6
100
AcDbEntity
8
ANNO
100
AcDbText
10
143.9
20
81.75295947288485
30
0
40
1.05
1
PVI 600
7
STANDARD
100
AcDbText
0
LINE
5
5F
330
6
100
AcDbEntity
8
C-GRADE
100
AcDbLine
10
167.8
20
35
30
0
11
167.8
21
79.51862469845663
31
0
0
CIRCLE
5
60
330
6
100
AcDbEntity
8
C-GRADE
100
AcDbCircle
10
167.8
20
79.51862469845663
30
0
40
1.1
210
0
220
0
230
1
0
TEXT
5
61
330
6
100
AcDbEntity
8
ANNO
100
AcDbText
10
165.3
20
82.51862469845663
30
0
40
1.05
1
PVI 700
7
STANDARD
100
AcDbText
0
LINE
5
62
330
6
100
AcDbEntity
8
C-GRADE
100
AcDbLine
10
189.2
20
35
30
0
11
189.2
21
80.70647543744306
31
0
0
CIRCLE
5
63
330
6
100
AcDbEntity
8
C-GRADE
100
AcDbCircle
10
189.2
20
80.70647543744306
30
0
40
1.1
210
0
220
0
230
1
0
TEXT
5
64
330
6
100
AcDbEntity
8
ANNO
100
AcDbText
10
186.7
20
83.70647543744306
30
0
40
1.05
1
PVI 800
7
STANDARD
100
AcDbText
0
LINE
5
65
330
6
100
AcDbEntity
8
C-GRADE
100
AcDbLine
10
210.6
20
35
30
0
11
210.6
21
82.511813247316
31
0
0
CIRCLE
5
66
330
6
100
AcDbEntity
8
C-GRADE
100
AcDbCircle
10
210.6
20
82.511813247316
30
0
40
1.1
210
0
220
0
230
1
0
TEXT
5
67
330
6
100
AcDbEntity
8
ANNO
100
AcDbText
10
208.1
20
85.511813247316
30
0
40
1.05
1
PVI 900
7
STANDARD
100
AcDbText
0
LINE
5
68
330
6
100
AcDbEntity
8
C-GRADE
100
AcDbLine
10
232
20
35
30
0
11
232
21
84.94781128374514
31
0
0
CIRCLE
5
69
330
6
100
AcDbEntity
8
C-GRADE
100
AcDbCircle
10
232
20
84.94781128374514
30
0
40
1.1
210
0
220
0
230
1
0
TEXT
5
6A
330
6
100
AcDbEntity
8
ANNO
100
AcDbText
10
229.5
20
87.94781128374514
30
0
40
1.05
1
PVI 1000
7
STANDARD
100
AcDbText
0
LINE
5
6B
330
6
100
AcDbEntity
8
C-STRUCT
100
AcDbLine
10
73
20
35
30
0
11
73
21
70
31
0
0
LWPOLYLINE
5
6C
330
6
100
AcDbEntity
8
C-STRUCT
100
AcDbPolyline
90
4
70
1
38
0
10
70
20
67
10
76
20
67
10
76
20
70
10
70
20
70
0
TEXT
5
6D
330
6
100
AcDbEntity
8
C-STRUCT
100
AcDbText
10
76
20
69
30
0
40
1.15
1
BOX CULVERT 2.0 × 1.5
7
STANDARD
100
AcDbText
0
LINE
5
6E
330
6
100
AcDbEntity
8
C-STRUCT
100
AcDbLine
10
158
20
35
30
0
11
158
21
91
31
0
0
LWPOLYLINE
5
6F
330
6
100
AcDbEntity
8
C-STRUCT
100
AcDbPolyline
90
4
70
1
38
0
10
155
20
88
10
161
20
88
10
161
20
91
10
155
20
91
0
TEXT
5
70
330
6
100
AcDbEntity
8
C-STRUCT
100
AcDbText
10
161
20
90
30
0
40
1.15
1
PIPE Ø1200
7
STANDARD
100
AcDbText
0
LINE
5
71
330
6
100
AcDbEntity
8
C-STRUCT
100
AcDbLine
10
205
20
35
30
0
11
205
21
105
31
0
0
LWPOLYLINE
5
72
330
6
100
AcDbEntity
8
C-STRUCT
100
AcDbPolyline
90
4
70
1
38
0
10
202
20
102
10
208
20
102
10
208
20
105
10
202
20
105
0
TEXT
5
73
330
6
100
AcDbEntity
8
C-STRUCT
100
AcDbText
10
208
20
104
30
0
40
1.15
1
BRIDGE B-02
7
STANDARD
100
AcDbText
0
LWPOLYLINE
5
74
330
6
100
AcDbEntity
8
C-DRAIN
100
AcDbPolyline
90
6
70
0
38
0
10
18
20
52
10
36
20
53
10
51
20
49
10
66
20
50
10
82
20
47
10
99
20
48
0
TEXT
5
75
330
6
100
AcDbEntity
8
C-DRAIN
100
AcDbText
10
20
20
55
30
0
40
1.1
1
DRAINAGE INVERT
7
STANDARD
100
AcDbText
0
LINE
5
76
330
6
100
AcDbEntity
8
DIMS
100
AcDbLine
10
18
20
35
30
0
11
18
21
22.5
31
0
0
LINE
5
77
330
6
100
AcDbEntity
8
DIMS
100
AcDbLine
10
232
20
35
30
0
11
232
21
22.5
31
0
0
LINE
5
78
330
6
100
AcDbEntity
8
DIMS
100
AcDbLine
10
18
20
24
30
0
11
232
21
24
31
0
0
LINE
5
79
330
6
100
AcDbEntity
8
DIMS
100
AcDbLine
10
18
20
24
30
0
11
16.31134414899597
21
25.071653589957993
31
0
0
LINE
5
7A
330
6
100
AcDbEntity
8
DIMS
100
AcDbLine
10
18
20
24
30
0
11
16.31134414899597
21
22.928346410042007
31
0
0
LINE
5
7B
330
6
100
AcDbEntity
8
DIMS
100
AcDbLine
10
232
20
24
30
0
11
233.68865585100403
21
22.928346410042007
31
0
0
LINE
5
7C
330
6
100
AcDbEntity
8
DIMS
100
AcDbLine
10
232
20
24
30
0
11
233.68865585100403
21
25.071653589957993
31
0
0
TEXT
5
7D
330
6
100
AcDbEntity
8
DIMS
100
AcDbText
10
110.7
20
22.9
30
0
40
1.5
1
CHAINAGE 0+000 — 1+000
7
STANDARD
100
AcDbText
0
TEXT
5
7E
330
6
100
AcDbEntity
8
C-GROUND
100
AcDbText
10
20
20
125
30
0
40
1.4
1
EXISTING GROUND
7
STANDARD
100
AcDbText
0
LINE
5
7F
330
6
100
AcDbEntity
8
C-GROUND
100
AcDbLine
10
55
20
126
30
0
11
70
21
126
31
0
0
TEXT
5
80
330
6
100
AcDbEntity
8
C-GRADE
100
AcDbText
10
82
20
125
30
0
40
1.4
1
DESIGN GRADE
7
STANDARD
100
AcDbText
0
LINE
5
81
330
6
100
AcDbEntity
8
C-GRADE
100
AcDbLine
10
112
20
126
30
0
11
127
21
126
31
0
0
TEXT
5
82
330
6
100
AcDbEntity
8
TITLE
100
AcDbText
10
9
20
146
30
0
40
1.15
1
DATUM 90.00 m  ·  DESIGN SPEED 60 km/h  ·  ALL LEVELS ARE SYNTHETIC
7
STANDARD
100
AcDbText
0
ENDSEC
0
SECTION
2
OBJECTS
0
DICTIONARY
5
8F
330
0
100
AcDbDictionary
281
1
3
ACAD_LAYOUT
350
90
0
DICTIONARY
5
90
330
8F
100
AcDbDictionary
280
1
281
1
3
Model
350
8
3
Layout1
350
9
0
LAYOUT
5
8
102
{ACAD_REACTORS
330
90
102
}
330
90
100
AcDbPlotSettings
100
AcDbLayout
1
Model
70
1
71
0
12
0
22
0
32
0
14
100000000000000000000
24
100000000000000000000
34
100000000000000000000
15
-100000000000000000000
25
-100000000000000000000
35
-100000000000000000000
13
0
23
0
33
0
16
1
26
0
36
0
17
0
27
1
37
0
330
6
0
LAYOUT
5
9
102
{ACAD_REACTORS
330
90
102
}
330
90
100
AcDbPlotSettings
100
AcDbLayout
1
Layout1
70
1
71
1
10
0
20
0
11
420
21
297
12
0
22
0
32
0
14
100000000000000000000
24
100000000000000000000
34
100000000000000000000
15
-100000000000000000000
25
-100000000000000000000
35
-100000000000000000000
13
0
23
0
33
0
16
1
26
0
36
0
17
0
27
1
37
0
330
7
0
ENDSEC
0
EOF
