0
SECTION
2
HEADER
9
$ACADVER
1
AC1032
9
$DWGCODEPAGE
3
UTF-8
9
$HANDSEED
5
4C
9
$LTSCALE
40
1
9
$PDMODE
70
0
9
$PDSIZE
40
0
9
$TEXTSTYLE
7
STANDARD
9
$INSUNITS
70
4
9
$MEASUREMENT
70
1
0
ENDSEC
0
SECTION
2
TABLES
0
TABLE
2
LTYPE
5
3E
330
0
100
AcDbSymbolTable
70
2
0
LTYPE
5
2
330
3E
100
AcDbSymbolTableRecord
100
AcDbLinetypeTableRecord
2
CONTINUOUS
70
0
3
Solid line
72
65
73
0
40
0
0
LTYPE
5
A
330
3E
100
AcDbSymbolTableRecord
100
AcDbLinetypeTableRecord
2
ROADSEC-SOLID
70
0
3

72
65
73
0
40
0
0
ENDTAB
0
TABLE
2
STYLE
5
3F
330
0
100
AcDbSymbolTable
70
1
0
STYLE
5
3
330
3F
100
AcDbSymbolTableRecord
100
AcDbTextStyleTableRecord
2
STANDARD
70
0
40
0
41
1
50
0
71
0
42
2.5
3
sans-serif
4

0
ENDTAB
0
TABLE
2
DIMSTYLE
5
40
330
0
100
AcDbSymbolTable
70
1
100
AcDbDimStyleTable
0
DIMSTYLE
105
4
330
40
100
AcDbSymbolTableRecord
100
AcDbDimStyleTableRecord
2
STANDARD
70
0
40
1
41
2.5
42
0.625
43
3.75
44
1.25
140
2.5
141
2.5
147
0.625
0
ENDTAB
0
TABLE
2
UCS
5
41
330
0
100
AcDbSymbolTable
70
0
0
ENDTAB
0
TABLE
2
VIEW
5
42
330
0
100
AcDbSymbolTable
70
0
0
ENDTAB
0
TABLE
2
LAYER
5
43
330
0
100
AcDbSymbolTable
70
6
0
LAYER
5
5
330
43
100
AcDbSymbolTableRecord
100
AcDbLayerTableRecord
2
0
70
0
62
7
6
CONTINUOUS
290
1
370
-1
0
LAYER
5
B
330
43
100
AcDbSymbolTableRecord
100
AcDbLayerTableRecord
2
ROADSEC-FRAME
70
0
62
8
6
ROADSEC-SOLID
290
1
370
-1
0
LAYER
5
C
330
43
100
AcDbSymbolTableRecord
100
AcDbLayerTableRecord
2
ROADSEC-STRUCTURE
70
0
62
9
6
ROADSEC-SOLID
290
1
370
-1
0
LAYER
5
D
330
43
100
AcDbSymbolTableRecord
100
AcDbLayerTableRecord
2
ROADSEC-CONTEXT
70
0
62
3
6
ROADSEC-SOLID
290
1
370
-1
0
LAYER
5
E
330
43
100
AcDbSymbolTableRecord
100
AcDbLayerTableRecord
2
ROADSEC-ANNO
70
0
62
9
6
ROADSEC-SOLID
290
1
370
-1
0
LAYER
5
F
330
43
100
AcDbSymbolTableRecord
100
AcDbLayerTableRecord
2
ROADSEC-MATERIAL
70
0
62
9
6
ROADSEC-SOLID
290
1
370
-1
0
ENDTAB
0
TABLE
2
BLOCK_RECORD
5
44
330
0
100
AcDbSymbolTable
70
2
0
BLOCK_RECORD
5
6
330
44
100
AcDbSymbolTableRecord
100
AcDbBlockTableRecord
2
*MODEL_SPACE
70
0
280
1
281
0
340
8
0
BLOCK_RECORD
5
7
330
44
100
AcDbSymbolTableRecord
100
AcDbBlockTableRecord
2
*PAPER_SPACE
70
0
280
1
281
0
340
9
0
ENDTAB
0
ENDSEC
0
SECTION
2
BLOCKS
0
BLOCK
5
46
330
6
100
AcDbEntity
8
0
100
AcDbBlockBegin
2
*MODEL_SPACE
70
0
10
0
20
0
30
0
3
*MODEL_SPACE
1

0
ENDBLK
5
47
330
6
100
AcDbEntity
8
0
100
AcDbBlockEnd
0
BLOCK
5
48
330
7
100
AcDbEntity
8
0
100
AcDbBlockBegin
2
*PAPER_SPACE
70
0
10
0
20
0
30
0
3
*PAPER_SPACE
1

0
ENDBLK
5
49
330
7
100
AcDbEntity
8
0
100
AcDbBlockEnd
0
ENDSEC
0
SECTION
2
ENTITIES
0
LWPOLYLINE
5
10
330
6
100
AcDbEntity
8
ROADSEC-FRAME
100
AcDbPolyline
90
4
70
1
38
0
10
0
20
0
10
277
20
0
10
277
20
190
10
0
20
190
0
LWPOLYLINE
5
11
330
6
100
AcDbEntity
8
ROADSEC-FRAME
100
AcDbPolyline
90
4
70
1
38
0
10
5
20
5
10
272
20
5
10
272
20
185
10
5
20
185
0
LINE
5
12
330
6
100
AcDbEntity
8
ROADSEC-FRAME
100
AcDbLine
10
5
20
25
30
0
11
272
21
25
31
0
0
LINE
5
13
330
6
100
AcDbEntity
8
ROADSEC-FRAME
100
AcDbLine
10
181
20
5
30
0
11
181
21
25
31
0
0
LINE
5
14
330
6
100
AcDbEntity
8
ROADSEC-FRAME
100
AcDbLine
10
241
20
5
30
0
11
241
21
25
31
0
0
TEXT
5
15
330
6
100
AcDbEntity
8
ROADSEC-ANNO
100
AcDbText
10
10
20
15
30
0
40
5.3
1
ROAD CROSS-SECTION
100
AcDbText
0
TEXT
5
16
330
6
100
AcDbEntity
8
ROADSEC-ANNO
100
AcDbText
10
10
20
8
30
0
40
2.5
1
Carriageway / verge / pavement layers
100
AcDbText
0
TEXT
5
17
330
6
100
AcDbEntity
8
ROADSEC-ANNO
100
AcDbText
10
185
20
16
30
0
40
2.5
1
KJDRAW / INFRASTRUCTURE
100
AcDbText
0
TEXT
5
18
330
6
100
AcDbEntity
8
ROADSEC-ANNO
100
AcDbText
10
185
20
9
30
0
40
2.4
1
Editable vector example
100
AcDbText
0
TEXT
5
19
330
6
100
AcDbEntity
8
ROADSEC-ANNO
100
AcDbText
10
245
20
16
30
0
40
2.6
1
A4 / NTS
100
AcDbText
0
TEXT
5
1A
330
6
100
AcDbEntity
8
ROADSEC-ANNO
100
AcDbText
10
245
20
9
30
0
40
2.5
1
REV A
100
AcDbText
0
TEXT
5
1B
330
6
100
AcDbEntity
8
ROADSEC-ANNO
100
AcDbText
10
18
20
170
30
0
40
4
1
TYPICAL SECTION  /  DIAGRAMMATIC
100
AcDbText
0
LWPOLYLINE
5
1C
330
6
100
AcDbEntity
8
ROADSEC-STRUCTURE
100
AcDbPolyline
90
14
70
1
38
0
10
24
20
122
10
45
20
122
10
62
20
116
10
138
20
113
10
213
20
116
10
232
20
122
10
253
20
122
10
253
20
117
10
232
20
117
10
213
20
111
10
138
20
108
10
62
20
111
10
45
20
117
10
24
20
117
0
LWPOLYLINE
5
1D
330
6
100
AcDbEntity
8
ROADSEC-STRUCTURE
100
AcDbPolyline
90
10
70
1
38
0
10
45
20
117
10
62
20
111
10
138
20
108
10
213
20
111
10
232
20
117
10
232
20
107
10
213
20
101
10
138
20
98
10
62
20
101
10
45
20
107
0
LWPOLYLINE
5
1E
330
6
100
AcDbEntity
8
ROADSEC-STRUCTURE
100
AcDbPolyline
90
10
70
1
38
0
10
45
20
107
10
62
20
101
10
138
20
98
10
213
20
101
10
232
20
107
10
232
20
94
10
213
20
88
10
138
20
85
10
62
20
88
10
45
20
94
0
LWPOLYLINE
5
1F
330
6
100
AcDbEntity
8
ROADSEC-STRUCTURE
100
AcDbPolyline
90
10
70
1
38
0
10
45
20
94
10
62
20
88
10
138
20
85
10
213
20
88
10
232
20
94
10
232
20
80
10
213
20
74
10
138
20
71
10
62
20
74
10
45
20
80
0
HATCH
5
20
330
6
100
AcDbEntity
8
ROADSEC-MATERIAL
100
AcDbHatch
10
0
20
0
30
0
2
ANSI31
70
0
71
0
91
1
92
3
72
0
73
1
93
10
10
46
20
95
10
62
20
89
10
138
20
86
10
213
20
89
10
231
20
95
10
231
20
105
10
213
20
100
10
138
20
97
10
62
20
100
10
46
20
105
97
0
75
0
76
1
52
0
41
4
77
0
78
1
53
45
43
0
44
0
45
-8.980256121069152
46
8.980256121069154
79
0
0
HATCH
5
21
330
6
100
AcDbEntity
8
ROADSEC-MATERIAL
100
AcDbHatch
10
0
20
0
30
0
2
CROSS
70
0
71
0
91
1
92
3
72
0
73
1
93
10
10
46
20
81
10
62
20
75
10
138
20
72
10
213
20
75
10
231
20
81
10
231
20
92
10
213
20
87
10
138
20
84
10
62
20
87
10
46
20
92
97
0
75
0
76
1
52
0
41
4
77
0
78
2
53
45
43
0
44
0
45
-8.980256121069152
46
8.980256121069154
79
0
53
135
43
0
44
0
45
-8.980256121069154
46
-8.980256121069152
79
0
0
LINE
5
22
330
6
100
AcDbEntity
8
ROADSEC-CONTEXT
100
AcDbLine
10
24
20
80
30
0
11
45
21
80
31
0
0
LINE
5
23
330
6
100
AcDbEntity
8
ROADSEC-CONTEXT
100
AcDbLine
10
232
20
80
30
0
11
253
21
80
31
0
0
LWPOLYLINE
5
24
330
6
100
AcDbEntity
8
ROADSEC-CONTEXT
100
AcDbPolyline
90
4
70
1
38
0
10
38
20
112
10
44
20
112
10
44
20
119
10
38
20
119
0
LWPOLYLINE
5
25
330
6
100
AcDbEntity
8
ROADSEC-CONTEXT
100
AcDbPolyline
90
4
70
1
38
0
10
233
20
112
10
239
20
112
10
239
20
119
10
233
20
119
0
LINE
5
26
330
6
100
AcDbEntity
8
ROADSEC-CONTEXT
100
AcDbLine
10
24
20
117
30
0
11
24
21
125
31
0
0
LINE
5
27
330
6
100
AcDbEntity
8
ROADSEC-CONTEXT
100
AcDbLine
10
253
20
117
30
0
11
253
21
125
31
0
0
LINE
5
28
330
6
100
AcDbEntity
8
ROADSEC-CONTEXT
100
AcDbLine
10
63
20
113
30
0
11
80
21
113
31
0
0
LINE
5
29
330
6
100
AcDbEntity
8
ROADSEC-CONTEXT
100
AcDbLine
10
196
20
113
30
0
11
212
21
113
31
0
0
LINE
5
2A
330
6
100
AcDbEntity
8
ROADSEC-CONTEXT
100
AcDbLine
10
100
20
111
30
0
11
109
21
111
31
0
0
LINE
5
2B
330
6
100
AcDbEntity
8
ROADSEC-CONTEXT
100
AcDbLine
10
168
20
111
30
0
11
177
21
111
31
0
0
LINE
5
2C
330
6
100
AcDbEntity
8
ROADSEC-ANNO
100
AcDbLine
10
34
20
124
30
0
11
34
21
132
31
0
0
LINE
5
2D
330
6
100
AcDbEntity
8
ROADSEC-ANNO
100
AcDbLine
10
243
20
124
30
0
11
243
21
132
31
0
0
LINE
5
2E
330
6
100
AcDbEntity
8
ROADSEC-CONTEXT
100
AcDbLine
10
138
20
65
30
0
11
138
21
151
31
0
0
LINE
5
2F
330
6
100
AcDbEntity
8
ROADSEC-ANNO
100
AcDbLine
10
62
20
121
30
0
11
62
21
131
31
0
0
LINE
5
30
330
6
100
AcDbEntity
8
ROADSEC-ANNO
100
AcDbLine
10
60
20
124
30
0
11
64
21
124
31
0
0
LINE
5
31
330
6
100
AcDbEntity
8
ROADSEC-ANNO
100
AcDbLine
10
213
20
121
30
0
11
213
21
131
31
0
0
LINE
5
32
330
6
100
AcDbEntity
8
ROADSEC-ANNO
100
AcDbLine
10
211
20
124
30
0
11
215
21
124
31
0
0
LINE
5
33
330
6
100
AcDbEntity
8
ROADSEC-ANNO
100
AcDbLine
10
62
20
135
30
0
11
213
21
135
31
0
0
TEXT
5
34
330
6
100
AcDbEntity
8
ROADSEC-ANNO
100
AcDbText
10
114
20
138
30
0
40
3
1
CARRIAGEWAY
100
AcDbText
0
LINE
5
35
330
6
100
AcDbEntity
8
ROADSEC-ANNO
100
AcDbLine
10
138
20
108
30
0
11
151
21
116
31
0
0
LINE
5
36
330
6
100
AcDbEntity
8
ROADSEC-ANNO
100
AcDbLine
10
138
20
108
30
0
11
125
21
116
31
0
0
TEXT
5
37
330
6
100
AcDbEntity
8
ROADSEC-ANNO
100
AcDbText
10
128
20
120
30
0
40
2.6
1
CROWN
100
AcDbText
0
LINE
5
38
330
6
100
AcDbEntity
8
ROADSEC-ANNO
100
AcDbLine
10
67
20
102
30
0
11
36
21
58
31
0
0
TEXT
5
39
330
6
100
AcDbEntity
8
ROADSEC-ANNO
100
AcDbText
10
18
20
53
30
0
40
2.7
1
SURFACE COURSE
100
AcDbText
0
LINE
5
3A
330
6
100
AcDbEntity
8
ROADSEC-ANNO
100
AcDbLine
10
185
20
94
30
0
11
211
21
56
31
0
0
TEXT
5
3B
330
6
100
AcDbEntity
8
ROADSEC-ANNO
100
AcDbText
10
211
20
51
30
0
40
2.7
1
BASE + SUBBASE
100
AcDbText
0
LWPOLYLINE
5
3C
330
6
100
AcDbEntity
8
ROADSEC-FRAME
100
AcDbPolyline
90
4
70
1
38
0
10
18
20
35
10
255
20
35
10
255
20
45
10
18
20
45
0
TEXT
5
3D
330
6
100
AcDbEntity
8
ROADSEC-ANNO
100
AcDbText
10
23
20
38
30
0
40
2.6
1
Layer geometry is illustrative; no design thickness or crossfall implied.
100
AcDbText
0
ENDSEC
0
SECTION
2
OBJECTS
0
DICTIONARY
5
4A
330
0
100
AcDbDictionary
281
1
3
ACAD_LAYOUT
350
4B
0
DICTIONARY
5
4B
330
4A
100
AcDbDictionary
280
1
281
1
3
Model
350
8
3
Layout1
350
9
0
LAYOUT
5
8
102
{ACAD_REACTORS
330
4B
102
}
330
4B
100
AcDbPlotSettings
44
297
45
210
48
-10
49
-10
140
287
141
200
142
1
143
1
70
0
72
1
74
4
100
AcDbLayout
1
Model
70
1
71
0
12
0
22
0
32
0
14
100000000000000000000
24
100000000000000000000
34
100000000000000000000
15
-100000000000000000000
25
-100000000000000000000
35
-100000000000000000000
13
0
23
0
33
0
16
1
26
0
36
0
17
0
27
1
37
0
330
6
0
LAYOUT
5
9
102
{ACAD_REACTORS
330
4B
102
}
330
4B
100
AcDbPlotSettings
100
AcDbLayout
1
Layout1
70
1
71
1
10
0
20
0
11
420
21
297
12
0
22
0
32
0
14
100000000000000000000
24
100000000000000000000
34
100000000000000000000
15
-100000000000000000000
25
-100000000000000000000
35
-100000000000000000000
13
0
23
0
33
0
16
1
26
0
36
0
17
0
27
1
37
0
330
7
0
ENDSEC
0
EOF
