0
SECTION
2
HEADER
9
$ACADVER
1
AC1032
9
$DWGCODEPAGE
3
UTF-8
9
$HANDSEED
5
12D
9
$LTSCALE
40
1
9
$PDMODE
70
0
9
$PDSIZE
40
0
9
$TEXTSTYLE
7
STANDARD
9
$INSUNITS
70
6
9
$MEASUREMENT
70
1
0
ENDSEC
0
SECTION
2
TABLES
0
TABLE
2
LTYPE
5
11F
330
0
100
AcDbSymbolTable
70
1
0
LTYPE
5
2
330
11F
100
AcDbSymbolTableRecord
100
AcDbLinetypeTableRecord
2
CONTINUOUS
70
0
3
Solid line
72
65
73
0
40
0
0
ENDTAB
0
TABLE
2
STYLE
5
120
330
0
100
AcDbSymbolTable
70
1
0
STYLE
5
3
330
120
100
AcDbSymbolTableRecord
100
AcDbTextStyleTableRecord
2
STANDARD
70
0
40
0
41
1
50
0
71
0
42
2.5
3
sans-serif
4

0
ENDTAB
0
TABLE
2
DIMSTYLE
5
121
330
0
100
AcDbSymbolTable
70
1
100
AcDbDimStyleTable
0
DIMSTYLE
105
4
330
121
100
AcDbSymbolTableRecord
100
AcDbDimStyleTableRecord
2
STANDARD
70
0
40
1
41
2.5
42
0.625
43
3.75
44
1.25
140
2.5
141
2.5
147
0.625
0
ENDTAB
0
TABLE
2
UCS
5
122
330
0
100
AcDbSymbolTable
70
0
0
ENDTAB
0
TABLE
2
VIEW
5
123
330
0
100
AcDbSymbolTable
70
0
0
ENDTAB
0
TABLE
2
LAYER
5
124
330
0
100
AcDbSymbolTable
70
11
0
LAYER
5
5
330
124
100
AcDbSymbolTableRecord
100
AcDbLayerTableRecord
2
0
70
0
62
7
6
CONTINUOUS
290
1
370
-1
0
LAYER
5
A
330
124
100
AcDbSymbolTableRecord
100
AcDbLayerTableRecord
2
FRAME
70
0
62
7
6
CONTINUOUS
290
1
370
-1
0
LAYER
5
B
330
124
100
AcDbSymbolTableRecord
100
AcDbLayerTableRecord
2
BOUNDARY
70
0
62
1
6
CONTINUOUS
290
1
370
-1
0
LAYER
5
C
330
124
100
AcDbSymbolTableRecord
100
AcDbLayerTableRecord
2
C-TOPO
70
0
62
8
6
CONTINUOUS
290
1
370
-1
0
LAYER
5
D
330
124
100
AcDbSymbolTableRecord
100
AcDbLayerTableRecord
2
C-ROAD
70
0
62
7
6
CONTINUOUS
290
1
370
-1
0
LAYER
5
E
330
124
100
AcDbSymbolTableRecord
100
AcDbLayerTableRecord
2
A-BUILD
70
0
62
4
6
CONTINUOUS
290
1
370
-1
0
LAYER
5
F
330
124
100
AcDbSymbolTableRecord
100
AcDbLayerTableRecord
2
C-UTIL
70
0
62
5
6
CONTINUOUS
290
1
370
-1
0
LAYER
5
10
330
124
100
AcDbSymbolTableRecord
100
AcDbLayerTableRecord
2
L-PLANT
70
0
62
3
6
CONTINUOUS
290
1
370
-1
0
LAYER
5
11
330
124
100
AcDbSymbolTableRecord
100
AcDbLayerTableRecord
2
DIMS
70
0
62
2
6
CONTINUOUS
290
1
370
-1
0
LAYER
5
12
330
124
100
AcDbSymbolTableRecord
100
AcDbLayerTableRecord
2
ANNO
70
0
62
7
6
CONTINUOUS
290
1
370
-1
0
LAYER
5
13
330
124
100
AcDbSymbolTableRecord
100
AcDbLayerTableRecord
2
TITLE
70
0
62
7
6
CONTINUOUS
290
1
370
-1
0
ENDTAB
0
TABLE
2
BLOCK_RECORD
5
125
330
0
100
AcDbSymbolTable
70
2
0
BLOCK_RECORD
5
6
330
125
100
AcDbSymbolTableRecord
100
AcDbBlockTableRecord
2
*MODEL_SPACE
70
0
280
1
281
0
340
8
0
BLOCK_RECORD
5
7
330
125
100
AcDbSymbolTableRecord
100
AcDbBlockTableRecord
2
*PAPER_SPACE
70
0
280
1
281
0
340
9
0
ENDTAB
0
ENDSEC
0
SECTION
2
BLOCKS
0
BLOCK
5
127
330
6
100
AcDbEntity
8
0
100
AcDbBlockBegin
2
*MODEL_SPACE
70
0
10
0
20
0
30
0
3
*MODEL_SPACE
1

0
ENDBLK
5
128
330
6
100
AcDbEntity
8
0
100
AcDbBlockEnd
0
BLOCK
5
129
330
7
100
AcDbEntity
8
0
100
AcDbBlockBegin
2
*PAPER_SPACE
70
0
10
0
20
0
30
0
3
*PAPER_SPACE
1

0
ENDBLK
5
12A
330
7
100
AcDbEntity
8
0
100
AcDbBlockEnd
0
ENDSEC
0
SECTION
2
ENTITIES
0
LWPOLYLINE
5
14
330
6
100
AcDbEntity
8
FRAME
100
AcDbPolyline
90
4
70
1
38
0
10
-8
20
-12
10
248
20
-12
10
248
20
152
10
-8
20
152
0
LWPOLYLINE
5
15
330
6
100
AcDbEntity
8
FRAME
100
AcDbPolyline
90
4
70
1
38
0
10
-5
20
-9
10
245
20
-9
10
245
20
149
10
-5
20
149
0
LWPOLYLINE
5
16
330
6
100
AcDbEntity
8
FRAME
100
AcDbPolyline
90
4
70
1
38
0
10
136
20
-9
10
245
20
-9
10
245
20
9
10
136
20
9
0
LINE
5
17
330
6
100
AcDbEntity
8
FRAME
100
AcDbLine
10
194
20
-9
30
0
11
194
21
9
31
0
0
LINE
5
18
330
6
100
AcDbEntity
8
FRAME
100
AcDbLine
10
218
20
-9
30
0
11
218
21
9
31
0
0
LINE
5
19
330
6
100
AcDbEntity
8
FRAME
100
AcDbLine
10
194
20
0
30
0
11
245
21
0
31
0
0
TEXT
5
1A
330
6
100
AcDbEntity
8
TITLE
100
AcDbText
10
139
20
2
30
0
40
2.25
1
RIVERSIDE RESEARCH PARK
7
STANDARD
100
AcDbText
0
TEXT
5
1B
330
6
100
AcDbEntity
8
TITLE
100
AcDbText
10
139
20
-4
30
0
40
1.35
1
SITE DEVELOPMENT PLAN
7
STANDARD
100
AcDbText
0
TEXT
5
1C
330
6
100
AcDbEntity
8
TITLE
100
AcDbText
10
197
20
3.5
30
0
40
1.15
1
SCALE  1:500
7
STANDARD
100
AcDbText
0
TEXT
5
1D
330
6
100
AcDbEntity
8
TITLE
100
AcDbText
10
197
20
-4.5
30
0
40
1.15
1
REV  A
7
STANDARD
100
AcDbText
0
TEXT
5
1E
330
6
100
AcDbEntity
8
TITLE
100
AcDbText
10
221
20
3.5
30
0
40
1.2
1
C-101
7
STANDARD
100
AcDbText
0
TEXT
5
1F
330
6
100
AcDbEntity
8
TITLE
100
AcDbText
10
221
20
-4.5
30
0
40
0.95
1
SYNTHETIC
7
STANDARD
100
AcDbText
0
LWPOLYLINE
5
20
330
6
100
AcDbEntity
8
BOUNDARY
100
AcDbPolyline
90
5
70
1
38
0
10
4
20
18
10
24
20
139
10
225
20
143
10
238
20
31
10
213
20
19
0
LWPOLYLINE
5
21
330
6
100
AcDbEntity
8
C-TOPO
100
AcDbPolyline
90
21
70
0
38
0
10
8
20
25
10
19
20
26.06209210374541
10
30
20
26.884140607092295
10
41
20
27.28035420084088
10
52
20
27.161184589476246
10
63
20
26.553565315267647
10
74
20
25.594824504220554
10
85
20
24.501647315109025
10
96
20
23.52110289327601
10
107
20
22.87480423493667
10
118
20
22.708821399677568
10
129
20
23.06066819373024
10
140
20
23.850823668831126
10
151
20
24.900704664019923
10
162
20
25.97302741342889
10
173
20
26.825436086853053
10
184
20
27.26527766836459
10
195
20
27.19314349419632
10
206
20
26.62533662019252
10
217
20
25.690187165639696
10
228
20
24.599048403187147
0
TEXT
5
22
330
6
100
AcDbEntity
8
C-TOPO
100
AcDbText
10
13
20
27.8
30
0
40
1.1
1
108.00
7
STANDARD
100
AcDbText
0
LWPOLYLINE
5
23
330
6
100
AcDbEntity
8
C-TOPO
100
AcDbPolyline
90
21
70
0
38
0
10
8
20
32.05311707964986
10
19
20
32.943037894659135
10
30
20
33.43901444589923
10
41
20
33.42895099642505
10
52
20
32.915121988006455
10
63
20
32.01365799419263
10
74
20
30.92829903144882
10
85
20
29.90434724656915
10
96
20
29.173226140594853
10
107
20
28.900176507602566
10
118
20
29.14691033731506
10
129
20
29.85766327877308
10
140
20
30.871797949908004
10
151
20
31.960109617072213
10
162
20
32.876628792289516
10
173
20
33.41421283522051
10
184
20
33.451362293297116
10
195
20
32.979681011762025
10
206
20
32.10577374990212
10
217
20
31.02715242293784
10
228
20
29.9875964035602
0
LWPOLYLINE
5
24
330
6
100
AcDbEntity
8
C-TOPO
100
AcDbPolyline
90
21
70
0
38
0
10
8
20
38.98451932375426
10
19
20
39.57530319873394
10
30
20
39.67444646181081
10
41
20
39.25954172878505
10
52
20
38.4243616824463
10
63
20
37.357665494053975
10
74
20
36.30053733388871
10
85
20
35.49189890069385
10
96
20
35.114510691643034
10
107
20
35.253666274148216
10
118
20
35.877915073516014
10
129
20
36.84617052219143
10
140
20
37.93959705668058
10
151
20
38.911069177053214
10
162
20
39.54102431934836
10
173
20
39.68708622456472
10
184
20
39.31624341894634
10
195
20
38.51231014226452
10
206
20
37.456983478542725
10
217
20
36.38877797003488
10
228
20
35.54911890869403
0
LWPOLYLINE
5
25
330
6
100
AcDbEntity
8
C-TOPO
100
AcDbPolyline
90
21
70
0
38
0
10
8
20
45.68985704106653
10
19
20
45.89721640998221
10
30
20
45.585381543292414
10
41
20
44.82483028737793
10
52
20
43.78745494904862
10
63
20
42.70771288873402
10
74
20
41.829636776242744
10
85
20
41.35168072937028
10
96
20
41.38186766808648
10
107
20
41.91337503770999
10
118
20
42.82607677554544
10
129
20
43.91369302086568
10
140
20
44.93041145809286
10
151
20
45.64644339620583
10
162
20
45.89995834628667
10
173
20
45.6336593553144
10
184
20
44.907732699366264
10
195
20
43.88624517406625
10
206
20
42.8000633327674
10
217
20
41.894675301173166
10
228
20
41.37470796813356
0
LWPOLYLINE
5
26
330
6
100
AcDbEntity
8
C-TOPO
100
AcDbPolyline
90
21
70
0
38
0
10
8
20
52.09703333114384
10
19
20
51.891384081699066
10
30
20
51.21306079295314
10
41
20
50.215371416156735
10
52
20
49.12380388144419
10
63
20
48.18506353591914
10
74
20
47.61131523005411
10
85
20
47.53223190706816
10
96
20
47.96568720100308
10
107
20
48.813715813933186
10
118
20
49.8846546680794
10
129
20
50.93646070761879
10
140
20
51.73141508711265
10
151
20
52.089850044477664
10
162
20
51.93075563964256
10
173
20
51.29008882361489
10
184
20
50.312646802430564
10
195
20
49.219341398255004
10
206
20
48.257270734337574
10
217
20
47.643872550013825
10
228
20
47.517781063656855
0
TEXT
5
27
330
6
100
AcDbEntity
8
C-TOPO
100
AcDbText
10
13
20
52.599999999999994
30
0
40
1.1
1
112.00
7
STANDARD
100
AcDbText
0
LWPOLYLINE
5
28
330
6
100
AcDbEntity
8
C-TOPO
100
AcDbPolyline
90
21
70
0
38
0
10
8
20
58.176490201681055
10
19
20
57.58717246218095
10
30
20
56.63913762937815
10
41
20
55.54665120225026
10
52
20
54.55662620691763
10
63
20
53.89281834547626
10
74
20
53.70525493520994
10
85
20
54.03632721144055
10
96
20
54.81120947788592
10
107
20
55.854770473832794
10
118
20
56.931154817418175
10
129
20
57.79708871691
10
140
20
58.256862317948034
10
151
20
58.20656211795359
10
162
20
57.65755647289584
10
173
20
56.73392623340351
10
184
20
55.64442121255103
10
195
20
54.635280608365996
10
206
20
53.93458044465337
10
217
20
53.700686073631
10
228
20
53.98645999821662
0
LWPOLYLINE
5
29
330
6
100
AcDbEntity
8
C-TOPO
100
AcDbPolyline
90
21
70
0
38
0
10
8
20
63.945425628816125
10
19
20
63.05651779067763
10
30
20
61.97402823438625
10
41
20
60.942610591740646
10
52
20
60.19537572344875
10
63
20
59.90120629749725
10
74
20
60.126587591277385
10
85
20
60.8205811437737
10
96
20
61.826337365005145
10
107
20
62.91654513608077
10
118
20
63.844806430286525
10
129
20
64.40132476915696
10
140
20
64.46032135697449
10
151
20
64.00846236581494
10
162
20
63.14787251605604
10
173
20
62.07305385255253
10
184
20
61.02692630743937
10
195
20
60.24592532875302
10
206
20
59.906565068305284
10
217
20
60.08554439097125
10
228
20
60.74241215239335
0
LWPOLYLINE
5
2A
330
6
100
AcDbEntity
8
C-TOPO
100
AcDbPolyline
90
21
70
0
38
0
10
8
20
69.4653399093398
10
19
20
68.40366310170792
10
30
20
67.34115839589332
10
41
20
66.51796264455186
10
52
20
66.12012644657979
10
63
20
66.23756482252315
10
74
20
66.84373550689766
10
85
20
67.80163776970993
10
96
20
68.89477597260198
10
107
20
69.87608978151235
10
118
20
70.5237923109337
10
129
20
70.6914962121594
10
140
20
70.34129870057299
10
151
20
69.55234796985314
10
162
20
68.50295489649652
10
173
20
67.43029297108221
10
184
20
66.57679468103655
10
195
20
66.13535930670827
10
206
20
66.2057557252252
10
217
20
66.77207363116621
10
228
20
67.70631942714664
0
LWPOLYLINE
5
2B
330
6
100
AcDbEntity
8
C-TOPO
100
AcDbPolyline
90
21
70
0
38
0
10
8
20
74.83326136852818
10
19
20
73.7502857953477
10
30
20
72.85935426079176
10
41
20
72.36182633858209
10
52
20
72.37014839125624
10
63
20
72.88243955040403
10
74
20
73.7829168120275
10
85
20
74.86806317115612
10
96
20
75.8926245315717
10
107
20
76.62503962197198
10
118
20
76.89977519466034
10
129
20
76.65473822042294
10
140
20
75.94530954365105
10
151
20
74.93182724914705
10
162
20
73.84334862681544
10
173
20
72.9258808981956
10
184
20
72.38678108632793
10
195
20
72.34789122295196
10
206
20
72.81800081209553
10
217
20
73.69086031291191
10
228
20
74.76919461481589
0
TEXT
5
2C
330
6
100
AcDbEntity
8
C-TOPO
100
AcDbText
10
13
20
77.39999999999999
30
0
40
1.1
1
116.00
7
STANDARD
100
AcDbText
0
LWPOLYLINE
5
2D
330
6
100
AcDbEntity
8
C-TOPO
100
AcDbPolyline
90
21
70
0
38
0
10
8
20
80.16790325825683
10
19
20
79.21813783387687
10
30
20
78.62588932196746
10
41
20
78.52501190017296
10
52
20
78.93830489017279
10
63
20
79.77235987946752
10
74
20
80.83867197111401
10
85
20
81.89624380459648
10
96
20
82.70605340649664
10
107
20
83.08507558362086
10
118
20
82.94764747518062
10
129
20
82.32482922918904
10
140
20
81.35738409361164
10
151
20
80.26396449295387
10
162
20
79.29169436002971
10
173
20
78.66031661774011
10
184
20
78.51252904713084
10
195
20
78.88173313985982
10
206
20
79.68448502190896
10
217
20
80.73935461643819
10
228
20
81.80793068347239
0
LWPOLYLINE
5
2E
330
6
100
AcDbEntity
8
C-TOPO
100
AcDbPolyline
90
21
70
0
38
0
10
8
20
85.59272685083175
10
19
20
84.91167530058227
10
30
20
84.70260633817205
10
41
20
85.01277167208433
10
52
20
85.77207078729921
10
63
20
86.80889437351976
10
74
20
87.88890977189573
10
85
20
88.76802253544103
10
96
20
89.24754425269539
10
107
20
89.21909814628411
10
118
20
88.68911332511045
10
129
20
87.77737174045951
10
140
20
86.68993624868891
10
151
20
85.67257831323882
10
162
20
84.95523115822252
10
173
20
84.70002252493339
10
184
20
84.96463215599586
10
195
20
85.68925558782685
10
206
20
86.71012056668633
10
217
20
87.79650124103841
10
228
20
88.70286454689062
0
LWPOLYLINE
5
2F
330
6
100
AcDbEntity
8
C-TOPO
100
AcDbPolyline
90
21
70
0
38
0
10
8
20
91.2183271292853
10
19
20
90.90315557422275
10
30
20
91.10709418255807
10
41
20
91.7840507579248
10
52
20
92.78102624017419
10
63
20
93.8726940465887
10
74
20
94.81232616764188
10
85
20
95.38755620253636
10
96
20
95.46837632224627
10
107
20
95.03652035903403
10
118
20
94.18959214584167
10
129
20
93.1190060589336
10
140
20
92.06672542515479
10
151
20
91.27057635306127
10
162
20
90.91049661739534
10
173
20
91.06786789482605
10
184
20
91.70712267863668
10
195
20
92.68378289641073
10
206
20
93.77711342149232
10
217
20
94.74001045305218
10
228
20
95.35484948427631
0
LWPOLYLINE
5
30
330
6
100
AcDbEntity
8
C-TOPO
100
AcDbPolyline
90
21
70
0
38
0
10
8
20
97.12665412054001
10
19
20
97.22232831613701
10
30
20
97.81017842532661
10
41
20
98.75734435414248
10
52
20
99.84975698473126
10
63
20
100.84051996973982
10
74
20
101.5057108139115
10
85
20
101.69498963182208
10
96
20
101.36557748860305
10
107
20
100.59192487361825
10
118
20
99.5488851338644
10
129
20
98.47219584201184
10
140
20
97.60519971119757
10
151
20
97.14384667084707
10
162
20
97.19240719286198
10
173
20
97.73990610616194
10
184
20
98.66260309679552
10
195
20
99.75195927540699
10
206
20
100.76176908382662
10
217
20
101.46380525129703
10
228
20
101.69940047518477
0
TEXT
5
31
330
6
100
AcDbEntity
8
C-TOPO
100
AcDbText
10
13
20
102.2
30
0
40
1.1
1
120.00
7
STANDARD
100
AcDbText
0
LWPOLYLINE
5
32
330
6
100
AcDbEntity
8
C-TOPO
100
AcDbPolyline
90
21
70
0
38
0
10
8
20
103.35932102533855
10
19
20
103.85219106437742
10
30
20
104.74008367089047
10
41
20
105.82232609975227
10
52
20
106.8543205724727
10
63
20
107.60282585888952
10
74
20
107.89867216361942
10
85
20
107.67499521763948
10
96
20
106.98234828205561
10
107
20
105.9772765977525
10
118
20
104.88693657132423
10
129
20
103.9577561205375
10
140
20
103.39973946257858
10
151
20
103.33900402849366
10
162
20
103.78927664312036
10
173
20
104.64879112328613
10
184
20
105.72328846858407
10
195
20
106.76992136805647
10
206
20
107.5521401584501
10
217
20
107.89315545014111
10
228
20
107.71589432438752
0
LWPOLYLINE
5
33
330
6
100
AcDbEntity
8
C-TOPO
100
AcDbPolyline
90
21
70
0
38
0
10
8
20
109.91166723256413
10
19
20
110.73141498734836
10
30
20
111.79267380587578
10
41
20
112.85558841866869
10
52
20
113.6799293299317
10
63
20
114.07938712299786
10
74
20
113.96368028036348
10
85
20
113.35895972340225
10
96
20
112.40189843858693
10
107
20
111.3088019947085
10
118
20
110.32672128786733
10
129
20
109.67761653029054
10
140
20
109.50819198848673
10
151
20
109.85673932931513
10
162
20
110.64448331444498
10
173
20
111.69338580413678
10
184
20
112.76638418470127
10
195
20
113.62096992643167
10
206
20
114.06399797385603
10
217
20
113.99533948955411
10
228
20
113.4305119881667
0
LWPOLYLINE
5
34
330
6
100
AcDbEntity
8
C-TOPO
100
AcDbPolyline
90
21
70
0
38
0
10
8
20
116.73342325202543
10
19
20
117.76309471290928
10
30
20
118.84630917431649
10
41
20
119.73824916853123
10
52
20
120.23732719970853
10
63
20
120.2307465649437
10
74
20
119.71999455451625
10
85
20
118.82050630918415
10
96
20
117.73557530619318
10
107
20
116.71040696908763
10
118
20
115.97669975206516
10
129
20
115.70027893655984
10
140
20
115.94361843377484
10
151
20
116.65172104636291
10
162
20
117.66454839349262
10
173
20
118.7531912100167
10
184
20
119.67160516484097
10
195
20
120.21221937819445
10
206
20
120.25284954822386
10
217
20
119.78431284392589
10
228
20
118.91250331820041
0
LWPOLYLINE
5
35
330
6
100
AcDbEntity
8
C-TOPO
100
AcDbPolyline
90
21
70
0
38
0
10
8
20
123.73588269926091
10
19
20
124.82857388844714
10
30
20
125.77920099602757
10
41
20
126.37291264260176
10
52
20
126.47552396723378
10
63
20
126.06384376859612
10
74
20
125.23091595196335
10
85
20
124.16499066181122
10
96
20
123.10697783759001
10
107
20
122.295999121103
10
118
20
121.91534393731213
10
129
20
122.05104422309489
10
140
20
122.67243033590378
10
151
20
123.63906270441511
10
162
20
124.73247259773355
10
173
20
125.70553827700238
10
184
20
126.33833701776842
10
195
20
126.4878498789008
10
206
20
126.120285435564
10
217
20
125.31871698436375
10
228
20
124.26430713475118
0
TEXT
5
36
330
6
100
AcDbEntity
8
C-TOPO
100
AcDbText
10
13
20
127
30
0
40
1.1
1
124.00
7
STANDARD
100
AcDbText
0
LWPOLYLINE
5
37
330
6
100
AcDbEntity
8
C-ROAD
100
AcDbPolyline
90
6
70
0
38
0
10
16
20
33
10
48
20
37
10
84
20
39
10
121
20
44
10
161
20
54
10
220
20
55
0
LWPOLYLINE
5
38
330
6
100
AcDbEntity
8
C-ROAD
100
AcDbPolyline
90
6
70
0
38
0
10
15
20
41
10
47
20
45
10
83
20
47
10
119
20
52
10
160
20
62
10
219
20
63
0
LINE
5
39
330
6
100
AcDbEntity
8
C-ROAD
100
AcDbLine
10
20
20
38
30
0
11
24
21
42
31
0
0
LINE
5
3A
330
6
100
AcDbEntity
8
C-ROAD
100
AcDbLine
10
29
20
38.39733866159012
30
0
11
33
21
42.39733866159012
31
0
0
LINE
5
3B
330
6
100
AcDbEntity
8
C-ROAD
100
AcDbLine
10
38
20
38.7788366846173
30
0
11
42
21
42.7788366846173
31
0
0
LINE
5
3C
330
6
100
AcDbEntity
8
C-ROAD
100
AcDbLine
10
47
20
39.12928494679007
30
0
11
51
21
43.12928494679007
31
0
0
LINE
5
3D
330
6
100
AcDbEntity
8
C-ROAD
100
AcDbLine
10
56
20
39.43471218179904
30
0
11
60
21
43.43471218179904
31
0
0
LINE
5
3E
330
6
100
AcDbEntity
8
C-ROAD
100
AcDbLine
10
65
20
39.68294196961579
30
0
11
69
21
43.68294196961579
31
0
0
LINE
5
3F
330
6
100
AcDbEntity
8
C-ROAD
100
AcDbLine
10
74
20
39.86407817193445
30
0
11
78
21
43.86407817193445
31
0
0
LINE
5
40
330
6
100
AcDbEntity
8
C-ROAD
100
AcDbLine
10
83
20
39.97089945997692
30
0
11
87
21
43.97089945997692
31
0
0
LINE
5
41
330
6
100
AcDbEntity
8
C-ROAD
100
AcDbLine
10
92
20
39.99914720608301
30
0
11
96
21
43.99914720608301
31
0
0
LINE
5
42
330
6
100
AcDbEntity
8
C-ROAD
100
AcDbLine
10
101
20
39.947695261756394
30
0
11
105
21
43.947695261756394
31
0
0
LINE
5
43
330
6
100
AcDbEntity
8
C-ROAD
100
AcDbLine
10
110
20
39.81859485365136
30
0
11
114
21
43.81859485365136
31
0
0
LINE
5
44
330
6
100
AcDbEntity
8
C-ROAD
100
AcDbLine
10
119
20
39.61699280763918
30
0
11
123
21
43.61699280763918
31
0
0
LINE
5
45
330
6
100
AcDbEntity
8
C-ROAD
100
AcDbLine
10
128
20
39.3509263611023
30
0
11
132
21
43.3509263611023
31
0
0
LINE
5
46
330
6
100
AcDbEntity
8
C-ROAD
100
AcDbLine
10
137
20
39.03100274364293
30
0
11
141
21
43.03100274364293
31
0
0
LINE
5
47
330
6
100
AcDbEntity
8
C-ROAD
100
AcDbLine
10
146
20
38.66997630031181
30
0
11
150
21
42.66997630031181
31
0
0
LINE
5
48
330
6
100
AcDbEntity
8
C-ROAD
100
AcDbLine
10
155
20
38.28224001611974
30
0
11
159
21
42.28224001611974
31
0
0
LINE
5
49
330
6
100
AcDbEntity
8
C-ROAD
100
AcDbLine
10
164
20
37.88325171314484
30
0
11
168
21
41.88325171314484
31
0
0
LINE
5
4A
330
6
100
AcDbEntity
8
C-ROAD
100
AcDbLine
10
173
20
37.488917795946335
30
0
11
177
21
41.488917795946335
31
0
0
LINE
5
4B
330
6
100
AcDbEntity
8
C-ROAD
100
AcDbLine
10
182
20
37.11495911341029
30
0
11
186
21
41.11495911341029
31
0
0
LINE
5
4C
330
6
100
AcDbEntity
8
C-ROAD
100
AcDbLine
10
191
20
36.77628421811456
30
0
11
195
21
40.77628421811456
31
0
0
LINE
5
4D
330
6
100
AcDbEntity
8
C-ROAD
100
AcDbLine
10
200
20
36.48639500938415
30
0
11
204
21
40.48639500938415
31
0
0
LINE
5
4E
330
6
100
AcDbEntity
8
C-ROAD
100
AcDbLine
10
209
20
36.25684845517282
30
0
11
213
21
40.25684845517282
31
0
0
LWPOLYLINE
5
4F
330
6
100
AcDbEntity
8
A-BUILD
100
AcDbPolyline
90
4
70
1
38
0
10
38
20
68
10
96
20
68
10
96
20
103
10
38
20
103
0
LWPOLYLINE
5
50
330
6
100
AcDbEntity
8
A-BUILD
100
AcDbPolyline
90
4
70
1
38
0
10
40
20
70
10
94
20
70
10
94
20
101
10
40
20
101
0
TEXT
5
51
330
6
100
AcDbEntity
8
ANNO
100
AcDbText
10
52
20
86
30
0
40
3
1
LAB 01
7
STANDARD
100
AcDbText
0
LWPOLYLINE
5
52
330
6
100
AcDbEntity
8
A-BUILD
100
AcDbPolyline
90
4
70
1
38
0
10
113
20
72
10
185
20
72
10
185
20
115
10
113
20
115
0
LWPOLYLINE
5
53
330
6
100
AcDbEntity
8
A-BUILD
100
AcDbPolyline
90
4
70
1
38
0
10
115
20
74
10
183
20
74
10
183
20
113
10
115
20
113
0
TEXT
5
54
330
6
100
AcDbEntity
8
ANNO
100
AcDbText
10
133
20
94
30
0
40
3
1
LAB 02
7
STANDARD
100
AcDbText
0
LWPOLYLINE
5
55
330
6
100
AcDbEntity
8
A-BUILD
100
AcDbPolyline
90
4
70
1
38
0
10
193
20
75
10
220
20
75
10
220
20
100
10
193
20
100
0
TEXT
5
56
330
6
100
AcDbEntity
8
ANNO
100
AcDbText
10
198
20
87
30
0
40
1.8
1
UTILITY
7
STANDARD
100
AcDbText
0
CIRCLE
5
57
330
6
100
AcDbEntity
8
BOUNDARY
100
AcDbCircle
10
14
20
22
30
0
40
1.2
210
0
220
0
230
1
0
LINE
5
58
330
6
100
AcDbEntity
8
BOUNDARY
100
AcDbLine
10
12
20
22
30
0
11
16
21
22
31
0
0
LINE
5
59
330
6
100
AcDbEntity
8
BOUNDARY
100
AcDbLine
10
14
20
20
30
0
11
14
21
24
31
0
0
TEXT
5
5A
330
6
100
AcDbEntity
8
ANNO
100
AcDbText
10
16.5
20
23
30
0
40
1.2
1
CP-01
7
STANDARD
100
AcDbText
0
CIRCLE
5
5B
330
6
100
AcDbEntity
8
BOUNDARY
100
AcDbCircle
10
227
20
27
30
0
40
1.2
210
0
220
0
230
1
0
LINE
5
5C
330
6
100
AcDbEntity
8
BOUNDARY
100
AcDbLine
10
225
20
27
30
0
11
229
21
27
31
0
0
LINE
5
5D
330
6
100
AcDbEntity
8
BOUNDARY
100
AcDbLine
10
227
20
25
30
0
11
227
21
29
31
0
0
TEXT
5
5E
330
6
100
AcDbEntity
8
ANNO
100
AcDbText
10
229.5
20
28
30
0
40
1.2
1
CP-02
7
STANDARD
100
AcDbText
0
CIRCLE
5
5F
330
6
100
AcDbEntity
8
BOUNDARY
100
AcDbCircle
10
219
20
136
30
0
40
1.2
210
0
220
0
230
1
0
LINE
5
60
330
6
100
AcDbEntity
8
BOUNDARY
100
AcDbLine
10
217
20
136
30
0
11
221
21
136
31
0
0
LINE
5
61
330
6
100
AcDbEntity
8
BOUNDARY
100
AcDbLine
10
219
20
134
30
0
11
219
21
138
31
0
0
TEXT
5
62
330
6
100
AcDbEntity
8
ANNO
100
AcDbText
10
221.5
20
137
30
0
40
1.2
1
CP-03
7
STANDARD
100
AcDbText
0
CIRCLE
5
63
330
6
100
AcDbEntity
8
BOUNDARY
100
AcDbCircle
10
27
20
132
30
0
40
1.2
210
0
220
0
230
1
0
LINE
5
64
330
6
100
AcDbEntity
8
BOUNDARY
100
AcDbLine
10
25
20
132
30
0
11
29
21
132
31
0
0
LINE
5
65
330
6
100
AcDbEntity
8
BOUNDARY
100
AcDbLine
10
27
20
130
30
0
11
27
21
134
31
0
0
TEXT
5
66
330
6
100
AcDbEntity
8
ANNO
100
AcDbText
10
29.5
20
133
30
0
40
1.2
1
CP-04
7
STANDARD
100
AcDbText
0
LWPOLYLINE
5
67
330
6
100
AcDbEntity
8
C-UTIL
100
AcDbPolyline
90
6
70
0
38
0
10
10
20
58
10
42
20
59
10
99
20
63
10
148
20
68
10
207
20
69
10
230
20
74
0
LWPOLYLINE
5
68
330
6
100
AcDbEntity
8
C-UTIL
100
AcDbPolyline
90
6
70
0
38
0
10
13
20
55
10
43
20
56
10
100
20
60
10
149
20
65
10
209
20
66
10
231
20
71
0
TEXT
5
69
330
6
100
AcDbEntity
8
C-UTIL
100
AcDbText
10
18
20
61
30
0
40
1.25
1
DN200 WATER
7
STANDARD
100
AcDbText
0
CIRCLE
5
6A
330
6
100
AcDbEntity
8
L-PLANT
100
AcDbCircle
10
20
20
119
30
0
40
1.5
210
0
220
0
230
1
0
CIRCLE
5
6B
330
6
100
AcDbEntity
8
L-PLANT
100
AcDbCircle
10
20
20
119
30
0
40
0.45
210
0
220
0
230
1
0
LINE
5
6C
330
6
100
AcDbEntity
8
L-PLANT
100
AcDbLine
10
19
20
119
30
0
11
21
21
119
31
0
0
LINE
5
6D
330
6
100
AcDbEntity
8
L-PLANT
100
AcDbLine
10
20
20
118
30
0
11
20
21
120
31
0
0
CIRCLE
5
6E
330
6
100
AcDbEntity
8
L-PLANT
100
AcDbCircle
10
31
20
119
30
0
40
1.5
210
0
220
0
230
1
0
CIRCLE
5
6F
330
6
100
AcDbEntity
8
L-PLANT
100
AcDbCircle
10
31
20
119
30
0
40
0.45
210
0
220
0
230
1
0
LINE
5
70
330
6
100
AcDbEntity
8
L-PLANT
100
AcDbLine
10
30
20
119
30
0
11
32
21
119
31
0
0
LINE
5
71
330
6
100
AcDbEntity
8
L-PLANT
100
AcDbLine
10
31
20
118
30
0
11
31
21
120
31
0
0
CIRCLE
5
72
330
6
100
AcDbEntity
8
L-PLANT
100
AcDbCircle
10
42
20
119
30
0
40
1.5
210
0
220
0
230
1
0
CIRCLE
5
73
330
6
100
AcDbEntity
8
L-PLANT
100
AcDbCircle
10
42
20
119
30
0
40
0.45
210
0
220
0
230
1
0
LINE
5
74
330
6
100
AcDbEntity
8
L-PLANT
100
AcDbLine
10
41
20
119
30
0
11
43
21
119
31
0
0
LINE
5
75
330
6
100
AcDbEntity
8
L-PLANT
100
AcDbLine
10
42
20
118
30
0
11
42
21
120
31
0
0
CIRCLE
5
76
330
6
100
AcDbEntity
8
L-PLANT
100
AcDbCircle
10
53
20
119
30
0
40
1.5
210
0
220
0
230
1
0
CIRCLE
5
77
330
6
100
AcDbEntity
8
L-PLANT
100
AcDbCircle
10
53
20
119
30
0
40
0.45
210
0
220
0
230
1
0
LINE
5
78
330
6
100
AcDbEntity
8
L-PLANT
100
AcDbLine
10
52
20
119
30
0
11
54
21
119
31
0
0
LINE
5
79
330
6
100
AcDbEntity
8
L-PLANT
100
AcDbLine
10
53
20
118
30
0
11
53
21
120
31
0
0
CIRCLE
5
7A
330
6
100
AcDbEntity
8
L-PLANT
100
AcDbCircle
10
64
20
119
30
0
40
1.5
210
0
220
0
230
1
0
CIRCLE
5
7B
330
6
100
AcDbEntity
8
L-PLANT
100
AcDbCircle
10
64
20
119
30
0
40
0.45
210
0
220
0
230
1
0
LINE
5
7C
330
6
100
AcDbEntity
8
L-PLANT
100
AcDbLine
10
63
20
119
30
0
11
65
21
119
31
0
0
LINE
5
7D
330
6
100
AcDbEntity
8
L-PLANT
100
AcDbLine
10
64
20
118
30
0
11
64
21
120
31
0
0
CIRCLE
5
7E
330
6
100
AcDbEntity
8
L-PLANT
100
AcDbCircle
10
75
20
119
30
0
40
1.5
210
0
220
0
230
1
0
CIRCLE
5
7F
330
6
100
AcDbEntity
8
L-PLANT
100
AcDbCircle
10
75
20
119
30
0
40
0.45
210
0
220
0
230
1
0
LINE
5
80
330
6
100
AcDbEntity
8
L-PLANT
100
AcDbLine
10
74
20
119
30
0
11
76
21
119
31
0
0
LINE
5
81
330
6
100
AcDbEntity
8
L-PLANT
100
AcDbLine
10
75
20
118
30
0
11
75
21
120
31
0
0
CIRCLE
5
82
330
6
100
AcDbEntity
8
L-PLANT
100
AcDbCircle
10
86
20
119
30
0
40
1.5
210
0
220
0
230
1
0
CIRCLE
5
83
330
6
100
AcDbEntity
8
L-PLANT
100
AcDbCircle
10
86
20
119
30
0
40
0.45
210
0
220
0
230
1
0
LINE
5
84
330
6
100
AcDbEntity
8
L-PLANT
100
AcDbLine
10
85
20
119
30
0
11
87
21
119
31
0
0
LINE
5
85
330
6
100
AcDbEntity
8
L-PLANT
100
AcDbLine
10
86
20
118
30
0
11
86
21
120
31
0
0
CIRCLE
5
86
330
6
100
AcDbEntity
8
L-PLANT
100
AcDbCircle
10
97
20
119
30
0
40
1.5
210
0
220
0
230
1
0
CIRCLE
5
87
330
6
100
AcDbEntity
8
L-PLANT
100
AcDbCircle
10
97
20
119
30
0
40
0.45
210
0
220
0
230
1
0
LINE
5
88
330
6
100
AcDbEntity
8
L-PLANT
100
AcDbLine
10
96
20
119
30
0
11
98
21
119
31
0
0
LINE
5
89
330
6
100
AcDbEntity
8
L-PLANT
100
AcDbLine
10
97
20
118
30
0
11
97
21
120
31
0
0
CIRCLE
5
8A
330
6
100
AcDbEntity
8
L-PLANT
100
AcDbCircle
10
108
20
119
30
0
40
1.5
210
0
220
0
230
1
0
CIRCLE
5
8B
330
6
100
AcDbEntity
8
L-PLANT
100
AcDbCircle
10
108
20
119
30
0
40
0.45
210
0
220
0
230
1
0
LINE
5
8C
330
6
100
AcDbEntity
8
L-PLANT
100
AcDbLine
10
107
20
119
30
0
11
109
21
119
31
0
0
LINE
5
8D
330
6
100
AcDbEntity
8
L-PLANT
100
AcDbLine
10
108
20
118
30
0
11
108
21
120
31
0
0
CIRCLE
5
8E
330
6
100
AcDbEntity
8
L-PLANT
100
AcDbCircle
10
119
20
119
30
0
40
1.5
210
0
220
0
230
1
0
CIRCLE
5
8F
330
6
100
AcDbEntity
8
L-PLANT
100
AcDbCircle
10
119
20
119
30
0
40
0.45
210
0
220
0
230
1
0
LINE
5
90
330
6
100
AcDbEntity
8
L-PLANT
100
AcDbLine
10
118
20
119
30
0
11
120
21
119
31
0
0
LINE
5
91
330
6
100
AcDbEntity
8
L-PLANT
100
AcDbLine
10
119
20
118
30
0
11
119
21
120
31
0
0
CIRCLE
5
92
330
6
100
AcDbEntity
8
L-PLANT
100
AcDbCircle
10
130
20
119
30
0
40
1.5
210
0
220
0
230
1
0
CIRCLE
5
93
330
6
100
AcDbEntity
8
L-PLANT
100
AcDbCircle
10
130
20
119
30
0
40
0.45
210
0
220
0
230
1
0
LINE
5
94
330
6
100
AcDbEntity
8
L-PLANT
100
AcDbLine
10
129
20
119
30
0
11
131
21
119
31
0
0
LINE
5
95
330
6
100
AcDbEntity
8
L-PLANT
100
AcDbLine
10
130
20
118
30
0
11
130
21
120
31
0
0
CIRCLE
5
96
330
6
100
AcDbEntity
8
L-PLANT
100
AcDbCircle
10
141
20
119
30
0
40
1.5
210
0
220
0
230
1
0
CIRCLE
5
97
330
6
100
AcDbEntity
8
L-PLANT
100
AcDbCircle
10
141
20
119
30
0
40
0.45
210
0
220
0
230
1
0
LINE
5
98
330
6
100
AcDbEntity
8
L-PLANT
100
AcDbLine
10
140
20
119
30
0
11
142
21
119
31
0
0
LINE
5
99
330
6
100
AcDbEntity
8
L-PLANT
100
AcDbLine
10
141
20
118
30
0
11
141
21
120
31
0
0
CIRCLE
5
9A
330
6
100
AcDbEntity
8
L-PLANT
100
AcDbCircle
10
152
20
119
30
0
40
1.5
210
0
220
0
230
1
0
CIRCLE
5
9B
330
6
100
AcDbEntity
8
L-PLANT
100
AcDbCircle
10
152
20
119
30
0
40
0.45
210
0
220
0
230
1
0
LINE
5
9C
330
6
100
AcDbEntity
8
L-PLANT
100
AcDbLine
10
151
20
119
30
0
11
153
21
119
31
0
0
LINE
5
9D
330
6
100
AcDbEntity
8
L-PLANT
100
AcDbLine
10
152
20
118
30
0
11
152
21
120
31
0
0
CIRCLE
5
9E
330
6
100
AcDbEntity
8
L-PLANT
100
AcDbCircle
10
163
20
119
30
0
40
1.5
210
0
220
0
230
1
0
CIRCLE
5
9F
330
6
100
AcDbEntity
8
L-PLANT
100
AcDbCircle
10
163
20
119
30
0
40
0.45
210
0
220
0
230
1
0
LINE
5
A0
330
6
100
AcDbEntity
8
L-PLANT
100
AcDbLine
10
162
20
119
30
0
11
164
21
119
31
0
0
LINE
5
A1
330
6
100
AcDbEntity
8
L-PLANT
100
AcDbLine
10
163
20
118
30
0
11
163
21
120
31
0
0
CIRCLE
5
A2
330
6
100
AcDbEntity
8
L-PLANT
100
AcDbCircle
10
174
20
119
30
0
40
1.5
210
0
220
0
230
1
0
CIRCLE
5
A3
330
6
100
AcDbEntity
8
L-PLANT
100
AcDbCircle
10
174
20
119
30
0
40
0.45
210
0
220
0
230
1
0
LINE
5
A4
330
6
100
AcDbEntity
8
L-PLANT
100
AcDbLine
10
173
20
119
30
0
11
175
21
119
31
0
0
LINE
5
A5
330
6
100
AcDbEntity
8
L-PLANT
100
AcDbLine
10
174
20
118
30
0
11
174
21
120
31
0
0
CIRCLE
5
A6
330
6
100
AcDbEntity
8
L-PLANT
100
AcDbCircle
10
185
20
119
30
0
40
1.5
210
0
220
0
230
1
0
CIRCLE
5
A7
330
6
100
AcDbEntity
8
L-PLANT
100
AcDbCircle
10
185
20
119
30
0
40
0.45
210
0
220
0
230
1
0
LINE
5
A8
330
6
100
AcDbEntity
8
L-PLANT
100
AcDbLine
10
184
20
119
30
0
11
186
21
119
31
0
0
LINE
5
A9
330
6
100
AcDbEntity
8
L-PLANT
100
AcDbLine
10
185
20
118
30
0
11
185
21
120
31
0
0
CIRCLE
5
AA
330
6
100
AcDbEntity
8
L-PLANT
100
AcDbCircle
10
196
20
119
30
0
40
1.5
210
0
220
0
230
1
0
CIRCLE
5
AB
330
6
100
AcDbEntity
8
L-PLANT
100
AcDbCircle
10
196
20
119
30
0
40
0.45
210
0
220
0
230
1
0
LINE
5
AC
330
6
100
AcDbEntity
8
L-PLANT
100
AcDbLine
10
195
20
119
30
0
11
197
21
119
31
0
0
LINE
5
AD
330
6
100
AcDbEntity
8
L-PLANT
100
AcDbLine
10
196
20
118
30
0
11
196
21
120
31
0
0
CIRCLE
5
AE
330
6
100
AcDbEntity
8
L-PLANT
100
AcDbCircle
10
207
20
119
30
0
40
1.5
210
0
220
0
230
1
0
CIRCLE
5
AF
330
6
100
AcDbEntity
8
L-PLANT
100
AcDbCircle
10
207
20
119
30
0
40
0.45
210
0
220
0
230
1
0
LINE
5
B0
330
6
100
AcDbEntity
8
L-PLANT
100
AcDbLine
10
206
20
119
30
0
11
208
21
119
31
0
0
LINE
5
B1
330
6
100
AcDbEntity
8
L-PLANT
100
AcDbLine
10
207
20
118
30
0
11
207
21
120
31
0
0
CIRCLE
5
B2
330
6
100
AcDbEntity
8
L-PLANT
100
AcDbCircle
10
218
20
119
30
0
40
1.5
210
0
220
0
230
1
0
CIRCLE
5
B3
330
6
100
AcDbEntity
8
L-PLANT
100
AcDbCircle
10
218
20
119
30
0
40
0.45
210
0
220
0
230
1
0
LINE
5
B4
330
6
100
AcDbEntity
8
L-PLANT
100
AcDbLine
10
217
20
119
30
0
11
219
21
119
31
0
0
LINE
5
B5
330
6
100
AcDbEntity
8
L-PLANT
100
AcDbLine
10
218
20
118
30
0
11
218
21
120
31
0
0
CIRCLE
5
B6
330
6
100
AcDbEntity
8
L-PLANT
100
AcDbCircle
10
20
20
127
30
0
40
1.5
210
0
220
0
230
1
0
CIRCLE
5
B7
330
6
100
AcDbEntity
8
L-PLANT
100
AcDbCircle
10
20
20
127
30
0
40
0.45
210
0
220
0
230
1
0
LINE
5
B8
330
6
100
AcDbEntity
8
L-PLANT
100
AcDbLine
10
19
20
127
30
0
11
21
21
127
31
0
0
LINE
5
B9
330
6
100
AcDbEntity
8
L-PLANT
100
AcDbLine
10
20
20
126
30
0
11
20
21
128
31
0
0
CIRCLE
5
BA
330
6
100
AcDbEntity
8
L-PLANT
100
AcDbCircle
10
31
20
127
30
0
40
1.5
210
0
220
0
230
1
0
CIRCLE
5
BB
330
6
100
AcDbEntity
8
L-PLANT
100
AcDbCircle
10
31
20
127
30
0
40
0.45
210
0
220
0
230
1
0
LINE
5
BC
330
6
100
AcDbEntity
8
L-PLANT
100
AcDbLine
10
30
20
127
30
0
11
32
21
127
31
0
0
LINE
5
BD
330
6
100
AcDbEntity
8
L-PLANT
100
AcDbLine
10
31
20
126
30
0
11
31
21
128
31
0
0
CIRCLE
5
BE
330
6
100
AcDbEntity
8
L-PLANT
100
AcDbCircle
10
42
20
127
30
0
40
1.5
210
0
220
0
230
1
0
CIRCLE
5
BF
330
6
100
AcDbEntity
8
L-PLANT
100
AcDbCircle
10
42
20
127
30
0
40
0.45
210
0
220
0
230
1
0
LINE
5
C0
330
6
100
AcDbEntity
8
L-PLANT
100
AcDbLine
10
41
20
127
30
0
11
43
21
127
31
0
0
LINE
5
C1
330
6
100
AcDbEntity
8
L-PLANT
100
AcDbLine
10
42
20
126
30
0
11
42
21
128
31
0
0
CIRCLE
5
C2
330
6
100
AcDbEntity
8
L-PLANT
100
AcDbCircle
10
53
20
127
30
0
40
1.5
210
0
220
0
230
1
0
CIRCLE
5
C3
330
6
100
AcDbEntity
8
L-PLANT
100
AcDbCircle
10
53
20
127
30
0
40
0.45
210
0
220
0
230
1
0
LINE
5
C4
330
6
100
AcDbEntity
8
L-PLANT
100
AcDbLine
10
52
20
127
30
0
11
54
21
127
31
0
0
LINE
5
C5
330
6
100
AcDbEntity
8
L-PLANT
100
AcDbLine
10
53
20
126
30
0
11
53
21
128
31
0
0
CIRCLE
5
C6
330
6
100
AcDbEntity
8
L-PLANT
100
AcDbCircle
10
64
20
127
30
0
40
1.5
210
0
220
0
230
1
0
CIRCLE
5
C7
330
6
100
AcDbEntity
8
L-PLANT
100
AcDbCircle
10
64
20
127
30
0
40
0.45
210
0
220
0
230
1
0
LINE
5
C8
330
6
100
AcDbEntity
8
L-PLANT
100
AcDbLine
10
63
20
127
30
0
11
65
21
127
31
0
0
LINE
5
C9
330
6
100
AcDbEntity
8
L-PLANT
100
AcDbLine
10
64
20
126
30
0
11
64
21
128
31
0
0
CIRCLE
5
CA
330
6
100
AcDbEntity
8
L-PLANT
100
AcDbCircle
10
75
20
127
30
0
40
1.5
210
0
220
0
230
1
0
CIRCLE
5
CB
330
6
100
AcDbEntity
8
L-PLANT
100
AcDbCircle
10
75
20
127
30
0
40
0.45
210
0
220
0
230
1
0
LINE
5
CC
330
6
100
AcDbEntity
8
L-PLANT
100
AcDbLine
10
74
20
127
30
0
11
76
21
127
31
0
0
LINE
5
CD
330
6
100
AcDbEntity
8
L-PLANT
100
AcDbLine
10
75
20
126
30
0
11
75
21
128
31
0
0
CIRCLE
5
CE
330
6
100
AcDbEntity
8
L-PLANT
100
AcDbCircle
10
86
20
127
30
0
40
1.5
210
0
220
0
230
1
0
CIRCLE
5
CF
330
6
100
AcDbEntity
8
L-PLANT
100
AcDbCircle
10
86
20
127
30
0
40
0.45
210
0
220
0
230
1
0
LINE
5
D0
330
6
100
AcDbEntity
8
L-PLANT
100
AcDbLine
10
85
20
127
30
0
11
87
21
127
31
0
0
LINE
5
D1
330
6
100
AcDbEntity
8
L-PLANT
100
AcDbLine
10
86
20
126
30
0
11
86
21
128
31
0
0
CIRCLE
5
D2
330
6
100
AcDbEntity
8
L-PLANT
100
AcDbCircle
10
97
20
127
30
0
40
1.5
210
0
220
0
230
1
0
CIRCLE
5
D3
330
6
100
AcDbEntity
8
L-PLANT
100
AcDbCircle
10
97
20
127
30
0
40
0.45
210
0
220
0
230
1
0
LINE
5
D4
330
6
100
AcDbEntity
8
L-PLANT
100
AcDbLine
10
96
20
127
30
0
11
98
21
127
31
0
0
LINE
5
D5
330
6
100
AcDbEntity
8
L-PLANT
100
AcDbLine
10
97
20
126
30
0
11
97
21
128
31
0
0
CIRCLE
5
D6
330
6
100
AcDbEntity
8
L-PLANT
100
AcDbCircle
10
108
20
127
30
0
40
1.5
210
0
220
0
230
1
0
CIRCLE
5
D7
330
6
100
AcDbEntity
8
L-PLANT
100
AcDbCircle
10
108
20
127
30
0
40
0.45
210
0
220
0
230
1
0
LINE
5
D8
330
6
100
AcDbEntity
8
L-PLANT
100
AcDbLine
10
107
20
127
30
0
11
109
21
127
31
0
0
LINE
5
D9
330
6
100
AcDbEntity
8
L-PLANT
100
AcDbLine
10
108
20
126
30
0
11
108
21
128
31
0
0
CIRCLE
5
DA
330
6
100
AcDbEntity
8
L-PLANT
100
AcDbCircle
10
119
20
127
30
0
40
1.5
210
0
220
0
230
1
0
CIRCLE
5
DB
330
6
100
AcDbEntity
8
L-PLANT
100
AcDbCircle
10
119
20
127
30
0
40
0.45
210
0
220
0
230
1
0
LINE
5
DC
330
6
100
AcDbEntity
8
L-PLANT
100
AcDbLine
10
118
20
127
30
0
11
120
21
127
31
0
0
LINE
5
DD
330
6
100
AcDbEntity
8
L-PLANT
100
AcDbLine
10
119
20
126
30
0
11
119
21
128
31
0
0
CIRCLE
5
DE
330
6
100
AcDbEntity
8
L-PLANT
100
AcDbCircle
10
130
20
127
30
0
40
1.5
210
0
220
0
230
1
0
CIRCLE
5
DF
330
6
100
AcDbEntity
8
L-PLANT
100
AcDbCircle
10
130
20
127
30
0
40
0.45
210
0
220
0
230
1
0
LINE
5
E0
330
6
100
AcDbEntity
8
L-PLANT
100
AcDbLine
10
129
20
127
30
0
11
131
21
127
31
0
0
LINE
5
E1
330
6
100
AcDbEntity
8
L-PLANT
100
AcDbLine
10
130
20
126
30
0
11
130
21
128
31
0
0
CIRCLE
5
E2
330
6
100
AcDbEntity
8
L-PLANT
100
AcDbCircle
10
141
20
127
30
0
40
1.5
210
0
220
0
230
1
0
CIRCLE
5
E3
330
6
100
AcDbEntity
8
L-PLANT
100
AcDbCircle
10
141
20
127
30
0
40
0.45
210
0
220
0
230
1
0
LINE
5
E4
330
6
100
AcDbEntity
8
L-PLANT
100
AcDbLine
10
140
20
127
30
0
11
142
21
127
31
0
0
LINE
5
E5
330
6
100
AcDbEntity
8
L-PLANT
100
AcDbLine
10
141
20
126
30
0
11
141
21
128
31
0
0
CIRCLE
5
E6
330
6
100
AcDbEntity
8
L-PLANT
100
AcDbCircle
10
152
20
127
30
0
40
1.5
210
0
220
0
230
1
0
CIRCLE
5
E7
330
6
100
AcDbEntity
8
L-PLANT
100
AcDbCircle
10
152
20
127
30
0
40
0.45
210
0
220
0
230
1
0
LINE
5
E8
330
6
100
AcDbEntity
8
L-PLANT
100
AcDbLine
10
151
20
127
30
0
11
153
21
127
31
0
0
LINE
5
E9
330
6
100
AcDbEntity
8
L-PLANT
100
AcDbLine
10
152
20
126
30
0
11
152
21
128
31
0
0
CIRCLE
5
EA
330
6
100
AcDbEntity
8
L-PLANT
100
AcDbCircle
10
163
20
127
30
0
40
1.5
210
0
220
0
230
1
0
CIRCLE
5
EB
330
6
100
AcDbEntity
8
L-PLANT
100
AcDbCircle
10
163
20
127
30
0
40
0.45
210
0
220
0
230
1
0
LINE
5
EC
330
6
100
AcDbEntity
8
L-PLANT
100
AcDbLine
10
162
20
127
30
0
11
164
21
127
31
0
0
LINE
5
ED
330
6
100
AcDbEntity
8
L-PLANT
100
AcDbLine
10
163
20
126
30
0
11
163
21
128
31
0
0
CIRCLE
5
EE
330
6
100
AcDbEntity
8
L-PLANT
100
AcDbCircle
10
174
20
127
30
0
40
1.5
210
0
220
0
230
1
0
CIRCLE
5
EF
330
6
100
AcDbEntity
8
L-PLANT
100
AcDbCircle
10
174
20
127
30
0
40
0.45
210
0
220
0
230
1
0
LINE
5
F0
330
6
100
AcDbEntity
8
L-PLANT
100
AcDbLine
10
173
20
127
30
0
11
175
21
127
31
0
0
LINE
5
F1
330
6
100
AcDbEntity
8
L-PLANT
100
AcDbLine
10
174
20
126
30
0
11
174
21
128
31
0
0
CIRCLE
5
F2
330
6
100
AcDbEntity
8
L-PLANT
100
AcDbCircle
10
185
20
127
30
0
40
1.5
210
0
220
0
230
1
0
CIRCLE
5
F3
330
6
100
AcDbEntity
8
L-PLANT
100
AcDbCircle
10
185
20
127
30
0
40
0.45
210
0
220
0
230
1
0
LINE
5
F4
330
6
100
AcDbEntity
8
L-PLANT
100
AcDbLine
10
184
20
127
30
0
11
186
21
127
31
0
0
LINE
5
F5
330
6
100
AcDbEntity
8
L-PLANT
100
AcDbLine
10
185
20
126
30
0
11
185
21
128
31
0
0
CIRCLE
5
F6
330
6
100
AcDbEntity
8
L-PLANT
100
AcDbCircle
10
196
20
127
30
0
40
1.5
210
0
220
0
230
1
0
CIRCLE
5
F7
330
6
100
AcDbEntity
8
L-PLANT
100
AcDbCircle
10
196
20
127
30
0
40
0.45
210
0
220
0
230
1
0
LINE
5
F8
330
6
100
AcDbEntity
8
L-PLANT
100
AcDbLine
10
195
20
127
30
0
11
197
21
127
31
0
0
LINE
5
F9
330
6
100
AcDbEntity
8
L-PLANT
100
AcDbLine
10
196
20
126
30
0
11
196
21
128
31
0
0
CIRCLE
5
FA
330
6
100
AcDbEntity
8
L-PLANT
100
AcDbCircle
10
207
20
127
30
0
40
1.5
210
0
220
0
230
1
0
CIRCLE
5
FB
330
6
100
AcDbEntity
8
L-PLANT
100
AcDbCircle
10
207
20
127
30
0
40
0.45
210
0
220
0
230
1
0
LINE
5
FC
330
6
100
AcDbEntity
8
L-PLANT
100
AcDbLine
10
206
20
127
30
0
11
208
21
127
31
0
0
LINE
5
FD
330
6
100
AcDbEntity
8
L-PLANT
100
AcDbLine
10
207
20
126
30
0
11
207
21
128
31
0
0
CIRCLE
5
FE
330
6
100
AcDbEntity
8
L-PLANT
100
AcDbCircle
10
218
20
127
30
0
40
1.5
210
0
220
0
230
1
0
CIRCLE
5
FF
330
6
100
AcDbEntity
8
L-PLANT
100
AcDbCircle
10
218
20
127
30
0
40
0.45
210
0
220
0
230
1
0
LINE
5
100
330
6
100
AcDbEntity
8
L-PLANT
100
AcDbLine
10
217
20
127
30
0
11
219
21
127
31
0
0
LINE
5
101
330
6
100
AcDbEntity
8
L-PLANT
100
AcDbLine
10
218
20
126
30
0
11
218
21
128
31
0
0
LINE
5
102
330
6
100
AcDbEntity
8
DIMS
100
AcDbLine
10
38
20
68
30
0
11
38
21
59.5
31
0
0
LINE
5
103
330
6
100
AcDbEntity
8
DIMS
100
AcDbLine
10
96
20
68
30
0
11
96
21
59.5
31
0
0
LINE
5
104
330
6
100
AcDbEntity
8
DIMS
100
AcDbLine
10
38
20
61
30
0
11
96
21
61
31
0
0
LINE
5
105
330
6
100
AcDbEntity
8
DIMS
100
AcDbLine
10
38
20
61
30
0
11
36.31134414899597
21
62.071653589958
31
0
0
LINE
5
106
330
6
100
AcDbEntity
8
DIMS
100
AcDbLine
10
38
20
61
30
0
11
36.31134414899597
21
59.928346410042
31
0
0
LINE
5
107
330
6
100
AcDbEntity
8
DIMS
100
AcDbLine
10
96
20
61
30
0
11
97.68865585100403
21
59.928346410042
31
0
0
LINE
5
108
330
6
100
AcDbEntity
8
DIMS
100
AcDbLine
10
96
20
61
30
0
11
97.68865585100403
21
62.071653589958
31
0
0
TEXT
5
109
330
6
100
AcDbEntity
8
DIMS
100
AcDbText
10
62.45
20
59.9
30
0
40
1.5
1
58.00 m
7
STANDARD
100
AcDbText
0
LINE
5
10A
330
6
100
AcDbEntity
8
DIMS
100
AcDbLine
10
113
20
72
30
0
11
113
21
63.5
31
0
0
LINE
5
10B
330
6
100
AcDbEntity
8
DIMS
100
AcDbLine
10
185
20
72
30
0
11
185
21
63.5
31
0
0
LINE
5
10C
330
6
100
AcDbEntity
8
DIMS
100
AcDbLine
10
113
20
65
30
0
11
185
21
65
31
0
0
LINE
5
10D
330
6
100
AcDbEntity
8
DIMS
100
AcDbLine
10
113
20
65
30
0
11
111.31134414899597
21
66.07165358995799
31
0
0
LINE
5
10E
330
6
100
AcDbEntity
8
DIMS
100
AcDbLine
10
113
20
65
30
0
11
111.31134414899597
21
63.928346410042
31
0
0
LINE
5
10F
330
6
100
AcDbEntity
8
DIMS
100
AcDbLine
10
185
20
65
30
0
11
186.68865585100403
21
63.928346410042
31
0
0
LINE
5
110
330
6
100
AcDbEntity
8
DIMS
100
AcDbLine
10
185
20
65
30
0
11
186.68865585100403
21
66.07165358995799
31
0
0
TEXT
5
111
330
6
100
AcDbEntity
8
DIMS
100
AcDbText
10
144.45
20
63.9
30
0
40
1.5
1
72.00 m
7
STANDARD
100
AcDbText
0
LINE
5
112
330
6
100
AcDbEntity
8
DIMS
100
AcDbLine
10
185
20
72
30
0
11
193.5
21
72
31
0
0
LINE
5
113
330
6
100
AcDbEntity
8
DIMS
100
AcDbLine
10
185
20
115
30
0
11
193.5
21
115
31
0
0
LINE
5
114
330
6
100
AcDbEntity
8
DIMS
100
AcDbLine
10
192
20
72
30
0
11
192
21
115
31
0
0
LINE
5
115
330
6
100
AcDbEntity
8
DIMS
100
AcDbLine
10
192
20
72
30
0
11
190.928346410042
21
70.31134414899597
31
0
0
LINE
5
116
330
6
100
AcDbEntity
8
DIMS
100
AcDbLine
10
192
20
72
30
0
11
193.071653589958
21
70.31134414899597
31
0
0
LINE
5
117
330
6
100
AcDbEntity
8
DIMS
100
AcDbLine
10
192
20
115
30
0
11
193.071653589958
21
116.68865585100403
31
0
0
LINE
5
118
330
6
100
AcDbEntity
8
DIMS
100
AcDbLine
10
192
20
115
30
0
11
190.928346410042
21
116.68865585100403
31
0
0
TEXT
5
119
330
6
100
AcDbEntity
8
DIMS
100
AcDbText
10
193.1
20
88.95
30
0
40
1.5
1
43.00 m
7
STANDARD
50
90
100
AcDbText
0
LINE
5
11A
330
6
100
AcDbEntity
8
ANNO
100
AcDbLine
10
229
20
112
30
0
11
229
21
134
31
0
0
LINE
5
11B
330
6
100
AcDbEntity
8
ANNO
100
AcDbLine
10
229
20
134
30
0
11
226
21
128
31
0
0
LINE
5
11C
330
6
100
AcDbEntity
8
ANNO
100
AcDbLine
10
229
20
134
30
0
11
232
21
128
31
0
0
TEXT
5
11D
330
6
100
AcDbEntity
8
ANNO
100
AcDbText
10
227.8
20
137
30
0
40
2.5
1
N
7
STANDARD
100
AcDbText
0
TEXT
5
11E
330
6
100
AcDbEntity
8
TITLE
100
AcDbText
10
9
20
146
30
0
40
1.15
1
GENERAL NOTES  ·  ALL DIMENSIONS IN METERS  ·  COORDINATE DATUM: LOCAL DEMO GRID
7
STANDARD
100
AcDbText
0
ENDSEC
0
SECTION
2
OBJECTS
0
DICTIONARY
5
12B
330
0
100
AcDbDictionary
281
1
3
ACAD_LAYOUT
350
12C
0
DICTIONARY
5
12C
330
12B
100
AcDbDictionary
280
1
281
1
3
Model
350
8
3
Layout1
350
9
0
LAYOUT
5
8
102
{ACAD_REACTORS
330
12C
102
}
330
12C
100
AcDbPlotSettings
100
AcDbLayout
1
Model
70
1
71
0
12
0
22
0
32
0
14
100000000000000000000
24
100000000000000000000
34
100000000000000000000
15
-100000000000000000000
25
-100000000000000000000
35
-100000000000000000000
13
0
23
0
33
0
16
1
26
0
36
0
17
0
27
1
37
0
330
6
0
LAYOUT
5
9
102
{ACAD_REACTORS
330
12C
102
}
330
12C
100
AcDbPlotSettings
100
AcDbLayout
1
Layout1
70
1
71
1
10
0
20
0
11
420
21
297
12
0
22
0
32
0
14
100000000000000000000
24
100000000000000000000
34
100000000000000000000
15
-100000000000000000000
25
-100000000000000000000
35
-100000000000000000000
13
0
23
0
33
0
16
1
26
0
36
0
17
0
27
1
37
0
330
7
0
ENDSEC
0
EOF
