0
SECTION
2
HEADER
9
$ACADVER
1
AC1032
9
$DWGCODEPAGE
3
UTF-8
9
$HANDSEED
5
6E
9
$LTSCALE
40
1
9
$PDMODE
70
0
9
$PDSIZE
40
0
9
$TEXTSTYLE
7
STANDARD
9
$INSUNITS
70
4
9
$MEASUREMENT
70
1
0
ENDSEC
0
SECTION
2
TABLES
0
TABLE
2
LTYPE
5
3B
330
0
100
AcDbSymbolTable
70
2
0
LTYPE
5
2
330
3B
100
AcDbSymbolTableRecord
100
AcDbLinetypeTableRecord
2
CONTINUOUS
70
0
3
Solid line
72
65
73
0
40
0
0
LTYPE
5
A
330
3B
100
AcDbSymbolTableRecord
100
AcDbLinetypeTableRecord
2
CENTER
70
0
3
Long-short center line
72
65
73
4
40
11
49
8
74
0
49
-1
74
0
49
1
74
0
49
-1
74
0
0
ENDTAB
0
TABLE
2
STYLE
5
3C
330
0
100
AcDbSymbolTable
70
1
0
STYLE
5
3
330
3C
100
AcDbSymbolTableRecord
100
AcDbTextStyleTableRecord
2
STANDARD
70
0
40
0
41
1
50
0
71
0
42
2.5
3
sans-serif
4

0
ENDTAB
0
TABLE
2
DIMSTYLE
5
3D
330
0
100
AcDbSymbolTable
70
2
100
AcDbDimStyleTable
0
DIMSTYLE
105
4
330
3D
100
AcDbSymbolTableRecord
100
AcDbDimStyleTableRecord
2
STANDARD
70
0
40
1
41
2.5
42
0.625
43
3.75
44
1.25
140
2.5
141
2.5
147
0.625
0
DIMSTYLE
105
11
330
3D
100
AcDbSymbolTableRecord
100
AcDbDimStyleTableRecord
271
0
2
KJDRAW-SHOWCASE
70
0
40
1
41
2.4
42
0.8
43
3.75
44
1.2
140
3
141
2.5
147
0.625
0
ENDTAB
0
TABLE
2
APPID
5
42
330
0
100
AcDbSymbolTable
70
1
0
APPID
5
5F
330
42
100
AcDbSymbolTableRecord
100
AcDbRegAppTableRecord
2
ACAD
70
0
0
ENDTAB
0
TABLE
2
UCS
5
3E
330
0
100
AcDbSymbolTable
70
0
0
ENDTAB
0
TABLE
2
VIEW
5
3F
330
0
100
AcDbSymbolTable
70
0
0
ENDTAB
0
TABLE
2
LAYER
5
40
330
0
100
AcDbSymbolTable
70
7
0
LAYER
5
5
330
40
100
AcDbSymbolTableRecord
100
AcDbLayerTableRecord
2
0
70
0
62
7
6
CONTINUOUS
290
1
370
-1
0
LAYER
5
B
330
40
100
AcDbSymbolTableRecord
100
AcDbLayerTableRecord
2
SHEET_FRAME
70
0
62
8
6
CONTINUOUS
290
1
370
18
0
LAYER
5
C
330
40
100
AcDbSymbolTableRecord
100
AcDbLayerTableRecord
2
PART_OUTLINE
70
0
62
7
6
CONTINUOUS
290
1
370
35
0
LAYER
5
D
330
40
100
AcDbSymbolTableRecord
100
AcDbLayerTableRecord
2
SECTION_HATCH
70
0
62
8
6
CONTINUOUS
290
1
370
13
0
LAYER
5
E
330
40
100
AcDbSymbolTableRecord
100
AcDbLayerTableRecord
2
CENTER_LINES
70
0
62
3
6
CENTER
290
1
370
13
0
LAYER
5
F
330
40
100
AcDbSymbolTableRecord
100
AcDbLayerTableRecord
2
DIMENSIONS
70
0
62
2
6
CONTINUOUS
290
1
370
18
0
LAYER
5
10
330
40
100
AcDbSymbolTableRecord
100
AcDbLayerTableRecord
2
NOTES
70
0
62
7
6
CONTINUOUS
290
1
370
18
0
ENDTAB
0
TABLE
2
BLOCK_RECORD
5
41
330
0
100
AcDbSymbolTable
70
6
0
BLOCK_RECORD
5
6
330
41
100
AcDbSymbolTableRecord
100
AcDbBlockTableRecord
2
*MODEL_SPACE
70
0
280
1
281
0
340
8
0
BLOCK_RECORD
5
7
330
41
100
AcDbSymbolTableRecord
100
AcDbBlockTableRecord
2
*PAPER_SPACE
70
0
280
1
281
0
340
9
0
BLOCK_RECORD
5
43
330
41
100
AcDbSymbolTableRecord
100
AcDbBlockTableRecord
2
*D1
70
1
280
1
281
0
0
BLOCK_RECORD
5
4A
330
41
100
AcDbSymbolTableRecord
100
AcDbBlockTableRecord
2
*D2
70
1
280
1
281
0
0
BLOCK_RECORD
5
51
330
41
100
AcDbSymbolTableRecord
100
AcDbBlockTableRecord
2
*D3
70
1
280
1
281
0
0
BLOCK_RECORD
5
58
330
41
100
AcDbSymbolTableRecord
100
AcDbBlockTableRecord
2
*D4
70
1
280
1
281
0
0
ENDTAB
0
ENDSEC
0
SECTION
2
BLOCKS
0
BLOCK
5
60
330
6
100
AcDbEntity
8
0
100
AcDbBlockBegin
2
*MODEL_SPACE
70
0
10
0
20
0
30
0
3
*MODEL_SPACE
1

0
ENDBLK
5
61
330
6
100
AcDbEntity
8
0
100
AcDbBlockEnd
0
BLOCK
5
62
330
7
100
AcDbEntity
8
0
100
AcDbBlockBegin
2
*PAPER_SPACE
70
0
10
0
20
0
30
0
3
*PAPER_SPACE
1

0
ENDBLK
5
63
330
7
100
AcDbEntity
8
0
100
AcDbBlockEnd
0
BLOCK
5
64
330
43
100
AcDbEntity
8
0
100
AcDbBlockBegin
2
*D1
70
1
10
0
20
0
30
0
3
*D1
1

0
LINE
5
44
330
43
100
AcDbEntity
8
0
100
AcDbLine
10
53
20
138.8
30
0
11
53
21
153.2
31
0
0
LINE
5
45
330
43
100
AcDbEntity
8
0
100
AcDbLine
10
203
20
138.8
30
0
11
203
21
153.2
31
0
0
LINE
5
46
330
43
100
AcDbEntity
8
0
100
AcDbLine
10
53
20
152
30
0
11
203
21
152
31
0
0
SOLID
5
47
330
43
100
AcDbEntity
8
0
100
AcDbTrace
10
53
20
152
30
0
11
55.4
21
152.72
31
0
12
55.4
22
151.28
32
0
13
55.4
23
151.28
33
0
0
SOLID
5
48
330
43
100
AcDbEntity
8
0
100
AcDbTrace
10
203
20
152
30
0
11
200.6
21
151.28
31
0
12
200.6
22
152.72
32
0
13
200.6
23
152.72
33
0
0
TEXT
5
49
330
43
100
AcDbEntity
8
0
100
AcDbText
10
128
20
153.95
30
0
40
3
1
150
72
1
11
128
21
153.95
31
0
100
AcDbText
73
1
0
ENDBLK
5
65
330
43
100
AcDbEntity
8
0
100
AcDbBlockEnd
0
BLOCK
5
66
330
4A
100
AcDbEntity
8
0
100
AcDbBlockBegin
2
*D2
70
1
10
0
20
0
30
0
3
*D2
1

0
LINE
5
4B
330
4A
100
AcDbEntity
8
0
100
AcDbLine
10
52.2
20
92
30
0
11
34.8
21
92
31
0
0
LINE
5
4C
330
4A
100
AcDbEntity
8
0
100
AcDbLine
10
52.2
20
138
30
0
11
34.8
21
138
31
0
0
LINE
5
4D
330
4A
100
AcDbEntity
8
0
100
AcDbLine
10
36
20
92
30
0
11
36
21
138
31
0
0
SOLID
5
4E
330
4A
100
AcDbEntity
8
0
100
AcDbTrace
10
36
20
92
30
0
11
35.28
21
94.4
31
0
12
36.72
22
94.4
32
0
13
36.72
23
94.4
33
0
0
SOLID
5
4F
330
4A
100
AcDbEntity
8
0
100
AcDbTrace
10
36
20
138
30
0
11
36.72
21
135.6
31
0
12
35.28
22
135.6
32
0
13
35.28
23
135.6
33
0
0
TEXT
5
50
330
4A
100
AcDbEntity
8
0
100
AcDbText
10
34.05
20
115
30
0
40
3
1
46
50
90
72
1
11
34.05
21
115
31
0
100
AcDbText
73
1
0
ENDBLK
5
67
330
4A
100
AcDbEntity
8
0
100
AcDbBlockEnd
0
BLOCK
5
68
330
51
100
AcDbEntity
8
0
100
AcDbBlockBegin
2
*D3
70
1
10
0
20
0
30
0
3
*D3
1

0
LINE
5
52
330
51
100
AcDbEntity
8
0
100
AcDbLine
10
68
20
91.2
30
0
11
68
21
59.8
31
0
0
LINE
5
53
330
51
100
AcDbEntity
8
0
100
AcDbLine
10
188
20
91.2
30
0
11
188
21
59.8
31
0
0
LINE
5
54
330
51
100
AcDbEntity
8
0
100
AcDbLine
10
68
20
61
30
0
11
188
21
61
31
0
0
SOLID
5
55
330
51
100
AcDbEntity
8
0
100
AcDbTrace
10
68
20
61
30
0
11
70.4
21
61.72
31
0
12
70.4
22
60.28
32
0
13
70.4
23
60.28
33
0
0
SOLID
5
56
330
51
100
AcDbEntity
8
0
100
AcDbTrace
10
188
20
61
30
0
11
185.6
21
60.28
31
0
12
185.6
22
61.72
32
0
13
185.6
23
61.72
33
0
0
TEXT
5
57
330
51
100
AcDbEntity
8
0
100
AcDbText
10
128
20
62.95
30
0
40
3
1
120
72
1
11
128
21
62.95
31
0
100
AcDbText
73
1
0
ENDBLK
5
69
330
51
100
AcDbEntity
8
0
100
AcDbBlockEnd
0
BLOCK
5
6A
330
58
100
AcDbEntity
8
0
100
AcDbBlockBegin
2
*D4
70
1
10
0
20
0
30
0
3
*D4
1

0
LINE
5
59
330
58
100
AcDbEntity
8
0
100
AcDbLine
10
52.2
20
71
30
0
11
37.8
21
71
31
0
0
LINE
5
5A
330
58
100
AcDbEntity
8
0
100
AcDbLine
10
52.2
20
79
30
0
11
37.8
21
79
31
0
0
LINE
5
5B
330
58
100
AcDbEntity
8
0
100
AcDbLine
10
39
20
71
30
0
11
39
21
79
31
0
0
SOLID
5
5C
330
58
100
AcDbEntity
8
0
100
AcDbTrace
10
39
20
71
30
0
11
38.28
21
73.4
31
0
12
39.72
22
73.4
32
0
13
39.72
23
73.4
33
0
0
SOLID
5
5D
330
58
100
AcDbEntity
8
0
100
AcDbTrace
10
39
20
79
30
0
11
39.72
21
76.6
31
0
12
38.28
22
76.6
32
0
13
38.28
23
76.6
33
0
0
TEXT
5
5E
330
58
100
AcDbEntity
8
0
100
AcDbText
10
37.05
20
75
30
0
40
3
1
8
50
90
72
1
11
37.05
21
75
31
0
100
AcDbText
73
1
0
ENDBLK
5
6B
330
58
100
AcDbEntity
8
0
100
AcDbBlockEnd
0
ENDSEC
0
SECTION
2
ENTITIES
0
LWPOLYLINE
5
12
330
6
100
AcDbEntity
8
SHEET_FRAME
100
AcDbPolyline
90
4
70
1
38
0
10
8
20
8
10
289
20
8
10
289
20
202
10
8
20
202
0
LWPOLYLINE
5
13
330
6
100
AcDbEntity
8
SHEET_FRAME
100
AcDbPolyline
90
4
70
1
38
0
10
12
20
12
10
285
20
12
10
285
20
198
10
12
20
198
0
LINE
5
14
330
6
100
AcDbEntity
8
SHEET_FRAME
100
AcDbLine
10
12
20
183
30
0
11
285
21
183
31
0
0
LINE
5
15
330
6
100
AcDbEntity
8
SHEET_FRAME
100
AcDbLine
10
12
20
39
30
0
11
285
21
39
31
0
0
LINE
5
16
330
6
100
AcDbEntity
8
SHEET_FRAME
100
AcDbLine
10
12
20
26
30
0
11
285
21
26
31
0
0
LINE
5
17
330
6
100
AcDbEntity
8
SHEET_FRAME
100
AcDbLine
10
175
20
12
30
0
11
175
21
39
31
0
0
LINE
5
18
330
6
100
AcDbEntity
8
SHEET_FRAME
100
AcDbLine
10
238
20
12
30
0
11
238
21
39
31
0
0
TEXT
5
19
330
6
100
AcDbEntity
8
NOTES
100
AcDbText
10
17
20
190
30
0
40
4
1
KJDRAW  /  EDITABLE MACHINE COMPONENTS
100
AcDbText
0
TEXT
5
1A
330
6
100
AcDbEntity
8
NOTES
100
AcDbText
10
244
20
190
30
0
40
3.2
1
MC-203 / A
100
AcDbText
0
TEXT
5
1B
330
6
100
AcDbEntity
8
NOTES
100
AcDbText
10
16
20
30
30
0
40
2.4
1
PART
100
AcDbText
0
TEXT
5
1C
330
6
100
AcDbEntity
8
NOTES
100
AcDbText
10
47
20
29
30
0
40
4
1
SLOTTED LINKAGE PLATE
100
AcDbText
0
TEXT
5
1D
330
6
100
AcDbEntity
8
NOTES
100
AcDbText
10
16
20
17
30
0
40
2.4
1
DRAWING
100
AcDbText
0
TEXT
5
1E
330
6
100
AcDbEntity
8
NOTES
100
AcDbText
10
47
20
17
30
0
40
3.8
1
MC-203
100
AcDbText
0
TEXT
5
1F
330
6
100
AcDbEntity
8
NOTES
100
AcDbText
10
179
20
30
30
0
40
2.4
1
MATERIAL
100
AcDbText
0
TEXT
5
20
330
6
100
AcDbEntity
8
NOTES
100
AcDbText
10
179
20
17
30
0
40
2.7
1
STEEL / CONCEPT
100
AcDbText
0
TEXT
5
21
330
6
100
AcDbEntity
8
NOTES
100
AcDbText
10
241
20
30
30
0
40
2.4
1
UNITS  mm
100
AcDbText
0
TEXT
5
22
330
6
100
AcDbEntity
8
NOTES
100
AcDbText
10
241
20
17
30
0
40
2.7
1
SCALE  1:1
100
AcDbText
0
TEXT
5
23
330
6
100
AcDbEntity
8
NOTES
100
AcDbText
10
16
20
43
30
0
40
2.65
1
ILLUSTRATIVE COMPONENT / DIMENSIONS REQUIRE DESIGN REVIEW
100
AcDbText
0
LWPOLYLINE
5
24
330
6
100
AcDbEntity
8
PART_OUTLINE
100
AcDbPolyline
90
8
70
1
38
0
10
53
20
98
10
59
20
92
10
197
20
92
10
203
20
98
10
203
20
132
10
197
20
138
10
59
20
138
10
53
20
132
0
CIRCLE
5
25
330
6
100
AcDbEntity
8
PART_OUTLINE
100
AcDbCircle
10
68
20
115
30
0
40
6
210
0
220
0
230
1
0
CIRCLE
5
26
330
6
100
AcDbEntity
8
PART_OUTLINE
100
AcDbCircle
10
188
20
115
30
0
40
6
210
0
220
0
230
1
0
LINE
5
27
330
6
100
AcDbEntity
8
CENTER_LINES
100
AcDbLine
10
58
20
115
30
0
11
78
21
115
31
0
0
LINE
5
28
330
6
100
AcDbEntity
8
CENTER_LINES
100
AcDbLine
10
68
20
105
30
0
11
68
21
125
31
0
0
LINE
5
29
330
6
100
AcDbEntity
8
CENTER_LINES
100
AcDbLine
10
178
20
115
30
0
11
198
21
115
31
0
0
LINE
5
2A
330
6
100
AcDbEntity
8
CENTER_LINES
100
AcDbLine
10
188
20
105
30
0
11
188
21
125
31
0
0
ARC
5
2B
330
6
100
AcDbEntity
8
PART_OUTLINE
100
AcDbCircle
10
112
20
115
30
0
40
6
100
AcDbArc
50
90
51
270
210
0
220
0
230
1
0
ARC
5
2C
330
6
100
AcDbEntity
8
PART_OUTLINE
100
AcDbCircle
10
144
20
115
30
0
40
6
100
AcDbArc
50
270
51
450
210
0
220
0
230
1
0
LINE
5
2D
330
6
100
AcDbEntity
8
PART_OUTLINE
100
AcDbLine
10
112
20
109
30
0
11
144
21
109
31
0
0
LINE
5
2E
330
6
100
AcDbEntity
8
PART_OUTLINE
100
AcDbLine
10
112
20
121
30
0
11
144
21
121
31
0
0
LINE
5
2F
330
6
100
AcDbEntity
8
CENTER_LINES
100
AcDbLine
10
112
20
115
30
0
11
144
21
115
31
0
0
LWPOLYLINE
5
30
330
6
100
AcDbEntity
8
PART_OUTLINE
100
AcDbPolyline
90
4
70
1
38
0
10
53
20
71
10
203
20
71
10
203
20
79
10
53
20
79
0
DIMENSION
5
31
330
6
100
AcDbEntity
8
DIMENSIONS
100
AcDbDimension
280
0
2
*D1
10
128
20
152
30
0
11
128
21
153.95
31
0
3
KJDRAW-SHOWCASE
70
33
71
5
42
150
100
AcDbAlignedDimension
13
53
23
138
33
0
14
203
24
138
34
0
1001
ACAD
1000
DSTYLE
1002
{
1070
140
1040
3
1070
40
1040
1
1070
41
1040
2.4
1070
42
1040
0.8
1070
44
1040
1.2
1070
144
1040
1
1070
78
1070
8
1070
271
1070
0
1070
277
1070
2
1070
278
1070
46
1002
}
0
DIMENSION
5
32
330
6
100
AcDbEntity
8
DIMENSIONS
100
AcDbDimension
280
0
2
*D2
10
36
20
115
30
0
11
34.05
21
115
31
0
3
KJDRAW-SHOWCASE
70
33
71
5
42
46
100
AcDbAlignedDimension
13
53
23
92
33
0
14
53
24
138
34
0
50
90
1001
ACAD
1000
DSTYLE
1002
{
1070
140
1040
3
1070
40
1040
1
1070
41
1040
2.4
1070
42
1040
0.8
1070
44
1040
1.2
1070
144
1040
1
1070
78
1070
8
1070
271
1070
0
1070
277
1070
2
1070
278
1070
46
1002
}
0
DIMENSION
5
33
330
6
100
AcDbEntity
8
DIMENSIONS
100
AcDbDimension
280
0
2
*D3
10
128
20
61
30
0
11
128
21
62.95
31
0
3
KJDRAW-SHOWCASE
70
33
71
5
42
120
100
AcDbAlignedDimension
13
68
23
92
33
0
14
188
24
92
34
0
1001
ACAD
1000
DSTYLE
1002
{
1070
140
1040
3
1070
40
1040
1
1070
41
1040
2.4
1070
42
1040
0.8
1070
44
1040
1.2
1070
144
1040
1
1070
78
1070
8
1070
271
1070
0
1070
277
1070
2
1070
278
1070
46
1002
}
0
DIMENSION
5
34
330
6
100
AcDbEntity
8
DIMENSIONS
100
AcDbDimension
280
0
2
*D4
10
39
20
75
30
0
11
37.05
21
75
31
0
3
KJDRAW-SHOWCASE
70
33
71
5
42
8
100
AcDbAlignedDimension
13
53
23
71
33
0
14
53
24
79
34
0
50
90
1001
ACAD
1000
DSTYLE
1002
{
1070
140
1040
3
1070
40
1040
1
1070
41
1040
2.4
1070
42
1040
0.8
1070
44
1040
1.2
1070
144
1040
1
1070
78
1070
8
1070
271
1070
0
1070
277
1070
2
1070
278
1070
46
1002
}
0
TEXT
5
35
330
6
100
AcDbEntity
8
NOTES
100
AcDbText
10
60
20
163
30
0
40
3
1
PLAN VIEW / 2X DIA 12 THRU
100
AcDbText
0
TEXT
5
36
330
6
100
AcDbEntity
8
NOTES
100
AcDbText
10
213
20
133
30
0
40
3
1
SLOT 12 WIDE
100
AcDbText
0
TEXT
5
37
330
6
100
AcDbEntity
8
NOTES
100
AcDbText
10
213
20
121
30
0
40
3
1
SLOT CENTERS 32
100
AcDbText
0
TEXT
5
38
330
6
100
AcDbEntity
8
NOTES
100
AcDbText
10
213
20
109
30
0
40
3
1
END PITCH 120
100
AcDbText
0
TEXT
5
39
330
6
100
AcDbEntity
8
NOTES
100
AcDbText
10
213
20
97
30
0
40
3
1
THICKNESS 8
100
AcDbText
0
TEXT
5
3A
330
6
100
AcDbEntity
8
NOTES
100
AcDbText
10
60
20
52
30
0
40
2.8
1
OBROUND SLOT / VERIFY FIT BEFORE FABRICATION
100
AcDbText
0
ENDSEC
0
SECTION
2
OBJECTS
0
DICTIONARY
5
6C
330
0
100
AcDbDictionary
281
1
3
ACAD_LAYOUT
350
6D
0
DICTIONARY
5
6D
330
6C
100
AcDbDictionary
280
1
281
1
3
Model
350
8
3
Layout1
350
9
0
LAYOUT
5
8
102
{ACAD_REACTORS
330
6D
102
}
330
6D
100
AcDbPlotSettings
44
297
45
210
48
0
49
0
140
297
141
210
142
1
143
1
70
0
72
1
74
4
100
AcDbLayout
1
Model
70
1
71
0
12
0
22
0
32
0
14
100000000000000000000
24
100000000000000000000
34
100000000000000000000
15
-100000000000000000000
25
-100000000000000000000
35
-100000000000000000000
13
0
23
0
33
0
16
1
26
0
36
0
17
0
27
1
37
0
330
6
0
LAYOUT
5
9
102
{ACAD_REACTORS
330
6D
102
}
330
6D
100
AcDbPlotSettings
100
AcDbLayout
1
Layout1
70
1
71
1
10
0
20
0
11
420
21
297
12
0
22
0
32
0
14
100000000000000000000
24
100000000000000000000
34
100000000000000000000
15
-100000000000000000000
25
-100000000000000000000
35
-100000000000000000000
13
0
23
0
33
0
16
1
26
0
36
0
17
0
27
1
37
0
330
7
0
ENDSEC
0
EOF
