0
SECTION
2
HEADER
9
$ACADVER
1
AC1032
9
$DWGCODEPAGE
3
UTF-8
9
$HANDSEED
5
72
9
$LTSCALE
40
1
9
$PDMODE
70
0
9
$PDSIZE
40
0
9
$TEXTSTYLE
7
STANDARD
9
$INSUNITS
70
4
9
$MEASUREMENT
70
1
0
ENDSEC
0
SECTION
2
TABLES
0
TABLE
2
LTYPE
5
36
330
0
100
AcDbSymbolTable
70
2
0
LTYPE
5
2
330
36
100
AcDbSymbolTableRecord
100
AcDbLinetypeTableRecord
2
CONTINUOUS
70
0
3
Solid line
72
65
73
0
40
0
0
LTYPE
5
A
330
36
100
AcDbSymbolTableRecord
100
AcDbLinetypeTableRecord
2
CENTER
70
0
3
Long-short center line
72
65
73
4
40
11
49
8
74
0
49
-1
74
0
49
1
74
0
49
-1
74
0
0
ENDTAB
0
TABLE
2
STYLE
5
37
330
0
100
AcDbSymbolTable
70
1
0
STYLE
5
3
330
37
100
AcDbSymbolTableRecord
100
AcDbTextStyleTableRecord
2
STANDARD
70
0
40
0
41
1
50
0
71
0
42
2.5
3
sans-serif
4

0
ENDTAB
0
TABLE
2
DIMSTYLE
5
38
330
0
100
AcDbSymbolTable
70
2
100
AcDbDimStyleTable
0
DIMSTYLE
105
4
330
38
100
AcDbSymbolTableRecord
100
AcDbDimStyleTableRecord
2
STANDARD
70
0
40
1
41
2.5
42
0.625
43
3.75
44
1.25
140
2.5
141
2.5
147
0.625
0
DIMSTYLE
105
11
330
38
100
AcDbSymbolTableRecord
100
AcDbDimStyleTableRecord
271
0
2
KJDRAW-SHOWCASE
70
0
40
1
41
2.4
42
0.8
43
3.75
44
1.2
140
3
141
2.5
147
0.625
0
ENDTAB
0
TABLE
2
APPID
5
3D
330
0
100
AcDbSymbolTable
70
1
0
APPID
5
61
330
3D
100
AcDbSymbolTableRecord
100
AcDbRegAppTableRecord
2
ACAD
70
0
0
ENDTAB
0
TABLE
2
UCS
5
39
330
0
100
AcDbSymbolTable
70
0
0
ENDTAB
0
TABLE
2
VIEW
5
3A
330
0
100
AcDbSymbolTable
70
0
0
ENDTAB
0
TABLE
2
LAYER
5
3B
330
0
100
AcDbSymbolTable
70
7
0
LAYER
5
5
330
3B
100
AcDbSymbolTableRecord
100
AcDbLayerTableRecord
2
0
70
0
62
7
6
CONTINUOUS
290
1
370
-1
0
LAYER
5
B
330
3B
100
AcDbSymbolTableRecord
100
AcDbLayerTableRecord
2
SHEET_FRAME
70
0
62
8
6
CONTINUOUS
290
1
370
18
0
LAYER
5
C
330
3B
100
AcDbSymbolTableRecord
100
AcDbLayerTableRecord
2
PART_OUTLINE
70
0
62
7
6
CONTINUOUS
290
1
370
35
0
LAYER
5
D
330
3B
100
AcDbSymbolTableRecord
100
AcDbLayerTableRecord
2
SECTION_HATCH
70
0
62
8
6
CONTINUOUS
290
1
370
13
0
LAYER
5
E
330
3B
100
AcDbSymbolTableRecord
100
AcDbLayerTableRecord
2
CENTER_LINES
70
0
62
3
6
CENTER
290
1
370
13
0
LAYER
5
F
330
3B
100
AcDbSymbolTableRecord
100
AcDbLayerTableRecord
2
DIMENSIONS
70
0
62
2
6
CONTINUOUS
290
1
370
18
0
LAYER
5
10
330
3B
100
AcDbSymbolTableRecord
100
AcDbLayerTableRecord
2
NOTES
70
0
62
7
6
CONTINUOUS
290
1
370
18
0
ENDTAB
0
TABLE
2
BLOCK_RECORD
5
3C
330
0
100
AcDbSymbolTable
70
7
0
BLOCK_RECORD
5
6
330
3C
100
AcDbSymbolTableRecord
100
AcDbBlockTableRecord
2
*MODEL_SPACE
70
0
280
1
281
0
340
8
0
BLOCK_RECORD
5
7
330
3C
100
AcDbSymbolTableRecord
100
AcDbBlockTableRecord
2
*PAPER_SPACE
70
0
280
1
281
0
340
9
0
BLOCK_RECORD
5
3E
330
3C
100
AcDbSymbolTableRecord
100
AcDbBlockTableRecord
2
*D1
70
1
280
1
281
0
0
BLOCK_RECORD
5
45
330
3C
100
AcDbSymbolTableRecord
100
AcDbBlockTableRecord
2
*D2
70
1
280
1
281
0
0
BLOCK_RECORD
5
4C
330
3C
100
AcDbSymbolTableRecord
100
AcDbBlockTableRecord
2
*D3
70
1
280
1
281
0
0
BLOCK_RECORD
5
53
330
3C
100
AcDbSymbolTableRecord
100
AcDbBlockTableRecord
2
*D4
70
1
280
1
281
0
0
BLOCK_RECORD
5
5A
330
3C
100
AcDbSymbolTableRecord
100
AcDbBlockTableRecord
2
*D5
70
1
280
1
281
0
0
ENDTAB
0
ENDSEC
0
SECTION
2
BLOCKS
0
BLOCK
5
62
330
6
100
AcDbEntity
8
0
100
AcDbBlockBegin
2
*MODEL_SPACE
70
0
10
0
20
0
30
0
3
*MODEL_SPACE
1

0
ENDBLK
5
63
330
6
100
AcDbEntity
8
0
100
AcDbBlockEnd
0
BLOCK
5
64
330
7
100
AcDbEntity
8
0
100
AcDbBlockBegin
2
*PAPER_SPACE
70
0
10
0
20
0
30
0
3
*PAPER_SPACE
1

0
ENDBLK
5
65
330
7
100
AcDbEntity
8
0
100
AcDbBlockEnd
0
BLOCK
5
66
330
3E
100
AcDbEntity
8
0
100
AcDbBlockBegin
2
*D1
70
1
10
0
20
0
30
0
3
*D1
1

0
LINE
5
3F
330
3E
100
AcDbEntity
8
0
100
AcDbLine
10
52
20
129.8
30
0
11
52
21
162.2
31
0
0
LINE
5
40
330
3E
100
AcDbEntity
8
0
100
AcDbLine
10
167
20
129.8
30
0
11
167
21
162.2
31
0
0
LINE
5
41
330
3E
100
AcDbEntity
8
0
100
AcDbLine
10
52
20
161
30
0
11
167
21
161
31
0
0
SOLID
5
42
330
3E
100
AcDbEntity
8
0
100
AcDbTrace
10
52
20
161
30
0
11
54.4
21
161.72
31
0
12
54.4
22
160.28
32
0
13
54.4
23
160.28
33
0
0
SOLID
5
43
330
3E
100
AcDbEntity
8
0
100
AcDbTrace
10
167
20
161
30
0
11
164.6
21
160.28
31
0
12
164.6
22
161.72
32
0
13
164.6
23
161.72
33
0
0
TEXT
5
44
330
3E
100
AcDbEntity
8
0
100
AcDbText
10
109.5
20
162.95
30
0
40
3
1
115
72
1
11
109.5
21
162.95
31
0
100
AcDbText
73
1
0
ENDBLK
5
67
330
3E
100
AcDbEntity
8
0
100
AcDbBlockEnd
0
BLOCK
5
68
330
45
100
AcDbEntity
8
0
100
AcDbBlockBegin
2
*D2
70
1
10
0
20
0
30
0
3
*D2
1

0
LINE
5
46
330
45
100
AcDbEntity
8
0
100
AcDbLine
10
52
20
98.2
30
0
11
52
21
78.8
31
0
0
LINE
5
47
330
45
100
AcDbEntity
8
0
100
AcDbLine
10
87
20
98.2
30
0
11
87
21
78.8
31
0
0
LINE
5
48
330
45
100
AcDbEntity
8
0
100
AcDbLine
10
52
20
80
30
0
11
87
21
80
31
0
0
SOLID
5
49
330
45
100
AcDbEntity
8
0
100
AcDbTrace
10
52
20
80
30
0
11
54.4
21
80.72
31
0
12
54.4
22
79.28
32
0
13
54.4
23
79.28
33
0
0
SOLID
5
4A
330
45
100
AcDbEntity
8
0
100
AcDbTrace
10
87
20
80
30
0
11
84.6
21
79.28
31
0
12
84.6
22
80.72
32
0
13
84.6
23
80.72
33
0
0
TEXT
5
4B
330
45
100
AcDbEntity
8
0
100
AcDbText
10
69.5
20
81.95
30
0
40
3
1
35
72
1
11
69.5
21
81.95
31
0
100
AcDbText
73
1
0
ENDBLK
5
69
330
45
100
AcDbEntity
8
0
100
AcDbBlockEnd
0
BLOCK
5
6A
330
4C
100
AcDbEntity
8
0
100
AcDbBlockBegin
2
*D3
70
1
10
0
20
0
30
0
3
*D3
1

0
LINE
5
4D
330
4C
100
AcDbEntity
8
0
100
AcDbLine
10
87
20
92.2
30
0
11
87
21
73.8
31
0
0
LINE
5
4E
330
4C
100
AcDbEntity
8
0
100
AcDbLine
10
137
20
92.2
30
0
11
137
21
73.8
31
0
0
LINE
5
4F
330
4C
100
AcDbEntity
8
0
100
AcDbLine
10
87
20
75
30
0
11
137
21
75
31
0
0
SOLID
5
50
330
4C
100
AcDbEntity
8
0
100
AcDbTrace
10
87
20
75
30
0
11
89.4
21
75.72
31
0
12
89.4
22
74.28
32
0
13
89.4
23
74.28
33
0
0
SOLID
5
51
330
4C
100
AcDbEntity
8
0
100
AcDbTrace
10
137
20
75
30
0
11
134.6
21
74.28
31
0
12
134.6
22
75.72
32
0
13
134.6
23
75.72
33
0
0
TEXT
5
52
330
4C
100
AcDbEntity
8
0
100
AcDbText
10
112
20
76.95
30
0
40
3
1
50
72
1
11
112
21
76.95
31
0
100
AcDbText
73
1
0
ENDBLK
5
6B
330
4C
100
AcDbEntity
8
0
100
AcDbBlockEnd
0
BLOCK
5
6C
330
53
100
AcDbEntity
8
0
100
AcDbBlockBegin
2
*D4
70
1
10
0
20
0
30
0
3
*D4
1

0
LINE
5
54
330
53
100
AcDbEntity
8
0
100
AcDbLine
10
137
20
100.2
30
0
11
137
21
79.8
31
0
0
LINE
5
55
330
53
100
AcDbEntity
8
0
100
AcDbLine
10
167
20
100.2
30
0
11
167
21
79.8
31
0
0
LINE
5
56
330
53
100
AcDbEntity
8
0
100
AcDbLine
10
137
20
81
30
0
11
167
21
81
31
0
0
SOLID
5
57
330
53
100
AcDbEntity
8
0
100
AcDbTrace
10
137
20
81
30
0
11
139.4
21
81.72
31
0
12
139.4
22
80.28
32
0
13
139.4
23
80.28
33
0
0
SOLID
5
58
330
53
100
AcDbEntity
8
0
100
AcDbTrace
10
167
20
81
30
0
11
164.6
21
80.28
31
0
12
164.6
22
81.72
32
0
13
164.6
23
81.72
33
0
0
TEXT
5
59
330
53
100
AcDbEntity
8
0
100
AcDbText
10
152
20
82.95
30
0
40
3
1
30
72
1
11
152
21
82.95
31
0
100
AcDbText
73
1
0
ENDBLK
5
6D
330
53
100
AcDbEntity
8
0
100
AcDbBlockEnd
0
BLOCK
5
6E
330
5A
100
AcDbEntity
8
0
100
AcDbBlockBegin
2
*D5
70
1
10
0
20
0
30
0
3
*D5
1

0
LINE
5
5B
330
5A
100
AcDbEntity
8
0
100
AcDbLine
10
86.2
20
93
30
0
11
32.8
21
93
31
0
0
LINE
5
5C
330
5A
100
AcDbEntity
8
0
100
AcDbLine
10
86.2
20
129
30
0
11
32.8
21
129
31
0
0
LINE
5
5D
330
5A
100
AcDbEntity
8
0
100
AcDbLine
10
34
20
93
30
0
11
34
21
129
31
0
0
SOLID
5
5E
330
5A
100
AcDbEntity
8
0
100
AcDbTrace
10
34
20
93
30
0
11
33.28
21
95.4
31
0
12
34.72
22
95.4
32
0
13
34.72
23
95.4
33
0
0
SOLID
5
5F
330
5A
100
AcDbEntity
8
0
100
AcDbTrace
10
34
20
129
30
0
11
34.72
21
126.6
31
0
12
33.28
22
126.6
32
0
13
33.28
23
126.6
33
0
0
TEXT
5
60
330
5A
100
AcDbEntity
8
0
100
AcDbText
10
32.05
20
111
30
0
40
3
1
36
50
90
72
1
11
32.05
21
111
31
0
100
AcDbText
73
1
0
ENDBLK
5
6F
330
5A
100
AcDbEntity
8
0
100
AcDbBlockEnd
0
ENDSEC
0
SECTION
2
ENTITIES
0
LWPOLYLINE
5
12
330
6
100
AcDbEntity
8
SHEET_FRAME
100
AcDbPolyline
90
4
70
1
38
0
10
8
20
8
10
289
20
8
10
289
20
202
10
8
20
202
0
LWPOLYLINE
5
13
330
6
100
AcDbEntity
8
SHEET_FRAME
100
AcDbPolyline
90
4
70
1
38
0
10
12
20
12
10
285
20
12
10
285
20
198
10
12
20
198
0
LINE
5
14
330
6
100
AcDbEntity
8
SHEET_FRAME
100
AcDbLine
10
12
20
183
30
0
11
285
21
183
31
0
0
LINE
5
15
330
6
100
AcDbEntity
8
SHEET_FRAME
100
AcDbLine
10
12
20
39
30
0
11
285
21
39
31
0
0
LINE
5
16
330
6
100
AcDbEntity
8
SHEET_FRAME
100
AcDbLine
10
12
20
26
30
0
11
285
21
26
31
0
0
LINE
5
17
330
6
100
AcDbEntity
8
SHEET_FRAME
100
AcDbLine
10
175
20
12
30
0
11
175
21
39
31
0
0
LINE
5
18
330
6
100
AcDbEntity
8
SHEET_FRAME
100
AcDbLine
10
238
20
12
30
0
11
238
21
39
31
0
0
TEXT
5
19
330
6
100
AcDbEntity
8
NOTES
100
AcDbText
10
17
20
190
30
0
40
4
1
KJDRAW  /  EDITABLE MACHINE COMPONENTS
100
AcDbText
0
TEXT
5
1A
330
6
100
AcDbEntity
8
NOTES
100
AcDbText
10
244
20
190
30
0
40
3.2
1
MC-201 / A
100
AcDbText
0
TEXT
5
1B
330
6
100
AcDbEntity
8
NOTES
100
AcDbText
10
16
20
30
30
0
40
2.4
1
PART
100
AcDbText
0
TEXT
5
1C
330
6
100
AcDbEntity
8
NOTES
100
AcDbText
10
47
20
29
30
0
40
4
1
STEPPED DRIVE SHAFT
100
AcDbText
0
TEXT
5
1D
330
6
100
AcDbEntity
8
NOTES
100
AcDbText
10
16
20
17
30
0
40
2.4
1
DRAWING
100
AcDbText
0
TEXT
5
1E
330
6
100
AcDbEntity
8
NOTES
100
AcDbText
10
47
20
17
30
0
40
3.8
1
MC-201
100
AcDbText
0
TEXT
5
1F
330
6
100
AcDbEntity
8
NOTES
100
AcDbText
10
179
20
30
30
0
40
2.4
1
MATERIAL
100
AcDbText
0
TEXT
5
20
330
6
100
AcDbEntity
8
NOTES
100
AcDbText
10
179
20
17
30
0
40
2.7
1
STEEL / CONCEPT
100
AcDbText
0
TEXT
5
21
330
6
100
AcDbEntity
8
NOTES
100
AcDbText
10
241
20
30
30
0
40
2.4
1
UNITS  mm
100
AcDbText
0
TEXT
5
22
330
6
100
AcDbEntity
8
NOTES
100
AcDbText
10
241
20
17
30
0
40
2.7
1
SCALE  1:1
100
AcDbText
0
TEXT
5
23
330
6
100
AcDbEntity
8
NOTES
100
AcDbText
10
16
20
43
30
0
40
2.65
1
ILLUSTRATIVE COMPONENT / DIMENSIONS REQUIRE DESIGN REVIEW
100
AcDbText
0
LWPOLYLINE
5
24
330
6
100
AcDbEntity
8
PART_OUTLINE
100
AcDbPolyline
90
12
70
1
38
0
10
52
20
99
10
87
20
99
10
87
20
93
10
137
20
93
10
137
20
101
10
167
20
101
10
167
20
121
10
137
20
121
10
137
20
129
10
87
20
129
10
87
20
123
10
52
20
123
0
LINE
5
25
330
6
100
AcDbEntity
8
CENTER_LINES
100
AcDbLine
10
45
20
111
30
0
11
174
21
111
31
0
0
LINE
5
26
330
6
100
AcDbEntity
8
CENTER_LINES
100
AcDbLine
10
87
20
87
30
0
11
87
21
135
31
0
0
LINE
5
27
330
6
100
AcDbEntity
8
CENTER_LINES
100
AcDbLine
10
137
20
87
30
0
11
137
21
135
31
0
0
CIRCLE
5
28
330
6
100
AcDbEntity
8
PART_OUTLINE
100
AcDbCircle
10
222
20
111
30
0
40
18
210
0
220
0
230
1
0
CIRCLE
5
29
330
6
100
AcDbEntity
8
PART_OUTLINE
100
AcDbCircle
10
222
20
111
30
0
40
12
210
0
220
0
230
1
0
LINE
5
2A
330
6
100
AcDbEntity
8
CENTER_LINES
100
AcDbLine
10
198
20
111
30
0
11
246
21
111
31
0
0
LINE
5
2B
330
6
100
AcDbEntity
8
CENTER_LINES
100
AcDbLine
10
222
20
87
30
0
11
222
21
135
31
0
0
DIMENSION
5
2C
330
6
100
AcDbEntity
8
DIMENSIONS
100
AcDbDimension
280
0
2
*D1
10
109.5
20
161
30
0
11
109.5
21
162.95
31
0
3
KJDRAW-SHOWCASE
70
33
71
5
42
115
100
AcDbAlignedDimension
13
52
23
129
33
0
14
167
24
129
34
0
1001
ACAD
1000
DSTYLE
1002
{
1070
140
1040
3
1070
40
1040
1
1070
41
1040
2.4
1070
42
1040
0.8
1070
44
1040
1.2
1070
144
1040
1
1070
78
1070
8
1070
271
1070
0
1070
277
1070
2
1070
278
1070
46
1002
}
0
DIMENSION
5
2D
330
6
100
AcDbEntity
8
DIMENSIONS
100
AcDbDimension
280
0
2
*D2
10
69.5
20
80
30
0
11
69.5
21
81.95
31
0
3
KJDRAW-SHOWCASE
70
33
71
5
42
35
100
AcDbAlignedDimension
13
52
23
99
33
0
14
87
24
99
34
0
1001
ACAD
1000
DSTYLE
1002
{
1070
140
1040
3
1070
40
1040
1
1070
41
1040
2.4
1070
42
1040
0.8
1070
44
1040
1.2
1070
144
1040
1
1070
78
1070
8
1070
271
1070
0
1070
277
1070
2
1070
278
1070
46
1002
}
0
DIMENSION
5
2E
330
6
100
AcDbEntity
8
DIMENSIONS
100
AcDbDimension
280
0
2
*D3
10
112
20
75
30
0
11
112
21
76.95
31
0
3
KJDRAW-SHOWCASE
70
33
71
5
42
50
100
AcDbAlignedDimension
13
87
23
93
33
0
14
137
24
93
34
0
1001
ACAD
1000
DSTYLE
1002
{
1070
140
1040
3
1070
40
1040
1
1070
41
1040
2.4
1070
42
1040
0.8
1070
44
1040
1.2
1070
144
1040
1
1070
78
1070
8
1070
271
1070
0
1070
277
1070
2
1070
278
1070
46
1002
}
0
DIMENSION
5
2F
330
6
100
AcDbEntity
8
DIMENSIONS
100
AcDbDimension
280
0
2
*D4
10
152
20
81
30
0
11
152
21
82.95
31
0
3
KJDRAW-SHOWCASE
70
33
71
5
42
30
100
AcDbAlignedDimension
13
137
23
101
33
0
14
167
24
101
34
0
1001
ACAD
1000
DSTYLE
1002
{
1070
140
1040
3
1070
40
1040
1
1070
41
1040
2.4
1070
42
1040
0.8
1070
44
1040
1.2
1070
144
1040
1
1070
78
1070
8
1070
271
1070
0
1070
277
1070
2
1070
278
1070
46
1002
}
0
DIMENSION
5
30
330
6
100
AcDbEntity
8
DIMENSIONS
100
AcDbDimension
280
0
2
*D5
10
34
20
111
30
0
11
32.05
21
111
31
0
3
KJDRAW-SHOWCASE
70
33
71
5
42
36
100
AcDbAlignedDimension
13
87
23
93
33
0
14
87
24
129
34
0
50
90
1001
ACAD
1000
DSTYLE
1002
{
1070
140
1040
3
1070
40
1040
1
1070
41
1040
2.4
1070
42
1040
0.8
1070
44
1040
1.2
1070
144
1040
1
1070
78
1070
8
1070
271
1070
0
1070
277
1070
2
1070
278
1070
46
1002
}
0
TEXT
5
31
330
6
100
AcDbEntity
8
NOTES
100
AcDbText
10
58
20
145
30
0
40
3.2
1
AXIAL VIEW
100
AcDbText
0
TEXT
5
32
330
6
100
AcDbEntity
8
NOTES
100
AcDbText
10
200
20
145
30
0
40
3.2
1
END VIEW
100
AcDbText
0
TEXT
5
33
330
6
100
AcDbEntity
8
NOTES
100
AcDbText
10
193
20
68
30
0
40
3
1
MAIN DIA 36
100
AcDbText
0
TEXT
5
34
330
6
100
AcDbEntity
8
NOTES
100
AcDbText
10
193
20
59
30
0
40
3
1
END DIA 24 / 20
100
AcDbText
0
TEXT
5
35
330
6
100
AcDbEntity
8
NOTES
100
AcDbText
10
51
20
54
30
0
40
2.9
1
CHAMFERS AND FITS ARE NOT SPECIFIED
100
AcDbText
0
ENDSEC
0
SECTION
2
OBJECTS
0
DICTIONARY
5
70
330
0
100
AcDbDictionary
281
1
3
ACAD_LAYOUT
350
71
0
DICTIONARY
5
71
330
70
100
AcDbDictionary
280
1
281
1
3
Model
350
8
3
Layout1
350
9
0
LAYOUT
5
8
102
{ACAD_REACTORS
330
71
102
}
330
71
100
AcDbPlotSettings
44
297
45
210
48
0
49
0
140
297
141
210
142
1
143
1
70
0
72
1
74
4
100
AcDbLayout
1
Model
70
1
71
0
12
0
22
0
32
0
14
100000000000000000000
24
100000000000000000000
34
100000000000000000000
15
-100000000000000000000
25
-100000000000000000000
35
-100000000000000000000
13
0
23
0
33
0
16
1
26
0
36
0
17
0
27
1
37
0
330
6
0
LAYOUT
5
9
102
{ACAD_REACTORS
330
71
102
}
330
71
100
AcDbPlotSettings
100
AcDbLayout
1
Layout1
70
1
71
1
10
0
20
0
11
420
21
297
12
0
22
0
32
0
14
100000000000000000000
24
100000000000000000000
34
100000000000000000000
15
-100000000000000000000
25
-100000000000000000000
35
-100000000000000000000
13
0
23
0
33
0
16
1
26
0
36
0
17
0
27
1
37
0
330
7
0
ENDSEC
0
EOF
