0
SECTION
2
HEADER
9
$ACADVER
1
AC1032
9
$DWGCODEPAGE
3
UTF-8
9
$HANDSEED
5
23C
9
$LTSCALE
40
1
9
$PDMODE
70
0
9
$PDSIZE
40
0
9
$TEXTSTYLE
7
STANDARD
9
$INSUNITS
70
4
9
$MEASUREMENT
70
1
0
ENDSEC
0
SECTION
2
TABLES
0
TABLE
2
LTYPE
5
22E
330
0
100
AcDbSymbolTable
70
2
0
LTYPE
5
2
330
22E
100
AcDbSymbolTableRecord
100
AcDbLinetypeTableRecord
2
CONTINUOUS
70
0
3
Solid line
72
65
73
0
40
0
0
LTYPE
5
A
330
22E
100
AcDbSymbolTableRecord
100
AcDbLinetypeTableRecord
2
GEO_2A0EAE730C511BD5_CONT
70
0
3

72
65
73
0
40
0
0
ENDTAB
0
TABLE
2
STYLE
5
22F
330
0
100
AcDbSymbolTable
70
1
0
STYLE
5
3
330
22F
100
AcDbSymbolTableRecord
100
AcDbTextStyleTableRecord
2
STANDARD
70
0
40
0
41
1
50
0
71
0
42
2.5
3
sans-serif
4

0
ENDTAB
0
TABLE
2
DIMSTYLE
5
230
330
0
100
AcDbSymbolTable
70
1
100
AcDbDimStyleTable
0
DIMSTYLE
105
4
330
230
100
AcDbSymbolTableRecord
100
AcDbDimStyleTableRecord
2
STANDARD
70
0
40
1
41
2.5
42
0.625
43
3.75
44
1.25
140
2.5
141
2.5
147
0.625
0
ENDTAB
0
TABLE
2
UCS
5
231
330
0
100
AcDbSymbolTable
70
0
0
ENDTAB
0
TABLE
2
VIEW
5
232
330
0
100
AcDbSymbolTable
70
0
0
ENDTAB
0
TABLE
2
LAYER
5
233
330
0
100
AcDbSymbolTable
70
6
0
LAYER
5
5
330
233
100
AcDbSymbolTableRecord
100
AcDbLayerTableRecord
2
0
70
0
62
7
6
CONTINUOUS
290
1
370
-1
0
LAYER
5
B
330
233
100
AcDbSymbolTableRecord
100
AcDbLayerTableRecord
2
GEO_FRAME
70
0
62
7
6
GEO_2A0EAE730C511BD5_CONT
290
1
370
35
0
LAYER
5
C
330
233
100
AcDbSymbolTableRecord
100
AcDbLayerTableRecord
2
GEO_BOUNDARY
70
0
62
7
6
GEO_2A0EAE730C511BD5_CONT
290
1
370
35
0
LAYER
5
D
330
233
100
AcDbSymbolTableRecord
100
AcDbLayerTableRecord
2
GEO_HATCH
70
0
62
8
6
GEO_2A0EAE730C511BD5_CONT
290
1
370
18
0
LAYER
5
E
330
233
100
AcDbSymbolTableRecord
100
AcDbLayerTableRecord
2
GEO_TEXT
70
0
62
7
6
GEO_2A0EAE730C511BD5_CONT
290
1
370
18
0
LAYER
5
F
330
233
100
AcDbSymbolTableRecord
100
AcDbLayerTableRecord
2
GEO_GUIDE
70
0
62
9
6
GEO_2A0EAE730C511BD5_CONT
290
1
370
9
0
ENDTAB
0
TABLE
2
BLOCK_RECORD
5
234
330
0
100
AcDbSymbolTable
70
2
0
BLOCK_RECORD
5
6
330
234
100
AcDbSymbolTableRecord
100
AcDbBlockTableRecord
2
*MODEL_SPACE
70
0
280
1
281
0
340
8
0
BLOCK_RECORD
5
7
330
234
100
AcDbSymbolTableRecord
100
AcDbBlockTableRecord
2
*PAPER_SPACE
70
0
280
1
281
0
340
9
0
ENDTAB
0
ENDSEC
0
SECTION
2
BLOCKS
0
BLOCK
5
236
330
6
100
AcDbEntity
8
0
100
AcDbBlockBegin
2
*MODEL_SPACE
70
0
10
0
20
0
30
0
3
*MODEL_SPACE
1

0
ENDBLK
5
237
330
6
100
AcDbEntity
8
0
100
AcDbBlockEnd
0
BLOCK
5
238
330
7
100
AcDbEntity
8
0
100
AcDbBlockBegin
2
*PAPER_SPACE
70
0
10
0
20
0
30
0
3
*PAPER_SPACE
1

0
ENDBLK
5
239
330
7
100
AcDbEntity
8
0
100
AcDbBlockEnd
0
ENDSEC
0
SECTION
2
ENTITIES
0
LWPOLYLINE
5
10
330
6
100
AcDbEntity
8
GEO_FRAME
100
AcDbPolyline
90
4
70
1
38
0
10
5
20
5
10
415
20
5
10
415
20
292
10
5
20
292
0
LWPOLYLINE
5
11
330
6
100
AcDbEntity
8
GEO_FRAME
100
AcDbPolyline
90
4
70
1
38
0
10
12
20
12
10
408
20
12
10
408
20
285
10
12
20
285
0
TEXT
5
12
330
6
100
AcDbEntity
8
GEO_TEXT
100
AcDbText
10
210
20
277
30
0
40
5
1
示例工程地质剖面 A-A / Synthetic
7
STANDARD
72
1
11
210
21
277
31
0
100
AcDbText
0
TEXT
5
13
330
6
100
AcDbEntity
8
GEO_TEXT
100
AcDbText
10
210
20
268
30
0
40
2.5
1
水平比例尺 1:500   垂直比例尺 1:200
7
STANDARD
72
1
11
210
21
268
31
0
100
AcDbText
0
LINE
5
14
330
6
100
AcDbEntity
8
GEO_BOUNDARY
100
AcDbLine
10
34
20
43
30
0
11
34
21
246
31
0
0
LINE
5
15
330
6
100
AcDbEntity
8
GEO_BOUNDARY
100
AcDbLine
10
34
20
43
30
0
11
400
21
43
31
0
0
LINE
5
16
330
6
100
AcDbEntity
8
GEO_BOUNDARY
100
AcDbLine
10
32.2
20
43
30
0
11
36.2
21
43
31
0
0
TEXT
5
17
330
6
100
AcDbEntity
8
GEO_TEXT
100
AcDbText
10
21
20
42.3
30
0
40
1.6
1
70
7
STANDARD
100
AcDbText
0
LINE
5
18
330
6
100
AcDbEntity
8
GEO_BOUNDARY
100
AcDbLine
10
32.2
20
53
30
0
11
36.2
21
53
31
0
0
TEXT
5
19
330
6
100
AcDbEntity
8
GEO_TEXT
100
AcDbText
10
21
20
52.3
30
0
40
1.6
1
72
7
STANDARD
100
AcDbText
0
LINE
5
1A
330
6
100
AcDbEntity
8
GEO_BOUNDARY
100
AcDbLine
10
32.2
20
63
30
0
11
36.2
21
63
31
0
0
TEXT
5
1B
330
6
100
AcDbEntity
8
GEO_TEXT
100
AcDbText
10
21
20
62.3
30
0
40
1.6
1
74
7
STANDARD
100
AcDbText
0
LINE
5
1C
330
6
100
AcDbEntity
8
GEO_BOUNDARY
100
AcDbLine
10
32.2
20
73
30
0
11
36.2
21
73
31
0
0
TEXT
5
1D
330
6
100
AcDbEntity
8
GEO_TEXT
100
AcDbText
10
21
20
72.3
30
0
40
1.6
1
76
7
STANDARD
100
AcDbText
0
LINE
5
1E
330
6
100
AcDbEntity
8
GEO_BOUNDARY
100
AcDbLine
10
32.2
20
83
30
0
11
36.2
21
83
31
0
0
TEXT
5
1F
330
6
100
AcDbEntity
8
GEO_TEXT
100
AcDbText
10
21
20
82.3
30
0
40
1.6
1
78
7
STANDARD
100
AcDbText
0
LINE
5
20
330
6
100
AcDbEntity
8
GEO_BOUNDARY
100
AcDbLine
10
32.2
20
93
30
0
11
36.2
21
93
31
0
0
TEXT
5
21
330
6
100
AcDbEntity
8
GEO_TEXT
100
AcDbText
10
21
20
92.3
30
0
40
1.6
1
80
7
STANDARD
100
AcDbText
0
LINE
5
22
330
6
100
AcDbEntity
8
GEO_BOUNDARY
100
AcDbLine
10
32.2
20
103
30
0
11
36.2
21
103
31
0
0
TEXT
5
23
330
6
100
AcDbEntity
8
GEO_TEXT
100
AcDbText
10
21
20
102.3
30
0
40
1.6
1
82
7
STANDARD
100
AcDbText
0
LINE
5
24
330
6
100
AcDbEntity
8
GEO_BOUNDARY
100
AcDbLine
10
32.2
20
113
30
0
11
36.2
21
113
31
0
0
TEXT
5
25
330
6
100
AcDbEntity
8
GEO_TEXT
100
AcDbText
10
21
20
112.3
30
0
40
1.6
1
84
7
STANDARD
100
AcDbText
0
LINE
5
26
330
6
100
AcDbEntity
8
GEO_BOUNDARY
100
AcDbLine
10
32.2
20
123
30
0
11
36.2
21
123
31
0
0
TEXT
5
27
330
6
100
AcDbEntity
8
GEO_TEXT
100
AcDbText
10
21
20
122.3
30
0
40
1.6
1
86
7
STANDARD
100
AcDbText
0
LINE
5
28
330
6
100
AcDbEntity
8
GEO_BOUNDARY
100
AcDbLine
10
32.2
20
133
30
0
11
36.2
21
133
31
0
0
TEXT
5
29
330
6
100
AcDbEntity
8
GEO_TEXT
100
AcDbText
10
21
20
132.3
30
0
40
1.6
1
88
7
STANDARD
100
AcDbText
0
LINE
5
2A
330
6
100
AcDbEntity
8
GEO_BOUNDARY
100
AcDbLine
10
32.2
20
143
30
0
11
36.2
21
143
31
0
0
TEXT
5
2B
330
6
100
AcDbEntity
8
GEO_TEXT
100
AcDbText
10
21
20
142.3
30
0
40
1.6
1
90
7
STANDARD
100
AcDbText
0
LINE
5
2C
330
6
100
AcDbEntity
8
GEO_BOUNDARY
100
AcDbLine
10
32.2
20
153
30
0
11
36.2
21
153
31
0
0
TEXT
5
2D
330
6
100
AcDbEntity
8
GEO_TEXT
100
AcDbText
10
21
20
152.3
30
0
40
1.6
1
92
7
STANDARD
100
AcDbText
0
LINE
5
2E
330
6
100
AcDbEntity
8
GEO_BOUNDARY
100
AcDbLine
10
32.2
20
163
30
0
11
36.2
21
163
31
0
0
TEXT
5
2F
330
6
100
AcDbEntity
8
GEO_TEXT
100
AcDbText
10
21
20
162.3
30
0
40
1.6
1
94
7
STANDARD
100
AcDbText
0
LINE
5
30
330
6
100
AcDbEntity
8
GEO_BOUNDARY
100
AcDbLine
10
32.2
20
173
30
0
11
36.2
21
173
31
0
0
TEXT
5
31
330
6
100
AcDbEntity
8
GEO_TEXT
100
AcDbText
10
21
20
172.3
30
0
40
1.6
1
96
7
STANDARD
100
AcDbText
0
LINE
5
32
330
6
100
AcDbEntity
8
GEO_BOUNDARY
100
AcDbLine
10
32.2
20
183
30
0
11
36.2
21
183
31
0
0
TEXT
5
33
330
6
100
AcDbEntity
8
GEO_TEXT
100
AcDbText
10
21
20
182.3
30
0
40
1.6
1
98
7
STANDARD
100
AcDbText
0
LINE
5
34
330
6
100
AcDbEntity
8
GEO_BOUNDARY
100
AcDbLine
10
32.2
20
193
30
0
11
36.2
21
193
31
0
0
TEXT
5
35
330
6
100
AcDbEntity
8
GEO_TEXT
100
AcDbText
10
21
20
192.3
30
0
40
1.6
1
100
7
STANDARD
100
AcDbText
0
LINE
5
36
330
6
100
AcDbEntity
8
GEO_BOUNDARY
100
AcDbLine
10
32.2
20
203
30
0
11
36.2
21
203
31
0
0
TEXT
5
37
330
6
100
AcDbEntity
8
GEO_TEXT
100
AcDbText
10
21
20
202.3
30
0
40
1.6
1
102
7
STANDARD
100
AcDbText
0
LINE
5
38
330
6
100
AcDbEntity
8
GEO_BOUNDARY
100
AcDbLine
10
32.2
20
213
30
0
11
36.2
21
213
31
0
0
TEXT
5
39
330
6
100
AcDbEntity
8
GEO_TEXT
100
AcDbText
10
21
20
212.3
30
0
40
1.6
1
104
7
STANDARD
100
AcDbText
0
LINE
5
3A
330
6
100
AcDbEntity
8
GEO_BOUNDARY
100
AcDbLine
10
32.2
20
223
30
0
11
36.2
21
223
31
0
0
TEXT
5
3B
330
6
100
AcDbEntity
8
GEO_TEXT
100
AcDbText
10
21
20
222.3
30
0
40
1.6
1
106
7
STANDARD
100
AcDbText
0
LINE
5
3C
330
6
100
AcDbEntity
8
GEO_BOUNDARY
100
AcDbLine
10
32.2
20
233
30
0
11
36.2
21
233
31
0
0
TEXT
5
3D
330
6
100
AcDbEntity
8
GEO_TEXT
100
AcDbText
10
21
20
232.3
30
0
40
1.6
1
108
7
STANDARD
100
AcDbText
0
LWPOLYLINE
5
3E
330
6
100
AcDbEntity
8
GEO_FRAME
100
AcDbPolyline
90
4
70
1
38
0
10
12
20
12
10
408
20
12
10
408
20
22
10
12
20
22
0
LINE
5
3F
330
6
100
AcDbEntity
8
GEO_BOUNDARY
100
AcDbLine
10
22
20
12
30
0
11
22
21
22
31
0
0
TEXT
5
40
330
6
100
AcDbEntity
8
GEO_TEXT
100
AcDbText
10
13.2
20
14.8
30
0
40
1.6
1
工程名称
7
STANDARD
100
AcDbText
0
TEXT
5
41
330
6
100
AcDbEntity
8
GEO_TEXT
100
AcDbText
10
23.2
20
14.8
30
0
40
1.6
1
合成示例
7
STANDARD
100
AcDbText
0
LINE
5
42
330
6
100
AcDbEntity
8
GEO_FRAME
100
AcDbLine
10
180
20
12
30
0
11
180
21
22
31
0
0
LINE
5
43
330
6
100
AcDbEntity
8
GEO_BOUNDARY
100
AcDbLine
10
190
20
12
30
0
11
190
21
22
31
0
0
TEXT
5
44
330
6
100
AcDbEntity
8
GEO_TEXT
100
AcDbText
10
181.2
20
14.8
30
0
40
1.6
1
勘察单位
7
STANDARD
100
AcDbText
0
LINE
5
45
330
6
100
AcDbEntity
8
GEO_FRAME
100
AcDbLine
10
254
20
12
30
0
11
254
21
22
31
0
0
LINE
5
46
330
6
100
AcDbEntity
8
GEO_BOUNDARY
100
AcDbLine
10
260.5
20
12
30
0
11
260.5
21
22
31
0
0
TEXT
5
47
330
6
100
AcDbEntity
8
GEO_TEXT
100
AcDbText
10
255.2
20
14.8
30
0
40
1.6
1
编制
7
STANDARD
100
AcDbText
0
LINE
5
48
330
6
100
AcDbEntity
8
GEO_FRAME
100
AcDbLine
10
288
20
12
30
0
11
288
21
22
31
0
0
LINE
5
49
330
6
100
AcDbEntity
8
GEO_BOUNDARY
100
AcDbLine
10
294.5
20
12
30
0
11
294.5
21
22
31
0
0
TEXT
5
4A
330
6
100
AcDbEntity
8
GEO_TEXT
100
AcDbText
10
289.2
20
14.8
30
0
40
1.6
1
校核
7
STANDARD
100
AcDbText
0
LINE
5
4B
330
6
100
AcDbEntity
8
GEO_FRAME
100
AcDbLine
10
322
20
12
30
0
11
322
21
22
31
0
0
LINE
5
4C
330
6
100
AcDbEntity
8
GEO_BOUNDARY
100
AcDbLine
10
328.5
20
12
30
0
11
328.5
21
22
31
0
0
TEXT
5
4D
330
6
100
AcDbEntity
8
GEO_TEXT
100
AcDbText
10
323.2
20
14.8
30
0
40
1.6
1
审核
7
STANDARD
100
AcDbText
0
LINE
5
4E
330
6
100
AcDbEntity
8
GEO_FRAME
100
AcDbLine
10
356
20
12
30
0
11
356
21
22
31
0
0
LINE
5
4F
330
6
100
AcDbEntity
8
GEO_BOUNDARY
100
AcDbLine
10
362.5
20
12
30
0
11
362.5
21
22
31
0
0
TEXT
5
50
330
6
100
AcDbEntity
8
GEO_TEXT
100
AcDbText
10
357.2
20
14.8
30
0
40
1.6
1
图号
7
STANDARD
100
AcDbText
0
LWPOLYLINE
5
51
330
6
100
AcDbEntity
8
GEO_BOUNDARY
100
AcDbPolyline
90
8
70
0
38
0
10
52
20
240.00000000000003
10
88
20
238
10
130
20
234.5
10
174
20
241.5
10
218
20
237
10
264
20
232.50000000000003
10
312
20
235.5
10
362
20
230.99999999999997
0
LINE
5
52
330
6
100
AcDbEntity
8
GEO_GUIDE
100
AcDbLine
10
52
20
22
30
0
11
52
21
240.00000000000003
31
0
0
LWPOLYLINE
5
53
330
6
100
AcDbEntity
8
GEO_BOUNDARY
100
AcDbPolyline
90
4
70
1
38
0
10
50.4
20
90.00000000000003
10
53.6
20
90.00000000000003
10
53.6
20
240.00000000000003
10
50.4
20
240.00000000000003
0
LINE
5
54
330
6
100
AcDbEntity
8
GEO_BOUNDARY
100
AcDbLine
10
47
20
244.70000000000002
30
0
11
57
21
244.70000000000002
31
0
0
TEXT
5
55
330
6
100
AcDbEntity
8
GEO_TEXT
100
AcDbText
10
52
20
246.20000000000002
30
0
40
2.1
1
SYN-01
7
STANDARD
72
1
11
52
21
246.20000000000002
31
0
100
AcDbText
0
TEXT
5
56
330
6
100
AcDbEntity
8
GEO_TEXT
100
AcDbText
10
52
20
243.20000000000002
30
0
40
1.5
1
109.40
7
STANDARD
72
1
11
52
21
243.20000000000002
31
0
100
AcDbText
0
TEXT
5
57
330
6
100
AcDbEntity
8
GEO_TEXT
100
AcDbText
10
43
20
35
30
0
40
1.7
1
里程 0.00
7
STANDARD
100
AcDbText
0
TEXT
5
58
330
6
100
AcDbEntity
8
GEO_TEXT
100
AcDbText
10
43
20
30
30
0
40
1.7
1
孔深 30.00
7
STANDARD
100
AcDbText
0
LINE
5
59
330
6
100
AcDbEntity
8
GEO_BOUNDARY
100
AcDbLine
10
49.4
20
231.00000000000006
30
0
11
58.6
21
231.00000000000006
31
0
0
HATCH
5
5A
330
6
100
AcDbEntity
8
GEO_HATCH
100
AcDbHatch
10
0
20
0
30
0
2
GEO_FILL
70
0
71
0
91
1
92
3
72
0
73
1
93
4
10
50.4
20
231.00000000000006
10
53.6
20
231.00000000000006
10
53.6
20
240.00000000000003
10
50.4
20
240.00000000000003
97
0
75
0
76
1
52
0
41
1
77
0
78
2
53
45
43
0
44
0
45
0
46
4
79
2
49
5
49
-3
53
315
43
1
44
0
45
0
46
7
79
2
49
2
49
-5
0
TEXT
5
5B
330
6
100
AcDbEntity
8
GEO_TEXT
100
AcDbText
10
55.1
20
231.50000000000006
30
0
40
1.35
1
1.80
7
STANDARD
100
AcDbText
0
LINE
5
5C
330
6
100
AcDbEntity
8
GEO_BOUNDARY
100
AcDbLine
10
49.4
20
208.50000000000006
30
0
11
58.6
21
208.50000000000006
31
0
0
HATCH
5
5D
330
6
100
AcDbEntity
8
GEO_HATCH
100
AcDbHatch
10
0
20
0
30
0
2
GEO_FINE_SOIL
70
0
71
0
91
1
92
3
72
0
73
1
93
4
10
50.4
20
208.50000000000006
10
53.6
20
208.50000000000006
10
53.6
20
231.00000000000006
10
50.4
20
231.00000000000006
97
0
75
0
76
1
52
0
41
1
77
0
78
1
53
0
43
0
44
0
45
0
46
3
79
2
49
0
49
-3
0
TEXT
5
5E
330
6
100
AcDbEntity
8
GEO_TEXT
100
AcDbText
10
55.1
20
209.00000000000006
30
0
40
1.35
1
6.30
7
STANDARD
100
AcDbText
0
LINE
5
5F
330
6
100
AcDbEntity
8
GEO_BOUNDARY
100
AcDbLine
10
49.4
20
179.50000000000006
30
0
11
58.6
21
179.50000000000006
31
0
0
HATCH
5
60
330
6
100
AcDbEntity
8
GEO_HATCH
100
AcDbHatch
10
0
20
0
30
0
2
GEO_SILTY_CLAY
70
0
71
0
91
1
92
3
72
0
73
1
93
4
10
50.4
20
179.50000000000006
10
53.6
20
179.50000000000006
10
53.6
20
208.50000000000006
10
50.4
20
208.50000000000006
97
0
75
0
76
1
52
0
41
1
77
0
78
2
53
0
43
0
44
0
45
0
46
3
79
2
49
2
49
-3
53
90
43
0
44
0
45
6
46
0
79
2
49
0
49
-6
0
TEXT
5
61
330
6
100
AcDbEntity
8
GEO_TEXT
100
AcDbText
10
55.1
20
180.00000000000006
30
0
40
1.35
1
12.10
7
STANDARD
100
AcDbText
0
LINE
5
62
330
6
100
AcDbEntity
8
GEO_BOUNDARY
100
AcDbLine
10
49.4
20
148.50000000000006
30
0
11
58.6
21
148.50000000000006
31
0
0
HATCH
5
63
330
6
100
AcDbEntity
8
GEO_HATCH
100
AcDbHatch
10
0
20
0
30
0
2
GEO_SAND
70
0
71
0
91
1
92
3
72
0
73
1
93
4
10
50.4
20
148.50000000000006
10
53.6
20
148.50000000000006
10
53.6
20
179.50000000000006
10
50.4
20
179.50000000000006
97
0
75
0
76
1
52
0
41
1
77
0
78
2
53
0
43
0
44
0
45
0
46
2.2
79
2
49
0
49
-2.2
53
0
43
1.1
44
1.1
45
0
46
4.4
79
2
49
0
49
-4.4
0
TEXT
5
64
330
6
100
AcDbEntity
8
GEO_TEXT
100
AcDbText
10
55.1
20
149.00000000000006
30
0
40
1.35
1
18.30
7
STANDARD
100
AcDbText
0
LINE
5
65
330
6
100
AcDbEntity
8
GEO_BOUNDARY
100
AcDbLine
10
49.4
20
119.00000000000001
30
0
11
58.6
21
119.00000000000001
31
0
0
HATCH
5
66
330
6
100
AcDbEntity
8
GEO_HATCH
100
AcDbHatch
10
0
20
0
30
0
2
GEO_GRAVEL
70
0
71
0
91
1
92
3
72
0
73
1
93
4
10
50.4
20
119.00000000000001
10
53.6
20
119.00000000000001
10
53.6
20
148.50000000000006
10
50.4
20
148.50000000000006
97
0
75
0
76
1
52
0
41
1
77
0
78
2
53
45
43
0
44
0
45
0
46
6
79
2
49
1.5
49
-4.5
53
315
43
2
44
0
45
0
46
6
79
2
49
1.5
49
-4.5
0
TEXT
5
67
330
6
100
AcDbEntity
8
GEO_TEXT
100
AcDbText
10
55.1
20
119.50000000000001
30
0
40
1.35
1
24.20
7
STANDARD
100
AcDbText
0
LINE
5
68
330
6
100
AcDbEntity
8
GEO_BOUNDARY
100
AcDbLine
10
49.4
20
90.00000000000003
30
0
11
58.6
21
90.00000000000003
31
0
0
HATCH
5
69
330
6
100
AcDbEntity
8
GEO_HATCH
100
AcDbHatch
10
0
20
0
30
0
2
GEO_WEATHERED_ROCK
70
0
71
0
91
1
92
3
72
0
73
1
93
4
10
50.4
20
90.00000000000003
10
53.6
20
90.00000000000003
10
53.6
20
119.00000000000001
10
50.4
20
119.00000000000001
97
0
75
0
76
1
52
0
41
1
77
0
78
2
53
30
43
0
44
0
45
0
46
3.5
79
2
49
5
49
-2
53
330
43
0
44
0
45
0
46
8
79
2
49
1.5
49
-6.5
0
TEXT
5
6A
330
6
100
AcDbEntity
8
GEO_TEXT
100
AcDbText
10
55.1
20
90.50000000000003
30
0
40
1.35
1
30.00
7
STANDARD
100
AcDbText
0
LINE
5
6B
330
6
100
AcDbEntity
8
GEO_BOUNDARY
100
AcDbLine
10
47
20
213.50000000000006
30
0
11
57
21
213.50000000000006
31
0
0
LWPOLYLINE
5
6C
330
6
100
AcDbEntity
8
GEO_BOUNDARY
100
AcDbPolyline
90
3
70
0
38
0
10
50
20
214.70000000000005
10
52
20
212.50000000000006
10
54
20
214.70000000000005
0
TEXT
5
6D
330
6
100
AcDbEntity
8
GEO_TEXT
100
AcDbText
10
58
20
212.80000000000007
30
0
40
1.5
1
水位 5.30
7
STANDARD
100
AcDbText
0
LWPOLYLINE
5
6E
330
6
100
AcDbEntity
8
GEO_BOUNDARY
100
AcDbPolyline
90
4
70
1
38
0
10
58.6
20
217.8
10
60.800000000000004
20
217.8
10
60.800000000000004
20
220.2
10
58.6
20
220.2
0
TEXT
5
6F
330
6
100
AcDbEntity
8
GEO_TEXT
100
AcDbText
10
61.800000000000004
20
218.3
30
0
40
1.5
1
S1-1
7
STANDARD
100
AcDbText
0
LINE
5
70
330
6
100
AcDbEntity
8
GEO_BOUNDARY
100
AcDbLine
10
58.6
20
192.50000000000003
30
0
11
61.1
21
192.50000000000003
31
0
0
TEXT
5
71
330
6
100
AcDbEntity
8
GEO_TEXT
100
AcDbText
10
61.800000000000004
20
191.80000000000004
30
0
40
1.5
1
N=12
7
STANDARD
100
AcDbText
0
LINE
5
72
330
6
100
AcDbEntity
8
GEO_BOUNDARY
100
AcDbLine
10
58.6
20
157.50000000000003
30
0
11
61.1
21
157.50000000000003
31
0
0
TEXT
5
73
330
6
100
AcDbEntity
8
GEO_TEXT
100
AcDbText
10
61.800000000000004
20
156.80000000000004
30
0
40
1.5
1
N=21
7
STANDARD
100
AcDbText
0
LWPOLYLINE
5
74
330
6
100
AcDbEntity
8
GEO_BOUNDARY
100
AcDbPolyline
90
4
70
1
38
0
10
58.6
20
132.30000000000007
10
60.800000000000004
20
132.30000000000007
10
60.800000000000004
20
134.70000000000005
10
58.6
20
134.70000000000005
0
TEXT
5
75
330
6
100
AcDbEntity
8
GEO_TEXT
100
AcDbText
10
61.800000000000004
20
132.80000000000007
30
0
40
1.5
1
S1-2
7
STANDARD
100
AcDbText
0
LINE
5
76
330
6
100
AcDbEntity
8
GEO_GUIDE
100
AcDbLine
10
88
20
22
30
0
11
88
21
238
31
0
0
LWPOLYLINE
5
77
330
6
100
AcDbEntity
8
GEO_BOUNDARY
100
AcDbPolyline
90
4
70
1
38
0
10
86.4
20
83
10
89.6
20
83
10
89.6
20
238
10
86.4
20
238
0
LINE
5
78
330
6
100
AcDbEntity
8
GEO_BOUNDARY
100
AcDbLine
10
83
20
242.7
30
0
11
93
21
242.7
31
0
0
TEXT
5
79
330
6
100
AcDbEntity
8
GEO_TEXT
100
AcDbText
10
88
20
244.2
30
0
40
2.1
1
SYN-02
7
STANDARD
72
1
11
88
21
244.2
31
0
100
AcDbText
0
TEXT
5
7A
330
6
100
AcDbEntity
8
GEO_TEXT
100
AcDbText
10
88
20
241.2
30
0
40
1.5
1
109.00
7
STANDARD
72
1
11
88
21
241.2
31
0
100
AcDbText
0
TEXT
5
7B
330
6
100
AcDbEntity
8
GEO_TEXT
100
AcDbText
10
79
20
35
30
0
40
1.7
1
里程 18.00
7
STANDARD
100
AcDbText
0
TEXT
5
7C
330
6
100
AcDbEntity
8
GEO_TEXT
100
AcDbText
10
79
20
30
30
0
40
1.7
1
孔深 31.00
7
STANDARD
100
AcDbText
0
LINE
5
7D
330
6
100
AcDbEntity
8
GEO_BOUNDARY
100
AcDbLine
10
85.4
20
228
30
0
11
94.6
21
228
31
0
0
HATCH
5
7E
330
6
100
AcDbEntity
8
GEO_HATCH
100
AcDbHatch
10
0
20
0
30
0
2
GEO_FILL
70
0
71
0
91
1
92
3
72
0
73
1
93
4
10
86.4
20
228
10
89.6
20
228
10
89.6
20
238
10
86.4
20
238
97
0
75
0
76
1
52
0
41
1
77
0
78
2
53
45
43
0
44
0
45
0
46
4
79
2
49
5
49
-3
53
315
43
1
44
0
45
0
46
7
79
2
49
2
49
-5
0
TEXT
5
7F
330
6
100
AcDbEntity
8
GEO_TEXT
100
AcDbText
10
91.1
20
228.5
30
0
40
1.35
1
2.00
7
STANDARD
100
AcDbText
0
LINE
5
80
330
6
100
AcDbEntity
8
GEO_BOUNDARY
100
AcDbLine
10
85.4
20
205.25
30
0
11
94.6
21
205.25
31
0
0
HATCH
5
81
330
6
100
AcDbEntity
8
GEO_HATCH
100
AcDbHatch
10
0
20
0
30
0
2
GEO_FINE_SOIL
70
0
71
0
91
1
92
3
72
0
73
1
93
4
10
86.4
20
205.25
10
89.6
20
205.25
10
89.6
20
228
10
86.4
20
228
97
0
75
0
76
1
52
0
41
1
77
0
78
1
53
0
43
0
44
0
45
0
46
3
79
2
49
0
49
-3
0
TEXT
5
82
330
6
100
AcDbEntity
8
GEO_TEXT
100
AcDbText
10
91.1
20
205.75
30
0
40
1.35
1
6.55
7
STANDARD
100
AcDbText
0
LINE
5
83
330
6
100
AcDbEntity
8
GEO_BOUNDARY
100
AcDbLine
10
85.4
20
175.99999999999997
30
0
11
94.6
21
175.99999999999997
31
0
0
HATCH
5
84
330
6
100
AcDbEntity
8
GEO_HATCH
100
AcDbHatch
10
0
20
0
30
0
2
GEO_SILTY_CLAY
70
0
71
0
91
1
92
3
72
0
73
1
93
4
10
86.4
20
175.99999999999997
10
89.6
20
175.99999999999997
10
89.6
20
205.25
10
86.4
20
205.25
97
0
75
0
76
1
52
0
41
1
77
0
78
2
53
0
43
0
44
0
45
0
46
3
79
2
49
2
49
-3
53
90
43
0
44
0
45
6
46
0
79
2
49
0
49
-6
0
TEXT
5
85
330
6
100
AcDbEntity
8
GEO_TEXT
100
AcDbText
10
91.1
20
176.49999999999997
30
0
40
1.35
1
12.40
7
STANDARD
100
AcDbText
0
LINE
5
86
330
6
100
AcDbEntity
8
GEO_BOUNDARY
100
AcDbLine
10
85.4
20
145.25
30
0
11
94.6
21
145.25
31
0
0
HATCH
5
87
330
6
100
AcDbEntity
8
GEO_HATCH
100
AcDbHatch
10
0
20
0
30
0
2
GEO_SAND
70
0
71
0
91
1
92
3
72
0
73
1
93
4
10
86.4
20
145.25
10
89.6
20
145.25
10
89.6
20
175.99999999999997
10
86.4
20
175.99999999999997
97
0
75
0
76
1
52
0
41
1
77
0
78
2
53
0
43
0
44
0
45
0
46
2.2
79
2
49
0
49
-2.2
53
0
43
1.1
44
1.1
45
0
46
4.4
79
2
49
0
49
-4.4
0
TEXT
5
88
330
6
100
AcDbEntity
8
GEO_TEXT
100
AcDbText
10
91.1
20
145.75
30
0
40
1.35
1
18.55
7
STANDARD
100
AcDbText
0
LINE
5
89
330
6
100
AcDbEntity
8
GEO_BOUNDARY
100
AcDbLine
10
85.4
20
115.99999999999997
30
0
11
94.6
21
115.99999999999997
31
0
0
HATCH
5
8A
330
6
100
AcDbEntity
8
GEO_HATCH
100
AcDbHatch
10
0
20
0
30
0
2
GEO_GRAVEL
70
0
71
0
91
1
92
3
72
0
73
1
93
4
10
86.4
20
115.99999999999997
10
89.6
20
115.99999999999997
10
89.6
20
145.25
10
86.4
20
145.25
97
0
75
0
76
1
52
0
41
1
77
0
78
2
53
45
43
0
44
0
45
0
46
6
79
2
49
1.5
49
-4.5
53
315
43
2
44
0
45
0
46
6
79
2
49
1.5
49
-4.5
0
TEXT
5
8B
330
6
100
AcDbEntity
8
GEO_TEXT
100
AcDbText
10
91.1
20
116.49999999999997
30
0
40
1.35
1
24.40
7
STANDARD
100
AcDbText
0
LINE
5
8C
330
6
100
AcDbEntity
8
GEO_BOUNDARY
100
AcDbLine
10
85.4
20
83
30
0
11
94.6
21
83
31
0
0
HATCH
5
8D
330
6
100
AcDbEntity
8
GEO_HATCH
100
AcDbHatch
10
0
20
0
30
0
2
GEO_WEATHERED_ROCK
70
0
71
0
91
1
92
3
72
0
73
1
93
4
10
86.4
20
83
10
89.6
20
83
10
89.6
20
115.99999999999997
10
86.4
20
115.99999999999997
97
0
75
0
76
1
52
0
41
1
77
0
78
2
53
30
43
0
44
0
45
0
46
3.5
79
2
49
5
49
-2
53
330
43
0
44
0
45
0
46
8
79
2
49
1.5
49
-6.5
0
TEXT
5
8E
330
6
100
AcDbEntity
8
GEO_TEXT
100
AcDbText
10
91.1
20
83.5
30
0
40
1.35
1
31.00
7
STANDARD
100
AcDbText
0
LINE
5
8F
330
6
100
AcDbEntity
8
GEO_BOUNDARY
100
AcDbLine
10
83
20
210.99999999999997
30
0
11
93
21
210.99999999999997
31
0
0
LWPOLYLINE
5
90
330
6
100
AcDbEntity
8
GEO_BOUNDARY
100
AcDbPolyline
90
3
70
0
38
0
10
86
20
212.19999999999996
10
88
20
209.99999999999997
10
90
20
212.19999999999996
0
TEXT
5
91
330
6
100
AcDbEntity
8
GEO_TEXT
100
AcDbText
10
94
20
210.29999999999998
30
0
40
1.5
1
水位 5.40
7
STANDARD
100
AcDbText
0
LWPOLYLINE
5
92
330
6
100
AcDbEntity
8
GEO_BOUNDARY
100
AcDbPolyline
90
4
70
1
38
0
10
94.6
20
215.8
10
96.8
20
215.8
10
96.8
20
218.2
10
94.6
20
218.2
0
TEXT
5
93
330
6
100
AcDbEntity
8
GEO_TEXT
100
AcDbText
10
97.8
20
216.3
30
0
40
1.5
1
S2-1
7
STANDARD
100
AcDbText
0
LINE
5
94
330
6
100
AcDbEntity
8
GEO_BOUNDARY
100
AcDbLine
10
94.6
20
190.5
30
0
11
97.1
21
190.5
31
0
0
TEXT
5
95
330
6
100
AcDbEntity
8
GEO_TEXT
100
AcDbText
10
97.8
20
189.8
30
0
40
1.5
1
N=13
7
STANDARD
100
AcDbText
0
LINE
5
96
330
6
100
AcDbEntity
8
GEO_BOUNDARY
100
AcDbLine
10
94.6
20
155.5
30
0
11
97.1
21
155.5
31
0
0
TEXT
5
97
330
6
100
AcDbEntity
8
GEO_TEXT
100
AcDbText
10
97.8
20
154.8
30
0
40
1.5
1
N=22
7
STANDARD
100
AcDbText
0
LWPOLYLINE
5
98
330
6
100
AcDbEntity
8
GEO_BOUNDARY
100
AcDbPolyline
90
4
70
1
38
0
10
94.6
20
130.3
10
96.8
20
130.3
10
96.8
20
132.7
10
94.6
20
132.7
0
TEXT
5
99
330
6
100
AcDbEntity
8
GEO_TEXT
100
AcDbText
10
97.8
20
130.8
30
0
40
1.5
1
S2-2
7
STANDARD
100
AcDbText
0
LINE
5
9A
330
6
100
AcDbEntity
8
GEO_GUIDE
100
AcDbLine
10
130
20
22
30
0
11
130
21
234.5
31
0
0
LWPOLYLINE
5
9B
330
6
100
AcDbEntity
8
GEO_BOUNDARY
100
AcDbPolyline
90
4
70
1
38
0
10
128.4
20
89.49999999999999
10
131.6
20
89.49999999999999
10
131.6
20
234.5
10
128.4
20
234.5
0
LINE
5
9C
330
6
100
AcDbEntity
8
GEO_BOUNDARY
100
AcDbLine
10
125
20
239.2
30
0
11
135
21
239.2
31
0
0
TEXT
5
9D
330
6
100
AcDbEntity
8
GEO_TEXT
100
AcDbText
10
130
20
240.7
30
0
40
2.1
1
SYN-03
7
STANDARD
72
1
11
130
21
240.7
31
0
100
AcDbText
0
TEXT
5
9E
330
6
100
AcDbEntity
8
GEO_TEXT
100
AcDbText
10
130
20
237.7
30
0
40
1.5
1
108.30
7
STANDARD
72
1
11
130
21
237.7
31
0
100
AcDbText
0
TEXT
5
9F
330
6
100
AcDbEntity
8
GEO_TEXT
100
AcDbText
10
121
20
35
30
0
40
1.7
1
里程 39.00
7
STANDARD
100
AcDbText
0
TEXT
5
A0
330
6
100
AcDbEntity
8
GEO_TEXT
100
AcDbText
10
121
20
30
30
0
40
1.7
1
孔深 29.00
7
STANDARD
100
AcDbText
0
LINE
5
A1
330
6
100
AcDbEntity
8
GEO_BOUNDARY
100
AcDbLine
10
127.4
20
223.49999999999997
30
0
11
136.6
21
223.49999999999997
31
0
0
HATCH
5
A2
330
6
100
AcDbEntity
8
GEO_HATCH
100
AcDbHatch
10
0
20
0
30
0
2
GEO_FILL
70
0
71
0
91
1
92
3
72
0
73
1
93
4
10
128.4
20
223.49999999999997
10
131.6
20
223.49999999999997
10
131.6
20
234.5
10
128.4
20
234.5
97
0
75
0
76
1
52
0
41
1
77
0
78
2
53
45
43
0
44
0
45
0
46
4
79
2
49
5
49
-3
53
315
43
1
44
0
45
0
46
7
79
2
49
2
49
-5
0
TEXT
5
A3
330
6
100
AcDbEntity
8
GEO_TEXT
100
AcDbText
10
133.1
20
223.99999999999997
30
0
40
1.35
1
2.20
7
STANDARD
100
AcDbText
0
LINE
5
A4
330
6
100
AcDbEntity
8
GEO_BOUNDARY
100
AcDbLine
10
127.4
20
200.5
30
0
11
136.6
21
200.5
31
0
0
HATCH
5
A5
330
6
100
AcDbEntity
8
GEO_HATCH
100
AcDbHatch
10
0
20
0
30
0
2
GEO_FINE_SOIL
70
0
71
0
91
1
92
3
72
0
73
1
93
4
10
128.4
20
200.5
10
131.6
20
200.5
10
131.6
20
223.49999999999997
10
128.4
20
223.49999999999997
97
0
75
0
76
1
52
0
41
1
77
0
78
1
53
0
43
0
44
0
45
0
46
3
79
2
49
0
49
-3
0
TEXT
5
A6
330
6
100
AcDbEntity
8
GEO_TEXT
100
AcDbText
10
133.1
20
201
30
0
40
1.35
1
6.80
7
STANDARD
100
AcDbText
0
LINE
5
A7
330
6
100
AcDbEntity
8
GEO_BOUNDARY
100
AcDbLine
10
127.4
20
170.99999999999997
30
0
11
136.6
21
170.99999999999997
31
0
0
HATCH
5
A8
330
6
100
AcDbEntity
8
GEO_HATCH
100
AcDbHatch
10
0
20
0
30
0
2
GEO_SILTY_CLAY
70
0
71
0
91
1
92
3
72
0
73
1
93
4
10
128.4
20
170.99999999999997
10
131.6
20
170.99999999999997
10
131.6
20
200.5
10
128.4
20
200.5
97
0
75
0
76
1
52
0
41
1
77
0
78
2
53
0
43
0
44
0
45
0
46
3
79
2
49
2
49
-3
53
90
43
0
44
0
45
6
46
0
79
2
49
0
49
-6
0
TEXT
5
A9
330
6
100
AcDbEntity
8
GEO_TEXT
100
AcDbText
10
133.1
20
171.49999999999997
30
0
40
1.35
1
12.70
7
STANDARD
100
AcDbText
0
LINE
5
AA
330
6
100
AcDbEntity
8
GEO_BOUNDARY
100
AcDbLine
10
127.4
20
140.5
30
0
11
136.6
21
140.5
31
0
0
HATCH
5
AB
330
6
100
AcDbEntity
8
GEO_HATCH
100
AcDbHatch
10
0
20
0
30
0
2
GEO_SAND
70
0
71
0
91
1
92
3
72
0
73
1
93
4
10
128.4
20
140.5
10
131.6
20
140.5
10
131.6
20
170.99999999999997
10
128.4
20
170.99999999999997
97
0
75
0
76
1
52
0
41
1
77
0
78
2
53
0
43
0
44
0
45
0
46
2.2
79
2
49
0
49
-2.2
53
0
43
1.1
44
1.1
45
0
46
4.4
79
2
49
0
49
-4.4
0
TEXT
5
AC
330
6
100
AcDbEntity
8
GEO_TEXT
100
AcDbText
10
133.1
20
141
30
0
40
1.35
1
18.80
7
STANDARD
100
AcDbText
0
LINE
5
AD
330
6
100
AcDbEntity
8
GEO_BOUNDARY
100
AcDbLine
10
127.4
20
111.49999999999994
30
0
11
136.6
21
111.49999999999994
31
0
0
HATCH
5
AE
330
6
100
AcDbEntity
8
GEO_HATCH
100
AcDbHatch
10
0
20
0
30
0
2
GEO_GRAVEL
70
0
71
0
91
1
92
3
72
0
73
1
93
4
10
128.4
20
111.49999999999994
10
131.6
20
111.49999999999994
10
131.6
20
140.5
10
128.4
20
140.5
97
0
75
0
76
1
52
0
41
1
77
0
78
2
53
45
43
0
44
0
45
0
46
6
79
2
49
1.5
49
-4.5
53
315
43
2
44
0
45
0
46
6
79
2
49
1.5
49
-4.5
0
TEXT
5
AF
330
6
100
AcDbEntity
8
GEO_TEXT
100
AcDbText
10
133.1
20
111.99999999999994
30
0
40
1.35
1
24.60
7
STANDARD
100
AcDbText
0
LINE
5
B0
330
6
100
AcDbEntity
8
GEO_BOUNDARY
100
AcDbLine
10
127.4
20
89.49999999999999
30
0
11
136.6
21
89.49999999999999
31
0
0
HATCH
5
B1
330
6
100
AcDbEntity
8
GEO_HATCH
100
AcDbHatch
10
0
20
0
30
0
2
GEO_WEATHERED_ROCK
70
0
71
0
91
1
92
3
72
0
73
1
93
4
10
128.4
20
89.49999999999999
10
131.6
20
89.49999999999999
10
131.6
20
111.49999999999994
10
128.4
20
111.49999999999994
97
0
75
0
76
1
52
0
41
1
77
0
78
2
53
30
43
0
44
0
45
0
46
3.5
79
2
49
5
49
-2
53
330
43
0
44
0
45
0
46
8
79
2
49
1.5
49
-6.5
0
TEXT
5
B2
330
6
100
AcDbEntity
8
GEO_TEXT
100
AcDbText
10
133.1
20
89.99999999999999
30
0
40
1.35
1
29.00
7
STANDARD
100
AcDbText
0
LINE
5
B3
330
6
100
AcDbEntity
8
GEO_BOUNDARY
100
AcDbLine
10
125
20
207
30
0
11
135
21
207
31
0
0
LWPOLYLINE
5
B4
330
6
100
AcDbEntity
8
GEO_BOUNDARY
100
AcDbPolyline
90
3
70
0
38
0
10
128
20
208.2
10
130
20
206
10
132
20
208.2
0
TEXT
5
B5
330
6
100
AcDbEntity
8
GEO_TEXT
100
AcDbText
10
136
20
206.3
30
0
40
1.5
1
水位 5.50
7
STANDARD
100
AcDbText
0
LWPOLYLINE
5
B6
330
6
100
AcDbEntity
8
GEO_BOUNDARY
100
AcDbPolyline
90
4
70
1
38
0
10
136.6
20
212.29999999999998
10
138.79999999999998
20
212.29999999999998
10
138.79999999999998
20
214.69999999999996
10
136.6
20
214.69999999999996
0
TEXT
5
B7
330
6
100
AcDbEntity
8
GEO_TEXT
100
AcDbText
10
139.79999999999998
20
212.79999999999998
30
0
40
1.5
1
S3-1
7
STANDARD
100
AcDbText
0
LINE
5
B8
330
6
100
AcDbEntity
8
GEO_BOUNDARY
100
AcDbLine
10
136.6
20
187
30
0
11
139.1
21
187
31
0
0
TEXT
5
B9
330
6
100
AcDbEntity
8
GEO_TEXT
100
AcDbText
10
139.79999999999998
20
186.3
30
0
40
1.5
1
N=14
7
STANDARD
100
AcDbText
0
LINE
5
BA
330
6
100
AcDbEntity
8
GEO_BOUNDARY
100
AcDbLine
10
136.6
20
152
30
0
11
139.1
21
152
31
0
0
TEXT
5
BB
330
6
100
AcDbEntity
8
GEO_TEXT
100
AcDbText
10
139.79999999999998
20
151.3
30
0
40
1.5
1
N=23
7
STANDARD
100
AcDbText
0
LWPOLYLINE
5
BC
330
6
100
AcDbEntity
8
GEO_BOUNDARY
100
AcDbPolyline
90
4
70
1
38
0
10
136.6
20
126.8
10
138.79999999999998
20
126.8
10
138.79999999999998
20
129.2
10
136.6
20
129.2
0
TEXT
5
BD
330
6
100
AcDbEntity
8
GEO_TEXT
100
AcDbText
10
139.79999999999998
20
127.3
30
0
40
1.5
1
S3-2
7
STANDARD
100
AcDbText
0
LINE
5
BE
330
6
100
AcDbEntity
8
GEO_GUIDE
100
AcDbLine
10
174
20
22
30
0
11
174
21
241.5
31
0
0
LWPOLYLINE
5
BF
330
6
100
AcDbEntity
8
GEO_BOUNDARY
100
AcDbPolyline
90
4
70
1
38
0
10
172.4
20
81.50000000000001
10
175.6
20
81.50000000000001
10
175.6
20
241.5
10
172.4
20
241.5
0
LINE
5
C0
330
6
100
AcDbEntity
8
GEO_BOUNDARY
100
AcDbLine
10
169
20
246.2
30
0
11
179
21
246.2
31
0
0
TEXT
5
C1
330
6
100
AcDbEntity
8
GEO_TEXT
100
AcDbText
10
174
20
247.7
30
0
40
2.1
1
SYN-04
7
STANDARD
72
1
11
174
21
247.7
31
0
100
AcDbText
0
TEXT
5
C2
330
6
100
AcDbEntity
8
GEO_TEXT
100
AcDbText
10
174
20
244.7
30
0
40
1.5
1
109.70
7
STANDARD
72
1
11
174
21
244.7
31
0
100
AcDbText
0
TEXT
5
C3
330
6
100
AcDbEntity
8
GEO_TEXT
100
AcDbText
10
165
20
35
30
0
40
1.7
1
里程 61.00
7
STANDARD
100
AcDbText
0
TEXT
5
C4
330
6
100
AcDbEntity
8
GEO_TEXT
100
AcDbText
10
165
20
30
30
0
40
1.7
1
孔深 32.00
7
STANDARD
100
AcDbText
0
LINE
5
C5
330
6
100
AcDbEntity
8
GEO_BOUNDARY
100
AcDbLine
10
171.4
20
232.50000000000003
30
0
11
180.6
21
232.50000000000003
31
0
0
HATCH
5
C6
330
6
100
AcDbEntity
8
GEO_HATCH
100
AcDbHatch
10
0
20
0
30
0
2
GEO_FILL
70
0
71
0
91
1
92
3
72
0
73
1
93
4
10
172.4
20
232.50000000000003
10
175.6
20
232.50000000000003
10
175.6
20
241.5
10
172.4
20
241.5
97
0
75
0
76
1
52
0
41
1
77
0
78
2
53
45
43
0
44
0
45
0
46
4
79
2
49
5
49
-3
53
315
43
1
44
0
45
0
46
7
79
2
49
2
49
-5
0
TEXT
5
C7
330
6
100
AcDbEntity
8
GEO_TEXT
100
AcDbText
10
177.1
20
233.00000000000003
30
0
40
1.35
1
1.80
7
STANDARD
100
AcDbText
0
LINE
5
C8
330
6
100
AcDbEntity
8
GEO_BOUNDARY
100
AcDbLine
10
171.4
20
206.25000000000003
30
0
11
180.6
21
206.25000000000003
31
0
0
HATCH
5
C9
330
6
100
AcDbEntity
8
GEO_HATCH
100
AcDbHatch
10
0
20
0
30
0
2
GEO_FINE_SOIL
70
0
71
0
91
1
92
3
72
0
73
1
93
4
10
172.4
20
206.25000000000003
10
175.6
20
206.25000000000003
10
175.6
20
232.50000000000003
10
172.4
20
232.50000000000003
97
0
75
0
76
1
52
0
41
1
77
0
78
1
53
0
43
0
44
0
45
0
46
3
79
2
49
0
49
-3
0
TEXT
5
CA
330
6
100
AcDbEntity
8
GEO_TEXT
100
AcDbText
10
177.1
20
206.75000000000003
30
0
40
1.35
1
7.05
7
STANDARD
100
AcDbText
0
LINE
5
CB
330
6
100
AcDbEntity
8
GEO_BOUNDARY
100
AcDbLine
10
171.4
20
181.00000000000006
30
0
11
180.6
21
181.00000000000006
31
0
0
HATCH
5
CC
330
6
100
AcDbEntity
8
GEO_HATCH
100
AcDbHatch
10
0
20
0
30
0
2
GEO_SILTY_CLAY
70
0
71
0
91
1
92
3
72
0
73
1
93
4
10
172.4
20
181.00000000000006
10
175.6
20
181.00000000000006
10
175.6
20
206.25000000000003
10
172.4
20
206.25000000000003
97
0
75
0
76
1
52
0
41
1
77
0
78
2
53
0
43
0
44
0
45
0
46
3
79
2
49
2
49
-3
53
90
43
0
44
0
45
6
46
0
79
2
49
0
49
-6
0
TEXT
5
CD
330
6
100
AcDbEntity
8
GEO_TEXT
100
AcDbText
10
177.1
20
181.50000000000006
30
0
40
1.35
1
12.10
7
STANDARD
100
AcDbText
0
LINE
5
CE
330
6
100
AcDbEntity
8
GEO_BOUNDARY
100
AcDbLine
10
171.4
20
146.25000000000003
30
0
11
180.6
21
146.25000000000003
31
0
0
HATCH
5
CF
330
6
100
AcDbEntity
8
GEO_HATCH
100
AcDbHatch
10
0
20
0
30
0
2
GEO_SAND
70
0
71
0
91
1
92
3
72
0
73
1
93
4
10
172.4
20
146.25000000000003
10
175.6
20
146.25000000000003
10
175.6
20
181.00000000000006
10
172.4
20
181.00000000000006
97
0
75
0
76
1
52
0
41
1
77
0
78
2
53
0
43
0
44
0
45
0
46
2.2
79
2
49
0
49
-2.2
53
0
43
1.1
44
1.1
45
0
46
4.4
79
2
49
0
49
-4.4
0
TEXT
5
D0
330
6
100
AcDbEntity
8
GEO_TEXT
100
AcDbText
10
177.1
20
146.75000000000003
30
0
40
1.35
1
19.05
7
STANDARD
100
AcDbText
0
LINE
5
D1
330
6
100
AcDbEntity
8
GEO_BOUNDARY
100
AcDbLine
10
171.4
20
120.5
30
0
11
180.6
21
120.5
31
0
0
HATCH
5
D2
330
6
100
AcDbEntity
8
GEO_HATCH
100
AcDbHatch
10
0
20
0
30
0
2
GEO_GRAVEL
70
0
71
0
91
1
92
3
72
0
73
1
93
4
10
172.4
20
120.5
10
175.6
20
120.5
10
175.6
20
146.25000000000003
10
172.4
20
146.25000000000003
97
0
75
0
76
1
52
0
41
1
77
0
78
2
53
45
43
0
44
0
45
0
46
6
79
2
49
1.5
49
-4.5
53
315
43
2
44
0
45
0
46
6
79
2
49
1.5
49
-4.5
0
TEXT
5
D3
330
6
100
AcDbEntity
8
GEO_TEXT
100
AcDbText
10
177.1
20
121
30
0
40
1.35
1
24.20
7
STANDARD
100
AcDbText
0
LINE
5
D4
330
6
100
AcDbEntity
8
GEO_BOUNDARY
100
AcDbLine
10
171.4
20
81.50000000000001
30
0
11
180.6
21
81.50000000000001
31
0
0
HATCH
5
D5
330
6
100
AcDbEntity
8
GEO_HATCH
100
AcDbHatch
10
0
20
0
30
0
2
GEO_WEATHERED_ROCK
70
0
71
0
91
1
92
3
72
0
73
1
93
4
10
172.4
20
81.50000000000001
10
175.6
20
81.50000000000001
10
175.6
20
120.5
10
172.4
20
120.5
97
0
75
0
76
1
52
0
41
1
77
0
78
2
53
30
43
0
44
0
45
0
46
3.5
79
2
49
5
49
-2
53
330
43
0
44
0
45
0
46
8
79
2
49
1.5
49
-6.5
0
TEXT
5
D6
330
6
100
AcDbEntity
8
GEO_TEXT
100
AcDbText
10
177.1
20
82.00000000000001
30
0
40
1.35
1
32.00
7
STANDARD
100
AcDbText
0
LINE
5
D7
330
6
100
AcDbEntity
8
GEO_BOUNDARY
100
AcDbLine
10
169
20
213.50000000000006
30
0
11
179
21
213.50000000000006
31
0
0
LWPOLYLINE
5
D8
330
6
100
AcDbEntity
8
GEO_BOUNDARY
100
AcDbPolyline
90
3
70
0
38
0
10
172
20
214.70000000000005
10
174
20
212.50000000000006
10
176
20
214.70000000000005
0
TEXT
5
D9
330
6
100
AcDbEntity
8
GEO_TEXT
100
AcDbText
10
180
20
212.80000000000007
30
0
40
1.5
1
水位 5.60
7
STANDARD
100
AcDbText
0
LWPOLYLINE
5
DA
330
6
100
AcDbEntity
8
GEO_BOUNDARY
100
AcDbPolyline
90
4
70
1
38
0
10
180.6
20
219.3
10
182.79999999999998
20
219.3
10
182.79999999999998
20
221.7
10
180.6
20
221.7
0
TEXT
5
DB
330
6
100
AcDbEntity
8
GEO_TEXT
100
AcDbText
10
183.79999999999998
20
219.8
30
0
40
1.5
1
S4-1
7
STANDARD
100
AcDbText
0
LINE
5
DC
330
6
100
AcDbEntity
8
GEO_BOUNDARY
100
AcDbLine
10
180.6
20
194
30
0
11
183.1
21
194
31
0
0
TEXT
5
DD
330
6
100
AcDbEntity
8
GEO_TEXT
100
AcDbText
10
183.79999999999998
20
193.3
30
0
40
1.5
1
N=15
7
STANDARD
100
AcDbText
0
LINE
5
DE
330
6
100
AcDbEntity
8
GEO_BOUNDARY
100
AcDbLine
10
180.6
20
159
30
0
11
183.1
21
159
31
0
0
TEXT
5
DF
330
6
100
AcDbEntity
8
GEO_TEXT
100
AcDbText
10
183.79999999999998
20
158.3
30
0
40
1.5
1
N=24
7
STANDARD
100
AcDbText
0
LWPOLYLINE
5
E0
330
6
100
AcDbEntity
8
GEO_BOUNDARY
100
AcDbPolyline
90
4
70
1
38
0
10
180.6
20
133.80000000000004
10
182.79999999999998
20
133.80000000000004
10
182.79999999999998
20
136.20000000000002
10
180.6
20
136.20000000000002
0
TEXT
5
E1
330
6
100
AcDbEntity
8
GEO_TEXT
100
AcDbText
10
183.79999999999998
20
134.30000000000004
30
0
40
1.5
1
S4-2
7
STANDARD
100
AcDbText
0
LINE
5
E2
330
6
100
AcDbEntity
8
GEO_GUIDE
100
AcDbLine
10
218
20
22
30
0
11
218
21
237
31
0
0
LWPOLYLINE
5
E3
330
6
100
AcDbEntity
8
GEO_BOUNDARY
100
AcDbPolyline
90
4
70
1
38
0
10
216.4
20
81.99999999999999
10
219.6
20
81.99999999999999
10
219.6
20
237
10
216.4
20
237
0
LINE
5
E4
330
6
100
AcDbEntity
8
GEO_BOUNDARY
100
AcDbLine
10
213
20
241.7
30
0
11
223
21
241.7
31
0
0
TEXT
5
E5
330
6
100
AcDbEntity
8
GEO_TEXT
100
AcDbText
10
218
20
243.2
30
0
40
2.1
1
SYN-05
7
STANDARD
72
1
11
218
21
243.2
31
0
100
AcDbText
0
TEXT
5
E6
330
6
100
AcDbEntity
8
GEO_TEXT
100
AcDbText
10
218
20
240.2
30
0
40
1.5
1
108.80
7
STANDARD
72
1
11
218
21
240.2
31
0
100
AcDbText
0
TEXT
5
E7
330
6
100
AcDbEntity
8
GEO_TEXT
100
AcDbText
10
209
20
35
30
0
40
1.7
1
里程 83.00
7
STANDARD
100
AcDbText
0
TEXT
5
E8
330
6
100
AcDbEntity
8
GEO_TEXT
100
AcDbText
10
209
20
30
30
0
40
1.7
1
孔深 31.00
7
STANDARD
100
AcDbText
0
LINE
5
E9
330
6
100
AcDbEntity
8
GEO_BOUNDARY
100
AcDbLine
10
215.4
20
227
30
0
11
224.6
21
227
31
0
0
HATCH
5
EA
330
6
100
AcDbEntity
8
GEO_HATCH
100
AcDbHatch
10
0
20
0
30
0
2
GEO_FILL
70
0
71
0
91
1
92
3
72
0
73
1
93
4
10
216.4
20
227
10
219.6
20
227
10
219.6
20
237
10
216.4
20
237
97
0
75
0
76
1
52
0
41
1
77
0
78
2
53
45
43
0
44
0
45
0
46
4
79
2
49
5
49
-3
53
315
43
1
44
0
45
0
46
7
79
2
49
2
49
-5
0
TEXT
5
EB
330
6
100
AcDbEntity
8
GEO_TEXT
100
AcDbText
10
221.1
20
227.5
30
0
40
1.35
1
2.00
7
STANDARD
100
AcDbText
0
LINE
5
EC
330
6
100
AcDbEntity
8
GEO_BOUNDARY
100
AcDbLine
10
215.4
20
205.5
30
0
11
224.6
21
205.5
31
0
0
HATCH
5
ED
330
6
100
AcDbEntity
8
GEO_HATCH
100
AcDbHatch
10
0
20
0
30
0
2
GEO_FINE_SOIL
70
0
71
0
91
1
92
3
72
0
73
1
93
4
10
216.4
20
205.5
10
219.6
20
205.5
10
219.6
20
227
10
216.4
20
227
97
0
75
0
76
1
52
0
41
1
77
0
78
1
53
0
43
0
44
0
45
0
46
3
79
2
49
0
49
-3
0
TEXT
5
EE
330
6
100
AcDbEntity
8
GEO_TEXT
100
AcDbText
10
221.1
20
206
30
0
40
1.35
1
6.30
7
STANDARD
100
AcDbText
0
LINE
5
EF
330
6
100
AcDbEntity
8
GEO_BOUNDARY
100
AcDbLine
10
215.4
20
174.99999999999994
30
0
11
224.6
21
174.99999999999994
31
0
0
HATCH
5
F0
330
6
100
AcDbEntity
8
GEO_HATCH
100
AcDbHatch
10
0
20
0
30
0
2
GEO_SILTY_CLAY
70
0
71
0
91
1
92
3
72
0
73
1
93
4
10
216.4
20
174.99999999999994
10
219.6
20
174.99999999999994
10
219.6
20
205.5
10
216.4
20
205.5
97
0
75
0
76
1
52
0
41
1
77
0
78
2
53
0
43
0
44
0
45
0
46
3
79
2
49
2
49
-3
53
90
43
0
44
0
45
6
46
0
79
2
49
0
49
-6
0
TEXT
5
F1
330
6
100
AcDbEntity
8
GEO_TEXT
100
AcDbText
10
221.1
20
175.49999999999994
30
0
40
1.35
1
12.40
7
STANDARD
100
AcDbText
0
LINE
5
F2
330
6
100
AcDbEntity
8
GEO_BOUNDARY
100
AcDbLine
10
215.4
20
145.5
30
0
11
224.6
21
145.5
31
0
0
HATCH
5
F3
330
6
100
AcDbEntity
8
GEO_HATCH
100
AcDbHatch
10
0
20
0
30
0
2
GEO_SAND
70
0
71
0
91
1
92
3
72
0
73
1
93
4
10
216.4
20
145.5
10
219.6
20
145.5
10
219.6
20
174.99999999999994
10
216.4
20
174.99999999999994
97
0
75
0
76
1
52
0
41
1
77
0
78
2
53
0
43
0
44
0
45
0
46
2.2
79
2
49
0
49
-2.2
53
0
43
1.1
44
1.1
45
0
46
4.4
79
2
49
0
49
-4.4
0
TEXT
5
F4
330
6
100
AcDbEntity
8
GEO_TEXT
100
AcDbText
10
221.1
20
146
30
0
40
1.35
1
18.30
7
STANDARD
100
AcDbText
0
LINE
5
F5
330
6
100
AcDbEntity
8
GEO_BOUNDARY
100
AcDbLine
10
215.4
20
115.00000000000003
30
0
11
224.6
21
115.00000000000003
31
0
0
HATCH
5
F6
330
6
100
AcDbEntity
8
GEO_HATCH
100
AcDbHatch
10
0
20
0
30
0
2
GEO_GRAVEL
70
0
71
0
91
1
92
3
72
0
73
1
93
4
10
216.4
20
115.00000000000003
10
219.6
20
115.00000000000003
10
219.6
20
145.5
10
216.4
20
145.5
97
0
75
0
76
1
52
0
41
1
77
0
78
2
53
45
43
0
44
0
45
0
46
6
79
2
49
1.5
49
-4.5
53
315
43
2
44
0
45
0
46
6
79
2
49
1.5
49
-4.5
0
TEXT
5
F7
330
6
100
AcDbEntity
8
GEO_TEXT
100
AcDbText
10
221.1
20
115.50000000000003
30
0
40
1.35
1
24.40
7
STANDARD
100
AcDbText
0
LINE
5
F8
330
6
100
AcDbEntity
8
GEO_BOUNDARY
100
AcDbLine
10
215.4
20
81.99999999999999
30
0
11
224.6
21
81.99999999999999
31
0
0
HATCH
5
F9
330
6
100
AcDbEntity
8
GEO_HATCH
100
AcDbHatch
10
0
20
0
30
0
2
GEO_WEATHERED_ROCK
70
0
71
0
91
1
92
3
72
0
73
1
93
4
10
216.4
20
81.99999999999999
10
219.6
20
81.99999999999999
10
219.6
20
115.00000000000003
10
216.4
20
115.00000000000003
97
0
75
0
76
1
52
0
41
1
77
0
78
2
53
30
43
0
44
0
45
0
46
3.5
79
2
49
5
49
-2
53
330
43
0
44
0
45
0
46
8
79
2
49
1.5
49
-6.5
0
TEXT
5
FA
330
6
100
AcDbEntity
8
GEO_TEXT
100
AcDbText
10
221.1
20
82.49999999999999
30
0
40
1.35
1
31.00
7
STANDARD
100
AcDbText
0
LINE
5
FB
330
6
100
AcDbEntity
8
GEO_BOUNDARY
100
AcDbLine
10
213
20
208.49999999999997
30
0
11
223
21
208.49999999999997
31
0
0
LWPOLYLINE
5
FC
330
6
100
AcDbEntity
8
GEO_BOUNDARY
100
AcDbPolyline
90
3
70
0
38
0
10
216
20
209.69999999999996
10
218
20
207.49999999999997
10
220
20
209.69999999999996
0
TEXT
5
FD
330
6
100
AcDbEntity
8
GEO_TEXT
100
AcDbText
10
224
20
207.79999999999998
30
0
40
1.5
1
水位 5.70
7
STANDARD
100
AcDbText
0
LWPOLYLINE
5
FE
330
6
100
AcDbEntity
8
GEO_BOUNDARY
100
AcDbPolyline
90
4
70
1
38
0
10
224.6
20
214.79999999999998
10
226.79999999999998
20
214.79999999999998
10
226.79999999999998
20
217.19999999999996
10
224.6
20
217.19999999999996
0
TEXT
5
FF
330
6
100
AcDbEntity
8
GEO_TEXT
100
AcDbText
10
227.79999999999998
20
215.29999999999998
30
0
40
1.5
1
S5-1
7
STANDARD
100
AcDbText
0
LINE
5
100
330
6
100
AcDbEntity
8
GEO_BOUNDARY
100
AcDbLine
10
224.6
20
189.5
30
0
11
227.1
21
189.5
31
0
0
TEXT
5
101
330
6
100
AcDbEntity
8
GEO_TEXT
100
AcDbText
10
227.79999999999998
20
188.8
30
0
40
1.5
1
N=16
7
STANDARD
100
AcDbText
0
LINE
5
102
330
6
100
AcDbEntity
8
GEO_BOUNDARY
100
AcDbLine
10
224.6
20
154.5
30
0
11
227.1
21
154.5
31
0
0
TEXT
5
103
330
6
100
AcDbEntity
8
GEO_TEXT
100
AcDbText
10
227.79999999999998
20
153.8
30
0
40
1.5
1
N=25
7
STANDARD
100
AcDbText
0
LWPOLYLINE
5
104
330
6
100
AcDbEntity
8
GEO_BOUNDARY
100
AcDbPolyline
90
4
70
1
38
0
10
224.6
20
129.3
10
226.79999999999998
20
129.3
10
226.79999999999998
20
131.7
10
224.6
20
131.7
0
TEXT
5
105
330
6
100
AcDbEntity
8
GEO_TEXT
100
AcDbText
10
227.79999999999998
20
129.8
30
0
40
1.5
1
S5-2
7
STANDARD
100
AcDbText
0
LINE
5
106
330
6
100
AcDbEntity
8
GEO_GUIDE
100
AcDbLine
10
264
20
22
30
0
11
264
21
232.50000000000003
31
0
0
LWPOLYLINE
5
107
330
6
100
AcDbEntity
8
GEO_BOUNDARY
100
AcDbPolyline
90
4
70
1
38
0
10
262.4
20
82.50000000000003
10
265.6
20
82.50000000000003
10
265.6
20
232.50000000000003
10
262.4
20
232.50000000000003
0
LINE
5
108
330
6
100
AcDbEntity
8
GEO_BOUNDARY
100
AcDbLine
10
259
20
237.20000000000002
30
0
11
269
21
237.20000000000002
31
0
0
TEXT
5
109
330
6
100
AcDbEntity
8
GEO_TEXT
100
AcDbText
10
264
20
238.70000000000002
30
0
40
2.1
1
SYN-06
7
STANDARD
72
1
11
264
21
238.70000000000002
31
0
100
AcDbText
0
TEXT
5
10A
330
6
100
AcDbEntity
8
GEO_TEXT
100
AcDbText
10
264
20
235.70000000000002
30
0
40
1.5
1
107.90
7
STANDARD
72
1
11
264
21
235.70000000000002
31
0
100
AcDbText
0
TEXT
5
10B
330
6
100
AcDbEntity
8
GEO_TEXT
100
AcDbText
10
255
20
35
30
0
40
1.7
1
里程 106.00
7
STANDARD
100
AcDbText
0
TEXT
5
10C
330
6
100
AcDbEntity
8
GEO_TEXT
100
AcDbText
10
255
20
30
30
0
40
1.7
1
孔深 30.00
7
STANDARD
100
AcDbText
0
LINE
5
10D
330
6
100
AcDbEntity
8
GEO_BOUNDARY
100
AcDbLine
10
261.4
20
221.5
30
0
11
270.6
21
221.5
31
0
0
HATCH
5
10E
330
6
100
AcDbEntity
8
GEO_HATCH
100
AcDbHatch
10
0
20
0
30
0
2
GEO_FILL
70
0
71
0
91
1
92
3
72
0
73
1
93
4
10
262.4
20
221.5
10
265.6
20
221.5
10
265.6
20
232.50000000000003
10
262.4
20
232.50000000000003
97
0
75
0
76
1
52
0
41
1
77
0
78
2
53
45
43
0
44
0
45
0
46
4
79
2
49
5
49
-3
53
315
43
1
44
0
45
0
46
7
79
2
49
2
49
-5
0
TEXT
5
10F
330
6
100
AcDbEntity
8
GEO_TEXT
100
AcDbText
10
267.1
20
222
30
0
40
1.35
1
2.20
7
STANDARD
100
AcDbText
0
LINE
5
110
330
6
100
AcDbEntity
8
GEO_BOUNDARY
100
AcDbLine
10
261.4
20
199.75000000000006
30
0
11
270.6
21
199.75000000000006
31
0
0
HATCH
5
111
330
6
100
AcDbEntity
8
GEO_HATCH
100
AcDbHatch
10
0
20
0
30
0
2
GEO_FINE_SOIL
70
0
71
0
91
1
92
3
72
0
73
1
93
4
10
262.4
20
199.75000000000006
10
265.6
20
199.75000000000006
10
265.6
20
221.5
10
262.4
20
221.5
97
0
75
0
76
1
52
0
41
1
77
0
78
1
53
0
43
0
44
0
45
0
46
3
79
2
49
0
49
-3
0
TEXT
5
112
330
6
100
AcDbEntity
8
GEO_TEXT
100
AcDbText
10
267.1
20
200.25000000000006
30
0
40
1.35
1
6.55
7
STANDARD
100
AcDbText
0
LINE
5
113
330
6
100
AcDbEntity
8
GEO_BOUNDARY
100
AcDbLine
10
261.4
20
169
30
0
11
270.6
21
169
31
0
0
HATCH
5
114
330
6
100
AcDbEntity
8
GEO_HATCH
100
AcDbHatch
10
0
20
0
30
0
2
GEO_SILTY_CLAY
70
0
71
0
91
1
92
3
72
0
73
1
93
4
10
262.4
20
169
10
265.6
20
169
10
265.6
20
199.75000000000006
10
262.4
20
199.75000000000006
97
0
75
0
76
1
52
0
41
1
77
0
78
2
53
0
43
0
44
0
45
0
46
3
79
2
49
2
49
-3
53
90
43
0
44
0
45
6
46
0
79
2
49
0
49
-6
0
TEXT
5
115
330
6
100
AcDbEntity
8
GEO_TEXT
100
AcDbText
10
267.1
20
169.5
30
0
40
1.35
1
12.70
7
STANDARD
100
AcDbText
0
LINE
5
116
330
6
100
AcDbEntity
8
GEO_BOUNDARY
100
AcDbLine
10
261.4
20
139.75000000000006
30
0
11
270.6
21
139.75000000000006
31
0
0
HATCH
5
117
330
6
100
AcDbEntity
8
GEO_HATCH
100
AcDbHatch
10
0
20
0
30
0
2
GEO_SAND
70
0
71
0
91
1
92
3
72
0
73
1
93
4
10
262.4
20
139.75000000000006
10
265.6
20
139.75000000000006
10
265.6
20
169
10
262.4
20
169
97
0
75
0
76
1
52
0
41
1
77
0
78
2
53
0
43
0
44
0
45
0
46
2.2
79
2
49
0
49
-2.2
53
0
43
1.1
44
1.1
45
0
46
4.4
79
2
49
0
49
-4.4
0
TEXT
5
118
330
6
100
AcDbEntity
8
GEO_TEXT
100
AcDbText
10
267.1
20
140.25000000000006
30
0
40
1.35
1
18.55
7
STANDARD
100
AcDbText
0
LINE
5
119
330
6
100
AcDbEntity
8
GEO_BOUNDARY
100
AcDbLine
10
261.4
20
109.50000000000006
30
0
11
270.6
21
109.50000000000006
31
0
0
HATCH
5
11A
330
6
100
AcDbEntity
8
GEO_HATCH
100
AcDbHatch
10
0
20
0
30
0
2
GEO_GRAVEL
70
0
71
0
91
1
92
3
72
0
73
1
93
4
10
262.4
20
109.50000000000006
10
265.6
20
109.50000000000006
10
265.6
20
139.75000000000006
10
262.4
20
139.75000000000006
97
0
75
0
76
1
52
0
41
1
77
0
78
2
53
45
43
0
44
0
45
0
46
6
79
2
49
1.5
49
-4.5
53
315
43
2
44
0
45
0
46
6
79
2
49
1.5
49
-4.5
0
TEXT
5
11B
330
6
100
AcDbEntity
8
GEO_TEXT
100
AcDbText
10
267.1
20
110.00000000000006
30
0
40
1.35
1
24.60
7
STANDARD
100
AcDbText
0
LINE
5
11C
330
6
100
AcDbEntity
8
GEO_BOUNDARY
100
AcDbLine
10
261.4
20
82.50000000000003
30
0
11
270.6
21
82.50000000000003
31
0
0
HATCH
5
11D
330
6
100
AcDbEntity
8
GEO_HATCH
100
AcDbHatch
10
0
20
0
30
0
2
GEO_WEATHERED_ROCK
70
0
71
0
91
1
92
3
72
0
73
1
93
4
10
262.4
20
82.50000000000003
10
265.6
20
82.50000000000003
10
265.6
20
109.50000000000006
10
262.4
20
109.50000000000006
97
0
75
0
76
1
52
0
41
1
77
0
78
2
53
30
43
0
44
0
45
0
46
3.5
79
2
49
5
49
-2
53
330
43
0
44
0
45
0
46
8
79
2
49
1.5
49
-6.5
0
TEXT
5
11E
330
6
100
AcDbEntity
8
GEO_TEXT
100
AcDbText
10
267.1
20
83.00000000000003
30
0
40
1.35
1
30.00
7
STANDARD
100
AcDbText
0
LINE
5
11F
330
6
100
AcDbEntity
8
GEO_BOUNDARY
100
AcDbLine
10
259
20
203.50000000000006
30
0
11
269
21
203.50000000000006
31
0
0
LWPOLYLINE
5
120
330
6
100
AcDbEntity
8
GEO_BOUNDARY
100
AcDbPolyline
90
3
70
0
38
0
10
262
20
204.70000000000005
10
264
20
202.50000000000006
10
266
20
204.70000000000005
0
TEXT
5
121
330
6
100
AcDbEntity
8
GEO_TEXT
100
AcDbText
10
270
20
202.80000000000007
30
0
40
1.5
1
水位 5.80
7
STANDARD
100
AcDbText
0
LWPOLYLINE
5
122
330
6
100
AcDbEntity
8
GEO_BOUNDARY
100
AcDbPolyline
90
4
70
1
38
0
10
270.6
20
210.3
10
272.8
20
210.3
10
272.8
20
212.7
10
270.6
20
212.7
0
TEXT
5
123
330
6
100
AcDbEntity
8
GEO_TEXT
100
AcDbText
10
273.8
20
210.8
30
0
40
1.5
1
S6-1
7
STANDARD
100
AcDbText
0
LINE
5
124
330
6
100
AcDbEntity
8
GEO_BOUNDARY
100
AcDbLine
10
270.6
20
185.00000000000003
30
0
11
273.1
21
185.00000000000003
31
0
0
TEXT
5
125
330
6
100
AcDbEntity
8
GEO_TEXT
100
AcDbText
10
273.8
20
184.30000000000004
30
0
40
1.5
1
N=17
7
STANDARD
100
AcDbText
0
LINE
5
126
330
6
100
AcDbEntity
8
GEO_BOUNDARY
100
AcDbLine
10
270.6
20
150.00000000000003
30
0
11
273.1
21
150.00000000000003
31
0
0
TEXT
5
127
330
6
100
AcDbEntity
8
GEO_TEXT
100
AcDbText
10
273.8
20
149.30000000000004
30
0
40
1.5
1
N=26
7
STANDARD
100
AcDbText
0
LWPOLYLINE
5
128
330
6
100
AcDbEntity
8
GEO_BOUNDARY
100
AcDbPolyline
90
4
70
1
38
0
10
270.6
20
124.80000000000004
10
272.8
20
124.80000000000004
10
272.8
20
127.20000000000005
10
270.6
20
127.20000000000005
0
TEXT
5
129
330
6
100
AcDbEntity
8
GEO_TEXT
100
AcDbText
10
273.8
20
125.30000000000004
30
0
40
1.5
1
S6-2
7
STANDARD
100
AcDbText
0
LINE
5
12A
330
6
100
AcDbEntity
8
GEO_GUIDE
100
AcDbLine
10
312
20
22
30
0
11
312
21
235.5
31
0
0
LWPOLYLINE
5
12B
330
6
100
AcDbEntity
8
GEO_BOUNDARY
100
AcDbPolyline
90
4
70
1
38
0
10
310.4
20
75.5
10
313.6
20
75.5
10
313.6
20
235.5
10
310.4
20
235.5
0
LINE
5
12C
330
6
100
AcDbEntity
8
GEO_BOUNDARY
100
AcDbLine
10
307
20
240.2
30
0
11
317
21
240.2
31
0
0
TEXT
5
12D
330
6
100
AcDbEntity
8
GEO_TEXT
100
AcDbText
10
312
20
241.7
30
0
40
2.1
1
SYN-07
7
STANDARD
72
1
11
312
21
241.7
31
0
100
AcDbText
0
TEXT
5
12E
330
6
100
AcDbEntity
8
GEO_TEXT
100
AcDbText
10
312
20
238.7
30
0
40
1.5
1
108.50
7
STANDARD
72
1
11
312
21
238.7
31
0
100
AcDbText
0
TEXT
5
12F
330
6
100
AcDbEntity
8
GEO_TEXT
100
AcDbText
10
303
20
35
30
0
40
1.7
1
里程 130.00
7
STANDARD
100
AcDbText
0
TEXT
5
130
330
6
100
AcDbEntity
8
GEO_TEXT
100
AcDbText
10
303
20
30
30
0
40
1.7
1
孔深 32.00
7
STANDARD
100
AcDbText
0
LINE
5
131
330
6
100
AcDbEntity
8
GEO_BOUNDARY
100
AcDbLine
10
309.4
20
226.5
30
0
11
318.6
21
226.5
31
0
0
HATCH
5
132
330
6
100
AcDbEntity
8
GEO_HATCH
100
AcDbHatch
10
0
20
0
30
0
2
GEO_FILL
70
0
71
0
91
1
92
3
72
0
73
1
93
4
10
310.4
20
226.5
10
313.6
20
226.5
10
313.6
20
235.5
10
310.4
20
235.5
97
0
75
0
76
1
52
0
41
1
77
0
78
2
53
45
43
0
44
0
45
0
46
4
79
2
49
5
49
-3
53
315
43
1
44
0
45
0
46
7
79
2
49
2
49
-5
0
TEXT
5
133
330
6
100
AcDbEntity
8
GEO_TEXT
100
AcDbText
10
315.1
20
227
30
0
40
1.35
1
1.80
7
STANDARD
100
AcDbText
0
LINE
5
134
330
6
100
AcDbEntity
8
GEO_BOUNDARY
100
AcDbLine
10
309.4
20
201.5
30
0
11
318.6
21
201.5
31
0
0
HATCH
5
135
330
6
100
AcDbEntity
8
GEO_HATCH
100
AcDbHatch
10
0
20
0
30
0
2
GEO_FINE_SOIL
70
0
71
0
91
1
92
3
72
0
73
1
93
4
10
310.4
20
201.5
10
313.6
20
201.5
10
313.6
20
226.5
10
310.4
20
226.5
97
0
75
0
76
1
52
0
41
1
77
0
78
1
53
0
43
0
44
0
45
0
46
3
79
2
49
0
49
-3
0
TEXT
5
136
330
6
100
AcDbEntity
8
GEO_TEXT
100
AcDbText
10
315.1
20
202
30
0
40
1.35
1
6.80
7
STANDARD
100
AcDbText
0
LINE
5
137
330
6
100
AcDbEntity
8
GEO_BOUNDARY
100
AcDbLine
10
309.4
20
175.00000000000003
30
0
11
318.6
21
175.00000000000003
31
0
0
HATCH
5
138
330
6
100
AcDbEntity
8
GEO_HATCH
100
AcDbHatch
10
0
20
0
30
0
2
GEO_SILTY_CLAY
70
0
71
0
91
1
92
3
72
0
73
1
93
4
10
310.4
20
175.00000000000003
10
313.6
20
175.00000000000003
10
313.6
20
201.5
10
310.4
20
201.5
97
0
75
0
76
1
52
0
41
1
77
0
78
2
53
0
43
0
44
0
45
0
46
3
79
2
49
2
49
-3
53
90
43
0
44
0
45
6
46
0
79
2
49
0
49
-6
0
TEXT
5
139
330
6
100
AcDbEntity
8
GEO_TEXT
100
AcDbText
10
315.1
20
175.50000000000003
30
0
40
1.35
1
12.10
7
STANDARD
100
AcDbText
0
LINE
5
13A
330
6
100
AcDbEntity
8
GEO_BOUNDARY
100
AcDbLine
10
309.4
20
141.5
30
0
11
318.6
21
141.5
31
0
0
HATCH
5
13B
330
6
100
AcDbEntity
8
GEO_HATCH
100
AcDbHatch
10
0
20
0
30
0
2
GEO_SAND
70
0
71
0
91
1
92
3
72
0
73
1
93
4
10
310.4
20
141.5
10
313.6
20
141.5
10
313.6
20
175.00000000000003
10
310.4
20
175.00000000000003
97
0
75
0
76
1
52
0
41
1
77
0
78
2
53
0
43
0
44
0
45
0
46
2.2
79
2
49
0
49
-2.2
53
0
43
1.1
44
1.1
45
0
46
4.4
79
2
49
0
49
-4.4
0
TEXT
5
13C
330
6
100
AcDbEntity
8
GEO_TEXT
100
AcDbText
10
315.1
20
142
30
0
40
1.35
1
18.80
7
STANDARD
100
AcDbText
0
LINE
5
13D
330
6
100
AcDbEntity
8
GEO_BOUNDARY
100
AcDbLine
10
309.4
20
114.49999999999999
30
0
11
318.6
21
114.49999999999999
31
0
0
HATCH
5
13E
330
6
100
AcDbEntity
8
GEO_HATCH
100
AcDbHatch
10
0
20
0
30
0
2
GEO_GRAVEL
70
0
71
0
91
1
92
3
72
0
73
1
93
4
10
310.4
20
114.49999999999999
10
313.6
20
114.49999999999999
10
313.6
20
141.5
10
310.4
20
141.5
97
0
75
0
76
1
52
0
41
1
77
0
78
2
53
45
43
0
44
0
45
0
46
6
79
2
49
1.5
49
-4.5
53
315
43
2
44
0
45
0
46
6
79
2
49
1.5
49
-4.5
0
TEXT
5
13F
330
6
100
AcDbEntity
8
GEO_TEXT
100
AcDbText
10
315.1
20
114.99999999999999
30
0
40
1.35
1
24.20
7
STANDARD
100
AcDbText
0
LINE
5
140
330
6
100
AcDbEntity
8
GEO_BOUNDARY
100
AcDbLine
10
309.4
20
75.5
30
0
11
318.6
21
75.5
31
0
0
HATCH
5
141
330
6
100
AcDbEntity
8
GEO_HATCH
100
AcDbHatch
10
0
20
0
30
0
2
GEO_WEATHERED_ROCK
70
0
71
0
91
1
92
3
72
0
73
1
93
4
10
310.4
20
75.5
10
313.6
20
75.5
10
313.6
20
114.49999999999999
10
310.4
20
114.49999999999999
97
0
75
0
76
1
52
0
41
1
77
0
78
2
53
30
43
0
44
0
45
0
46
3.5
79
2
49
5
49
-2
53
330
43
0
44
0
45
0
46
8
79
2
49
1.5
49
-6.5
0
TEXT
5
142
330
6
100
AcDbEntity
8
GEO_TEXT
100
AcDbText
10
315.1
20
76
30
0
40
1.35
1
32.00
7
STANDARD
100
AcDbText
0
LINE
5
143
330
6
100
AcDbEntity
8
GEO_BOUNDARY
100
AcDbLine
10
307
20
205.99999999999997
30
0
11
317
21
205.99999999999997
31
0
0
LWPOLYLINE
5
144
330
6
100
AcDbEntity
8
GEO_BOUNDARY
100
AcDbPolyline
90
3
70
0
38
0
10
310
20
207.19999999999996
10
312
20
204.99999999999997
10
314
20
207.19999999999996
0
TEXT
5
145
330
6
100
AcDbEntity
8
GEO_TEXT
100
AcDbText
10
318
20
205.29999999999998
30
0
40
1.5
1
水位 5.90
7
STANDARD
100
AcDbText
0
LWPOLYLINE
5
146
330
6
100
AcDbEntity
8
GEO_BOUNDARY
100
AcDbPolyline
90
4
70
1
38
0
10
318.6
20
213.3
10
320.8
20
213.3
10
320.8
20
215.7
10
318.6
20
215.7
0
TEXT
5
147
330
6
100
AcDbEntity
8
GEO_TEXT
100
AcDbText
10
321.8
20
213.8
30
0
40
1.5
1
S7-1
7
STANDARD
100
AcDbText
0
LINE
5
148
330
6
100
AcDbEntity
8
GEO_BOUNDARY
100
AcDbLine
10
318.6
20
188
30
0
11
321.1
21
188
31
0
0
TEXT
5
149
330
6
100
AcDbEntity
8
GEO_TEXT
100
AcDbText
10
321.8
20
187.3
30
0
40
1.5
1
N=18
7
STANDARD
100
AcDbText
0
LINE
5
14A
330
6
100
AcDbEntity
8
GEO_BOUNDARY
100
AcDbLine
10
318.6
20
153
30
0
11
321.1
21
153
31
0
0
TEXT
5
14B
330
6
100
AcDbEntity
8
GEO_TEXT
100
AcDbText
10
321.8
20
152.3
30
0
40
1.5
1
N=27
7
STANDARD
100
AcDbText
0
LWPOLYLINE
5
14C
330
6
100
AcDbEntity
8
GEO_BOUNDARY
100
AcDbPolyline
90
4
70
1
38
0
10
318.6
20
127.8
10
320.8
20
127.8
10
320.8
20
130.2
10
318.6
20
130.2
0
TEXT
5
14D
330
6
100
AcDbEntity
8
GEO_TEXT
100
AcDbText
10
321.8
20
128.3
30
0
40
1.5
1
S7-2
7
STANDARD
100
AcDbText
0
LINE
5
14E
330
6
100
AcDbEntity
8
GEO_GUIDE
100
AcDbLine
10
362
20
22
30
0
11
362
21
230.99999999999997
31
0
0
LWPOLYLINE
5
14F
330
6
100
AcDbEntity
8
GEO_BOUNDARY
100
AcDbPolyline
90
4
70
1
38
0
10
360.4
20
75.99999999999997
10
363.6
20
75.99999999999997
10
363.6
20
230.99999999999997
10
360.4
20
230.99999999999997
0
LINE
5
150
330
6
100
AcDbEntity
8
GEO_BOUNDARY
100
AcDbLine
10
357
20
235.69999999999996
30
0
11
367
21
235.69999999999996
31
0
0
TEXT
5
151
330
6
100
AcDbEntity
8
GEO_TEXT
100
AcDbText
10
362
20
237.19999999999996
30
0
40
2.1
1
SYN-08
7
STANDARD
72
1
11
362
21
237.19999999999996
31
0
100
AcDbText
0
TEXT
5
152
330
6
100
AcDbEntity
8
GEO_TEXT
100
AcDbText
10
362
20
234.19999999999996
30
0
40
1.5
1
107.60
7
STANDARD
72
1
11
362
21
234.19999999999996
31
0
100
AcDbText
0
TEXT
5
153
330
6
100
AcDbEntity
8
GEO_TEXT
100
AcDbText
10
353
20
35
30
0
40
1.7
1
里程 155.00
7
STANDARD
100
AcDbText
0
TEXT
5
154
330
6
100
AcDbEntity
8
GEO_TEXT
100
AcDbText
10
353
20
30
30
0
40
1.7
1
孔深 31.00
7
STANDARD
100
AcDbText
0
LINE
5
155
330
6
100
AcDbEntity
8
GEO_BOUNDARY
100
AcDbLine
10
359.4
20
220.99999999999997
30
0
11
368.6
21
220.99999999999997
31
0
0
HATCH
5
156
330
6
100
AcDbEntity
8
GEO_HATCH
100
AcDbHatch
10
0
20
0
30
0
2
GEO_FILL
70
0
71
0
91
1
92
3
72
0
73
1
93
4
10
360.4
20
220.99999999999997
10
363.6
20
220.99999999999997
10
363.6
20
230.99999999999997
10
360.4
20
230.99999999999997
97
0
75
0
76
1
52
0
41
1
77
0
78
2
53
45
43
0
44
0
45
0
46
4
79
2
49
5
49
-3
53
315
43
1
44
0
45
0
46
7
79
2
49
2
49
-5
0
TEXT
5
157
330
6
100
AcDbEntity
8
GEO_TEXT
100
AcDbText
10
365.1
20
221.49999999999997
30
0
40
1.35
1
2.00
7
STANDARD
100
AcDbText
0
LINE
5
158
330
6
100
AcDbEntity
8
GEO_BOUNDARY
100
AcDbLine
10
359.4
20
195.75
30
0
11
368.6
21
195.75
31
0
0
HATCH
5
159
330
6
100
AcDbEntity
8
GEO_HATCH
100
AcDbHatch
10
0
20
0
30
0
2
GEO_FINE_SOIL
70
0
71
0
91
1
92
3
72
0
73
1
93
4
10
360.4
20
195.75
10
363.6
20
195.75
10
363.6
20
220.99999999999997
10
360.4
20
220.99999999999997
97
0
75
0
76
1
52
0
41
1
77
0
78
1
53
0
43
0
44
0
45
0
46
3
79
2
49
0
49
-3
0
TEXT
5
15A
330
6
100
AcDbEntity
8
GEO_TEXT
100
AcDbText
10
365.1
20
196.25
30
0
40
1.35
1
7.05
7
STANDARD
100
AcDbText
0
LINE
5
15B
330
6
100
AcDbEntity
8
GEO_BOUNDARY
100
AcDbLine
10
359.4
20
168.99999999999994
30
0
11
368.6
21
168.99999999999994
31
0
0
HATCH
5
15C
330
6
100
AcDbEntity
8
GEO_HATCH
100
AcDbHatch
10
0
20
0
30
0
2
GEO_SILTY_CLAY
70
0
71
0
91
1
92
3
72
0
73
1
93
4
10
360.4
20
168.99999999999994
10
363.6
20
168.99999999999994
10
363.6
20
195.75
10
360.4
20
195.75
97
0
75
0
76
1
52
0
41
1
77
0
78
2
53
0
43
0
44
0
45
0
46
3
79
2
49
2
49
-3
53
90
43
0
44
0
45
6
46
0
79
2
49
0
49
-6
0
TEXT
5
15D
330
6
100
AcDbEntity
8
GEO_TEXT
100
AcDbText
10
365.1
20
169.49999999999994
30
0
40
1.35
1
12.40
7
STANDARD
100
AcDbText
0
LINE
5
15E
330
6
100
AcDbEntity
8
GEO_BOUNDARY
100
AcDbLine
10
359.4
20
135.75
30
0
11
368.6
21
135.75
31
0
0
HATCH
5
15F
330
6
100
AcDbEntity
8
GEO_HATCH
100
AcDbHatch
10
0
20
0
30
0
2
GEO_SAND
70
0
71
0
91
1
92
3
72
0
73
1
93
4
10
360.4
20
135.75
10
363.6
20
135.75
10
363.6
20
168.99999999999994
10
360.4
20
168.99999999999994
97
0
75
0
76
1
52
0
41
1
77
0
78
2
53
0
43
0
44
0
45
0
46
2.2
79
2
49
0
49
-2.2
53
0
43
1.1
44
1.1
45
0
46
4.4
79
2
49
0
49
-4.4
0
TEXT
5
160
330
6
100
AcDbEntity
8
GEO_TEXT
100
AcDbText
10
365.1
20
136.25
30
0
40
1.35
1
19.05
7
STANDARD
100
AcDbText
0
LINE
5
161
330
6
100
AcDbEntity
8
GEO_BOUNDARY
100
AcDbLine
10
359.4
20
108.99999999999994
30
0
11
368.6
21
108.99999999999994
31
0
0
HATCH
5
162
330
6
100
AcDbEntity
8
GEO_HATCH
100
AcDbHatch
10
0
20
0
30
0
2
GEO_GRAVEL
70
0
71
0
91
1
92
3
72
0
73
1
93
4
10
360.4
20
108.99999999999994
10
363.6
20
108.99999999999994
10
363.6
20
135.75
10
360.4
20
135.75
97
0
75
0
76
1
52
0
41
1
77
0
78
2
53
45
43
0
44
0
45
0
46
6
79
2
49
1.5
49
-4.5
53
315
43
2
44
0
45
0
46
6
79
2
49
1.5
49
-4.5
0
TEXT
5
163
330
6
100
AcDbEntity
8
GEO_TEXT
100
AcDbText
10
365.1
20
109.49999999999994
30
0
40
1.35
1
24.40
7
STANDARD
100
AcDbText
0
LINE
5
164
330
6
100
AcDbEntity
8
GEO_BOUNDARY
100
AcDbLine
10
359.4
20
75.99999999999997
30
0
11
368.6
21
75.99999999999997
31
0
0
HATCH
5
165
330
6
100
AcDbEntity
8
GEO_HATCH
100
AcDbHatch
10
0
20
0
30
0
2
GEO_WEATHERED_ROCK
70
0
71
0
91
1
92
3
72
0
73
1
93
4
10
360.4
20
75.99999999999997
10
363.6
20
75.99999999999997
10
363.6
20
108.99999999999994
10
360.4
20
108.99999999999994
97
0
75
0
76
1
52
0
41
1
77
0
78
2
53
30
43
0
44
0
45
0
46
3.5
79
2
49
5
49
-2
53
330
43
0
44
0
45
0
46
8
79
2
49
1.5
49
-6.5
0
TEXT
5
166
330
6
100
AcDbEntity
8
GEO_TEXT
100
AcDbText
10
365.1
20
76.49999999999997
30
0
40
1.35
1
31.00
7
STANDARD
100
AcDbText
0
LINE
5
167
330
6
100
AcDbEntity
8
GEO_BOUNDARY
100
AcDbLine
10
357
20
200.99999999999997
30
0
11
367
21
200.99999999999997
31
0
0
LWPOLYLINE
5
168
330
6
100
AcDbEntity
8
GEO_BOUNDARY
100
AcDbPolyline
90
3
70
0
38
0
10
360
20
202.19999999999996
10
362
20
199.99999999999997
10
364
20
202.19999999999996
0
TEXT
5
169
330
6
100
AcDbEntity
8
GEO_TEXT
100
AcDbText
10
368
20
200.29999999999998
30
0
40
1.5
1
水位 6.00
7
STANDARD
100
AcDbText
0
LWPOLYLINE
5
16A
330
6
100
AcDbEntity
8
GEO_BOUNDARY
100
AcDbPolyline
90
4
70
1
38
0
10
368.6
20
208.79999999999995
10
370.8
20
208.79999999999995
10
370.8
20
211.19999999999993
10
368.6
20
211.19999999999993
0
TEXT
5
16B
330
6
100
AcDbEntity
8
GEO_TEXT
100
AcDbText
10
371.8
20
209.29999999999995
30
0
40
1.5
1
S8-1
7
STANDARD
100
AcDbText
0
LINE
5
16C
330
6
100
AcDbEntity
8
GEO_BOUNDARY
100
AcDbLine
10
368.6
20
183.49999999999997
30
0
11
371.1
21
183.49999999999997
31
0
0
TEXT
5
16D
330
6
100
AcDbEntity
8
GEO_TEXT
100
AcDbText
10
371.8
20
182.79999999999998
30
0
40
1.5
1
N=19
7
STANDARD
100
AcDbText
0
LINE
5
16E
330
6
100
AcDbEntity
8
GEO_BOUNDARY
100
AcDbLine
10
368.6
20
148.49999999999997
30
0
11
371.1
21
148.49999999999997
31
0
0
TEXT
5
16F
330
6
100
AcDbEntity
8
GEO_TEXT
100
AcDbText
10
371.8
20
147.79999999999998
30
0
40
1.5
1
N=28
7
STANDARD
100
AcDbText
0
LWPOLYLINE
5
170
330
6
100
AcDbEntity
8
GEO_BOUNDARY
100
AcDbPolyline
90
4
70
1
38
0
10
368.6
20
123.29999999999998
10
370.8
20
123.29999999999998
10
370.8
20
125.69999999999999
10
368.6
20
125.69999999999999
0
TEXT
5
171
330
6
100
AcDbEntity
8
GEO_TEXT
100
AcDbText
10
371.8
20
123.79999999999998
30
0
40
1.5
1
S8-2
7
STANDARD
100
AcDbText
0
HATCH
5
172
330
6
100
AcDbEntity
8
GEO_HATCH
100
AcDbHatch
10
0
20
0
30
0
2
GEO_FILL
70
0
71
0
91
1
92
3
72
0
73
1
93
4
10
52
20
231.00000000000006
10
88
20
228
10
88
20
238
10
52
20
240.00000000000003
97
0
75
0
76
1
52
0
41
1
77
0
78
2
53
45
43
0
44
0
45
0
46
4
79
2
49
5
49
-3
53
315
43
1
44
0
45
0
46
7
79
2
49
2
49
-5
0
LINE
5
173
330
6
100
AcDbEntity
8
GEO_BOUNDARY
100
AcDbLine
10
52
20
231.00000000000006
30
0
11
88
21
228
31
0
0
LINE
5
174
330
6
100
AcDbEntity
8
GEO_BOUNDARY
100
AcDbLine
10
52
20
240.00000000000003
30
0
11
88
21
238
31
0
0
TEXT
5
175
330
6
100
AcDbEntity
8
GEO_TEXT
100
AcDbText
10
70
20
234.25
30
0
40
1.8
1
1
7
STANDARD
72
1
11
70
21
234.25
31
0
100
AcDbText
0
HATCH
5
176
330
6
100
AcDbEntity
8
GEO_HATCH
100
AcDbHatch
10
0
20
0
30
0
2
GEO_FINE_SOIL
70
0
71
0
91
1
92
3
72
0
73
1
93
4
10
52
20
208.50000000000006
10
88
20
205.25
10
88
20
228
10
52
20
231.00000000000006
97
0
75
0
76
1
52
0
41
1
77
0
78
1
53
0
43
0
44
0
45
0
46
3
79
2
49
0
49
-3
0
LINE
5
177
330
6
100
AcDbEntity
8
GEO_BOUNDARY
100
AcDbLine
10
52
20
208.50000000000006
30
0
11
88
21
205.25
31
0
0
LINE
5
178
330
6
100
AcDbEntity
8
GEO_BOUNDARY
100
AcDbLine
10
52
20
231.00000000000006
30
0
11
88
21
228
31
0
0
TEXT
5
179
330
6
100
AcDbEntity
8
GEO_TEXT
100
AcDbText
10
70
20
218.18750000000003
30
0
40
1.8
1
2
7
STANDARD
72
1
11
70
21
218.18750000000003
31
0
100
AcDbText
0
HATCH
5
17A
330
6
100
AcDbEntity
8
GEO_HATCH
100
AcDbHatch
10
0
20
0
30
0
2
GEO_SILTY_CLAY
70
0
71
0
91
1
92
3
72
0
73
1
93
4
10
52
20
179.50000000000006
10
88
20
175.99999999999997
10
88
20
205.25
10
52
20
208.50000000000006
97
0
75
0
76
1
52
0
41
1
77
0
78
2
53
0
43
0
44
0
45
0
46
3
79
2
49
2
49
-3
53
90
43
0
44
0
45
6
46
0
79
2
49
0
49
-6
0
LINE
5
17B
330
6
100
AcDbEntity
8
GEO_BOUNDARY
100
AcDbLine
10
52
20
179.50000000000006
30
0
11
88
21
175.99999999999997
31
0
0
LINE
5
17C
330
6
100
AcDbEntity
8
GEO_BOUNDARY
100
AcDbLine
10
52
20
208.50000000000006
30
0
11
88
21
205.25
31
0
0
TEXT
5
17D
330
6
100
AcDbEntity
8
GEO_TEXT
100
AcDbText
10
70
20
192.31250000000003
30
0
40
1.8
1
3
7
STANDARD
72
1
11
70
21
192.31250000000003
31
0
100
AcDbText
0
HATCH
5
17E
330
6
100
AcDbEntity
8
GEO_HATCH
100
AcDbHatch
10
0
20
0
30
0
2
GEO_SAND
70
0
71
0
91
1
92
3
72
0
73
1
93
4
10
52
20
148.50000000000006
10
88
20
145.25
10
88
20
175.99999999999997
10
52
20
179.50000000000006
97
0
75
0
76
1
52
0
41
1
77
0
78
2
53
0
43
0
44
0
45
0
46
2.2
79
2
49
0
49
-2.2
53
0
43
1.1
44
1.1
45
0
46
4.4
79
2
49
0
49
-4.4
0
LINE
5
17F
330
6
100
AcDbEntity
8
GEO_BOUNDARY
100
AcDbLine
10
52
20
148.50000000000006
30
0
11
88
21
145.25
31
0
0
LINE
5
180
330
6
100
AcDbEntity
8
GEO_BOUNDARY
100
AcDbLine
10
52
20
179.50000000000006
30
0
11
88
21
175.99999999999997
31
0
0
TEXT
5
181
330
6
100
AcDbEntity
8
GEO_TEXT
100
AcDbText
10
70
20
162.3125
30
0
40
1.8
1
4
7
STANDARD
72
1
11
70
21
162.3125
31
0
100
AcDbText
0
HATCH
5
182
330
6
100
AcDbEntity
8
GEO_HATCH
100
AcDbHatch
10
0
20
0
30
0
2
GEO_GRAVEL
70
0
71
0
91
1
92
3
72
0
73
1
93
4
10
52
20
119.00000000000001
10
88
20
115.99999999999997
10
88
20
145.25
10
52
20
148.50000000000006
97
0
75
0
76
1
52
0
41
1
77
0
78
2
53
45
43
0
44
0
45
0
46
6
79
2
49
1.5
49
-4.5
53
315
43
2
44
0
45
0
46
6
79
2
49
1.5
49
-4.5
0
LINE
5
183
330
6
100
AcDbEntity
8
GEO_BOUNDARY
100
AcDbLine
10
52
20
119.00000000000001
30
0
11
88
21
115.99999999999997
31
0
0
LINE
5
184
330
6
100
AcDbEntity
8
GEO_BOUNDARY
100
AcDbLine
10
52
20
148.50000000000006
30
0
11
88
21
145.25
31
0
0
TEXT
5
185
330
6
100
AcDbEntity
8
GEO_TEXT
100
AcDbText
10
70
20
132.1875
30
0
40
1.8
1
5
7
STANDARD
72
1
11
70
21
132.1875
31
0
100
AcDbText
0
HATCH
5
186
330
6
100
AcDbEntity
8
GEO_HATCH
100
AcDbHatch
10
0
20
0
30
0
2
GEO_WEATHERED_ROCK
70
0
71
0
91
1
92
3
72
0
73
1
93
4
10
52
20
90.00000000000003
10
88
20
83
10
88
20
115.99999999999997
10
52
20
119.00000000000001
97
0
75
0
76
1
52
0
41
1
77
0
78
2
53
30
43
0
44
0
45
0
46
3.5
79
2
49
5
49
-2
53
330
43
0
44
0
45
0
46
8
79
2
49
1.5
49
-6.5
0
LINE
5
187
330
6
100
AcDbEntity
8
GEO_BOUNDARY
100
AcDbLine
10
52
20
90.00000000000003
30
0
11
88
21
83
31
0
0
LINE
5
188
330
6
100
AcDbEntity
8
GEO_BOUNDARY
100
AcDbLine
10
52
20
119.00000000000001
30
0
11
88
21
115.99999999999997
31
0
0
TEXT
5
189
330
6
100
AcDbEntity
8
GEO_TEXT
100
AcDbText
10
70
20
102
30
0
40
1.8
1
6
7
STANDARD
72
1
11
70
21
102
31
0
100
AcDbText
0
HATCH
5
18A
330
6
100
AcDbEntity
8
GEO_HATCH
100
AcDbHatch
10
0
20
0
30
0
2
GEO_FILL
70
0
71
0
91
1
92
3
72
0
73
1
93
4
10
88
20
228
10
130
20
223.49999999999997
10
130
20
234.5
10
88
20
238
97
0
75
0
76
1
52
0
41
1
77
0
78
2
53
45
43
0
44
0
45
0
46
4
79
2
49
5
49
-3
53
315
43
1
44
0
45
0
46
7
79
2
49
2
49
-5
0
LINE
5
18B
330
6
100
AcDbEntity
8
GEO_BOUNDARY
100
AcDbLine
10
88
20
228
30
0
11
130
21
223.49999999999997
31
0
0
LINE
5
18C
330
6
100
AcDbEntity
8
GEO_BOUNDARY
100
AcDbLine
10
88
20
238
30
0
11
130
21
234.5
31
0
0
TEXT
5
18D
330
6
100
AcDbEntity
8
GEO_TEXT
100
AcDbText
10
109
20
231
30
0
40
1.8
1
1
7
STANDARD
72
1
11
109
21
231
31
0
100
AcDbText
0
HATCH
5
18E
330
6
100
AcDbEntity
8
GEO_HATCH
100
AcDbHatch
10
0
20
0
30
0
2
GEO_FINE_SOIL
70
0
71
0
91
1
92
3
72
0
73
1
93
4
10
88
20
205.25
10
130
20
200.5
10
130
20
223.49999999999997
10
88
20
228
97
0
75
0
76
1
52
0
41
1
77
0
78
1
53
0
43
0
44
0
45
0
46
3
79
2
49
0
49
-3
0
LINE
5
18F
330
6
100
AcDbEntity
8
GEO_BOUNDARY
100
AcDbLine
10
88
20
205.25
30
0
11
130
21
200.5
31
0
0
LINE
5
190
330
6
100
AcDbEntity
8
GEO_BOUNDARY
100
AcDbLine
10
88
20
228
30
0
11
130
21
223.49999999999997
31
0
0
TEXT
5
191
330
6
100
AcDbEntity
8
GEO_TEXT
100
AcDbText
10
109
20
214.3125
30
0
40
1.8
1
2
7
STANDARD
72
1
11
109
21
214.3125
31
0
100
AcDbText
0
HATCH
5
192
330
6
100
AcDbEntity
8
GEO_HATCH
100
AcDbHatch
10
0
20
0
30
0
2
GEO_SILTY_CLAY
70
0
71
0
91
1
92
3
72
0
73
1
93
4
10
88
20
175.99999999999997
10
130
20
170.99999999999997
10
130
20
200.5
10
88
20
205.25
97
0
75
0
76
1
52
0
41
1
77
0
78
2
53
0
43
0
44
0
45
0
46
3
79
2
49
2
49
-3
53
90
43
0
44
0
45
6
46
0
79
2
49
0
49
-6
0
LINE
5
193
330
6
100
AcDbEntity
8
GEO_BOUNDARY
100
AcDbLine
10
88
20
175.99999999999997
30
0
11
130
21
170.99999999999997
31
0
0
LINE
5
194
330
6
100
AcDbEntity
8
GEO_BOUNDARY
100
AcDbLine
10
88
20
205.25
30
0
11
130
21
200.5
31
0
0
TEXT
5
195
330
6
100
AcDbEntity
8
GEO_TEXT
100
AcDbText
10
109
20
188.1875
30
0
40
1.8
1
3
7
STANDARD
72
1
11
109
21
188.1875
31
0
100
AcDbText
0
HATCH
5
196
330
6
100
AcDbEntity
8
GEO_HATCH
100
AcDbHatch
10
0
20
0
30
0
2
GEO_SAND
70
0
71
0
91
1
92
3
72
0
73
1
93
4
10
88
20
145.25
10
130
20
140.5
10
130
20
170.99999999999997
10
88
20
175.99999999999997
97
0
75
0
76
1
52
0
41
1
77
0
78
2
53
0
43
0
44
0
45
0
46
2.2
79
2
49
0
49
-2.2
53
0
43
1.1
44
1.1
45
0
46
4.4
79
2
49
0
49
-4.4
0
LINE
5
197
330
6
100
AcDbEntity
8
GEO_BOUNDARY
100
AcDbLine
10
88
20
145.25
30
0
11
130
21
140.5
31
0
0
LINE
5
198
330
6
100
AcDbEntity
8
GEO_BOUNDARY
100
AcDbLine
10
88
20
175.99999999999997
30
0
11
130
21
170.99999999999997
31
0
0
TEXT
5
199
330
6
100
AcDbEntity
8
GEO_TEXT
100
AcDbText
10
109
20
158.1875
30
0
40
1.8
1
4
7
STANDARD
72
1
11
109
21
158.1875
31
0
100
AcDbText
0
HATCH
5
19A
330
6
100
AcDbEntity
8
GEO_HATCH
100
AcDbHatch
10
0
20
0
30
0
2
GEO_GRAVEL
70
0
71
0
91
1
92
3
72
0
73
1
93
4
10
88
20
115.99999999999997
10
130
20
111.49999999999994
10
130
20
140.5
10
88
20
145.25
97
0
75
0
76
1
52
0
41
1
77
0
78
2
53
45
43
0
44
0
45
0
46
6
79
2
49
1.5
49
-4.5
53
315
43
2
44
0
45
0
46
6
79
2
49
1.5
49
-4.5
0
LINE
5
19B
330
6
100
AcDbEntity
8
GEO_BOUNDARY
100
AcDbLine
10
88
20
115.99999999999997
30
0
11
130
21
111.49999999999994
31
0
0
LINE
5
19C
330
6
100
AcDbEntity
8
GEO_BOUNDARY
100
AcDbLine
10
88
20
145.25
30
0
11
130
21
140.5
31
0
0
TEXT
5
19D
330
6
100
AcDbEntity
8
GEO_TEXT
100
AcDbText
10
109
20
128.3125
30
0
40
1.8
1
5
7
STANDARD
72
1
11
109
21
128.3125
31
0
100
AcDbText
0
HATCH
5
19E
330
6
100
AcDbEntity
8
GEO_HATCH
100
AcDbHatch
10
0
20
0
30
0
2
GEO_WEATHERED_ROCK
70
0
71
0
91
1
92
3
72
0
73
1
93
4
10
88
20
83
10
130
20
89.49999999999999
10
130
20
111.49999999999994
10
88
20
115.99999999999997
97
0
75
0
76
1
52
0
41
1
77
0
78
2
53
30
43
0
44
0
45
0
46
3.5
79
2
49
5
49
-2
53
330
43
0
44
0
45
0
46
8
79
2
49
1.5
49
-6.5
0
LINE
5
19F
330
6
100
AcDbEntity
8
GEO_BOUNDARY
100
AcDbLine
10
88
20
83
30
0
11
130
21
89.49999999999999
31
0
0
LINE
5
1A0
330
6
100
AcDbEntity
8
GEO_BOUNDARY
100
AcDbLine
10
88
20
115.99999999999997
30
0
11
130
21
111.49999999999994
31
0
0
TEXT
5
1A1
330
6
100
AcDbEntity
8
GEO_TEXT
100
AcDbText
10
109
20
99.99999999999997
30
0
40
1.8
1
6
7
STANDARD
72
1
11
109
21
99.99999999999997
31
0
100
AcDbText
0
HATCH
5
1A2
330
6
100
AcDbEntity
8
GEO_HATCH
100
AcDbHatch
10
0
20
0
30
0
2
GEO_FILL
70
0
71
0
91
1
92
3
72
0
73
1
93
4
10
130
20
223.49999999999997
10
174
20
232.50000000000003
10
174
20
241.5
10
130
20
234.5
97
0
75
0
76
1
52
0
41
1
77
0
78
2
53
45
43
0
44
0
45
0
46
4
79
2
49
5
49
-3
53
315
43
1
44
0
45
0
46
7
79
2
49
2
49
-5
0
LINE
5
1A3
330
6
100
AcDbEntity
8
GEO_BOUNDARY
100
AcDbLine
10
130
20
223.49999999999997
30
0
11
174
21
232.50000000000003
31
0
0
LINE
5
1A4
330
6
100
AcDbEntity
8
GEO_BOUNDARY
100
AcDbLine
10
130
20
234.5
30
0
11
174
21
241.5
31
0
0
TEXT
5
1A5
330
6
100
AcDbEntity
8
GEO_TEXT
100
AcDbText
10
152
20
233
30
0
40
1.8
1
1
7
STANDARD
72
1
11
152
21
233
31
0
100
AcDbText
0
HATCH
5
1A6
330
6
100
AcDbEntity
8
GEO_HATCH
100
AcDbHatch
10
0
20
0
30
0
2
GEO_FINE_SOIL
70
0
71
0
91
1
92
3
72
0
73
1
93
4
10
130
20
200.5
10
174
20
206.25000000000003
10
174
20
232.50000000000003
10
130
20
223.49999999999997
97
0
75
0
76
1
52
0
41
1
77
0
78
1
53
0
43
0
44
0
45
0
46
3
79
2
49
0
49
-3
0
LINE
5
1A7
330
6
100
AcDbEntity
8
GEO_BOUNDARY
100
AcDbLine
10
130
20
200.5
30
0
11
174
21
206.25000000000003
31
0
0
LINE
5
1A8
330
6
100
AcDbEntity
8
GEO_BOUNDARY
100
AcDbLine
10
130
20
223.49999999999997
30
0
11
174
21
232.50000000000003
31
0
0
TEXT
5
1A9
330
6
100
AcDbEntity
8
GEO_TEXT
100
AcDbText
10
152
20
215.6875
30
0
40
1.8
1
2
7
STANDARD
72
1
11
152
21
215.6875
31
0
100
AcDbText
0
HATCH
5
1AA
330
6
100
AcDbEntity
8
GEO_HATCH
100
AcDbHatch
10
0
20
0
30
0
2
GEO_SILTY_CLAY
70
0
71
0
91
1
92
3
72
0
73
1
93
4
10
130
20
170.99999999999997
10
174
20
181.00000000000006
10
174
20
206.25000000000003
10
130
20
200.5
97
0
75
0
76
1
52
0
41
1
77
0
78
2
53
0
43
0
44
0
45
0
46
3
79
2
49
2
49
-3
53
90
43
0
44
0
45
6
46
0
79
2
49
0
49
-6
0
LINE
5
1AB
330
6
100
AcDbEntity
8
GEO_BOUNDARY
100
AcDbLine
10
130
20
170.99999999999997
30
0
11
174
21
181.00000000000006
31
0
0
LINE
5
1AC
330
6
100
AcDbEntity
8
GEO_BOUNDARY
100
AcDbLine
10
130
20
200.5
30
0
11
174
21
206.25000000000003
31
0
0
TEXT
5
1AD
330
6
100
AcDbEntity
8
GEO_TEXT
100
AcDbText
10
152
20
189.6875
30
0
40
1.8
1
3
7
STANDARD
72
1
11
152
21
189.6875
31
0
100
AcDbText
0
HATCH
5
1AE
330
6
100
AcDbEntity
8
GEO_HATCH
100
AcDbHatch
10
0
20
0
30
0
2
GEO_SAND
70
0
71
0
91
1
92
3
72
0
73
1
93
4
10
130
20
140.5
10
174
20
146.25000000000003
10
174
20
181.00000000000006
10
130
20
170.99999999999997
97
0
75
0
76
1
52
0
41
1
77
0
78
2
53
0
43
0
44
0
45
0
46
2.2
79
2
49
0
49
-2.2
53
0
43
1.1
44
1.1
45
0
46
4.4
79
2
49
0
49
-4.4
0
LINE
5
1AF
330
6
100
AcDbEntity
8
GEO_BOUNDARY
100
AcDbLine
10
130
20
140.5
30
0
11
174
21
146.25000000000003
31
0
0
LINE
5
1B0
330
6
100
AcDbEntity
8
GEO_BOUNDARY
100
AcDbLine
10
130
20
170.99999999999997
30
0
11
174
21
181.00000000000006
31
0
0
TEXT
5
1B1
330
6
100
AcDbEntity
8
GEO_TEXT
100
AcDbText
10
152
20
159.6875
30
0
40
1.8
1
4
7
STANDARD
72
1
11
152
21
159.6875
31
0
100
AcDbText
0
HATCH
5
1B2
330
6
100
AcDbEntity
8
GEO_HATCH
100
AcDbHatch
10
0
20
0
30
0
2
GEO_GRAVEL
70
0
71
0
91
1
92
3
72
0
73
1
93
4
10
130
20
111.49999999999994
10
174
20
120.5
10
174
20
146.25000000000003
10
130
20
140.5
97
0
75
0
76
1
52
0
41
1
77
0
78
2
53
45
43
0
44
0
45
0
46
6
79
2
49
1.5
49
-4.5
53
315
43
2
44
0
45
0
46
6
79
2
49
1.5
49
-4.5
0
LINE
5
1B3
330
6
100
AcDbEntity
8
GEO_BOUNDARY
100
AcDbLine
10
130
20
111.49999999999994
30
0
11
174
21
120.5
31
0
0
LINE
5
1B4
330
6
100
AcDbEntity
8
GEO_BOUNDARY
100
AcDbLine
10
130
20
140.5
30
0
11
174
21
146.25000000000003
31
0
0
TEXT
5
1B5
330
6
100
AcDbEntity
8
GEO_TEXT
100
AcDbText
10
152
20
129.6875
30
0
40
1.8
1
5
7
STANDARD
72
1
11
152
21
129.6875
31
0
100
AcDbText
0
HATCH
5
1B6
330
6
100
AcDbEntity
8
GEO_HATCH
100
AcDbHatch
10
0
20
0
30
0
2
GEO_WEATHERED_ROCK
70
0
71
0
91
1
92
3
72
0
73
1
93
4
10
130
20
89.49999999999999
10
174
20
81.50000000000001
10
174
20
120.5
10
130
20
111.49999999999994
97
0
75
0
76
1
52
0
41
1
77
0
78
2
53
30
43
0
44
0
45
0
46
3.5
79
2
49
5
49
-2
53
330
43
0
44
0
45
0
46
8
79
2
49
1.5
49
-6.5
0
LINE
5
1B7
330
6
100
AcDbEntity
8
GEO_BOUNDARY
100
AcDbLine
10
130
20
89.49999999999999
30
0
11
174
21
81.50000000000001
31
0
0
LINE
5
1B8
330
6
100
AcDbEntity
8
GEO_BOUNDARY
100
AcDbLine
10
130
20
111.49999999999994
30
0
11
174
21
120.5
31
0
0
TEXT
5
1B9
330
6
100
AcDbEntity
8
GEO_TEXT
100
AcDbText
10
152
20
100.74999999999999
30
0
40
1.8
1
6
7
STANDARD
72
1
11
152
21
100.74999999999999
31
0
100
AcDbText
0
HATCH
5
1BA
330
6
100
AcDbEntity
8
GEO_HATCH
100
AcDbHatch
10
0
20
0
30
0
2
GEO_FILL
70
0
71
0
91
1
92
3
72
0
73
1
93
4
10
174
20
232.50000000000003
10
218
20
227
10
218
20
237
10
174
20
241.5
97
0
75
0
76
1
52
0
41
1
77
0
78
2
53
45
43
0
44
0
45
0
46
4
79
2
49
5
49
-3
53
315
43
1
44
0
45
0
46
7
79
2
49
2
49
-5
0
LINE
5
1BB
330
6
100
AcDbEntity
8
GEO_BOUNDARY
100
AcDbLine
10
174
20
232.50000000000003
30
0
11
218
21
227
31
0
0
LINE
5
1BC
330
6
100
AcDbEntity
8
GEO_BOUNDARY
100
AcDbLine
10
174
20
241.5
30
0
11
218
21
237
31
0
0
TEXT
5
1BD
330
6
100
AcDbEntity
8
GEO_TEXT
100
AcDbText
10
196
20
234.5
30
0
40
1.8
1
1
7
STANDARD
72
1
11
196
21
234.5
31
0
100
AcDbText
0
HATCH
5
1BE
330
6
100
AcDbEntity
8
GEO_HATCH
100
AcDbHatch
10
0
20
0
30
0
2
GEO_FINE_SOIL
70
0
71
0
91
1
92
3
72
0
73
1
93
4
10
174
20
206.25000000000003
10
218
20
205.5
10
218
20
227
10
174
20
232.50000000000003
97
0
75
0
76
1
52
0
41
1
77
0
78
1
53
0
43
0
44
0
45
0
46
3
79
2
49
0
49
-3
0
LINE
5
1BF
330
6
100
AcDbEntity
8
GEO_BOUNDARY
100
AcDbLine
10
174
20
206.25000000000003
30
0
11
218
21
205.5
31
0
0
LINE
5
1C0
330
6
100
AcDbEntity
8
GEO_BOUNDARY
100
AcDbLine
10
174
20
232.50000000000003
30
0
11
218
21
227
31
0
0
TEXT
5
1C1
330
6
100
AcDbEntity
8
GEO_TEXT
100
AcDbText
10
196
20
217.8125
30
0
40
1.8
1
2
7
STANDARD
72
1
11
196
21
217.8125
31
0
100
AcDbText
0
HATCH
5
1C2
330
6
100
AcDbEntity
8
GEO_HATCH
100
AcDbHatch
10
0
20
0
30
0
2
GEO_SILTY_CLAY
70
0
71
0
91
1
92
3
72
0
73
1
93
4
10
174
20
181.00000000000006
10
218
20
174.99999999999994
10
218
20
205.5
10
174
20
206.25000000000003
97
0
75
0
76
1
52
0
41
1
77
0
78
2
53
0
43
0
44
0
45
0
46
3
79
2
49
2
49
-3
53
90
43
0
44
0
45
6
46
0
79
2
49
0
49
-6
0
LINE
5
1C3
330
6
100
AcDbEntity
8
GEO_BOUNDARY
100
AcDbLine
10
174
20
181.00000000000006
30
0
11
218
21
174.99999999999994
31
0
0
LINE
5
1C4
330
6
100
AcDbEntity
8
GEO_BOUNDARY
100
AcDbLine
10
174
20
206.25000000000003
30
0
11
218
21
205.5
31
0
0
TEXT
5
1C5
330
6
100
AcDbEntity
8
GEO_TEXT
100
AcDbText
10
196
20
191.9375
30
0
40
1.8
1
3
7
STANDARD
72
1
11
196
21
191.9375
31
0
100
AcDbText
0
HATCH
5
1C6
330
6
100
AcDbEntity
8
GEO_HATCH
100
AcDbHatch
10
0
20
0
30
0
2
GEO_SAND
70
0
71
0
91
1
92
3
72
0
73
1
93
4
10
174
20
146.25000000000003
10
218
20
145.5
10
218
20
174.99999999999994
10
174
20
181.00000000000006
97
0
75
0
76
1
52
0
41
1
77
0
78
2
53
0
43
0
44
0
45
0
46
2.2
79
2
49
0
49
-2.2
53
0
43
1.1
44
1.1
45
0
46
4.4
79
2
49
0
49
-4.4
0
LINE
5
1C7
330
6
100
AcDbEntity
8
GEO_BOUNDARY
100
AcDbLine
10
174
20
146.25000000000003
30
0
11
218
21
145.5
31
0
0
LINE
5
1C8
330
6
100
AcDbEntity
8
GEO_BOUNDARY
100
AcDbLine
10
174
20
181.00000000000006
30
0
11
218
21
174.99999999999994
31
0
0
TEXT
5
1C9
330
6
100
AcDbEntity
8
GEO_TEXT
100
AcDbText
10
196
20
161.9375
30
0
40
1.8
1
4
7
STANDARD
72
1
11
196
21
161.9375
31
0
100
AcDbText
0
HATCH
5
1CA
330
6
100
AcDbEntity
8
GEO_HATCH
100
AcDbHatch
10
0
20
0
30
0
2
GEO_GRAVEL
70
0
71
0
91
1
92
3
72
0
73
1
93
4
10
174
20
120.5
10
218
20
115.00000000000003
10
218
20
145.5
10
174
20
146.25000000000003
97
0
75
0
76
1
52
0
41
1
77
0
78
2
53
45
43
0
44
0
45
0
46
6
79
2
49
1.5
49
-4.5
53
315
43
2
44
0
45
0
46
6
79
2
49
1.5
49
-4.5
0
LINE
5
1CB
330
6
100
AcDbEntity
8
GEO_BOUNDARY
100
AcDbLine
10
174
20
120.5
30
0
11
218
21
115.00000000000003
31
0
0
LINE
5
1CC
330
6
100
AcDbEntity
8
GEO_BOUNDARY
100
AcDbLine
10
174
20
146.25000000000003
30
0
11
218
21
145.5
31
0
0
TEXT
5
1CD
330
6
100
AcDbEntity
8
GEO_TEXT
100
AcDbText
10
196
20
131.8125
30
0
40
1.8
1
5
7
STANDARD
72
1
11
196
21
131.8125
31
0
100
AcDbText
0
HATCH
5
1CE
330
6
100
AcDbEntity
8
GEO_HATCH
100
AcDbHatch
10
0
20
0
30
0
2
GEO_WEATHERED_ROCK
70
0
71
0
91
1
92
3
72
0
73
1
93
4
10
174
20
81.50000000000001
10
218
20
81.99999999999999
10
218
20
115.00000000000003
10
174
20
120.5
97
0
75
0
76
1
52
0
41
1
77
0
78
2
53
30
43
0
44
0
45
0
46
3.5
79
2
49
5
49
-2
53
330
43
0
44
0
45
0
46
8
79
2
49
1.5
49
-6.5
0
LINE
5
1CF
330
6
100
AcDbEntity
8
GEO_BOUNDARY
100
AcDbLine
10
174
20
81.50000000000001
30
0
11
218
21
81.99999999999999
31
0
0
LINE
5
1D0
330
6
100
AcDbEntity
8
GEO_BOUNDARY
100
AcDbLine
10
174
20
120.5
30
0
11
218
21
115.00000000000003
31
0
0
TEXT
5
1D1
330
6
100
AcDbEntity
8
GEO_TEXT
100
AcDbText
10
196
20
99.75000000000001
30
0
40
1.8
1
6
7
STANDARD
72
1
11
196
21
99.75000000000001
31
0
100
AcDbText
0
HATCH
5
1D2
330
6
100
AcDbEntity
8
GEO_HATCH
100
AcDbHatch
10
0
20
0
30
0
2
GEO_FILL
70
0
71
0
91
1
92
3
72
0
73
1
93
4
10
218
20
227
10
264
20
221.5
10
264
20
232.50000000000003
10
218
20
237
97
0
75
0
76
1
52
0
41
1
77
0
78
2
53
45
43
0
44
0
45
0
46
4
79
2
49
5
49
-3
53
315
43
1
44
0
45
0
46
7
79
2
49
2
49
-5
0
LINE
5
1D3
330
6
100
AcDbEntity
8
GEO_BOUNDARY
100
AcDbLine
10
218
20
227
30
0
11
264
21
221.5
31
0
0
LINE
5
1D4
330
6
100
AcDbEntity
8
GEO_BOUNDARY
100
AcDbLine
10
218
20
237
30
0
11
264
21
232.50000000000003
31
0
0
TEXT
5
1D5
330
6
100
AcDbEntity
8
GEO_TEXT
100
AcDbText
10
241
20
229.5
30
0
40
1.8
1
1
7
STANDARD
72
1
11
241
21
229.5
31
0
100
AcDbText
0
HATCH
5
1D6
330
6
100
AcDbEntity
8
GEO_HATCH
100
AcDbHatch
10
0
20
0
30
0
2
GEO_FINE_SOIL
70
0
71
0
91
1
92
3
72
0
73
1
93
4
10
218
20
205.5
10
264
20
199.75000000000006
10
264
20
221.5
10
218
20
227
97
0
75
0
76
1
52
0
41
1
77
0
78
1
53
0
43
0
44
0
45
0
46
3
79
2
49
0
49
-3
0
LINE
5
1D7
330
6
100
AcDbEntity
8
GEO_BOUNDARY
100
AcDbLine
10
218
20
205.5
30
0
11
264
21
199.75000000000006
31
0
0
LINE
5
1D8
330
6
100
AcDbEntity
8
GEO_BOUNDARY
100
AcDbLine
10
218
20
227
30
0
11
264
21
221.5
31
0
0
TEXT
5
1D9
330
6
100
AcDbEntity
8
GEO_TEXT
100
AcDbText
10
241
20
213.4375
30
0
40
1.8
1
2
7
STANDARD
72
1
11
241
21
213.4375
31
0
100
AcDbText
0
HATCH
5
1DA
330
6
100
AcDbEntity
8
GEO_HATCH
100
AcDbHatch
10
0
20
0
30
0
2
GEO_SILTY_CLAY
70
0
71
0
91
1
92
3
72
0
73
1
93
4
10
218
20
174.99999999999994
10
264
20
169
10
264
20
199.75000000000006
10
218
20
205.5
97
0
75
0
76
1
52
0
41
1
77
0
78
2
53
0
43
0
44
0
45
0
46
3
79
2
49
2
49
-3
53
90
43
0
44
0
45
6
46
0
79
2
49
0
49
-6
0
LINE
5
1DB
330
6
100
AcDbEntity
8
GEO_BOUNDARY
100
AcDbLine
10
218
20
174.99999999999994
30
0
11
264
21
169
31
0
0
LINE
5
1DC
330
6
100
AcDbEntity
8
GEO_BOUNDARY
100
AcDbLine
10
218
20
205.5
30
0
11
264
21
199.75000000000006
31
0
0
TEXT
5
1DD
330
6
100
AcDbEntity
8
GEO_TEXT
100
AcDbText
10
241
20
187.3125
30
0
40
1.8
1
3
7
STANDARD
72
1
11
241
21
187.3125
31
0
100
AcDbText
0
HATCH
5
1DE
330
6
100
AcDbEntity
8
GEO_HATCH
100
AcDbHatch
10
0
20
0
30
0
2
GEO_SAND
70
0
71
0
91
1
92
3
72
0
73
1
93
4
10
218
20
145.5
10
264
20
139.75000000000006
10
264
20
169
10
218
20
174.99999999999994
97
0
75
0
76
1
52
0
41
1
77
0
78
2
53
0
43
0
44
0
45
0
46
2.2
79
2
49
0
49
-2.2
53
0
43
1.1
44
1.1
45
0
46
4.4
79
2
49
0
49
-4.4
0
LINE
5
1DF
330
6
100
AcDbEntity
8
GEO_BOUNDARY
100
AcDbLine
10
218
20
145.5
30
0
11
264
21
139.75000000000006
31
0
0
LINE
5
1E0
330
6
100
AcDbEntity
8
GEO_BOUNDARY
100
AcDbLine
10
218
20
174.99999999999994
30
0
11
264
21
169
31
0
0
TEXT
5
1E1
330
6
100
AcDbEntity
8
GEO_TEXT
100
AcDbText
10
241
20
157.3125
30
0
40
1.8
1
4
7
STANDARD
72
1
11
241
21
157.3125
31
0
100
AcDbText
0
HATCH
5
1E2
330
6
100
AcDbEntity
8
GEO_HATCH
100
AcDbHatch
10
0
20
0
30
0
2
GEO_GRAVEL
70
0
71
0
91
1
92
3
72
0
73
1
93
4
10
218
20
115.00000000000003
10
264
20
109.50000000000006
10
264
20
139.75000000000006
10
218
20
145.5
97
0
75
0
76
1
52
0
41
1
77
0
78
2
53
45
43
0
44
0
45
0
46
6
79
2
49
1.5
49
-4.5
53
315
43
2
44
0
45
0
46
6
79
2
49
1.5
49
-4.5
0
LINE
5
1E3
330
6
100
AcDbEntity
8
GEO_BOUNDARY
100
AcDbLine
10
218
20
115.00000000000003
30
0
11
264
21
109.50000000000006
31
0
0
LINE
5
1E4
330
6
100
AcDbEntity
8
GEO_BOUNDARY
100
AcDbLine
10
218
20
145.5
30
0
11
264
21
139.75000000000006
31
0
0
TEXT
5
1E5
330
6
100
AcDbEntity
8
GEO_TEXT
100
AcDbText
10
241
20
127.43750000000004
30
0
40
1.8
1
5
7
STANDARD
72
1
11
241
21
127.43750000000004
31
0
100
AcDbText
0
HATCH
5
1E6
330
6
100
AcDbEntity
8
GEO_HATCH
100
AcDbHatch
10
0
20
0
30
0
2
GEO_WEATHERED_ROCK
70
0
71
0
91
1
92
3
72
0
73
1
93
4
10
218
20
81.99999999999999
10
264
20
82.50000000000003
10
264
20
109.50000000000006
10
218
20
115.00000000000003
97
0
75
0
76
1
52
0
41
1
77
0
78
2
53
30
43
0
44
0
45
0
46
3.5
79
2
49
5
49
-2
53
330
43
0
44
0
45
0
46
8
79
2
49
1.5
49
-6.5
0
LINE
5
1E7
330
6
100
AcDbEntity
8
GEO_BOUNDARY
100
AcDbLine
10
218
20
81.99999999999999
30
0
11
264
21
82.50000000000003
31
0
0
LINE
5
1E8
330
6
100
AcDbEntity
8
GEO_BOUNDARY
100
AcDbLine
10
218
20
115.00000000000003
30
0
11
264
21
109.50000000000006
31
0
0
TEXT
5
1E9
330
6
100
AcDbEntity
8
GEO_TEXT
100
AcDbText
10
241
20
97.25000000000003
30
0
40
1.8
1
6
7
STANDARD
72
1
11
241
21
97.25000000000003
31
0
100
AcDbText
0
HATCH
5
1EA
330
6
100
AcDbEntity
8
GEO_HATCH
100
AcDbHatch
10
0
20
0
30
0
2
GEO_FILL
70
0
71
0
91
1
92
3
72
0
73
1
93
4
10
264
20
221.5
10
312
20
226.5
10
312
20
235.5
10
264
20
232.50000000000003
97
0
75
0
76
1
52
0
41
1
77
0
78
2
53
45
43
0
44
0
45
0
46
4
79
2
49
5
49
-3
53
315
43
1
44
0
45
0
46
7
79
2
49
2
49
-5
0
LINE
5
1EB
330
6
100
AcDbEntity
8
GEO_BOUNDARY
100
AcDbLine
10
264
20
221.5
30
0
11
312
21
226.5
31
0
0
LINE
5
1EC
330
6
100
AcDbEntity
8
GEO_BOUNDARY
100
AcDbLine
10
264
20
232.50000000000003
30
0
11
312
21
235.5
31
0
0
TEXT
5
1ED
330
6
100
AcDbEntity
8
GEO_TEXT
100
AcDbText
10
288
20
229
30
0
40
1.8
1
1
7
STANDARD
72
1
11
288
21
229
31
0
100
AcDbText
0
HATCH
5
1EE
330
6
100
AcDbEntity
8
GEO_HATCH
100
AcDbHatch
10
0
20
0
30
0
2
GEO_FINE_SOIL
70
0
71
0
91
1
92
3
72
0
73
1
93
4
10
264
20
199.75000000000006
10
312
20
201.5
10
312
20
226.5
10
264
20
221.5
97
0
75
0
76
1
52
0
41
1
77
0
78
1
53
0
43
0
44
0
45
0
46
3
79
2
49
0
49
-3
0
LINE
5
1EF
330
6
100
AcDbEntity
8
GEO_BOUNDARY
100
AcDbLine
10
264
20
199.75000000000006
30
0
11
312
21
201.5
31
0
0
LINE
5
1F0
330
6
100
AcDbEntity
8
GEO_BOUNDARY
100
AcDbLine
10
264
20
221.5
30
0
11
312
21
226.5
31
0
0
TEXT
5
1F1
330
6
100
AcDbEntity
8
GEO_TEXT
100
AcDbText
10
288
20
212.3125
30
0
40
1.8
1
2
7
STANDARD
72
1
11
288
21
212.3125
31
0
100
AcDbText
0
HATCH
5
1F2
330
6
100
AcDbEntity
8
GEO_HATCH
100
AcDbHatch
10
0
20
0
30
0
2
GEO_SILTY_CLAY
70
0
71
0
91
1
92
3
72
0
73
1
93
4
10
264
20
169
10
312
20
175.00000000000003
10
312
20
201.5
10
264
20
199.75000000000006
97
0
75
0
76
1
52
0
41
1
77
0
78
2
53
0
43
0
44
0
45
0
46
3
79
2
49
2
49
-3
53
90
43
0
44
0
45
6
46
0
79
2
49
0
49
-6
0
LINE
5
1F3
330
6
100
AcDbEntity
8
GEO_BOUNDARY
100
AcDbLine
10
264
20
169
30
0
11
312
21
175.00000000000003
31
0
0
LINE
5
1F4
330
6
100
AcDbEntity
8
GEO_BOUNDARY
100
AcDbLine
10
264
20
199.75000000000006
30
0
11
312
21
201.5
31
0
0
TEXT
5
1F5
330
6
100
AcDbEntity
8
GEO_TEXT
100
AcDbText
10
288
20
186.3125
30
0
40
1.8
1
3
7
STANDARD
72
1
11
288
21
186.3125
31
0
100
AcDbText
0
HATCH
5
1F6
330
6
100
AcDbEntity
8
GEO_HATCH
100
AcDbHatch
10
0
20
0
30
0
2
GEO_SAND
70
0
71
0
91
1
92
3
72
0
73
1
93
4
10
264
20
139.75000000000006
10
312
20
141.5
10
312
20
175.00000000000003
10
264
20
169
97
0
75
0
76
1
52
0
41
1
77
0
78
2
53
0
43
0
44
0
45
0
46
2.2
79
2
49
0
49
-2.2
53
0
43
1.1
44
1.1
45
0
46
4.4
79
2
49
0
49
-4.4
0
LINE
5
1F7
330
6
100
AcDbEntity
8
GEO_BOUNDARY
100
AcDbLine
10
264
20
139.75000000000006
30
0
11
312
21
141.5
31
0
0
LINE
5
1F8
330
6
100
AcDbEntity
8
GEO_BOUNDARY
100
AcDbLine
10
264
20
169
30
0
11
312
21
175.00000000000003
31
0
0
TEXT
5
1F9
330
6
100
AcDbEntity
8
GEO_TEXT
100
AcDbText
10
288
20
156.3125
30
0
40
1.8
1
4
7
STANDARD
72
1
11
288
21
156.3125
31
0
100
AcDbText
0
HATCH
5
1FA
330
6
100
AcDbEntity
8
GEO_HATCH
100
AcDbHatch
10
0
20
0
30
0
2
GEO_GRAVEL
70
0
71
0
91
1
92
3
72
0
73
1
93
4
10
264
20
109.50000000000006
10
312
20
114.49999999999999
10
312
20
141.5
10
264
20
139.75000000000006
97
0
75
0
76
1
52
0
41
1
77
0
78
2
53
45
43
0
44
0
45
0
46
6
79
2
49
1.5
49
-4.5
53
315
43
2
44
0
45
0
46
6
79
2
49
1.5
49
-4.5
0
LINE
5
1FB
330
6
100
AcDbEntity
8
GEO_BOUNDARY
100
AcDbLine
10
264
20
109.50000000000006
30
0
11
312
21
114.49999999999999
31
0
0
LINE
5
1FC
330
6
100
AcDbEntity
8
GEO_BOUNDARY
100
AcDbLine
10
264
20
139.75000000000006
30
0
11
312
21
141.5
31
0
0
TEXT
5
1FD
330
6
100
AcDbEntity
8
GEO_TEXT
100
AcDbText
10
288
20
126.31250000000003
30
0
40
1.8
1
5
7
STANDARD
72
1
11
288
21
126.31250000000003
31
0
100
AcDbText
0
HATCH
5
1FE
330
6
100
AcDbEntity
8
GEO_HATCH
100
AcDbHatch
10
0
20
0
30
0
2
GEO_WEATHERED_ROCK
70
0
71
0
91
1
92
3
72
0
73
1
93
4
10
264
20
82.50000000000003
10
312
20
75.5
10
312
20
114.49999999999999
10
264
20
109.50000000000006
97
0
75
0
76
1
52
0
41
1
77
0
78
2
53
30
43
0
44
0
45
0
46
3.5
79
2
49
5
49
-2
53
330
43
0
44
0
45
0
46
8
79
2
49
1.5
49
-6.5
0
LINE
5
1FF
330
6
100
AcDbEntity
8
GEO_BOUNDARY
100
AcDbLine
10
264
20
82.50000000000003
30
0
11
312
21
75.5
31
0
0
LINE
5
200
330
6
100
AcDbEntity
8
GEO_BOUNDARY
100
AcDbLine
10
264
20
109.50000000000006
30
0
11
312
21
114.49999999999999
31
0
0
TEXT
5
201
330
6
100
AcDbEntity
8
GEO_TEXT
100
AcDbText
10
288
20
95.50000000000003
30
0
40
1.8
1
6
7
STANDARD
72
1
11
288
21
95.50000000000003
31
0
100
AcDbText
0
HATCH
5
202
330
6
100
AcDbEntity
8
GEO_HATCH
100
AcDbHatch
10
0
20
0
30
0
2
GEO_FILL
70
0
71
0
91
1
92
3
72
0
73
1
93
4
10
312
20
226.5
10
362
20
220.99999999999997
10
362
20
230.99999999999997
10
312
20
235.5
97
0
75
0
76
1
52
0
41
1
77
0
78
2
53
45
43
0
44
0
45
0
46
4
79
2
49
5
49
-3
53
315
43
1
44
0
45
0
46
7
79
2
49
2
49
-5
0
LINE
5
203
330
6
100
AcDbEntity
8
GEO_BOUNDARY
100
AcDbLine
10
312
20
226.5
30
0
11
362
21
220.99999999999997
31
0
0
LINE
5
204
330
6
100
AcDbEntity
8
GEO_BOUNDARY
100
AcDbLine
10
312
20
235.5
30
0
11
362
21
230.99999999999997
31
0
0
TEXT
5
205
330
6
100
AcDbEntity
8
GEO_TEXT
100
AcDbText
10
337
20
228.5
30
0
40
1.8
1
1
7
STANDARD
72
1
11
337
21
228.5
31
0
100
AcDbText
0
HATCH
5
206
330
6
100
AcDbEntity
8
GEO_HATCH
100
AcDbHatch
10
0
20
0
30
0
2
GEO_FINE_SOIL
70
0
71
0
91
1
92
3
72
0
73
1
93
4
10
312
20
201.5
10
362
20
195.75
10
362
20
220.99999999999997
10
312
20
226.5
97
0
75
0
76
1
52
0
41
1
77
0
78
1
53
0
43
0
44
0
45
0
46
3
79
2
49
0
49
-3
0
LINE
5
207
330
6
100
AcDbEntity
8
GEO_BOUNDARY
100
AcDbLine
10
312
20
201.5
30
0
11
362
21
195.75
31
0
0
LINE
5
208
330
6
100
AcDbEntity
8
GEO_BOUNDARY
100
AcDbLine
10
312
20
226.5
30
0
11
362
21
220.99999999999997
31
0
0
TEXT
5
209
330
6
100
AcDbEntity
8
GEO_TEXT
100
AcDbText
10
337
20
211.1875
30
0
40
1.8
1
2
7
STANDARD
72
1
11
337
21
211.1875
31
0
100
AcDbText
0
HATCH
5
20A
330
6
100
AcDbEntity
8
GEO_HATCH
100
AcDbHatch
10
0
20
0
30
0
2
GEO_SILTY_CLAY
70
0
71
0
91
1
92
3
72
0
73
1
93
4
10
312
20
175.00000000000003
10
362
20
168.99999999999994
10
362
20
195.75
10
312
20
201.5
97
0
75
0
76
1
52
0
41
1
77
0
78
2
53
0
43
0
44
0
45
0
46
3
79
2
49
2
49
-3
53
90
43
0
44
0
45
6
46
0
79
2
49
0
49
-6
0
LINE
5
20B
330
6
100
AcDbEntity
8
GEO_BOUNDARY
100
AcDbLine
10
312
20
175.00000000000003
30
0
11
362
21
168.99999999999994
31
0
0
LINE
5
20C
330
6
100
AcDbEntity
8
GEO_BOUNDARY
100
AcDbLine
10
312
20
201.5
30
0
11
362
21
195.75
31
0
0
TEXT
5
20D
330
6
100
AcDbEntity
8
GEO_TEXT
100
AcDbText
10
337
20
185.3125
30
0
40
1.8
1
3
7
STANDARD
72
1
11
337
21
185.3125
31
0
100
AcDbText
0
HATCH
5
20E
330
6
100
AcDbEntity
8
GEO_HATCH
100
AcDbHatch
10
0
20
0
30
0
2
GEO_SAND
70
0
71
0
91
1
92
3
72
0
73
1
93
4
10
312
20
141.5
10
362
20
135.75
10
362
20
168.99999999999994
10
312
20
175.00000000000003
97
0
75
0
76
1
52
0
41
1
77
0
78
2
53
0
43
0
44
0
45
0
46
2.2
79
2
49
0
49
-2.2
53
0
43
1.1
44
1.1
45
0
46
4.4
79
2
49
0
49
-4.4
0
LINE
5
20F
330
6
100
AcDbEntity
8
GEO_BOUNDARY
100
AcDbLine
10
312
20
141.5
30
0
11
362
21
135.75
31
0
0
LINE
5
210
330
6
100
AcDbEntity
8
GEO_BOUNDARY
100
AcDbLine
10
312
20
175.00000000000003
30
0
11
362
21
168.99999999999994
31
0
0
TEXT
5
211
330
6
100
AcDbEntity
8
GEO_TEXT
100
AcDbText
10
337
20
155.3125
30
0
40
1.8
1
4
7
STANDARD
72
1
11
337
21
155.3125
31
0
100
AcDbText
0
HATCH
5
212
330
6
100
AcDbEntity
8
GEO_HATCH
100
AcDbHatch
10
0
20
0
30
0
2
GEO_GRAVEL
70
0
71
0
91
1
92
3
72
0
73
1
93
4
10
312
20
114.49999999999999
10
362
20
108.99999999999994
10
362
20
135.75
10
312
20
141.5
97
0
75
0
76
1
52
0
41
1
77
0
78
2
53
45
43
0
44
0
45
0
46
6
79
2
49
1.5
49
-4.5
53
315
43
2
44
0
45
0
46
6
79
2
49
1.5
49
-4.5
0
LINE
5
213
330
6
100
AcDbEntity
8
GEO_BOUNDARY
100
AcDbLine
10
312
20
114.49999999999999
30
0
11
362
21
108.99999999999994
31
0
0
LINE
5
214
330
6
100
AcDbEntity
8
GEO_BOUNDARY
100
AcDbLine
10
312
20
141.5
30
0
11
362
21
135.75
31
0
0
TEXT
5
215
330
6
100
AcDbEntity
8
GEO_TEXT
100
AcDbText
10
337
20
125.18749999999999
30
0
40
1.8
1
5
7
STANDARD
72
1
11
337
21
125.18749999999999
31
0
100
AcDbText
0
HATCH
5
216
330
6
100
AcDbEntity
8
GEO_HATCH
100
AcDbHatch
10
0
20
0
30
0
2
GEO_WEATHERED_ROCK
70
0
71
0
91
1
92
3
72
0
73
1
93
4
10
312
20
75.5
10
362
20
75.99999999999997
10
362
20
108.99999999999994
10
312
20
114.49999999999999
97
0
75
0
76
1
52
0
41
1
77
0
78
2
53
30
43
0
44
0
45
0
46
3.5
79
2
49
5
49
-2
53
330
43
0
44
0
45
0
46
8
79
2
49
1.5
49
-6.5
0
LINE
5
217
330
6
100
AcDbEntity
8
GEO_BOUNDARY
100
AcDbLine
10
312
20
75.5
30
0
11
362
21
75.99999999999997
31
0
0
LINE
5
218
330
6
100
AcDbEntity
8
GEO_BOUNDARY
100
AcDbLine
10
312
20
114.49999999999999
30
0
11
362
21
108.99999999999994
31
0
0
TEXT
5
219
330
6
100
AcDbEntity
8
GEO_TEXT
100
AcDbText
10
337
20
93.74999999999997
30
0
40
1.8
1
6
7
STANDARD
72
1
11
337
21
93.74999999999997
31
0
100
AcDbText
0
TEXT
5
21A
330
6
100
AcDbEntity
8
GEO_TEXT
100
AcDbText
10
14
20
24.2
30
0
40
1.5
1
仅显示已提供的地层与对比关系；未对比区域按设计留空。
7
STANDARD
100
AcDbText
0
LWPOLYLINE
5
21B
330
6
100
AcDbEntity
8
GEO_BOUNDARY
100
AcDbPolyline
90
4
70
1
38
0
10
14
20
259
10
22
20
259
10
22
20
263
10
14
20
263
0
HATCH
5
21C
330
6
100
AcDbEntity
8
GEO_HATCH
100
AcDbHatch
10
0
20
0
30
0
2
GEO_FILL
70
0
71
0
91
1
92
3
72
0
73
1
93
4
10
14
20
259
10
22
20
259
10
22
20
263
10
14
20
263
97
0
75
0
76
1
52
0
41
1
77
0
78
2
53
45
43
0
44
0
45
0
46
4
79
2
49
5
49
-3
53
315
43
1
44
0
45
0
46
7
79
2
49
2
49
-5
0
TEXT
5
21D
330
6
100
AcDbEntity
8
GEO_TEXT
100
AcDbText
10
24
20
259.9
30
0
40
2.2
1
示例填土
7
STANDARD
41
1
100
AcDbText
0
LWPOLYLINE
5
21E
330
6
100
AcDbEntity
8
GEO_BOUNDARY
100
AcDbPolyline
90
4
70
1
38
0
10
80
20
259
10
88
20
259
10
88
20
263
10
80
20
263
0
HATCH
5
21F
330
6
100
AcDbEntity
8
GEO_HATCH
100
AcDbHatch
10
0
20
0
30
0
2
GEO_FINE_SOIL
70
0
71
0
91
1
92
3
72
0
73
1
93
4
10
80
20
259
10
88
20
259
10
88
20
263
10
80
20
263
97
0
75
0
76
1
52
0
41
1
77
0
78
1
53
0
43
0
44
0
45
0
46
3
79
2
49
0
49
-3
0
TEXT
5
220
330
6
100
AcDbEntity
8
GEO_TEXT
100
AcDbText
10
90
20
259.9
30
0
40
2.2
1
示例黏土
7
STANDARD
41
1
100
AcDbText
0
LWPOLYLINE
5
221
330
6
100
AcDbEntity
8
GEO_BOUNDARY
100
AcDbPolyline
90
4
70
1
38
0
10
146
20
259
10
154
20
259
10
154
20
263
10
146
20
263
0
HATCH
5
222
330
6
100
AcDbEntity
8
GEO_HATCH
100
AcDbHatch
10
0
20
0
30
0
2
GEO_SILTY_CLAY
70
0
71
0
91
1
92
3
72
0
73
1
93
4
10
146
20
259
10
154
20
259
10
154
20
263
10
146
20
263
97
0
75
0
76
1
52
0
41
1
77
0
78
2
53
0
43
0
44
0
45
0
46
3
79
2
49
2
49
-3
53
90
43
0
44
0
45
6
46
0
79
2
49
0
49
-6
0
TEXT
5
223
330
6
100
AcDbEntity
8
GEO_TEXT
100
AcDbText
10
156
20
259.9
30
0
40
2.2
1
示例粉质黏土
7
STANDARD
41
1
100
AcDbText
0
LWPOLYLINE
5
224
330
6
100
AcDbEntity
8
GEO_BOUNDARY
100
AcDbPolyline
90
4
70
1
38
0
10
212
20
259
10
220
20
259
10
220
20
263
10
212
20
263
0
HATCH
5
225
330
6
100
AcDbEntity
8
GEO_HATCH
100
AcDbHatch
10
0
20
0
30
0
2
GEO_SAND
70
0
71
0
91
1
92
3
72
0
73
1
93
4
10
212
20
259
10
220
20
259
10
220
20
263
10
212
20
263
97
0
75
0
76
1
52
0
41
1
77
0
78
2
53
0
43
0
44
0
45
0
46
2.2
79
2
49
0
49
-2.2
53
0
43
1.1
44
1.1
45
0
46
4.4
79
2
49
0
49
-4.4
0
TEXT
5
226
330
6
100
AcDbEntity
8
GEO_TEXT
100
AcDbText
10
222
20
259.9
30
0
40
2.2
1
示例砂土
7
STANDARD
41
1
100
AcDbText
0
LWPOLYLINE
5
227
330
6
100
AcDbEntity
8
GEO_BOUNDARY
100
AcDbPolyline
90
4
70
1
38
0
10
278
20
259
10
286
20
259
10
286
20
263
10
278
20
263
0
HATCH
5
228
330
6
100
AcDbEntity
8
GEO_HATCH
100
AcDbHatch
10
0
20
0
30
0
2
GEO_GRAVEL
70
0
71
0
91
1
92
3
72
0
73
1
93
4
10
278
20
259
10
286
20
259
10
286
20
263
10
278
20
263
97
0
75
0
76
1
52
0
41
1
77
0
78
2
53
45
43
0
44
0
45
0
46
6
79
2
49
1.5
49
-4.5
53
315
43
2
44
0
45
0
46
6
79
2
49
1.5
49
-4.5
0
TEXT
5
229
330
6
100
AcDbEntity
8
GEO_TEXT
100
AcDbText
10
288
20
259.9
30
0
40
2.2
1
示例砾石
7
STANDARD
41
1
100
AcDbText
0
LWPOLYLINE
5
22A
330
6
100
AcDbEntity
8
GEO_BOUNDARY
100
AcDbPolyline
90
4
70
1
38
0
10
344
20
259
10
352
20
259
10
352
20
263
10
344
20
263
0
HATCH
5
22B
330
6
100
AcDbEntity
8
GEO_HATCH
100
AcDbHatch
10
0
20
0
30
0
2
GEO_WEATHERED_ROCK
70
0
71
0
91
1
92
3
72
0
73
1
93
4
10
344
20
259
10
352
20
259
10
352
20
263
10
344
20
263
97
0
75
0
76
1
52
0
41
1
77
0
78
2
53
30
43
0
44
0
45
0
46
3.5
79
2
49
5
49
-2
53
330
43
0
44
0
45
0
46
8
79
2
49
1.5
49
-6.5
0
TEXT
5
22C
330
6
100
AcDbEntity
8
GEO_TEXT
100
AcDbText
10
354
20
259.9
30
0
40
2.2
1
示例风化岩
7
STANDARD
41
1
100
AcDbText
0
CIRCLE
5
22D
330
6
100
AcDbEntity
8
0
100
AcDbCircle
10
402
20
285
30
0
40
1.5
210
0
220
0
230
1
0
ENDSEC
0
SECTION
2
OBJECTS
0
DICTIONARY
5
23A
330
0
100
AcDbDictionary
281
1
3
ACAD_LAYOUT
350
23B
0
DICTIONARY
5
23B
330
23A
100
AcDbDictionary
280
1
281
1
3
Model
350
8
3
Layout1
350
9
0
LAYOUT
5
8
102
{ACAD_REACTORS
330
23B
102
}
330
23B
100
AcDbPlotSettings
100
AcDbLayout
1
Model
70
1
71
0
12
0
22
0
32
0
14
100000000000000000000
24
100000000000000000000
34
100000000000000000000
15
-100000000000000000000
25
-100000000000000000000
35
-100000000000000000000
13
0
23
0
33
0
16
1
26
0
36
0
17
0
27
1
37
0
330
6
0
LAYOUT
5
9
102
{ACAD_REACTORS
330
23B
102
}
330
23B
100
AcDbPlotSettings
100
AcDbLayout
1
Layout1
70
1
71
1
10
0
20
0
11
420
21
297
12
0
22
0
32
0
14
100000000000000000000
24
100000000000000000000
34
100000000000000000000
15
-100000000000000000000
25
-100000000000000000000
35
-100000000000000000000
13
0
23
0
33
0
16
1
26
0
36
0
17
0
27
1
37
0
330
7
0
ENDSEC
0
EOF
